<svg width="395" height="243" viewBox="0 0 395 243" fill="none" xmlns="http://www.w3.org/2000/svg">
<path d="M88.9746 181.372H265.028H88.9746Z" stroke="black" stroke-width="2.24" stroke-miterlimit="10" stroke-linecap="round" stroke-linejoin="round"/>
<path d="M88.9746 45.5923H265.348H88.9746Z" stroke="black" stroke-width="2.24" stroke-miterlimit="10" stroke-linecap="round" stroke-linejoin="round"/>
<path d="M265.027 181.372L265.347 45.5923L265.027 181.372Z" stroke="black" stroke-width="2.24" stroke-miterlimit="10" stroke-linecap="round" stroke-linejoin="round"/>
<path d="M88.9744 51.1011H17.9131H88.9744Z" stroke="black" stroke-width="2.24" stroke-miterlimit="10" stroke-linecap="round" stroke-linejoin="round"/>
<path d="M88.9745 175.863H17.9131H88.9745Z" stroke="black" stroke-width="2.24" stroke-miterlimit="10" stroke-linecap="round" stroke-linejoin="round"/>
<path d="M13.4326 171.326V55.6377V171.326Z" stroke="black" stroke-width="2.24" stroke-miterlimit="10" stroke-linecap="round" stroke-linejoin="round"/>
<path d="M13.4326 171.326H88.9753H13.4326Z" stroke="black" stroke-width="0.96" stroke-miterlimit="10" stroke-linecap="round" stroke-linejoin="round"/>
<path d="M13.4326 171.326L17.914 175.862L13.4326 171.326Z" stroke="black" stroke-width="2.24" stroke-miterlimit="10" stroke-linecap="round" stroke-linejoin="round"/>
<path d="M13.4326 55.6377H88.9753H13.4326Z" stroke="black" stroke-width="0.96" stroke-miterlimit="10" stroke-linecap="round" stroke-linejoin="round"/>
<path d="M13.4326 55.6378L17.914 51.1011L13.4326 55.6378Z" stroke="black" stroke-width="2.24" stroke-miterlimit="10" stroke-linecap="round" stroke-linejoin="round"/>
<path d="M17.9131 175.863V51.1011V175.863Z" stroke="black" stroke-width="2.24" stroke-miterlimit="10" stroke-linecap="round" stroke-linejoin="round"/>
<path d="M88.9748 171.326L86.4141 175.862L88.9748 171.326Z" stroke="black" stroke-width="1.92" stroke-miterlimit="10" stroke-linecap="round" stroke-linejoin="round"/>
<path d="M86.4143 175.862L83.8535 171.326L86.4143 175.862Z" stroke="black" stroke-width="1.92" stroke-miterlimit="10" stroke-linecap="round" stroke-linejoin="round"/>
<path d="M83.8538 171.326L81.293 175.862L83.8538 171.326Z" stroke="black" stroke-width="1.92" stroke-miterlimit="10" stroke-linecap="round" stroke-linejoin="round"/>
<path d="M81.293 175.862L78.4121 171.326L81.293 175.862Z" stroke="black" stroke-width="1.92" stroke-miterlimit="10" stroke-linecap="round" stroke-linejoin="round"/>
<path d="M78.4113 171.326L75.8506 175.862L78.4113 171.326Z" stroke="black" stroke-width="1.92" stroke-miterlimit="10" stroke-linecap="round" stroke-linejoin="round"/>
<path d="M75.8508 175.862L73.29 171.326L75.8508 175.862Z" stroke="black" stroke-width="1.92" stroke-miterlimit="10" stroke-linecap="round" stroke-linejoin="round"/>
<path d="M73.2903 171.326L70.7295 175.862L73.2903 171.326Z" stroke="black" stroke-width="1.92" stroke-miterlimit="10" stroke-linecap="round" stroke-linejoin="round"/>
<path d="M70.7297 175.862L68.1689 171.326L70.7297 175.862Z" stroke="black" stroke-width="1.92" stroke-miterlimit="10" stroke-linecap="round" stroke-linejoin="round"/>
<path d="M68.1689 171.326L65.2881 175.862L68.1689 171.326Z" stroke="black" stroke-width="1.92" stroke-miterlimit="10" stroke-linecap="round" stroke-linejoin="round"/>
<path d="M65.2874 175.862L62.7266 171.326L65.2874 175.862Z" stroke="black" stroke-width="1.92" stroke-miterlimit="10" stroke-linecap="round" stroke-linejoin="round"/>
<path d="M62.7268 171.326L60.166 175.862L62.7268 171.326Z" stroke="black" stroke-width="1.92" stroke-miterlimit="10" stroke-linecap="round" stroke-linejoin="round"/>
<path d="M60.1662 175.862L57.6055 171.326L60.1662 175.862Z" stroke="black" stroke-width="1.92" stroke-miterlimit="10" stroke-linecap="round" stroke-linejoin="round"/>
<path d="M57.6057 171.326L55.0449 175.862L57.6057 171.326Z" stroke="black" stroke-width="1.92" stroke-miterlimit="10" stroke-linecap="round" stroke-linejoin="round"/>
<path d="M55.0452 175.862L52.4844 171.326L55.0452 175.862Z" stroke="black" stroke-width="1.92" stroke-miterlimit="10" stroke-linecap="round" stroke-linejoin="round"/>
<path d="M52.4834 171.326L49.6025 175.862L52.4834 171.326Z" stroke="black" stroke-width="1.92" stroke-miterlimit="10" stroke-linecap="round" stroke-linejoin="round"/>
<path d="M49.6028 175.862L47.042 171.326L49.6028 175.862Z" stroke="black" stroke-width="1.92" stroke-miterlimit="10" stroke-linecap="round" stroke-linejoin="round"/>
<path d="M47.0432 171.326L44.4824 175.862L47.0432 171.326Z" stroke="black" stroke-width="1.92" stroke-miterlimit="10" stroke-linecap="round" stroke-linejoin="round"/>
<path d="M44.4817 175.862L41.9209 171.326L44.4817 175.862Z" stroke="black" stroke-width="1.92" stroke-miterlimit="10" stroke-linecap="round" stroke-linejoin="round"/>
<path d="M41.9211 171.326L39.3604 175.862L41.9211 171.326Z" stroke="black" stroke-width="1.92" stroke-miterlimit="10" stroke-linecap="round" stroke-linejoin="round"/>
<path d="M39.3604 175.862L36.4795 171.326L39.3604 175.862Z" stroke="black" stroke-width="1.92" stroke-miterlimit="10" stroke-linecap="round" stroke-linejoin="round"/>
<path d="M36.4788 171.326L33.918 175.862L36.4788 171.326Z" stroke="black" stroke-width="1.92" stroke-miterlimit="10" stroke-linecap="round" stroke-linejoin="round"/>
<path d="M33.9192 175.862L31.3584 171.326L33.9192 175.862Z" stroke="black" stroke-width="1.92" stroke-miterlimit="10" stroke-linecap="round" stroke-linejoin="round"/>
<path d="M31.3577 171.326L28.7969 175.862L31.3577 171.326Z" stroke="black" stroke-width="1.92" stroke-miterlimit="10" stroke-linecap="round" stroke-linejoin="round"/>
<path d="M28.7971 175.862L26.2363 171.326L28.7971 175.862Z" stroke="black" stroke-width="1.92" stroke-miterlimit="10" stroke-linecap="round" stroke-linejoin="round"/>
<path d="M26.2364 171.326L23.3555 175.862L26.2364 171.326Z" stroke="black" stroke-width="1.92" stroke-miterlimit="10" stroke-linecap="round" stroke-linejoin="round"/>
<path d="M23.3547 175.862L20.7939 171.326L23.3547 175.862Z" stroke="black" stroke-width="1.92" stroke-miterlimit="10" stroke-linecap="round" stroke-linejoin="round"/>
<path d="M20.794 171.326L17.9131 175.862L20.794 171.326Z" stroke="black" stroke-width="1.92" stroke-miterlimit="10" stroke-linecap="round" stroke-linejoin="round"/>
<path d="M88.9748 55.6378L86.4141 51.1011L88.9748 55.6378Z" stroke="black" stroke-width="1.92" stroke-miterlimit="10" stroke-linecap="round" stroke-linejoin="round"/>
<path d="M86.4143 51.1011L83.8535 55.6378L86.4143 51.1011Z" stroke="black" stroke-width="1.92" stroke-miterlimit="10" stroke-linecap="round" stroke-linejoin="round"/>
<path d="M83.8538 55.6378L81.293 51.1011L83.8538 55.6378Z" stroke="black" stroke-width="1.92" stroke-miterlimit="10" stroke-linecap="round" stroke-linejoin="round"/>
<path d="M81.293 51.1011L78.4121 55.6378L81.293 51.1011Z" stroke="black" stroke-width="1.92" stroke-miterlimit="10" stroke-linecap="round" stroke-linejoin="round"/>
<path d="M78.4113 55.6378L75.8506 51.1011L78.4113 55.6378Z" stroke="black" stroke-width="1.92" stroke-miterlimit="10" stroke-linecap="round" stroke-linejoin="round"/>
<path d="M75.8508 51.1011L73.29 55.6378L75.8508 51.1011Z" stroke="black" stroke-width="1.92" stroke-miterlimit="10" stroke-linecap="round" stroke-linejoin="round"/>
<path d="M73.2903 55.6378L70.7295 51.1011L73.2903 55.6378Z" stroke="black" stroke-width="1.92" stroke-miterlimit="10" stroke-linecap="round" stroke-linejoin="round"/>
<path d="M70.7297 51.1011L68.1689 55.6378L70.7297 51.1011Z" stroke="black" stroke-width="1.92" stroke-miterlimit="10" stroke-linecap="round" stroke-linejoin="round"/>
<path d="M68.1689 55.6378L65.2881 51.1011L68.1689 55.6378Z" stroke="black" stroke-width="1.92" stroke-miterlimit="10" stroke-linecap="round" stroke-linejoin="round"/>
<path d="M65.2874 51.1011L62.7266 55.6378L65.2874 51.1011Z" stroke="black" stroke-width="1.92" stroke-miterlimit="10" stroke-linecap="round" stroke-linejoin="round"/>
<path d="M62.7268 55.6378L60.166 51.1011L62.7268 55.6378Z" stroke="black" stroke-width="1.92" stroke-miterlimit="10" stroke-linecap="round" stroke-linejoin="round"/>
<path d="M60.1662 51.1011L57.6055 55.6378L60.1662 51.1011Z" stroke="black" stroke-width="1.92" stroke-miterlimit="10" stroke-linecap="round" stroke-linejoin="round"/>
<path d="M57.6057 55.6378L55.0449 51.1011L57.6057 55.6378Z" stroke="black" stroke-width="1.92" stroke-miterlimit="10" stroke-linecap="round" stroke-linejoin="round"/>
<path d="M55.0452 51.1011L52.4844 55.6378L55.0452 51.1011Z" stroke="black" stroke-width="1.92" stroke-miterlimit="10" stroke-linecap="round" stroke-linejoin="round"/>
<path d="M52.4834 55.6378L49.6025 51.1011L52.4834 55.6378Z" stroke="black" stroke-width="1.92" stroke-miterlimit="10" stroke-linecap="round" stroke-linejoin="round"/>
<path d="M49.6028 51.1011L47.042 55.6378L49.6028 51.1011Z" stroke="black" stroke-width="1.92" stroke-miterlimit="10" stroke-linecap="round" stroke-linejoin="round"/>
<path d="M47.0432 55.6378L44.4824 51.1011L47.0432 55.6378Z" stroke="black" stroke-width="1.92" stroke-miterlimit="10" stroke-linecap="round" stroke-linejoin="round"/>
<path d="M44.4817 51.1011L41.9209 55.6378L44.4817 51.1011Z" stroke="black" stroke-width="1.92" stroke-miterlimit="10" stroke-linecap="round" stroke-linejoin="round"/>
<path d="M41.9211 55.6378L39.3604 51.1011L41.9211 55.6378Z" stroke="black" stroke-width="1.92" stroke-miterlimit="10" stroke-linecap="round" stroke-linejoin="round"/>
<path d="M39.3604 51.1011L36.4795 55.6378L39.3604 51.1011Z" stroke="black" stroke-width="1.92" stroke-miterlimit="10" stroke-linecap="round" stroke-linejoin="round"/>
<path d="M36.4787 55.6378L33.918 51.1011L36.4787 55.6378Z" stroke="black" stroke-width="1.92" stroke-miterlimit="10" stroke-linecap="round" stroke-linejoin="round"/>
<path d="M33.9192 51.1011L31.3584 55.6378L33.9192 51.1011Z" stroke="black" stroke-width="1.92" stroke-miterlimit="10" stroke-linecap="round" stroke-linejoin="round"/>
<path d="M31.3577 55.6378L28.7969 51.1011L31.3577 55.6378Z" stroke="black" stroke-width="1.92" stroke-miterlimit="10" stroke-linecap="round" stroke-linejoin="round"/>
<path d="M28.7971 51.1011L26.2363 55.6378L28.7971 51.1011Z" stroke="black" stroke-width="1.92" stroke-miterlimit="10" stroke-linecap="round" stroke-linejoin="round"/>
<path d="M26.2364 55.6378L23.3555 51.1011L26.2364 55.6378Z" stroke="black" stroke-width="1.92" stroke-miterlimit="10" stroke-linecap="round" stroke-linejoin="round"/>
<path d="M23.3547 51.1011L20.7939 55.6378L23.3547 51.1011Z" stroke="black" stroke-width="1.92" stroke-miterlimit="10" stroke-linecap="round" stroke-linejoin="round"/>
<path d="M20.7939 55.6378L17.9131 51.1011L20.7939 55.6378Z" stroke="black" stroke-width="1.92" stroke-miterlimit="10" stroke-linecap="round" stroke-linejoin="round"/>
<path d="M265.027 51.1011H336.409H265.027Z" stroke="black" stroke-width="2.24" stroke-miterlimit="10" stroke-linecap="round" stroke-linejoin="round"/>
<path d="M265.027 175.863H336.409H265.027Z" stroke="black" stroke-width="2.24" stroke-miterlimit="10" stroke-linecap="round" stroke-linejoin="round"/>
<path d="M340.891 171.326V55.6377V171.326Z" stroke="black" stroke-width="2.24" stroke-miterlimit="10" stroke-linecap="round" stroke-linejoin="round"/>
<path d="M340.89 171.326H265.027H340.89Z" stroke="black" stroke-width="0.96" stroke-miterlimit="10" stroke-linecap="round" stroke-linejoin="round"/>
<path d="M340.892 171.326L336.41 175.862L340.892 171.326Z" stroke="black" stroke-width="2.24" stroke-miterlimit="10" stroke-linecap="round" stroke-linejoin="round"/>
<path d="M340.89 55.6377H265.027H340.89Z" stroke="black" stroke-width="0.96" stroke-miterlimit="10" stroke-linecap="round" stroke-linejoin="round"/>
<path d="M340.892 55.6378L336.41 51.1011L340.892 55.6378Z" stroke="black" stroke-width="2.24" stroke-miterlimit="10" stroke-linecap="round" stroke-linejoin="round"/>
<path d="M336.409 175.863L336.089 51.1011L336.409 175.863Z" stroke="black" stroke-width="2.24" stroke-miterlimit="10" stroke-linecap="round" stroke-linejoin="round"/>
<path d="M265.027 171.326L267.908 175.862L265.027 171.326Z" stroke="black" stroke-width="1.92" stroke-miterlimit="10" stroke-linecap="round" stroke-linejoin="round"/>
<path d="M267.908 175.862L270.469 171.326L267.908 175.862Z" stroke="black" stroke-width="1.92" stroke-miterlimit="10" stroke-linecap="round" stroke-linejoin="round"/>
<path d="M270.47 171.326L273.031 175.862L270.47 171.326Z" stroke="black" stroke-width="1.92" stroke-miterlimit="10" stroke-linecap="round" stroke-linejoin="round"/>
<path d="M273.03 175.862L275.591 171.326L273.03 175.862Z" stroke="black" stroke-width="1.92" stroke-miterlimit="10" stroke-linecap="round" stroke-linejoin="round"/>
<path d="M275.591 171.326L278.152 175.862L275.591 171.326Z" stroke="black" stroke-width="1.92" stroke-miterlimit="10" stroke-linecap="round" stroke-linejoin="round"/>
<path d="M278.152 175.862L281.033 171.326L278.152 175.862Z" stroke="black" stroke-width="1.92" stroke-miterlimit="10" stroke-linecap="round" stroke-linejoin="round"/>
<path d="M281.032 171.326L283.593 175.862L281.032 171.326Z" stroke="black" stroke-width="1.92" stroke-miterlimit="10" stroke-linecap="round" stroke-linejoin="round"/>
<path d="M283.593 175.862L286.154 171.326L283.593 175.862Z" stroke="black" stroke-width="1.92" stroke-miterlimit="10" stroke-linecap="round" stroke-linejoin="round"/>
<path d="M286.154 171.326L288.715 175.862L286.154 171.326Z" stroke="black" stroke-width="1.92" stroke-miterlimit="10" stroke-linecap="round" stroke-linejoin="round"/>
<path d="M288.715 175.862L291.276 171.326L288.715 175.862Z" stroke="black" stroke-width="1.92" stroke-miterlimit="10" stroke-linecap="round" stroke-linejoin="round"/>
<path d="M291.276 171.326L294.157 175.862L291.276 171.326Z" stroke="black" stroke-width="1.92" stroke-miterlimit="10" stroke-linecap="round" stroke-linejoin="round"/>
<path d="M294.156 175.862L296.717 171.326L294.156 175.862Z" stroke="black" stroke-width="1.92" stroke-miterlimit="10" stroke-linecap="round" stroke-linejoin="round"/>
<path d="M296.717 171.326L299.278 175.862L296.717 171.326Z" stroke="black" stroke-width="1.92" stroke-miterlimit="10" stroke-linecap="round" stroke-linejoin="round"/>
<path d="M299.278 175.862L301.839 171.326L299.278 175.862Z" stroke="black" stroke-width="1.92" stroke-miterlimit="10" stroke-linecap="round" stroke-linejoin="round"/>
<path d="M301.839 171.326L304.4 175.862L301.839 171.326Z" stroke="black" stroke-width="1.92" stroke-miterlimit="10" stroke-linecap="round" stroke-linejoin="round"/>
<path d="M304.4 175.862L307.281 171.326L304.4 175.862Z" stroke="black" stroke-width="1.92" stroke-miterlimit="10" stroke-linecap="round" stroke-linejoin="round"/>
<path d="M307.281 171.326L309.842 175.862L307.281 171.326Z" stroke="black" stroke-width="1.92" stroke-miterlimit="10" stroke-linecap="round" stroke-linejoin="round"/>
<path d="M309.841 175.862L312.402 171.326L309.841 175.862Z" stroke="black" stroke-width="1.92" stroke-miterlimit="10" stroke-linecap="round" stroke-linejoin="round"/>
<path d="M312.402 171.326L314.963 175.862L312.402 171.326Z" stroke="black" stroke-width="1.92" stroke-miterlimit="10" stroke-linecap="round" stroke-linejoin="round"/>
<path d="M314.963 175.862L317.524 171.326L314.963 175.862Z" stroke="black" stroke-width="1.92" stroke-miterlimit="10" stroke-linecap="round" stroke-linejoin="round"/>
<path d="M317.524 171.326L320.085 175.862L317.524 171.326Z" stroke="black" stroke-width="1.92" stroke-miterlimit="10" stroke-linecap="round" stroke-linejoin="round"/>
<path d="M320.084 175.862L322.965 171.326L320.084 175.862Z" stroke="black" stroke-width="1.92" stroke-miterlimit="10" stroke-linecap="round" stroke-linejoin="round"/>
<path d="M322.965 171.326L325.526 175.862L322.965 171.326Z" stroke="black" stroke-width="1.92" stroke-miterlimit="10" stroke-linecap="round" stroke-linejoin="round"/>
<path d="M325.526 175.862L328.087 171.326L325.526 175.862Z" stroke="black" stroke-width="1.92" stroke-miterlimit="10" stroke-linecap="round" stroke-linejoin="round"/>
<path d="M328.087 171.326L330.648 175.862L328.087 171.326Z" stroke="black" stroke-width="1.92" stroke-miterlimit="10" stroke-linecap="round" stroke-linejoin="round"/>
<path d="M330.647 175.862L333.208 171.326L330.647 175.862Z" stroke="black" stroke-width="1.92" stroke-miterlimit="10" stroke-linecap="round" stroke-linejoin="round"/>
<path d="M333.209 171.326L336.41 175.862L333.209 171.326Z" stroke="black" stroke-width="1.92" stroke-miterlimit="10" stroke-linecap="round" stroke-linejoin="round"/>
<path d="M265.027 55.6378L267.908 51.1011L265.027 55.6378Z" stroke="black" stroke-width="1.92" stroke-miterlimit="10" stroke-linecap="round" stroke-linejoin="round"/>
<path d="M267.908 51.1011L270.469 55.6378L267.908 51.1011Z" stroke="black" stroke-width="1.92" stroke-miterlimit="10" stroke-linecap="round" stroke-linejoin="round"/>
<path d="M270.47 55.6378L273.031 51.1011L270.47 55.6378Z" stroke="black" stroke-width="1.92" stroke-miterlimit="10" stroke-linecap="round" stroke-linejoin="round"/>
<path d="M273.03 51.1011L275.591 55.6378L273.03 51.1011Z" stroke="black" stroke-width="1.92" stroke-miterlimit="10" stroke-linecap="round" stroke-linejoin="round"/>
<path d="M275.591 55.6378L278.152 51.1011L275.591 55.6378Z" stroke="black" stroke-width="1.92" stroke-miterlimit="10" stroke-linecap="round" stroke-linejoin="round"/>
<path d="M278.152 51.1011L281.033 55.6378L278.152 51.1011Z" stroke="black" stroke-width="1.92" stroke-miterlimit="10" stroke-linecap="round" stroke-linejoin="round"/>
<path d="M281.032 55.6378L283.593 51.1011L281.032 55.6378Z" stroke="black" stroke-width="1.92" stroke-miterlimit="10" stroke-linecap="round" stroke-linejoin="round"/>
<path d="M283.593 51.1011L286.154 55.6378L283.593 51.1011Z" stroke="black" stroke-width="1.92" stroke-miterlimit="10" stroke-linecap="round" stroke-linejoin="round"/>
<path d="M286.154 55.6378L288.715 51.1011L286.154 55.6378Z" stroke="black" stroke-width="1.92" stroke-miterlimit="10" stroke-linecap="round" stroke-linejoin="round"/>
<path d="M288.715 51.1011L291.276 55.6378L288.715 51.1011Z" stroke="black" stroke-width="1.92" stroke-miterlimit="10" stroke-linecap="round" stroke-linejoin="round"/>
<path d="M291.275 55.6378L294.156 51.1011L291.275 55.6378Z" stroke="black" stroke-width="1.92" stroke-miterlimit="10" stroke-linecap="round" stroke-linejoin="round"/>
<path d="M294.156 51.1011L296.717 55.6378L294.156 51.1011Z" stroke="black" stroke-width="1.92" stroke-miterlimit="10" stroke-linecap="round" stroke-linejoin="round"/>
<path d="M296.717 55.6378L299.278 51.1011L296.717 55.6378Z" stroke="black" stroke-width="1.92" stroke-miterlimit="10" stroke-linecap="round" stroke-linejoin="round"/>
<path d="M299.278 51.1011L301.839 55.6378L299.278 51.1011Z" stroke="black" stroke-width="1.92" stroke-miterlimit="10" stroke-linecap="round" stroke-linejoin="round"/>
<path d="M301.839 55.6378L304.4 51.1011L301.839 55.6378Z" stroke="black" stroke-width="1.92" stroke-miterlimit="10" stroke-linecap="round" stroke-linejoin="round"/>
<path d="M304.4 51.1011L307.281 55.6378L304.4 51.1011Z" stroke="black" stroke-width="1.92" stroke-miterlimit="10" stroke-linecap="round" stroke-linejoin="round"/>
<path d="M307.28 55.6378L309.841 51.1011L307.28 55.6378Z" stroke="black" stroke-width="1.92" stroke-miterlimit="10" stroke-linecap="round" stroke-linejoin="round"/>
<path d="M309.841 51.1011L312.402 55.6378L309.841 51.1011Z" stroke="black" stroke-width="1.92" stroke-miterlimit="10" stroke-linecap="round" stroke-linejoin="round"/>
<path d="M312.402 55.6378L314.963 51.1011L312.402 55.6378Z" stroke="black" stroke-width="1.92" stroke-miterlimit="10" stroke-linecap="round" stroke-linejoin="round"/>
<path d="M314.963 51.1011L317.524 55.6378L314.963 51.1011Z" stroke="black" stroke-width="1.92" stroke-miterlimit="10" stroke-linecap="round" stroke-linejoin="round"/>
<path d="M317.524 55.6378L320.085 51.1011L317.524 55.6378Z" stroke="black" stroke-width="1.92" stroke-miterlimit="10" stroke-linecap="round" stroke-linejoin="round"/>
<path d="M320.084 51.1011L322.965 55.6378L320.084 51.1011Z" stroke="black" stroke-width="1.92" stroke-miterlimit="10" stroke-linecap="round" stroke-linejoin="round"/>
<path d="M322.965 55.6378L325.526 51.1011L322.965 55.6378Z" stroke="black" stroke-width="1.92" stroke-miterlimit="10" stroke-linecap="round" stroke-linejoin="round"/>
<path d="M325.526 51.1011L328.087 55.6378L325.526 51.1011Z" stroke="black" stroke-width="1.92" stroke-miterlimit="10" stroke-linecap="round" stroke-linejoin="round"/>
<path d="M328.087 55.6378L330.648 51.1011L328.087 55.6378Z" stroke="black" stroke-width="1.92" stroke-miterlimit="10" stroke-linecap="round" stroke-linejoin="round"/>
<path d="M330.647 51.1011L333.208 55.6378L330.647 51.1011Z" stroke="black" stroke-width="1.92" stroke-miterlimit="10" stroke-linecap="round" stroke-linejoin="round"/>
<path d="M333.208 55.6378L336.409 51.1011L333.208 55.6378Z" stroke="black" stroke-width="1.92" stroke-miterlimit="10" stroke-linecap="round" stroke-linejoin="round"/>
<path d="M88.9746 181.372V45.5923V181.372Z" stroke="black" stroke-width="2.24" stroke-miterlimit="10" stroke-linecap="round" stroke-linejoin="round"/>
<path d="M94.417 45.5923L97.938 49.1569L94.417 45.5923Z" stroke="black" stroke-width="0.64" stroke-miterlimit="10" stroke-linecap="round" stroke-linejoin="round"/>
<path d="M97.9375 49.1567L103.059 54.0176L97.9375 49.1567Z" stroke="black" stroke-width="0.64" stroke-miterlimit="10" stroke-linecap="round" stroke-linejoin="round"/>
<path d="M103.06 54.0176L109.461 60.1746L103.06 54.0176Z" stroke="black" stroke-width="0.64" stroke-miterlimit="10" stroke-linecap="round" stroke-linejoin="round"/>
<path d="M109.462 60.1748L116.504 66.0078L109.462 60.1748Z" stroke="black" stroke-width="0.64" stroke-miterlimit="10" stroke-linecap="round" stroke-linejoin="round"/>
<path d="M116.504 66.0073L122.266 70.8681L116.504 66.0073Z" stroke="black" stroke-width="0.64" stroke-miterlimit="10" stroke-linecap="round" stroke-linejoin="round"/>
<path d="M122.266 70.8687L128.668 75.4054L122.266 70.8687Z" stroke="black" stroke-width="0.64" stroke-miterlimit="10" stroke-linecap="round" stroke-linejoin="round"/>
<path d="M128.666 75.4053L136.989 80.2661L128.666 75.4053Z" stroke="black" stroke-width="0.64" stroke-miterlimit="10" stroke-linecap="round" stroke-linejoin="round"/>
<path d="M136.989 80.2661L145.632 84.1548L136.989 80.2661Z" stroke="black" stroke-width="0.64" stroke-miterlimit="10" stroke-linecap="round" stroke-linejoin="round"/>
<path d="M145.632 84.1548L152.994 85.7751L145.632 84.1548Z" stroke="black" stroke-width="0.64" stroke-miterlimit="10" stroke-linecap="round" stroke-linejoin="round"/>
<path d="M152.994 85.7749L159.396 86.0993L152.994 85.7749Z" stroke="black" stroke-width="0.64" stroke-miterlimit="10" stroke-linecap="round" stroke-linejoin="round"/>
<path d="M159.396 86.0991H161.636H159.396Z" stroke="black" stroke-width="0.64" stroke-miterlimit="10" stroke-linecap="round" stroke-linejoin="round"/>
<path d="M161.637 86.0993L162.597 85.7749L161.637 86.0993Z" stroke="black" stroke-width="0.64" stroke-miterlimit="10" stroke-linecap="round" stroke-linejoin="round"/>
<path d="M162.597 85.7745L164.837 85.127L162.597 85.7745Z" stroke="black" stroke-width="0.64" stroke-miterlimit="10" stroke-linecap="round" stroke-linejoin="round"/>
<path d="M164.838 85.1268L168.679 83.8306L164.838 85.1268Z" stroke="black" stroke-width="0.64" stroke-miterlimit="10" stroke-linecap="round" stroke-linejoin="round"/>
<path d="M168.679 83.8309L174.761 80.5903L168.679 83.8309Z" stroke="black" stroke-width="0.64" stroke-miterlimit="10" stroke-linecap="round" stroke-linejoin="round"/>
<path d="M174.761 80.5902L180.843 76.3774L174.761 80.5902Z" stroke="black" stroke-width="0.64" stroke-miterlimit="10" stroke-linecap="round" stroke-linejoin="round"/>
<path d="M180.843 76.3773L184.044 74.1089L180.843 76.3773Z" stroke="black" stroke-width="0.64" stroke-miterlimit="10" stroke-linecap="round" stroke-linejoin="round"/>
<path d="M184.043 74.1092L185.323 72.813L184.043 74.1092Z" stroke="black" stroke-width="0.64" stroke-miterlimit="10" stroke-linecap="round" stroke-linejoin="round"/>
<path d="M185.324 72.8121L186.285 72.1646L185.324 72.8121Z" stroke="black" stroke-width="0.64" stroke-miterlimit="10" stroke-linecap="round" stroke-linejoin="round"/>
<path d="M186.284 72.1642L187.244 71.5166L186.284 72.1642Z" stroke="black" stroke-width="0.64" stroke-miterlimit="10" stroke-linecap="round" stroke-linejoin="round"/>
<path d="M187.245 71.5163L188.205 70.5449L187.245 71.5163Z" stroke="black" stroke-width="0.64" stroke-miterlimit="10" stroke-linecap="round" stroke-linejoin="round"/>
<path d="M188.205 70.5449H188.525H188.205Z" stroke="black" stroke-width="0.64" stroke-miterlimit="10" stroke-linecap="round" stroke-linejoin="round"/>
<path d="M188.525 70.544L189.166 69.8965L188.525 70.544Z" stroke="black" stroke-width="0.64" stroke-miterlimit="10" stroke-linecap="round" stroke-linejoin="round"/>
<path d="M189.165 69.8956L190.125 68.9243L189.165 69.8956Z" stroke="black" stroke-width="0.64" stroke-miterlimit="10" stroke-linecap="round" stroke-linejoin="round"/>
<path d="M190.125 68.9243L192.686 66.98L190.125 68.9243Z" stroke="black" stroke-width="0.64" stroke-miterlimit="10" stroke-linecap="round" stroke-linejoin="round"/>
<path d="M192.686 66.9801L197.807 63.4155L192.686 66.9801Z" stroke="black" stroke-width="0.64" stroke-miterlimit="10" stroke-linecap="round" stroke-linejoin="round"/>
<path d="M197.808 63.4152L205.49 57.9062L197.808 63.4152Z" stroke="black" stroke-width="0.64" stroke-miterlimit="10" stroke-linecap="round" stroke-linejoin="round"/>
<path d="M205.49 57.9066L216.374 51.7495L205.49 57.9066Z" stroke="black" stroke-width="0.64" stroke-miterlimit="10" stroke-linecap="round" stroke-linejoin="round"/>
<path d="M216.373 51.7492L225.976 48.1846L216.373 51.7492Z" stroke="black" stroke-width="0.64" stroke-miterlimit="10" stroke-linecap="round" stroke-linejoin="round"/>
<path d="M225.977 48.1844L235.259 45.916L225.977 48.1844Z" stroke="black" stroke-width="0.64" stroke-miterlimit="10" stroke-linecap="round" stroke-linejoin="round"/>
<path d="M235.259 45.9167L237.179 45.5923L235.259 45.9167Z" stroke="black" stroke-width="0.64" stroke-miterlimit="10" stroke-linecap="round" stroke-linejoin="round"/>
<path d="M106.261 56.9341H206.771H106.261Z" stroke="black" stroke-width="2.24" stroke-miterlimit="10" stroke-linecap="round" stroke-linejoin="round"/>
<path d="M218.613 50.7772L223.735 45.5923L218.613 50.7772Z" stroke="black" stroke-width="0.64" stroke-miterlimit="10" stroke-linecap="round" stroke-linejoin="round"/>
<path d="M196.527 56.9342L207.731 45.5923L196.527 56.9342Z" stroke="black" stroke-width="0.64" stroke-miterlimit="10" stroke-linecap="round" stroke-linejoin="round"/>
<path d="M180.202 56.9342L191.726 45.5923L180.202 56.9342Z" stroke="black" stroke-width="0.64" stroke-miterlimit="10" stroke-linecap="round" stroke-linejoin="round"/>
<path d="M164.197 56.9342L175.721 45.5923L164.197 56.9342Z" stroke="black" stroke-width="0.64" stroke-miterlimit="10" stroke-linecap="round" stroke-linejoin="round"/>
<path d="M148.193 56.9342L159.717 45.5923L148.193 56.9342Z" stroke="black" stroke-width="0.64" stroke-miterlimit="10" stroke-linecap="round" stroke-linejoin="round"/>
<path d="M132.188 56.9342L143.712 45.5923L132.188 56.9342Z" stroke="black" stroke-width="0.64" stroke-miterlimit="10" stroke-linecap="round" stroke-linejoin="round"/>
<path d="M116.184 56.9342L127.387 45.5923L116.184 56.9342Z" stroke="black" stroke-width="0.64" stroke-miterlimit="10" stroke-linecap="round" stroke-linejoin="round"/>
<path d="M103.06 54.0177L111.382 45.5923L103.06 54.0177Z" stroke="black" stroke-width="0.64" stroke-miterlimit="10" stroke-linecap="round" stroke-linejoin="round"/>
<path d="M95.0566 46.2398L95.3767 45.5923L95.0566 46.2398Z" stroke="black" stroke-width="0.64" stroke-miterlimit="10" stroke-linecap="round" stroke-linejoin="round"/>
<path d="M340.891 51.101V5.40918V51.101Z" stroke="black" stroke-width="0.64" stroke-miterlimit="10" stroke-linecap="round" stroke-linejoin="round"/>
<path d="M265.988 51.1012V5.7334V51.1012Z" stroke="black" stroke-width="0.64" stroke-miterlimit="10" stroke-linecap="round" stroke-linejoin="round"/>
<path d="M13.4326 171.326V227.063V171.326Z" stroke="black" stroke-width="0.64" stroke-miterlimit="10" stroke-linecap="round" stroke-linejoin="round"/>
<path d="M340.891 171.326V227.063V171.326Z" stroke="black" stroke-width="0.64" stroke-miterlimit="10" stroke-linecap="round" stroke-linejoin="round"/>
<path d="M89.2949 45.5922V5.7334V45.5922Z" stroke="black" stroke-width="0.64" stroke-miterlimit="10" stroke-linecap="round" stroke-linejoin="round"/>
<path d="M265.027 45.5922V5.7334V45.5922Z" stroke="black" stroke-width="0.64" stroke-miterlimit="10" stroke-linecap="round" stroke-linejoin="round"/>
<path d="M193.006 45.5923H241.02H193.006Z" stroke="black" stroke-width="0.64" stroke-miterlimit="10" stroke-linecap="round" stroke-linejoin="round"/>
<path d="M233.339 56.9341V76.3774V56.9341Z" stroke="black" stroke-width="0.64" stroke-miterlimit="10" stroke-linecap="round" stroke-linejoin="round"/>
<path d="M193.006 56.9341H241.02H193.006Z" stroke="black" stroke-width="0.64" stroke-miterlimit="10" stroke-linecap="round" stroke-linejoin="round"/>
<path d="M233.339 76.3774V109.107V76.3774Z" stroke="black" stroke-width="0.64" stroke-miterlimit="10" stroke-linecap="round" stroke-linejoin="round"/>
<path d="M336.41 51.1011H388.266H336.41Z" stroke="black" stroke-width="0.64" stroke-miterlimit="10" stroke-linecap="round" stroke-linejoin="round"/>
<path d="M336.41 175.863H388.266H336.41Z" stroke="black" stroke-width="0.64" stroke-miterlimit="10" stroke-linecap="round" stroke-linejoin="round"/>
<path d="M380.583 51.4248H380.903H380.583ZM380.583 51.7489H380.903H380.583ZM380.263 52.0729H381.223H380.263ZM380.263 52.397H381.223H380.263ZM380.263 52.721H381.543H380.263ZM379.943 53.0451H381.543H379.943ZM379.943 53.3691H381.543H379.943ZM379.623 53.6932H381.864H379.623ZM379.623 54.0173H381.864H379.623ZM379.623 54.3413H382.184H379.623ZM379.303 54.6654H382.184H379.303ZM379.303 54.9894H382.504H379.303ZM379.303 55.3135H382.504H379.303ZM378.983 55.6375H382.504H378.983ZM378.983 55.9616H382.824H378.983ZM378.663 56.2856H382.824H378.663ZM378.663 56.6097H383.144H378.663ZM378.663 56.9338H383.144H378.663ZM378.342 57.2578H383.464H378.342ZM378.342 57.5819H383.464H378.342ZM378.022 57.9059H383.464H378.022ZM378.022 58.23H383.784H378.022ZM378.022 58.554H383.784H378.022ZM378.022 58.8781H383.784H378.022ZM378.022 59.2021H383.784H378.022ZM378.022 59.5262H383.784H378.022ZM378.022 59.8503H383.784H378.022ZM378.022 60.1743H383.784H378.022ZM377.702 60.4984H384.104H377.702ZM377.702 60.8224H384.104H377.702ZM377.702 61.1465H384.104H377.702ZM377.702 61.4705H384.104H377.702ZM377.702 61.7946H384.104H377.702ZM377.702 62.1186H384.104H377.702ZM377.702 62.4427H384.104H377.702ZM377.382 62.7668H384.424H377.382ZM377.382 63.0908H384.424H377.382ZM377.382 63.4149H384.424H377.382ZM377.382 63.7389H384.424H377.382ZM377.382 64.063H384.424H377.382ZM377.382 64.387H384.424H377.382ZM377.382 64.7111H384.424H377.382ZM377.062 65.0351H384.424H377.062ZM377.062 65.3592H384.744H377.062ZM377.062 65.6833H384.744H377.062ZM377.062 66.0073H384.744H377.062ZM377.062 66.3314H384.744H377.062ZM377.062 66.6554H384.744H377.062ZM377.062 66.9795H384.744H377.062ZM377.062 67.3035H384.744H377.062ZM376.742 67.6276H385.065H376.742ZM376.742 67.9516H385.065H376.742ZM376.742 68.2757H385.065H376.742ZM376.742 68.5998H385.065H376.742ZM376.742 68.9238H385.065H376.742ZM376.742 69.2479H385.065H376.742ZM376.742 69.5719H385.065H376.742ZM376.422 69.896H385.385H376.422ZM376.422 70.22H385.385H376.422ZM376.422 70.5441H385.385H376.422ZM376.422 70.8682H385.385H376.422ZM376.422 71.1922H385.385H376.422ZM376.422 71.5163H385.385H376.422ZM376.422 71.8403H385.385H376.422Z" fill="white" stroke="white" stroke-width="0.352" stroke-miterlimit="10" stroke-linejoin="bevel"/>
<path d="M380.583 51.1011L383.144 70.2204L380.583 51.1011Z" stroke="black" stroke-width="0.64" stroke-miterlimit="10" stroke-linecap="round" stroke-linejoin="round"/>
<path d="M383.144 70.2202L380.583 68.2759L383.144 70.2202Z" stroke="black" stroke-width="0.64" stroke-miterlimit="10" stroke-linecap="round" stroke-linejoin="round"/>
<path d="M380.582 68.2759L378.342 70.2202L380.582 68.2759Z" stroke="black" stroke-width="0.64" stroke-miterlimit="10" stroke-linecap="round" stroke-linejoin="round"/>
<path d="M378.342 70.2204L380.582 51.1011L378.342 70.2204Z" stroke="black" stroke-width="0.64" stroke-miterlimit="10" stroke-linecap="round" stroke-linejoin="round"/>
<path d="M380.583 51.4248H380.903H380.583ZM380.583 51.7489H380.903H380.583ZM380.583 52.0729H380.903H380.583ZM380.583 52.397H380.903H380.583ZM380.583 52.721H380.903H380.583ZM380.583 53.0451H380.903H380.583ZM380.583 53.3691H380.903H380.583ZM380.583 53.6932H381.223H380.583ZM380.583 54.0173H381.223H380.583ZM380.583 54.3413H381.223H380.583ZM380.583 54.6654H381.223H380.583ZM380.583 54.9894H381.223H380.583ZM380.583 55.3135H381.223H380.583ZM380.583 55.6375H381.223H380.583ZM380.583 55.9616H381.543H380.583ZM380.583 56.2856H381.543H380.583ZM380.583 56.6097H381.543H380.583ZM380.583 56.9338H381.543H380.583ZM380.583 57.2578H381.543H380.583ZM380.583 57.5819H381.543H380.583ZM380.583 57.9059H381.543H380.583ZM380.583 58.23H381.543H380.583ZM380.583 58.554H381.863H380.583ZM380.583 58.8781H381.863H380.583ZM380.583 59.2021H381.863H380.583ZM380.583 59.5262H381.863H380.583ZM380.583 59.8503H381.863H380.583ZM380.583 60.1743H381.863H380.583ZM380.583 60.4984H381.863H380.583ZM380.583 60.8224H382.184H380.583ZM380.583 61.1465H382.184H380.583ZM380.583 61.4705H382.184H380.583ZM380.583 61.7946H382.184H380.583ZM380.583 62.1187H382.184H380.583ZM380.583 62.4427H382.184H380.583ZM380.583 62.7668H382.184H380.583ZM380.583 63.0908H382.504H380.583ZM380.583 63.4149H382.504H380.583ZM380.583 63.7389H382.504H380.583ZM380.583 64.063H382.504H380.583ZM380.583 64.387H382.504H380.583ZM380.583 64.7111H382.504H380.583ZM380.583 65.0352H382.504H380.583ZM380.583 65.3592H382.504H380.583ZM380.583 65.6833H382.824H380.583ZM380.583 66.0073H382.824H380.583ZM380.583 66.3314H382.824H380.583ZM380.583 66.6554H382.824H380.583ZM380.583 66.9795H382.824H380.583ZM380.583 67.3035H382.824H380.583ZM380.583 67.6276H382.824H380.583ZM380.583 67.9517H383.144H380.583ZM380.583 68.2757H383.144H380.583ZM381.223 68.5998H383.144H381.223ZM381.543 68.9238H383.144H381.543ZM381.863 69.2479H383.144H381.863ZM382.504 69.5719H383.144H382.504ZM382.824 69.896H383.144H382.824Z" fill="black" stroke="black" stroke-width="0.352" stroke-miterlimit="10" stroke-linejoin="bevel"/>
<path d="M380.263 54.0176H380.583H380.263ZM380.263 54.3416H380.583H380.263ZM380.263 54.6657H380.583H380.263ZM380.263 54.9897H380.583H380.263ZM380.263 55.3138H380.583H380.263ZM380.263 55.6379H380.583H380.263ZM380.263 55.9619H380.583H380.263ZM380.263 56.286H380.583H380.263ZM379.943 56.61H380.583H379.943ZM379.943 56.9341H380.583H379.943ZM379.943 57.2581H380.583H379.943ZM379.943 57.5822H380.583H379.943ZM379.943 57.9062H380.583H379.943ZM379.943 58.2303H380.583H379.943ZM379.943 58.5544H380.583H379.943ZM379.943 58.8784H380.583H379.943ZM379.943 59.2025H380.583H379.943ZM379.622 59.5265H380.583H379.622ZM379.622 59.8506H380.583H379.622ZM379.622 60.1746H380.583H379.622ZM379.622 60.4987H380.583H379.622ZM379.622 60.8227H380.583H379.622ZM379.622 61.1468H380.583H379.622ZM379.622 61.4709H380.583H379.622ZM379.622 61.7949H380.583H379.622ZM379.302 62.119H380.583H379.302ZM379.302 62.443H380.583H379.302ZM379.302 62.7671H380.583H379.302ZM379.302 63.0911H380.583H379.302ZM379.302 63.4152H380.583H379.302ZM379.302 63.7392H380.583H379.302ZM379.302 64.0633H380.583H379.302ZM379.302 64.3874H380.583H379.302ZM379.302 64.7114H380.583H379.302ZM378.982 65.0355H380.583H378.982ZM378.982 65.3595H380.583H378.982ZM378.982 65.6836H380.583H378.982ZM378.982 66.0076H380.583H378.982ZM378.982 66.3317H380.583H378.982ZM378.982 66.6557H380.583H378.982ZM378.982 66.9798H380.583H378.982ZM378.982 67.3039H380.583H378.982ZM378.662 67.6279H380.583H378.662ZM378.662 67.952H380.583H378.662ZM378.662 68.276H380.583H378.662ZM378.662 68.6001H380.263H378.662ZM378.662 68.9241H379.943H378.662ZM378.662 69.2482H379.622H378.662ZM378.662 69.5722H379.302H378.662ZM378.662 69.8963H378.982H378.662Z" fill="black" stroke="black" stroke-width="0.352" stroke-miterlimit="10" stroke-linejoin="bevel"/>
<path d="M376.102 154.799H385.384H376.102ZM376.422 155.123H385.384H376.422ZM376.422 155.447H385.384H376.422ZM376.422 155.771H385.384H376.422ZM376.422 156.095H385.384H376.422ZM376.422 156.419H385.384H376.422ZM376.422 156.743H385.384H376.422ZM376.422 157.067H385.384H376.422ZM376.742 157.391H385.064H376.742ZM376.742 157.715H385.064H376.742ZM376.742 158.039H385.064H376.742ZM376.742 158.363H385.064H376.742ZM376.742 158.688H385.064H376.742ZM376.742 159.012H385.064H376.742ZM376.742 159.336H385.064H376.742ZM377.062 159.66H384.744H377.062ZM377.062 159.984H384.744H377.062ZM377.062 160.308H384.744H377.062ZM377.062 160.632H384.744H377.062ZM377.062 160.956H384.744H377.062ZM377.062 161.28H384.744H377.062ZM377.062 161.604H384.744H377.062ZM377.062 161.928H384.424H377.062ZM377.382 162.252H384.424H377.382ZM377.382 162.576H384.424H377.382ZM377.382 162.9H384.424H377.382ZM377.382 163.224H384.424H377.382ZM377.382 163.548H384.424H377.382ZM377.382 163.872H384.424H377.382ZM377.382 164.196H384.424H377.382ZM377.702 164.521H384.104H377.702ZM377.702 164.845H384.104H377.702ZM377.702 165.169H384.104H377.702ZM377.702 165.493H384.104H377.702ZM377.702 165.817H384.104H377.702ZM377.702 166.141H384.104H377.702ZM377.702 166.465H384.104H377.702ZM378.022 166.789H383.784H378.022ZM378.022 167.113H383.784H378.022ZM378.022 167.437H383.784H378.022ZM378.022 167.761H383.784H378.022ZM378.022 168.085H383.784H378.022ZM378.022 168.409H383.784H378.022ZM378.022 168.733H383.784H378.022ZM378.022 169.057H383.464H378.022ZM378.342 169.381H383.464H378.342ZM378.342 169.705H383.464H378.342ZM378.662 170.029H383.144H378.662ZM378.662 170.354H383.144H378.662ZM378.662 170.678H382.824H378.662ZM378.982 171.002H382.824H378.982ZM378.982 171.326H382.503H378.982ZM379.303 171.65H382.503H379.303ZM379.303 171.974H382.503H379.303ZM379.303 172.298H382.183H379.303ZM379.623 172.622H382.183H379.623ZM379.623 172.946H381.863H379.623ZM379.623 173.27H381.863H379.623ZM379.943 173.594H381.543H379.943ZM379.943 173.918H381.543H379.943ZM380.263 174.242H381.543H380.263ZM380.263 174.566H381.223H380.263ZM380.263 174.89H381.223H380.263ZM380.583 175.214H380.903H380.583ZM380.583 175.538H380.903H380.583Z" fill="white" stroke="white" stroke-width="0.352" stroke-miterlimit="10" stroke-linejoin="bevel"/>
<path d="M380.582 175.862L378.342 156.743L380.582 175.862Z" stroke="black" stroke-width="0.64" stroke-miterlimit="10" stroke-linecap="round" stroke-linejoin="round"/>
<path d="M378.342 156.743L380.582 158.688L378.342 156.743Z" stroke="black" stroke-width="0.64" stroke-miterlimit="10" stroke-linecap="round" stroke-linejoin="round"/>
<path d="M380.583 158.688L383.144 156.743L380.583 158.688Z" stroke="black" stroke-width="0.64" stroke-miterlimit="10" stroke-linecap="round" stroke-linejoin="round"/>
<path d="M383.144 156.743L380.583 175.862L383.144 156.743Z" stroke="black" stroke-width="0.64" stroke-miterlimit="10" stroke-linecap="round" stroke-linejoin="round"/>
<path d="M378.662 157.067H378.982H378.662ZM378.662 157.391H379.302H378.662ZM378.662 157.715H379.622H378.662ZM378.662 158.04H379.943H378.662ZM378.662 158.364H380.263H378.662ZM378.662 158.688H380.583H378.662ZM378.662 159.012H380.583H378.662ZM378.662 159.336H380.583H378.662ZM378.982 159.66H380.583H378.982ZM378.982 159.984H380.583H378.982ZM378.982 160.308H380.583H378.982ZM378.982 160.632H380.583H378.982ZM378.982 160.956H380.583H378.982ZM378.982 161.28H380.583H378.982ZM378.982 161.604H380.583H378.982ZM378.982 161.928H380.583H378.982ZM379.302 162.252H380.583H379.302ZM379.302 162.576H380.583H379.302ZM379.302 162.9H380.583H379.302ZM379.302 163.224H380.583H379.302ZM379.302 163.549H380.583H379.302ZM379.302 163.873H380.583H379.302ZM379.302 164.197H380.583H379.302ZM379.302 164.521H380.583H379.302ZM379.302 164.845H380.583H379.302ZM379.622 165.169H380.583H379.622ZM379.622 165.493H380.583H379.622ZM379.622 165.817H380.583H379.622ZM379.622 166.141H380.583H379.622ZM379.622 166.465H380.583H379.622ZM379.622 166.789H380.583H379.622ZM379.622 167.113H380.583H379.622ZM379.622 167.437H380.583H379.622ZM379.943 167.761H380.583H379.943ZM379.943 168.085H380.583H379.943ZM379.943 168.409H380.583H379.943ZM379.943 168.733H380.583H379.943ZM379.943 169.057H380.583H379.943ZM379.943 169.382H380.583H379.943ZM379.943 169.706H380.583H379.943ZM379.943 170.03H380.583H379.943ZM379.943 170.354H380.583H379.943ZM380.263 170.678H380.583H380.263ZM380.263 171.002H380.583H380.263ZM380.263 171.326H380.583H380.263ZM380.263 171.65H380.583H380.263ZM380.263 171.974H380.583H380.263ZM380.263 172.298H380.583H380.263ZM380.263 172.622H380.583H380.263ZM380.263 172.946H380.583H380.263Z" fill="black" stroke="black" stroke-width="0.352" stroke-miterlimit="10" stroke-linejoin="bevel"/>
<path d="M382.824 157.067H383.144H382.824ZM382.504 157.391H383.144H382.504ZM381.863 157.715H383.144H381.863ZM381.543 158.04H383.144H381.543ZM381.223 158.364H383.144H381.223ZM380.583 158.688H383.144H380.583ZM380.583 159.012H383.144H380.583ZM380.583 159.336H382.824H380.583ZM380.583 159.66H382.824H380.583ZM380.583 159.984H382.824H380.583ZM380.583 160.308H382.824H380.583ZM380.583 160.632H382.824H380.583ZM380.583 160.956H382.824H380.583ZM380.583 161.28H382.824H380.583ZM380.583 161.604H382.504H380.583ZM380.583 161.928H382.504H380.583ZM380.583 162.252H382.504H380.583ZM380.583 162.576H382.504H380.583ZM380.583 162.9H382.504H380.583ZM380.583 163.224H382.504H380.583ZM380.583 163.549H382.504H380.583ZM380.583 163.873H382.504H380.583ZM380.583 164.197H382.184H380.583ZM380.583 164.521H382.184H380.583ZM380.583 164.845H382.184H380.583ZM380.583 165.169H382.184H380.583ZM380.583 165.493H382.184H380.583ZM380.583 165.817H382.184H380.583ZM380.583 166.141H382.184H380.583ZM380.583 166.465H381.863H380.583ZM380.583 166.789H381.863H380.583ZM380.583 167.113H381.863H380.583ZM380.583 167.437H381.863H380.583ZM380.583 167.761H381.863H380.583ZM380.583 168.085H381.863H380.583ZM380.583 168.409H381.863H380.583ZM380.583 168.733H381.543H380.583ZM380.583 169.057H381.543H380.583ZM380.583 169.382H381.543H380.583ZM380.583 169.706H381.543H380.583ZM380.583 170.03H381.543H380.583ZM380.583 170.354H381.543H380.583ZM380.583 170.678H381.543H380.583ZM380.583 171.002H381.543H380.583ZM380.583 171.326H381.223H380.583ZM380.583 171.65H381.223H380.583ZM380.583 171.974H381.223H380.583ZM380.583 172.298H381.223H380.583ZM380.583 172.622H381.223H380.583ZM380.583 172.946H381.223H380.583ZM380.583 173.27H381.223H380.583ZM380.583 173.594H380.903H380.583ZM380.583 173.918H380.903H380.583ZM380.583 174.242H380.903H380.583ZM380.583 174.566H380.903H380.583ZM380.583 174.89H380.903H380.583ZM380.583 175.215H380.903H380.583ZM380.583 175.539H380.903H380.583Z" fill="black" stroke="black" stroke-width="0.352" stroke-miterlimit="10" stroke-linejoin="bevel"/>
<path d="M380.583 51.1011V175.862V51.1011Z" stroke="black" stroke-width="0.64" stroke-miterlimit="10" stroke-linecap="round" stroke-linejoin="round"/>
<path d="M320.084 8.97412H322.965H320.084ZM320.084 9.29818H325.846H320.084ZM320.084 9.62223H328.406H320.084ZM320.084 9.94629H331.287H320.084ZM320.084 10.2703H333.848H320.084ZM320.084 10.5944H334.808H320.084ZM320.084 10.9185H335.449H320.084ZM320.084 11.2425H336.409H320.084ZM320.084 11.5666H337.049H320.084ZM320.084 11.8906H338.009H320.084ZM320.084 12.2147H338.65H320.084ZM320.084 12.5387H339.61H320.084ZM320.084 12.8628H340.25H320.084ZM320.084 13.1868H340.89H320.084ZM320.084 13.5109H340.25H320.084ZM320.084 13.835H339.61H320.084ZM320.084 14.159H338.65H320.084ZM320.084 14.4831H338.009H320.084ZM320.084 14.8071H337.049H320.084ZM320.084 15.1312H336.409H320.084ZM320.084 15.4552H335.449H320.084ZM320.084 15.7793H334.808H320.084ZM320.084 16.1033H333.848H320.084ZM320.084 16.4274H331.607H320.084ZM320.084 16.7515H329.367H320.084ZM320.084 17.0755H327.126H320.084ZM320.084 17.3996H324.885H320.084ZM320.084 17.7236H322.645H320.084Z" fill="white" stroke="white" stroke-width="0.352" stroke-miterlimit="10" stroke-linejoin="bevel"/>
<path d="M340.89 13.1865L321.685 15.779L340.89 13.1865Z" stroke="black" stroke-width="0.64" stroke-miterlimit="10" stroke-linecap="round" stroke-linejoin="round"/>
<path d="M321.685 15.779L323.605 13.1865L321.685 15.779Z" stroke="black" stroke-width="0.64" stroke-miterlimit="10" stroke-linecap="round" stroke-linejoin="round"/>
<path d="M323.605 13.1867L321.685 10.5942L323.605 13.1867Z" stroke="black" stroke-width="0.64" stroke-miterlimit="10" stroke-linecap="round" stroke-linejoin="round"/>
<path d="M321.685 10.5942L340.89 13.1867L321.685 10.5942Z" stroke="black" stroke-width="0.64" stroke-miterlimit="10" stroke-linecap="round" stroke-linejoin="round"/>
<path d="M323.605 13.1865H340.891H323.605ZM323.605 13.5106H338.65H323.605ZM323.285 13.8346H336.089H323.285ZM322.965 14.1587H333.848H322.965ZM322.645 14.4828H331.288H322.645ZM322.645 14.8068H329.047H322.645ZM322.325 15.1309H326.486H322.325ZM322.005 15.4549H324.246H322.005Z" fill="black" stroke="black" stroke-width="0.352" stroke-miterlimit="10" stroke-linejoin="bevel"/>
<path d="M322.005 10.918H324.246H322.005ZM322.325 11.242H326.486H322.325ZM322.645 11.5661H329.047H322.645ZM322.645 11.8901H331.288H322.645ZM322.965 12.2142H333.848H322.965ZM323.285 12.5382H336.089H323.285ZM323.605 12.8623H338.65H323.605Z" fill="black" stroke="black" stroke-width="0.352" stroke-miterlimit="10" stroke-linejoin="bevel"/>
<path d="M284.234 8.97412H286.795H284.234ZM281.353 9.29818H286.795H281.353ZM278.472 9.62223H286.795H278.472ZM275.591 9.94629H286.795H275.591ZM272.71 10.2703H286.795H272.71ZM272.07 10.5944H286.795H272.07ZM271.43 10.9185H286.795H271.43ZM270.47 11.2425H286.795H270.47ZM269.829 11.5666H286.795H269.829ZM269.189 11.8906H286.795H269.189ZM268.229 12.2147H286.795H268.229ZM267.589 12.5387H286.795H267.589ZM266.949 12.8628H286.795H266.949ZM265.988 13.1868H286.795H265.988ZM266.949 13.5109H286.795H266.949ZM267.589 13.835H286.795H267.589ZM268.229 14.159H286.795H268.229ZM269.189 14.4831H286.795H269.189ZM269.829 14.8071H286.795H269.829ZM270.47 15.1312H286.795H270.47ZM271.43 15.4552H286.795H271.43ZM272.07 15.7793H286.795H272.07ZM272.71 16.1033H286.795H272.71ZM275.271 16.4274H286.795H275.271ZM277.512 16.7515H286.795H277.512ZM279.752 17.0755H286.795H279.752ZM282.313 17.3996H286.795H282.313ZM284.554 17.7236H286.795H284.554Z" fill="white" stroke="white" stroke-width="0.352" stroke-miterlimit="10" stroke-linejoin="bevel"/>
<path d="M265.988 13.1867L284.874 10.5942L265.988 13.1867Z" stroke="black" stroke-width="0.64" stroke-miterlimit="10" stroke-linecap="round" stroke-linejoin="round"/>
<path d="M284.874 10.5942L282.953 13.1867L284.874 10.5942Z" stroke="black" stroke-width="0.64" stroke-miterlimit="10" stroke-linecap="round" stroke-linejoin="round"/>
<path d="M282.953 13.1865L284.874 15.779L282.953 13.1865Z" stroke="black" stroke-width="0.64" stroke-miterlimit="10" stroke-linecap="round" stroke-linejoin="round"/>
<path d="M284.874 15.779L265.988 13.1865L284.874 15.779Z" stroke="black" stroke-width="0.64" stroke-miterlimit="10" stroke-linecap="round" stroke-linejoin="round"/>
<path d="M282.634 10.918H284.875H282.634ZM280.393 11.242H284.555H280.393ZM277.833 11.5661H284.235H277.833ZM275.592 11.8901H283.914H275.592ZM273.351 12.2142H283.914H273.351ZM270.79 12.5382H283.594H270.79ZM268.55 12.8623H283.274H268.55Z" fill="black" stroke="black" stroke-width="0.352" stroke-miterlimit="10" stroke-linejoin="bevel"/>
<path d="M265.988 13.1865H282.953H265.988ZM268.549 13.5106H283.273H268.549ZM270.79 13.8346H283.594H270.79ZM273.35 14.1587H283.914H273.35ZM275.591 14.4828H283.914H275.591ZM277.832 14.8068H284.234H277.832ZM280.393 15.1309H284.554H280.393ZM282.633 15.4549H284.874H282.633Z" fill="black" stroke="black" stroke-width="0.352" stroke-miterlimit="10" stroke-linejoin="bevel"/>
<path d="M340.891 13.1865H265.988H340.891Z" stroke="black" stroke-width="0.64" stroke-miterlimit="10" stroke-linecap="round" stroke-linejoin="round"/>
<path d="M13.4326 51.101V5.40918V51.101Z" stroke="black" stroke-width="0.64" stroke-miterlimit="10" stroke-linecap="round" stroke-linejoin="round"/>
<path d="M88.335 51.1012V5.7334V51.1012Z" stroke="black" stroke-width="0.64" stroke-miterlimit="10" stroke-linecap="round" stroke-linejoin="round"/>
<path d="M31.6781 8.97363H34.2389H31.6781ZM28.7972 9.29769H34.2389H28.7972ZM25.9164 9.62174H34.2389H25.9164ZM23.0355 9.9458H34.2389H23.0355ZM20.1546 10.2699H34.2389H20.1546ZM19.5144 10.5939H34.2389H19.5144ZM18.8743 10.918H34.2389H18.8743ZM17.914 11.242H34.2389H17.914ZM17.2738 11.5661H34.2389H17.2738ZM16.6336 11.8901H34.2389H16.6336ZM15.6733 12.2142H34.2389H15.6733ZM15.0331 12.5382H34.2389H15.0331ZM14.3929 12.8623H34.2389H14.3929ZM13.4326 13.1864H34.2389H13.4326ZM14.3929 13.5104H34.2389H14.3929ZM15.0331 13.8345H34.2389H15.0331ZM15.6733 14.1585H34.2389H15.6733ZM16.6336 14.4826H34.2389H16.6336ZM17.2738 14.8066H34.2389H17.2738ZM17.914 15.1307H34.2389H17.914ZM18.8743 15.4548H34.2389H18.8743ZM19.5144 15.7788H34.2389H19.5144ZM20.1546 16.1029H34.2389H20.1546ZM22.7154 16.4269H34.2389H22.7154ZM24.9561 16.751H34.2389H24.9561ZM27.1968 17.075H34.2389H27.1968ZM29.7575 17.3991H34.2389H29.7575ZM31.9982 17.7231H34.2389H31.9982Z" fill="white" stroke="white" stroke-width="0.352" stroke-miterlimit="10" stroke-linejoin="bevel"/>
<path d="M13.4326 13.1867L32.3183 10.5942L13.4326 13.1867Z" stroke="black" stroke-width="0.64" stroke-miterlimit="10" stroke-linecap="round" stroke-linejoin="round"/>
<path d="M32.318 10.5942L30.3975 13.1867L32.318 10.5942Z" stroke="black" stroke-width="0.64" stroke-miterlimit="10" stroke-linecap="round" stroke-linejoin="round"/>
<path d="M30.3975 13.1865L32.318 15.779L30.3975 13.1865Z" stroke="black" stroke-width="0.64" stroke-miterlimit="10" stroke-linecap="round" stroke-linejoin="round"/>
<path d="M32.3183 15.779L13.4326 13.1865L32.3183 15.779Z" stroke="black" stroke-width="0.64" stroke-miterlimit="10" stroke-linecap="round" stroke-linejoin="round"/>
<path d="M30.0774 10.918H32.3181H30.0774ZM27.8367 11.242H31.998H27.8367ZM25.2759 11.5661H31.6779H25.2759ZM23.0353 11.8901H31.3578H23.0353ZM20.7946 12.2142H31.3578H20.7946ZM18.2338 12.5382H31.0377H18.2338ZM15.9932 12.8623H30.7176H15.9932Z" fill="black" stroke="black" stroke-width="0.352" stroke-miterlimit="10" stroke-linejoin="bevel"/>
<path d="M13.4326 13.1865H30.3977H13.4326ZM15.9934 13.5106H30.7178H15.9934ZM18.2341 13.8346H31.0379H18.2341ZM20.7948 14.1587H31.358H20.7948ZM23.0355 14.4828H31.358H23.0355ZM25.2762 14.8068H31.6781H25.2762ZM27.8369 15.1309H31.9982H27.8369ZM30.0776 15.4549H32.3183H30.0776Z" fill="black" stroke="black" stroke-width="0.352" stroke-miterlimit="10" stroke-linejoin="bevel"/>
<path d="M67.5283 8.97363H70.4092H67.5283ZM67.5283 9.29769H73.29H67.5283ZM67.5283 9.62174H76.1709H67.5283ZM67.5283 9.9458H79.0518H67.5283ZM67.5283 10.2699H81.6125H67.5283ZM67.5283 10.5939H82.5728H67.5283ZM67.5283 10.918H83.213H67.5283ZM67.5283 11.242H83.8532H67.5283ZM67.5283 11.5661H84.8135H67.5283ZM67.5283 11.8901H85.4537H67.5283ZM67.5283 12.2142H86.0939H67.5283ZM67.5283 12.5382H87.0542H67.5283ZM67.5283 12.8623H87.6943H67.5283ZM67.5283 13.1864H88.3345H67.5283ZM67.5283 13.5104H87.6943H67.5283ZM67.5283 13.8345H87.0542H67.5283ZM67.5283 14.1585H86.0939H67.5283ZM67.5283 14.4826H85.4537H67.5283ZM67.5283 14.8066H84.8135H67.5283ZM67.5283 15.1307H83.8532H67.5283ZM67.5283 15.4548H83.213H67.5283ZM67.5283 15.7788H82.5728H67.5283ZM67.5283 16.1029H81.6125H67.5283ZM67.5283 16.4269H79.3719H67.5283ZM67.5283 16.751H77.1312H67.5283ZM67.5283 17.075H74.5704H67.5283ZM67.5283 17.3991H72.3298H67.5283ZM67.5283 17.7231H70.0891H67.5283Z" fill="white" stroke="white" stroke-width="0.352" stroke-miterlimit="10" stroke-linejoin="bevel"/>
<path d="M88.3349 13.1865L69.4492 15.779L88.3349 13.1865Z" stroke="black" stroke-width="0.64" stroke-miterlimit="10" stroke-linecap="round" stroke-linejoin="round"/>
<path d="M69.4492 15.779L71.3698 13.1865L69.4492 15.779Z" stroke="black" stroke-width="0.64" stroke-miterlimit="10" stroke-linecap="round" stroke-linejoin="round"/>
<path d="M71.3698 13.1867L69.4492 10.5942L71.3698 13.1867Z" stroke="black" stroke-width="0.64" stroke-miterlimit="10" stroke-linecap="round" stroke-linejoin="round"/>
<path d="M69.4492 10.5942L88.3349 13.1867L69.4492 10.5942Z" stroke="black" stroke-width="0.64" stroke-miterlimit="10" stroke-linecap="round" stroke-linejoin="round"/>
<path d="M71.369 13.1865H88.3341H71.369ZM71.369 13.5106H86.0935H71.369ZM71.0489 13.8346H83.8528H71.0489ZM70.7288 14.1587H81.292H70.7288ZM70.4087 14.4828H79.0513H70.4087ZM70.4087 14.8068H76.8107H70.4087ZM70.0887 15.1309H74.2499H70.0887ZM69.7686 15.4549H72.0092H69.7686Z" fill="black" stroke="black" stroke-width="0.352" stroke-miterlimit="10" stroke-linejoin="bevel"/>
<path d="M69.7686 10.918H72.0092H69.7686ZM70.0887 11.242H74.2499H70.0887ZM70.4087 11.5661H76.8107H70.4087ZM70.4087 11.8901H79.0514H70.4087ZM70.7288 12.2142H81.292H70.7288ZM71.0489 12.5382H83.8528H71.0489ZM71.369 12.8623H86.0935H71.369Z" fill="black" stroke="black" stroke-width="0.352" stroke-miterlimit="10" stroke-linejoin="bevel"/>
<path d="M13.4326 13.1865H88.3352H13.4326Z" stroke="black" stroke-width="0.64" stroke-miterlimit="10" stroke-linecap="round" stroke-linejoin="round"/>
<path d="M31.9982 215.073H34.2389H31.9982ZM29.7575 215.397H34.2389H29.7575ZM27.1968 215.721H34.2389H27.1968ZM24.9561 216.045H34.2389H24.9561ZM22.7154 216.369H34.2389H22.7154ZM20.1546 216.694H34.2389H20.1546ZM19.5144 217.018H34.2389H19.5144ZM18.8743 217.342H34.2389H18.8743ZM17.914 217.666H34.2389H17.914ZM17.2738 217.99H34.2389H17.2738ZM16.6336 218.314H34.2389H16.6336ZM15.6733 218.638H34.2389H15.6733ZM15.0331 218.962H34.2389H15.0331ZM14.3929 219.286H34.2389H14.3929ZM13.4326 219.61H34.2389H13.4326ZM14.3929 219.934H34.2389H14.3929ZM15.3532 220.258H34.2389H15.3532ZM15.9934 220.582H34.2389H15.9934ZM16.9537 220.906H34.2389H16.9537ZM17.914 221.23H34.2389H17.914ZM18.5542 221.554H34.2389H18.5542ZM19.5144 221.878H34.2389H19.5144ZM20.1546 222.202H34.2389H20.1546ZM22.7154 222.527H34.2389H22.7154ZM24.9561 222.851H34.2389H24.9561ZM27.1968 223.175H34.2389H27.1968ZM29.7575 223.499H34.2389H29.7575ZM31.9982 223.823H34.2389H31.9982Z" fill="white" stroke="white" stroke-width="0.352" stroke-miterlimit="10" stroke-linejoin="bevel"/>
<path d="M13.4326 219.61L32.3183 217.018L13.4326 219.61Z" stroke="black" stroke-width="0.64" stroke-miterlimit="10" stroke-linecap="round" stroke-linejoin="round"/>
<path d="M32.318 217.018L30.3975 219.61L32.318 217.018Z" stroke="black" stroke-width="0.64" stroke-miterlimit="10" stroke-linecap="round" stroke-linejoin="round"/>
<path d="M30.3975 219.61L32.318 221.878L30.3975 219.61Z" stroke="black" stroke-width="0.64" stroke-miterlimit="10" stroke-linecap="round" stroke-linejoin="round"/>
<path d="M32.3183 221.878L13.4326 219.61L32.3183 221.878Z" stroke="black" stroke-width="0.64" stroke-miterlimit="10" stroke-linecap="round" stroke-linejoin="round"/>
<path d="M30.0774 217.342H32.3181H30.0774ZM27.8367 217.666H31.998H27.8367ZM25.2759 217.99H31.6779H25.2759ZM23.0353 218.314H31.3578H23.0353ZM20.7946 218.638H31.3578H20.7946ZM18.2338 218.962H31.0377H18.2338ZM15.9932 219.286H30.7176H15.9932Z" fill="black" stroke="black" stroke-width="0.352" stroke-miterlimit="10" stroke-linejoin="bevel"/>
<path d="M13.4326 219.61H30.3977H13.4326ZM16.3135 219.934H30.7178H16.3135ZM18.8742 220.258H31.0379H18.8742ZM21.7551 220.582H31.358H21.7551ZM24.3159 220.906H31.6781H24.3159ZM27.1967 221.23H31.9982H27.1967ZM29.7575 221.554H32.3183H29.7575Z" fill="black" stroke="black" stroke-width="0.352" stroke-miterlimit="10" stroke-linejoin="bevel"/>
<path d="M320.084 215.073H322.645H320.084ZM320.084 215.397H324.885H320.084ZM320.084 215.721H327.126H320.084ZM320.084 216.045H329.687H320.084ZM320.084 216.369H331.928H320.084ZM320.084 216.694H334.168H320.084ZM320.084 217.018H335.128H320.084ZM320.084 217.342H335.769H320.084ZM320.084 217.666H336.409H320.084ZM320.084 217.99H337.369H320.084ZM320.084 218.314H338.009H320.084ZM320.084 218.638H338.65H320.084ZM320.084 218.962H339.61H320.084ZM320.084 219.286H340.25H320.084ZM320.084 219.61H340.89H320.084ZM320.084 219.934H340.25H320.084ZM320.084 220.258H339.29H320.084ZM320.084 220.582H338.65H320.084ZM320.084 220.906H337.689H320.084ZM320.084 221.23H336.729H320.084ZM320.084 221.554H336.089H320.084ZM320.084 221.878H335.128H320.084ZM320.084 222.202H334.168H320.084ZM320.084 222.527H331.928H320.084ZM320.084 222.851H329.687H320.084ZM320.084 223.175H327.126H320.084ZM320.084 223.499H324.885H320.084ZM320.084 223.823H322.645H320.084Z" fill="white" stroke="white" stroke-width="0.352" stroke-miterlimit="10" stroke-linejoin="bevel"/>
<path d="M340.891 219.61L322.005 221.878L340.891 219.61Z" stroke="black" stroke-width="0.64" stroke-miterlimit="10" stroke-linecap="round" stroke-linejoin="round"/>
<path d="M322.005 221.878L323.925 219.61L322.005 221.878Z" stroke="black" stroke-width="0.64" stroke-miterlimit="10" stroke-linecap="round" stroke-linejoin="round"/>
<path d="M323.925 219.61L322.005 217.018L323.925 219.61Z" stroke="black" stroke-width="0.64" stroke-miterlimit="10" stroke-linecap="round" stroke-linejoin="round"/>
<path d="M322.005 217.018L340.891 219.61L322.005 217.018Z" stroke="black" stroke-width="0.64" stroke-miterlimit="10" stroke-linecap="round" stroke-linejoin="round"/>
<path d="M323.926 219.61H340.891H323.926ZM323.926 219.934H338.33H323.926ZM323.606 220.258H335.769H323.606ZM323.285 220.582H332.888H323.285ZM322.965 220.906H330.328H322.965ZM322.645 221.23H327.447H322.645ZM322.325 221.554H324.886H322.325Z" fill="black" stroke="black" stroke-width="0.352" stroke-miterlimit="10" stroke-linejoin="bevel"/>
<path d="M322.325 217.342H324.566H322.325ZM322.645 217.666H326.807H322.645ZM322.965 217.99H329.367H322.965ZM322.965 218.314H331.608H322.965ZM323.285 218.638H333.849H323.285ZM323.606 218.962H336.409H323.606ZM323.926 219.286H338.65H323.926Z" fill="black" stroke="black" stroke-width="0.352" stroke-miterlimit="10" stroke-linejoin="bevel"/>
<path d="M13.4326 219.61H340.891H13.4326Z" stroke="black" stroke-width="0.64" stroke-miterlimit="10" stroke-linecap="round" stroke-linejoin="round"/>
<path d="M107.54 8.97363H110.101H107.54ZM104.66 9.29769H110.101H104.66ZM101.779 9.62174H110.101H101.779ZM98.8978 9.9458H110.101H98.8978ZM96.0169 10.2699H110.101H96.0169ZM95.3767 10.5939H110.101H95.3767ZM94.7366 10.918H110.101H94.7366ZM93.7763 11.242H110.101H93.7763ZM93.1361 11.5661H110.101H93.1361ZM92.4959 11.8901H110.101H92.4959ZM91.5356 12.2142H110.101H91.5356ZM90.8954 12.5382H110.101H90.8954ZM90.2552 12.8623H110.101H90.2552ZM89.2949 13.1864H110.101H89.2949ZM90.2552 13.5104H110.101H90.2552ZM90.8954 13.8345H110.101H90.8954ZM91.5356 14.1585H110.101H91.5356ZM92.4959 14.4826H110.101H92.4959ZM93.1361 14.8066H110.101H93.1361ZM93.7763 15.1307H110.101H93.7763ZM94.7366 15.4548H110.101H94.7366ZM95.3767 15.7788H110.101H95.3767ZM96.0169 16.1029H110.101H96.0169ZM98.5777 16.4269H110.101H98.5777ZM100.818 16.751H110.101H100.818ZM103.059 17.075H110.101H103.059ZM105.62 17.3991H110.101H105.62ZM107.86 17.7231H110.101H107.86Z" fill="white" stroke="white" stroke-width="0.352" stroke-miterlimit="10" stroke-linejoin="bevel"/>
<path d="M89.2949 13.1867L108.181 10.5942L89.2949 13.1867Z" stroke="black" stroke-width="0.64" stroke-miterlimit="10" stroke-linecap="round" stroke-linejoin="round"/>
<path d="M108.181 10.5942L106.261 13.1867L108.181 10.5942Z" stroke="black" stroke-width="0.64" stroke-miterlimit="10" stroke-linecap="round" stroke-linejoin="round"/>
<path d="M106.261 13.1865L108.181 15.779L106.261 13.1865Z" stroke="black" stroke-width="0.64" stroke-miterlimit="10" stroke-linecap="round" stroke-linejoin="round"/>
<path d="M108.181 15.779L89.2949 13.1865L108.181 15.779Z" stroke="black" stroke-width="0.64" stroke-miterlimit="10" stroke-linecap="round" stroke-linejoin="round"/>
<path d="M105.94 10.918H108.18H105.94ZM103.699 11.242H107.86H103.699ZM101.138 11.5661H107.54H101.138ZM98.8976 11.8901H107.22H98.8976ZM96.6569 12.2142H107.22H96.6569ZM94.0961 12.5382H106.9H94.0961ZM91.8555 12.8623H106.58H91.8555Z" fill="black" stroke="black" stroke-width="0.352" stroke-miterlimit="10" stroke-linejoin="bevel"/>
<path d="M89.2949 13.1865H106.26H89.2949ZM91.8557 13.5106H106.58H91.8557ZM94.0964 13.8346H106.9H94.0964ZM96.6571 14.1587H107.22H96.6571ZM98.8978 14.4828H107.22H98.8978ZM101.138 14.8068H107.54H101.138ZM103.699 15.1309H107.861H103.699ZM105.94 15.4549H108.181H105.94Z" fill="black" stroke="black" stroke-width="0.352" stroke-miterlimit="10" stroke-linejoin="bevel"/>
<path d="M244.222 8.97363H247.103H244.222ZM244.222 9.29769H249.983H244.222ZM244.222 9.62174H252.864H244.222ZM244.222 9.9458H255.745H244.222ZM244.222 10.2699H258.306H244.222ZM244.222 10.5939H259.266H244.222ZM244.222 10.918H259.906H244.222ZM244.222 11.242H260.547H244.222ZM244.222 11.5661H261.507H244.222ZM244.222 11.8901H262.147H244.222ZM244.222 12.2142H262.787H244.222ZM244.222 12.5382H263.748H244.222ZM244.222 12.8623H264.388H244.222ZM244.222 13.1864H265.028H244.222ZM244.222 13.5104H264.388H244.222ZM244.222 13.8345H263.748H244.222ZM244.222 14.1585H262.787H244.222ZM244.222 14.4826H262.147H244.222ZM244.222 14.8066H261.507H244.222ZM244.222 15.1307H260.547H244.222ZM244.222 15.4548H259.906H244.222ZM244.222 15.7788H259.266H244.222ZM244.222 16.1029H258.306H244.222ZM244.222 16.4269H256.065H244.222ZM244.222 16.751H253.825H244.222ZM244.222 17.075H251.264H244.222ZM244.222 17.3991H249.023H244.222ZM244.222 17.7231H246.782H244.222Z" fill="white" stroke="white" stroke-width="0.352" stroke-miterlimit="10" stroke-linejoin="bevel"/>
<path d="M265.028 13.1865L246.143 15.779L265.028 13.1865Z" stroke="black" stroke-width="0.64" stroke-miterlimit="10" stroke-linecap="round" stroke-linejoin="round"/>
<path d="M246.143 15.779L248.063 13.1865L246.143 15.779Z" stroke="black" stroke-width="0.64" stroke-miterlimit="10" stroke-linecap="round" stroke-linejoin="round"/>
<path d="M248.063 13.1867L246.143 10.5942L248.063 13.1867Z" stroke="black" stroke-width="0.64" stroke-miterlimit="10" stroke-linecap="round" stroke-linejoin="round"/>
<path d="M246.143 10.5942L265.028 13.1867L246.143 10.5942Z" stroke="black" stroke-width="0.64" stroke-miterlimit="10" stroke-linecap="round" stroke-linejoin="round"/>
<path d="M248.063 13.1865H265.028H248.063ZM248.063 13.5106H262.788H248.063ZM247.743 13.8346H260.547H247.743ZM247.423 14.1587H257.986H247.423ZM247.103 14.4828H255.746H247.103ZM247.103 14.8068H253.505H247.103ZM246.783 15.1309H250.944H246.783ZM246.463 15.4549H248.704H246.463Z" fill="black" stroke="black" stroke-width="0.352" stroke-miterlimit="10" stroke-linejoin="bevel"/>
<path d="M246.463 10.918H248.704H246.463ZM246.783 11.242H250.944H246.783ZM247.103 11.5661H253.505H247.103ZM247.103 11.8901H255.746H247.103ZM247.423 12.2142H257.986H247.423ZM247.743 12.5382H260.547H247.743ZM248.063 12.8623H262.788H248.063Z" fill="black" stroke="black" stroke-width="0.352" stroke-miterlimit="10" stroke-linejoin="bevel"/>
<path d="M89.2949 13.1865H265.028H89.2949Z" stroke="black" stroke-width="0.64" stroke-miterlimit="10" stroke-linecap="round" stroke-linejoin="round"/>
<path d="M228.856 24.5283H238.139H228.856ZM229.177 24.8524H238.139H229.177ZM229.177 25.1764H238.139H229.177ZM229.177 25.5005H238.139H229.177ZM229.177 25.8245H238.139H229.177ZM229.177 26.1486H238.139H229.177ZM229.177 26.4727H238.139H229.177ZM229.177 26.7967H238.139H229.177ZM229.177 27.1208H237.819H229.177ZM229.497 27.4448H237.819H229.497ZM229.497 27.7689H237.819H229.497ZM229.497 28.0929H237.819H229.497ZM229.497 28.417H237.819H229.497ZM229.497 28.741H237.819H229.497ZM229.497 29.0651H237.819H229.497ZM229.497 29.3892H237.499H229.497ZM229.497 29.7132H237.499H229.497ZM229.497 30.0373H237.499H229.497ZM229.817 30.3613H237.499H229.817ZM229.817 30.6854H237.499H229.817ZM229.817 31.0094H237.499H229.817ZM229.817 31.3335H237.499H229.817ZM229.817 31.6575H237.179H229.817ZM229.817 31.9816H237.179H229.817ZM229.817 32.3057H237.179H229.817ZM229.817 32.6297H237.179H229.817ZM229.817 32.9538H237.179H229.817ZM230.137 33.2778H237.179H230.137ZM230.137 33.6019H237.179H230.137ZM230.137 33.9259H237.179H230.137ZM230.137 34.25H236.859H230.137ZM230.137 34.574H236.859H230.137ZM230.137 34.8981H236.859H230.137ZM230.137 35.2221H236.859H230.137ZM230.137 35.5462H236.859H230.137ZM230.137 35.8703H236.859H230.137ZM230.457 36.1943H236.859H230.457ZM230.457 36.5184H236.539H230.457ZM230.457 36.8424H236.539H230.457ZM230.457 37.1665H236.539H230.457ZM230.457 37.4905H236.539H230.457ZM230.457 37.8146H236.539H230.457ZM230.457 38.1386H236.539H230.457ZM230.457 38.4627H236.539H230.457ZM230.457 38.7868H236.219H230.457ZM230.777 39.1108H236.219H230.777ZM230.777 39.4349H236.219H230.777ZM231.097 39.7589H235.899H231.097ZM231.097 40.083H235.899H231.097ZM231.417 40.407H235.578H231.417ZM231.417 40.7311H235.578H231.417ZM231.417 41.0551H235.258H231.417ZM231.737 41.3792H235.258H231.737ZM231.737 41.7033H235.258H231.737ZM232.057 42.0273H234.938H232.057ZM232.057 42.3514H234.938H232.057ZM232.377 42.6754H234.618H232.377ZM232.377 42.9995H234.618H232.377ZM232.377 43.3235H234.298H232.377ZM232.698 43.6476H234.298H232.698ZM232.698 43.9716H234.298H232.698ZM233.018 44.2957H233.978H233.018ZM233.018 44.6198H233.978H233.018ZM233.338 44.9438H233.658H233.338ZM233.338 45.2679H233.658H233.338Z" fill="white" stroke="white" stroke-width="0.352" stroke-miterlimit="10" stroke-linejoin="bevel"/>
<path d="M233.339 45.5924L235.9 26.4731L233.339 45.5924Z" stroke="black" stroke-width="0.64" stroke-miterlimit="10" stroke-linecap="round" stroke-linejoin="round"/>
<path d="M235.9 26.4731L233.339 28.4175L235.9 26.4731Z" stroke="black" stroke-width="0.64" stroke-miterlimit="10" stroke-linecap="round" stroke-linejoin="round"/>
<path d="M233.338 28.4175L230.777 26.4731L233.338 28.4175Z" stroke="black" stroke-width="0.64" stroke-miterlimit="10" stroke-linecap="round" stroke-linejoin="round"/>
<path d="M230.777 26.4731L233.338 45.5924L230.777 26.4731Z" stroke="black" stroke-width="0.64" stroke-miterlimit="10" stroke-linecap="round" stroke-linejoin="round"/>
<path d="M233.339 45.5924V18.6958V45.5924Z" stroke="black" stroke-width="0.64" stroke-miterlimit="10" stroke-linecap="round" stroke-linejoin="round"/>
<path d="M235.58 26.7969H235.9H235.58ZM235.259 27.1209H235.9H235.259ZM234.619 27.445H235.9H234.619ZM234.299 27.769H235.9H234.299ZM233.979 28.0931H235.9H233.979ZM233.339 28.4172H235.9H233.339ZM233.339 28.7412H235.9H233.339ZM233.339 29.0653H235.58H233.339ZM233.339 29.3893H235.58H233.339ZM233.339 29.7134H235.58H233.339ZM233.339 30.0374H235.58H233.339ZM233.339 30.3615H235.58H233.339ZM233.339 30.6855H235.58H233.339ZM233.339 31.0096H235.58H233.339ZM233.339 31.3337H235.259H233.339ZM233.339 31.6577H235.259H233.339ZM233.339 31.9818H235.259H233.339ZM233.339 32.3058H235.259H233.339ZM233.339 32.6299H235.259H233.339ZM233.339 32.9539H235.259H233.339ZM233.339 33.278H235.259H233.339ZM233.339 33.602H235.259H233.339ZM233.339 33.9261H234.939H233.339ZM233.339 34.2502H234.939H233.339ZM233.339 34.5742H234.939H233.339ZM233.339 34.8983H234.939H233.339ZM233.339 35.2223H234.939H233.339ZM233.339 35.5464H234.939H233.339ZM233.339 35.8704H234.939H233.339ZM233.339 36.1945H234.619H233.339ZM233.339 36.5185H234.619H233.339ZM233.339 36.8426H234.619H233.339ZM233.339 37.1667H234.619H233.339ZM233.339 37.4907H234.619H233.339ZM233.339 37.8148H234.619H233.339ZM233.339 38.1388H234.619H233.339ZM233.339 38.4629H234.299H233.339ZM233.339 38.7869H234.299H233.339ZM233.339 39.111H234.299H233.339ZM233.339 39.435H234.299H233.339ZM233.339 39.7591H234.299H233.339ZM233.339 40.0832H234.299H233.339ZM233.339 40.4072H234.299H233.339ZM233.339 40.7313H234.299H233.339ZM233.339 41.0553H233.979H233.339ZM233.339 41.3794H233.979H233.339ZM233.339 41.7034H233.979H233.339ZM233.339 42.0275H233.979H233.339ZM233.339 42.3516H233.979H233.339ZM233.339 42.6756H233.979H233.339ZM233.339 42.9997H233.979H233.339ZM233.339 43.3237H233.659H233.339ZM233.339 43.6478H233.659H233.339ZM233.339 43.9718H233.659H233.339ZM233.339 44.2959H233.659H233.339ZM233.339 44.6199H233.659H233.339ZM233.339 44.944H233.659H233.339ZM233.339 45.2681H233.659H233.339Z" fill="black" stroke="black" stroke-width="0.352" stroke-miterlimit="10" stroke-linejoin="bevel"/>
<path d="M231.098 26.7969H231.418H231.098ZM231.098 27.1209H231.738H231.098ZM231.098 27.445H232.058H231.098ZM231.098 27.769H232.698H231.098ZM231.098 28.0931H233.018H231.098ZM231.098 28.4172H233.338H231.098ZM231.098 28.7412H233.338H231.098ZM231.418 29.0653H233.338H231.418ZM231.418 29.3893H233.338H231.418ZM231.418 29.7134H233.338H231.418ZM231.418 30.0374H233.338H231.418ZM231.418 30.3615H233.338H231.418ZM231.418 30.6855H233.338H231.418ZM231.418 31.0096H233.338H231.418ZM231.738 31.3337H233.338H231.738ZM231.738 31.6577H233.338H231.738ZM231.738 31.9818H233.338H231.738ZM231.738 32.3058H233.338H231.738ZM231.738 32.6299H233.338H231.738ZM231.738 32.9539H233.338H231.738ZM231.738 33.278H233.338H231.738ZM231.738 33.602H233.338H231.738ZM232.058 33.9261H233.338H232.058ZM232.058 34.2502H233.338H232.058ZM232.058 34.5742H233.338H232.058ZM232.058 34.8983H233.338H232.058ZM232.058 35.2223H233.338H232.058ZM232.058 35.5464H233.338H232.058ZM232.058 35.8704H233.338H232.058ZM232.378 36.1945H233.338H232.378ZM232.378 36.5185H233.338H232.378ZM232.378 36.8426H233.338H232.378ZM232.378 37.1667H233.338H232.378ZM232.378 37.4907H233.338H232.378ZM232.378 37.8148H233.338H232.378ZM232.378 38.1388H233.338H232.378ZM232.698 38.4629H233.338H232.698ZM232.698 38.7869H233.338H232.698ZM232.698 39.111H233.338H232.698ZM232.698 39.4351H233.338H232.698ZM232.698 39.7591H233.338H232.698ZM232.698 40.0832H233.338H232.698ZM232.698 40.4072H233.338H232.698ZM232.698 40.7313H233.338H232.698ZM233.018 41.0553H233.338H233.018ZM233.018 41.3794H233.338H233.018ZM233.018 41.7034H233.338H233.018ZM233.018 42.0275H233.338H233.018ZM233.018 42.3516H233.338H233.018ZM233.018 42.6756H233.338H233.018ZM233.018 42.9997H233.338H233.018Z" fill="black" stroke="black" stroke-width="0.352" stroke-miterlimit="10" stroke-linejoin="bevel"/>
<path d="M233.338 57.2583H233.658H233.338ZM233.338 57.5824H233.658H233.338ZM233.018 57.9064H233.978H233.018ZM233.018 58.2305H233.978H233.018ZM232.698 58.5545H234.298H232.698ZM232.698 58.8786H234.298H232.698ZM232.698 59.2026H234.298H232.698ZM232.378 59.5267H234.618H232.378ZM232.378 59.8507H234.618H232.378ZM232.058 60.1748H234.938H232.058ZM232.058 60.4989H234.938H232.058ZM232.058 60.8229H234.938H232.058ZM231.738 61.147H235.259H231.738ZM231.738 61.471H235.259H231.738ZM231.417 61.7951H235.579H231.417ZM231.417 62.1191H235.579H231.417ZM231.417 62.4432H235.579H231.417ZM231.097 62.7672H235.899H231.097ZM231.097 63.0913H235.899H231.097ZM230.777 63.4154H236.219H230.777ZM230.777 63.7394H236.219H230.777ZM230.457 64.0635H236.219H230.457ZM230.457 64.3875H236.539H230.457ZM230.457 64.7116H236.539H230.457ZM230.457 65.0356H236.539H230.457ZM230.457 65.3597H236.539H230.457ZM230.457 65.6838H236.539H230.457ZM230.457 66.0078H236.539H230.457ZM230.457 66.3319H236.539H230.457ZM230.457 66.6559H236.859H230.457ZM230.137 66.98H236.859H230.137ZM230.137 67.304H236.859H230.137ZM230.137 67.6281H236.859H230.137ZM230.137 67.9521H236.859H230.137ZM230.137 68.2762H236.859H230.137ZM230.137 68.6003H236.859H230.137ZM230.137 68.9243H237.179H230.137ZM230.137 69.2484H237.179H230.137ZM230.137 69.5724H237.179H230.137ZM229.817 69.8965H237.179H229.817ZM229.817 70.2205H237.179H229.817ZM229.817 70.5446H237.179H229.817ZM229.817 70.8686H237.179H229.817ZM229.817 71.1927H237.499H229.817ZM229.817 71.5168H237.499H229.817ZM229.817 71.8408H237.499H229.817ZM229.817 72.1649H237.499H229.817ZM229.497 72.4889H237.499H229.497ZM229.497 72.813H237.499H229.497ZM229.497 73.137H237.499H229.497ZM229.497 73.4611H237.819H229.497ZM229.497 73.7851H237.819H229.497ZM229.497 74.1092H237.819H229.497ZM229.497 74.4333H237.819H229.497ZM229.497 74.7573H237.819H229.497ZM229.497 75.0814H237.819H229.497ZM229.177 75.4054H237.819H229.177ZM229.177 75.7295H238.139H229.177ZM229.177 76.0535H238.139H229.177ZM229.177 76.3776H238.139H229.177ZM229.177 76.7016H238.139H229.177ZM229.177 77.0257H238.139H229.177ZM229.177 77.3498H238.139H229.177ZM229.177 77.6738H238.139H229.177Z" fill="white" stroke="white" stroke-width="0.352" stroke-miterlimit="10" stroke-linejoin="bevel"/>
<path d="M233.338 56.9341L230.777 76.3774L233.338 56.9341Z" stroke="black" stroke-width="0.64" stroke-miterlimit="10" stroke-linecap="round" stroke-linejoin="round"/>
<path d="M230.777 76.3774L233.338 74.4331L230.777 76.3774Z" stroke="black" stroke-width="0.64" stroke-miterlimit="10" stroke-linecap="round" stroke-linejoin="round"/>
<path d="M233.339 74.4331L235.9 76.3774L233.339 74.4331Z" stroke="black" stroke-width="0.64" stroke-miterlimit="10" stroke-linecap="round" stroke-linejoin="round"/>
<path d="M235.9 76.3774L233.339 56.9341L235.9 76.3774Z" stroke="black" stroke-width="0.64" stroke-miterlimit="10" stroke-linecap="round" stroke-linejoin="round"/>
<path d="M233.339 56.9341V83.8307V56.9341Z" stroke="black" stroke-width="0.64" stroke-miterlimit="10" stroke-linecap="round" stroke-linejoin="round"/>
<path d="M233.018 59.5264H233.338H233.018ZM233.018 59.8504H233.338H233.018ZM233.018 60.1745H233.338H233.018ZM233.018 60.4985H233.338H233.018ZM233.018 60.8226H233.338H233.018ZM233.018 61.1466H233.338H233.018ZM233.018 61.4707H233.338H233.018ZM232.698 61.7948H233.338H232.698ZM232.698 62.1188H233.338H232.698ZM232.698 62.4429H233.338H232.698ZM232.698 62.7669H233.338H232.698ZM232.698 63.091H233.338H232.698ZM232.698 63.415H233.338H232.698ZM232.698 63.7391H233.338H232.698ZM232.698 64.0631H233.338H232.698ZM232.378 64.3872H233.338H232.378ZM232.378 64.7113H233.338H232.378ZM232.378 65.0353H233.338H232.378ZM232.378 65.3594H233.338H232.378ZM232.378 65.6834H233.338H232.378ZM232.378 66.0075H233.338H232.378ZM232.378 66.3315H233.338H232.378ZM232.058 66.6556H233.338H232.058ZM232.058 66.9796H233.338H232.058ZM232.058 67.3037H233.338H232.058ZM232.058 67.6278H233.338H232.058ZM232.058 67.9518H233.338H232.058ZM232.058 68.2759H233.338H232.058ZM232.058 68.5999H233.338H232.058ZM232.058 68.924H233.338H232.058ZM231.738 69.248H233.338H231.738ZM231.738 69.5721H233.338H231.738ZM231.738 69.8961H233.338H231.738ZM231.738 70.2202H233.338H231.738ZM231.738 70.5443H233.338H231.738ZM231.738 70.8683H233.338H231.738ZM231.738 71.1924H233.338H231.738ZM231.418 71.5164H233.338H231.418ZM231.418 71.8405H233.338H231.418ZM231.418 72.1645H233.338H231.418ZM231.418 72.4886H233.338H231.418ZM231.418 72.8126H233.338H231.418ZM231.418 73.1367H233.338H231.418ZM231.418 73.4607H233.338H231.418ZM231.418 73.7848H233.338H231.418ZM231.098 74.1089H233.338H231.098ZM231.098 74.4329H233.338H231.098ZM231.098 74.757H233.018H231.098ZM231.098 75.081H232.698H231.098ZM231.098 75.4051H232.058H231.098ZM231.098 75.7291H231.738H231.098ZM231.098 76.0532H231.418H231.098Z" fill="red" stroke="red" stroke-width="0.352" stroke-miterlimit="10" stroke-linejoin="bevel"/>
<path d="M233.339 57.2583H233.659H233.339ZM233.339 57.5824H233.659H233.339ZM233.339 57.9064H233.659H233.339ZM233.339 58.2305H233.659H233.339ZM233.339 58.5545H233.659H233.339ZM233.339 58.8786H233.659H233.339ZM233.339 59.2026H233.659H233.339ZM233.339 59.5267H233.979H233.339ZM233.339 59.8507H233.979H233.339ZM233.339 60.1748H233.979H233.339ZM233.339 60.4989H233.979H233.339ZM233.339 60.8229H233.979H233.339ZM233.339 61.147H233.979H233.339ZM233.339 61.471H233.979H233.339ZM233.339 61.7951H233.979H233.339ZM233.339 62.1191H234.299H233.339ZM233.339 62.4432H234.299H233.339ZM233.339 62.7672H234.299H233.339ZM233.339 63.0913H234.299H233.339ZM233.339 63.4154H234.299H233.339ZM233.339 63.7394H234.299H233.339ZM233.339 64.0635H234.299H233.339ZM233.339 64.3875H234.619H233.339ZM233.339 64.7116H234.619H233.339ZM233.339 65.0356H234.619H233.339ZM233.339 65.3597H234.619H233.339ZM233.339 65.6837H234.619H233.339ZM233.339 66.0078H234.619H233.339ZM233.339 66.3319H234.619H233.339ZM233.339 66.6559H234.619H233.339ZM233.339 66.98H234.939H233.339ZM233.339 67.304H234.939H233.339ZM233.339 67.6281H234.939H233.339ZM233.339 67.9521H234.939H233.339ZM233.339 68.2762H234.939H233.339ZM233.339 68.6002H234.939H233.339ZM233.339 68.9243H234.939H233.339ZM233.339 69.2484H235.259H233.339ZM233.339 69.5724H235.259H233.339ZM233.339 69.8965H235.259H233.339ZM233.339 70.2205H235.259H233.339ZM233.339 70.5446H235.259H233.339ZM233.339 70.8686H235.259H233.339ZM233.339 71.1927H235.259H233.339ZM233.339 71.5167H235.259H233.339ZM233.339 71.8408H235.58H233.339ZM233.339 72.1649H235.58H233.339ZM233.339 72.4889H235.58H233.339ZM233.339 72.813H235.58H233.339ZM233.339 73.137H235.58H233.339ZM233.339 73.4611H235.58H233.339ZM233.339 73.7851H235.58H233.339ZM233.339 74.1092H235.9H233.339ZM233.339 74.4332H235.9H233.339ZM233.979 74.7573H235.9H233.979ZM234.299 75.0814H235.9H234.299ZM234.619 75.4054H235.9H234.619ZM235.259 75.7295H235.9H235.259ZM235.58 76.0535H235.9H235.58Z" fill="red" stroke="red" stroke-width="0.352" stroke-miterlimit="10" stroke-linejoin="bevel"/>
<path d="M233.339 45.5923V56.9342V45.5923Z" stroke="black" stroke-width="0.64" stroke-miterlimit="10" stroke-linecap="round" stroke-linejoin="round"/>
</svg>
