<svg width="383" height="265" viewBox="0 0 383 265" fill="none" xmlns="http://www.w3.org/2000/svg">
<path d="M253.236 198.57L256.117 203.099L253.236 198.57Z" stroke="white" stroke-width="1.92" stroke-miterlimit="10" stroke-linecap="round" stroke-linejoin="round"/>
<path d="M256.117 203.099L258.678 198.57L256.117 203.099Z" stroke="white" stroke-width="1.92" stroke-miterlimit="10" stroke-linecap="round" stroke-linejoin="round"/>
<path d="M253.236 83.085L256.117 78.5562L253.236 83.085Z" stroke="white" stroke-width="1.92" stroke-miterlimit="10" stroke-linecap="round" stroke-linejoin="round"/>
<path d="M256.117 78.5562L258.678 83.085L256.117 78.5562Z" stroke="white" stroke-width="1.92" stroke-miterlimit="10" stroke-linecap="round" stroke-linejoin="round"/>
<path d="M253.236 78.5562H324.618H253.236Z" stroke="white" stroke-width="2.24" stroke-miterlimit="10" stroke-linecap="round" stroke-linejoin="round"/>
<path d="M253.236 203.099H324.618H253.236Z" stroke="white" stroke-width="2.24" stroke-miterlimit="10" stroke-linecap="round" stroke-linejoin="round"/>
<path d="M329.099 198.57H253.236H329.099Z" stroke="white" stroke-width="0.96" stroke-miterlimit="10" stroke-linecap="round" stroke-linejoin="round"/>
<path d="M329.099 198.57L324.617 203.099L329.099 198.57Z" stroke="white" stroke-width="2.24" stroke-miterlimit="10" stroke-linecap="round" stroke-linejoin="round"/>
<path d="M329.099 83.085H253.236H329.099Z" stroke="white" stroke-width="0.96" stroke-miterlimit="10" stroke-linecap="round" stroke-linejoin="round"/>
<path d="M329.099 83.085L324.617 78.5562L329.099 83.085Z" stroke="white" stroke-width="2.24" stroke-miterlimit="10" stroke-linecap="round" stroke-linejoin="round"/>
<path d="M324.618 203.099L324.298 78.5562L324.618 203.099Z" stroke="white" stroke-width="2.24" stroke-miterlimit="10" stroke-linecap="round" stroke-linejoin="round"/>
<path d="M258.678 198.57L261.239 203.099L258.678 198.57Z" stroke="white" stroke-width="1.92" stroke-miterlimit="10" stroke-linecap="round" stroke-linejoin="round"/>
<path d="M261.238 203.099L263.799 198.57L261.238 203.099Z" stroke="white" stroke-width="1.92" stroke-miterlimit="10" stroke-linecap="round" stroke-linejoin="round"/>
<path d="M263.799 198.57L266.36 203.099L263.799 198.57Z" stroke="white" stroke-width="1.92" stroke-miterlimit="10" stroke-linecap="round" stroke-linejoin="round"/>
<path d="M266.36 203.099L269.241 198.57L266.36 203.099Z" stroke="white" stroke-width="1.92" stroke-miterlimit="10" stroke-linecap="round" stroke-linejoin="round"/>
<path d="M269.241 198.57L271.802 203.099L269.241 198.57Z" stroke="white" stroke-width="1.92" stroke-miterlimit="10" stroke-linecap="round" stroke-linejoin="round"/>
<path d="M271.802 203.099L274.363 198.57L271.802 203.099Z" stroke="white" stroke-width="1.92" stroke-miterlimit="10" stroke-linecap="round" stroke-linejoin="round"/>
<path d="M274.362 198.57L276.923 203.099L274.362 198.57Z" stroke="white" stroke-width="1.92" stroke-miterlimit="10" stroke-linecap="round" stroke-linejoin="round"/>
<path d="M276.923 203.099L279.484 198.57L276.923 203.099Z" stroke="white" stroke-width="1.92" stroke-miterlimit="10" stroke-linecap="round" stroke-linejoin="round"/>
<path d="M279.483 198.57L282.364 203.099L279.483 198.57Z" stroke="white" stroke-width="1.92" stroke-miterlimit="10" stroke-linecap="round" stroke-linejoin="round"/>
<path d="M282.364 203.099L284.925 198.57L282.364 203.099Z" stroke="white" stroke-width="1.92" stroke-miterlimit="10" stroke-linecap="round" stroke-linejoin="round"/>
<path d="M284.926 198.57L287.487 203.099L284.926 198.57Z" stroke="white" stroke-width="1.92" stroke-miterlimit="10" stroke-linecap="round" stroke-linejoin="round"/>
<path d="M287.486 203.099L290.047 198.57L287.486 203.099Z" stroke="white" stroke-width="1.92" stroke-miterlimit="10" stroke-linecap="round" stroke-linejoin="round"/>
<path d="M290.047 198.57L292.608 203.099L290.047 198.57Z" stroke="white" stroke-width="1.92" stroke-miterlimit="10" stroke-linecap="round" stroke-linejoin="round"/>
<path d="M292.607 203.099L295.488 198.57L292.607 203.099Z" stroke="white" stroke-width="1.92" stroke-miterlimit="10" stroke-linecap="round" stroke-linejoin="round"/>
<path d="M295.488 198.57L298.049 203.099L295.488 198.57Z" stroke="white" stroke-width="1.92" stroke-miterlimit="10" stroke-linecap="round" stroke-linejoin="round"/>
<path d="M298.05 203.099L300.611 198.57L298.05 203.099Z" stroke="white" stroke-width="1.92" stroke-miterlimit="10" stroke-linecap="round" stroke-linejoin="round"/>
<path d="M300.61 198.57L303.171 203.099L300.61 198.57Z" stroke="white" stroke-width="1.92" stroke-miterlimit="10" stroke-linecap="round" stroke-linejoin="round"/>
<path d="M303.171 203.099L305.732 198.57L303.171 203.099Z" stroke="white" stroke-width="1.92" stroke-miterlimit="10" stroke-linecap="round" stroke-linejoin="round"/>
<path d="M305.731 198.57L308.292 203.099L305.731 198.57Z" stroke="white" stroke-width="1.92" stroke-miterlimit="10" stroke-linecap="round" stroke-linejoin="round"/>
<path d="M308.292 203.099L311.173 198.57L308.292 203.099Z" stroke="white" stroke-width="1.92" stroke-miterlimit="10" stroke-linecap="round" stroke-linejoin="round"/>
<path d="M311.174 198.57L313.735 203.099L311.174 198.57Z" stroke="white" stroke-width="1.92" stroke-miterlimit="10" stroke-linecap="round" stroke-linejoin="round"/>
<path d="M313.734 203.099L316.295 198.57L313.734 203.099Z" stroke="white" stroke-width="1.92" stroke-miterlimit="10" stroke-linecap="round" stroke-linejoin="round"/>
<path d="M316.295 198.57L318.856 203.099L316.295 198.57Z" stroke="white" stroke-width="1.92" stroke-miterlimit="10" stroke-linecap="round" stroke-linejoin="round"/>
<path d="M318.855 203.099L321.416 198.57L318.855 203.099Z" stroke="white" stroke-width="1.92" stroke-miterlimit="10" stroke-linecap="round" stroke-linejoin="round"/>
<path d="M321.416 198.57L324.617 203.099L321.416 198.57Z" stroke="white" stroke-width="1.92" stroke-miterlimit="10" stroke-linecap="round" stroke-linejoin="round"/>
<path d="M258.678 83.085L261.239 78.5562L258.678 83.085Z" stroke="white" stroke-width="1.92" stroke-miterlimit="10" stroke-linecap="round" stroke-linejoin="round"/>
<path d="M261.238 78.5562L263.799 83.085L261.238 78.5562Z" stroke="white" stroke-width="1.92" stroke-miterlimit="10" stroke-linecap="round" stroke-linejoin="round"/>
<path d="M263.799 83.085L266.36 78.5562L263.799 83.085Z" stroke="white" stroke-width="1.92" stroke-miterlimit="10" stroke-linecap="round" stroke-linejoin="round"/>
<path d="M266.36 78.5562L269.241 83.085L266.36 78.5562Z" stroke="white" stroke-width="1.92" stroke-miterlimit="10" stroke-linecap="round" stroke-linejoin="round"/>
<path d="M269.241 83.085L271.802 78.5562L269.241 83.085Z" stroke="white" stroke-width="1.92" stroke-miterlimit="10" stroke-linecap="round" stroke-linejoin="round"/>
<path d="M271.802 78.5562L274.363 83.085L271.802 78.5562Z" stroke="white" stroke-width="1.92" stroke-miterlimit="10" stroke-linecap="round" stroke-linejoin="round"/>
<path d="M274.362 83.085L276.923 78.5562L274.362 83.085Z" stroke="white" stroke-width="1.92" stroke-miterlimit="10" stroke-linecap="round" stroke-linejoin="round"/>
<path d="M276.923 78.5562L279.484 83.085L276.923 78.5562Z" stroke="white" stroke-width="1.92" stroke-miterlimit="10" stroke-linecap="round" stroke-linejoin="round"/>
<path d="M279.483 83.085L282.364 78.5562L279.483 83.085Z" stroke="white" stroke-width="1.92" stroke-miterlimit="10" stroke-linecap="round" stroke-linejoin="round"/>
<path d="M282.364 78.5562L284.925 83.085L282.364 78.5562Z" stroke="white" stroke-width="1.92" stroke-miterlimit="10" stroke-linecap="round" stroke-linejoin="round"/>
<path d="M284.926 83.085L287.487 78.5562L284.926 83.085Z" stroke="white" stroke-width="1.92" stroke-miterlimit="10" stroke-linecap="round" stroke-linejoin="round"/>
<path d="M287.486 78.5562L290.047 83.085L287.486 78.5562Z" stroke="white" stroke-width="1.92" stroke-miterlimit="10" stroke-linecap="round" stroke-linejoin="round"/>
<path d="M290.047 83.085L292.608 78.5562L290.047 83.085Z" stroke="white" stroke-width="1.92" stroke-miterlimit="10" stroke-linecap="round" stroke-linejoin="round"/>
<path d="M292.607 78.5562L295.488 83.085L292.607 78.5562Z" stroke="white" stroke-width="1.92" stroke-miterlimit="10" stroke-linecap="round" stroke-linejoin="round"/>
<path d="M295.488 83.085L298.049 78.5562L295.488 83.085Z" stroke="white" stroke-width="1.92" stroke-miterlimit="10" stroke-linecap="round" stroke-linejoin="round"/>
<path d="M298.05 78.5562L300.611 83.085L298.05 78.5562Z" stroke="white" stroke-width="1.92" stroke-miterlimit="10" stroke-linecap="round" stroke-linejoin="round"/>
<path d="M300.61 83.085L303.171 78.5562L300.61 83.085Z" stroke="white" stroke-width="1.92" stroke-miterlimit="10" stroke-linecap="round" stroke-linejoin="round"/>
<path d="M303.171 78.5562L305.732 83.085L303.171 78.5562Z" stroke="white" stroke-width="1.92" stroke-miterlimit="10" stroke-linecap="round" stroke-linejoin="round"/>
<path d="M305.731 83.085L308.292 78.5562L305.731 83.085Z" stroke="white" stroke-width="1.92" stroke-miterlimit="10" stroke-linecap="round" stroke-linejoin="round"/>
<path d="M308.292 78.5562L311.173 83.085L308.292 78.5562Z" stroke="white" stroke-width="1.92" stroke-miterlimit="10" stroke-linecap="round" stroke-linejoin="round"/>
<path d="M311.174 83.085L313.735 78.5562L311.174 83.085Z" stroke="white" stroke-width="1.92" stroke-miterlimit="10" stroke-linecap="round" stroke-linejoin="round"/>
<path d="M313.734 78.5562L316.295 83.085L313.734 78.5562Z" stroke="white" stroke-width="1.92" stroke-miterlimit="10" stroke-linecap="round" stroke-linejoin="round"/>
<path d="M316.295 83.085L318.856 78.5562L316.295 83.085Z" stroke="white" stroke-width="1.92" stroke-miterlimit="10" stroke-linecap="round" stroke-linejoin="round"/>
<path d="M318.855 78.5562L321.416 83.085L318.855 78.5562Z" stroke="white" stroke-width="1.92" stroke-miterlimit="10" stroke-linecap="round" stroke-linejoin="round"/>
<path d="M321.416 83.085L324.617 78.5562L321.416 83.085Z" stroke="white" stroke-width="1.92" stroke-miterlimit="10" stroke-linecap="round" stroke-linejoin="round"/>
<path d="M177.373 97.3186L178.333 96.3481L177.373 97.3186Z" stroke="white" stroke-width="0.64" stroke-miterlimit="10" stroke-linecap="round" stroke-linejoin="round"/>
<path d="M178.333 96.3482L180.894 94.4072L178.333 96.3482Z" stroke="white" stroke-width="0.64" stroke-miterlimit="10" stroke-linecap="round" stroke-linejoin="round"/>
<path d="M180.895 94.4075L186.016 90.8491L180.895 94.4075Z" stroke="white" stroke-width="0.64" stroke-miterlimit="10" stroke-linecap="round" stroke-linejoin="round"/>
<path d="M186.016 90.8489L193.698 85.3496L186.016 90.8489Z" stroke="white" stroke-width="0.64" stroke-miterlimit="10" stroke-linecap="round" stroke-linejoin="round"/>
<path d="M223.467 73.3806L225.387 73.0571L223.467 73.3806Z" stroke="white" stroke-width="0.64" stroke-miterlimit="10" stroke-linecap="round" stroke-linejoin="round"/>
<path d="M83.2646 73.7041L83.5847 73.0571L83.2646 73.7041Z" stroke="white" stroke-width="0.64" stroke-miterlimit="10" stroke-linecap="round" stroke-linejoin="round"/>
<path d="M329.099 198.57V83.085V198.57Z" stroke="white" stroke-width="2.24" stroke-miterlimit="10" stroke-linecap="round" stroke-linejoin="round"/>
<path d="M77.1834 78.5562H6.12207H77.1834Z" stroke="white" stroke-width="2.24" stroke-miterlimit="10" stroke-linecap="round" stroke-linejoin="round"/>
<path d="M77.1834 203.099H6.12207H77.1834Z" stroke="white" stroke-width="2.24" stroke-miterlimit="10" stroke-linecap="round" stroke-linejoin="round"/>
<path d="M1.64062 198.57V83.085V198.57Z" stroke="white" stroke-width="2.24" stroke-miterlimit="10" stroke-linecap="round" stroke-linejoin="round"/>
<path d="M1.64062 198.57H77.1833H1.64062Z" stroke="white" stroke-width="0.96" stroke-miterlimit="10" stroke-linecap="round" stroke-linejoin="round"/>
<path d="M1.64062 198.57L6.12196 203.099L1.64062 198.57Z" stroke="white" stroke-width="2.24" stroke-miterlimit="10" stroke-linecap="round" stroke-linejoin="round"/>
<path d="M1.64062 83.085H77.1833H1.64062Z" stroke="white" stroke-width="0.96" stroke-miterlimit="10" stroke-linecap="round" stroke-linejoin="round"/>
<path d="M1.64062 83.085L6.12196 78.5562L1.64062 83.085Z" stroke="white" stroke-width="2.24" stroke-miterlimit="10" stroke-linecap="round" stroke-linejoin="round"/>
<path d="M6.12207 203.099V78.5562V203.099Z" stroke="white" stroke-width="2.24" stroke-miterlimit="10" stroke-linecap="round" stroke-linejoin="round"/>
<path d="M77.1828 198.57L74.6221 203.099L72.0615 198.57L69.501 203.099L66.6201 198.57L64.0596 203.099L61.498 198.57L58.9375 203.099L56.377 198.57L53.4961 203.099L50.9355 198.57L48.374 203.099L45.8135 198.57L43.2529 203.099L40.6924 198.57L37.8115 203.099L35.25 198.57L32.6895 203.099L30.1289 198.57L27.5684 203.099L24.6875 198.57L22.127 203.099L19.5654 198.57L17.0049 203.099L14.4443 198.57L11.5635 203.099L9.00293 198.57L6.12207 203.099" stroke="white" stroke-width="1.92" stroke-miterlimit="10" stroke-linecap="round" stroke-linejoin="round"/>
<path d="M77.1828 83.085L74.6221 78.5562L77.1828 83.085Z" stroke="white" stroke-width="1.92" stroke-miterlimit="10" stroke-linecap="round" stroke-linejoin="round"/>
<path d="M74.6223 78.5562L72.0615 83.085L74.6223 78.5562Z" stroke="white" stroke-width="1.92" stroke-miterlimit="10" stroke-linecap="round" stroke-linejoin="round"/>
<path d="M72.0617 83.085L69.501 78.5562L72.0617 83.085Z" stroke="white" stroke-width="1.92" stroke-miterlimit="10" stroke-linecap="round" stroke-linejoin="round"/>
<path d="M69.5009 78.5562L66.6201 83.085L69.5009 78.5562Z" stroke="white" stroke-width="1.92" stroke-miterlimit="10" stroke-linecap="round" stroke-linejoin="round"/>
<path d="M66.6203 83.085L64.0596 78.5562L66.6203 83.085Z" stroke="white" stroke-width="1.92" stroke-miterlimit="10" stroke-linecap="round" stroke-linejoin="round"/>
<path d="M64.0588 78.5562L61.498 83.085L64.0588 78.5562Z" stroke="white" stroke-width="1.92" stroke-miterlimit="10" stroke-linecap="round" stroke-linejoin="round"/>
<path d="M61.4983 83.085L58.9375 78.5562L61.4983 83.085Z" stroke="white" stroke-width="1.92" stroke-miterlimit="10" stroke-linecap="round" stroke-linejoin="round"/>
<path d="M58.9377 78.5562L56.377 83.085L58.9377 78.5562Z" stroke="white" stroke-width="1.92" stroke-miterlimit="10" stroke-linecap="round" stroke-linejoin="round"/>
<path d="M56.3769 83.085L53.4961 78.5562L56.3769 83.085Z" stroke="white" stroke-width="1.92" stroke-miterlimit="10" stroke-linecap="round" stroke-linejoin="round"/>
<path d="M53.4963 78.5562L50.9355 83.085L53.4963 78.5562Z" stroke="white" stroke-width="1.92" stroke-miterlimit="10" stroke-linecap="round" stroke-linejoin="round"/>
<path d="M50.9348 83.085L48.374 78.5562L50.9348 83.085Z" stroke="white" stroke-width="1.92" stroke-miterlimit="10" stroke-linecap="round" stroke-linejoin="round"/>
<path d="M48.3742 78.5562L45.8135 83.085L48.3742 78.5562Z" stroke="white" stroke-width="1.92" stroke-miterlimit="10" stroke-linecap="round" stroke-linejoin="round"/>
<path d="M45.8137 83.085L43.2529 78.5562L45.8137 83.085Z" stroke="white" stroke-width="1.92" stroke-miterlimit="10" stroke-linecap="round" stroke-linejoin="round"/>
<path d="M43.2532 78.5562L40.6924 83.085L43.2532 78.5562Z" stroke="white" stroke-width="1.92" stroke-miterlimit="10" stroke-linecap="round" stroke-linejoin="round"/>
<path d="M40.6924 83.085L37.8115 78.5562L40.6924 83.085Z" stroke="white" stroke-width="1.92" stroke-miterlimit="10" stroke-linecap="round" stroke-linejoin="round"/>
<path d="M37.8108 78.5562L35.25 83.085L37.8108 78.5562Z" stroke="white" stroke-width="1.92" stroke-miterlimit="10" stroke-linecap="round" stroke-linejoin="round"/>
<path d="M35.2502 83.085L32.6895 78.5562L35.2502 83.085Z" stroke="white" stroke-width="1.92" stroke-miterlimit="10" stroke-linecap="round" stroke-linejoin="round"/>
<path d="M32.6897 78.5562L30.1289 83.085L32.6897 78.5562Z" stroke="white" stroke-width="1.92" stroke-miterlimit="10" stroke-linecap="round" stroke-linejoin="round"/>
<path d="M30.1291 83.085L27.5684 78.5562L30.1291 83.085Z" stroke="white" stroke-width="1.92" stroke-miterlimit="10" stroke-linecap="round" stroke-linejoin="round"/>
<path d="M27.5684 78.5562L24.6875 83.085L27.5684 78.5562Z" stroke="white" stroke-width="1.92" stroke-miterlimit="10" stroke-linecap="round" stroke-linejoin="round"/>
<path d="M24.6877 83.085L22.127 78.5562L24.6877 83.085Z" stroke="white" stroke-width="1.92" stroke-miterlimit="10" stroke-linecap="round" stroke-linejoin="round"/>
<path d="M22.1262 78.5562L19.5654 83.085L22.1262 78.5562Z" stroke="white" stroke-width="1.92" stroke-miterlimit="10" stroke-linecap="round" stroke-linejoin="round"/>
<path d="M19.5657 83.085L17.0049 78.5562L19.5657 83.085Z" stroke="white" stroke-width="1.92" stroke-miterlimit="10" stroke-linecap="round" stroke-linejoin="round"/>
<path d="M17.0051 78.5562L14.4443 83.085L17.0051 78.5562Z" stroke="white" stroke-width="1.92" stroke-miterlimit="10" stroke-linecap="round" stroke-linejoin="round"/>
<path d="M14.4444 83.085L11.5635 78.5562L14.4444 83.085Z" stroke="white" stroke-width="1.92" stroke-miterlimit="10" stroke-linecap="round" stroke-linejoin="round"/>
<path d="M11.5637 78.5562L9.00293 83.085L11.5637 78.5562Z" stroke="white" stroke-width="1.92" stroke-miterlimit="10" stroke-linecap="round" stroke-linejoin="round"/>
<path d="M9.00293 83.085L6.12207 78.5562L9.00293 83.085Z" stroke="white" stroke-width="1.92" stroke-miterlimit="10" stroke-linecap="round" stroke-linejoin="round"/>
<path d="M253.236 208.599H77.1826V73.0571H253.556L253.236 208.599Z" stroke="white" stroke-width="2.24" stroke-miterlimit="10" stroke-linecap="round" stroke-linejoin="round"/>
<path d="M82.625 73.0571L86.1461 76.6155L82.625 73.0571Z" stroke="white" stroke-width="0.64" stroke-miterlimit="10" stroke-linecap="round" stroke-linejoin="round"/>
<path d="M86.1455 76.6152L91.267 81.4675L86.1455 76.6152Z" stroke="white" stroke-width="0.64" stroke-miterlimit="10" stroke-linecap="round" stroke-linejoin="round"/>
<path d="M91.2676 81.4678L97.6695 87.614L91.2676 81.4678Z" stroke="white" stroke-width="0.64" stroke-miterlimit="10" stroke-linecap="round" stroke-linejoin="round"/>
<path d="M97.6689 87.6138L104.711 93.4365L97.6689 87.6138Z" stroke="white" stroke-width="0.64" stroke-miterlimit="10" stroke-linecap="round" stroke-linejoin="round"/>
<path d="M104.711 93.437L110.473 98.2893L104.711 93.437Z" stroke="white" stroke-width="0.64" stroke-miterlimit="10" stroke-linecap="round" stroke-linejoin="round"/>
<path d="M110.473 98.2891L116.875 102.818L110.473 98.2891Z" stroke="white" stroke-width="0.64" stroke-miterlimit="10" stroke-linecap="round" stroke-linejoin="round"/>
<path d="M116.875 102.818L125.197 107.67L116.875 102.818Z" stroke="white" stroke-width="0.64" stroke-miterlimit="10" stroke-linecap="round" stroke-linejoin="round"/>
<path d="M125.197 107.67L133.84 111.552L125.197 107.67Z" stroke="white" stroke-width="0.64" stroke-miterlimit="10" stroke-linecap="round" stroke-linejoin="round"/>
<path d="M133.84 111.552L141.202 113.17L133.84 111.552Z" stroke="white" stroke-width="0.64" stroke-miterlimit="10" stroke-linecap="round" stroke-linejoin="round"/>
<path d="M141.202 113.169L147.604 113.493L141.202 113.169Z" stroke="white" stroke-width="0.64" stroke-miterlimit="10" stroke-linecap="round" stroke-linejoin="round"/>
<path d="M147.604 113.493H149.844H147.604Z" stroke="white" stroke-width="0.64" stroke-miterlimit="10" stroke-linecap="round" stroke-linejoin="round"/>
<path d="M149.845 113.493L150.805 113.169L149.845 113.493Z" stroke="white" stroke-width="0.64" stroke-miterlimit="10" stroke-linecap="round" stroke-linejoin="round"/>
<path d="M150.806 113.169L153.046 112.522L150.806 113.169Z" stroke="white" stroke-width="0.64" stroke-miterlimit="10" stroke-linecap="round" stroke-linejoin="round"/>
<path d="M153.046 112.522L156.887 111.229L153.046 112.522Z" stroke="white" stroke-width="0.64" stroke-miterlimit="10" stroke-linecap="round" stroke-linejoin="round"/>
<path d="M156.887 111.229L162.969 107.994L156.887 111.229Z" stroke="white" stroke-width="0.64" stroke-miterlimit="10" stroke-linecap="round" stroke-linejoin="round"/>
<path d="M162.969 107.994L169.051 103.789L162.969 107.994Z" stroke="white" stroke-width="0.64" stroke-miterlimit="10" stroke-linecap="round" stroke-linejoin="round"/>
<path d="M169.051 103.788L172.252 101.524L169.051 103.788Z" stroke="white" stroke-width="0.64" stroke-miterlimit="10" stroke-linecap="round" stroke-linejoin="round"/>
<path d="M172.252 101.524L173.532 100.23L172.252 101.524Z" stroke="white" stroke-width="0.64" stroke-miterlimit="10" stroke-linecap="round" stroke-linejoin="round"/>
<path d="M173.532 100.23L174.493 99.583L173.532 100.23Z" stroke="white" stroke-width="0.64" stroke-miterlimit="10" stroke-linecap="round" stroke-linejoin="round"/>
<path d="M174.492 99.583L175.452 98.936L174.492 99.583Z" stroke="white" stroke-width="0.64" stroke-miterlimit="10" stroke-linecap="round" stroke-linejoin="round"/>
<path d="M175.452 98.9363L176.412 97.9658L175.452 98.9363Z" stroke="white" stroke-width="0.64" stroke-miterlimit="10" stroke-linecap="round" stroke-linejoin="round"/>
<path d="M176.413 97.9658H176.733H176.413Z" stroke="white" stroke-width="0.64" stroke-miterlimit="10" stroke-linecap="round" stroke-linejoin="round"/>
<path d="M176.733 97.9658L177.374 97.3188L176.733 97.9658Z" stroke="white" stroke-width="0.64" stroke-miterlimit="10" stroke-linecap="round" stroke-linejoin="round"/>
<path d="M94.4688 84.3789H194.979H94.4688Z" stroke="white" stroke-width="2.24" stroke-miterlimit="10" stroke-linecap="round" stroke-linejoin="round"/>
<path d="M168.41 84.3792L179.934 73.0571L168.41 84.3792Z" stroke="white" stroke-width="0.64" stroke-miterlimit="10" stroke-linecap="round" stroke-linejoin="round"/>
<path d="M152.405 84.3792L163.929 73.0571L152.405 84.3792Z" stroke="white" stroke-width="0.64" stroke-miterlimit="10" stroke-linecap="round" stroke-linejoin="round"/>
<path d="M136.4 84.3792L147.924 73.0571L136.4 84.3792Z" stroke="white" stroke-width="0.64" stroke-miterlimit="10" stroke-linecap="round" stroke-linejoin="round"/>
<path d="M120.396 84.3792L131.92 73.0571L120.396 84.3792Z" stroke="white" stroke-width="0.64" stroke-miterlimit="10" stroke-linecap="round" stroke-linejoin="round"/>
<path d="M104.392 84.3792L115.595 73.0571L104.392 84.3792Z" stroke="white" stroke-width="0.64" stroke-miterlimit="10" stroke-linecap="round" stroke-linejoin="round"/>
<path d="M91.2676 81.4678L99.5901 73.0571L91.2676 81.4678Z" stroke="white" stroke-width="0.64" stroke-miterlimit="10" stroke-linecap="round" stroke-linejoin="round"/>
<path d="M193.698 85.3494L204.581 79.2031L193.698 85.3494Z" stroke="white" stroke-width="0.64" stroke-miterlimit="10" stroke-linecap="round" stroke-linejoin="round"/>
<path d="M204.581 79.2034L214.184 75.645L204.581 79.2034Z" stroke="white" stroke-width="0.64" stroke-miterlimit="10" stroke-linecap="round" stroke-linejoin="round"/>
<path d="M214.185 75.6448L223.467 73.3804L214.185 75.6448Z" stroke="white" stroke-width="0.64" stroke-miterlimit="10" stroke-linecap="round" stroke-linejoin="round"/>
<path d="M206.822 78.2329L211.944 73.0571L206.822 78.2329Z" stroke="white" stroke-width="0.64" stroke-miterlimit="10" stroke-linecap="round" stroke-linejoin="round"/>
<path d="M184.735 84.3792L195.939 73.0571L184.735 84.3792Z" stroke="white" stroke-width="0.64" stroke-miterlimit="10" stroke-linecap="round" stroke-linejoin="round"/>

<!--    1 A-->
    <g class="group">
    </g>
    <!--    2 D-->
    <g class="group">
    </g>
<!--    2 Dy-->
    <g class="group">
        <path d="M361.974 146.663L342.947 139.664V133.941C342.947 132.177 343.313 130.752 344.045 129.666C344.777 128.58 345.818 127.919 347.168 127.682C348.518 127.436 350.069 127.631 351.82 128.266L353.036 128.713C354.83 129.373 356.403 130.323 357.753 131.562C359.103 132.792 360.14 134.227 360.863 135.867C361.586 137.497 361.957 139.226 361.974 141.051V146.663ZM345.012 137.75L359.922 143.235V140.422C359.922 138.361 359.321 136.539 358.119 134.955C356.917 133.362 355.205 132.156 352.983 131.339L351.873 130.931C349.712 130.136 348.035 130.062 346.841 130.709C345.639 131.343 345.029 132.651 345.012 134.631V137.75Z" fill="white"/>
        <path d="M330.379 77.9129C330.202 77.9129 330.059 78.0562 330.059 78.2329C330.059 78.4096 330.202 78.5529 330.379 78.5529V77.9129ZM382.235 78.5529C382.411 78.5529 382.555 78.4096 382.555 78.2329C382.555 78.0562 382.411 77.9129 382.235 77.9129V78.5529ZM330.379 202.779C330.202 202.779 330.059 202.922 330.059 203.099C330.059 203.276 330.202 203.419 330.379 203.419V202.779ZM382.235 203.419C382.411 203.419 382.555 203.276 382.555 203.099C382.555 202.922 382.411 202.779 382.235 202.779V203.419ZM361.974 146.663L361.863 146.963C361.962 146.999 362.071 146.985 362.157 146.925C362.243 146.865 362.294 146.767 362.294 146.663H361.974ZM342.947 139.664H342.627C342.627 139.798 342.711 139.918 342.837 139.964L342.947 139.664ZM347.168 127.682L347.223 127.998L347.225 127.997L347.168 127.682ZM351.82 128.266L351.931 127.965L351.929 127.965L351.82 128.266ZM353.036 128.713L352.925 129.013L352.925 129.013L353.036 128.713ZM357.753 131.562L357.537 131.798L357.538 131.799L357.753 131.562ZM360.863 135.867L360.57 135.996L360.571 135.997L360.863 135.867ZM361.974 141.051H362.294L362.294 141.048L361.974 141.051ZM345.012 137.75H344.692C344.692 137.884 344.776 138.004 344.901 138.05L345.012 137.75ZM359.922 143.235L359.812 143.535C359.91 143.571 360.02 143.557 360.105 143.497C360.191 143.437 360.242 143.339 360.242 143.235H359.922ZM358.119 134.955L357.864 135.148L357.864 135.148L358.119 134.955ZM352.983 131.339L353.094 131.039L353.094 131.039L352.983 131.339ZM351.873 130.931L351.762 131.231L351.762 131.231L351.873 130.931ZM346.841 130.709L346.991 130.992L346.994 130.99L346.841 130.709ZM345.012 134.631L344.692 134.628V134.631H345.012ZM374.872 78.2329L375.189 78.1904C375.168 78.0315 375.033 77.9129 374.872 77.9129C374.712 77.9129 374.576 78.0315 374.555 78.1904L374.872 78.2329ZM377.433 97.3187L377.24 97.5737C377.343 97.6517 377.483 97.6602 377.594 97.5951C377.706 97.53 377.767 97.4042 377.75 97.2761L377.433 97.3187ZM374.872 95.3777L374.872 95.0577L374.872 95.0577L374.872 95.3777ZM372.311 97.3187L371.994 97.2761C371.977 97.4042 372.039 97.53 372.15 97.5951C372.262 97.6602 372.402 97.6518 372.505 97.5737L372.311 97.3187ZM374.872 203.099L374.555 203.142C374.576 203.301 374.712 203.419 374.872 203.419C375.033 203.419 375.168 203.301 375.189 203.142L374.872 203.099ZM372.311 184.013L372.505 183.758C372.402 183.68 372.262 183.672 372.15 183.737C372.039 183.802 371.977 183.928 371.994 184.056L372.311 184.013ZM374.872 185.954L374.872 186.274L374.872 186.274L374.872 185.954ZM377.433 184.013L377.75 184.056C377.767 183.928 377.706 183.802 377.594 183.737C377.483 183.672 377.343 183.68 377.24 183.758L377.433 184.013ZM330.379 78.5529H382.235V77.9129H330.379V78.5529ZM330.379 203.419H382.235V202.779H330.379V203.419ZM362.084 146.362L343.058 139.363L342.837 139.964L361.863 146.963L362.084 146.362ZM343.267 139.664V133.941H342.627V139.664H343.267ZM343.267 133.941C343.267 132.219 343.625 130.863 344.31 129.845L343.78 129.487C343.002 130.642 342.627 132.135 342.627 133.941H343.267ZM344.31 129.845C344.991 128.835 345.954 128.22 347.223 127.998L347.113 127.367C345.681 127.618 344.562 128.326 343.78 129.487L344.31 129.845ZM347.225 127.997C348.504 127.764 349.995 127.944 351.711 128.567L351.929 127.965C350.143 127.317 348.533 127.108 347.111 127.367L347.225 127.997ZM351.71 128.566L352.925 129.013L353.146 128.413L351.931 127.965L351.71 128.566ZM352.925 129.013C354.682 129.66 356.218 130.588 357.537 131.798L357.969 131.326C356.587 130.058 354.978 129.086 353.146 128.413L352.925 129.013ZM357.538 131.799C358.856 132.999 359.866 134.398 360.57 135.996L361.156 135.738C360.415 134.056 359.351 132.585 357.969 131.326L357.538 131.799ZM360.571 135.997C361.276 137.586 361.637 139.271 361.654 141.054L362.294 141.048C362.276 139.18 361.897 137.409 361.156 135.737L360.571 135.997ZM361.654 141.051V146.663H362.294V141.051H361.654ZM344.901 138.05L359.812 143.535L360.033 142.934L345.122 137.449L344.901 138.05ZM360.242 143.235V140.422H359.602V143.235H360.242ZM360.242 140.422C360.242 138.294 359.62 136.403 358.374 134.761L357.864 135.148C359.022 136.675 359.602 138.428 359.602 140.422H360.242ZM358.374 134.762C357.129 133.111 355.362 131.873 353.094 131.039L352.873 131.639C355.048 132.439 356.705 133.612 357.864 135.148L358.374 134.762ZM353.094 131.039L351.983 130.63L351.762 131.231L352.873 131.639L353.094 131.039ZM351.983 130.63C349.794 129.825 348.005 129.714 346.689 130.428L346.994 130.99C348.065 130.41 349.63 130.447 351.762 131.231L351.983 130.63ZM346.692 130.426C345.342 131.139 344.71 132.59 344.692 134.628L345.332 134.634C345.349 132.711 345.937 131.548 346.991 130.992L346.692 130.426ZM344.692 134.631V137.75H345.332V134.631H344.692ZM374.555 78.2755L377.116 97.3612L377.75 97.2761L375.189 78.1904L374.555 78.2755ZM377.626 97.0636L375.066 95.1227L374.679 95.6328L377.24 97.5737L377.626 97.0636ZM374.679 95.1227L372.118 97.0637L372.505 97.5737L375.066 95.6328L374.679 95.1227ZM372.629 97.3612L375.189 78.2755L374.555 78.1904L371.994 97.2761L372.629 97.3612ZM374.872 78.8764H375.192V78.2364H374.872V78.8764ZM374.872 79.1999H375.192V78.5599H374.872V79.1999ZM374.872 79.5234H375.192V78.8834H374.872V79.5234ZM374.872 79.8469H375.192V79.2069H374.872V79.8469ZM374.872 80.1703H375.192V79.5303H374.872V80.1703ZM374.872 80.4938H375.192V79.8538H374.872V80.4938ZM374.872 80.8173H375.192V80.1773H374.872V80.8173ZM374.872 95.6977L377.433 95.6978L377.433 95.0578L374.872 95.0577L374.872 95.6977ZM375.512 96.0212H377.433V95.3812H375.512V96.0212ZM375.833 96.3447H377.433V95.7047H375.833V96.3447ZM376.153 96.6682H377.433V96.0282H376.153V96.6682ZM376.793 96.9917H377.433V96.3517H376.793V96.9917ZM377.113 97.3152H377.433V96.6752H377.113V97.3152ZM372.632 95.6978L374.872 95.6977L374.872 95.0577L372.632 95.0578L372.632 95.6978ZM372.632 96.0212H374.552V95.3812H372.632V96.0212ZM372.632 96.3447H374.232V95.7047H372.632V96.3447ZM372.632 96.6682H373.592V96.0282H372.632V96.6682ZM372.632 96.9917H373.272V96.3517H372.632V96.9917ZM372.632 97.3152H372.952V96.6752H372.632V97.3152ZM375.189 203.057L372.629 183.971L371.994 184.056L374.555 203.142L375.189 203.057ZM372.118 184.268L374.679 186.209L375.066 185.699L372.505 183.758L372.118 184.268ZM375.066 186.209L377.626 184.268L377.24 183.758L374.679 185.699L375.066 186.209ZM377.116 183.971L374.555 203.057L375.189 203.142L377.75 184.056L377.116 183.971ZM372.632 184.657H372.952V184.017H372.632V184.657ZM372.632 184.98H373.272V184.34H372.632V184.98ZM372.632 185.304H373.592V184.664H372.632V185.304ZM372.632 185.627H374.232V184.987H372.632V185.627ZM372.632 185.951H374.552V185.311H372.632V185.951ZM372.632 186.274L374.872 186.274L374.872 185.634L372.632 185.634L372.632 186.274ZM377.113 184.657H377.433V184.017H377.113V184.657ZM376.793 184.98H377.433V184.34H376.793V184.98ZM376.153 185.304H377.433V184.664H376.153V185.304ZM375.833 185.627H377.433V184.987H375.833V185.627ZM375.512 185.951H377.433V185.311H375.512V185.951ZM374.872 186.274L377.433 186.274L377.433 185.634L374.872 185.634L374.872 186.274ZM374.872 201.155H375.192V200.515H374.872V201.155ZM374.872 201.478H375.192V200.838H374.872V201.478ZM374.872 201.802H375.192V201.162H374.872V201.802ZM374.872 202.125H375.192V201.485H374.872V202.125ZM374.872 202.449H375.192V201.809H374.872V202.449ZM374.872 202.772H375.192V202.132H374.872V202.772ZM374.872 203.096H375.192V202.456H374.872V203.096ZM374.552 78.2329V203.099H375.192V78.2329H374.552ZM374.552 81.1408L375.512 81.1408L375.512 80.5008L374.552 80.5008L374.552 81.1408ZM374.552 81.4643L375.512 81.4643L375.512 80.8243L374.552 80.8243L374.552 81.4643ZM374.552 81.7878L375.512 81.7878L375.512 81.1478L374.552 81.1478L374.552 81.7878ZM374.552 82.1113L375.512 82.1113L375.512 81.4713L374.552 81.4713L374.552 82.1113ZM374.552 82.4348L375.512 82.4348L375.512 81.7948L374.552 81.7948L374.552 82.4348ZM374.552 82.7583L375.512 82.7582L375.512 82.1182L374.552 82.1183L374.552 82.7583ZM374.552 83.0817L375.512 83.0817L375.512 82.4417L374.552 82.4417L374.552 83.0817ZM374.232 83.4052L375.833 83.4052L375.833 82.7652L374.232 82.7652L374.232 83.4052ZM374.232 83.7287L375.833 83.7287L375.833 83.0887L374.232 83.0887L374.232 83.7287ZM374.232 84.0522L375.833 84.0522L375.833 83.4122L374.232 83.4122L374.232 84.0522ZM374.232 84.3757L375.833 84.3757L375.833 83.7357L374.232 83.7357L374.232 84.3757ZM374.232 84.6992L375.833 84.6992L375.833 84.0592L374.232 84.0592L374.232 84.6992ZM374.232 85.0227L375.833 85.0227L375.833 84.3827L374.232 84.3827L374.232 85.0227ZM374.232 85.3462L375.833 85.3461L375.833 84.7061L374.232 84.7062L374.232 85.3462ZM374.232 85.6696L375.833 85.6696L375.833 85.0296L374.232 85.0296L374.232 85.6696ZM373.912 85.9931L376.153 85.9931L376.153 85.3531L373.912 85.3531L373.912 85.9931ZM373.912 86.3166L376.153 86.3166L376.153 85.6766L373.912 85.6766L373.912 86.3166ZM373.912 86.6401L376.153 86.6401L376.153 86.0001L373.912 86.0001L373.912 86.6401ZM373.912 86.9636L376.153 86.9636L376.153 86.3236L373.912 86.3236L373.912 86.9636ZM373.912 87.2871L376.153 87.2871L376.153 86.6471L373.912 86.6471L373.912 87.2871ZM373.912 87.6106L376.153 87.6106L376.153 86.9706L373.912 86.9706L373.912 87.6106ZM373.912 87.9341L376.153 87.9341L376.153 87.2941L373.912 87.2941L373.912 87.9341ZM373.592 88.2575L376.473 88.2575L376.473 87.6175L373.592 87.6175L373.592 88.2575ZM373.592 88.581L376.473 88.581L376.473 87.941L373.592 87.941L373.592 88.581ZM373.592 88.9045L376.473 88.9045L376.473 88.2645L373.592 88.2645L373.592 88.9045ZM373.592 89.228L376.473 89.228L376.473 88.588L373.592 88.588L373.592 89.228ZM373.592 89.5515L376.473 89.5515L376.473 88.9115L373.592 88.9115L373.592 89.5515ZM373.592 89.875L376.473 89.875L376.473 89.235L373.592 89.235L373.592 89.875ZM373.592 90.1985L376.473 90.1985L376.473 89.5585L373.592 89.5585L373.592 90.1985ZM373.272 90.522L376.793 90.522L376.793 89.882L373.272 89.882L373.272 90.522ZM373.272 90.8454L376.793 90.8454L376.793 90.2054L373.272 90.2054L373.272 90.8454ZM373.272 91.1689L376.793 91.1689L376.793 90.5289L373.272 90.5289L373.272 91.1689ZM373.272 91.4924L376.793 91.4924L376.793 90.8524L373.272 90.8524L373.272 91.4924ZM373.272 91.8159L376.793 91.8159L376.793 91.1759L373.272 91.1759L373.272 91.8159ZM373.272 92.1394L376.793 92.1394L376.793 91.4994L373.272 91.4994L373.272 92.1394ZM373.272 92.4629L376.793 92.4629L376.793 91.8229L373.272 91.8229L373.272 92.4629ZM373.272 92.7864L376.793 92.7864L376.793 92.1464L373.272 92.1464L373.272 92.7864ZM372.952 93.1099L377.113 93.1099L377.113 92.4699L372.952 92.4699L372.952 93.1099ZM372.952 93.4333L377.113 93.4333L377.113 92.7933L372.952 92.7933L372.952 93.4333ZM372.952 93.7568L377.113 93.7568L377.113 93.1168L372.952 93.1168L372.952 93.7568ZM372.952 94.0803L377.113 94.0803L377.113 93.4403L372.952 93.4403L372.952 94.0803ZM372.952 94.4038L377.113 94.4038L377.113 93.7638L372.952 93.7638L372.952 94.4038ZM372.952 94.7273L377.113 94.7273L377.113 94.0873L372.952 94.0873L372.952 94.7273ZM372.952 95.0508L377.113 95.0508L377.113 94.4108L372.952 94.4108L372.952 95.0508ZM372.632 95.3743H377.433V94.7343H372.632V95.3743ZM372.632 186.598H377.433V185.958H372.632V186.598ZM372.952 186.921H377.113V186.281H372.952V186.921ZM372.952 187.245H377.113V186.605H372.952V187.245ZM372.952 187.568H377.113V186.928H372.952V187.568ZM372.952 187.892L377.113 187.892L377.113 187.252L372.952 187.252L372.952 187.892ZM372.952 188.215H377.113V187.575H372.952V188.215ZM372.952 188.539H377.113V187.899H372.952V188.539ZM372.952 188.862H377.113V188.222H372.952V188.862ZM373.272 189.186H376.793V188.546H373.272V189.186ZM373.272 189.509H376.793V188.869H373.272V189.509ZM373.272 189.833L376.793 189.833L376.793 189.193L373.272 189.193L373.272 189.833ZM373.272 190.156L376.793 190.156L376.793 189.516L373.272 189.516L373.272 190.156ZM373.272 190.48H376.793V189.84H373.272V190.48ZM373.272 190.803H376.793V190.163H373.272V190.803ZM373.272 191.127H376.793V190.487H373.272V191.127ZM373.272 191.45H376.793V190.81H373.272V191.45ZM373.592 191.774L376.473 191.774L376.473 191.134L373.592 191.134L373.592 191.774ZM373.592 192.097L376.473 192.097L376.473 191.457L373.592 191.457L373.592 192.097ZM373.592 192.421L376.473 192.421L376.473 191.781L373.592 191.781L373.592 192.421ZM373.592 192.744H376.473V192.104H373.592V192.744ZM373.592 193.068H376.473V192.428H373.592V193.068ZM373.592 193.391H376.473V192.751H373.592V193.391ZM373.592 193.715H376.473V193.075H373.592V193.715ZM373.912 194.038L376.153 194.038L376.153 193.398L373.912 193.398L373.912 194.038ZM373.912 194.361L376.153 194.361L376.153 193.721L373.912 193.721L373.912 194.361ZM373.912 194.685L376.153 194.685L376.153 194.045L373.912 194.045L373.912 194.685ZM373.912 195.008L376.153 195.008L376.153 194.368L373.912 194.368L373.912 195.008ZM373.912 195.332H376.153V194.692H373.912V195.332ZM373.912 195.655H376.153V195.015H373.912V195.655ZM373.912 195.979L376.153 195.979L376.153 195.339L373.912 195.339L373.912 195.979ZM374.232 196.302L375.833 196.302L375.833 195.662L374.232 195.662L374.232 196.302ZM374.232 196.626L375.833 196.626L375.833 195.986L374.232 195.986L374.232 196.626ZM374.232 196.949L375.833 196.949L375.833 196.309L374.232 196.309L374.232 196.949ZM374.232 197.273L375.833 197.273L375.833 196.633L374.232 196.633L374.232 197.273ZM374.232 197.596H375.833V196.956H374.232V197.596ZM374.232 197.92L375.833 197.92L375.833 197.28L374.232 197.28L374.232 197.92ZM374.232 198.243L375.833 198.243L375.833 197.603L374.232 197.603L374.232 198.243ZM374.232 198.567L375.833 198.567L375.833 197.927L374.232 197.927L374.232 198.567ZM374.552 198.89L375.512 198.89L375.512 198.25L374.552 198.25L374.552 198.89ZM374.552 199.214L375.512 199.214L375.512 198.574L374.552 198.574L374.552 199.214ZM374.552 199.537L375.512 199.537L375.512 198.897L374.552 198.897L374.552 199.537ZM374.552 199.861L375.512 199.861L375.512 199.221L374.552 199.221L374.552 199.861ZM374.552 200.184L375.512 200.184L375.512 199.544L374.552 199.544L374.552 200.184ZM374.552 200.508L375.512 200.508L375.512 199.868L374.552 199.868L374.552 200.508ZM374.552 200.831L375.512 200.831L375.512 200.191L374.552 200.191L374.552 200.831Z" fill="white"/>
    </g>
<!--    3 Dh-->
    <g class="group">
    </g>
<!--    4 D1-->
    <g class="group">
    </g>
<!--    5 D2-->
    <g class="group">
    </g>
<!--    6 d-->
    <g class="group">
    </g>
<!--    7 dH-->
    <g class="group">
    </g>
<!--    8 d1-->
    <g class="group">
    </g>
<!--    9 d2-->
    <g class="group">
    </g>
<!--    10 L-->
    <g class="group">
        <path d="M164.15 241.419H173.758L173.017 243.476H160.722L167.592 224.402H170.279L164.15 241.419Z" fill="white"/>
        <path d="M1.32 208.599C1.32 208.422 1.17673 208.279 1 208.279C0.823269 208.279 0.68 208.422 0.68 208.599H1.32ZM0.68 264.238C0.68 264.415 0.823269 264.558 1 264.558C1.17673 264.558 1.32 264.415 1.32 264.238H0.68ZM329.739 208.599C329.739 208.422 329.596 208.279 329.419 208.279C329.242 208.279 329.099 208.422 329.099 208.599H329.739ZM329.099 264.238C329.099 264.415 329.242 264.558 329.419 264.558C329.596 264.558 329.739 264.415 329.739 264.238H329.099ZM164.15 241.419L163.849 241.311C163.814 241.409 163.829 241.518 163.888 241.603C163.948 241.688 164.046 241.739 164.15 241.739V241.419ZM173.758 241.419L174.059 241.528C174.094 241.429 174.079 241.32 174.02 241.235C173.96 241.15 173.862 241.099 173.758 241.099V241.419ZM173.017 243.476V243.796C173.152 243.796 173.272 243.711 173.318 243.584L173.017 243.476ZM160.722 243.476L160.421 243.367C160.386 243.465 160.4 243.575 160.46 243.66C160.52 243.745 160.618 243.796 160.722 243.796V243.476ZM167.592 224.402V224.082C167.457 224.082 167.337 224.167 167.291 224.294L167.592 224.402ZM170.279 224.402L170.581 224.511C170.616 224.413 170.601 224.303 170.541 224.218C170.481 224.133 170.384 224.082 170.279 224.082V224.402ZM1 256.798L0.956557 256.481C0.797078 256.503 0.678655 256.64 0.680011 256.801C0.681367 256.962 0.80208 257.096 0.961904 257.116L1 256.798ZM19.8857 254.21L20.1578 254.378C20.223 254.273 20.2215 254.139 20.154 254.036C20.0864 253.932 19.965 253.876 19.8422 253.893L19.8857 254.21ZM19.8857 259.062L19.8476 259.38C19.9731 259.395 20.0958 259.335 20.1605 259.226C20.2253 259.117 20.22 258.981 20.147 258.878L19.8857 259.062ZM329.419 256.798L329.457 257.116C329.617 257.096 329.738 256.962 329.739 256.801C329.74 256.64 329.622 256.503 329.462 256.481L329.419 256.798ZM310.533 259.062L310.289 258.855C310.204 258.956 310.189 259.098 310.251 259.214C310.314 259.33 310.441 259.396 310.571 259.38L310.533 259.062ZM310.533 254.21L310.577 253.893C310.449 253.875 310.323 253.936 310.258 254.047C310.192 254.158 310.199 254.297 310.276 254.401L310.533 254.21ZM0.68 208.599V264.238H1.32V208.599H0.68ZM329.099 208.599V264.238H329.739V208.599H329.099ZM164.15 241.739H173.758V241.099H164.15V241.739ZM173.457 241.311L172.716 243.367L173.318 243.584L174.059 241.528L173.457 241.311ZM173.017 243.156H160.722V243.796H173.017V243.156ZM161.023 243.584L167.893 224.511L167.291 224.294L160.421 243.367L161.023 243.584ZM167.592 224.722H170.279V224.082H167.592V224.722ZM169.978 224.294L163.849 241.311L164.451 241.528L170.581 224.511L169.978 224.294ZM1.04344 257.115L19.9291 254.527L19.8422 253.893L0.956557 256.481L1.04344 257.115ZM19.6135 254.042L18.013 256.63L18.5573 256.966L20.1578 254.378L19.6135 254.042ZM18.0238 256.983L19.6243 259.247L20.147 258.878L18.5465 256.613L18.0238 256.983ZM19.9237 258.745L1.0381 256.48L0.961904 257.116L19.8476 259.38L19.9237 258.745ZM17.6448 254.854H19.8855V254.214H17.6448V254.854ZM15.4041 255.177H19.5654V254.537H15.4041V255.177ZM12.8433 255.501H19.5654V254.861H12.8433V255.501ZM10.6027 255.824H19.2453V255.184H10.6027V255.824ZM8.36199 256.148H18.9252V255.508H8.36199V256.148ZM5.80122 256.471H18.9252V255.831H5.80122V256.471ZM3.56055 256.795H18.6051V256.155H3.56055V256.795ZM1 257.118H18.2852V256.478H1V257.118ZM3.88087 257.441H18.6053V256.801H3.88087V257.441ZM6.44164 257.765H18.9254V257.125H6.44164V257.765ZM9.3225 258.088H19.2455V257.448H9.3225V258.088ZM11.8833 258.412H19.2455V257.772H11.8833V258.412ZM14.7641 258.735H19.5656V258.095H14.7641V258.735ZM17.3249 259.059H19.8857V258.419H17.3249V259.059ZM329.381 256.48L310.495 258.745L310.571 259.38L329.457 257.116L329.381 256.48ZM310.777 259.269L312.698 257.005L312.21 256.591L310.289 258.855L310.777 259.269ZM312.711 256.607L310.79 254.019L310.276 254.401L312.197 256.989L312.711 256.607ZM310.49 254.527L329.375 257.115L329.462 256.481L310.577 253.893L310.49 254.527ZM312.454 257.118H329.419V256.478H312.454V257.118ZM312.454 257.441H326.858V256.801H312.454V257.441ZM312.134 257.765H324.298V257.125H312.134V257.765ZM311.814 258.088H321.417V257.448H311.814V258.088ZM311.494 258.412H318.856V257.772H311.494V258.412ZM311.174 258.735H315.975V258.095H311.174V258.735ZM310.854 259.059H313.414V258.419H310.854V259.059ZM310.854 254.854H313.094V254.214H310.854V254.854ZM311.174 255.177H315.335V254.537H311.174V255.177ZM311.494 255.501H317.896V254.861H311.494V255.501ZM311.494 255.824H320.136V255.184H311.494V255.824ZM311.814 256.148H322.377V255.508H311.814V256.148ZM312.134 256.471H324.938V255.831H312.134V256.471ZM312.454 256.795H327.178V256.155H312.454V256.795ZM1 257.118H329.419V256.478H1V257.118Z" fill="white"/>
    </g>
<!--    11 L1-->
    <g class="group">
    </g>
<!--    12 L2-->
    <g class="group">
    </g>
<!--    13 S-->
    <g class="group">
        <path d="M205.013 113.505C204.36 113.264 203.855 113.343 203.497 113.741C203.131 114.126 202.818 114.925 202.556 116.138C202.295 117.341 201.982 118.261 201.616 118.896C201.25 119.523 200.814 119.929 200.309 120.114C199.804 120.291 199.202 120.25 198.505 119.994C197.347 119.568 196.367 118.688 195.565 117.353C194.764 116.009 194.363 114.525 194.363 112.901C194.363 111.193 194.777 109.962 195.604 109.208C196.432 108.445 197.491 108.301 198.78 108.775V111.365C198.118 111.121 197.547 111.213 197.068 111.64C196.589 112.058 196.349 112.722 196.349 113.631C196.349 114.569 196.541 115.373 196.924 116.043C197.308 116.713 197.809 117.162 198.427 117.389C199.011 117.604 199.451 117.52 199.747 117.137C200.043 116.754 200.326 115.972 200.596 114.79C200.866 113.599 201.189 112.673 201.563 112.013C201.938 111.352 202.391 110.929 202.922 110.744C203.445 110.547 204.085 110.587 204.843 110.866C206.107 111.331 207.122 112.243 207.888 113.601C208.646 114.957 209.025 116.493 209.025 118.211C209.025 119.417 208.825 120.411 208.424 121.192C208.023 121.973 207.466 122.496 206.751 122.763C206.028 123.017 205.248 122.99 204.412 122.682V120.106C205.222 120.358 205.867 120.251 206.346 119.787C206.817 119.311 207.052 118.543 207.052 117.485C207.052 116.51 206.869 115.663 206.503 114.944C206.128 114.212 205.632 113.732 205.013 113.505Z" fill="white"/>
        <path d="M181.214 75.325C181.037 75.325 180.894 75.4683 180.894 75.645C180.894 75.8218 181.037 75.965 181.214 75.965V75.325ZM229.228 75.965C229.405 75.965 229.548 75.8218 229.548 75.645C229.548 75.4683 229.405 75.325 229.228 75.325V75.965ZM181.214 82.118C181.037 82.118 180.894 82.2613 180.894 82.438C180.894 82.6147 181.037 82.758 181.214 82.758V82.118ZM229.228 82.758C229.405 82.758 229.548 82.6147 229.548 82.438C229.548 82.2613 229.405 82.118 229.228 82.118V82.758ZM221.227 134.52C221.227 134.696 221.37 134.84 221.547 134.84C221.724 134.84 221.867 134.696 221.867 134.52H221.227ZM205.013 113.505L205.124 113.204L205.013 113.505ZM203.497 113.741L203.729 113.961L203.735 113.954L203.497 113.741ZM202.556 116.138L202.869 116.205L202.869 116.205L202.556 116.138ZM201.616 118.896L201.892 119.058L201.893 119.056L201.616 118.896ZM200.309 120.114L200.414 120.417L200.419 120.415L200.309 120.114ZM198.505 119.994L198.616 119.694L198.616 119.694L198.505 119.994ZM195.565 117.353L195.29 117.517L195.291 117.518L195.565 117.353ZM195.604 109.208L195.82 109.445L195.821 109.443L195.604 109.208ZM198.78 108.775H199.1C199.1 108.641 199.016 108.521 198.89 108.475L198.78 108.775ZM198.78 111.365L198.669 111.665C198.768 111.701 198.877 111.687 198.963 111.627C199.049 111.567 199.1 111.469 199.1 111.365H198.78ZM197.068 111.64L197.278 111.881L197.281 111.879L197.068 111.64ZM198.427 117.389L198.538 117.089L198.427 117.389ZM200.596 114.79L200.908 114.861L200.908 114.861L200.596 114.79ZM202.922 110.744L203.028 111.047L203.036 111.044L202.922 110.744ZM207.888 113.601L208.167 113.445L208.167 113.444L207.888 113.601ZM206.751 122.763L206.857 123.065L206.863 123.063L206.751 122.763ZM204.412 122.682H204.092C204.092 122.816 204.176 122.936 204.302 122.982L204.412 122.682ZM204.412 120.106L204.507 119.801C204.41 119.77 204.304 119.788 204.222 119.849C204.14 119.909 204.092 120.004 204.092 120.106H204.412ZM206.346 119.787L206.569 120.017L206.574 120.012L206.346 119.787ZM206.503 114.944L206.788 114.799L206.788 114.798L206.503 114.944ZM224.108 56.2358L224.425 56.2777C224.442 56.1497 224.38 56.0241 224.268 55.9592C224.157 55.8943 224.017 55.9028 223.914 55.9808L224.108 56.2358ZM221.547 58.1768L221.547 58.4968L221.547 58.4968L221.547 58.1768ZM218.985 56.2358L219.179 55.9808C219.076 55.9028 218.936 55.8943 218.824 55.9592C218.713 56.0241 218.651 56.1497 218.668 56.2777L218.985 56.2358ZM221.867 48.7954C221.867 48.6187 221.724 48.4754 221.547 48.4754C221.37 48.4754 221.227 48.6187 221.227 48.7954H221.867ZM218.985 101.524L218.668 101.481C218.651 101.609 218.713 101.735 218.824 101.8C218.936 101.865 219.076 101.857 219.179 101.779L218.985 101.524ZM224.108 101.524L223.914 101.779C224.017 101.857 224.157 101.865 224.269 101.8C224.38 101.735 224.442 101.609 224.425 101.481L224.108 101.524ZM221.227 109.287C221.227 109.464 221.37 109.607 221.547 109.607C221.724 109.607 221.867 109.464 221.867 109.287H221.227ZM181.214 75.965H229.228V75.325H181.214V75.965ZM181.214 82.758H229.228V82.118H181.214V82.758ZM205.124 113.204C204.764 113.072 204.417 113.017 204.095 113.067C203.766 113.118 203.485 113.276 203.259 113.527L203.735 113.954C203.867 113.808 204.017 113.727 204.193 113.7C204.376 113.671 204.609 113.697 204.903 113.805L205.124 113.204ZM203.265 113.52C203.042 113.756 202.854 114.095 202.69 114.512C202.525 114.933 202.377 115.454 202.244 116.07L202.869 116.205C202.998 115.609 203.137 115.124 203.286 114.746C203.435 114.364 203.587 114.111 203.729 113.961L203.265 113.52ZM202.244 116.07C201.985 117.26 201.68 118.142 201.338 118.737L201.893 119.056C202.283 118.379 202.605 117.422 202.869 116.205L202.244 116.07ZM201.339 118.735C200.998 119.32 200.613 119.662 200.199 119.814L200.419 120.415C201.015 120.196 201.502 119.726 201.892 119.058L201.339 118.735ZM200.203 119.812C199.791 119.956 199.27 119.934 198.616 119.694L198.395 120.294C199.135 120.567 199.816 120.625 200.414 120.417L200.203 119.812ZM198.616 119.694C197.542 119.299 196.613 118.477 195.84 117.188L195.291 117.518C196.12 118.898 197.152 119.837 198.395 120.294L198.616 119.694ZM195.84 117.189C195.069 115.897 194.683 114.47 194.683 112.901H194.043C194.043 114.581 194.458 116.122 195.29 117.517L195.84 117.189ZM194.683 112.901C194.683 111.236 195.087 110.112 195.82 109.445L195.389 108.971C194.466 109.812 194.043 111.15 194.043 112.901H194.683ZM195.821 109.443C196.54 108.781 197.463 108.631 198.669 109.075L198.89 108.475C197.518 107.97 196.325 108.109 195.388 108.973L195.821 109.443ZM198.46 108.775V111.365H199.1V108.775H198.46ZM198.89 111.064C198.519 110.928 198.155 110.879 197.805 110.935C197.452 110.992 197.135 111.152 196.855 111.401L197.281 111.879C197.48 111.701 197.688 111.602 197.906 111.567C198.127 111.531 198.379 111.558 198.669 111.665L198.89 111.064ZM196.858 111.399C196.283 111.9 196.029 112.67 196.029 113.631H196.669C196.669 112.773 196.895 112.216 197.278 111.881L196.858 111.399ZM196.029 113.631C196.029 114.613 196.23 115.474 196.647 116.202L197.202 115.884C196.852 115.272 196.669 114.525 196.669 113.631H196.029ZM196.647 116.202C197.06 116.925 197.616 117.432 198.317 117.69L198.538 117.089C198.001 116.892 197.555 116.501 197.202 115.884L196.647 116.202ZM198.317 117.69C198.643 117.81 198.96 117.858 199.255 117.802C199.558 117.744 199.808 117.58 200 117.333L199.494 116.941C199.389 117.076 199.272 117.147 199.135 117.173C198.99 117.201 198.795 117.184 198.538 117.089L198.317 117.69ZM200 117.333C200.178 117.103 200.336 116.775 200.482 116.372C200.63 115.964 200.772 115.46 200.908 114.861L200.284 114.719C200.151 115.302 200.016 115.779 199.881 116.154C199.743 116.533 199.612 116.788 199.494 116.941L200 117.333ZM200.908 114.861C201.175 113.684 201.489 112.792 201.842 112.171L201.285 111.855C200.888 112.554 200.558 113.514 200.284 114.719L200.908 114.861ZM201.842 112.171C202.192 111.554 202.592 111.198 203.028 111.047L202.817 110.442C202.19 110.661 201.684 111.151 201.285 111.855L201.842 112.171ZM203.036 111.044C203.46 110.883 204.016 110.903 204.733 111.166L204.954 110.566C204.155 110.272 203.43 110.21 202.809 110.445L203.036 111.044ZM204.733 111.166C205.914 111.601 206.874 112.455 207.609 113.759L208.167 113.444C207.369 112.03 206.299 111.061 204.954 110.566L204.733 111.166ZM207.609 113.758C208.337 115.061 208.705 116.542 208.705 118.211H209.345C209.345 116.445 208.955 114.853 208.167 113.445L207.609 113.758ZM208.705 118.211C208.705 119.385 208.51 120.324 208.139 121.046L208.709 121.338C209.14 120.498 209.345 119.45 209.345 118.211H208.705ZM208.139 121.046C207.769 121.767 207.268 122.229 206.639 122.463L206.863 123.063C207.663 122.764 208.277 122.179 208.709 121.338L208.139 121.046ZM206.645 122.461C206.003 122.686 205.301 122.668 204.523 122.382L204.302 122.982C205.196 123.311 206.053 123.347 206.857 123.065L206.645 122.461ZM204.732 122.682V120.106H204.092V122.682H204.732ZM204.317 120.412C205.204 120.687 205.982 120.586 206.569 120.017L206.123 119.557C205.752 119.917 205.241 120.029 204.507 119.801L204.317 120.412ZM206.574 120.012C207.13 119.449 207.372 118.58 207.372 117.485H206.732C206.732 118.506 206.503 119.172 206.118 119.562L206.574 120.012ZM207.372 117.485C207.372 116.47 207.181 115.571 206.788 114.799L206.218 115.089C206.557 115.755 206.732 116.55 206.732 117.485H207.372ZM206.788 114.798C206.386 114.013 205.835 113.466 205.124 113.204L204.903 113.805C205.428 113.998 205.871 114.411 206.218 115.09L206.788 114.798ZM221.864 75.687L224.425 56.2777L223.79 56.194L221.23 75.6032L221.864 75.687ZM223.914 55.9808L221.354 57.9218L221.74 58.4318L224.301 56.4909L223.914 55.9808ZM221.74 57.9217L219.179 55.9808L218.792 56.4909L221.354 58.4318L221.74 57.9217ZM218.668 56.2777L221.23 75.687L221.864 75.6032L219.303 56.194L218.668 56.2777ZM221.867 75.6451V48.7954H221.227V75.6451H221.867ZM223.788 56.8791H224.108V56.2391H223.788V56.8791ZM223.467 57.2026H224.108V56.5626H223.467V57.2026ZM222.827 57.5261H224.108V56.8861H222.827V57.5261ZM222.507 57.8495H224.108V57.2095H222.507V57.8495ZM222.187 58.173H224.108V57.533H222.187V58.173ZM221.547 58.4968L224.108 58.4965L224.108 57.8565L221.547 57.8568L221.547 58.4968ZM221.547 73.7004H221.867V73.0604H221.547V73.7004ZM221.547 74.0239H221.867V73.3839H221.547V74.0239ZM221.547 74.3474H221.867V73.7074H221.547V74.3474ZM221.547 74.6709H221.867V74.0309H221.547V74.6709ZM221.547 74.9944H221.867V74.3544H221.547V74.9944ZM221.547 75.3179H221.867V74.6779H221.547V75.3179ZM221.547 75.6414H221.867V75.0014H221.547V75.6414ZM219.306 56.8791H219.626V56.2391H219.306V56.8791ZM219.306 57.2026H219.946V56.5626H219.306V57.2026ZM219.306 57.5261H220.266V56.8861H219.306V57.5261ZM219.306 57.8495H220.906V57.2095H219.306V57.8495ZM219.306 58.173H221.226V57.533H219.306V58.173ZM219.306 58.4965L221.547 58.4968L221.547 57.8568L219.306 57.8565L219.306 58.4965ZM221.23 82.3954L218.668 101.481L219.303 101.566L221.864 82.4806L221.23 82.3954ZM219.179 101.779L221.739 99.838L221.353 99.328L218.792 101.269L219.179 101.779ZM221.353 99.8381L223.914 101.779L224.301 101.269L221.739 99.328L221.353 99.8381ZM224.425 101.481L221.864 82.3954L221.23 82.4805L223.79 101.566L224.425 101.481ZM221.227 82.438V109.287H221.867V82.438H221.227ZM219.306 99.9028L221.546 99.903L221.546 99.263L219.306 99.2628L219.306 99.9028ZM219.306 100.226H221.226V99.5863H219.306V100.226ZM219.306 100.55H220.906V99.9098H219.306V100.55ZM219.306 100.873H220.266V100.233H219.306V100.873ZM219.306 101.197H219.946V100.557H219.306V101.197ZM219.306 101.52H219.626V100.88H219.306V101.52ZM221.547 83.0817H221.867V82.4417H221.547V83.0817ZM221.547 83.4052H221.867V82.7652H221.547V83.4052ZM221.547 83.7287H221.867V83.0887H221.547V83.7287ZM221.547 84.0522H221.867V83.4122H221.547V84.0522ZM221.547 84.3757H221.867V83.7357H221.547V84.3757ZM221.547 84.6992H221.867V84.0592H221.547V84.6992ZM221.547 85.0226H221.867V84.3826H221.547V85.0226ZM221.546 99.903L224.108 99.9031L224.108 99.2631L221.546 99.263L221.546 99.903ZM222.187 100.227H224.108V99.5866H222.187V100.227ZM222.507 100.55H224.108V99.91H222.507V100.55ZM222.827 100.874H224.108V100.234H222.827V100.874ZM223.467 101.197H224.108V100.557H223.467V101.197ZM223.788 101.521H224.108V100.881H223.788V101.521ZM221.227 75.6451V82.438H221.867V75.6451H221.227ZM219.306 58.82L224.108 58.82L224.108 58.18L219.306 58.18L219.306 58.82ZM219.626 59.1435L223.788 59.1435L223.788 58.5035L219.626 58.5035L219.626 59.1435ZM219.626 59.467L223.788 59.467L223.788 58.827L219.626 58.827L219.626 59.467ZM219.626 59.7905L223.788 59.7905L223.788 59.1505L219.626 59.1505L219.626 59.7905ZM219.626 60.114L223.788 60.114L223.788 59.474L219.626 59.474L219.626 60.114ZM219.626 60.4374L223.788 60.4374L223.788 59.7974L219.626 59.7974L219.626 60.4374ZM219.626 60.7609L223.788 60.7609L223.788 60.1209L219.626 60.1209L219.626 60.7609ZM219.626 61.0844L223.788 61.0844L223.788 60.4444L219.626 60.4444L219.626 61.0844ZM219.626 61.4079L223.467 61.4079L223.467 60.7679L219.626 60.7679L219.626 61.4079ZM219.946 61.7314L223.467 61.7314L223.467 61.0914L219.946 61.0914L219.946 61.7314ZM219.946 62.0549L223.467 62.0549L223.467 61.4149L219.946 61.4149L219.946 62.0549ZM219.946 62.3784L223.467 62.3784L223.467 61.7384L219.946 61.7384L219.946 62.3784ZM219.946 62.7019L223.467 62.7019L223.467 62.0619L219.946 62.0619L219.946 62.7019ZM219.946 63.0254L223.467 63.0253L223.467 62.3853L219.946 62.3854L219.946 63.0254ZM219.946 63.3488L223.467 63.3488L223.467 62.7088L219.946 62.7088L219.946 63.3488ZM219.946 63.6723L223.467 63.6723L223.467 63.0323L219.946 63.0323L219.946 63.6723ZM220.266 63.9958L223.147 63.9958L223.147 63.3558L220.266 63.3558L220.266 63.9958ZM220.266 64.3193L223.147 64.3193L223.147 63.6793L220.266 63.6793L220.266 64.3193ZM220.266 64.6428L223.147 64.6428L223.147 64.0028L220.266 64.0028L220.266 64.6428ZM220.266 64.9663L223.147 64.9663L223.147 64.3263L220.266 64.3263L220.266 64.9663ZM220.266 65.2898L223.147 65.2898L223.147 64.6498L220.266 64.6498L220.266 65.2898ZM220.266 65.6133L223.147 65.6132L223.147 64.9732L220.266 64.9733L220.266 65.6133ZM220.266 65.9367L223.147 65.9367L223.147 65.2967L220.266 65.2967L220.266 65.9367ZM220.266 66.2602L222.827 66.2602L222.827 65.6202L220.266 65.6202L220.266 66.2602ZM220.586 66.5837L222.827 66.5837L222.827 65.9437L220.586 65.9437L220.586 66.5837ZM220.586 66.9072L222.827 66.9072L222.827 66.2672L220.586 66.2672L220.586 66.9072ZM220.586 67.2307L222.827 67.2307L222.827 66.5907L220.586 66.5907L220.586 67.2307ZM220.586 67.5542L222.827 67.5542L222.827 66.9142L220.586 66.9142L220.586 67.5542ZM220.586 67.8777L222.827 67.8777L222.827 67.2377L220.586 67.2377L220.586 67.8777ZM220.586 68.2012L222.827 68.2011L222.827 67.5611L220.586 67.5612L220.586 68.2012ZM220.586 68.5246L222.827 68.5246L222.827 67.8846L220.586 67.8846L220.586 68.5246ZM220.906 68.8481L222.507 68.8481L222.507 68.2081L220.906 68.2081L220.906 68.8481ZM220.906 69.1716L222.507 69.1716L222.507 68.5316L220.906 68.5316L220.906 69.1716ZM220.906 69.4951L222.507 69.4951L222.507 68.8551L220.906 68.8551L220.906 69.4951ZM220.906 69.8186L222.507 69.8186L222.507 69.1786L220.906 69.1786L220.906 69.8186ZM220.906 70.1421L222.507 70.1421L222.507 69.5021L220.906 69.5021L220.906 70.1421ZM220.906 70.4656L222.507 70.4656L222.507 69.8256L220.906 69.8256L220.906 70.4656ZM220.906 70.7891L222.507 70.7891L222.507 70.1491L220.906 70.1491L220.906 70.7891ZM220.906 71.1125L222.187 71.1125L222.187 70.4725L220.906 70.4725L220.906 71.1125ZM221.226 71.436L222.187 71.436L222.187 70.796L221.226 70.796L221.226 71.436ZM221.226 71.7595L222.187 71.7595L222.187 71.1195L221.226 71.1195L221.226 71.7595ZM221.226 72.083L222.187 72.083L222.187 71.443L221.226 71.443L221.226 72.083ZM221.226 72.4065L222.187 72.4065L222.187 71.7665L221.226 71.7665L221.226 72.4065ZM221.226 72.73L222.187 72.73L222.187 72.09L221.226 72.09L221.226 72.73ZM221.226 73.0535L222.187 73.0535L222.187 72.4135L221.226 72.4135L221.226 73.0535ZM221.226 73.377L222.187 73.377L222.187 72.737L221.226 72.737L221.226 73.377ZM221.226 85.3459L222.187 85.3461L222.187 84.7061L221.226 84.7059L221.226 85.3459ZM221.226 85.6694L222.187 85.6696L222.187 85.0296L221.226 85.0294L221.226 85.6694ZM221.226 85.9929L222.187 85.9931L222.187 85.3531L221.226 85.3529L221.226 85.9929ZM221.226 86.3163L222.187 86.3166L222.187 85.6766L221.226 85.6763L221.226 86.3163ZM221.226 86.6398L222.187 86.6401L222.187 86.0001L221.226 85.9998L221.226 86.6398ZM221.226 86.9633L222.187 86.9636L222.187 86.3236L221.226 86.3233L221.226 86.9633ZM221.226 87.2868L222.187 87.2871L222.187 86.6471L221.226 86.6468L221.226 87.2868ZM220.906 87.6103L222.507 87.6105L222.507 86.9705L220.906 86.9703L220.906 87.6103ZM220.906 87.9338L222.507 87.934L222.507 87.294L220.906 87.2938L220.906 87.9338ZM220.906 88.2573L222.507 88.2575L222.507 87.6175L220.906 87.6173L220.906 88.2573ZM220.906 88.5808L222.507 88.581L222.507 87.941L220.906 87.9408L220.906 88.5808ZM220.906 88.9042L222.507 88.9045L222.507 88.2645L220.906 88.2642L220.906 88.9042ZM220.906 89.2277L222.507 89.228L222.507 88.588L220.906 88.5877L220.906 89.2277ZM220.906 89.5512L222.507 89.5515L222.507 88.9115L220.906 88.9112L220.906 89.5512ZM220.906 89.8747L222.507 89.875L222.507 89.235L220.906 89.2347L220.906 89.8747ZM220.586 90.1982L222.827 90.1984L222.827 89.5584L220.586 89.5582L220.586 90.1982ZM220.586 90.5217L222.827 90.5219L222.827 89.8819L220.586 89.8817L220.586 90.5217ZM220.586 90.8452L222.827 90.8454L222.827 90.2054L220.586 90.2052L220.586 90.8452ZM220.586 91.1687L222.827 91.1689L222.827 90.5289L220.586 90.5287L220.586 91.1687ZM220.586 91.4921L222.827 91.4924L222.827 90.8524L220.586 90.8521L220.586 91.4921ZM220.586 91.8156L222.827 91.8159L222.827 91.1759L220.586 91.1756L220.586 91.8156ZM220.586 92.1391L222.827 92.1394L222.827 91.4994L220.586 91.4991L220.586 92.1391ZM220.266 92.4626L223.147 92.4629L223.147 91.8229L220.266 91.8226L220.266 92.4626ZM220.266 92.7861L223.147 92.7863L223.147 92.1463L220.266 92.1461L220.266 92.7861ZM220.266 93.1096L223.147 93.1098L223.147 92.4698L220.266 92.4696L220.266 93.1096ZM220.266 93.4331L223.147 93.4333L223.147 92.7933L220.266 92.7931L220.266 93.4331ZM220.266 93.7566L223.147 93.7568L223.147 93.1168L220.266 93.1166L220.266 93.7566ZM220.266 94.08L223.147 94.0803L223.147 93.4403L220.266 93.44L220.266 94.08ZM220.266 94.4035L223.147 94.4038L223.147 93.7638L220.266 93.7635L220.266 94.4035ZM219.946 94.727L223.467 94.7273L223.467 94.0873L219.946 94.087L219.946 94.727ZM219.946 95.0505L223.467 95.0508L223.467 94.4108L219.946 94.4105L219.946 95.0505ZM219.946 95.374L223.467 95.3742L223.467 94.7342L219.946 94.734L219.946 95.374ZM219.946 95.6975L223.467 95.6977L223.467 95.0577L219.946 95.0575L219.946 95.6975ZM219.946 96.021L223.467 96.0212L223.467 95.3812L219.946 95.381L219.946 96.021ZM219.946 96.3445L223.467 96.3447L223.467 95.7047L219.946 95.7045L219.946 96.3445ZM219.946 96.6679L223.467 96.6682L223.467 96.0282L219.946 96.0279L219.946 96.6679ZM219.946 96.9914L223.467 96.9917L223.467 96.3517L219.946 96.3514L219.946 96.9914ZM219.626 97.3149L223.787 97.3152L223.788 96.6752L219.626 96.6749L219.626 97.3149ZM219.626 97.6384L223.787 97.6387L223.788 96.9987L219.626 96.9984L219.626 97.6384ZM219.626 97.9619L223.787 97.9621L223.788 97.3221L219.626 97.3219L219.626 97.9619ZM219.626 98.2854L223.787 98.2856L223.788 97.6456L219.626 97.6454L219.626 98.2854ZM219.626 98.6089L223.787 98.6091L223.788 97.9691L219.626 97.9689L219.626 98.6089ZM219.626 98.9324L223.787 98.9326L223.788 98.2926L219.626 98.2924L219.626 98.9324ZM219.626 99.2558L223.787 99.2561L223.788 98.6161L219.626 98.6158L219.626 99.2558ZM219.306 99.5793L224.108 99.5796L224.108 98.9396L219.306 98.9393L219.306 99.5793ZM221.227 82.438V134.52H221.867V82.438H221.227Z" fill="white"/>
    </g>
<!--    14 S1-->
    <g class="group">
    </g>
<!--    15 S2-->
    <g class="group">
    </g>
<!--    16 S3-->
    <g class="group">
    </g>
<!--    17 S4-->
    <g class="group">
    </g>
    <!--    19 I-->
    <g class="group">
    </g>
<!--    18 I1-->
    <g class="group">
        <path d="M288.48 21.1222H285.904L293.151 1.00049H295.727L288.48 21.1222Z" fill="white"/>
        <path d="M295.455 28.753H293.743L297.589 18.076L293.728 19.2623L294.252 17.8075L299.751 16.0843H300.018L295.455 28.753Z" fill="white"/>
        <path d="M328.458 71.4398C328.458 71.6166 328.601 71.7598 328.778 71.7598C328.955 71.7598 329.098 71.6166 329.098 71.4398H328.458ZM329.098 31.3274C329.098 31.1506 328.955 31.0074 328.778 31.0074C328.601 31.0074 328.458 31.1506 328.458 31.3274H329.098ZM254.516 71.4398C254.516 71.6166 254.659 71.7598 254.836 71.7598C255.013 71.7598 255.156 71.6166 255.156 71.4398H254.516ZM255.156 31.3274C255.156 31.1506 255.013 31.0074 254.836 31.0074C254.659 31.0074 254.516 31.1506 254.516 31.3274H255.156ZM288.48 21.1222V21.4422C288.615 21.4422 288.735 21.3575 288.781 21.2306L288.48 21.1222ZM285.904 21.1222L285.603 21.0137C285.567 21.1118 285.582 21.2209 285.642 21.3062C285.702 21.3914 285.8 21.4422 285.904 21.4422V21.1222ZM293.151 1.00049V0.680488C293.016 0.680488 292.896 0.765112 292.85 0.892049L293.151 1.00049ZM295.727 1.00049L296.028 1.10893C296.064 1.01088 296.049 0.901773 295.989 0.816505C295.929 0.731237 295.831 0.680488 295.727 0.680488V1.00049ZM295.455 28.753V29.073C295.59 29.073 295.71 28.9883 295.756 28.8614L295.455 28.753ZM293.743 28.753L293.442 28.6445C293.407 28.7426 293.421 28.8517 293.481 28.9369C293.541 29.0222 293.639 29.073 293.743 29.073V28.753ZM297.589 18.076L297.89 18.1844C297.931 18.0703 297.904 17.9429 297.82 17.8551C297.737 17.7674 297.611 17.7345 297.495 17.7701L297.589 18.076ZM293.728 19.2623L293.427 19.1539C293.386 19.2679 293.413 19.3954 293.497 19.4831C293.581 19.5709 293.707 19.6038 293.822 19.5682L293.728 19.2623ZM294.252 17.8075L294.157 17.5022C294.061 17.5321 293.985 17.6049 293.951 17.6991L294.252 17.8075ZM299.751 16.0843V15.7643C299.719 15.7643 299.686 15.7692 299.655 15.7789L299.751 16.0843ZM300.018 16.0843L300.319 16.1927C300.354 16.0947 300.34 15.9856 300.28 15.9003C300.22 15.8151 300.122 15.7643 300.018 15.7643V16.0843ZM328.778 39.091L328.816 39.4088C328.976 39.3896 329.097 39.2547 329.098 39.0937C329.099 38.9328 328.981 38.7959 328.822 38.774L328.778 39.091ZM309.892 41.3555L309.648 41.1485C309.563 41.2488 309.548 41.3911 309.611 41.507C309.673 41.6229 309.8 41.6889 309.931 41.6732L309.892 41.3555ZM309.892 36.5032L309.936 36.1861C309.808 36.1686 309.683 36.2294 309.617 36.3402C309.551 36.4511 309.559 36.5905 309.635 36.6939L309.892 36.5032ZM254.836 39.0911L254.792 38.774C254.633 38.7959 254.515 38.9328 254.516 39.0938C254.517 39.2547 254.638 39.3896 254.798 39.4088L254.836 39.0911ZM273.722 36.5032L273.994 36.6715C274.059 36.5661 274.057 36.4326 273.99 36.3287C273.922 36.2249 273.801 36.1693 273.678 36.1861L273.722 36.5032ZM273.722 41.3555L273.683 41.6732C273.809 41.6882 273.932 41.6279 273.996 41.5193C274.061 41.4106 274.056 41.274 273.983 41.1708L273.722 41.3555ZM329.098 71.4398V31.3274H328.458V71.4398H329.098ZM255.156 71.4398V31.3274H254.516V71.4398H255.156ZM288.48 20.8022H285.904V21.4422H288.48V20.8022ZM286.205 21.2306L293.452 1.10893L292.85 0.892049L285.603 21.0137L286.205 21.2306ZM293.151 1.32049H295.727V0.680488H293.151V1.32049ZM295.426 0.892049L288.179 21.0137L288.781 21.2306L296.028 1.10893L295.426 0.892049ZM295.455 28.433H293.743V29.073H295.455V28.433ZM294.044 28.8614L297.89 18.1844L297.288 17.9675L293.442 28.6445L294.044 28.8614ZM297.495 17.7701L293.634 18.9564L293.822 19.5682L297.683 18.3818L297.495 17.7701ZM294.03 19.3707L294.554 17.916L293.951 17.6991L293.427 19.1539L294.03 19.3707ZM294.348 18.1129L299.847 16.3897L299.655 15.7789L294.157 17.5022L294.348 18.1129ZM299.751 16.4043H300.018V15.7643H299.751V16.4043ZM299.717 15.9759L295.154 28.6445L295.756 28.8614L300.319 16.1927L299.717 15.9759ZM328.74 38.7733L309.854 41.0377L309.931 41.6732L328.816 39.4088L328.74 38.7733ZM310.136 41.5625L312.057 39.298L311.569 38.8841L309.648 41.1485L310.136 41.5625ZM312.07 38.9003L310.149 36.3125L309.635 36.6939L311.556 39.2818L312.07 38.9003ZM309.849 36.8202L328.735 39.4081L328.822 38.774L309.936 36.1861L309.849 36.8202ZM311.813 39.411H328.778V38.771H311.813V39.411ZM311.813 39.7345H326.217V39.0945H311.813V39.7345ZM311.493 40.058H323.657V39.418H311.493V40.058ZM311.173 40.3815H320.776V39.7415H311.173V40.3815ZM310.853 40.705H318.215V40.065H310.853V40.705ZM310.533 41.0285H315.334V40.3885H310.533V41.0285ZM310.213 41.352H312.773V40.712H310.213V41.352ZM310.213 37.1467H312.453V36.5067H310.213V37.1467ZM310.533 37.4701H314.694V36.8301H310.533V37.4701ZM310.853 37.7936H317.255V37.1536H310.853V37.7936ZM310.853 38.1171H319.495V37.4771H310.853V38.1171ZM311.173 38.4406H321.736V37.8006H311.173V38.4406ZM311.493 38.7641H324.297V38.1241H311.493V38.7641ZM311.813 39.0876H326.537V38.4476H311.813V39.0876ZM254.879 39.4081L273.765 36.8202L273.678 36.1861L254.792 38.774L254.879 39.4081ZM273.449 36.3349L271.849 38.9227L272.393 39.2594L273.994 36.6715L273.449 36.3349ZM271.86 39.2758L273.46 41.5402L273.983 41.1708L272.382 38.9064L271.86 39.2758ZM273.76 41.0377L254.874 38.7733L254.798 39.4088L273.683 41.6732L273.76 41.0377ZM271.481 37.1467H273.722V36.5067H271.481V37.1467ZM269.24 37.4701H273.401V36.8301H269.24V37.4701ZM266.679 37.7936H273.401V37.1536H266.679V37.7936ZM264.439 38.1171H273.081V37.4771H264.439V38.1171ZM262.198 38.4406H272.761V37.8006H262.198V38.4406ZM259.637 38.7641H272.761V38.1241H259.637V38.7641ZM257.397 39.0876H272.441V38.4476H257.397V39.0876ZM254.836 39.4111H272.121V38.7711H254.836V39.4111ZM257.717 39.7345H272.441V39.0945H257.717V39.7345ZM260.278 40.058H272.761V39.418H260.278V40.058ZM263.158 40.3815H273.081V39.7415H263.158V40.3815ZM265.719 40.705H273.081V40.065H265.719V40.705ZM268.6 41.0285H273.401V40.3885H268.6V41.0285ZM271.161 41.352H273.722V40.712H271.161V41.352ZM328.778 38.771L254.836 38.7711L254.836 39.4111L328.778 39.411L328.778 38.771Z" fill="white"/>
        <path d="M35.4657 21.1217H32.8898L40.1373 1H42.7132L35.4657 21.1217Z" fill="white"/>
        <path d="M42.441 28.7528H40.7291L44.5748 18.0758L40.7144 19.2622L41.2384 17.8074L46.7371 16.0842H47.0041L42.441 28.7528Z" fill="white"/>
        <path d="M35.4657 21.1217V21.4417C35.6006 21.4417 35.721 21.3571 35.7668 21.2301L35.4657 21.1217ZM32.8898 21.1217L32.5887 21.0132C32.5534 21.1113 32.568 21.2204 32.6279 21.3057C32.6879 21.3909 32.7855 21.4417 32.8898 21.4417V21.1217ZM40.1373 1V0.68C40.0023 0.68 39.8819 0.764624 39.8362 0.891561L40.1373 1ZM42.7132 1L43.0143 1.10844C43.0496 1.01039 43.0349 0.901285 42.975 0.816017C42.9151 0.730749 42.8174 0.68 42.7132 0.68V1ZM42.441 28.7528V29.0728C42.5759 29.0728 42.6964 28.9882 42.7421 28.8613L42.441 28.7528ZM40.7291 28.7528L40.428 28.6444C40.3927 28.7424 40.4074 28.8515 40.4673 28.9368C40.5272 29.0221 40.6249 29.0728 40.7291 29.0728V28.7528ZM44.5748 18.0758L44.8758 18.1843C44.9169 18.0702 44.89 17.9427 44.8064 17.855C44.7227 17.7673 44.5966 17.7343 44.4808 17.77L44.5748 18.0758ZM40.7144 19.2622L40.4133 19.1537C40.3723 19.2678 40.3992 19.3953 40.4828 19.483C40.5665 19.5707 40.6925 19.6037 40.8084 19.568L40.7144 19.2622ZM41.2384 17.8074L41.1427 17.502C41.0472 17.532 40.9712 17.6048 40.9373 17.699L41.2384 17.8074ZM46.7371 16.0842V15.7642C46.7047 15.7642 46.6724 15.7691 46.6415 15.7788L46.7371 16.0842ZM47.0041 16.0842L47.3051 16.1926C47.3404 16.0946 47.3258 15.9855 47.2659 15.9002C47.206 15.8149 47.1083 15.7642 47.0041 15.7642V16.0842ZM1.32063 71.4395C1.32063 71.6162 1.46389 71.7595 1.64062 71.7595C1.81736 71.7595 1.96062 71.6162 1.96062 71.4395H1.32063ZM1.96062 31.327C1.96062 31.1503 1.81736 31.007 1.64062 31.007C1.46389 31.007 1.32063 31.1503 1.32063 31.327H1.96062ZM75.9027 71.4395C75.9027 71.6162 76.0459 71.7595 76.2227 71.7595C76.3994 71.7595 76.5427 71.6162 76.5427 71.4395H75.9027ZM76.5427 31.327C76.5427 31.1503 76.3994 31.007 76.2227 31.007C76.0459 31.007 75.9027 31.1503 75.9027 31.327H76.5427ZM1.64062 39.0907L1.59718 38.7737C1.4377 38.7955 1.31928 38.9324 1.32064 39.0934C1.32199 39.2544 1.4427 39.3893 1.60253 39.4084L1.64062 39.0907ZM20.5263 36.5028L20.7833 36.6935C20.86 36.5901 20.8673 36.4507 20.8017 36.3399C20.7361 36.229 20.6105 36.1683 20.4829 36.1858L20.5263 36.5028ZM20.5261 41.3551L20.488 41.6728C20.6186 41.6885 20.7456 41.6226 20.8079 41.5067C20.8702 41.3908 20.8552 41.2485 20.7701 41.1481L20.5261 41.3551ZM76.2226 39.0907L76.2607 39.4084C76.4205 39.3893 76.5412 39.2544 76.5426 39.0934C76.5439 38.9324 76.4255 38.7955 76.266 38.7737L76.2226 39.0907ZM57.3369 41.3551L57.0929 41.1481C57.0077 41.2485 56.9927 41.3908 57.0551 41.5067C57.1174 41.6226 57.2443 41.6885 57.375 41.6728L57.3369 41.3551ZM57.3369 36.5028L57.3804 36.1858C57.2527 36.1683 57.1271 36.229 57.0615 36.3399C56.9959 36.4507 57.0032 36.5901 57.0799 36.6935L57.3369 36.5028ZM35.4657 20.8017H32.8898V21.4417H35.4657V20.8017ZM33.1908 21.2301L40.4383 1.10844L39.8362 0.891561L32.5887 21.0132L33.1908 21.2301ZM40.1373 1.32H42.7132V0.68H40.1373V1.32ZM42.4121 0.891561L35.1646 21.0132L35.7668 21.2301L43.0143 1.10844L42.4121 0.891561ZM42.441 28.4328H40.7291V29.0728H42.441V28.4328ZM41.0302 28.8613L44.8758 18.1843L44.2737 17.9674L40.428 28.6444L41.0302 28.8613ZM44.4808 17.77L40.6204 18.9563L40.8084 19.568L44.6688 18.3817L44.4808 17.77ZM41.0155 19.3706L41.5395 17.9158L40.9373 17.699L40.4133 19.1537L41.0155 19.3706ZM41.3341 18.1128L46.8328 16.3895L46.6415 15.7788L41.1427 17.502L41.3341 18.1128ZM46.7371 16.4042H47.0041V15.7642H46.7371V16.4042ZM46.703 15.9757L42.14 28.6444L42.7421 28.8613L47.3051 16.1926L46.703 15.9757ZM1.96062 71.4395V31.327H1.32063V71.4395H1.96062ZM76.5427 71.4395V31.327H75.9027V71.4395H76.5427ZM1.68407 39.4077L20.5698 36.8199L20.4829 36.1858L1.59718 38.7737L1.68407 39.4077ZM20.2694 36.3121L18.3485 38.9L18.8624 39.2814L20.7833 36.6935L20.2694 36.3121ZM18.3614 39.2977L20.282 41.5621L20.7701 41.1481L18.8495 38.8837L18.3614 39.2977ZM20.5642 41.0374L1.67872 38.773L1.60253 39.4084L20.488 41.6728L20.5642 41.0374ZM18.2854 37.1465H20.5261V36.5065H18.2854V37.1465ZM16.0447 37.47H20.206V36.83H16.0447V37.47ZM13.484 37.7935H19.8859V37.1535H13.484V37.7935ZM11.2433 38.117H19.5658V37.477H11.2433V38.117ZM9.00262 38.4405H19.5658V37.8005H9.00262V38.4405ZM6.44185 38.764H19.2457V38.124H6.44185V38.764ZM4.20117 39.0875H18.9256V38.4475H4.20117V39.0875ZM1.64062 39.4107H18.6055V38.7707H1.64062V39.4107ZM4.52149 39.7342H18.9258V39.0942H4.52149V39.7342ZM7.08227 40.0577H19.2459V39.4177H7.08227V40.0577ZM9.96314 40.3812H19.566V39.7412H9.96314V40.3812ZM12.5239 40.7047H19.8861V40.0647H12.5239V40.7047ZM15.4048 41.0281H20.2062V40.3881H15.4048V41.0281ZM17.9655 41.3516H20.5263V40.7116H17.9655V41.3516ZM76.1845 38.773L57.2988 41.0374L57.375 41.6728L76.2607 39.4084L76.1845 38.773ZM57.581 41.5621L59.5015 39.2977L59.0135 38.8837L57.0929 41.1481L57.581 41.5621ZM59.5145 38.9L57.5939 36.3121L57.0799 36.6935L59.0005 39.2814L59.5145 38.9ZM57.2935 36.8199L76.1792 39.4077L76.266 38.7737L57.3804 36.1858L57.2935 36.8199ZM59.2575 39.4107H76.2226V38.7707H59.2575V39.4107ZM59.2577 39.7342H73.6621V39.0942H59.2577V39.7342ZM58.9376 40.0577H71.1013V39.4177H58.9376V40.0577ZM58.6175 40.3812H68.2204V39.7412H58.6175V40.3812ZM58.2974 40.7047H65.6596V40.0647H58.2974V40.7047ZM57.9773 41.0281H62.7788V40.3881H57.9773V41.0281ZM57.6572 41.3516H60.218V40.7116H57.6572V41.3516ZM57.6572 37.1465H59.8979V36.5065H57.6572V37.1465ZM57.9773 37.47H62.1386V36.83H57.9773V37.47ZM58.2974 37.7935H64.6993V37.1535H58.2974V37.7935ZM58.2974 38.117H66.94V37.477H58.2974V38.117ZM58.6175 38.4405H69.1807V37.8005H58.6175V38.4405ZM58.9376 38.764H71.7415V38.124H58.9376V38.764ZM59.2577 39.0875H73.9821V38.4475H59.2577V39.0875ZM1.64062 39.4107H76.2226V38.7707H1.64062V39.4107Z" fill="white"/>
    </g>
<!--    19 I2-->
    <g class="group">
        <path d="M170.762 28.7528H161.982L162.397 27.6011L168.782 22.7519C169.733 22.0187 170.42 21.4241 170.842 20.9681C171.272 20.5062 171.576 20.03 171.752 19.5393C171.989 18.8811 171.972 18.3414 171.7 17.92C171.429 17.4985 170.94 17.2878 170.235 17.2878C169.388 17.2878 168.646 17.5159 168.009 17.9719C167.381 18.4222 166.921 19.0515 166.63 19.8597H164.927C165.345 18.6993 166.079 17.7612 167.128 17.0454C168.184 16.3295 169.377 15.9716 170.709 15.9716C171.954 15.9716 172.828 16.2805 173.329 16.8982C173.833 17.5101 173.901 18.327 173.533 19.3488C173.086 20.5899 171.713 22.0678 169.414 23.7823L164.505 27.4453H171.233L170.762 28.7528Z" fill="white"/>
        <path d="M160.602 21.1217H158.026L165.274 1H167.85L160.602 21.1217Z" fill="white"/>
        <path d="M170.762 28.7528V29.0728C170.897 29.0728 171.018 28.9882 171.063 28.8613L170.762 28.7528ZM161.982 28.7528L161.681 28.6444C161.645 28.7424 161.66 28.8515 161.72 28.9368C161.78 29.0221 161.878 29.0728 161.982 29.0728V28.7528ZM162.397 27.6011L162.203 27.3463C162.154 27.3837 162.116 27.4345 162.096 27.4927L162.397 27.6011ZM168.782 22.7519L168.976 23.0067L168.977 23.0053L168.782 22.7519ZM170.842 20.9681L170.608 20.7499L170.607 20.7507L170.842 20.9681ZM171.752 19.5393L171.451 19.4308L171.752 19.5393ZM168.009 17.9719L167.823 17.7118L167.823 17.7118L168.009 17.9719ZM166.63 19.8597V20.1797C166.765 20.1797 166.885 20.095 166.931 19.9681L166.63 19.8597ZM164.927 19.8597L164.626 19.7512C164.591 19.8493 164.605 19.9584 164.665 20.0436C164.725 20.1289 164.823 20.1797 164.927 20.1797V19.8597ZM167.128 17.0454L166.949 16.7805L166.948 16.781L167.128 17.0454ZM173.329 16.8982L173.081 17.0999L173.082 17.1015L173.329 16.8982ZM173.533 19.3488L173.834 19.4572L173.533 19.3488ZM169.414 23.7823L169.223 23.5258L169.223 23.5259L169.414 23.7823ZM164.505 27.4453L164.314 27.1888C164.203 27.2712 164.158 27.4152 164.201 27.5461C164.245 27.6769 164.367 27.7653 164.505 27.7653V27.4453ZM171.233 27.4453L171.534 27.5537C171.57 27.4556 171.555 27.3465 171.495 27.2613C171.435 27.176 171.337 27.1253 171.233 27.1253V27.4453ZM77.5032 71.4395C77.5032 71.6162 77.6465 71.7595 77.8232 71.7595C78 71.7595 78.1432 71.6162 78.1432 71.4395H77.5032ZM78.1432 31.327C78.1432 31.1503 78 31.007 77.8232 31.007C77.6465 31.007 77.5032 31.1503 77.5032 31.327H78.1432ZM252.916 71.4395C252.916 71.6162 253.06 71.7595 253.236 71.7595C253.413 71.7595 253.556 71.6162 253.556 71.4395H252.916ZM253.556 31.327C253.556 31.1503 253.413 31.007 253.236 31.007C253.06 31.007 252.916 31.1503 252.916 31.327H253.556ZM160.602 21.1217V21.4417C160.737 21.4417 160.858 21.3571 160.903 21.2301L160.602 21.1217ZM158.026 21.1217L157.725 21.0132C157.69 21.1113 157.705 21.2204 157.765 21.3057C157.825 21.3909 157.922 21.4417 158.026 21.4417V21.1217ZM165.274 1V0.68C165.139 0.68 165.019 0.764624 164.973 0.891561L165.274 1ZM167.85 1L168.151 1.10844C168.186 1.01039 168.172 0.901285 168.112 0.816017C168.052 0.730749 167.954 0.68 167.85 0.68V1ZM77.8232 39.0907L77.7798 38.7737C77.6203 38.7955 77.5019 38.9324 77.5033 39.0934C77.5046 39.2544 77.6253 39.3893 77.7851 39.4084L77.8232 39.0907ZM96.7089 36.5028L96.9658 36.6935C97.0426 36.5901 97.0499 36.4507 96.9843 36.3399C96.9187 36.229 96.7931 36.1683 96.6654 36.1858L96.7089 36.5028ZM96.7086 41.3551L96.6706 41.6728C96.8012 41.6885 96.9282 41.6226 96.9905 41.5067C97.0528 41.3908 97.0378 41.2485 96.9527 41.1481L96.7086 41.3551ZM253.236 39.0907L253.274 39.4084C253.434 39.3893 253.555 39.2544 253.556 39.0934C253.558 38.9324 253.439 38.7955 253.28 38.7737L253.236 39.0907ZM234.351 41.3551L234.107 41.1481C234.021 41.2485 234.006 41.3908 234.069 41.5067C234.131 41.6226 234.258 41.6885 234.389 41.6728L234.351 41.3551ZM234.351 36.5028L234.394 36.1858C234.266 36.1683 234.141 36.229 234.075 36.3399C234.01 36.4507 234.017 36.5901 234.094 36.6935L234.351 36.5028ZM170.762 28.4328H161.982V29.0728H170.762V28.4328ZM162.283 28.8613L162.698 27.7096L162.096 27.4927L161.681 28.6444L162.283 28.8613ZM162.59 27.856L168.976 23.0067L168.588 22.497L162.203 27.3463L162.59 27.856ZM168.977 23.0053C169.932 22.2694 170.636 21.6616 171.077 21.1854L170.607 20.7507C170.204 21.1866 169.534 21.7681 168.587 22.4984L168.977 23.0053ZM171.076 21.1862C171.53 20.6992 171.859 20.1867 172.053 19.6477L171.451 19.4308C171.292 19.8732 171.014 20.3133 170.608 20.7499L171.076 21.1862ZM172.053 19.6477C172.31 18.9352 172.314 18.2817 171.969 17.7466L171.431 18.0933C171.63 18.4011 171.669 18.8271 171.451 19.4308L172.053 19.6477ZM171.969 17.7466C171.617 17.1994 171.001 16.9678 170.235 16.9678V17.6078C170.88 17.6078 171.241 17.7977 171.431 18.0933L171.969 17.7466ZM170.235 16.9678C169.327 16.9678 168.519 17.2136 167.823 17.7118L168.196 18.2321C168.774 17.8181 169.449 17.6078 170.235 17.6078V16.9678ZM167.823 17.7118C167.136 18.204 166.639 18.8891 166.329 19.7512L166.931 19.9681C167.203 19.2138 167.626 18.6404 168.196 18.232L167.823 17.7118ZM166.63 19.5397H164.927V20.1797H166.63V19.5397ZM165.228 19.9681C165.623 18.8731 166.313 17.9888 167.309 17.3097L166.948 16.781C165.845 17.5336 165.068 18.5255 164.626 19.7512L165.228 19.9681ZM167.308 17.3102C168.308 16.6319 169.438 16.2916 170.709 16.2916V15.6516C169.316 15.6516 168.059 16.0271 166.949 16.7805L167.308 17.3102ZM170.709 16.2916C171.913 16.2916 172.668 16.5911 173.081 17.0999L173.578 16.6964C172.988 15.9698 171.996 15.6516 170.709 15.6516V16.2916ZM173.082 17.1015C173.489 17.5954 173.577 18.2806 173.232 19.2403L173.834 19.4572C174.224 18.3733 174.177 17.4248 173.577 16.6948L173.082 17.1015ZM173.232 19.2403C172.82 20.3846 171.518 21.8139 169.223 23.5258L169.605 24.0389C171.908 22.3217 173.352 20.7952 173.834 19.4572L173.232 19.2403ZM169.223 23.5259L164.314 27.1888L164.697 27.7017L169.605 24.0388L169.223 23.5259ZM164.505 27.7653H171.233V27.1253H164.505V27.7653ZM170.932 27.3368L170.461 28.6444L171.063 28.8613L171.534 27.5537L170.932 27.3368ZM78.1432 71.4395V31.327H77.5032V71.4395H78.1432ZM253.556 71.4395V31.327H252.916V71.4395H253.556ZM160.602 20.8017H158.026V21.4417H160.602V20.8017ZM158.328 21.2301L165.575 1.10844L164.973 0.891561L157.725 21.0132L158.328 21.2301ZM165.274 1.32H167.85V0.68H165.274V1.32ZM167.549 0.891561L160.301 21.0132L160.903 21.2301L168.151 1.10844L167.549 0.891561ZM77.8667 39.4077L96.7523 36.8199L96.6654 36.1858L77.7798 38.7737L77.8667 39.4077ZM96.4519 36.3121L94.5311 38.9L95.045 39.2814L96.9658 36.6935L96.4519 36.3121ZM94.544 39.2977L96.4646 41.5621L96.9527 41.1481L95.0321 38.8837L94.544 39.2977ZM96.7467 41.0374L77.8613 38.773L77.7851 39.4084L96.6706 41.6728L96.7467 41.0374ZM94.468 37.1465H96.7086V36.5065H94.468V37.1465ZM92.2273 37.47H96.3886V36.83H92.2273V37.47ZM89.6666 37.7935H96.0685V37.1535H89.6666V37.7935ZM87.4259 38.117H95.7484V37.477H87.4259V38.117ZM85.1852 38.4405H95.7484V37.8005H85.1852V38.4405ZM82.6245 38.764H95.4283V38.124H82.6245V38.764ZM80.3838 39.0875H95.1082V38.4475H80.3838V39.0875ZM77.8232 39.4107H94.7881V38.7707H77.8232V39.4107ZM80.7041 39.7342H95.1084V39.0942H80.7041V39.7342ZM83.2649 40.0577H95.4285V39.4177H83.2649V40.0577ZM86.1457 40.3812H95.7486V39.7412H86.1457V40.3812ZM88.7065 40.7047H96.0687V40.0647H88.7065V40.7047ZM91.5874 41.0281H96.3888V40.3881H91.5874V41.0281ZM94.1481 41.3516H96.7089V40.7116H94.1481V41.3516ZM253.198 38.773L234.312 41.0374L234.389 41.6728L253.274 39.4084L253.198 38.773ZM234.595 41.5621L236.515 39.2977L236.027 38.8837L234.107 41.1481L234.595 41.5621ZM236.528 38.9L234.608 36.3121L234.094 36.6935L236.014 39.2814L236.528 38.9ZM234.307 36.8199L253.193 39.4077L253.28 38.7737L234.394 36.1858L234.307 36.8199ZM236.271 39.4107H253.236V38.7707H236.271V39.4107ZM236.271 39.7342H250.676V39.0942H236.271V39.7342ZM235.951 40.0577H248.115V39.4177H235.951V40.0577ZM235.631 40.3812H245.234V39.7412H235.631V40.3812ZM235.311 40.7047H242.673V40.0647H235.311V40.7047ZM234.991 41.0281H239.792V40.3881H234.991V41.0281ZM234.671 41.3516H237.232V40.7116H234.671V41.3516ZM234.671 37.1465H236.912V36.5065H234.671V37.1465ZM234.991 37.47H239.152V36.83H234.991V37.47ZM235.311 37.7935H241.713V37.1535H235.311V37.7935ZM235.311 38.117H243.954V37.477H235.311V38.117ZM235.631 38.4405H246.194V37.8005H235.631V38.4405ZM235.951 38.764H248.755V38.124H235.951V38.764ZM236.271 39.0875H250.996V38.4475H236.271V39.0875ZM77.8232 39.4107H253.236V38.7707H77.8232V39.4107Z" fill="white"/>
    </g>
<!--    20 H-->
    <g class="group">
    </g>
<!--    21 H1-->
    <g class="group">
    </g>
<!--    22 H2-->
    <g class="group">
    </g>
    <!--    25 h-->
    <g class="group">
    </g>
<!--    23 h1-->
    <g class="group">
    </g>
<!--    24 h2-->
    <g class="group">
    </g>
<!--    25 R-->
    <g class="group">
    </g>
<!--    26 Deg-->
    <g class="group">
    </g>
<!--    29 DN-->
    <g class="group">
    </g>

</svg>
