<svg width="90%" height="90%" viewBox="0 0 519 296" fill="none" xmlns="http://www.w3.org/2000/svg">
<path d="M65.058 244.8V75.52V244.8Z" stroke="white" stroke-width="2.24" stroke-miterlimit="10" stroke-linecap="round" stroke-linejoin="round"/>
<path d="M65.058 75.5201L95.1757 70.0801L65.058 75.5201Z" stroke="white" stroke-width="2.24" stroke-miterlimit="10" stroke-linecap="round" stroke-linejoin="round"/>
<path d="M95.1758 70.0801V75.5201V70.0801Z" stroke="white" stroke-width="2.24" stroke-miterlimit="10" stroke-linecap="round" stroke-linejoin="round"/>
<path d="M95.1758 244.8V112.64V244.8Z" stroke="white" stroke-width="2.24" stroke-miterlimit="10" stroke-linecap="round" stroke-linejoin="round"/>
<path d="M125.614 244.8V75.52V244.8Z" stroke="white" stroke-width="2.24" stroke-miterlimit="10" stroke-linecap="round" stroke-linejoin="round"/>
<path d="M125.614 75.5201L155.732 70.0801L125.614 75.5201Z" stroke="white" stroke-width="2.24" stroke-miterlimit="10" stroke-linecap="round" stroke-linejoin="round"/>
<path d="M155.732 70.0801V250.24V70.0801Z" stroke="white" stroke-width="2.24" stroke-miterlimit="10" stroke-linecap="round" stroke-linejoin="round"/>
<path d="M155.732 250.24L125.614 244.8L155.732 250.24Z" stroke="white" stroke-width="2.24" stroke-miterlimit="10" stroke-linecap="round" stroke-linejoin="round"/>
<path d="M199.306 250.24H278.445H199.306Z" stroke="white" stroke-width="2.24" stroke-miterlimit="10" stroke-linecap="round" stroke-linejoin="round"/>
<path d="M199.306 70.0801H278.766H199.306Z" stroke="white" stroke-width="2.24" stroke-miterlimit="10" stroke-linecap="round" stroke-linejoin="round"/>
<path d="M413.014 244.8V75.52V244.8Z" stroke="white" stroke-width="2.24" stroke-miterlimit="10" stroke-linecap="round" stroke-linejoin="round"/>
<path d="M413.014 75.5201L382.576 70.0801L413.014 75.5201Z" stroke="white" stroke-width="2.24" stroke-miterlimit="10" stroke-linecap="round" stroke-linejoin="round"/>
<path d="M382.576 70.0801V250.24V70.0801Z" stroke="white" stroke-width="2.24" stroke-miterlimit="10" stroke-linecap="round" stroke-linejoin="round"/>
<path d="M382.576 250.24L413.014 244.8L382.576 250.24Z" stroke="white" stroke-width="2.24" stroke-miterlimit="10" stroke-linecap="round" stroke-linejoin="round"/>
<path d="M382.576 244.8V75.52V244.8Z" stroke="white" stroke-width="2.24" stroke-miterlimit="10" stroke-linecap="round" stroke-linejoin="round"/>
<path d="M382.576 75.5201L352.458 70.0801L382.576 75.5201Z" stroke="white" stroke-width="2.24" stroke-miterlimit="10" stroke-linecap="round" stroke-linejoin="round"/>
<path d="M352.458 70.0801V250.24V70.0801Z" stroke="white" stroke-width="2.24" stroke-miterlimit="10" stroke-linecap="round" stroke-linejoin="round"/>
<path d="M352.458 250.24L382.576 244.8L352.458 250.24Z" stroke="white" stroke-width="2.24" stroke-miterlimit="10" stroke-linecap="round" stroke-linejoin="round"/>
<path d="M352.458 244.8V75.52V244.8Z" stroke="white" stroke-width="2.24" stroke-miterlimit="10" stroke-linecap="round" stroke-linejoin="round"/>
<path d="M352.458 75.5201L322.02 70.0801L352.458 75.5201Z" stroke="white" stroke-width="2.24" stroke-miterlimit="10" stroke-linecap="round" stroke-linejoin="round"/>
<path d="M322.02 70.0801V250.24V70.0801Z" stroke="white" stroke-width="2.24" stroke-miterlimit="10" stroke-linecap="round" stroke-linejoin="round"/>
<path d="M322.02 250.24L352.458 244.8L322.02 250.24Z" stroke="white" stroke-width="2.24" stroke-miterlimit="10" stroke-linecap="round" stroke-linejoin="round"/>
<path d="M155.732 244.8V75.52V244.8Z" stroke="white" stroke-width="2.24" stroke-miterlimit="10" stroke-linecap="round" stroke-linejoin="round"/>
<path d="M155.732 75.52L173.033 72.64L155.732 75.52Z" stroke="white" stroke-width="2.24" stroke-miterlimit="10" stroke-linecap="round" stroke-linejoin="round"/>
<path d="M173.033 248L155.732 244.8L173.033 248Z" stroke="white" stroke-width="2.24" stroke-miterlimit="10" stroke-linecap="round" stroke-linejoin="round"/>
<path d="M322.02 75.52L305.038 72.64L322.02 75.52Z" stroke="white" stroke-width="2.24" stroke-miterlimit="10" stroke-linecap="round" stroke-linejoin="round"/>
<path d="M304.718 248L322.02 244.8L304.718 248Z" stroke="white" stroke-width="2.24" stroke-miterlimit="10" stroke-linecap="round" stroke-linejoin="round"/>
<path d="M199.306 70.0801L185.208 70.7201L199.306 70.0801Z" stroke="white" stroke-width="2.24" stroke-miterlimit="10" stroke-linecap="round" stroke-linejoin="round"/>
<path d="M185.208 70.72L173.033 72.64L185.208 70.72Z" stroke="white" stroke-width="2.24" stroke-miterlimit="10" stroke-linecap="round" stroke-linejoin="round"/>
<path d="M173.033 248L186.81 249.6L173.033 248Z" stroke="white" stroke-width="2.24" stroke-miterlimit="10" stroke-linecap="round" stroke-linejoin="round"/>
<path d="M186.81 249.6L199.306 250.24L186.81 249.6Z" stroke="white" stroke-width="2.24" stroke-miterlimit="10" stroke-linecap="round" stroke-linejoin="round"/>
<path d="M278.445 250.24L292.543 249.6L278.445 250.24Z" stroke="white" stroke-width="2.24" stroke-miterlimit="10" stroke-linecap="round" stroke-linejoin="round"/>
<path d="M292.543 249.6L304.718 248L292.543 249.6Z" stroke="white" stroke-width="2.24" stroke-miterlimit="10" stroke-linecap="round" stroke-linejoin="round"/>
<path d="M305.038 72.64L291.261 70.72L305.038 72.64Z" stroke="white" stroke-width="2.24" stroke-miterlimit="10" stroke-linecap="round" stroke-linejoin="round"/>
<path d="M291.261 70.7201L278.766 70.0801L291.261 70.7201Z" stroke="white" stroke-width="2.24" stroke-miterlimit="10" stroke-linecap="round" stroke-linejoin="round"/>
<path d="M120.167 71.04L122.73 79.36L120.167 71.04Z" stroke="white" stroke-width="0.64" stroke-miterlimit="10" stroke-linecap="round" stroke-linejoin="round"/>
<path d="M122.73 79.36L123.05 81.6L122.73 79.36Z" stroke="white" stroke-width="0.64" stroke-miterlimit="10" stroke-linecap="round" stroke-linejoin="round"/>
<path d="M123.051 81.6001V81.9201V81.6001Z" stroke="white" stroke-width="0.64" stroke-miterlimit="10" stroke-linecap="round" stroke-linejoin="round"/>
<path d="M123.051 81.92V82.56V81.92Z" stroke="white" stroke-width="0.64" stroke-miterlimit="10" stroke-linecap="round" stroke-linejoin="round"/>
<path d="M123.051 82.5601L123.371 83.5201L123.051 82.5601Z" stroke="white" stroke-width="0.64" stroke-miterlimit="10" stroke-linecap="round" stroke-linejoin="round"/>
<path d="M123.371 83.52V84.48V83.52Z" stroke="white" stroke-width="0.64" stroke-miterlimit="10" stroke-linecap="round" stroke-linejoin="round"/>
<path d="M123.371 84.48V84.8V84.48Z" stroke="white" stroke-width="0.64" stroke-miterlimit="10" stroke-linecap="round" stroke-linejoin="round"/>
<path d="M123.371 84.8V85.44V84.8Z" stroke="white" stroke-width="0.64" stroke-miterlimit="10" stroke-linecap="round" stroke-linejoin="round"/>
<path d="M123.371 85.4401V86.0801V85.4401Z" stroke="white" stroke-width="0.64" stroke-miterlimit="10" stroke-linecap="round" stroke-linejoin="round"/>
<path d="M123.371 86.0801L123.051 87.0401L123.371 86.0801Z" stroke="white" stroke-width="0.64" stroke-miterlimit="10" stroke-linecap="round" stroke-linejoin="round"/>
<path d="M123.051 87.04V87.36V87.04Z" stroke="white" stroke-width="0.64" stroke-miterlimit="10" stroke-linecap="round" stroke-linejoin="round"/>
<path d="M123.051 87.36V87.68V87.36Z" stroke="white" stroke-width="0.64" stroke-miterlimit="10" stroke-linecap="round" stroke-linejoin="round"/>
<path d="M123.051 87.6801V88.6401V87.6801Z" stroke="white" stroke-width="0.64" stroke-miterlimit="10" stroke-linecap="round" stroke-linejoin="round"/>
<path d="M123.05 88.64L122.73 89.28L123.05 88.64Z" stroke="white" stroke-width="0.64" stroke-miterlimit="10" stroke-linecap="round" stroke-linejoin="round"/>
<path d="M122.73 89.28V89.6V89.28Z" stroke="white" stroke-width="0.64" stroke-miterlimit="10" stroke-linecap="round" stroke-linejoin="round"/>
<path d="M122.73 89.6001V89.9201V89.6001Z" stroke="white" stroke-width="0.64" stroke-miterlimit="10" stroke-linecap="round" stroke-linejoin="round"/>
<path d="M122.73 89.92L122.41 90.88L122.73 89.92Z" stroke="white" stroke-width="0.64" stroke-miterlimit="10" stroke-linecap="round" stroke-linejoin="round"/>
<path d="M122.41 90.88V91.52V90.88Z" stroke="white" stroke-width="0.64" stroke-miterlimit="10" stroke-linecap="round" stroke-linejoin="round"/>
<path d="M122.409 91.52H122.089H122.409Z" stroke="white" stroke-width="0.64" stroke-miterlimit="10" stroke-linecap="round" stroke-linejoin="round"/>
<path d="M122.089 91.52V91.84V91.52Z" stroke="white" stroke-width="0.64" stroke-miterlimit="10" stroke-linecap="round" stroke-linejoin="round"/>
<path d="M122.089 91.8401V92.1601V91.8401Z" stroke="white" stroke-width="0.64" stroke-miterlimit="10" stroke-linecap="round" stroke-linejoin="round"/>
<path d="M122.089 92.16L121.769 92.8L122.089 92.16Z" stroke="white" stroke-width="0.64" stroke-miterlimit="10" stroke-linecap="round" stroke-linejoin="round"/>
<path d="M121.769 92.8L121.449 93.44L121.769 92.8Z" stroke="white" stroke-width="0.64" stroke-miterlimit="10" stroke-linecap="round" stroke-linejoin="round"/>
<path d="M121.448 93.4401L121.128 93.7601L121.448 93.4401Z" stroke="white" stroke-width="0.64" stroke-miterlimit="10" stroke-linecap="round" stroke-linejoin="round"/>
<path d="M121.128 93.76V94.08V93.76Z" stroke="white" stroke-width="0.64" stroke-miterlimit="10" stroke-linecap="round" stroke-linejoin="round"/>
<path d="M121.128 94.0801L120.808 94.7201L121.128 94.0801Z" stroke="white" stroke-width="0.64" stroke-miterlimit="10" stroke-linecap="round" stroke-linejoin="round"/>
<path d="M120.807 94.72L120.167 95.36L120.807 94.72Z" stroke="white" stroke-width="0.64" stroke-miterlimit="10" stroke-linecap="round" stroke-linejoin="round"/>
<path d="M120.167 95.36V95.68V95.36Z" stroke="white" stroke-width="0.64" stroke-miterlimit="10" stroke-linecap="round" stroke-linejoin="round"/>
<path d="M120.167 95.6801L119.847 96.0001L120.167 95.6801Z" stroke="white" stroke-width="0.64" stroke-miterlimit="10" stroke-linecap="round" stroke-linejoin="round"/>
<path d="M119.846 96L119.526 96.64L119.846 96Z" stroke="white" stroke-width="0.64" stroke-miterlimit="10" stroke-linecap="round" stroke-linejoin="round"/>
<path d="M119.525 96.64L118.885 97.28L119.525 96.64Z" stroke="white" stroke-width="0.64" stroke-miterlimit="10" stroke-linecap="round" stroke-linejoin="round"/>
<path d="M118.885 97.28L118.565 97.6L118.885 97.28Z" stroke="white" stroke-width="0.64" stroke-miterlimit="10" stroke-linecap="round" stroke-linejoin="round"/>
<path d="M118.565 97.6001L118.245 97.9201L118.565 97.6001Z" stroke="white" stroke-width="0.64" stroke-miterlimit="10" stroke-linecap="round" stroke-linejoin="round"/>
<path d="M118.244 97.92L117.604 98.56L118.244 97.92Z" stroke="white" stroke-width="0.64" stroke-miterlimit="10" stroke-linecap="round" stroke-linejoin="round"/>
<path d="M117.603 98.5601L116.963 99.2001L117.603 98.5601Z" stroke="white" stroke-width="0.64" stroke-miterlimit="10" stroke-linecap="round" stroke-linejoin="round"/>
<path d="M116.963 99.2001L116.643 99.5201L116.963 99.2001Z" stroke="white" stroke-width="0.64" stroke-miterlimit="10" stroke-linecap="round" stroke-linejoin="round"/>
<path d="M116.642 99.52L116.322 99.84L116.642 99.52Z" stroke="white" stroke-width="0.64" stroke-miterlimit="10" stroke-linecap="round" stroke-linejoin="round"/>
<path d="M116.321 99.8401L115.681 100.48L116.321 99.8401Z" stroke="white" stroke-width="0.64" stroke-miterlimit="10" stroke-linecap="round" stroke-linejoin="round"/>
<path d="M115.681 100.48L114.4 101.12L115.681 100.48Z" stroke="white" stroke-width="0.64" stroke-miterlimit="10" stroke-linecap="round" stroke-linejoin="round"/>
<path d="M114.4 101.12V101.44V101.12Z" stroke="white" stroke-width="0.64" stroke-miterlimit="10" stroke-linecap="round" stroke-linejoin="round"/>
<path d="M114.399 101.44H114.079H114.399Z" stroke="white" stroke-width="0.64" stroke-miterlimit="10" stroke-linecap="round" stroke-linejoin="round"/>
<path d="M114.079 101.44L113.439 101.76L114.079 101.44Z" stroke="white" stroke-width="0.64" stroke-miterlimit="10" stroke-linecap="round" stroke-linejoin="round"/>
<path d="M113.439 101.76L112.477 102.72L113.439 101.76Z" stroke="white" stroke-width="0.64" stroke-miterlimit="10" stroke-linecap="round" stroke-linejoin="round"/>
<path d="M112.477 102.72L110.555 104L112.477 102.72Z" stroke="white" stroke-width="0.64" stroke-miterlimit="10" stroke-linecap="round" stroke-linejoin="round"/>
<path d="M110.555 104L106.069 106.24L110.555 104Z" stroke="white" stroke-width="0.64" stroke-miterlimit="10" stroke-linecap="round" stroke-linejoin="round"/>
<path d="M106.069 106.24L97.4186 111.04L106.069 106.24Z" stroke="white" stroke-width="0.64" stroke-miterlimit="10" stroke-linecap="round" stroke-linejoin="round"/>
<path d="M97.4185 111.04L94.5349 113.28L97.4185 111.04Z" stroke="white" stroke-width="0.64" stroke-miterlimit="10" stroke-linecap="round" stroke-linejoin="round"/>
<path d="M94.5346 113.28L94.2146 113.6L94.5346 113.28Z" stroke="white" stroke-width="0.64" stroke-miterlimit="10" stroke-linecap="round" stroke-linejoin="round"/>
<path d="M94.2142 113.6L93.8942 113.92L94.2142 113.6Z" stroke="white" stroke-width="0.64" stroke-miterlimit="10" stroke-linecap="round" stroke-linejoin="round"/>
<path d="M93.8934 113.92L93.2534 114.56L93.8934 113.92Z" stroke="white" stroke-width="0.64" stroke-miterlimit="10" stroke-linecap="round" stroke-linejoin="round"/>
<path d="M93.2534 114.56L91.9717 115.52L93.2534 114.56Z" stroke="white" stroke-width="0.64" stroke-miterlimit="10" stroke-linecap="round" stroke-linejoin="round"/>
<path d="M91.9714 115.52L91.6514 116.16L91.9714 115.52Z" stroke="white" stroke-width="0.64" stroke-miterlimit="10" stroke-linecap="round" stroke-linejoin="round"/>
<path d="M91.6509 116.16H91.3309H91.6509Z" stroke="white" stroke-width="0.64" stroke-miterlimit="10" stroke-linecap="round" stroke-linejoin="round"/>
<path d="M91.3309 116.16V116.48V116.16Z" stroke="white" stroke-width="0.64" stroke-miterlimit="10" stroke-linecap="round" stroke-linejoin="round"/>
<path d="M91.3306 116.48L91.0106 116.8L91.3306 116.48Z" stroke="white" stroke-width="0.64" stroke-miterlimit="10" stroke-linecap="round" stroke-linejoin="round"/>
<path d="M91.0105 116.8L90.0493 117.76L91.0105 116.8Z" stroke="white" stroke-width="0.64" stroke-miterlimit="10" stroke-linecap="round" stroke-linejoin="round"/>
<path d="M90.0489 117.76L89.7289 118.08L90.0489 117.76Z" stroke="white" stroke-width="0.64" stroke-miterlimit="10" stroke-linecap="round" stroke-linejoin="round"/>
<path d="M89.7289 118.08V118.4V118.08Z" stroke="white" stroke-width="0.64" stroke-miterlimit="10" stroke-linecap="round" stroke-linejoin="round"/>
<path d="M89.7286 118.4H89.4086H89.7286Z" stroke="white" stroke-width="0.64" stroke-miterlimit="10" stroke-linecap="round" stroke-linejoin="round"/>
<path d="M89.4086 118.4V118.72V118.4Z" stroke="white" stroke-width="0.64" stroke-miterlimit="10" stroke-linecap="round" stroke-linejoin="round"/>
<path d="M89.4077 118.72L88.7677 119.68L89.4077 118.72Z" stroke="white" stroke-width="0.64" stroke-miterlimit="10" stroke-linecap="round" stroke-linejoin="round"/>
<path d="M88.7673 119.68L88.4473 120.32L88.7673 119.68Z" stroke="white" stroke-width="0.64" stroke-miterlimit="10" stroke-linecap="round" stroke-linejoin="round"/>
<path d="M88.4473 120.32V120.64V120.32Z" stroke="white" stroke-width="0.64" stroke-miterlimit="10" stroke-linecap="round" stroke-linejoin="round"/>
<path d="M88.447 120.64H88.127H88.447Z" stroke="white" stroke-width="0.64" stroke-miterlimit="10" stroke-linecap="round" stroke-linejoin="round"/>
<path d="M88.1265 120.64L87.8065 121.28L88.1265 120.64Z" stroke="white" stroke-width="0.64" stroke-miterlimit="10" stroke-linecap="round" stroke-linejoin="round"/>
<path d="M87.8061 121.28L87.4861 121.92L87.8061 121.28Z" stroke="white" stroke-width="0.64" stroke-miterlimit="10" stroke-linecap="round" stroke-linejoin="round"/>
<path d="M87.4853 121.92L86.8453 123.2L87.4853 121.92Z" stroke="white" stroke-width="0.64" stroke-miterlimit="10" stroke-linecap="round" stroke-linejoin="round"/>
<path d="M86.8453 123.2V123.52V123.2Z" stroke="white" stroke-width="0.64" stroke-miterlimit="10" stroke-linecap="round" stroke-linejoin="round"/>
<path d="M86.8453 123.52V123.84V123.52Z" stroke="white" stroke-width="0.64" stroke-miterlimit="10" stroke-linecap="round" stroke-linejoin="round"/>
<path d="M86.8449 123.84L86.5249 124.16L86.8449 123.84Z" stroke="white" stroke-width="0.64" stroke-miterlimit="10" stroke-linecap="round" stroke-linejoin="round"/>
<path d="M86.5245 124.16L86.2045 125.44L86.5245 124.16Z" stroke="white" stroke-width="0.64" stroke-miterlimit="10" stroke-linecap="round" stroke-linejoin="round"/>
<path d="M86.2045 125.44L85.2433 127.68L86.2045 125.44Z" stroke="white" stroke-width="0.64" stroke-miterlimit="10" stroke-linecap="round" stroke-linejoin="round"/>
<path d="M85.2433 127.68L83.9617 132.48L85.2433 127.68Z" stroke="white" stroke-width="0.64" stroke-miterlimit="10" stroke-linecap="round" stroke-linejoin="round"/>
<path d="M83.9617 132.48L81.0781 141.76L83.9617 132.48Z" stroke="white" stroke-width="0.64" stroke-miterlimit="10" stroke-linecap="round" stroke-linejoin="round"/>
<path d="M81.0781 141.76L79.7965 144.96L81.0781 141.76Z" stroke="white" stroke-width="0.64" stroke-miterlimit="10" stroke-linecap="round" stroke-linejoin="round"/>
<path d="M79.7961 144.96H79.4761H79.7961Z" stroke="white" stroke-width="0.64" stroke-miterlimit="10" stroke-linecap="round" stroke-linejoin="round"/>
<path d="M79.4761 144.96V145.28V144.96Z" stroke="white" stroke-width="0.64" stroke-miterlimit="10" stroke-linecap="round" stroke-linejoin="round"/>
<path d="M79.4757 145.28L79.1557 145.6L79.4757 145.28Z" stroke="white" stroke-width="0.64" stroke-miterlimit="10" stroke-linecap="round" stroke-linejoin="round"/>
<path d="M79.1553 145.6L78.8353 146.56L79.1553 145.6Z" stroke="white" stroke-width="0.64" stroke-miterlimit="10" stroke-linecap="round" stroke-linejoin="round"/>
<path d="M78.8345 146.56L78.1945 147.84L78.8345 146.56Z" stroke="white" stroke-width="0.64" stroke-miterlimit="10" stroke-linecap="round" stroke-linejoin="round"/>
<path d="M78.1941 147.84L77.8741 148.16L78.1941 147.84Z" stroke="white" stroke-width="0.64" stroke-miterlimit="10" stroke-linecap="round" stroke-linejoin="round"/>
<path d="M77.8737 148.16L77.5537 148.48L77.8737 148.16Z" stroke="white" stroke-width="0.64" stroke-miterlimit="10" stroke-linecap="round" stroke-linejoin="round"/>
<path d="M77.5537 148.48V148.8V148.48Z" stroke="white" stroke-width="0.64" stroke-miterlimit="10" stroke-linecap="round" stroke-linejoin="round"/>
<path d="M77.5533 148.8L77.2333 149.12L77.5533 148.8Z" stroke="white" stroke-width="0.64" stroke-miterlimit="10" stroke-linecap="round" stroke-linejoin="round"/>
<path d="M77.2325 149.12L76.5925 150.08L77.2325 149.12Z" stroke="white" stroke-width="0.64" stroke-miterlimit="10" stroke-linecap="round" stroke-linejoin="round"/>
<path d="M76.5917 150.08L75.9517 150.4L76.5917 150.08Z" stroke="white" stroke-width="0.64" stroke-miterlimit="10" stroke-linecap="round" stroke-linejoin="round"/>
<path d="M75.9517 150.4V150.72V150.4Z" stroke="white" stroke-width="0.64" stroke-miterlimit="10" stroke-linecap="round" stroke-linejoin="round"/>
<path d="M75.9513 150.72H75.6313H75.9513Z" stroke="white" stroke-width="0.64" stroke-miterlimit="10" stroke-linecap="round" stroke-linejoin="round"/>
<path d="M75.6309 150.72L75.3109 151.04L75.6309 150.72Z" stroke="white" stroke-width="0.64" stroke-miterlimit="10" stroke-linecap="round" stroke-linejoin="round"/>
<path d="M75.31 151.04L74.67 151.68L75.31 151.04Z" stroke="white" stroke-width="0.64" stroke-miterlimit="10" stroke-linecap="round" stroke-linejoin="round"/>
<path d="M74.6697 151.68L74.3497 152L74.6697 151.68Z" stroke="white" stroke-width="0.64" stroke-miterlimit="10" stroke-linecap="round" stroke-linejoin="round"/>
<path d="M74.3497 152V152.32V152Z" stroke="white" stroke-width="0.64" stroke-miterlimit="10" stroke-linecap="round" stroke-linejoin="round"/>
<path d="M74.3493 152.32H74.0293H74.3493Z" stroke="white" stroke-width="0.64" stroke-miterlimit="10" stroke-linecap="round" stroke-linejoin="round"/>
<path d="M74.0289 152.32L73.7089 152.64L74.0289 152.32Z" stroke="white" stroke-width="0.64" stroke-miterlimit="10" stroke-linecap="round" stroke-linejoin="round"/>
<path d="M73.7081 152.64L73.0681 152.96L73.7081 152.64Z" stroke="white" stroke-width="0.64" stroke-miterlimit="10" stroke-linecap="round" stroke-linejoin="round"/>
<path d="M73.0672 152.96L72.4272 153.6L73.0672 152.96Z" stroke="white" stroke-width="0.64" stroke-miterlimit="10" stroke-linecap="round" stroke-linejoin="round"/>
<path d="M72.4269 153.6H72.1069H72.4269Z" stroke="white" stroke-width="0.64" stroke-miterlimit="10" stroke-linecap="round" stroke-linejoin="round"/>
<path d="M72.1065 153.6L71.7865 153.92L72.1065 153.6Z" stroke="white" stroke-width="0.64" stroke-miterlimit="10" stroke-linecap="round" stroke-linejoin="round"/>
<path d="M71.7857 153.92L71.1457 154.24L71.7857 153.92Z" stroke="white" stroke-width="0.64" stroke-miterlimit="10" stroke-linecap="round" stroke-linejoin="round"/>
<path d="M71.1449 154.24L70.5049 154.56L71.1449 154.24Z" stroke="white" stroke-width="0.64" stroke-miterlimit="10" stroke-linecap="round" stroke-linejoin="round"/>
<path d="M70.5044 154.56H70.1844H70.5044Z" stroke="white" stroke-width="0.64" stroke-miterlimit="10" stroke-linecap="round" stroke-linejoin="round"/>
<path d="M70.1841 154.56L69.8641 154.88L70.1841 154.56Z" stroke="white" stroke-width="0.64" stroke-miterlimit="10" stroke-linecap="round" stroke-linejoin="round"/>
<path d="M69.864 154.88L68.9028 155.2L69.864 154.88Z" stroke="white" stroke-width="0.64" stroke-miterlimit="10" stroke-linecap="round" stroke-linejoin="round"/>
<path d="M68.9021 155.2L68.2621 155.52L68.9021 155.2Z" stroke="white" stroke-width="0.64" stroke-miterlimit="10" stroke-linecap="round" stroke-linejoin="round"/>
<path d="M68.2617 155.52H67.9417H68.2617Z" stroke="white" stroke-width="0.64" stroke-miterlimit="10" stroke-linecap="round" stroke-linejoin="round"/>
<path d="M67.9408 155.52L67.3008 155.84L67.9408 155.52Z" stroke="white" stroke-width="0.64" stroke-miterlimit="10" stroke-linecap="round" stroke-linejoin="round"/>
<path d="M67.3009 155.84H66.3397H67.3009Z" stroke="white" stroke-width="0.64" stroke-miterlimit="10" stroke-linecap="round" stroke-linejoin="round"/>
<path d="M66.3397 155.84L65.058 156.16L66.3397 155.84Z" stroke="white" stroke-width="0.64" stroke-miterlimit="10" stroke-linecap="round" stroke-linejoin="round"/>
<path d="M65.058 78.72H122.41H65.058Z" stroke="white" stroke-width="0.64" stroke-miterlimit="10" stroke-linecap="round" stroke-linejoin="round"/>
<path d="M95.1758 75.5201L125.614 70.0801L95.1758 75.5201Z" stroke="white" stroke-width="2.24" stroke-miterlimit="10" stroke-linecap="round" stroke-linejoin="round"/>
<path d="M125.614 70.0801V250.24V70.0801Z" stroke="white" stroke-width="2.24" stroke-miterlimit="10" stroke-linecap="round" stroke-linejoin="round"/>
<path d="M125.614 250.24L95.1758 244.8L125.614 250.24Z" stroke="white" stroke-width="2.24" stroke-miterlimit="10" stroke-linecap="round" stroke-linejoin="round"/>
<path d="M95.1758 112.64V250.24V112.64Z" stroke="white" stroke-width="2.24" stroke-miterlimit="10" stroke-linecap="round" stroke-linejoin="round"/>
<path d="M95.1757 250.24L65.058 244.8L95.1757 250.24Z" stroke="white" stroke-width="2.24" stroke-miterlimit="10" stroke-linecap="round" stroke-linejoin="round"/>
<path d="M95.1758 75.5201V70.0801V75.5201Z" stroke="white" stroke-width="0.64" stroke-miterlimit="10" stroke-linecap="round" stroke-linejoin="round"/>
<path d="M65.058 78.72V75.52V78.72Z" stroke="white" stroke-width="0.64" stroke-miterlimit="10" stroke-linecap="round" stroke-linejoin="round"/>
<path d="M122.41 78.72L120.167 71.04L122.41 78.72Z" stroke="white" stroke-width="0.64" stroke-miterlimit="10" stroke-linecap="round" stroke-linejoin="round"/>
<path d="M122.41 78.72H65.058H122.41Z" stroke="white" stroke-width="2.24" stroke-miterlimit="10" stroke-linecap="round" stroke-linejoin="round"/>
<path d="M95.1758 75.52L120.167 71.04L95.1758 75.52Z" stroke="white" stroke-width="0.64" stroke-miterlimit="10" stroke-linecap="round" stroke-linejoin="round"/>
<path d="M70.1844 74.5601L74.0293 78.72L70.1844 74.5601Z" stroke="white" stroke-width="0.64" stroke-miterlimit="10" stroke-linecap="round" stroke-linejoin="round"/>
<path d="M83.6413 72.3201L90.0493 78.7201L83.6413 72.3201Z" stroke="white" stroke-width="0.64" stroke-miterlimit="10" stroke-linecap="round" stroke-linejoin="round"/>
<path d="M101.904 74.24L106.069 78.72L101.904 74.24Z" stroke="white" stroke-width="0.64" stroke-miterlimit="10" stroke-linecap="round" stroke-linejoin="round"/>
<path d="M115.361 72L122.41 78.72L115.361 72Z" stroke="white" stroke-width="0.64" stroke-miterlimit="10" stroke-linecap="round" stroke-linejoin="round"/>

    <!--    1 A-->
    <g class="group">
    </g>
    <!--    2 D-->
    <g class="group">
    </g>
    <!--    2 Dy-->
    <g class="group">
        <path d="M447.847 160.616V164.849L445.793 164.074V159.869C445.793 158.421 445.509 157.111 444.942 155.94C444.366 154.765 443.564 153.749 442.534 152.892C441.496 152.023 440.284 151.336 438.896 150.832L437.732 150.408C436.641 150.012 435.673 149.799 434.827 149.77C433.972 149.738 433.252 149.885 432.668 150.21C432.074 150.533 431.625 151.029 431.32 151.698C431.014 152.357 430.862 153.188 430.862 154.191V158.758L428.794 158.006V153.439C428.794 152.111 429.003 150.976 429.422 150.033C429.832 149.087 430.43 148.362 431.215 147.858C431.991 147.342 432.934 147.072 434.042 147.048C435.141 147.021 436.38 147.257 437.758 147.759L438.896 148.172C440.275 148.674 441.518 149.339 442.626 150.169C443.725 150.995 444.663 151.954 445.439 153.043C446.216 154.124 446.813 155.307 447.232 156.591C447.642 157.864 447.847 159.205 447.847 160.616ZM428.794 156.488L447.847 163.415V166.102L428.794 159.176V156.488Z" fill="white"/>
        <path d="M421.344 75.2C421.167 75.2 421.024 75.3433 421.024 75.52C421.024 75.6968 421.167 75.84 421.344 75.84V75.2ZM468.123 75.84C468.299 75.84 468.443 75.6968 468.443 75.52C468.443 75.3433 468.299 75.2 468.123 75.2V75.84ZM421.344 244.48C421.167 244.48 421.024 244.623 421.024 244.8C421.024 244.977 421.167 245.12 421.344 245.12V244.48ZM468.123 245.12C468.299 245.12 468.443 244.977 468.443 244.8C468.443 244.623 468.299 244.48 468.123 244.48V245.12ZM447.847 164.849L447.734 165.148C447.833 165.186 447.943 165.172 448.029 165.112C448.116 165.052 448.167 164.954 448.167 164.849H447.847ZM445.793 164.074H445.473C445.473 164.207 445.555 164.327 445.68 164.374L445.793 164.074ZM444.942 155.94L445.23 155.8L445.23 155.799L444.942 155.94ZM442.534 152.892L442.329 153.138L442.33 153.138L442.534 152.892ZM438.896 150.832L439.006 150.531L438.896 150.832ZM437.732 150.408L437.622 150.709L437.732 150.408ZM434.827 149.77L434.815 150.09L434.816 150.09L434.827 149.77ZM432.668 150.21L432.82 150.492L432.823 150.49L432.668 150.21ZM431.32 151.698L431.61 151.832L431.611 151.831L431.32 151.698ZM430.862 158.758L430.752 159.058C430.85 159.094 430.96 159.08 431.045 159.02C431.131 158.96 431.182 158.862 431.182 158.758H430.862ZM428.794 158.006H428.474C428.474 158.141 428.558 158.261 428.685 158.307L428.794 158.006ZM429.422 150.033L429.715 150.163L429.716 150.16L429.422 150.033ZM431.215 147.858L431.388 148.128L431.392 148.125L431.215 147.858ZM434.042 147.048L434.049 147.368L434.05 147.368L434.042 147.048ZM437.758 147.759L437.867 147.458H437.867L437.758 147.759ZM438.896 148.172L438.787 148.473H438.787L438.896 148.172ZM442.626 150.169L442.818 149.913L442.818 149.913L442.626 150.169ZM445.439 153.043L445.179 153.229L445.18 153.23L445.439 153.043ZM447.232 156.591L447.537 156.493L447.536 156.492L447.232 156.591ZM428.794 156.488L428.903 156.187C428.805 156.152 428.696 156.166 428.611 156.226C428.525 156.286 428.474 156.384 428.474 156.488H428.794ZM447.847 163.415H448.167C448.167 163.28 448.083 163.16 447.957 163.114L447.847 163.415ZM447.847 166.102L447.738 166.403C447.836 166.439 447.945 166.424 448.031 166.364C448.116 166.304 448.167 166.207 448.167 166.102H447.847ZM428.794 159.176H428.474C428.474 159.31 428.558 159.43 428.685 159.476L428.794 159.176ZM460.753 75.52L461.07 75.477C461.049 75.3183 460.913 75.2 460.753 75.2C460.593 75.2 460.458 75.3183 460.436 75.477L460.753 75.52ZM463.317 94.4L463.125 94.6561C463.228 94.7335 463.368 94.7412 463.479 94.6759C463.59 94.6105 463.651 94.4848 463.634 94.357L463.317 94.4ZM460.753 92.48L460.753 92.16H460.753L460.753 92.48ZM458.19 94.4L457.873 94.3569C457.856 94.4847 457.917 94.6105 458.028 94.6758C458.139 94.7412 458.279 94.7334 458.382 94.6561L458.19 94.4ZM460.753 244.8L460.436 244.843C460.458 245.002 460.593 245.12 460.753 245.12C460.913 245.12 461.049 245.002 461.07 244.843L460.753 244.8ZM458.19 225.92L458.382 225.664C458.279 225.587 458.139 225.579 458.028 225.644C457.917 225.71 457.856 225.835 457.873 225.963L458.19 225.92ZM463.317 225.92L463.634 225.963C463.651 225.835 463.59 225.71 463.479 225.644C463.368 225.579 463.228 225.587 463.125 225.664L463.317 225.92ZM421.344 75.84H468.123V75.2H421.344V75.84ZM421.344 245.12H468.123V244.48H421.344V245.12ZM447.527 160.616V164.849H448.167V160.616H447.527ZM447.96 164.55L445.906 163.775L445.68 164.374L447.734 165.148L447.96 164.55ZM446.113 164.074V159.869H445.473V164.074H446.113ZM446.113 159.869C446.113 158.378 445.821 157.02 445.23 155.8L444.654 156.079C445.198 157.203 445.473 158.464 445.473 159.869H446.113ZM445.23 155.799C444.633 154.583 443.802 153.532 442.739 152.646L442.33 153.138C443.325 153.967 444.099 154.947 444.655 156.081L445.23 155.799ZM442.74 152.647C441.671 151.752 440.425 151.047 439.006 150.531L438.787 151.133C440.142 151.625 441.322 152.294 442.329 153.138L442.74 152.647ZM439.006 150.531L437.841 150.108L437.622 150.709L438.787 151.133L439.006 150.531ZM437.841 150.108C436.73 149.704 435.727 149.481 434.838 149.45L434.816 150.09C435.619 150.118 436.553 150.32 437.622 150.709L437.841 150.108ZM434.839 149.45C433.941 149.416 433.16 149.57 432.512 149.931L432.823 150.49C433.344 150.2 434.002 150.059 434.815 150.09L434.839 149.45ZM432.515 149.929C431.855 150.288 431.36 150.839 431.029 151.565L431.611 151.831C431.89 151.219 432.294 150.778 432.82 150.492L432.515 149.929ZM431.029 151.563C430.699 152.278 430.542 153.158 430.542 154.191H431.182C431.182 153.218 431.33 152.437 431.61 151.832L431.029 151.563ZM430.542 154.191V158.758H431.182V154.191H430.542ZM430.971 158.457L428.903 157.705L428.685 158.307L430.752 159.058L430.971 158.457ZM429.114 158.006V153.439H428.474V158.006H429.114ZM429.114 153.439C429.114 152.144 429.319 151.055 429.715 150.163L429.13 149.903C428.688 150.897 428.474 152.079 428.474 153.439H429.114ZM429.716 150.16C430.103 149.266 430.662 148.593 431.388 148.128L431.042 147.589C430.198 148.13 429.561 148.908 429.129 149.906L429.716 150.16ZM431.392 148.125C432.109 147.648 432.99 147.391 434.049 147.368L434.035 146.728C432.878 146.753 431.874 147.036 431.038 147.592L431.392 148.125ZM434.05 147.368C435.098 147.342 436.296 147.568 437.649 148.059L437.867 147.458C436.463 146.947 435.184 146.699 434.034 146.728L434.05 147.368ZM437.649 148.059L438.787 148.473L439.006 147.872L437.867 147.458L437.649 148.059ZM438.787 148.473C440.138 148.964 441.353 149.615 442.434 150.425L442.818 149.913C441.683 149.063 440.412 148.383 439.006 147.872L438.787 148.473ZM442.434 150.425C443.507 151.232 444.422 152.167 445.179 153.229L445.7 152.858C444.904 151.74 443.943 150.759 442.818 149.913L442.434 150.425ZM445.18 153.23C445.937 154.284 446.519 155.437 446.928 156.691L447.536 156.492C447.108 155.177 446.495 153.964 445.699 152.857L445.18 153.23ZM446.928 156.69C447.327 157.928 447.527 159.237 447.527 160.616H448.167C448.167 159.174 447.958 157.799 447.537 156.493L446.928 156.69ZM428.685 156.789L447.738 163.716L447.957 163.114L428.903 156.187L428.685 156.789ZM447.527 163.415V166.102H448.167V163.415H447.527ZM447.957 165.801L428.903 158.875L428.685 159.476L447.738 166.403L447.957 165.801ZM429.114 159.176V156.488H428.474V159.176H429.114ZM460.436 75.5631L462.999 94.4431L463.634 94.357L461.07 75.477L460.436 75.5631ZM463.508 94.1439L460.945 92.2239L460.562 92.7361L463.125 94.6561L463.508 94.1439ZM460.562 92.2239L457.998 94.1439L458.382 94.6561L460.945 92.7361L460.562 92.2239ZM458.507 94.443L461.07 75.5631L460.436 75.477L457.873 94.3569L458.507 94.443ZM460.753 76.1601H461.074V75.5201H460.753V76.1601ZM460.753 76.4801H461.074V75.8401H460.753V76.4801ZM460.753 76.8001H461.074V76.1601H460.753V76.8001ZM460.753 77.1201H461.074V76.4801H460.753V77.1201ZM460.753 77.4401H461.074V76.8001H460.753V77.4401ZM460.753 77.7601H461.074V77.1201H460.753V77.7601ZM460.753 78.0801H461.074V77.4401H460.753V78.0801ZM460.753 92.8L463.317 92.8001L463.317 92.1601L460.753 92.16L460.753 92.8ZM461.394 93.1201H463.317V92.4801H461.394V93.1201ZM461.715 93.4401H463.317V92.8001H461.715V93.4401ZM462.035 93.7601H463.317V93.1201H462.035V93.7601ZM462.676 94.0801H463.317V93.4401H462.676V94.0801ZM462.996 94.4001H463.317V93.7601H462.996V94.4001ZM458.511 92.8001L460.753 92.8L460.753 92.16L458.511 92.1601L458.511 92.8001ZM458.511 93.1201H460.433V92.4801H458.511V93.1201ZM458.511 93.4401H460.113V92.8001H458.511V93.4401ZM458.511 93.7601H459.472V93.1201H458.511V93.7601ZM458.511 94.0801H459.151V93.4401H458.511V94.0801ZM458.511 94.4001H458.831V93.7601H458.511V94.4001ZM461.07 244.757L458.507 225.877L457.873 225.963L460.436 244.843L461.07 244.757ZM457.998 226.176L460.562 228.096L460.945 227.584L458.382 225.664L457.998 226.176ZM460.945 228.096L463.508 226.176L463.125 225.664L460.562 227.584L460.945 228.096ZM462.999 225.877L460.436 244.757L461.07 244.843L463.634 225.963L462.999 225.877ZM458.511 226.56H458.831V225.92H458.511V226.56ZM458.511 226.88H459.151V226.24H458.511V226.88ZM458.511 227.2H459.472V226.56H458.511V227.2ZM458.511 227.52H460.113V226.88H458.511V227.52ZM458.511 227.84H460.433V227.2H458.511V227.84ZM458.511 228.16H460.753V227.52H458.511V228.16ZM462.996 226.56H463.317V225.92H462.996V226.56ZM462.676 226.88H463.317V226.24H462.676V226.88ZM462.035 227.2H463.317V226.56H462.035V227.2ZM461.715 227.52H463.317V226.88H461.715V227.52ZM461.394 227.84H463.317V227.2H461.394V227.84ZM460.753 228.16H463.317V227.52H460.753V228.16ZM460.753 242.88H461.074V242.24H460.753V242.88ZM460.753 243.2H461.074V242.56H460.753V243.2ZM460.753 243.52H461.074V242.88H460.753V243.52ZM460.753 243.84H461.074V243.2H460.753V243.84ZM460.753 244.16H461.074V243.52H460.753V244.16ZM460.753 244.48H461.074V243.84H460.753V244.48ZM460.753 244.8H461.074V244.16H460.753V244.8ZM460.433 75.52V244.8H461.073V75.52H460.433ZM460.433 78.4001L461.394 78.4001L461.394 77.7601L460.433 77.7601L460.433 78.4001ZM460.433 78.7201L461.394 78.7201L461.394 78.0801L460.433 78.0801L460.433 78.7201ZM460.433 79.0401L461.394 79.0401L461.394 78.4001L460.433 78.4001L460.433 79.0401ZM460.433 79.3601L461.394 79.3601L461.394 78.7201L460.433 78.7201L460.433 79.3601ZM460.433 79.6801L461.394 79.6801L461.394 79.0401L460.433 79.0401L460.433 79.6801ZM460.433 80.0001L461.394 80.0001L461.394 79.3601L460.433 79.3601L460.433 80.0001ZM460.433 80.3201L461.394 80.3201L461.394 79.6801L460.433 79.6801L460.433 80.3201ZM460.113 80.6401L461.715 80.6401V80.0001L460.113 80.0001V80.6401ZM460.113 80.9601L461.715 80.9601V80.3201L460.113 80.3201V80.9601ZM460.113 81.2801L461.715 81.2801V80.6401L460.113 80.6401V81.2801ZM460.113 81.6001L461.715 81.6001V80.9601L460.113 80.9601V81.6001ZM460.113 81.9201L461.715 81.9201V81.2801L460.113 81.2801V81.9201ZM460.113 82.2401L461.715 82.2401V81.6001L460.113 81.6001V82.2401ZM460.113 82.5601L461.715 82.5601V81.9201L460.113 81.9201V82.5601ZM460.113 82.8801L461.715 82.8801V82.2401L460.113 82.2401V82.8801ZM459.792 83.2001L462.035 83.2001V82.5601L459.792 82.5601V83.2001ZM459.792 83.5201L462.035 83.5201V82.8801L459.792 82.8801V83.5201ZM459.792 83.8401L462.035 83.8401V83.2001L459.792 83.2001V83.8401ZM459.792 84.1601L462.035 84.1601V83.5201L459.792 83.5201V84.1601ZM459.792 84.4801L462.035 84.4801V83.8401L459.792 83.8401V84.4801ZM459.792 84.8001L462.035 84.8001V84.1601L459.792 84.1601V84.8001ZM459.792 85.1201L462.035 85.1201V84.4801L459.792 84.4801V85.1201ZM459.472 85.4401L462.355 85.4401V84.8001L459.472 84.8001V85.4401ZM459.472 85.7601L462.355 85.7601V85.1201L459.472 85.1201V85.7601ZM459.472 86.0801L462.355 86.0801V85.4401L459.472 85.4401V86.0801ZM459.472 86.4001L462.355 86.4001V85.7601L459.472 85.7601V86.4001ZM459.472 86.7201L462.355 86.7201V86.0801L459.472 86.0801V86.7201ZM459.472 87.0401L462.355 87.0401V86.4001L459.472 86.4001V87.0401ZM459.472 87.3601L462.355 87.3601V86.7201L459.472 86.7201V87.3601ZM459.151 87.6801L462.676 87.6801V87.0401L459.151 87.0401V87.6801ZM459.151 88.0001L462.676 88.0001V87.3601L459.151 87.3601V88.0001ZM459.151 88.3201L462.676 88.3201V87.6801L459.151 87.6801V88.3201ZM459.151 88.6401L462.676 88.6401V88.0001L459.151 88.0001V88.6401ZM459.151 88.9601L462.676 88.9601V88.3201L459.151 88.3201V88.9601ZM459.151 89.2801L462.676 89.2801V88.6401L459.151 88.6401V89.2801ZM459.151 89.6001L462.676 89.6001V88.9601L459.151 88.9601V89.6001ZM459.151 89.9201L462.676 89.9201V89.2801L459.151 89.2801V89.9201ZM458.831 90.2401L462.996 90.2401V89.6001L458.831 89.6001V90.2401ZM458.831 90.5601L462.996 90.5601V89.9201L458.831 89.9201V90.5601ZM458.831 90.8801L462.996 90.8801V90.2401L458.831 90.2401V90.8801ZM458.831 91.2001L462.996 91.2001V90.5601L458.831 90.5601V91.2001ZM458.831 91.5201H462.996V90.8801L458.831 90.8801V91.5201ZM458.831 91.8401H462.996V91.2001H458.831V91.8401ZM458.831 92.1601H462.996V91.5201H458.831V92.1601ZM458.511 92.4801H463.317V91.8401H458.511V92.4801ZM458.511 228.48H463.317V227.84H458.511V228.48ZM458.831 228.8H462.996V228.16H458.831V228.8ZM458.831 229.12H462.996V228.48H458.831V229.12ZM458.831 229.44H462.996V228.8H458.831V229.44ZM458.831 229.76H462.996V229.12H458.831V229.76ZM458.831 230.08H462.996V229.44H458.831V230.08ZM458.831 230.4L462.996 230.4V229.76L458.831 229.76V230.4ZM458.831 230.72H462.996V230.08H458.831V230.72ZM459.151 231.04L462.676 231.04V230.4L459.151 230.4V231.04ZM459.151 231.36H462.676V230.72H459.151V231.36ZM459.151 231.68L462.676 231.68V231.04L459.151 231.04V231.68ZM459.151 232H462.676V231.36H459.151V232ZM459.151 232.32L462.676 232.32V231.68L459.151 231.68V232.32ZM459.151 232.64H462.676V232H459.151V232.64ZM459.151 232.96L462.676 232.96V232.32L459.151 232.32V232.96ZM459.151 233.28H462.676V232.64H459.151V233.28ZM459.472 233.6L462.355 233.6V232.96L459.472 232.96V233.6ZM459.472 233.92H462.355V233.28H459.472V233.92ZM459.472 234.24L462.355 234.24V233.6L459.472 233.6V234.24ZM459.472 234.56L462.355 234.56V233.92L459.472 233.92V234.56ZM459.472 234.88H462.355V234.24H459.472V234.88ZM459.472 235.2L462.355 235.2V234.56L459.472 234.56V235.2ZM459.472 235.52H462.355V234.88H459.472V235.52ZM459.792 235.84L462.035 235.84L462.035 235.2L459.792 235.2L459.792 235.84ZM459.792 236.16H462.035V235.52H459.792V236.16ZM459.792 236.48L462.035 236.48L462.035 235.84L459.792 235.84L459.792 236.48ZM459.792 236.8H462.035V236.16H459.792V236.8ZM459.792 237.12L462.035 237.12L462.035 236.48L459.792 236.48L459.792 237.12ZM459.792 237.44H462.035V236.8H459.792V237.44ZM459.792 237.76L462.035 237.76L462.035 237.12L459.792 237.12L459.792 237.76ZM460.113 238.08L461.715 238.08L461.715 237.44L460.113 237.44L460.113 238.08ZM460.113 238.4L461.715 238.4L461.715 237.76L460.113 237.76L460.113 238.4ZM460.113 238.72L461.715 238.72L461.715 238.08L460.113 238.08L460.113 238.72ZM460.113 239.04L461.715 239.04L461.715 238.4L460.113 238.4L460.113 239.04ZM460.113 239.36L461.715 239.36L461.715 238.72L460.113 238.72L460.113 239.36ZM460.113 239.68L461.715 239.68L461.715 239.04L460.113 239.04L460.113 239.68ZM460.113 240L461.715 240L461.715 239.36L460.113 239.36L460.113 240ZM460.113 240.32L461.715 240.32L461.715 239.68L460.113 239.68L460.113 240.32ZM460.433 240.64L461.394 240.64L461.394 240L460.433 240L460.433 240.64ZM460.433 240.96L461.394 240.96L461.394 240.32L460.433 240.32L460.433 240.96ZM460.433 241.28L461.394 241.28L461.394 240.64L460.433 240.64L460.433 241.28ZM460.433 241.6L461.394 241.6L461.394 240.96L460.433 240.96L460.433 241.6ZM460.433 241.92L461.394 241.92L461.394 241.28L460.433 241.28L460.433 241.92ZM460.433 242.24L461.394 242.24L461.394 241.6L460.433 241.6L460.433 242.24ZM460.433 242.56L461.394 242.56L461.394 241.92L460.433 241.92L460.433 242.56Z" fill="white"/>
    </g>
    <!--    3 Dh-->
    <g class="group">
        <path d="M492.923 164.696V168.929L490.869 168.154V163.949C490.869 162.501 490.585 161.191 490.018 160.02C489.442 158.845 488.64 157.829 487.61 156.972C486.572 156.103 485.36 155.416 483.972 154.912L482.808 154.488C481.717 154.092 480.749 153.879 479.903 153.85C479.048 153.817 478.328 153.964 477.744 154.29C477.15 154.613 476.701 155.109 476.396 155.777C476.09 156.437 475.938 157.268 475.938 158.27V162.837L473.87 162.086V157.519C473.87 156.191 474.079 155.056 474.498 154.113C474.908 153.166 475.506 152.442 476.291 151.938C477.067 151.422 478.01 151.152 479.118 151.128C480.217 151.1 481.456 151.337 482.834 151.838L483.972 152.252C485.351 152.753 486.594 153.419 487.702 154.248C488.801 155.075 489.739 156.033 490.515 157.123C491.292 158.204 491.889 159.386 492.308 160.671C492.718 161.943 492.923 163.285 492.923 164.696ZM473.87 160.568L492.923 167.495V170.182L473.87 163.255V160.568Z" fill="white"/>
        <path d="M493.23 142.121L494.588 142.614V149.867L493.23 149.373V142.121ZM487.815 147.129L500.41 151.707V153.484L487.815 148.905V147.129ZM487.815 138.606L500.41 143.184V144.952L487.815 140.373V138.606Z" fill="white"/>
        <path d="M421.344 69.7601C421.167 69.7601 421.024 69.9033 421.024 70.0801C421.024 70.2568 421.167 70.4001 421.344 70.4001V69.7601ZM518.105 70.4001C518.282 70.4001 518.425 70.2568 518.425 70.0801C518.425 69.9033 518.282 69.7601 518.105 69.7601V70.4001ZM421.344 249.92C421.167 249.92 421.024 250.063 421.024 250.24C421.024 250.417 421.167 250.56 421.344 250.56V249.92ZM518.105 250.56C518.282 250.56 518.425 250.417 518.425 250.24C518.425 250.063 518.282 249.92 518.105 249.92V250.56ZM492.923 168.929L492.81 169.228C492.909 169.265 493.019 169.252 493.105 169.192C493.192 169.132 493.243 169.034 493.243 168.929H492.923ZM490.869 168.154H490.549C490.549 168.287 490.631 168.406 490.756 168.453L490.869 168.154ZM490.018 160.02L490.306 159.88L490.306 159.879L490.018 160.02ZM487.61 156.972L487.405 157.217L487.406 157.218L487.61 156.972ZM483.972 154.912L484.082 154.611L483.972 154.912ZM482.808 154.488L482.698 154.789L482.808 154.488ZM479.903 153.85L479.891 154.169L479.892 154.17L479.903 153.85ZM477.744 154.29L477.896 154.571L477.899 154.57L477.744 154.29ZM476.396 155.777L476.686 155.912L476.687 155.91L476.396 155.777ZM475.938 162.837L475.828 163.138C475.926 163.174 476.036 163.159 476.121 163.099C476.207 163.039 476.258 162.942 476.258 162.837H475.938ZM473.87 162.086H473.55C473.55 162.22 473.634 162.34 473.761 162.386L473.87 162.086ZM474.498 154.113L474.791 154.243L474.792 154.24L474.498 154.113ZM476.291 151.938L476.464 152.207L476.468 152.204L476.291 151.938ZM479.118 151.128L479.125 151.448L479.126 151.447L479.118 151.128ZM482.834 151.838L482.725 152.139L482.834 151.838ZM483.972 152.252L484.082 151.951L483.972 152.252ZM487.702 154.248L487.894 153.993L487.894 153.992L487.702 154.248ZM490.515 157.123L490.255 157.309L490.256 157.31L490.515 157.123ZM492.308 160.671L492.613 160.573L492.612 160.572L492.308 160.671ZM473.87 160.568L473.979 160.267C473.881 160.231 473.772 160.246 473.686 160.306C473.601 160.366 473.55 160.463 473.55 160.568H473.87ZM492.923 167.495H493.243C493.243 167.36 493.159 167.24 493.033 167.194L492.923 167.495ZM492.923 170.182L492.814 170.483C492.912 170.518 493.021 170.504 493.107 170.444C493.192 170.384 493.243 170.286 493.243 170.182H492.923ZM473.87 163.255H473.55C473.55 163.39 473.634 163.51 473.761 163.556L473.87 163.255ZM493.23 142.121L493.339 141.82C493.241 141.784 493.132 141.799 493.046 141.858C492.961 141.918 492.91 142.016 492.91 142.121H493.23ZM494.588 142.614H494.908C494.908 142.48 494.824 142.36 494.697 142.314L494.588 142.614ZM494.588 149.867L494.479 150.168C494.577 150.203 494.686 150.189 494.772 150.129C494.857 150.069 494.908 149.971 494.908 149.867H494.588ZM493.23 149.373H492.91C492.91 149.508 492.994 149.628 493.121 149.674L493.23 149.373ZM487.815 147.129L487.924 146.828C487.826 146.792 487.717 146.807 487.631 146.866C487.546 146.926 487.495 147.024 487.495 147.129H487.815ZM500.41 151.707H500.73C500.73 151.573 500.645 151.452 500.519 151.406L500.41 151.707ZM500.41 153.484L500.3 153.784C500.398 153.82 500.508 153.806 500.593 153.746C500.679 153.686 500.73 153.588 500.73 153.484H500.41ZM487.815 148.905H487.495C487.495 149.04 487.579 149.16 487.706 149.206L487.815 148.905ZM487.815 138.606L487.924 138.305C487.826 138.269 487.717 138.284 487.631 138.344C487.546 138.404 487.495 138.501 487.495 138.606H487.815ZM500.41 143.184H500.73C500.73 143.05 500.645 142.93 500.519 142.884L500.41 143.184ZM500.41 144.952L500.3 145.252C500.398 145.288 500.508 145.274 500.593 145.214C500.679 145.154 500.73 145.056 500.73 144.952H500.41ZM487.815 140.373H487.495C487.495 140.507 487.579 140.628 487.706 140.674L487.815 140.373ZM510.416 70.0801L510.733 70.037C510.711 69.8784 510.576 69.7601 510.416 69.7601C510.255 69.7601 510.12 69.8784 510.098 70.037L510.416 70.0801ZM512.979 88.9601L512.787 89.2162C512.89 89.2935 513.03 89.3013 513.141 89.2359C513.252 89.1706 513.313 89.0448 513.296 88.917L512.979 88.9601ZM507.852 88.96L507.535 88.917C507.518 89.0448 507.579 89.1705 507.69 89.2359C507.801 89.3013 507.941 89.2935 508.044 89.2162L507.852 88.96ZM510.416 250.24L510.098 250.283C510.12 250.442 510.255 250.56 510.416 250.56C510.576 250.56 510.711 250.442 510.733 250.283L510.416 250.24ZM507.852 231.36L508.044 231.104C507.941 231.027 507.801 231.019 507.69 231.084C507.579 231.15 507.518 231.275 507.535 231.403L507.852 231.36ZM512.979 231.36L513.296 231.403C513.313 231.275 513.252 231.15 513.141 231.084C513.03 231.019 512.89 231.027 512.787 231.104L512.979 231.36ZM421.344 70.4001H518.105V69.7601H421.344V70.4001ZM421.344 250.56H518.105V249.92H421.344V250.56ZM492.603 164.696V168.929H493.243V164.696H492.603ZM493.036 168.629L490.982 167.855L490.756 168.453L492.81 169.228L493.036 168.629ZM491.189 168.154V163.949H490.549V168.154H491.189ZM491.189 163.949C491.189 162.458 490.897 161.1 490.306 159.88L489.73 160.159C490.274 161.282 490.549 162.544 490.549 163.949H491.189ZM490.306 159.879C489.709 158.663 488.878 157.611 487.815 156.726L487.406 157.218C488.401 158.047 489.175 159.027 489.731 160.16L490.306 159.879ZM487.816 156.727C486.747 155.831 485.501 155.127 484.082 154.611L483.863 155.212C485.218 155.705 486.398 156.374 487.405 157.217L487.816 156.727ZM484.082 154.611L482.917 154.187L482.698 154.789L483.863 155.212L484.082 154.611ZM482.917 154.187C481.806 153.783 480.803 153.561 479.914 153.53L479.892 154.17C480.695 154.197 481.629 154.4 482.698 154.789L482.917 154.187ZM479.915 153.53C479.017 153.496 478.236 153.649 477.588 154.011L477.899 154.57C478.42 154.279 479.078 154.139 479.891 154.169L479.915 153.53ZM477.591 154.009C476.931 154.368 476.436 154.918 476.105 155.644L476.687 155.91C476.966 155.299 477.37 154.858 477.896 154.571L477.591 154.009ZM476.105 155.643C475.775 156.357 475.618 157.238 475.618 158.27H476.258C476.258 157.298 476.406 156.516 476.686 155.912L476.105 155.643ZM475.618 158.27V162.837H476.258V158.27H475.618ZM476.047 162.536L473.979 161.785L473.761 162.386L475.828 163.138L476.047 162.536ZM474.19 162.086V157.519H473.55V162.086H474.19ZM474.19 157.519C474.19 156.224 474.394 155.135 474.791 154.243L474.206 153.983C473.764 154.977 473.55 156.159 473.55 157.519H474.19ZM474.792 154.24C475.179 153.346 475.738 152.673 476.464 152.207L476.118 151.669C475.274 152.21 474.637 152.987 474.205 153.986L474.792 154.24ZM476.468 152.204C477.185 151.728 478.066 151.471 479.125 151.448L479.111 150.808C477.954 150.833 476.95 151.116 476.114 151.671L476.468 152.204ZM479.126 151.447C480.174 151.421 481.372 151.647 482.725 152.139L482.943 151.537C481.539 151.027 480.26 150.779 479.11 150.808L479.126 151.447ZM482.725 152.139L483.863 152.553L484.082 151.951L482.943 151.537L482.725 152.139ZM483.863 152.553C485.214 153.044 486.429 153.695 487.51 154.505L487.894 153.992C486.759 153.143 485.488 152.463 484.082 151.951L483.863 152.553ZM487.51 154.504C488.583 155.312 489.498 156.246 490.255 157.309L490.776 156.937C489.98 155.82 489.019 154.838 487.894 153.993L487.51 154.504ZM490.256 157.31C491.012 158.363 491.595 159.516 492.004 160.77L492.612 160.572C492.184 159.256 491.571 158.044 490.775 156.936L490.256 157.31ZM492.004 160.769C492.403 162.008 492.603 163.316 492.603 164.696H493.243C493.243 163.253 493.034 161.879 492.613 160.573L492.004 160.769ZM473.761 160.869L492.814 167.795L493.033 167.194L473.979 160.267L473.761 160.869ZM492.603 167.495V170.182H493.243V167.495H492.603ZM493.033 169.881L473.979 162.954L473.761 163.556L492.814 170.483L493.033 169.881ZM474.19 163.255V160.568H473.55V163.255H474.19ZM493.121 142.421L494.479 142.915L494.697 142.314L493.339 141.82L493.121 142.421ZM494.268 142.614V149.867H494.908V142.614H494.268ZM494.697 149.566L493.339 149.073L493.121 149.674L494.479 150.168L494.697 149.566ZM493.55 149.373V142.121H492.91V149.373H493.55ZM487.706 147.429L500.3 152.008L500.519 151.406L487.924 146.828L487.706 147.429ZM500.09 151.707V153.484H500.73V151.707H500.09ZM500.519 153.183L487.924 148.604L487.706 149.206L500.3 153.784L500.519 153.183ZM488.135 148.905V147.129H487.495V148.905H488.135ZM487.706 138.906L500.3 143.485L500.519 142.884L487.924 138.305L487.706 138.906ZM500.09 143.184V144.952H500.73V143.184H500.09ZM500.519 144.651L487.924 140.072L487.706 140.674L500.3 145.252L500.519 144.651ZM488.135 140.373V138.606H487.495V140.373H488.135ZM510.098 70.1231L512.662 89.0031L513.296 88.917L510.733 70.037L510.098 70.1231ZM513.171 88.704L510.607 86.7839L510.224 87.2962L512.787 89.2162L513.171 88.704ZM510.224 86.7839L507.661 88.7039L508.044 89.2162L510.607 87.2962L510.224 86.7839ZM508.169 89.0031L510.733 70.1231L510.098 70.037L507.535 88.917L508.169 89.0031ZM510.416 70.72H510.736V70.08H510.416V70.72ZM510.416 71.04H510.736V70.4H510.416V71.04ZM510.416 71.36H510.736V70.72H510.416V71.36ZM510.416 71.68H510.736V71.04H510.416V71.68ZM510.416 72H510.736V71.36H510.416V72ZM510.416 72.32H510.736V71.68H510.416V72.32ZM510.416 72.64H510.736V72H510.416V72.64ZM510.416 87.36L512.979 87.36V86.72L510.416 86.72V87.36ZM511.056 87.68H512.979V87.04H511.056V87.68ZM511.377 88H512.979V87.36H511.377V88ZM511.697 88.32H512.979V87.68H511.697V88.32ZM512.338 88.64H512.979V88H512.338V88.64ZM512.658 88.96H512.979V88.32H512.658V88.96ZM508.173 87.36L510.416 87.36V86.72L508.173 86.72V87.36ZM508.173 87.68H510.095V87.04H508.173V87.68ZM508.173 88H509.775V87.36H508.173V88ZM508.173 88.32H509.134V87.68H508.173V88.32ZM508.173 88.64H508.814V88H508.173V88.64ZM508.173 88.96H508.493V88.32H508.173V88.96ZM510.733 250.197L508.169 231.317L507.535 231.403L510.098 250.283L510.733 250.197ZM507.661 231.616L510.224 233.536L510.607 233.024L508.044 231.104L507.661 231.616ZM510.607 233.536L513.171 231.616L512.787 231.104L510.224 233.024L510.607 233.536ZM512.662 231.317L510.098 250.197L510.733 250.283L513.296 231.403L512.662 231.317ZM508.173 232H508.493V231.36H508.173V232ZM508.173 232.32H508.814V231.68H508.173V232.32ZM508.173 232.64H509.134V232H508.173V232.64ZM508.173 232.96H509.775V232.32H508.173V232.96ZM508.173 233.28H510.095V232.64H508.173V233.28ZM508.173 233.6H510.416V232.96H508.173V233.6ZM512.658 232H512.979V231.36H512.658V232ZM512.338 232.32H512.979V231.68H512.338V232.32ZM511.697 232.64H512.979V232H511.697V232.64ZM511.377 232.96H512.979V232.32H511.377V232.96ZM511.056 233.28H512.979V232.64H511.056V233.28ZM510.416 233.6H512.979V232.96H510.416V233.6ZM510.416 248.32H510.736V247.68H510.416V248.32ZM510.416 248.64H510.736V248H510.416V248.64ZM510.416 248.96H510.736V248.32H510.416V248.96ZM510.416 249.28H510.736V248.64H510.416V249.28ZM510.416 249.6H510.736V248.96H510.416V249.6ZM510.416 249.92H510.736V249.28H510.416V249.92ZM510.416 250.24H510.736V249.6H510.416V250.24ZM510.096 70.0801V250.24H510.736V70.0801H510.096ZM510.095 72.96L511.056 72.96V72.32L510.095 72.32V72.96ZM510.095 73.28L511.056 73.28V72.64L510.095 72.64V73.28ZM510.095 73.6L511.056 73.6V72.96L510.095 72.96V73.6ZM510.095 73.92L511.056 73.92V73.28L510.095 73.28V73.92ZM510.095 74.24L511.056 74.24V73.6L510.095 73.6V74.24ZM510.095 74.56L511.056 74.56V73.92L510.095 73.92V74.56ZM510.095 74.88L511.056 74.88V74.24L510.095 74.24V74.88ZM509.775 75.2L511.377 75.2V74.56L509.775 74.56V75.2ZM509.775 75.52L511.377 75.52V74.88L509.775 74.88V75.52ZM509.775 75.84L511.377 75.84V75.2L509.775 75.2V75.84ZM509.775 76.16L511.377 76.16V75.52L509.775 75.52V76.16ZM509.775 76.48L511.377 76.48V75.84L509.775 75.84V76.48ZM509.775 76.8L511.377 76.8V76.16L509.775 76.16V76.8ZM509.775 77.12L511.377 77.12V76.48L509.775 76.48V77.12ZM509.775 77.44L511.377 77.44V76.8L509.775 76.8V77.44ZM509.454 77.76L511.697 77.76V77.12L509.454 77.12V77.76ZM509.454 78.08L511.697 78.08V77.44L509.454 77.44V78.08ZM509.454 78.4L511.697 78.4V77.76L509.454 77.76V78.4ZM509.454 78.72L511.697 78.72V78.08L509.454 78.08V78.72ZM509.454 79.04L511.697 79.04V78.4L509.454 78.4V79.04ZM509.454 79.36L511.697 79.36V78.72L509.454 78.72V79.36ZM509.454 79.68L511.697 79.68V79.04L509.454 79.04V79.68ZM509.134 80L512.018 80V79.36L509.134 79.36V80ZM509.134 80.32L512.018 80.32V79.68L509.134 79.68V80.32ZM509.134 80.64L512.018 80.64V80L509.134 80V80.64ZM509.134 80.96L512.018 80.96V80.32L509.134 80.32V80.96ZM509.134 81.28L512.018 81.28V80.64L509.134 80.64V81.28ZM509.134 81.6L512.018 81.6V80.96L509.134 80.96V81.6ZM509.134 81.92L512.018 81.92V81.28L509.134 81.28V81.92ZM508.814 82.24L512.338 82.24V81.6L508.814 81.6V82.24ZM508.814 82.56L512.338 82.56V81.92L508.814 81.92V82.56ZM508.814 82.88L512.338 82.88V82.24L508.814 82.24V82.88ZM508.814 83.2L512.338 83.2V82.56L508.814 82.56V83.2ZM508.814 83.52L512.338 83.52V82.88L508.814 82.88V83.52ZM508.814 83.84L512.338 83.84V83.2L508.814 83.2V83.84ZM508.814 84.16L512.338 84.16V83.52L508.814 83.52V84.16ZM508.814 84.48L512.338 84.48V83.84L508.814 83.84V84.48ZM508.493 84.8L512.658 84.8V84.16L508.493 84.16V84.8ZM508.493 85.12L512.658 85.12V84.48L508.493 84.48V85.12ZM508.493 85.44L512.658 85.44V84.8L508.493 84.8V85.44ZM508.493 85.76L512.658 85.76V85.12L508.493 85.12V85.76ZM508.493 86.08L512.658 86.08V85.44L508.493 85.44V86.08ZM508.493 86.4H512.658V85.76L508.493 85.76V86.4ZM508.493 86.72H512.658V86.08H508.493V86.72ZM508.173 87.04H512.979V86.4H508.173V87.04ZM508.173 233.92H512.979V233.28H508.173V233.92ZM508.493 234.24H512.658V233.6H508.493V234.24ZM508.493 234.56H512.658V233.92H508.493V234.56ZM508.493 234.88H512.658V234.24H508.493V234.88ZM508.493 235.2H512.658V234.56H508.493V235.2ZM508.493 235.52H512.658V234.88H508.493V235.52ZM508.493 235.84L512.658 235.84V235.2L508.493 235.2V235.84ZM508.493 236.16H512.658V235.52H508.493V236.16ZM508.814 236.48L512.338 236.48V235.84L508.814 235.84V236.48ZM508.814 236.8H512.338V236.16H508.814V236.8ZM508.814 237.12L512.338 237.12V236.48L508.814 236.48V237.12ZM508.814 237.44H512.338V236.8H508.814V237.44ZM508.814 237.76L512.338 237.76V237.12L508.814 237.12V237.76ZM508.814 238.08H512.338V237.44H508.814V238.08ZM508.814 238.4L512.338 238.4V237.76L508.814 237.76V238.4ZM508.814 238.72H512.338V238.08H508.814V238.72ZM509.134 239.04L512.018 239.04V238.4L509.134 238.4V239.04ZM509.134 239.36H512.018V238.72H509.134V239.36ZM509.134 239.68L512.018 239.68V239.04L509.134 239.04V239.68ZM509.134 240L512.018 240V239.36L509.134 239.36V240ZM509.134 240.32H512.018V239.68H509.134V240.32ZM509.134 240.64L512.018 240.64V240L509.134 240V240.64ZM509.134 240.96H512.018V240.32H509.134V240.96ZM509.454 241.28L511.697 241.28V240.64L509.454 240.64V241.28ZM509.454 241.6H511.697V240.96H509.454V241.6ZM509.454 241.92L511.697 241.92V241.28L509.454 241.28V241.92ZM509.454 242.24H511.697V241.6H509.454V242.24ZM509.454 242.56L511.697 242.56V241.92L509.454 241.92V242.56ZM509.454 242.88H511.697V242.24H509.454V242.88ZM509.454 243.2L511.697 243.2V242.56L509.454 242.56V243.2ZM509.775 243.52L511.377 243.52V242.88L509.775 242.88V243.52ZM509.775 243.84L511.377 243.84V243.2L509.775 243.2V243.84ZM509.775 244.16L511.377 244.16V243.52L509.775 243.52V244.16ZM509.775 244.48L511.377 244.48V243.84L509.775 243.84V244.48ZM509.775 244.8L511.377 244.8V244.16L509.775 244.16V244.8ZM509.775 245.12L511.377 245.12V244.48L509.775 244.48V245.12ZM509.775 245.44L511.377 245.44V244.8L509.775 244.8V245.44ZM509.775 245.76L511.377 245.76V245.12L509.775 245.12V245.76ZM510.095 246.08L511.056 246.08L511.056 245.44L510.095 245.44L510.095 246.08ZM510.095 246.4L511.056 246.4L511.056 245.76L510.095 245.76L510.095 246.4ZM510.095 246.72L511.056 246.72L511.056 246.08L510.095 246.08L510.095 246.72ZM510.095 247.04L511.056 247.04L511.056 246.4L510.095 246.4L510.095 247.04ZM510.095 247.36L511.056 247.36L511.056 246.72L510.095 246.72L510.095 247.36ZM510.095 247.68L511.056 247.68L511.056 247.04L510.095 247.04L510.095 247.68ZM510.095 248L511.056 248L511.056 247.36L510.095 247.36L510.095 248Z" fill="white"/>
    </g>
    <!--    4 D1-->
    <g class="group">
    </g>
    <!--    5 D2-->
    <g class="group">
    </g>
    <!--    6 d-->
    <g class="group">
    </g>
    <!--    7 dH-->
    <g class="group">
    </g>
    <!--    8 d1-->
    <g class="group">
    </g>
    <!--    9 d2-->
    <g class="group">
    </g>
    <!--    10 L-->
    <g class="group">
        <path d="M247.309 272.158L246.56 274.212H236.424L237.172 272.158H247.309ZM243.895 255.164L236.953 274.212H234.266L241.208 255.164H243.895Z" fill="white"/>
        <path d="M65.378 262.08C65.378 261.903 65.2348 261.76 65.058 261.76C64.8813 261.76 64.738 261.903 64.738 262.08H65.378ZM64.738 294.72C64.738 294.897 64.8813 295.04 65.058 295.04C65.2348 295.04 65.378 294.897 65.378 294.72H64.738ZM413.334 262.08C413.334 261.903 413.19 261.76 413.014 261.76C412.837 261.76 412.694 261.903 412.694 262.08H413.334ZM412.694 294.72C412.694 294.897 412.837 295.04 413.014 295.04C413.19 295.04 413.334 294.897 413.334 294.72H412.694ZM247.309 272.158L247.61 272.267C247.645 272.169 247.631 272.06 247.571 271.974C247.511 271.889 247.413 271.838 247.309 271.838V272.158ZM246.56 274.212V274.532C246.695 274.532 246.815 274.448 246.861 274.321L246.56 274.212ZM236.424 274.212L236.123 274.102C236.087 274.2 236.102 274.31 236.162 274.395C236.222 274.481 236.319 274.532 236.424 274.532V274.212ZM237.172 272.158V271.838C237.038 271.838 236.918 271.922 236.872 272.048L237.172 272.158ZM243.895 255.164L244.196 255.274C244.231 255.176 244.217 255.066 244.157 254.981C244.097 254.895 243.999 254.844 243.895 254.844V255.164ZM236.953 274.212V274.532C237.087 274.532 237.208 274.448 237.254 274.321L236.953 274.212ZM234.266 274.212L233.965 274.102C233.929 274.2 233.944 274.31 234.003 274.395C234.063 274.481 234.161 274.532 234.266 274.532V274.212ZM241.208 255.164V254.844C241.073 254.844 240.953 254.928 240.907 255.055L241.208 255.164ZM65.058 287.04L65.0151 286.723C64.8564 286.744 64.738 286.88 64.738 287.04C64.738 287.2 64.8564 287.336 65.0151 287.357L65.058 287.04ZM83.9617 284.48L84.2176 284.672C84.2951 284.569 84.303 284.429 84.2377 284.318C84.1724 284.207 84.0466 284.146 83.9188 284.163L83.9617 284.48ZM83.9617 289.6L83.9188 289.917C84.0467 289.934 84.1724 289.873 84.2377 289.762C84.303 289.651 84.2951 289.511 84.2176 289.408L83.9617 289.6ZM413.014 287.04L413.057 287.357C413.215 287.336 413.334 287.2 413.334 287.04C413.334 286.88 413.215 286.744 413.057 286.723L413.014 287.04ZM394.11 289.6L393.839 289.43C393.773 289.536 393.774 289.669 393.841 289.774C393.908 289.878 394.03 289.934 394.153 289.917L394.11 289.6ZM394.11 284.48L394.153 284.163C394.03 284.146 393.908 284.202 393.841 284.307C393.774 284.411 393.773 284.545 393.839 284.65L394.11 284.48ZM64.738 262.08V294.72H65.378V262.08H64.738ZM412.694 262.08V294.72H413.334V262.08H412.694ZM247.008 272.048L246.26 274.102L246.861 274.321L247.61 272.267L247.008 272.048ZM246.56 273.892H236.424V274.532H246.56V273.892ZM236.724 274.321L237.473 272.267L236.872 272.048L236.123 274.102L236.724 274.321ZM237.172 272.478H247.309V271.838H237.172V272.478ZM243.594 255.055L236.652 274.102L237.254 274.321L244.196 255.274L243.594 255.055ZM236.953 273.892H234.266V274.532H236.953V273.892ZM234.566 274.321L241.508 255.274L240.907 255.055L233.965 274.102L234.566 274.321ZM241.208 255.484H243.895V254.844H241.208V255.484ZM65.101 287.357L84.0047 284.797L83.9188 284.163L65.0151 286.723L65.101 287.357ZM83.7058 284.288L81.7834 286.848L82.2952 287.232L84.2176 284.672L83.7058 284.288ZM81.7834 287.232L83.7058 289.792L84.2176 289.408L82.2952 286.848L81.7834 287.232ZM84.0047 289.283L65.101 286.723L65.0151 287.357L83.9188 289.917L84.0047 289.283ZM81.7189 285.12H83.9617V284.48H81.7189V285.12ZM79.4761 285.44H83.6413V284.8H79.4761V285.44ZM76.9129 285.76H83.3209V285.12H76.9129V285.76ZM74.67 286.08H83.0005V285.44H74.67V286.08ZM72.4272 286.4H83.0005V285.76H72.4272V286.4ZM69.864 286.72H82.6801V286.08H69.864V286.72ZM67.6212 287.04H82.3597V286.4H67.6212V287.04ZM65.058 287.36H82.0393V286.72H65.058V287.36ZM67.6213 287.68H82.3597V287.04H67.6213V287.68ZM69.8641 288H82.6801V287.36H69.8641V288ZM72.4273 288.32H83.0005V287.68H72.4273V288.32ZM74.6701 288.64H83.0005V288H74.6701V288.64ZM76.9129 288.96H83.3209V288.32H76.9129V288.96ZM79.4761 289.28H83.6413V288.64H79.4761V289.28ZM81.7189 289.6H83.9617V288.96H81.7189V289.6ZM412.971 286.723L394.067 289.283L394.153 289.917L413.057 287.357L412.971 286.723ZM394.381 289.77L395.983 287.21L395.441 286.87L393.839 289.43L394.381 289.77ZM395.983 286.87L394.381 284.31L393.839 284.65L395.441 287.21L395.983 286.87ZM394.067 284.797L412.971 287.357L413.057 286.723L394.153 284.163L394.067 284.797ZM395.712 287.36H413.014V286.72H395.712V287.36ZM395.712 287.68H410.771V287.04H395.712V287.68ZM395.392 288H408.528V287.36H395.392V288ZM395.392 288.32H405.965V287.68H395.392V288.32ZM395.071 288.64H403.722V288H395.071V288.64ZM394.751 288.96H401.479V288.32H394.751V288.96ZM394.751 289.28H398.916V288.64H394.751V289.28ZM394.43 289.6H396.673V288.96H394.43V289.6ZM394.43 285.12H396.673V284.48H394.43V285.12ZM394.751 285.44H398.916V284.8H394.751V285.44ZM394.751 285.76H401.479V285.12H394.751V285.76ZM395.071 286.08H403.722V285.44H395.071V286.08ZM395.392 286.4H405.965V285.76H395.392V286.4ZM395.392 286.72H408.528V286.08H395.392V286.72ZM395.712 287.04H410.771V286.4H395.712V287.04ZM65.058 287.36H413.014V286.72H65.058V287.36Z" fill="white"/>
    </g>
    <!--    11 L1-->
    <g class="group">
    </g>
    <!--    12 L2-->
    <g class="group">
    </g>
    <!--    13 S-->
    <g class="group">
        <path d="M11.1174 109.228C10.7684 109.101 10.4457 109.068 10.149 109.127C9.8437 109.174 9.56889 109.403 9.32462 109.816C9.07163 110.216 8.85353 110.879 8.67032 111.806C8.50457 112.581 8.30828 113.266 8.08145 113.861C7.85463 114.447 7.57983 114.918 7.25704 115.274C6.93425 115.621 6.55476 115.84 6.11856 115.932C5.68236 116.024 5.17201 115.964 4.5875 115.752C4.02916 115.549 3.50136 115.227 3.0041 114.786C2.50683 114.336 2.06627 113.8 1.68241 113.178C1.29856 112.546 0.99758 111.847 0.779481 111.081C0.561381 110.315 0.452332 109.51 0.452332 108.665C0.452332 107.458 0.652983 106.501 1.05429 105.793C1.45559 105.084 1.99211 104.625 2.66386 104.414C3.32688 104.201 4.06406 104.241 4.87539 104.536V107.112C4.48281 106.969 4.10332 106.957 3.73691 107.074C3.36178 107.179 3.05208 107.424 2.80781 107.809C2.56354 108.184 2.4414 108.71 2.4414 109.388C2.4414 110.103 2.54609 110.721 2.75546 111.243C2.95611 111.752 3.21347 112.166 3.52754 112.484C3.8416 112.793 4.17311 113.011 4.52207 113.138C4.78379 113.233 5.01934 113.272 5.22871 113.256C5.42936 113.227 5.61693 113.118 5.79141 112.931C5.95716 112.741 6.1142 112.445 6.2625 112.044C6.41081 111.643 6.55912 111.117 6.70743 110.465C6.96915 109.326 7.28321 108.424 7.64962 107.759C8.01602 107.094 8.46531 106.663 8.99747 106.466C9.52964 106.27 10.1752 106.31 10.9342 106.586C11.5536 106.811 12.1207 107.156 12.6354 107.622C13.1501 108.078 13.595 108.634 13.9701 109.291C14.3365 109.934 14.6244 110.652 14.8338 111.443C15.0345 112.221 15.1348 113.051 15.1348 113.933C15.1348 115.26 14.9123 116.303 14.4674 117.06C14.0225 117.817 13.4467 118.304 12.7401 118.521C12.0334 118.737 11.2875 118.703 10.5024 118.417V115.827C11.1654 116.031 11.6932 116.019 12.0858 115.79C12.4696 115.559 12.7444 115.204 12.9102 114.725C13.0672 114.244 13.1457 113.739 13.1457 113.21C13.1457 112.504 13.0585 111.883 12.884 111.346C12.7095 110.8 12.4696 110.346 12.1643 109.985C11.8589 109.623 11.51 109.371 11.1174 109.228Z" fill="white"/>
        <path d="M53.5236 75.84C53.7003 75.84 53.8436 75.6968 53.8436 75.52C53.8436 75.3433 53.7003 75.2 53.5236 75.2V75.84ZM20.2019 75.2C20.0252 75.2 19.8819 75.3433 19.8819 75.52C19.8819 75.6968 20.0252 75.84 20.2019 75.84V75.2ZM53.5236 79.04C53.7003 79.04 53.8436 78.8967 53.8436 78.72C53.8436 78.5432 53.7003 78.4 53.5236 78.4V79.04ZM20.2019 78.4C20.0252 78.4 19.8819 78.5432 19.8819 78.72C19.8819 78.8967 20.0252 79.04 20.2019 79.04V78.4ZM27.2511 129.92C27.2511 130.097 27.3944 130.24 27.5711 130.24C27.7478 130.24 27.8911 130.097 27.8911 129.92H27.2511ZM11.1174 109.228L11.2267 108.927L11.1174 109.228ZM10.149 109.127L10.1975 109.443C10.2023 109.442 10.207 109.442 10.2117 109.441L10.149 109.127ZM9.32462 109.816L9.59518 109.987L9.59996 109.979L9.32462 109.816ZM8.67032 111.806L8.98329 111.873L8.98425 111.868L8.67032 111.806ZM8.08145 113.861L8.37988 113.977L8.38048 113.975L8.08145 113.861ZM7.25704 115.274L7.49129 115.492L7.49412 115.489L7.25704 115.274ZM4.5875 115.752L4.69683 115.451L4.5875 115.752ZM3.0041 114.786L2.78938 115.023L2.79186 115.026L3.0041 114.786ZM1.68241 113.178L1.40896 113.344L1.41007 113.346L1.68241 113.178ZM2.66386 104.414L2.75961 104.72L2.76207 104.719L2.66386 104.414ZM4.87539 104.536H5.19539C5.19539 104.402 5.1112 104.281 4.98472 104.235L4.87539 104.536ZM4.87539 107.112L4.76606 107.413C4.86416 107.449 4.97349 107.434 5.05898 107.374C5.14448 107.314 5.19539 107.217 5.19539 107.112H4.87539ZM3.73691 107.074L3.8232 107.383L3.83457 107.379L3.73691 107.074ZM2.80781 107.809L3.07602 107.983L3.07793 107.98L2.80781 107.809ZM2.75546 111.243L3.05319 111.125L3.05244 111.123L2.75546 111.243ZM3.52754 112.484L3.29969 112.709L3.30307 112.712L3.52754 112.484ZM4.52207 113.138L4.6314 112.837L4.52207 113.138ZM5.22871 113.256L5.25417 113.575C5.26105 113.574 5.26791 113.573 5.27474 113.572L5.22871 113.256ZM5.79141 112.931L6.02563 113.149L6.03275 113.141L5.79141 112.931ZM6.70743 110.465L6.39555 110.394L6.39541 110.394L6.70743 110.465ZM10.9342 106.586L10.8249 106.886L10.9342 106.586ZM12.6354 107.622L12.4207 107.859L12.4231 107.861L12.6354 107.622ZM13.9701 109.291L14.2483 109.132L14.248 109.132L13.9701 109.291ZM14.8338 111.443L15.1437 111.363L15.1432 111.361L14.8338 111.443ZM10.5024 118.417H10.1824C10.1824 118.552 10.2666 118.672 10.393 118.718L10.5024 118.417ZM10.5024 115.827L10.5964 115.521C10.4994 115.492 10.3939 115.51 10.3122 115.57C10.2306 115.63 10.1824 115.726 10.1824 115.827H10.5024ZM12.0858 115.79L12.2468 116.067L12.2512 116.064L12.0858 115.79ZM12.9102 114.725L13.2126 114.83L13.2144 114.825L12.9102 114.725ZM12.884 111.346L12.5792 111.444L12.5797 111.445L12.884 111.346ZM30.1343 56.64L30.4514 56.6831C30.4687 56.5552 30.4076 56.4295 30.2964 56.3641C30.1852 56.2988 30.0457 56.3066 29.9424 56.3839L30.1343 56.64ZM25.3283 56.64L25.5364 56.3969C25.4363 56.3112 25.2938 56.2957 25.1775 56.3577C25.0613 56.4198 24.995 56.5469 25.0105 56.6778L25.3283 56.64ZM27.8911 48.9601C27.8911 48.7834 27.7478 48.6401 27.5711 48.6401C27.3944 48.6401 27.2511 48.7834 27.2511 48.9601H27.8911ZM25.3283 97.6L25.0105 97.5622C24.995 97.6931 25.0613 97.8201 25.1775 97.8822C25.2938 97.9443 25.4363 97.9288 25.5364 97.8431L25.3283 97.6ZM27.5711 95.6801L27.5711 95.3601H27.5711L27.5711 95.6801ZM30.1343 97.6001L29.9424 97.8562C30.0457 97.9335 30.1852 97.9413 30.2964 97.8759C30.4076 97.8106 30.4687 97.6848 30.4514 97.557L30.1343 97.6001ZM27.2511 105.28C27.2511 105.457 27.3944 105.6 27.5711 105.6C27.7478 105.6 27.8911 105.457 27.8911 105.28H27.2511ZM53.5236 75.2H20.2019V75.84H53.5236V75.2ZM53.5236 78.4H20.2019V79.04H53.5236V78.4ZM11.2267 108.927C10.8352 108.785 10.4522 108.74 10.0864 108.813L10.2117 109.441C10.4391 109.395 10.7017 109.418 11.0081 109.529L11.2267 108.927ZM10.1006 108.81C9.65809 108.878 9.31528 109.203 9.04929 109.653L9.59996 109.979C9.82251 109.603 10.0293 109.469 10.1975 109.443L10.1006 108.81ZM9.05418 109.645C8.76812 110.097 8.54118 110.809 8.3564 111.744L8.98425 111.868C9.16587 110.949 9.37513 110.334 9.59507 109.987L9.05418 109.645ZM8.3574 111.739C8.19428 112.502 8.00222 113.17 7.78243 113.747L8.38048 113.975C8.61434 113.361 8.81486 112.66 8.98325 111.873L8.3574 111.739ZM7.78304 113.746C7.56626 114.306 7.30965 114.74 7.01996 115.059L7.49412 115.489C7.85 115.096 8.143 114.589 8.37987 113.977L7.78304 113.746ZM7.02281 115.056C6.74196 115.358 6.42002 115.542 6.05248 115.619L6.18463 116.245C6.68949 116.139 7.12654 115.884 7.49127 115.492L7.02281 115.056ZM6.05248 115.619C5.69352 115.695 5.24643 115.651 4.69683 115.451L4.47817 116.052C5.09759 116.278 5.6712 116.354 6.18463 116.245L6.05248 115.619ZM4.69683 115.451C4.18057 115.263 3.68702 114.964 3.21634 114.547L2.79186 115.026C3.31571 115.49 3.87775 115.834 4.47817 116.052L4.69683 115.451ZM3.21881 114.549C2.74584 114.121 2.32418 113.609 1.95476 113.01L1.41007 113.346C1.80835 113.991 2.26782 114.551 2.78939 115.023L3.21881 114.549ZM1.95586 113.012C1.58804 112.406 1.2981 111.734 1.08725 110.994L0.471707 111.169C0.69706 111.961 1.00908 112.686 1.40896 113.344L1.95586 113.012ZM1.08725 110.994C0.877742 110.258 0.772332 109.482 0.772332 108.665H0.132332C0.132332 109.537 0.245021 110.372 0.471707 111.169L1.08725 110.994ZM0.772332 108.665C0.772332 107.489 0.968705 106.593 1.33269 105.95L0.775886 105.635C0.337261 106.409 0.132332 107.428 0.132332 108.665H0.772332ZM1.33269 105.95C1.70069 105.301 2.17729 104.902 2.75961 104.72L2.56812 104.109C1.80694 104.348 1.21049 104.868 0.775886 105.635L1.33269 105.95ZM2.76207 104.719C3.34254 104.532 4.00522 104.56 4.76606 104.837L4.98472 104.235C4.1229 103.922 3.31123 103.869 2.56565 104.11L2.76207 104.719ZM4.55539 104.536V107.112H5.19539V104.536H4.55539ZM4.98472 106.811C4.53157 106.647 4.0791 106.628 3.63925 106.769L3.83457 107.379C4.12754 107.285 4.43406 107.292 4.76606 107.413L4.98472 106.811ZM3.65068 106.766C3.18683 106.896 2.81667 107.198 2.53768 107.637L3.07793 107.98C3.28749 107.65 3.53673 107.462 3.82314 107.382L3.65068 106.766ZM2.53961 107.634C2.24834 108.082 2.1214 108.678 2.1214 109.388H2.7614C2.7614 108.743 2.87873 108.286 3.07601 107.983L2.53961 107.634ZM2.1214 109.388C2.1214 110.133 2.23039 110.794 2.45849 111.362L3.05244 111.123C2.86178 110.648 2.7614 110.073 2.7614 109.388H2.1214ZM2.45774 111.36C2.67076 111.901 2.94938 112.354 3.29972 112.709L3.75535 112.259C3.47757 111.978 3.24146 111.603 3.05318 111.125L2.45774 111.36ZM3.30307 112.712C3.64382 113.048 4.01332 113.294 4.41274 113.439L4.6314 112.837C4.3329 112.729 4.03938 112.539 3.752 112.256L3.30307 112.712ZM4.41274 113.439C4.70418 113.545 4.98674 113.596 5.25417 113.575L5.20326 112.937C5.05193 112.949 4.8634 112.922 4.6314 112.837L4.41274 113.439ZM5.27474 113.572C5.56462 113.53 5.81464 113.376 6.0255 113.149L5.55732 112.713C5.41922 112.861 5.29411 112.923 5.18269 112.939L5.27474 113.572ZM6.03275 113.141C6.23562 112.908 6.40888 112.571 6.56263 112.155L5.96238 111.933C5.81951 112.319 5.67871 112.573 5.55007 112.721L6.03275 113.141ZM6.56263 112.155C6.71766 111.736 6.86956 111.195 7.01945 110.536L6.39541 110.394C6.24868 111.039 6.10396 111.55 5.96238 111.933L6.56263 112.155ZM7.01931 110.537C7.27755 109.413 7.58333 108.542 7.9299 107.913L7.36934 107.604C6.98309 108.305 6.66074 109.239 6.39555 110.394L7.01931 110.537ZM7.9299 107.913C8.27188 107.292 8.66966 106.928 9.10827 106.767L8.88668 106.166C8.26096 106.397 7.76017 106.895 7.36934 107.604L7.9299 107.913ZM9.10827 106.767C9.54457 106.606 10.1073 106.626 10.8249 106.886L11.0435 106.285C10.2431 105.994 9.51471 105.934 8.88668 106.166L9.10827 106.767ZM10.8249 106.886C11.4033 107.097 11.935 107.42 12.4207 107.859L12.85 107.385C12.3063 106.893 11.7039 106.525 11.0435 106.285L10.8249 106.886ZM12.4231 107.861C12.9093 108.292 13.3328 108.821 13.6923 109.449L14.248 109.132C13.8572 108.448 13.3909 107.864 12.8477 107.382L12.4231 107.861ZM13.692 109.449C14.0434 110.066 14.3214 110.758 14.5245 111.524L15.1432 111.361C14.9274 110.546 14.6297 109.802 14.2482 109.132L13.692 109.449ZM14.5239 111.522C14.7173 112.272 14.8148 113.075 14.8148 113.933H15.4548C15.4548 113.027 15.3517 112.17 15.1437 111.363L14.5239 111.522ZM14.8148 113.933C14.8148 115.23 14.5964 116.209 14.1915 116.898L14.7433 117.222C15.2282 116.397 15.4548 115.29 15.4548 113.933H14.8148ZM14.1915 116.898C13.7791 117.6 13.2624 118.026 12.6463 118.215L12.8338 118.827C13.6311 118.582 14.2659 118.035 14.7433 117.222L14.1915 116.898ZM12.6463 118.215C12.0147 118.408 11.3404 118.381 10.6117 118.116L10.393 118.718C11.2346 119.024 12.0522 119.066 12.8338 118.827L12.6463 118.215ZM10.8224 118.417V115.827H10.1824V118.417H10.8224ZM10.4083 116.133C11.112 116.35 11.7442 116.359 12.2468 116.067L11.9247 115.514C11.6422 115.678 11.2188 115.713 10.5964 115.521L10.4083 116.133ZM12.2512 116.064C12.7072 115.789 13.0256 115.369 13.2125 114.83L12.6078 114.621C12.4632 115.038 12.232 115.328 11.9204 115.516L12.2512 116.064ZM13.2144 114.825C13.3823 114.31 13.4657 113.771 13.4657 113.21H12.8257C12.8257 113.707 12.7521 114.178 12.606 114.626L13.2144 114.825ZM13.4657 113.21C13.4657 112.479 13.3754 111.823 13.1883 111.247L12.5797 111.445C12.7416 111.943 12.8257 112.53 12.8257 113.21H13.4657ZM13.1888 111.249C13.0042 110.671 12.7462 110.178 12.4088 109.778L11.9198 110.191C12.193 110.515 12.4148 110.929 12.5792 111.444L13.1888 111.249ZM12.4088 109.778C12.0723 109.38 11.6785 109.092 11.2267 108.927L11.0081 109.529C11.3414 109.65 11.6456 109.866 11.9198 110.191L12.4088 109.778ZM27.8882 75.5631L30.4514 56.6831L29.8172 56.597L27.254 75.477L27.8882 75.5631ZM29.9424 56.3839L27.3792 58.3039L27.7629 58.8161L30.3261 56.8961L29.9424 56.3839ZM27.7792 58.3169L25.5364 56.3969L25.1202 56.8831L27.363 58.8031L27.7792 58.3169ZM25.0105 56.6778L27.2533 75.5578L27.8889 75.4823L25.6461 56.6023L25.0105 56.6778ZM27.8911 75.52V48.9601H27.2511V75.52H27.8911ZM29.8139 57.2801H30.1343V56.6401H29.8139V57.2801ZM29.4935 57.6001H30.1343V56.9601H29.4935V57.6001ZM28.8527 57.9201H30.1343V57.2801H28.8527V57.9201ZM28.5323 58.2401H30.1343V57.6001H28.5323V58.2401ZM28.2119 58.5601H30.1343V57.9201H28.2119V58.5601ZM27.5711 58.88L30.1343 58.8801L30.1343 58.2401L27.5711 58.24L27.5711 58.88ZM27.5711 73.2801H28.2119V72.6401H27.5711V73.2801ZM27.5711 73.6001H27.8915V72.9601H27.5711V73.6001ZM27.5711 73.9201H27.8915V73.2801H27.5711V73.9201ZM27.5711 74.2401H27.8915V73.6001H27.5711V74.2401ZM27.5711 74.5601H27.8915V73.9201H27.5711V74.5601ZM27.5711 74.8801H27.8915V74.2401H27.5711V74.8801ZM27.5711 75.2001H27.8915V74.5601H27.5711V75.2001ZM27.5711 75.5201H27.8915V74.8801H27.5711V75.5201ZM25.6487 57.2801H25.9691V56.6401H25.6487V57.2801ZM25.6487 57.6001H26.2895V56.9601H25.6487V57.6001ZM25.6487 57.9201H26.6099V57.2801H25.6487V57.9201ZM25.6487 58.2401H26.9303V57.6001H25.6487V58.2401ZM25.6487 58.5601H27.2507V57.9201H25.6487V58.5601ZM25.6487 58.8801L27.5711 58.88L27.5711 58.24L25.6486 58.2401L25.6487 58.8801ZM27.2533 78.6822L25.0105 97.5622L25.6461 97.6377L27.8889 78.7577L27.2533 78.6822ZM25.5364 97.8431L27.7792 95.9231L27.363 95.437L25.1202 97.3569L25.5364 97.8431ZM27.3793 95.9362L29.9424 97.8562L30.3261 97.3439L27.7629 95.4239L27.3793 95.9362ZM30.4514 97.557L27.8882 78.6769L27.254 78.763L29.8172 97.6431L30.4514 97.557ZM27.2511 78.72V105.28H27.8911V78.72H27.2511ZM25.6487 96.0001L27.5711 96.0001L27.5711 95.3601L25.6487 95.3601L25.6487 96.0001ZM25.6487 96.3201H27.2507V95.6801H25.6487V96.3201ZM25.6487 96.6401H26.9303V96.0001H25.6487V96.6401ZM25.6487 96.9601H26.6099V96.3201H25.6487V96.9601ZM25.6487 97.2801H26.2895V96.6401H25.6487V97.2801ZM25.6487 97.6001H25.9691V96.9601H25.6487V97.6001ZM27.5711 79.36H27.8915V78.72H27.5711V79.36ZM27.5711 79.68H27.8915V79.04H27.5711V79.68ZM27.5711 80H27.8915V79.36H27.5711V80ZM27.5711 80.32H27.8915V79.68H27.5711V80.32ZM27.5711 80.64H27.8915V80H27.5711V80.64ZM27.5711 80.96H27.8915V80.32H27.5711V80.96ZM27.5711 81.28H27.8915V80.64H27.5711V81.28ZM27.5711 81.6H28.2119V80.96H27.5711V81.6ZM27.5711 96.0001L30.1343 96L30.1343 95.36L27.5711 95.3601L27.5711 96.0001ZM28.2119 96.32H30.1343V95.68H28.2119V96.32ZM28.5323 96.64H30.1343V96H28.5323V96.64ZM28.8527 96.96H30.1343V96.32H28.8527V96.96ZM29.4935 97.28H30.1343V96.64H29.4935V97.28ZM29.8139 97.6H30.1343V96.96H29.8139V97.6ZM27.2511 75.52V78.72H27.8911V75.52H27.2511ZM27.2511 78.72V129.92H27.8911V78.72H27.2511ZM25.6487 59.2001H30.1343V58.5601H25.6487V59.2001ZM25.6487 59.5201H29.8139V58.8801H25.6487V59.5201ZM25.9691 59.8401H29.8139V59.2001H25.9691V59.8401ZM25.9691 60.1601H29.8139V59.5201H25.9691V60.1601ZM25.9691 60.4801L29.8139 60.4801V59.8401L25.9691 59.8401V60.4801ZM25.9691 60.8001L29.8139 60.8001V60.1601L25.9691 60.1601V60.8001ZM25.9691 61.1201H29.8139V60.4801H25.9691V61.1201ZM25.9691 61.4401H29.8139V60.8001H25.9691V61.4401ZM25.9691 61.7601H29.4935V61.1201H25.9691V61.7601ZM25.9691 62.0801H29.4935V61.4401H25.9691V62.0801ZM26.2895 62.4001H29.4935V61.7601H26.2895V62.4001ZM26.2895 62.7201L29.4935 62.7201V62.0801L26.2895 62.0801V62.7201ZM26.2895 63.0401L29.4935 63.0401V62.4001L26.2895 62.4001V63.0401ZM26.2895 63.3601L29.4935 63.3601V62.7201L26.2895 62.7201V63.3601ZM26.2895 63.6801L29.4935 63.6801V63.0401L26.2895 63.0401V63.6801ZM26.2895 64.0001H29.4935V63.3601H26.2895V64.0001ZM26.2895 64.3201H29.1731V63.6801H26.2895V64.3201ZM26.2895 64.6401L29.1731 64.6401V64.0001L26.2895 64.0001V64.6401ZM26.2895 64.9601L29.1731 64.9601V64.3201L26.2895 64.3201V64.9601ZM26.6099 65.2801H29.1731V64.6401L26.6099 64.6401V65.2801ZM26.6099 65.6001H29.1731V64.9601H26.6099V65.6001ZM26.6099 65.9201H29.1731V65.2801H26.6099V65.9201ZM26.6099 66.2401H29.1731V65.6001H26.6099V66.2401ZM26.6099 66.5601H28.8527V65.9201H26.6099V66.5601ZM26.6099 66.8801H28.8527V66.2401H26.6099V66.8801ZM26.6099 67.2001H28.8527V66.5601H26.6099V67.2001ZM26.6099 67.5201H28.8527V66.8801H26.6099V67.5201ZM26.9303 67.8401L28.8527 67.8401V67.2001L26.9303 67.2001V67.8401ZM26.9303 68.1601L28.8527 68.1601V67.5201L26.9303 67.5201V68.1601ZM26.9303 68.4801L28.8527 68.4801V67.8401L26.9303 67.8401V68.4801ZM26.9303 68.8001L28.5323 68.8001V68.1601L26.9303 68.1601V68.8001ZM26.9303 69.1201L28.5323 69.1201V68.4801L26.9303 68.4801V69.1201ZM26.9303 69.4401L28.5323 69.4401V68.8001L26.9303 68.8001V69.4401ZM26.9303 69.7601L28.5323 69.7601V69.1201L26.9303 69.1201V69.7601ZM26.9303 70.0801L28.5323 70.0801V69.4401L26.9303 69.4401V70.0801ZM26.9303 70.4001H28.5323V69.7601H26.9303V70.4001ZM27.2507 70.7201H28.5323V70.0801H27.2507V70.7201ZM27.2507 71.0401H28.5323V70.4001H27.2507V71.0401ZM27.2507 71.3601H28.2119V70.7201H27.2507V71.3601ZM27.2507 71.6801L28.2119 71.6801V71.0401L27.2507 71.0401V71.6801ZM27.2507 72.0001L28.2119 72.0001V71.3601L27.2507 71.3601V72.0001ZM27.2507 72.3201L28.2119 72.3201V71.6801L27.2507 71.6801V72.3201ZM27.2507 72.6401L28.2119 72.6401V72.0001L27.2507 72.0001V72.6401ZM27.2507 72.9601L28.2119 72.9601V72.3201L27.2507 72.3201V72.9601ZM27.2507 81.9201L28.2119 81.92L28.2119 81.28L27.2506 81.2801L27.2507 81.9201ZM27.2507 82.2401L28.2119 82.24L28.2119 81.6L27.2506 81.6001L27.2507 82.2401ZM27.2507 82.5601L28.2119 82.56L28.2119 81.92L27.2506 81.9201L27.2507 82.5601ZM27.2507 82.8801L28.2119 82.88L28.2119 82.24L27.2506 82.2401L27.2507 82.8801ZM27.2507 83.2001L28.2119 83.2L28.2119 82.56L27.2506 82.5601L27.2507 83.2001ZM27.2507 83.5201L28.2119 83.52L28.2119 82.88L27.2506 82.8801L27.2507 83.5201ZM27.2507 83.8401L28.5323 83.84L28.5323 83.2L27.2506 83.2001L27.2507 83.8401ZM27.2507 84.1601L28.5323 84.16L28.5323 83.52L27.2506 83.5201L27.2507 84.1601ZM26.9303 84.4801L28.5323 84.48L28.5323 83.84L26.9302 83.8401L26.9303 84.4801ZM26.9303 84.8001L28.5323 84.8L28.5323 84.16L26.9302 84.1601L26.9303 84.8001ZM26.9303 85.1201L28.5323 85.12L28.5323 84.48L26.9302 84.4801L26.9303 85.1201ZM26.9303 85.4401L28.5323 85.44L28.5323 84.8L26.9302 84.8001L26.9303 85.4401ZM26.9303 85.7601L28.5323 85.76L28.5323 85.12L26.9302 85.1201L26.9303 85.7601ZM26.9303 86.0801L28.5323 86.08L28.5323 85.44L26.9302 85.4401L26.9303 86.0801ZM26.9303 86.4001L28.8527 86.4L28.8527 85.76L26.9302 85.7601L26.9303 86.4001ZM26.9303 86.7201L28.8527 86.72L28.8527 86.08L26.9302 86.0801L26.9303 86.7201ZM26.9303 87.0401L28.8527 87.04L28.8527 86.4L26.9302 86.4001L26.9303 87.0401ZM26.6099 87.3601L28.8527 87.36L28.8527 86.72L26.6098 86.7201L26.6099 87.3601ZM26.6099 87.6801L28.8527 87.68L28.8527 87.04L26.6098 87.0401L26.6099 87.6801ZM26.6099 88.0001L28.8527 88L28.8527 87.36L26.6098 87.3601L26.6099 88.0001ZM26.6099 88.3201L28.8527 88.32L28.8527 87.68L26.6098 87.6801L26.6099 88.3201ZM26.6099 88.6401L29.1731 88.64L29.1731 88L26.6098 88.0001L26.6099 88.6401ZM26.6099 88.9601L29.1731 88.96L29.1731 88.32L26.6098 88.3201L26.6099 88.9601ZM26.6099 89.2801L29.1731 89.28L29.1731 88.64L26.6098 88.6401L26.6099 89.2801ZM26.6099 89.6001L29.1731 89.6L29.1731 88.96L26.6098 88.9601L26.6099 89.6001ZM26.2895 89.9201L29.1731 89.92L29.1731 89.28L26.2895 89.2801L26.2895 89.9201ZM26.2895 90.2401L29.1731 90.24L29.1731 89.6L26.2895 89.6001L26.2895 90.2401ZM26.2895 90.5601L29.1731 90.56L29.1731 89.92L26.2895 89.9201L26.2895 90.5601ZM26.2895 90.8801L29.4935 90.88L29.4935 90.24L26.2895 90.2401L26.2895 90.8801ZM26.2895 91.2001L29.4935 91.2L29.4935 90.56L26.2895 90.5601L26.2895 91.2001ZM26.2895 91.5201L29.4935 91.52L29.4935 90.88L26.2895 90.8801L26.2895 91.5201ZM26.2895 91.8401L29.4935 91.84L29.4935 91.2L26.2895 91.2001L26.2895 91.8401ZM26.2895 92.1601L29.4935 92.16L29.4935 91.52L26.2895 91.5201L26.2895 92.1601ZM26.2895 92.4801L29.4935 92.48L29.4935 91.84L26.2895 91.8401L26.2895 92.4801ZM25.9691 92.8001L29.4935 92.8L29.4935 92.16L25.9691 92.1601L25.9691 92.8001ZM25.9691 93.1201L29.4935 93.12L29.4935 92.48L25.9691 92.4801L25.9691 93.1201ZM25.9691 93.4401L29.8139 93.44L29.8139 92.8L25.9691 92.8001L25.9691 93.4401ZM25.9691 93.7601L29.8139 93.76L29.8139 93.12L25.9691 93.1201L25.9691 93.7601ZM25.9691 94.0801L29.8139 94.08L29.8139 93.44L25.9691 93.4401L25.9691 94.0801ZM25.9691 94.4001L29.8139 94.4L29.8139 93.76L25.9691 93.7601L25.9691 94.4001ZM25.9691 94.7201L29.8139 94.72L29.8139 94.08L25.9691 94.0801L25.9691 94.7201ZM25.9691 95.0401L29.8139 95.04L29.8139 94.4L25.9691 94.4001L25.9691 95.0401ZM25.6487 95.3601L29.8139 95.36L29.8139 94.72L25.6487 94.7201L25.6487 95.3601ZM25.6487 95.6801L30.1343 95.68L30.1343 95.04L25.6487 95.0401L25.6487 95.6801Z" fill="white"/>
    </g>
    <!--    14 S1-->
    <g class="group">
    </g>
    <!--    15 S2-->
    <g class="group">
    </g>
    <!--    16 S3-->
    <g class="group">
    </g>
    <!--    17 S4-->
    <g class="group">
    </g>
    <!--    19 I-->
    <g class="group">
    </g>
    <!--    18 I1-->
    <g class="group">
        <path d="M83.9136 0.852173L76.5901 20.9463H74.0003L81.3237 0.852173H83.9136Z" fill="white"/>
        <path d="M88.1993 15.7551L83.5853 28.4151H81.8826L85.7686 17.7527L81.9069 18.9288L82.4332 17.4846L87.9324 15.7551H88.1993Z" fill="white"/>
        <path d="M46.1544 35.84L46.1973 35.5229C46.0694 35.5056 45.9437 35.5668 45.8784 35.6781C45.8131 35.7894 45.821 35.929 45.8985 36.0322L46.1544 35.84ZM46.1544 40.96L45.8985 40.7678C45.821 40.871 45.8131 41.0106 45.8784 41.1219C45.9437 41.2332 46.0694 41.2944 46.1973 41.2771L46.1544 40.96ZM114.079 40.96L114.036 41.2771C114.164 41.2944 114.29 41.2332 114.355 41.1219C114.421 41.0107 114.413 40.871 114.335 40.7678L114.079 40.96ZM114.079 35.84L114.335 36.0322C114.413 35.929 114.421 35.7894 114.355 35.6781C114.29 35.5668 114.164 35.5056 114.036 35.5229L114.079 35.84ZM64.738 63.68C64.738 63.8568 64.8813 64 65.058 64C65.2348 64 65.378 63.8568 65.378 63.68H64.738ZM65.378 30.7201C65.378 30.5433 65.2348 30.4001 65.058 30.4001C64.8813 30.4001 64.738 30.5433 64.738 30.7201H65.378ZM94.8558 63.68C94.8558 63.8568 94.9991 64 95.1758 64C95.3525 64 95.4958 63.8568 95.4958 63.68H94.8558ZM95.4958 30.7201C95.4958 30.5433 95.3525 30.4001 95.1758 30.4001C94.9991 30.4001 94.8558 30.5433 94.8558 30.7201H95.4958ZM83.9136 0.852173L84.2142 0.961748C84.25 0.863633 84.2356 0.754241 84.1757 0.668685C84.1158 0.583129 84.018 0.532173 83.9136 0.532173V0.852173ZM76.5901 20.9463V21.2663C76.7246 21.2663 76.8447 21.1823 76.8908 21.0559L76.5901 20.9463ZM74.0003 20.9463L73.6996 20.8368C73.6638 20.9349 73.6782 21.0443 73.7381 21.1298C73.798 21.2154 73.8958 21.2663 74.0003 21.2663V20.9463ZM81.3237 0.852173V0.532173C81.1892 0.532173 81.0691 0.61625 81.0231 0.742597L81.3237 0.852173ZM88.1993 15.7551L88.5 15.8647C88.5357 15.7666 88.5214 15.6572 88.4615 15.5717C88.4016 15.4861 88.3037 15.4351 88.1993 15.4351V15.7551ZM83.5853 28.4151V28.7351C83.7198 28.7351 83.8399 28.651 83.886 28.5247L83.5853 28.4151ZM81.8826 28.4151L81.5819 28.3055C81.5462 28.4037 81.5605 28.513 81.6204 28.5986C81.6803 28.6842 81.7782 28.7351 81.8826 28.7351V28.4151ZM85.7686 17.7527L86.0692 17.8623C86.1107 17.7483 86.0843 17.6207 86.0008 17.5326C85.9174 17.4446 85.7914 17.4113 85.6753 17.4466L85.7686 17.7527ZM81.9069 18.9288L81.6062 18.8192C81.5647 18.9332 81.5912 19.0608 81.6746 19.1489C81.758 19.2369 81.8841 19.2702 82.0001 19.2349L81.9069 18.9288ZM82.4332 17.4846L82.3372 17.1794C82.2423 17.2092 82.1666 17.2816 82.1325 17.3751L82.4332 17.4846ZM87.9324 15.7551V15.4351C87.8998 15.4351 87.8675 15.4401 87.8364 15.4499L87.9324 15.7551ZM38.4647 38.08C38.288 38.08 38.1447 38.2233 38.1447 38.4C38.1447 38.5767 38.288 38.72 38.4647 38.72L38.4647 38.08ZM121.769 38.72C121.946 38.72 122.089 38.5767 122.089 38.4C122.089 38.2233 121.946 38.08 121.769 38.08V38.72ZM45.8985 36.0322L47.8209 38.5922L48.3326 38.2079L46.4102 35.6479L45.8985 36.0322ZM47.8209 38.2079L45.8985 40.7678L46.4102 41.1521L48.3326 38.5922L47.8209 38.2079ZM114.335 40.7678L112.413 38.2078L111.901 38.5921L113.823 41.1521L114.335 40.7678ZM112.413 38.5921L114.335 36.0322L113.823 35.6479L111.901 38.2078L112.413 38.5921ZM65.378 63.68V30.7201H64.738V63.68H65.378ZM95.4958 63.68V30.7201H94.8558V63.68H95.4958ZM83.6129 0.742597L76.2895 20.8368L76.8908 21.0559L84.2142 0.961748L83.6129 0.742597ZM76.5901 20.6263H74.0003V21.2663H76.5901V20.6263ZM74.3009 21.0559L81.6244 0.961748L81.0231 0.742597L73.6996 20.8368L74.3009 21.0559ZM81.3237 1.17217H83.9136V0.532173H81.3237V1.17217ZM87.8987 15.6456L83.2847 28.3055L83.886 28.5247L88.5 15.8647L87.8987 15.6456ZM83.5853 28.0951H81.8826V28.7351H83.5853V28.0951ZM82.1832 28.5247L86.0692 17.8623L85.4679 17.6431L81.5819 28.3055L82.1832 28.5247ZM85.6753 17.4466L81.8136 18.6227L82.0001 19.2349L85.8618 18.0588L85.6753 17.4466ZM82.2075 19.0384L82.7338 17.5942L82.1325 17.3751L81.6062 18.8192L82.2075 19.0384ZM82.5292 17.7899L88.0284 16.0604L87.8364 15.4499L82.3372 17.1794L82.5292 17.7899ZM87.9324 16.0751H88.1993V15.4351H87.9324V16.0751ZM65.101 38.0829L46.1973 35.5229L46.1114 36.1572L65.0151 38.7172L65.101 38.0829ZM46.1973 41.2771L65.101 38.7172L65.0151 38.0829L46.1114 40.6429L46.1973 41.2771ZM65.058 38.0801L38.4647 38.08L38.4647 38.72L65.058 38.7201V38.0801ZM46.4748 36.48H48.7176V35.84H46.4748V36.48ZM46.7952 36.8H50.9604V36.16H46.7952V36.8ZM47.1156 37.12H53.5236V36.48H47.1156V37.12ZM47.1156 37.44H55.7664V36.8H47.1156V37.44ZM47.436 37.76H58.0092V37.12H47.436V37.76ZM47.7564 38.08H60.5724V37.44H47.7564V38.08ZM48.0768 38.4H62.8152V37.76H48.0768V38.4ZM48.0768 38.7201L65.058 38.7201V38.0801L48.0768 38.0801V38.7201ZM48.0768 39.04H62.8152V38.4H48.0768V39.04ZM47.7564 39.36H60.5724V38.72H47.7564V39.36ZM47.436 39.68H58.0092V39.04H47.436V39.68ZM47.1156 40H55.7664V39.36H47.1156V40ZM47.1156 40.32H53.5236V39.68H47.1156V40.32ZM46.7952 40.64H50.9604V40H46.7952V40.64ZM46.4748 40.96H48.7176V40.32H46.4748V40.96ZM95.1328 38.7171L114.036 41.2771L114.122 40.6429L95.2187 38.0829L95.1328 38.7171ZM114.036 35.5229L95.1328 38.0829L95.2187 38.7171L114.122 36.1572L114.036 35.5229ZM95.1758 38.72H121.769V38.08H95.1758V38.72ZM95.1758 38.72L112.157 38.72V38.08L95.1758 38.08V38.72ZM97.739 39.04H112.477V38.4H97.739V39.04ZM99.9818 39.36H112.798V38.72H99.9818V39.36ZM102.545 39.68H113.118V39.04H102.545V39.68ZM104.788 40H113.118V39.36H104.788V40ZM107.031 40.32H113.439V39.68H107.031V40.32ZM109.594 40.64H113.759V40H109.594V40.64ZM111.837 40.96H114.079V40.32H111.837V40.96ZM111.837 36.48H114.079V35.84H111.837V36.48ZM109.594 36.8H113.759V36.16H109.594V36.8ZM107.031 37.12H113.439V36.48H107.031V37.12ZM104.788 37.44H113.118V36.8H104.788V37.44ZM102.545 37.76H113.118V37.12H102.545V37.76ZM99.9818 38.08H112.798V37.44H99.9818V38.08ZM97.739 38.4H112.477V37.76H97.739V38.4ZM65.058 38.7201L95.1758 38.72V38.08L65.058 38.0801V38.7201Z" fill="white"/>
    </g>
    <!--    19 I2-->
    <g class="group">
        <path d="M241.382 0.852173L234.058 20.9463H231.469L238.792 0.852173H241.382Z" fill="white"/>
        <path d="M244.717 27.1007L244.238 28.4151H235.467L235.886 27.265L241.95 22.6732C242.696 22.1082 243.287 21.6297 243.725 21.2377C244.17 20.8399 244.508 20.4853 244.738 20.174C244.977 19.857 245.156 19.5341 245.275 19.2055C245.427 18.7904 245.471 18.4157 245.409 18.0813C245.355 17.7412 245.19 17.4702 244.914 17.2685C244.637 17.0667 244.251 16.9658 243.754 16.9658C243.159 16.9658 242.622 17.0753 242.143 17.2944C241.673 17.5077 241.269 17.8075 240.932 18.1937C240.594 18.58 240.335 19.0239 240.152 19.5255H238.449C238.707 18.8164 239.109 18.1678 239.655 17.5798C240.201 16.9917 240.862 16.5248 241.638 16.1789C242.417 15.8272 243.282 15.6514 244.233 15.6514C245.08 15.6514 245.752 15.7926 246.251 16.0751C246.751 16.3518 247.068 16.7438 247.202 17.2512C247.345 17.7527 247.293 18.3408 247.047 19.0153C246.913 19.3842 246.709 19.7589 246.435 20.1394C246.17 20.5142 245.852 20.8889 245.482 21.2636C245.119 21.6383 244.717 22.0073 244.278 22.3705C243.845 22.7337 243.393 23.0911 242.921 23.4428L237.998 27.1007H244.717Z" fill="white"/>
        <path d="M155.412 63.68C155.412 63.8568 155.555 64 155.732 64C155.908 64 156.052 63.8568 156.052 63.68H155.412ZM156.052 30.7201C156.052 30.5433 155.908 30.4001 155.732 30.4001C155.555 30.4001 155.412 30.5433 155.412 30.7201H156.052ZM321.7 63.68C321.7 63.8568 321.843 64 322.02 64C322.196 64 322.34 63.8568 322.34 63.68H321.7ZM322.34 30.7201C322.34 30.5433 322.196 30.4001 322.02 30.4001C321.843 30.4001 321.7 30.5433 321.7 30.7201H322.34ZM241.382 0.852173L241.682 0.961748C241.718 0.863633 241.704 0.754241 241.644 0.668685C241.584 0.583129 241.486 0.532173 241.382 0.532173V0.852173ZM234.058 20.9463V21.2663C234.193 21.2663 234.313 21.1823 234.359 21.0559L234.058 20.9463ZM231.469 20.9463L231.168 20.8368C231.132 20.9349 231.146 21.0443 231.206 21.1298C231.266 21.2154 231.364 21.2663 231.469 21.2663V20.9463ZM238.792 0.852173V0.532173C238.657 0.532173 238.537 0.61625 238.491 0.742597L238.792 0.852173ZM244.717 27.1007L245.018 27.2103C245.054 27.1121 245.039 27.0028 244.979 26.9172C244.92 26.8316 244.822 26.7807 244.717 26.7807V27.1007ZM244.238 28.4151V28.7351C244.373 28.7351 244.493 28.651 244.539 28.5247L244.238 28.4151ZM235.467 28.4151L235.166 28.3055C235.13 28.4036 235.145 28.513 235.205 28.5986C235.265 28.6842 235.362 28.7351 235.467 28.7351V28.4151ZM235.886 27.265L235.693 27.0099C235.644 27.047 235.606 27.0976 235.585 27.1554L235.886 27.265ZM241.95 22.6732L242.143 22.9283L242.143 22.9282L241.95 22.6732ZM243.725 21.2377L243.512 20.9989L243.511 20.9994L243.725 21.2377ZM244.738 20.174L244.482 19.9818L244.481 19.9839L244.738 20.174ZM245.275 19.2055L245.576 19.3151L245.275 19.2055ZM245.409 18.0813L245.093 18.1315L245.094 18.1399L245.409 18.0813ZM242.143 17.2944L242.275 17.5858L242.276 17.5854L242.143 17.2944ZM240.152 19.5255V19.8455C240.286 19.8455 240.406 19.7614 240.452 19.635L240.152 19.5255ZM238.449 19.5255L238.148 19.4159C238.113 19.514 238.127 19.6234 238.187 19.709C238.247 19.7945 238.345 19.8455 238.449 19.8455V19.5255ZM241.638 16.1789L241.769 16.4712L241.77 16.4705L241.638 16.1789ZM246.251 16.0751L246.093 16.3535L246.096 16.3551L246.251 16.0751ZM247.202 17.2512L246.893 17.333L246.895 17.3386L247.202 17.2512ZM247.047 19.0153L247.348 19.1248L247.047 19.0153ZM246.435 20.1394L246.175 19.9526L246.174 19.9545L246.435 20.1394ZM245.482 21.2636L245.255 21.0389L245.253 21.0408L245.482 21.2636ZM244.278 22.3705L244.074 22.1239L244.073 22.1253L244.278 22.3705ZM242.921 23.4428L243.112 23.6996L243.112 23.6994L242.921 23.4428ZM237.998 27.1007L237.808 26.8438C237.697 26.9261 237.651 27.0702 237.695 27.2012C237.738 27.3322 237.86 27.4207 237.998 27.4207V27.1007ZM155.732 38.4001L155.689 38.0829C155.53 38.1044 155.412 38.2399 155.412 38.4001C155.412 38.5602 155.53 38.6957 155.689 38.7172L155.732 38.4001ZM174.635 35.84L174.891 36.0322C174.969 35.929 174.976 35.7894 174.911 35.6781C174.846 35.5668 174.72 35.5056 174.592 35.5229L174.635 35.84ZM174.635 40.96L174.592 41.2771C174.72 41.2944 174.846 41.2332 174.911 41.1219C174.977 41.0106 174.969 40.871 174.891 40.7678L174.635 40.96ZM322.02 38.4L322.063 38.7171C322.221 38.6956 322.34 38.5601 322.34 38.4C322.34 38.2398 322.221 38.1044 322.063 38.0829L322.02 38.4ZM303.116 40.96L302.86 40.7678C302.783 40.871 302.775 41.0106 302.84 41.1219C302.905 41.2332 303.031 41.2944 303.159 41.2771L303.116 40.96ZM303.116 35.84L303.159 35.5229C303.031 35.5056 302.905 35.5668 302.84 35.6781C302.775 35.7894 302.783 35.929 302.86 36.0322L303.116 35.84ZM156.052 63.68V30.7201H155.412V63.68H156.052ZM322.34 63.68V30.7201H321.7V63.68H322.34ZM241.081 0.742597L233.758 20.8368L234.359 21.0559L241.682 0.961748L241.081 0.742597ZM234.058 20.6263H231.469V21.2663H234.058V20.6263ZM231.769 21.0559L239.093 0.961748L238.491 0.742597L231.168 20.8368L231.769 21.0559ZM238.792 1.17217H241.382V0.532173H238.792V1.17217ZM244.417 26.9911L243.938 28.3055L244.539 28.5247L245.018 27.2103L244.417 26.9911ZM244.238 28.0951H235.467V28.7351H244.238V28.0951ZM235.767 28.5247L236.187 27.3746L235.585 27.1554L235.166 28.3055L235.767 28.5247ZM236.079 27.5201L242.143 22.9283L241.757 22.418L235.693 27.0099L236.079 27.5201ZM242.143 22.9282C242.892 22.3607 243.492 21.8762 243.938 21.476L243.511 20.9994C243.083 21.3831 242.499 21.8557 241.757 22.4181L242.143 22.9282ZM243.938 21.4764C244.392 21.071 244.747 20.7 244.996 20.3642L244.481 19.9839C244.269 20.2707 243.949 20.6088 243.512 20.9989L243.938 21.4764ZM244.994 20.3663C245.249 20.0273 245.444 19.677 245.576 19.3151L244.975 19.0959C244.867 19.3913 244.704 19.6866 244.482 19.9818L244.994 20.3663ZM245.576 19.3151C245.741 18.8619 245.799 18.4279 245.723 18.0228L245.094 18.1399C245.143 18.4035 245.112 18.7189 244.975 19.0959L245.576 19.3151ZM245.725 18.0312C245.658 17.6082 245.447 17.2621 245.102 17.0101L244.725 17.5269C244.932 17.6784 245.052 17.8742 245.093 18.1315L245.725 18.0312ZM245.102 17.0101C244.752 16.7538 244.289 16.6458 243.754 16.6458V17.2858C244.212 17.2858 244.523 17.3796 244.725 17.5269L245.102 17.0101ZM243.754 16.6458C243.119 16.6458 242.535 16.7629 242.01 17.0034L242.276 17.5854C242.708 17.3878 243.199 17.2858 243.754 17.2858V16.6458ZM242.011 17.003C241.499 17.235 241.058 17.5623 240.691 17.9833L241.173 18.4042C241.479 18.0527 241.846 17.7804 242.275 17.5858L242.011 17.003ZM240.691 17.9833C240.326 18.4005 240.047 18.8789 239.851 19.4159L240.452 19.635C240.622 19.1689 240.863 18.7595 241.173 18.4042L240.691 17.9833ZM240.152 19.2055H238.449V19.8455H240.152V19.2055ZM238.75 19.635C238.993 18.9685 239.371 18.3562 239.89 17.7974L239.421 17.3621C238.848 17.9794 238.422 18.6642 238.148 19.4159L238.75 19.635ZM239.89 17.7974C240.404 17.2429 241.029 16.8006 241.769 16.4712L241.508 15.8866C240.695 16.249 239.997 16.7405 239.421 17.3621L239.89 17.7974ZM241.77 16.4705C242.503 16.1396 243.322 15.9714 244.233 15.9714V15.3314C243.242 15.3314 242.331 15.5149 241.507 15.8872L241.77 16.4705ZM244.233 15.9714C245.049 15.9714 245.66 16.1083 246.093 16.3535L246.408 15.7967C245.844 15.477 245.11 15.3314 244.233 15.3314V15.9714ZM246.096 16.3551C246.527 16.5938 246.783 16.9181 246.893 17.333L247.512 17.1693C247.353 16.5696 246.975 16.1098 246.405 15.7951L246.096 16.3551ZM246.895 17.3386C247.013 17.755 246.978 18.2711 246.747 18.9057L247.348 19.1248C247.608 18.4104 247.677 17.7505 247.51 17.1638L246.895 17.3386ZM246.747 18.9057C246.624 19.2424 246.435 19.5914 246.175 19.9526L246.695 20.3263C246.983 19.9265 247.202 19.526 247.348 19.1248L246.747 18.9057ZM246.174 19.9545C245.92 20.3132 245.614 20.6747 245.255 21.0389L245.71 21.4884C246.09 21.1031 246.42 20.7151 246.696 20.3244L246.174 19.9545ZM245.253 21.0408C244.898 21.4064 244.505 21.7675 244.074 22.1239L244.482 22.6171C244.93 22.2471 245.34 21.8703 245.712 21.4865L245.253 21.0408ZM244.073 22.1253C243.644 22.4844 243.197 22.8381 242.73 23.1862L243.112 23.6994C243.589 23.3442 244.046 22.983 244.484 22.6157L244.073 22.1253ZM242.73 23.1859L237.808 26.8438L238.189 27.3575L243.112 23.6996L242.73 23.1859ZM237.998 27.4207H244.717V26.7807H237.998V27.4207ZM155.775 38.7172L174.678 36.1572L174.592 35.5229L155.689 38.0829L155.775 38.7172ZM174.379 35.6479L172.457 38.2079L172.969 38.5922L174.891 36.0322L174.379 35.6479ZM172.457 38.5922L174.379 41.1521L174.891 40.7678L172.969 38.2079L172.457 38.5922ZM174.678 40.6429L155.775 38.0829L155.689 38.7172L174.592 41.2771L174.678 40.6429ZM172.392 36.48H174.635V35.84H172.392V36.48ZM170.15 36.8H174.315V36.16H170.15V36.8ZM167.586 37.12H173.994V36.48H167.586V37.12ZM165.344 37.44H173.674V36.8H165.344V37.44ZM163.101 37.76H173.674V37.12H163.101V37.76ZM160.538 38.08H173.354V37.44H160.538V38.08ZM158.295 38.4H173.033V37.76H158.295V38.4ZM155.732 38.7201H172.713V38.0801H155.732V38.7201ZM158.295 39.04H173.033V38.4H158.295V39.04ZM160.538 39.36H173.354V38.72H160.538V39.36ZM163.101 39.68H173.674V39.04H163.101V39.68ZM165.344 40H173.674V39.36H165.344V40ZM167.586 40.32H173.994V39.68H167.586V40.32ZM170.15 40.64H174.315V40H170.15V40.64ZM172.392 40.96H174.635V40.32H172.392V40.96ZM321.977 38.0829L303.073 40.6429L303.159 41.2771L322.063 38.7171L321.977 38.0829ZM303.372 41.1521L305.294 38.5921L304.783 38.2078L302.86 40.7678L303.372 41.1521ZM305.294 38.2078L303.372 35.6479L302.86 36.0322L304.783 38.5921L305.294 38.2078ZM303.073 36.1572L321.977 38.7171L322.063 38.0829L303.159 35.5229L303.073 36.1572ZM305.038 38.72H322.02V38.08H305.038V38.72ZM305.038 39.04H319.777V38.4H305.038V39.04ZM304.718 39.36H317.534V38.72H304.718V39.36ZM304.398 39.68H314.971V39.04H304.398V39.68ZM304.077 40H312.728V39.36H304.077V40ZM304.077 40.32H310.485V39.68H304.077V40.32ZM303.757 40.64H307.922V40H303.757V40.64ZM303.436 40.96H305.679V40.32H303.436V40.96ZM303.436 36.48H305.679V35.84H303.436V36.48ZM303.757 36.8H307.922V36.16H303.757V36.8ZM304.077 37.12H310.485V36.48H304.077V37.12ZM304.077 37.44H312.728V36.8H304.077V37.44ZM304.398 37.76H314.971V37.12H304.398V37.76ZM304.718 38.08H317.534V37.44H304.718V38.08ZM305.038 38.4H319.777V37.76H305.038V38.4ZM155.732 38.7201L322.02 38.72V38.08L155.732 38.0801L155.732 38.7201Z" fill="white"/>
    </g>
    <!--    20 H-->
    <g class="group">
    </g>
    <!--    21 H1-->
    <g class="group">
    </g>
    <!--    22 H2-->
    <g class="group">
    </g>
    <!--    25 h-->
    <g class="group">
    </g>
    <!--    23 h1-->
    <g class="group">
    </g>
    <!--    24 h2-->
    <g class="group">
    </g>
    <!--    25 R-->
    <g class="group">
    </g>
    <!--    26 Deg-->
    <g class="group">
    </g>
    <!--    29 DN-->
    <g class="group">
    </g>
    
</svg>
