<svg width="448" height="170" viewBox="0 0 448 170" fill="none" xmlns="http://www.w3.org/2000/svg">
<rect width="448" height="170" fill="none"/>
<path d="M199.898 115.598L200.538 108.558L199.898 115.598Z" stroke="white" stroke-width="0.96" stroke-miterlimit="10" stroke-linecap="round" stroke-linejoin="round"/>
<path d="M200.539 108.558L199.578 101.518L200.539 108.558Z" stroke="white" stroke-width="0.96" stroke-miterlimit="10" stroke-linecap="round" stroke-linejoin="round"/>
<path d="M199.578 101.518L197.655 94.7983L199.578 101.518Z" stroke="white" stroke-width="0.96" stroke-miterlimit="10" stroke-linecap="round" stroke-linejoin="round"/>
<path d="M197.655 94.7983L194.451 88.7183L197.655 94.7983Z" stroke="white" stroke-width="0.96" stroke-miterlimit="10" stroke-linecap="round" stroke-linejoin="round"/>
<path d="M194.451 88.7183L190.286 83.2783L194.451 88.7183Z" stroke="white" stroke-width="0.96" stroke-miterlimit="10" stroke-linecap="round" stroke-linejoin="round"/>
<path d="M190.286 83.2783L185.16 78.4783L190.286 83.2783Z" stroke="white" stroke-width="0.96" stroke-miterlimit="10" stroke-linecap="round" stroke-linejoin="round"/>
<path d="M185.16 78.4783L179.393 74.9583L185.16 78.4783Z" stroke="white" stroke-width="0.96" stroke-miterlimit="10" stroke-linecap="round" stroke-linejoin="round"/>
<path d="M179.392 74.9582L172.664 72.3982L179.392 74.9582Z" stroke="white" stroke-width="0.96" stroke-miterlimit="10" stroke-linecap="round" stroke-linejoin="round"/>
<path d="M172.664 72.3982L165.936 71.1182L172.664 72.3982Z" stroke="white" stroke-width="0.96" stroke-miterlimit="10" stroke-linecap="round" stroke-linejoin="round"/>
<path d="M165.936 71.1182H158.887H165.936Z" stroke="white" stroke-width="0.96" stroke-miterlimit="10" stroke-linecap="round" stroke-linejoin="round"/>
<path d="M158.887 71.1182L152.159 72.7182L158.887 71.1182Z" stroke="white" stroke-width="0.96" stroke-miterlimit="10" stroke-linecap="round" stroke-linejoin="round"/>
<path d="M152.158 72.7183L145.75 74.9583L152.158 72.7183Z" stroke="white" stroke-width="0.96" stroke-miterlimit="10" stroke-linecap="round" stroke-linejoin="round"/>
<path d="M145.751 74.9583L139.663 78.7982L145.751 74.9583Z" stroke="white" stroke-width="0.96" stroke-miterlimit="10" stroke-linecap="round" stroke-linejoin="round"/>
<path d="M139.663 78.7983L134.537 83.2784L139.663 78.7983Z" stroke="white" stroke-width="0.96" stroke-miterlimit="10" stroke-linecap="round" stroke-linejoin="round"/>
<path d="M134.536 83.2783L130.371 89.0383L134.536 83.2783Z" stroke="white" stroke-width="0.96" stroke-miterlimit="10" stroke-linecap="round" stroke-linejoin="round"/>
<path d="M130.371 89.0383L127.167 95.1183L130.371 89.0383Z" stroke="white" stroke-width="0.96" stroke-miterlimit="10" stroke-linecap="round" stroke-linejoin="round"/>
<path d="M127.167 95.1182L125.245 101.838L127.167 95.1182Z" stroke="white" stroke-width="0.96" stroke-miterlimit="10" stroke-linecap="round" stroke-linejoin="round"/>
<path d="M125.244 101.838L124.604 108.878L125.244 101.838Z" stroke="white" stroke-width="0.96" stroke-miterlimit="10" stroke-linecap="round" stroke-linejoin="round"/>
<path d="M124.604 108.878L125.244 115.598L124.604 108.878Z" stroke="white" stroke-width="0.96" stroke-miterlimit="10" stroke-linecap="round" stroke-linejoin="round"/>
<path d="M125.245 115.598L127.167 122.318L125.245 115.598Z" stroke="white" stroke-width="0.96" stroke-miterlimit="10" stroke-linecap="round" stroke-linejoin="round"/>
<path d="M127.167 122.318L130.371 128.718L127.167 122.318Z" stroke="white" stroke-width="0.96" stroke-miterlimit="10" stroke-linecap="round" stroke-linejoin="round"/>
<path d="M130.371 128.718L134.536 134.158L130.371 128.718Z" stroke="white" stroke-width="0.96" stroke-miterlimit="10" stroke-linecap="round" stroke-linejoin="round"/>
<path d="M134.537 134.158L139.663 138.958L134.537 134.158Z" stroke="white" stroke-width="0.96" stroke-miterlimit="10" stroke-linecap="round" stroke-linejoin="round"/>
<path d="M139.663 138.958L145.43 142.478L139.663 138.958Z" stroke="white" stroke-width="0.96" stroke-miterlimit="10" stroke-linecap="round" stroke-linejoin="round"/>
<path d="M145.43 142.478L151.838 145.038L145.43 142.478Z" stroke="white" stroke-width="0.96" stroke-miterlimit="10" stroke-linecap="round" stroke-linejoin="round"/>
<path d="M151.838 145.038L156.003 145.998L151.838 145.038Z" stroke="white" stroke-width="0.96" stroke-miterlimit="10" stroke-linecap="round" stroke-linejoin="round"/>
<path d="M162.411 76.2383L156.003 76.8783L162.411 76.2383Z" stroke="white" stroke-width="2.24" stroke-miterlimit="10" stroke-linecap="round" stroke-linejoin="round"/>
<path d="M156.003 76.8782L149.916 78.7982L156.003 76.8782Z" stroke="white" stroke-width="2.24" stroke-miterlimit="10" stroke-linecap="round" stroke-linejoin="round"/>
<path d="M149.916 78.7983L144.148 81.6783L149.916 78.7983Z" stroke="white" stroke-width="2.24" stroke-miterlimit="10" stroke-linecap="round" stroke-linejoin="round"/>
<path d="M144.148 81.6782L139.342 85.8382L144.148 81.6782Z" stroke="white" stroke-width="2.24" stroke-miterlimit="10" stroke-linecap="round" stroke-linejoin="round"/>
<path d="M139.342 85.8384L135.177 90.9584L139.342 85.8384Z" stroke="white" stroke-width="2.24" stroke-miterlimit="10" stroke-linecap="round" stroke-linejoin="round"/>
<path d="M135.177 90.9583L132.293 96.7183L135.177 90.9583Z" stroke="white" stroke-width="2.24" stroke-miterlimit="10" stroke-linecap="round" stroke-linejoin="round"/>
<path d="M132.294 96.7183L130.371 102.798L132.294 96.7183Z" stroke="white" stroke-width="2.24" stroke-miterlimit="10" stroke-linecap="round" stroke-linejoin="round"/>
<path d="M130.37 102.798L129.73 109.198L130.37 102.798Z" stroke="white" stroke-width="2.24" stroke-miterlimit="10" stroke-linecap="round" stroke-linejoin="round"/>
<path d="M129.73 109.198L130.692 115.598L129.73 109.198Z" stroke="white" stroke-width="2.24" stroke-miterlimit="10" stroke-linecap="round" stroke-linejoin="round"/>
<path d="M130.691 115.598L132.614 121.998L130.691 115.598Z" stroke="white" stroke-width="2.24" stroke-miterlimit="10" stroke-linecap="round" stroke-linejoin="round"/>
<path d="M132.614 121.998L135.818 127.438L132.614 121.998Z" stroke="white" stroke-width="2.24" stroke-miterlimit="10" stroke-linecap="round" stroke-linejoin="round"/>
<path d="M135.818 127.438L139.983 132.558L135.818 127.438Z" stroke="white" stroke-width="2.24" stroke-miterlimit="10" stroke-linecap="round" stroke-linejoin="round"/>
<path d="M139.983 132.558L145.11 136.398L139.983 132.558Z" stroke="white" stroke-width="2.24" stroke-miterlimit="10" stroke-linecap="round" stroke-linejoin="round"/>
<path d="M145.11 136.398L150.877 139.278L145.11 136.398Z" stroke="white" stroke-width="2.24" stroke-miterlimit="10" stroke-linecap="round" stroke-linejoin="round"/>
<path d="M150.877 139.278L156.965 141.198L150.877 139.278Z" stroke="white" stroke-width="2.24" stroke-miterlimit="10" stroke-linecap="round" stroke-linejoin="round"/>
<path d="M156.964 141.198L163.372 141.518L156.964 141.198Z" stroke="white" stroke-width="2.24" stroke-miterlimit="10" stroke-linecap="round" stroke-linejoin="round"/>
<path d="M163.373 141.518L169.781 140.878L163.373 141.518Z" stroke="white" stroke-width="2.24" stroke-miterlimit="10" stroke-linecap="round" stroke-linejoin="round"/>
<path d="M169.781 140.878L175.868 138.638L169.781 140.878Z" stroke="white" stroke-width="2.24" stroke-miterlimit="10" stroke-linecap="round" stroke-linejoin="round"/>
<path d="M175.868 138.638L181.635 135.438L175.868 138.638Z" stroke="white" stroke-width="2.24" stroke-miterlimit="10" stroke-linecap="round" stroke-linejoin="round"/>
<path d="M181.635 135.438L186.441 131.278L181.635 135.438Z" stroke="white" stroke-width="2.24" stroke-miterlimit="10" stroke-linecap="round" stroke-linejoin="round"/>
<path d="M186.441 131.278L190.286 126.158L186.441 131.278Z" stroke="white" stroke-width="2.24" stroke-miterlimit="10" stroke-linecap="round" stroke-linejoin="round"/>
<path d="M190.286 126.158L193.17 120.398L190.286 126.158Z" stroke="white" stroke-width="2.24" stroke-miterlimit="10" stroke-linecap="round" stroke-linejoin="round"/>
<path d="M193.17 120.398L194.772 113.998L193.17 120.398Z" stroke="white" stroke-width="2.24" stroke-miterlimit="10" stroke-linecap="round" stroke-linejoin="round"/>
<path d="M194.772 113.998L195.412 107.598L194.772 113.998Z" stroke="white" stroke-width="2.24" stroke-miterlimit="10" stroke-linecap="round" stroke-linejoin="round"/>
<path d="M195.412 107.598L194.451 101.198L195.412 107.598Z" stroke="white" stroke-width="2.24" stroke-miterlimit="10" stroke-linecap="round" stroke-linejoin="round"/>
<path d="M194.451 101.198L192.208 95.1182L194.451 101.198Z" stroke="white" stroke-width="2.24" stroke-miterlimit="10" stroke-linecap="round" stroke-linejoin="round"/>
<path d="M192.208 95.1182L189.004 89.6782L192.208 95.1182Z" stroke="white" stroke-width="2.24" stroke-miterlimit="10" stroke-linecap="round" stroke-linejoin="round"/>
<path d="M189.005 89.6782L184.519 84.8782L189.005 89.6782Z" stroke="white" stroke-width="2.24" stroke-miterlimit="10" stroke-linecap="round" stroke-linejoin="round"/>
<path d="M184.519 84.8783L179.393 81.0383L184.519 84.8783Z" stroke="white" stroke-width="2.24" stroke-miterlimit="10" stroke-linecap="round" stroke-linejoin="round"/>
<path d="M179.393 81.0382L173.625 78.1582L179.393 81.0382Z" stroke="white" stroke-width="2.24" stroke-miterlimit="10" stroke-linecap="round" stroke-linejoin="round"/>
<path d="M173.625 78.1584L167.217 76.5583L173.625 78.1584Z" stroke="white" stroke-width="2.24" stroke-miterlimit="10" stroke-linecap="round" stroke-linejoin="round"/>
<path d="M167.217 76.5583L162.411 76.2383L167.217 76.5583Z" stroke="white" stroke-width="2.24" stroke-miterlimit="10" stroke-linecap="round" stroke-linejoin="round"/>
<path d="M192.208 159.758L221.685 108.878L192.208 159.758Z" stroke="white" stroke-width="2.24" stroke-miterlimit="10" stroke-linecap="round" stroke-linejoin="round"/>
<path d="M221.685 108.878L192.208 57.9983L221.685 108.878Z" stroke="white" stroke-width="2.24" stroke-miterlimit="10" stroke-linecap="round" stroke-linejoin="round"/>
<path d="M192.209 57.9983H132.935H192.209Z" stroke="white" stroke-width="2.24" stroke-miterlimit="10" stroke-linecap="round" stroke-linejoin="round"/>
<path d="M132.934 57.9983L103.458 108.878L132.934 57.9983Z" stroke="white" stroke-width="2.24" stroke-miterlimit="10" stroke-linecap="round" stroke-linejoin="round"/>
<path d="M103.458 108.878L132.934 159.758L103.458 108.878Z" stroke="white" stroke-width="2.24" stroke-miterlimit="10" stroke-linecap="round" stroke-linejoin="round"/>
<path d="M132.935 159.758H192.209H132.935Z" stroke="white" stroke-width="2.24" stroke-miterlimit="10" stroke-linecap="round" stroke-linejoin="round"/>
<path d="M93.5249 108.878H116.594H93.5249Z" stroke="white" stroke-width="0.64" stroke-miterlimit="10" stroke-linecap="round" stroke-linejoin="round"/>
<path d="M122.361 108.878H126.847H122.361Z" stroke="white" stroke-width="0.64" stroke-miterlimit="10" stroke-linecap="round" stroke-linejoin="round"/>
<path d="M132.614 108.878H155.683H132.614Z" stroke="white" stroke-width="0.64" stroke-miterlimit="10" stroke-linecap="round" stroke-linejoin="round"/>
<path d="M161.13 108.878H165.615H161.13Z" stroke="white" stroke-width="0.64" stroke-miterlimit="10" stroke-linecap="round" stroke-linejoin="round"/>
<path d="M171.383 108.878H194.452H171.383Z" stroke="white" stroke-width="0.64" stroke-miterlimit="10" stroke-linecap="round" stroke-linejoin="round"/>
<path d="M200.219 108.878H204.704H200.219Z" stroke="white" stroke-width="0.64" stroke-miterlimit="10" stroke-linecap="round" stroke-linejoin="round"/>
<path d="M210.472 108.878H233.541H210.472Z" stroke="white" stroke-width="0.64" stroke-miterlimit="10" stroke-linecap="round" stroke-linejoin="round"/>
<path d="M162.411 47.7583V76.8783V47.7583Z" stroke="white" stroke-width="0.64" stroke-miterlimit="10" stroke-linecap="round" stroke-linejoin="round"/>
<path d="M162.411 82.6382V88.0782V82.6382Z" stroke="white" stroke-width="0.64" stroke-miterlimit="10" stroke-linecap="round" stroke-linejoin="round"/>
<path d="M162.411 93.8384V122.638V93.8384Z" stroke="white" stroke-width="0.64" stroke-miterlimit="10" stroke-linecap="round" stroke-linejoin="round"/>
<path d="M162.411 128.398V134.158V128.398Z" stroke="white" stroke-width="0.64" stroke-miterlimit="10" stroke-linecap="round" stroke-linejoin="round"/>
<path d="M162.411 139.598V168.718V139.598Z" stroke="white" stroke-width="0.64" stroke-miterlimit="10" stroke-linecap="round" stroke-linejoin="round"/>
<path d="M328.425 66.3999V114.72V66.3999Z" stroke="white" stroke-width="2.24" stroke-miterlimit="10" stroke-linecap="round" stroke-linejoin="round"/>
<path d="M446.653 66.3999V114.72V66.3999Z" stroke="white" stroke-width="2.24" stroke-miterlimit="10" stroke-linecap="round" stroke-linejoin="round"/>
<path d="M328.425 66.3999H446.653H328.425Z" stroke="white" stroke-width="2.24" stroke-miterlimit="10" stroke-linecap="round" stroke-linejoin="round"/>
<path d="M328.425 114.72H446.653H328.425Z" stroke="white" stroke-width="2.24" stroke-miterlimit="10" stroke-linecap="round" stroke-linejoin="round"/>
<path d="M354.698 66.3999V109.6V66.3999Z" stroke="white" stroke-width="2.24" stroke-miterlimit="10" stroke-linecap="round" stroke-linejoin="round"/>
<path d="M420.38 66.3999V109.6V66.3999Z" stroke="white" stroke-width="2.24" stroke-miterlimit="10" stroke-linecap="round" stroke-linejoin="round"/>
<path d="M349.571 66.3999V114.72V66.3999Z" stroke="white" stroke-width="0.96" stroke-miterlimit="10" stroke-linecap="round" stroke-linejoin="round"/>
<path d="M425.506 66.3999V114.72V66.3999Z" stroke="white" stroke-width="0.96" stroke-miterlimit="10" stroke-linecap="round" stroke-linejoin="round"/>
<path d="M349.571 114.72L354.698 109.6L349.571 114.72Z" stroke="white" stroke-width="2.24" stroke-miterlimit="10" stroke-linecap="round" stroke-linejoin="round"/>
<path d="M425.506 114.72L420.38 109.6L425.506 114.72Z" stroke="white" stroke-width="2.24" stroke-miterlimit="10" stroke-linecap="round" stroke-linejoin="round"/>
<path d="M354.698 109.6H420.38H354.698Z" stroke="white" stroke-width="2.24" stroke-miterlimit="10" stroke-linecap="round" stroke-linejoin="round"/>
<path d="M387.378 52V81.44V52Z" stroke="white" stroke-width="0.64" stroke-miterlimit="10" stroke-linecap="round" stroke-linejoin="round"/>
<path d="M387.378 87.2V92.64V87.2Z" stroke="white" stroke-width="0.64" stroke-miterlimit="10" stroke-linecap="round" stroke-linejoin="round"/>
<path d="M387.378 98.3999V127.84V98.3999Z" stroke="white" stroke-width="0.64" stroke-miterlimit="10" stroke-linecap="round" stroke-linejoin="round"/>
<path d="M349.571 66.3999L354.698 69.2799L349.571 66.3999Z" stroke="white" stroke-width="1.28" stroke-miterlimit="10" stroke-linecap="round" stroke-linejoin="round"/>
<path d="M354.698 69.28L349.571 72.48L354.698 69.28Z" stroke="white" stroke-width="1.28" stroke-miterlimit="10" stroke-linecap="round" stroke-linejoin="round"/>
<path d="M349.571 72.48L354.698 75.36L349.571 72.48Z" stroke="white" stroke-width="1.28" stroke-miterlimit="10" stroke-linecap="round" stroke-linejoin="round"/>
<path d="M354.698 75.3601L349.571 78.2401L354.698 75.3601Z" stroke="white" stroke-width="1.28" stroke-miterlimit="10" stroke-linecap="round" stroke-linejoin="round"/>
<path d="M349.571 78.24L354.698 81.12L349.571 78.24Z" stroke="white" stroke-width="1.28" stroke-miterlimit="10" stroke-linecap="round" stroke-linejoin="round"/>
<path d="M354.698 81.1199L349.571 83.9999L354.698 81.1199Z" stroke="white" stroke-width="1.28" stroke-miterlimit="10" stroke-linecap="round" stroke-linejoin="round"/>
<path d="M349.571 84L354.698 87.2L349.571 84Z" stroke="white" stroke-width="1.28" stroke-miterlimit="10" stroke-linecap="round" stroke-linejoin="round"/>
<path d="M354.698 87.2L349.571 90.0799L354.698 87.2Z" stroke="white" stroke-width="1.28" stroke-miterlimit="10" stroke-linecap="round" stroke-linejoin="round"/>
<path d="M349.571 90.0801L354.698 92.9601L349.571 90.0801Z" stroke="white" stroke-width="1.28" stroke-miterlimit="10" stroke-linecap="round" stroke-linejoin="round"/>
<path d="M354.698 92.96L349.571 95.84L354.698 92.96Z" stroke="white" stroke-width="1.28" stroke-miterlimit="10" stroke-linecap="round" stroke-linejoin="round"/>
<path d="M349.571 95.8401L354.698 99.0401L349.571 95.8401Z" stroke="white" stroke-width="1.28" stroke-miterlimit="10" stroke-linecap="round" stroke-linejoin="round"/>
<path d="M354.698 99.04L349.571 101.92L354.698 99.04Z" stroke="white" stroke-width="1.28" stroke-miterlimit="10" stroke-linecap="round" stroke-linejoin="round"/>
<path d="M349.571 101.92L354.698 104.8L349.571 101.92Z" stroke="white" stroke-width="1.28" stroke-miterlimit="10" stroke-linecap="round" stroke-linejoin="round"/>
<path d="M354.698 104.8L349.571 107.68L354.698 104.8Z" stroke="white" stroke-width="1.28" stroke-miterlimit="10" stroke-linecap="round" stroke-linejoin="round"/>
<path d="M349.571 107.68L354.698 109.6L349.571 107.68Z" stroke="white" stroke-width="1.28" stroke-miterlimit="10" stroke-linecap="round" stroke-linejoin="round"/>
<path d="M425.506 66.3999V114.72V66.3999Z" stroke="white" stroke-width="0.96" stroke-miterlimit="10" stroke-linecap="round" stroke-linejoin="round"/>
<path d="M425.506 66.3999L420.38 69.2799L425.506 66.3999Z" stroke="white" stroke-width="1.28" stroke-miterlimit="10" stroke-linecap="round" stroke-linejoin="round"/>
<path d="M420.38 69.28L425.506 72.48L420.38 69.28Z" stroke="white" stroke-width="1.28" stroke-miterlimit="10" stroke-linecap="round" stroke-linejoin="round"/>
<path d="M425.506 72.48L420.38 75.36L425.506 72.48Z" stroke="white" stroke-width="1.28" stroke-miterlimit="10" stroke-linecap="round" stroke-linejoin="round"/>
<path d="M420.38 75.3601L425.506 78.2401L420.38 75.3601Z" stroke="white" stroke-width="1.28" stroke-miterlimit="10" stroke-linecap="round" stroke-linejoin="round"/>
<path d="M425.506 78.24L420.38 81.12L425.506 78.24Z" stroke="white" stroke-width="1.28" stroke-miterlimit="10" stroke-linecap="round" stroke-linejoin="round"/>
<path d="M420.38 81.1199L425.506 83.9999L420.38 81.1199Z" stroke="white" stroke-width="1.28" stroke-miterlimit="10" stroke-linecap="round" stroke-linejoin="round"/>
<path d="M425.506 84L420.38 87.2L425.506 84Z" stroke="white" stroke-width="1.28" stroke-miterlimit="10" stroke-linecap="round" stroke-linejoin="round"/>
<path d="M420.38 87.2L425.506 90.0799L420.38 87.2Z" stroke="white" stroke-width="1.28" stroke-miterlimit="10" stroke-linecap="round" stroke-linejoin="round"/>
<path d="M425.506 90.0801L420.38 92.9601L425.506 90.0801Z" stroke="white" stroke-width="1.28" stroke-miterlimit="10" stroke-linecap="round" stroke-linejoin="round"/>
<path d="M420.38 92.96L425.506 95.84L420.38 92.96Z" stroke="white" stroke-width="1.28" stroke-miterlimit="10" stroke-linecap="round" stroke-linejoin="round"/>
<path d="M425.506 95.8401L420.38 99.0401L425.506 95.8401Z" stroke="white" stroke-width="1.28" stroke-miterlimit="10" stroke-linecap="round" stroke-linejoin="round"/>
<path d="M420.38 99.04L425.506 101.92L420.38 99.04Z" stroke="white" stroke-width="1.28" stroke-miterlimit="10" stroke-linecap="round" stroke-linejoin="round"/>
<path d="M425.506 101.92L420.38 104.8L425.506 101.92Z" stroke="white" stroke-width="1.28" stroke-miterlimit="10" stroke-linecap="round" stroke-linejoin="round"/>
<path d="M420.38 104.8L425.506 107.68L420.38 104.8Z" stroke="white" stroke-width="1.28" stroke-miterlimit="10" stroke-linecap="round" stroke-linejoin="round"/>
<path d="M425.506 107.68L420.38 109.6L425.506 107.68Z" stroke="white" stroke-width="1.28" stroke-miterlimit="10" stroke-linecap="round" stroke-linejoin="round"/>
<path d="M435.439 114.72L446.653 103.84L435.439 114.72Z" stroke="white" stroke-width="0.64" stroke-miterlimit="10" stroke-linecap="round" stroke-linejoin="round"/>
<path d="M425.506 108.96L446.653 87.8401L425.506 108.96Z" stroke="white" stroke-width="0.64" stroke-miterlimit="10" stroke-linecap="round" stroke-linejoin="round"/>
<path d="M425.506 92.9601L446.653 71.8401L425.506 92.9601Z" stroke="white" stroke-width="0.64" stroke-miterlimit="10" stroke-linecap="round" stroke-linejoin="round"/>
<path d="M425.506 76.9599L435.759 66.3999L425.506 76.9599Z" stroke="white" stroke-width="0.64" stroke-miterlimit="10" stroke-linecap="round" stroke-linejoin="round"/>
<path d="M339.318 114.72L349.571 104.16L339.318 114.72Z" stroke="white" stroke-width="0.64" stroke-miterlimit="10" stroke-linecap="round" stroke-linejoin="round"/>
<path d="M328.425 109.28L349.571 88.1599L328.425 109.28Z" stroke="white" stroke-width="0.64" stroke-miterlimit="10" stroke-linecap="round" stroke-linejoin="round"/>
<path d="M328.425 93.2799L349.571 72.1599L328.425 93.2799Z" stroke="white" stroke-width="0.64" stroke-miterlimit="10" stroke-linecap="round" stroke-linejoin="round"/>
<path d="M328.425 77.2799L339.318 66.3999L328.425 77.2799Z" stroke="white" stroke-width="0.64" stroke-miterlimit="10" stroke-linecap="round" stroke-linejoin="round"/>

    <!--    1 A-->
    <g class="group">
    </g>
    <!--    2 D-->
    <g class="group">
    </g>
    <!--    2 Dy-->
    <g class="group">
        <path d="M162.124 20.0476H157.891L158.667 17.9937H162.872C164.32 17.9937 165.63 17.7103 166.802 17.1434C167.978 16.5677 168.994 15.7654 169.852 14.7362C170.722 13.6984 171.41 12.4861 171.915 11.0994L172.34 9.9351C172.737 8.84492 172.95 7.87684 172.98 7.03087C173.013 6.17617 172.867 5.45665 172.542 4.87231C172.219 4.27926 171.724 3.8301 171.056 3.52485C170.396 3.2196 169.565 3.06698 168.563 3.06698H163.996L164.749 1H169.316C170.644 1 171.779 1.20931 172.722 1.62794C173.668 2.03785 174.392 2.63527 174.895 3.4202C175.41 4.1964 175.68 5.13832 175.703 6.24594C175.73 7.34484 175.492 8.58328 174.989 9.96126L174.575 11.0994C174.072 12.4774 173.406 13.7202 172.575 14.8278C171.748 15.9267 170.789 16.8643 169.698 17.6405C168.617 18.4167 167.434 19.0141 166.149 19.4327C164.876 19.8426 163.535 20.0476 162.124 20.0476ZM166.267 1L159.325 20.0476H156.638L163.58 1H166.267Z" fill="white"/>
        <path d="M103.139 95.4382C103.139 95.6149 103.283 95.7582 103.459 95.7582C103.636 95.7582 103.779 95.6149 103.779 95.4382H103.139ZM103.779 25.3582C103.779 25.1814 103.636 25.0382 103.459 25.0382C103.283 25.0382 103.139 25.1814 103.139 25.3582H103.779ZM221.368 95.4382C221.368 95.6149 221.511 95.7582 221.688 95.7582C221.864 95.7582 222.007 95.6149 222.007 95.4382H221.368ZM222.007 25.3582C222.007 25.1814 221.864 25.0382 221.688 25.0382C221.511 25.0382 221.368 25.1814 221.368 25.3582H222.007ZM157.891 20.0476L157.591 19.9344C157.554 20.0328 157.568 20.1431 157.628 20.2295C157.687 20.316 157.786 20.3676 157.891 20.3676V20.0476ZM158.667 17.9937V17.6737C158.534 17.6737 158.415 17.7561 158.368 17.8805L158.667 17.9937ZM166.802 17.1434L166.942 17.4314L166.943 17.4307L166.802 17.1434ZM169.852 14.7362L169.607 14.5306L169.606 14.5314L169.852 14.7362ZM171.915 11.0994L172.216 11.209L172.216 11.209L171.915 11.0994ZM172.34 9.9351L172.039 9.82553L172.039 9.82553L172.34 9.9351ZM172.98 7.03087L172.66 7.01851L172.66 7.01958L172.98 7.03087ZM172.542 4.87231L172.26 5.0251L172.262 5.02801L172.542 4.87231ZM171.056 3.52485L170.921 3.81524L170.923 3.81594L171.056 3.52485ZM163.996 3.06698L163.695 2.9574C163.66 3.05552 163.674 3.16491 163.734 3.25047C163.794 3.33602 163.892 3.38698 163.996 3.38698V3.06698ZM164.749 1V0.68C164.615 0.68 164.495 0.764077 164.449 0.890425L164.749 1ZM172.722 1.62794L172.592 1.92042L172.594 1.92156L172.722 1.62794ZM174.895 3.4202L174.625 3.59286L174.628 3.59721L174.895 3.4202ZM175.703 6.24594L175.383 6.25267L175.383 6.25365L175.703 6.24594ZM174.989 9.96126L175.29 10.0708L175.29 10.0708L174.989 9.96126ZM174.575 11.0994L174.274 10.9898L174.274 10.9898L174.575 11.0994ZM172.575 14.8278L172.831 15.0203L172.831 15.0198L172.575 14.8278ZM169.698 17.6405L169.513 17.3798L169.512 17.3805L169.698 17.6405ZM166.149 19.4327L166.247 19.7373L166.248 19.737L166.149 19.4327ZM166.267 1L166.568 1.10958C166.603 1.01146 166.589 0.902068 166.529 0.816512C166.469 0.730956 166.371 0.68 166.267 0.68V1ZM159.325 20.0476V20.3676C159.459 20.3676 159.58 20.2835 159.626 20.1572L159.325 20.0476ZM156.638 20.0476L156.337 19.938C156.301 20.0361 156.316 20.1455 156.375 20.2311C156.435 20.3166 156.533 20.3676 156.638 20.3676V20.0476ZM163.58 1V0.68C163.445 0.68 163.325 0.764077 163.279 0.890425L163.58 1ZM103.459 32.7183L103.422 32.4005C103.262 32.4195 103.141 32.5545 103.139 32.7156C103.138 32.8768 103.257 33.0138 103.417 33.0354L103.459 32.7183ZM122.363 30.4783L122.623 30.6644C122.697 30.5614 122.703 30.4245 122.639 30.3154C122.574 30.2063 122.451 30.1456 122.325 30.1605L122.363 30.4783ZM122.363 35.2783L122.32 35.5954C122.443 35.612 122.565 35.5561 122.632 35.4518C122.699 35.3475 122.7 35.2137 122.634 35.1085L122.363 35.2783ZM221.687 32.7183L221.73 33.0354C221.89 33.0138 222.009 32.8768 222.007 32.7156C222.006 32.5545 221.885 32.4195 221.725 32.4005L221.687 32.7183ZM202.784 35.2783L202.512 35.1085C202.447 35.2137 202.448 35.3475 202.515 35.4518C202.582 35.5561 202.704 35.612 202.827 35.5954L202.784 35.2783ZM202.784 30.4783L202.821 30.1605C202.696 30.1456 202.573 30.2064 202.508 30.3154C202.444 30.4245 202.45 30.5614 202.523 30.6644L202.784 30.4783ZM103.779 95.4382V25.3582H103.139V95.4382H103.779ZM222.007 95.4382V25.3582H221.368V95.4382H222.007ZM162.124 19.7276H157.891V20.3676H162.124V19.7276ZM158.19 20.1607L158.967 18.1068L158.368 17.8805L157.591 19.9344L158.19 20.1607ZM158.667 18.3137H162.872V17.6737H158.667V18.3137ZM162.872 18.3137C164.363 18.3137 165.722 18.0216 166.942 17.4314L166.663 16.8553C165.539 17.3989 164.277 17.6737 162.872 17.6737V18.3137ZM166.943 17.4307C168.16 16.8348 169.212 16.004 170.098 14.9411L169.606 14.5314C168.776 15.5268 167.795 16.3006 166.662 16.856L166.943 17.4307ZM170.097 14.9418C170.993 13.873 171.699 12.6275 172.216 11.209L171.615 10.9898C171.121 12.3447 170.451 13.5238 169.607 14.5306L170.097 14.9418ZM172.216 11.209L172.64 10.0447L172.039 9.82553L171.615 10.9898L172.216 11.209ZM172.64 10.0447C173.045 8.93378 173.269 7.93155 173.3 7.04215L172.66 7.01958C172.632 7.82214 172.429 8.75607 172.039 9.82553L172.64 10.0447ZM173.3 7.04322C173.335 6.14599 173.182 5.36469 172.821 4.71662L172.262 5.02801C172.552 5.54861 172.692 6.20634 172.661 7.01851L173.3 7.04322ZM172.823 4.71953C172.464 4.06003 171.914 3.56512 171.188 3.23376L170.923 3.81594C171.534 4.09509 171.974 4.49848 172.26 5.02509L172.823 4.71953ZM171.19 3.23447C170.476 2.90377 169.595 2.74698 168.563 2.74698V3.38698C169.536 3.38698 170.317 3.53543 170.921 3.81523L171.19 3.23447ZM168.563 2.74698H163.996V3.38698H168.563V2.74698ZM164.297 3.17655L165.05 1.10958L164.449 0.890425L163.695 2.9574L164.297 3.17655ZM164.749 1.32H169.316V0.68H164.749V1.32ZM169.316 1.32C170.611 1.32 171.7 1.52434 172.592 1.92041L172.851 1.33548C171.858 0.894284 170.676 0.68 169.316 0.68V1.32ZM172.594 1.92156C173.488 2.30896 174.16 2.86709 174.625 3.59284L175.164 3.24755C174.623 2.40345 173.847 1.76674 172.849 1.33432L172.594 1.92156ZM174.628 3.59721C175.104 4.31399 175.361 5.19411 175.383 6.25267L176.023 6.2392C175.999 5.08253 175.716 4.07882 175.162 3.24318L174.628 3.59721ZM175.383 6.25365C175.408 7.30169 175.182 8.49943 174.689 9.85169L175.29 10.0708C175.802 8.66713 176.051 7.38798 176.023 6.23822L175.383 6.25365ZM174.689 9.85169L174.274 10.9898L174.875 11.209L175.29 10.0708L174.689 9.85169ZM174.274 10.9898C173.782 12.3401 173.13 13.5548 172.319 14.6358L172.831 15.0198C173.682 13.8856 174.363 12.6147 174.875 11.209L174.274 10.9898ZM172.32 14.6353C171.511 15.7088 170.576 16.6231 169.513 17.3798L169.884 17.9012C171.002 17.1054 171.984 16.1447 172.831 15.0203L172.32 14.6353ZM169.512 17.3805C168.458 18.1373 167.304 18.7199 166.05 19.1285L166.248 19.737C167.564 19.3083 168.777 18.6961 169.885 17.9004L169.512 17.3805ZM166.051 19.1281C164.812 19.5273 163.503 19.7276 162.124 19.7276V20.3676C163.566 20.3676 164.941 20.158 166.247 19.7373L166.051 19.1281ZM165.966 0.890425L159.024 19.938L159.626 20.1572L166.568 1.10958L165.966 0.890425ZM159.325 19.7276H156.638V20.3676H159.325V19.7276ZM156.938 20.1572L163.88 1.10958L163.279 0.890425L156.337 19.938L156.938 20.1572ZM163.58 1.32H166.267V0.68H163.58V1.32ZM103.497 33.0361L122.401 30.7961L122.325 30.1605L103.422 32.4005L103.497 33.0361ZM122.103 30.2922L120.501 32.5322L121.022 32.9045L122.623 30.6644L122.103 30.2922ZM120.49 32.8881L122.092 35.448L122.634 35.1085L121.032 32.5486L120.49 32.8881ZM122.406 34.9612L103.502 32.4012L103.417 33.0354L122.32 35.5954L122.406 34.9612ZM119.8 31.1184H122.363V30.4784H119.8V31.1184ZM117.237 31.4384H122.043V30.7984H117.237V31.4384ZM114.353 31.7584H121.723V31.1184H114.353V31.7584ZM111.79 32.0784H121.723V31.4384H111.79V32.0784ZM108.906 32.3984H121.402V31.7584H108.906V32.3984ZM106.343 32.7184H121.082V32.0784H106.343V32.7184ZM103.459 33.0383H120.761V32.3983H103.459V33.0383ZM106.023 33.3583H121.081V32.7183H106.023V33.3583ZM108.265 33.6783H121.402V33.0383H108.265V33.6783ZM110.829 33.9983H121.402V33.3583H110.829V33.9983ZM113.071 34.3183H121.722V33.6783H113.071V34.3183ZM115.314 34.6383H122.043V33.9983H115.314V34.6383ZM117.877 34.9583H122.043V34.3183H117.877V34.9583ZM120.12 35.2783H122.363V34.6383H120.12V35.2783ZM221.644 32.4012L202.741 34.9612L202.827 35.5954L221.73 33.0354L221.644 32.4012ZM203.055 35.448L204.657 32.888L204.114 32.5485L202.512 35.1085L203.055 35.448ZM204.646 32.5321L203.044 30.2921L202.523 30.6644L204.125 32.9044L204.646 32.5321ZM202.746 30.7961L221.65 33.0361L221.725 32.4005L202.821 30.1605L202.746 30.7961ZM204.386 33.0383H221.687V32.3983H204.386V33.0383ZM204.386 33.3583H219.444V32.7183H204.386V33.3583ZM204.065 33.6783H217.202V33.0383H204.065V33.6783ZM204.065 33.9983H214.638V33.3583H204.065V33.9983ZM203.745 34.3183H212.396V33.6783H203.745V34.3183ZM203.424 34.6383H210.153V33.9983H203.424V34.6383ZM203.424 34.9583H207.59V34.3183H203.424V34.9583ZM203.104 35.2783H205.347V34.6383H203.104V35.2783ZM203.104 31.1184H205.667V30.4784H203.104V31.1184ZM203.424 31.4384H208.23V30.7984H203.424V31.4384ZM203.745 31.7584H211.114V31.1184H203.745V31.7584ZM203.745 32.0784H213.677V31.4384H203.745V32.0784ZM204.065 32.3984H216.561V31.7584H204.065V32.3984ZM204.386 32.7184H219.124V32.0784H204.386V32.7184ZM103.459 33.0383L221.687 33.0383L221.687 32.3983L103.459 32.3983L103.459 33.0383Z" fill="white"/>
    </g>
    <!--    3 Dh-->
    <g class="group">
    </g>
    <!--    4 D1-->
    <g class="group">
    </g>
    <!--    5 D2-->
    <g class="group">
    </g>
    <!--    6 d-->
    <g class="group">
        <path d="M392.461 142.047L398.784 124.7H401.373L394.05 144.794H391.683L392.461 142.047ZM383.846 137.874L383.946 137.599C384.34 136.518 384.837 135.537 385.436 134.656C386.048 133.766 386.73 133.003 387.482 132.366C388.243 131.73 389.048 131.241 389.896 130.901C390.756 130.552 391.637 130.378 392.537 130.378C393.484 130.378 394.253 130.535 394.844 130.849C395.448 131.154 395.887 131.603 396.163 132.196C396.451 132.781 396.588 133.487 396.574 134.316C396.56 135.144 396.418 136.082 396.148 137.128L395.709 138.332C395.229 139.37 394.689 140.303 394.09 141.131C393.5 141.96 392.848 142.666 392.134 143.251C391.429 143.835 390.662 144.284 389.833 144.598C389.007 144.903 388.116 145.056 387.16 145.056C386.278 145.056 385.536 144.877 384.933 144.52C384.339 144.162 383.895 143.661 383.601 143.015C383.316 142.37 383.189 141.611 383.219 140.739C383.262 139.858 383.471 138.903 383.846 137.874ZM386.536 137.599L386.436 137.874C386.178 138.58 386.011 139.243 385.934 139.862C385.866 140.482 385.908 141.027 386.062 141.498C386.215 141.969 386.493 142.339 386.896 142.61C387.302 142.871 387.853 143.002 388.549 143.002C389.403 143.002 390.166 142.832 390.837 142.492C391.518 142.152 392.127 141.703 392.665 141.144C393.203 140.586 393.684 139.98 394.108 139.326L395.257 136.173C395.32 135.694 395.326 135.231 395.275 134.787C395.236 134.333 395.113 133.932 394.906 133.583C394.711 133.225 394.411 132.942 394.004 132.733C393.607 132.523 393.084 132.419 392.434 132.419C391.728 132.419 391.07 132.558 390.457 132.837C389.858 133.108 389.308 133.483 388.808 133.962C388.312 134.433 387.87 134.983 387.483 135.611C387.109 136.23 386.793 136.893 386.536 137.599Z" fill="white"/>
        <path d="M349.891 122.72C349.891 122.543 349.748 122.4 349.571 122.4C349.395 122.4 349.251 122.543 349.251 122.72H349.891ZM349.251 165.28C349.251 165.457 349.395 165.6 349.571 165.6C349.748 165.6 349.891 165.457 349.891 165.28H349.251ZM425.826 122.72C425.826 122.543 425.683 122.4 425.506 122.4C425.33 122.4 425.186 122.543 425.186 122.72H425.826ZM425.186 165.28C425.186 165.457 425.33 165.6 425.506 165.6C425.683 165.6 425.826 165.457 425.826 165.28H425.186ZM392.461 142.047L392.161 141.938C392.158 141.945 392.156 141.952 392.154 141.96L392.461 142.047ZM398.784 124.7V124.38C398.649 124.38 398.529 124.464 398.483 124.591L398.784 124.7ZM401.373 124.7L401.674 124.81C401.71 124.712 401.696 124.602 401.636 124.517C401.576 124.431 401.478 124.38 401.373 124.38V124.7ZM394.05 144.794V145.114C394.184 145.114 394.305 145.03 394.351 144.904L394.05 144.794ZM391.683 144.794L391.375 144.707C391.348 144.804 391.367 144.907 391.428 144.987C391.488 145.067 391.583 145.114 391.683 145.114V144.794ZM383.846 137.874L384.146 137.984L384.146 137.984L383.846 137.874ZM383.946 137.599L383.645 137.49L383.645 137.49L383.946 137.599ZM385.436 134.656L385.173 134.474L385.172 134.476L385.436 134.656ZM387.482 132.366L387.277 132.121L387.275 132.122L387.482 132.366ZM389.896 130.901L390.015 131.198L390.016 131.198L389.896 130.901ZM394.844 130.849L394.694 131.131L394.7 131.134L394.844 130.849ZM396.163 132.196L395.873 132.331L395.876 132.338L396.163 132.196ZM396.148 137.128L396.448 137.238C396.452 137.228 396.455 137.218 396.458 137.208L396.148 137.128ZM395.709 138.332L396 138.466C396.003 138.458 396.007 138.45 396.01 138.441L395.709 138.332ZM394.09 141.131L393.831 140.944L393.829 140.946L394.09 141.131ZM392.134 143.251L391.932 143.003L391.93 143.004L392.134 143.251ZM389.833 144.598L389.944 144.898L389.946 144.897L389.833 144.598ZM384.933 144.52L384.767 144.794L384.769 144.795L384.933 144.52ZM383.601 143.015L383.308 143.144L383.31 143.148L383.601 143.015ZM383.219 140.739L382.9 140.723L382.9 140.728L383.219 140.739ZM386.536 137.599L386.235 137.49L386.235 137.49L386.536 137.599ZM386.436 137.874L386.736 137.984L386.736 137.984L386.436 137.874ZM385.934 139.862L385.616 139.823L385.616 139.828L385.934 139.862ZM386.896 142.61L386.717 142.875L386.722 142.879L386.896 142.61ZM390.837 142.492L390.694 142.206L390.693 142.206L390.837 142.492ZM394.108 139.326L394.376 139.5C394.389 139.48 394.4 139.458 394.408 139.436L394.108 139.326ZM395.257 136.173L395.557 136.283C395.565 136.261 395.571 136.238 395.574 136.215L395.257 136.173ZM395.275 134.787L394.956 134.814L394.957 134.823L395.275 134.787ZM394.906 133.583L394.624 133.736L394.631 133.746L394.906 133.583ZM394.004 132.733L393.855 133.016L393.858 133.017L394.004 132.733ZM390.457 132.837L390.589 133.129L390.59 133.129L390.457 132.837ZM388.808 133.962L389.028 134.195L389.03 134.193L388.808 133.962ZM387.483 135.611L387.211 135.443L387.209 135.445L387.483 135.611ZM349.571 157.6L349.528 157.283C349.37 157.304 349.251 157.44 349.251 157.6C349.251 157.76 349.37 157.896 349.528 157.917L349.571 157.6ZM368.475 155.04L368.746 155.21C368.812 155.105 368.811 154.971 368.744 154.867C368.677 154.762 368.555 154.706 368.432 154.723L368.475 155.04ZM368.475 160.16L368.432 160.477C368.555 160.494 368.677 160.438 368.744 160.334C368.811 160.229 368.812 160.096 368.746 159.99L368.475 160.16ZM425.506 157.6L425.549 157.917C425.708 157.896 425.826 157.76 425.826 157.6C425.826 157.44 425.708 157.304 425.549 157.283L425.506 157.6ZM406.603 160.16L406.331 159.99C406.265 160.096 406.266 160.229 406.334 160.334C406.401 160.438 406.522 160.494 406.645 160.477L406.603 160.16ZM406.603 155.04L406.645 154.723C406.522 154.706 406.401 154.762 406.334 154.867C406.266 154.971 406.265 155.105 406.331 155.21L406.603 155.04ZM349.251 122.72V165.28H349.891V122.72H349.251ZM425.186 122.72V165.28H425.826V122.72H425.186ZM392.762 142.157L399.084 124.81L398.483 124.591L392.161 141.938L392.762 142.157ZM398.784 125.02H401.373V124.38H398.784V125.02ZM401.073 124.591L393.749 144.685L394.351 144.904L401.674 124.81L401.073 124.591ZM394.05 144.474H391.683V145.114H394.05V144.474ZM391.991 144.882L392.769 142.134L392.154 141.96L391.375 144.707L391.991 144.882ZM384.146 137.984L384.247 137.709L383.645 137.49L383.545 137.764L384.146 137.984ZM384.247 137.709C384.632 136.65 385.117 135.693 385.701 134.836L385.172 134.476C384.556 135.38 384.048 136.385 383.645 137.49L384.247 137.709ZM385.7 134.837C386.297 133.969 386.961 133.227 387.689 132.611L387.275 132.122C386.5 132.779 385.799 133.564 385.173 134.474L385.7 134.837ZM387.687 132.612C388.425 131.995 389.201 131.525 390.015 131.198L389.777 130.604C388.895 130.958 388.062 131.464 387.277 132.121L387.687 132.612ZM390.016 131.198C390.84 130.864 391.679 130.698 392.537 130.698V130.058C391.594 130.058 390.673 130.241 389.776 130.605L390.016 131.198ZM392.537 130.698C393.452 130.698 394.164 130.85 394.694 131.131L394.994 130.566C394.342 130.22 393.516 130.058 392.537 130.058V130.698ZM394.7 131.134C395.241 131.408 395.628 131.806 395.873 132.331L396.453 132.061C396.146 131.401 395.654 130.9 394.988 130.563L394.7 131.134ZM395.876 132.338C396.137 132.866 396.268 133.519 396.254 134.31L396.894 134.321C396.909 133.455 396.766 132.695 396.45 132.055L395.876 132.338ZM396.254 134.31C396.241 135.107 396.103 136.019 395.838 137.048L396.458 137.208C396.732 136.144 396.879 135.181 396.894 134.321L396.254 134.31ZM395.847 137.019L395.408 138.222L396.01 138.441L396.448 137.238L395.847 137.019ZM395.419 138.197C394.946 139.219 394.416 140.134 393.831 140.944L394.349 141.319C394.962 140.472 395.512 139.521 396 138.466L395.419 138.197ZM393.829 140.946C393.255 141.754 392.622 142.438 391.932 143.003L392.337 143.498C393.075 142.894 393.746 142.166 394.351 141.317L393.829 140.946ZM391.93 143.004C391.251 143.567 390.515 143.998 389.72 144.299L389.946 144.897C390.81 144.571 391.607 144.103 392.338 143.497L391.93 143.004ZM389.722 144.298C388.934 144.589 388.081 144.736 387.16 144.736V145.376C388.151 145.376 389.079 145.218 389.944 144.898L389.722 144.298ZM387.16 144.736C386.321 144.736 385.638 144.566 385.096 144.244L384.769 144.795C385.433 145.188 386.235 145.376 387.16 145.376V144.736ZM385.098 144.246C384.561 143.922 384.16 143.471 383.892 142.883L383.31 143.148C383.63 143.851 384.117 144.402 384.767 144.794L385.098 144.246ZM383.894 142.886C383.633 142.294 383.51 141.585 383.539 140.75L382.9 140.728C382.868 141.637 383 142.446 383.308 143.144L383.894 142.886ZM383.539 140.754C383.58 139.912 383.78 138.989 384.146 137.984L383.545 137.764C383.162 138.817 382.944 139.804 382.9 140.723L383.539 140.754ZM386.235 137.49L386.135 137.764L386.736 137.984L386.836 137.709L386.235 137.49ZM386.135 137.764C385.871 138.489 385.697 139.175 385.616 139.823L386.251 139.902C386.325 139.311 386.485 138.672 386.736 137.984L386.135 137.764ZM385.616 139.828C385.544 140.481 385.587 141.073 385.757 141.597L386.366 141.399C386.23 140.98 386.188 140.483 386.252 139.897L385.616 139.828ZM385.757 141.597C385.932 142.134 386.254 142.564 386.717 142.875L387.074 142.344C386.732 142.114 386.498 141.803 386.366 141.399L385.757 141.597ZM386.722 142.879C387.198 143.185 387.817 143.322 388.549 143.322V142.682C387.888 142.682 387.405 142.557 387.069 142.341L386.722 142.879ZM388.549 143.322C389.446 143.322 390.26 143.143 390.982 142.777L390.693 142.206C390.072 142.521 389.359 142.682 388.549 142.682V143.322ZM390.98 142.778C391.694 142.421 392.333 141.95 392.896 141.366L392.435 140.922C391.922 141.455 391.342 141.882 390.694 142.206L390.98 142.778ZM392.896 141.366C393.447 140.793 393.941 140.171 394.376 139.5L393.839 139.152C393.426 139.789 392.958 140.379 392.435 140.922L392.896 141.366ZM394.408 139.436L395.557 136.283L394.956 136.064L393.807 139.216L394.408 139.436ZM395.574 136.215C395.64 135.712 395.647 135.223 395.593 134.75L394.957 134.823C395.005 135.24 395 135.676 394.939 136.131L395.574 136.215ZM395.594 134.759C395.551 134.264 395.415 133.815 395.181 133.42L394.631 133.746C394.81 134.049 394.921 134.403 394.956 134.814L395.594 134.759ZM395.187 133.43C394.958 133.009 394.607 132.683 394.151 132.448L393.858 133.017C394.214 133.201 394.464 133.441 394.625 133.736L395.187 133.43ZM394.153 132.45C393.694 132.208 393.114 132.099 392.434 132.099V132.739C393.053 132.739 393.52 132.839 393.855 133.016L394.153 132.45ZM392.434 132.099C391.685 132.099 390.981 132.247 390.325 132.546L390.59 133.129C391.159 132.869 391.772 132.739 392.434 132.739V132.099ZM390.326 132.546C389.691 132.832 389.111 133.228 388.586 133.732L389.03 134.193C389.504 133.738 390.024 133.384 390.589 133.129L390.326 132.546ZM388.588 133.73C388.07 134.222 387.611 134.793 387.211 135.443L387.756 135.779C388.129 135.172 388.553 134.645 389.028 134.195L388.588 133.73ZM387.209 135.445C386.824 136.083 386.499 136.765 386.235 137.49L386.836 137.709C387.087 137.021 387.394 136.377 387.757 135.776L387.209 135.445ZM349.614 157.917L368.518 155.357L368.432 154.723L349.528 157.283L349.614 157.917ZM368.204 154.87L366.602 157.43L367.144 157.77L368.746 155.21L368.204 154.87ZM366.602 157.77L368.204 160.33L368.746 159.99L367.144 157.43L366.602 157.77ZM368.518 159.843L349.614 157.283L349.528 157.917L368.432 160.477L368.518 159.843ZM366.232 155.68H368.475V155.04H366.232V155.68ZM363.989 156H368.154V155.36H363.989V156ZM361.426 156.32H368.154V155.68H361.426V156.32ZM359.183 156.64H367.834V156H359.183V156.64ZM356.94 156.96H367.514V156.32H356.94V156.96ZM354.377 157.28H367.514V156.64H354.377V157.28ZM352.134 157.6H367.193V156.96H352.134V157.6ZM349.571 157.92H366.873V157.28H349.571V157.92ZM352.134 158.24H367.193V157.6H352.134V158.24ZM354.377 158.56H367.514V157.92H354.377V158.56ZM356.941 158.88H367.514V158.24H356.941V158.88ZM359.183 159.2H367.834V158.56H359.183V159.2ZM361.426 159.52H368.155V158.88H361.426V159.52ZM363.989 159.84H368.155V159.2H363.989V159.84ZM366.232 160.16H368.475V159.52H366.232V160.16ZM425.463 157.283L406.56 159.843L406.645 160.477L425.549 157.917L425.463 157.283ZM406.874 160.33L408.476 157.77L407.933 157.43L406.331 159.99L406.874 160.33ZM408.476 157.43L406.874 154.87L406.331 155.21L407.933 157.77L408.476 157.43ZM406.56 155.357L425.463 157.917L425.549 157.283L406.645 154.723L406.56 155.357ZM408.205 157.92H425.506V157.28H408.205V157.92ZM408.205 158.24H423.264V157.6H408.205V158.24ZM407.885 158.56H421.021V157.92H407.885V158.56ZM407.885 158.88H418.458V158.24H407.885V158.88ZM407.564 159.2H416.215V158.56H407.564V159.2ZM407.244 159.52H413.972V158.88H407.244V159.52ZM407.244 159.84H411.409V159.2H407.244V159.84ZM406.923 160.16H409.166V159.52H406.923V160.16ZM406.923 155.68H409.166V155.04H406.923V155.68ZM407.244 156H411.409V155.36H407.244V156ZM407.244 156.32H413.972V155.68H407.244V156.32ZM407.564 156.64H416.215V156H407.564V156.64ZM407.885 156.96H418.458V156.32H407.885V156.96ZM407.885 157.28H421.021V156.64H407.885V157.28ZM408.205 157.6H423.264V156.96H408.205V157.6ZM349.571 157.92L425.506 157.92L425.506 157.28L349.571 157.28L349.571 157.92Z" fill="white"/>
    </g>
    <!--    7 dH-->
    <g class="group">
    </g>
    <!--    8 d1-->
    <g class="group">
    </g>
    <!--    9 d2-->
    <g class="group">
    </g>
    <!--    10 L-->
    <g class="group">
    </g>
    <!--    11 L1-->
    <g class="group">
    </g>
    <!--    12 L2-->
    <g class="group">
    </g>
    <!--    13 S-->
    <g class="group">
        <path d="M15.4993 101.966C15.0543 101.804 14.6618 101.736 14.3215 101.761C13.9726 101.773 13.6585 101.909 13.3793 102.17C13.1002 102.421 12.8341 102.816 12.5811 103.356C12.3281 103.886 12.0707 104.581 11.809 105.442C11.5298 106.343 11.2201 107.136 10.8799 107.819C10.531 108.5 10.134 109.047 9.68909 109.461C9.24416 109.875 8.73381 110.13 8.15803 110.227C7.58225 110.324 6.92358 110.238 6.18205 109.969C5.44051 109.699 4.75568 109.288 4.12755 108.734C3.49942 108.181 2.95417 107.519 2.4918 106.747C2.02071 105.963 1.6543 105.101 1.39258 104.162C1.13086 103.222 1 102.232 1 101.192C1 99.67 1.27481 98.4796 1.82442 97.6212C2.3653 96.7503 3.07631 96.1966 3.95743 95.9599C4.82983 95.7201 5.7633 95.781 6.75783 96.1426V98.816C6.04246 98.5559 5.40997 98.4884 4.86036 98.6135C4.30203 98.7354 3.86583 99.0688 3.55177 99.6137C3.22898 100.155 3.06758 100.932 3.06758 101.944C3.06758 102.9 3.20281 103.738 3.47325 104.458C3.74369 105.179 4.1101 105.776 4.57247 106.251C5.03484 106.716 5.56264 107.056 6.15587 107.272C6.55718 107.418 6.92359 107.463 7.2551 107.407C7.57788 107.338 7.87886 107.165 8.15803 106.886C8.4372 106.597 8.69455 106.199 8.9301 105.69C9.16565 105.173 9.39247 104.536 9.61057 103.78C9.91591 102.74 10.2561 101.87 10.6313 101.171C11.0064 100.472 11.4295 99.9388 11.9006 99.5717C12.363 99.1921 12.8908 98.9802 13.484 98.9359C14.0685 98.8792 14.7316 98.9857 15.4731 99.2552C16.2495 99.5375 16.9518 99.9599 17.5799 100.522C18.2081 101.085 18.7446 101.758 19.1895 102.542C19.6344 103.325 19.979 104.198 20.2233 105.159C20.4588 106.108 20.5766 107.116 20.5766 108.184C20.5766 109.121 20.4545 110.001 20.2102 110.822C19.9659 111.633 19.5995 112.322 19.111 112.887C18.6224 113.442 18.0205 113.813 17.3051 113.998C16.581 114.171 15.7435 114.085 14.7926 113.739V111.066C15.4469 111.304 16.0096 111.374 16.4807 111.276C16.9431 111.175 17.3269 110.948 17.6323 110.595C17.9376 110.232 18.1644 109.781 18.3127 109.241C18.4523 108.688 18.5221 108.087 18.5221 107.437C18.5221 106.5 18.4 105.661 18.1557 104.923C17.9114 104.184 17.5625 103.565 17.1088 103.066C16.6552 102.558 16.1187 102.191 15.4993 101.966Z" fill="white"/>
        <path d="M89.0396 57.6782C89.2164 57.6782 89.3596 57.5349 89.3596 57.3582C89.3596 57.1814 89.2164 57.0382 89.0396 57.0382V57.6782ZM25.6002 57.0382C25.4235 57.0382 25.2802 57.1814 25.2802 57.3582C25.2802 57.5349 25.4235 57.6782 25.6002 57.6782V57.0382ZM89.0396 160.078C89.2164 160.078 89.3596 159.935 89.3596 159.758C89.3596 159.582 89.2164 159.438 89.0396 159.438V160.078ZM25.6002 159.438C25.4235 159.438 25.2802 159.582 25.2802 159.758C25.2802 159.935 25.4235 160.078 25.6002 160.078V159.438ZM15.4993 101.966L15.3899 102.267L15.3899 102.267L15.4993 101.966ZM14.3215 101.761L14.3329 102.081L14.3448 102.08L14.3215 101.761ZM13.3793 102.17L13.5934 102.408L13.5977 102.404L13.3793 102.17ZM12.5811 103.356L12.8699 103.494L12.8708 103.492L12.5811 103.356ZM11.809 105.442L12.1147 105.537L12.1152 105.535L11.809 105.442ZM10.8799 107.819L11.1647 107.965L11.1664 107.962L10.8799 107.819ZM2.4918 106.747L2.76628 106.583L2.76608 106.582L2.4918 106.747ZM1.82442 97.6212L2.09394 97.7937L2.09625 97.79L1.82442 97.6212ZM3.95743 95.9599L4.04043 96.269L4.04224 96.2685L3.95743 95.9599ZM6.75783 96.1426H7.07783C7.07783 96.008 6.99364 95.8878 6.86716 95.8418L6.75783 96.1426ZM6.75783 98.816L6.6485 99.1167C6.7466 99.1524 6.85593 99.1379 6.94142 99.078C7.02692 99.0182 7.07783 98.9203 7.07783 98.816H6.75783ZM4.86036 98.6135L4.92863 98.9261L4.93137 98.9255L4.86036 98.6135ZM3.55177 99.6137L3.82669 99.7775L3.82901 99.7735L3.55177 99.6137ZM4.57247 106.251L4.3433 106.474L4.34552 106.476L4.57247 106.251ZM6.15587 107.272L6.26521 106.971L6.26521 106.971L6.15587 107.272ZM7.2551 107.407L7.3083 107.723L7.32134 107.72L7.2551 107.407ZM8.15803 106.886L8.3843 107.112L8.38795 107.108L8.15803 106.886ZM8.9301 105.69L9.22046 105.825L9.22137 105.823L8.9301 105.69ZM9.61057 103.78L9.30353 103.689L9.30311 103.691L9.61057 103.78ZM11.9006 99.5717L12.0974 99.8242L12.1037 99.819L11.9006 99.5717ZM13.484 98.9359L13.5078 99.2551L13.5149 99.2544L13.484 98.9359ZM15.4731 99.2552L15.3638 99.556L15.4731 99.2552ZM20.2233 105.159L20.5339 105.082L20.5334 105.081L20.2233 105.159ZM20.2102 110.822L20.5166 110.914L20.5169 110.913L20.2102 110.822ZM19.111 112.887L19.3513 113.098L19.353 113.096L19.111 112.887ZM17.3051 113.998L17.3795 114.31L17.3854 114.308L17.3051 113.998ZM14.7926 113.739H14.4726C14.4726 113.874 14.5568 113.994 14.6833 114.04L14.7926 113.739ZM14.7926 111.066L14.902 110.765C14.8038 110.73 14.6945 110.744 14.609 110.804C14.5235 110.864 14.4726 110.962 14.4726 111.066H14.7926ZM16.4807 111.276L16.5458 111.589L16.5491 111.588L16.4807 111.276ZM17.6323 110.595L17.8744 110.804L17.877 110.801L17.6323 110.595ZM18.3127 109.241L18.6214 109.325L18.623 109.319L18.3127 109.241ZM17.1088 103.066L16.8701 103.279L16.872 103.282L17.1088 103.066ZM33.2897 57.3582L33.6075 57.3204C33.5885 57.1604 33.4535 57.0395 33.2924 57.0382C33.1313 57.0368 32.9943 57.1555 32.9726 57.3151L33.2897 57.3582ZM35.5325 76.2382L35.3466 76.4987C35.4497 76.5722 35.5865 76.578 35.6955 76.5135C35.8045 76.449 35.8652 76.3262 35.8502 76.2004L35.5325 76.2382ZM33.2897 74.6382L33.2897 74.3182L33.2897 74.3182L33.2897 74.6382ZM30.7267 76.2382L30.4096 76.1951C30.3929 76.3181 30.4488 76.4396 30.553 76.5069C30.6572 76.5743 30.7909 76.5753 30.8962 76.5096L30.7267 76.2382ZM33.2899 159.758L32.9729 159.801C32.9945 159.961 33.1315 160.08 33.2926 160.078C33.4537 160.077 33.5887 159.956 33.6077 159.796L33.2899 159.758ZM30.7267 140.878L30.9186 140.622C30.8153 140.545 30.6757 140.537 30.5646 140.602C30.4534 140.668 30.3923 140.793 30.4096 140.921L30.7267 140.878ZM35.5325 140.878L35.8502 140.916C35.8658 140.785 35.7995 140.658 35.6832 140.596C35.5669 140.534 35.4245 140.549 35.3244 140.635L35.5325 140.878ZM89.0396 57.0382H25.6002V57.6782H89.0396V57.0382ZM89.0396 159.438H25.6002V160.078H89.0396V159.438ZM15.6086 101.665C15.1366 101.494 14.6974 101.412 14.2982 101.441L14.3448 102.08C14.6262 102.059 14.972 102.115 15.3899 102.267L15.6086 101.665ZM14.3102 101.441C13.8767 101.456 13.4909 101.628 13.161 101.936L13.5977 102.404C13.8261 102.191 14.0684 102.09 14.3329 102.08L14.3102 101.441ZM13.1653 101.932C12.8412 102.224 12.5531 102.662 12.2914 103.22L12.8708 103.492C13.1151 102.971 13.3591 102.619 13.5934 102.408L13.1653 101.932ZM12.2923 103.218C12.0298 103.768 11.7671 104.48 11.5028 105.349L12.1152 105.535C12.3744 104.682 12.6264 104.004 12.8699 103.494L12.2923 103.218ZM11.5034 105.347C11.2281 106.236 10.9244 107.012 10.5934 107.677L11.1664 107.962C11.5158 107.26 11.8316 106.451 12.1147 105.537L11.5034 105.347ZM10.5951 107.674C10.259 108.329 9.88282 108.844 9.47117 109.227L9.90701 109.696C10.3852 109.251 10.803 108.671 11.1647 107.965L10.5951 107.674ZM9.47117 109.227C9.07008 109.6 8.61638 109.826 8.10487 109.912L8.21119 110.543C8.85124 110.435 9.41825 110.15 9.90701 109.696L9.47117 109.227ZM8.10487 109.912C7.59947 109.997 6.99848 109.925 6.29138 109.668L6.07271 110.269C6.84869 110.551 7.56503 110.652 8.21119 110.543L8.10487 109.912ZM6.29138 109.668C5.58963 109.413 4.93905 109.023 4.33905 108.494L3.91604 108.974C4.5723 109.552 5.29139 109.985 6.07271 110.269L6.29138 109.668ZM4.33905 108.494C3.73747 107.964 3.21295 107.328 2.76628 106.583L2.21732 106.912C2.6954 107.709 3.26137 108.398 3.91604 108.974L4.33905 108.494ZM2.76608 106.582C2.31078 105.825 1.95536 104.99 1.70085 104.076L1.08431 104.247C1.35324 105.213 1.73064 106.102 2.21752 106.912L2.76608 106.582ZM1.70085 104.076C1.44741 103.166 1.32 102.205 1.32 101.192H0.68C0.68 102.259 0.814312 103.278 1.08431 104.247L1.70085 104.076ZM1.32 101.192C1.32 99.7029 1.58977 98.5811 2.09391 97.7937L1.55492 97.4486C0.959839 98.3781 0.68 99.637 0.68 101.192H1.32ZM2.09625 97.79C2.6 96.9789 3.24766 96.4819 4.04043 96.269L3.87443 95.6509C2.90495 95.9112 2.1306 96.5217 1.55258 97.4523L2.09625 97.79ZM4.04224 96.2685C4.84035 96.0491 5.70541 96.1005 6.6485 96.4433L6.86716 95.8418C5.82118 95.4616 4.81931 95.3912 3.87262 95.6514L4.04224 96.2685ZM6.43783 96.1426V98.816H7.07783V96.1426H6.43783ZM6.86716 98.5152C6.1137 98.2413 5.41651 98.1587 4.78935 98.3015L4.93137 98.9255C5.40344 98.8181 5.97122 98.8705 6.6485 99.1167L6.86716 98.5152ZM4.7921 98.3008C4.13627 98.444 3.62856 98.8396 3.27452 99.4539L3.82901 99.7735C4.1031 99.2979 4.46778 99.0267 4.92863 98.9261L4.7921 98.3008ZM3.27687 99.4499C2.91179 100.063 2.74758 100.906 2.74758 101.944H3.38758C3.38758 100.958 3.54617 100.248 3.82666 99.7775L3.27687 99.4499ZM2.74758 101.944C2.74758 102.93 2.88689 103.807 3.17367 104.571L3.77283 104.346C3.51872 103.669 3.38758 102.871 3.38758 101.944H2.74758ZM3.17367 104.571C3.45718 105.326 3.84547 105.963 4.34331 106.474L4.80164 106.027C4.37473 105.589 4.0302 105.031 3.77283 104.346L3.17367 104.571ZM4.34552 106.476C4.83976 106.973 5.40731 107.34 6.04654 107.572L6.26521 106.971C5.71797 106.772 5.22992 106.458 4.79942 106.025L4.34552 106.476ZM6.04654 107.572C6.48604 107.732 6.90938 107.79 7.30826 107.722L7.20193 107.091C6.93779 107.136 6.62831 107.103 6.26521 106.971L6.04654 107.572ZM7.32134 107.72C7.71577 107.636 8.07002 107.426 8.38427 107.112L7.93178 106.659C7.6877 106.903 7.44 107.041 7.18885 107.094L7.32134 107.72ZM8.38795 107.108C8.69977 106.786 8.97535 106.354 9.22046 105.825L8.63974 105.556C8.41376 106.044 8.17462 106.408 7.92811 106.663L8.38795 107.108ZM9.22137 105.823C9.4653 105.287 9.69712 104.634 9.91804 103.868L9.30311 103.691C9.08782 104.437 8.866 105.059 8.63883 105.558L9.22137 105.823ZM9.91761 103.87C10.2188 102.844 10.5516 101.996 10.9132 101.322L10.3493 101.02C9.96072 101.744 9.613 102.635 9.30353 103.689L9.91761 103.87ZM10.9132 101.322C11.2739 100.65 11.6709 100.156 12.0973 99.8241L11.7039 99.3193C11.1882 99.7212 10.7389 100.294 10.3493 101.02L10.9132 101.322ZM12.1037 99.819C12.5154 99.481 12.9807 99.2944 13.5078 99.255L13.4602 98.6168C12.8009 98.666 12.2106 98.9032 11.6976 99.3243L12.1037 99.819ZM13.5149 99.2544C14.0386 99.2036 14.6524 99.2974 15.3638 99.556L15.5824 98.9545C14.8107 98.6739 14.0985 98.5548 13.4531 98.6174L13.5149 99.2544ZM15.3638 99.556C16.101 99.824 16.7681 100.225 17.3664 100.761L17.7934 100.284C17.1355 99.6949 16.398 99.251 15.5824 98.9545L15.3638 99.556ZM17.3664 100.761C17.967 101.299 18.4822 101.944 18.9112 102.7L19.4678 102.384C19.0069 101.572 18.4491 100.871 17.7934 100.284L17.3664 100.761ZM18.9112 102.7C19.3407 103.456 19.6752 104.302 19.9132 105.238L20.5334 105.081C20.2828 104.094 19.9282 103.195 19.4678 102.384L18.9112 102.7ZM19.9127 105.236C20.1415 106.158 20.2566 107.14 20.2566 108.184H20.8966C20.8966 107.093 20.7762 106.059 20.5339 105.082L19.9127 105.236ZM20.2566 108.184C20.2566 109.093 20.1382 109.942 19.9035 110.73L20.5169 110.913C20.7708 110.06 20.8966 109.149 20.8966 108.184H20.2566ZM19.9038 110.729C19.6707 111.504 19.3243 112.151 18.8689 112.677L19.353 113.096C19.8748 112.492 20.2611 111.763 20.5166 110.914L19.9038 110.729ZM18.8707 112.675C18.4243 113.183 17.8781 113.519 17.2248 113.689L17.3854 114.308C18.1629 114.106 18.8206 113.702 19.3513 113.098L18.8707 112.675ZM17.2307 113.687C16.5859 113.841 15.8145 113.77 14.902 113.439L14.6833 114.04C15.6725 114.4 16.5762 114.502 17.3795 114.31L17.2307 113.687ZM15.1126 113.739V111.066H14.4726V113.739H15.1126ZM14.6833 111.367C15.3699 111.616 15.9961 111.703 16.5458 111.589L16.4156 110.963C16.0231 111.044 15.524 110.991 14.902 110.765L14.6833 111.367ZM16.5491 111.588C17.078 111.473 17.5231 111.21 17.8743 110.804L17.3902 110.385C17.1308 110.685 16.8082 110.877 16.4124 110.963L16.5491 111.588ZM17.877 110.801C18.2171 110.397 18.463 109.902 18.6213 109.325L18.0042 109.156C17.8659 109.66 17.6581 110.067 17.3876 110.388L17.877 110.801ZM18.623 109.319C18.7699 108.737 18.8421 108.11 18.8421 107.437H18.2021C18.2021 108.064 18.1348 108.639 18.0025 109.162L18.623 109.319ZM18.8421 107.437C18.8421 106.472 18.7165 105.599 18.4595 104.822L17.8519 105.023C18.0835 105.724 18.2021 106.527 18.2021 107.437H18.8421ZM18.4595 104.822C18.2033 104.048 17.8337 103.388 17.3456 102.851L16.872 103.282C17.2913 103.743 17.6195 104.321 17.8519 105.023L18.4595 104.822ZM17.3476 102.853C16.86 102.307 16.2794 101.909 15.6086 101.665L15.3899 102.267C15.9579 102.473 16.4504 102.809 16.8701 103.279L17.3476 102.853ZM32.9719 57.3959L35.2147 76.2759L35.8502 76.2004L33.6075 57.3204L32.9719 57.3959ZM35.7183 75.9777L33.4755 74.3777L33.1039 74.8987L35.3466 76.4987L35.7183 75.9777ZM33.1202 74.3667L30.5573 75.9667L30.8962 76.5096L33.4592 74.9096L33.1202 74.3667ZM31.0438 76.2812L33.6068 57.4012L32.9726 57.3151L30.4096 76.1951L31.0438 76.2812ZM33.2897 57.9982H33.6101V57.3582H33.2897V57.9982ZM33.2897 58.3182H33.6101V57.6782H33.2897V58.3182ZM33.2897 58.6382H33.6101V57.9982H33.2897V58.6382ZM33.2897 58.9582H33.6101V58.3182H33.2897V58.9582ZM33.2897 59.2782H33.6101V58.6382H33.2897V59.2782ZM33.2897 59.5982H33.6101V58.9582H33.2897V59.5982ZM33.2897 59.9182H33.6101V59.2782H33.2897V59.9182ZM33.2897 74.9582L35.5325 74.9582L35.5325 74.3182L33.2897 74.3182L33.2897 74.9582ZM33.9305 75.2782H35.5325V74.6382H33.9305V75.2782ZM34.2509 75.5982H35.5325V74.9582H34.2509V75.5982ZM34.8917 75.9182H35.5325V75.2782H34.8917V75.9182ZM35.2121 76.2382H35.5325V75.5982H35.2121V76.2382ZM31.047 74.9582L33.2897 74.9582L33.2897 74.3182L31.047 74.3182L31.047 74.9582ZM31.047 75.2782H32.9694V74.6382H31.047V75.2782ZM31.047 75.5982H32.3286V74.9582H31.047V75.5982ZM31.047 75.9182H32.0082V75.2782H31.047V75.9182ZM31.047 76.2382H31.3674V75.5982H31.047V76.2382ZM33.607 159.715L31.0438 140.835L30.4096 140.921L32.9729 159.801L33.607 159.715ZM30.5349 141.134L33.0981 143.054L33.4818 142.542L30.9186 140.622L30.5349 141.134ZM33.4981 143.041L35.7406 141.121L35.3244 140.635L33.0818 142.555L33.4981 143.041ZM35.2147 140.84L32.9722 159.72L33.6077 159.796L35.8502 140.916L35.2147 140.84ZM31.047 141.518H31.3674V140.878H31.047V141.518ZM31.047 141.838H31.6878V141.198H31.047V141.838ZM31.047 142.158H32.0082V141.518H31.047V142.158ZM31.047 142.478H32.649V141.838H31.047V142.478ZM31.047 142.798H32.9694V142.158H31.047V142.798ZM31.047 143.118L33.29 143.118L33.2899 142.478L31.047 142.478L31.047 143.118ZM35.2121 141.518H35.5325V140.878H35.2121V141.518ZM34.8917 141.838H35.5325V141.198H34.8917V141.838ZM34.5713 142.158H35.5325V141.518H34.5713V142.158ZM34.2509 142.478H35.5325V141.838H34.2509V142.478ZM33.9305 142.798H35.5325V142.158H33.9305V142.798ZM33.2899 143.118L35.5325 143.118L35.5325 142.478L33.29 142.478L33.2899 143.118ZM33.2897 157.838H33.6101V157.198H33.2897V157.838ZM33.2897 158.158H33.6101V157.518H33.2897V158.158ZM33.2897 158.478H33.6101V157.838H33.2897V158.478ZM33.2897 158.798H33.6101V158.158H33.2897V158.798ZM33.2897 159.118H33.6101V158.478H33.2897V159.118ZM33.2897 159.438H33.6101V158.798H33.2897V159.438ZM33.2897 159.758H33.6101V159.118H33.2897V159.758ZM32.9697 57.3582L32.9699 159.758L33.6099 159.758L33.6097 57.3582L32.9697 57.3582ZM32.9694 60.2382L33.6101 60.2382L33.6101 59.5982L32.9694 59.5982L32.9694 60.2382ZM32.9694 60.5582L33.9305 60.5582L33.9305 59.9182L32.9694 59.9182L32.9694 60.5582ZM32.9694 60.8782L33.9305 60.8782L33.9305 60.2382L32.9694 60.2382L32.9694 60.8782ZM32.9694 61.1982L33.9305 61.1982L33.9305 60.5582L32.9694 60.5582L32.9694 61.1982ZM32.9694 61.5182L33.9305 61.5182L33.9305 60.8782L32.9694 60.8782L32.9694 61.5182ZM32.9694 61.8382L33.9305 61.8382L33.9305 61.1982L32.9694 61.1982L32.9694 61.8382ZM32.9694 62.1582L33.9305 62.1582L33.9305 61.5182L32.9694 61.5182L32.9694 62.1582ZM32.649 62.4782L33.9305 62.4782L33.9305 61.8382L32.649 61.8382L32.649 62.4782ZM32.649 62.7982L33.9305 62.7982L33.9305 62.1582L32.649 62.1582L32.649 62.7982ZM32.649 63.1182L34.2509 63.1182L34.2509 62.4782L32.649 62.4782L32.649 63.1182ZM32.649 63.4382L34.2509 63.4382L34.2509 62.7982L32.649 62.7982L32.649 63.4382ZM32.649 63.7582L34.2509 63.7582L34.2509 63.1182L32.649 63.1182L32.649 63.7582ZM32.649 64.0782L34.2509 64.0782L34.2509 63.4382L32.649 63.4382L32.649 64.0782ZM32.649 64.3982L34.2509 64.3982L34.2509 63.7582L32.649 63.7582L32.649 64.3982ZM32.649 64.7182L34.2509 64.7182L34.2509 64.0782L32.649 64.0782L32.649 64.7182ZM32.3286 65.0382L34.2509 65.0382L34.2509 64.3982L32.3286 64.3982L32.3286 65.0382ZM32.3286 65.3582L34.2509 65.3582L34.2509 64.7182L32.3286 64.7182L32.3286 65.3582ZM32.3286 65.6782L34.2509 65.6782L34.2509 65.0382L32.3286 65.0382L32.3286 65.6782ZM32.3286 65.9982L34.5713 65.9982L34.5713 65.3582L32.3286 65.3582L32.3286 65.9982ZM32.3286 66.3182L34.5713 66.3182L34.5713 65.6782L32.3286 65.6782L32.3286 66.3182ZM32.3286 66.6382L34.5713 66.6382L34.5713 65.9982L32.3286 65.9982L32.3286 66.6382ZM32.3286 66.9582L34.5713 66.9582L34.5713 66.3182L32.3286 66.3182L32.3286 66.9582ZM32.0082 67.2782L34.5713 67.2782L34.5713 66.6382L32.0082 66.6382L32.0082 67.2782ZM32.0082 67.5982L34.5713 67.5982L34.5713 66.9582L32.0082 66.9582L32.0082 67.5982ZM32.0082 67.9182L34.5713 67.9182L34.5713 67.2782L32.0082 67.2782L32.0082 67.9182ZM32.0082 68.2382L34.5713 68.2382L34.5713 67.5982L32.0082 67.5982L32.0082 68.2382ZM32.0082 68.5582L34.8917 68.5582L34.8917 67.9182L32.0082 67.9182L32.0082 68.5582ZM32.0082 68.8782L34.8917 68.8782L34.8917 68.2382L32.0082 68.2382L32.0082 68.8782ZM32.0082 69.1982L34.8917 69.1982L34.8917 68.5582L32.0082 68.5582L32.0082 69.1982ZM31.6878 69.5182L34.8917 69.5182L34.8917 68.8782L31.6878 68.8782L31.6878 69.5182ZM31.6878 69.8382L34.8917 69.8382L34.8917 69.1982L31.6878 69.1982L31.6878 69.8382ZM31.6878 70.1582L34.8917 70.1582L34.8917 69.5182L31.6878 69.5182L31.6878 70.1582ZM31.6878 70.4782L34.8917 70.4782L34.8917 69.8382L31.6878 69.8382L31.6878 70.4782ZM31.6878 70.7982L34.8917 70.7982L34.8917 70.1582L31.6878 70.1582L31.6878 70.7982ZM31.6878 71.1182L34.8917 71.1182L34.8917 70.4782L31.6878 70.4782L31.6878 71.1182ZM31.6878 71.4382L35.2121 71.4382L35.2121 70.7982L31.6878 70.7982L31.6878 71.4382ZM31.6878 71.7582L35.2121 71.7582L35.2121 71.1182L31.6878 71.1182L31.6878 71.7582ZM31.3674 72.0782L35.2121 72.0782L35.2121 71.4382L31.3674 71.4382L31.3674 72.0782ZM31.3674 72.3982L35.2121 72.3982L35.2121 71.7582L31.3674 71.7582L31.3674 72.3982ZM31.3674 72.7182L35.2121 72.7182L35.2121 72.0782L31.3674 72.0782L31.3674 72.7182ZM31.3674 73.0382L35.2121 73.0382L35.2121 72.3982L31.3674 72.3982L31.3674 73.0382ZM31.3674 73.3582L35.2121 73.3582L35.2121 72.7182L31.3674 72.7182L31.3674 73.3582ZM31.3674 73.6782L35.2121 73.6782L35.2121 73.0382L31.3674 73.0382L31.3674 73.6782ZM31.3674 73.9982L35.5325 73.9982L35.5325 73.3582L31.3674 73.3582L31.3674 73.9982ZM31.047 74.3182L35.5325 74.3182L35.5325 73.6782L31.047 73.6782L31.047 74.3182ZM31.047 74.6382L35.5325 74.6382L35.5325 73.9982L31.047 73.9982L31.047 74.6382ZM31.047 143.438L35.5325 143.438L35.5325 142.798L31.047 142.798L31.047 143.438ZM31.3674 143.758L35.5325 143.758L35.5325 143.118L31.3674 143.118L31.3674 143.758ZM31.3674 144.078L35.2121 144.078L35.2121 143.438L31.3674 143.438L31.3674 144.078ZM31.3674 144.398L35.2121 144.398L35.2121 143.758L31.3674 143.758L31.3674 144.398ZM31.3674 144.718L35.2121 144.718L35.2121 144.078L31.3674 144.078L31.3674 144.718ZM31.3674 145.038L35.2121 145.038L35.2121 144.398L31.3674 144.398L31.3674 145.038ZM31.3674 145.358L35.2121 145.358L35.2121 144.718L31.3674 144.718L31.3674 145.358ZM31.3674 145.678H35.2121V145.038H31.3674V145.678ZM31.6878 145.998H35.2121V145.358H31.6878V145.998ZM31.6878 146.318H35.2121V145.678H31.6878V146.318ZM31.6878 146.638H34.8917V145.998H31.6878V146.638ZM31.6878 146.958H34.8917V146.318H31.6878V146.958ZM31.6878 147.278L34.8917 147.278L34.8917 146.638L31.6878 146.638L31.6878 147.278ZM31.6878 147.598L34.8917 147.598L34.8917 146.958L31.6878 146.958L31.6878 147.598ZM31.6878 147.918L34.8917 147.918L34.8917 147.278L31.6878 147.278L31.6878 147.918ZM31.6878 148.238L34.8917 148.238L34.8917 147.598L31.6878 147.598L31.6878 148.238ZM32.0082 148.558L34.8917 148.558L34.8917 147.918L32.0082 147.918L32.0082 148.558ZM32.0082 148.878L34.8917 148.878L34.8917 148.238L32.0082 148.238L32.0082 148.878ZM32.0082 149.198L34.8917 149.198L34.8917 148.558L32.0082 148.558L32.0082 149.198ZM32.0082 149.518L34.5713 149.518L34.5713 148.878L32.0082 148.878L32.0082 149.518ZM32.0082 149.838L34.5713 149.838L34.5713 149.198L32.0082 149.198L32.0082 149.838ZM32.0082 150.158L34.5713 150.158L34.5713 149.518L32.0082 149.518L32.0082 150.158ZM32.0082 150.478L34.5713 150.478L34.5713 149.838L32.0082 149.838L32.0082 150.478ZM32.3286 150.798L34.5713 150.798L34.5713 150.158L32.3286 150.158L32.3286 150.798ZM32.3286 151.118L34.5713 151.118L34.5713 150.478L32.3286 150.478L32.3286 151.118ZM32.3286 151.438L34.5713 151.438L34.5713 150.798L32.3286 150.798L32.3286 151.438ZM32.3286 151.758L34.5713 151.758L34.5713 151.118L32.3286 151.118L32.3286 151.758ZM32.3286 152.078L34.2509 152.078L34.2509 151.438L32.3286 151.438L32.3286 152.078ZM32.3286 152.398L34.2509 152.398L34.2509 151.758L32.3286 151.758L32.3286 152.398ZM32.3286 152.718L34.2509 152.718L34.2509 152.078L32.3286 152.078L32.3286 152.718ZM32.649 153.038L34.2509 153.038L34.2509 152.398L32.649 152.398L32.649 153.038ZM32.649 153.358L34.2509 153.358L34.2509 152.718L32.649 152.718L32.649 153.358ZM32.649 153.678L34.2509 153.678L34.2509 153.038L32.649 153.038L32.649 153.678ZM32.649 153.998L34.2509 153.998L34.2509 153.358L32.649 153.358L32.649 153.998ZM32.649 154.318L34.2509 154.318L34.2509 153.678L32.649 153.678L32.649 154.318ZM32.649 154.638L34.2509 154.638L34.2509 153.998L32.649 153.998L32.649 154.638ZM32.649 154.958L33.9305 154.958L33.9305 154.318L32.649 154.318L32.649 154.958ZM32.649 155.278L33.9305 155.278L33.9305 154.638L32.649 154.638L32.649 155.278ZM32.9694 155.598L33.9305 155.598L33.9305 154.958L32.9694 154.958L32.9694 155.598ZM32.9694 155.918L33.9305 155.918L33.9305 155.278L32.9694 155.278L32.9694 155.918ZM32.9694 156.238L33.9305 156.238L33.9305 155.598L32.9694 155.598L32.9694 156.238ZM32.9694 156.558L33.9305 156.558L33.9305 155.918L32.9694 155.918L32.9694 156.558ZM32.9694 156.878L33.9305 156.878L33.9305 156.238L32.9694 156.238L32.9694 156.878ZM32.9694 157.198L33.9305 157.198L33.9305 156.558L32.9694 156.558L32.9694 157.198ZM32.9694 157.518L33.6101 157.518L33.6101 156.878L32.9694 156.878L32.9694 157.518Z" fill="white"/>
    </g>
    <!--    14 S1-->
    <g class="group">
    </g>
    <!--    15 S2-->
    <g class="group">
    </g>
    <!--    16 S3-->
    <g class="group">
    </g>
    <!--    17 S4-->
    <g class="group">
    </g>
    <!--    19 I-->
    <g class="group">
    </g>
    <!--    18 I1-->
    <g class="group">
    </g>
    <!--    19 I2-->
    <g class="group">
    </g>
    <!--    20 H-->
    <g class="group">
        <path d="M275.192 79.338L277.246 80.0849V91.057L275.192 90.3101V79.338ZM267 86.9143L286.053 93.8409V96.5282L267 89.6016V86.9143ZM267 74.0207L286.053 80.9474V83.6208L267 76.6941V74.0207Z" fill="white"/>
        <path d="M319.774 66.7199C319.951 66.7199 320.094 66.5766 320.094 66.3999C320.094 66.2232 319.951 66.0799 319.774 66.0799V66.7199ZM291.258 66.0799C291.082 66.0799 290.938 66.2232 290.938 66.3999C290.938 66.5766 291.082 66.7199 291.258 66.7199V66.0799ZM319.774 115.04C319.951 115.04 320.094 114.897 320.094 114.72C320.094 114.543 319.951 114.4 319.774 114.4V115.04ZM291.258 114.4C291.082 114.4 290.938 114.543 290.938 114.72C290.938 114.897 291.082 115.04 291.258 115.04V114.4ZM275.192 79.338L275.301 79.0373C275.203 79.0016 275.094 79.016 275.008 79.0759C274.923 79.1358 274.872 79.2336 274.872 79.338H275.192ZM277.246 80.0849H277.566C277.566 79.9504 277.482 79.8302 277.356 79.7842L277.246 80.0849ZM277.246 91.057L277.137 91.3577C277.235 91.3934 277.344 91.3789 277.43 91.3191C277.515 91.2592 277.566 91.1613 277.566 91.057H277.246ZM275.192 90.3101H274.872C274.872 90.4446 274.956 90.5648 275.082 90.6108L275.192 90.3101ZM267 86.9143L267.109 86.6135C267.011 86.5778 266.902 86.5923 266.816 86.6522C266.731 86.712 266.68 86.8099 266.68 86.9143H267ZM286.053 93.8409H286.373C286.373 93.7064 286.289 93.5862 286.163 93.5402L286.053 93.8409ZM286.053 96.5282L285.944 96.829C286.042 96.8646 286.151 96.8502 286.237 96.7903C286.322 96.7304 286.373 96.6326 286.373 96.5282H286.053ZM267 89.6016H266.68C266.68 89.7361 266.764 89.8563 266.891 89.9023L267 89.6016ZM267 74.0207L267.109 73.72C267.011 73.6843 266.902 73.6987 266.816 73.7586C266.731 73.8185 266.68 73.9163 266.68 74.0207H267ZM286.053 80.9474H286.373C286.373 80.8128 286.289 80.6926 286.163 80.6467L286.053 80.9474ZM286.053 83.6208L285.944 83.9215C286.042 83.9572 286.151 83.9428 286.237 83.8829C286.322 83.823 286.373 83.7252 286.373 83.6208H286.053ZM267 76.6941H266.68C266.68 76.8287 266.764 76.9489 266.891 76.9949L267 76.6941ZM298.948 66.3999L299.265 66.3569C299.243 66.1982 299.108 66.0799 298.948 66.0799C298.788 66.0799 298.652 66.1982 298.631 66.3569L298.948 66.3999ZM301.511 85.2799L301.319 85.536C301.422 85.6133 301.562 85.6211 301.673 85.5558C301.784 85.4904 301.846 85.3647 301.828 85.2368L301.511 85.2799ZM296.385 85.2801L296.068 85.2371C296.05 85.3649 296.112 85.4906 296.223 85.556C296.334 85.6213 296.474 85.6135 296.577 85.5362L296.385 85.2801ZM298.948 114.72L298.631 114.763C298.653 114.922 298.788 115.04 298.948 115.04C299.108 115.04 299.244 114.922 299.265 114.763L298.948 114.72ZM296.385 95.8401L296.577 95.584C296.474 95.5066 296.334 95.4989 296.223 95.5642C296.112 95.6296 296.05 95.7553 296.068 95.8831L296.385 95.8401ZM298.948 97.7601L298.948 98.0801L298.948 98.0801L298.948 97.7601ZM301.511 95.8401L301.828 95.8831C301.846 95.7553 301.784 95.6296 301.673 95.5642C301.562 95.4989 301.422 95.5066 301.319 95.584L301.511 95.8401ZM319.774 66.0799H291.258V66.7199H319.774V66.0799ZM319.774 114.4H291.258V115.04H319.774V114.4ZM275.082 79.6388L277.137 80.3857L277.356 79.7842L275.301 79.0373L275.082 79.6388ZM276.926 80.0849V91.057H277.566V80.0849H276.926ZM277.356 90.7562L275.301 90.0093L275.082 90.6108L277.137 91.3577L277.356 90.7562ZM275.512 90.3101V79.338H274.872V90.3101H275.512ZM266.891 87.215L285.944 94.1417L286.163 93.5402L267.109 86.6135L266.891 87.215ZM285.733 93.8409V96.5282H286.373V93.8409H285.733ZM286.163 96.2275L267.109 89.3008L266.891 89.9023L285.944 96.829L286.163 96.2275ZM267.32 89.6016V86.9143H266.68V89.6016H267.32ZM266.891 74.3215L285.944 81.2481L286.163 80.6467L267.109 73.72L266.891 74.3215ZM285.733 80.9474V83.6208H286.373V80.9474H285.733ZM286.163 83.32L267.109 76.3934L266.891 76.9949L285.944 83.9215L286.163 83.32ZM267.32 76.6941V74.0207H266.68V76.6941H267.32ZM298.631 66.443L301.194 85.3229L301.828 85.2368L299.265 66.3569L298.631 66.443ZM301.703 85.0238L299.14 83.104L298.756 83.6162L301.319 85.536L301.703 85.0238ZM298.756 83.104L296.193 85.024L296.577 85.5362L299.14 83.6162L298.756 83.104ZM296.702 85.3232L299.265 66.4429L298.631 66.3569L296.068 85.2371L296.702 85.3232ZM298.948 67.04H299.268V66.4H298.948V67.04ZM298.948 67.36H299.268V66.72H298.948V67.36ZM298.948 67.68H299.268V67.04H298.948V67.68ZM298.948 68H299.268V67.36H298.948V68ZM298.948 68.32H299.268V67.68H298.948V68.32ZM298.948 68.64H299.268V68H298.948V68.64ZM298.948 68.96H299.268V68.32H298.948V68.96ZM298.948 83.6801L301.511 83.68L301.511 83.04L298.948 83.0401L298.948 83.6801ZM299.589 84H301.511V83.36H299.589V84ZM299.909 84.32H301.511V83.68H299.909V84.32ZM300.229 84.64H301.511V84H300.229V84.64ZM300.87 84.96H301.511V84.32H300.87V84.96ZM301.191 85.28H301.511V84.64H301.191V85.28ZM296.705 83.68L298.948 83.6801L298.948 83.0401L296.705 83.04L296.705 83.68ZM296.705 84H298.628V83.36H296.705V84ZM296.705 84.32H298.307V83.68H296.705V84.32ZM296.705 84.64H297.666V84H296.705V84.64ZM296.705 84.96H297.346V84.32H296.705V84.96ZM296.705 85.28H297.026V84.64H296.705V85.28ZM299.265 114.677L296.702 95.797L296.068 95.8831L298.631 114.763L299.265 114.677ZM296.193 96.0962L298.756 98.0162L299.14 97.504L296.577 95.584L296.193 96.0962ZM299.14 98.0162L301.703 96.0962L301.319 95.584L298.756 97.504L299.14 98.0162ZM301.194 95.797L298.631 114.677L299.265 114.763L301.828 95.8831L301.194 95.797ZM296.705 96.4799H297.026V95.8399H296.705V96.4799ZM296.705 96.7999H297.346V96.1599H296.705V96.7999ZM296.705 97.1199H297.666V96.4799H296.705V97.1199ZM296.705 97.4399H298.307V96.7999H296.705V97.4399ZM296.705 97.7599H298.628V97.1199H296.705V97.7599ZM296.705 98.0799L298.948 98.0801L298.948 97.4401L296.705 97.4399L296.705 98.0799ZM301.191 96.4799H301.511V95.8399H301.191V96.4799ZM300.87 96.7999H301.511V96.1599H300.87V96.7999ZM300.229 97.1199H301.511V96.4799H300.229V97.1199ZM299.909 97.4399H301.511V96.7999H299.909V97.4399ZM299.589 97.7599H301.511V97.1199H299.589V97.7599ZM298.948 98.0801L301.511 98.0799L301.511 97.4399L298.948 97.4401L298.948 98.0801ZM298.948 112.8H299.268V112.16H298.948V112.8ZM298.948 113.12H299.268V112.48H298.948V113.12ZM298.948 113.44H299.268V112.8H298.948V113.44ZM298.948 113.76H299.268V113.12H298.948V113.76ZM298.948 114.08H299.268V113.44H298.948V114.08ZM298.948 114.4H299.268V113.76H298.948V114.4ZM298.948 114.72H299.268V114.08H298.948V114.72ZM298.628 66.3999L298.628 114.72L299.268 114.72L299.268 66.3999L298.628 66.3999ZM298.628 69.28L299.589 69.28L299.589 68.64L298.628 68.64L298.628 69.28ZM298.628 69.6L299.589 69.6L299.589 68.96L298.628 68.96L298.628 69.6ZM298.628 69.92L299.589 69.92L299.589 69.28L298.628 69.28L298.628 69.92ZM298.628 70.24L299.589 70.24L299.589 69.6L298.628 69.6L298.628 70.24ZM298.628 70.56L299.589 70.56L299.589 69.92L298.628 69.92L298.628 70.56ZM298.628 70.88L299.589 70.88L299.589 70.24L298.628 70.24L298.628 70.88ZM298.628 71.2L299.589 71.2L299.589 70.56L298.628 70.56L298.628 71.2ZM298.307 71.52L299.909 71.52L299.909 70.88L298.307 70.88L298.307 71.52ZM298.307 71.84L299.909 71.84L299.909 71.2L298.307 71.2L298.307 71.84ZM298.307 72.16L299.909 72.16L299.909 71.52L298.307 71.52L298.307 72.16ZM298.307 72.48L299.909 72.48L299.909 71.84L298.307 71.84L298.307 72.48ZM298.307 72.8L299.909 72.8L299.909 72.16L298.307 72.16L298.307 72.8ZM298.307 73.12L299.909 73.12L299.909 72.48L298.307 72.48L298.307 73.12ZM298.307 73.44L299.909 73.44L299.909 72.8L298.307 72.8L298.307 73.44ZM298.307 73.76L299.909 73.76L299.909 73.12L298.307 73.12L298.307 73.76ZM297.987 74.08L300.229 74.08L300.229 73.44L297.987 73.44L297.987 74.08ZM297.987 74.4L300.229 74.4L300.229 73.76L297.987 73.76L297.987 74.4ZM297.987 74.72L300.229 74.72L300.229 74.08L297.987 74.08L297.987 74.72ZM297.987 75.04L300.229 75.04L300.229 74.4L297.987 74.4L297.987 75.04ZM297.987 75.36L300.229 75.36L300.229 74.72L297.987 74.72L297.987 75.36ZM297.987 75.68L300.229 75.68L300.229 75.04L297.987 75.04L297.987 75.68ZM297.987 76L300.229 76L300.229 75.36L297.987 75.36L297.987 76ZM297.666 76.32L300.55 76.32L300.55 75.68L297.666 75.68L297.666 76.32ZM297.666 76.64L300.55 76.64L300.55 76L297.666 76L297.666 76.64ZM297.666 76.96L300.55 76.96L300.55 76.32L297.666 76.32L297.666 76.96ZM297.666 77.28L300.55 77.28L300.55 76.64L297.666 76.64L297.666 77.28ZM297.666 77.6L300.55 77.6L300.55 76.96L297.666 76.96L297.666 77.6ZM297.666 77.92L300.55 77.92L300.55 77.28L297.666 77.28L297.666 77.92ZM297.666 78.24L300.55 78.24L300.55 77.6L297.666 77.6L297.666 78.24ZM297.346 78.56L300.87 78.56L300.87 77.92L297.346 77.92L297.346 78.56ZM297.346 78.88L300.87 78.88L300.87 78.24L297.346 78.24L297.346 78.88ZM297.346 79.2L300.87 79.2L300.87 78.56L297.346 78.56L297.346 79.2ZM297.346 79.52L300.87 79.52L300.87 78.88L297.346 78.88L297.346 79.52ZM297.346 79.84L300.87 79.84L300.87 79.2L297.346 79.2L297.346 79.84ZM297.346 80.16L300.87 80.16L300.87 79.52L297.346 79.52L297.346 80.16ZM297.346 80.48L300.87 80.48L300.87 79.84L297.346 79.84L297.346 80.48ZM297.346 80.8L300.87 80.8L300.87 80.16L297.346 80.16L297.346 80.8ZM297.026 81.12L301.191 81.12L301.191 80.48L297.026 80.48L297.026 81.12ZM297.026 81.44L301.191 81.44L301.191 80.8L297.026 80.8L297.026 81.44ZM297.026 81.76L301.191 81.76L301.191 81.12L297.026 81.12L297.026 81.76ZM297.026 82.08L301.191 82.08L301.191 81.44L297.026 81.44L297.026 82.08ZM297.026 82.4L301.191 82.4L301.191 81.76L297.026 81.76L297.026 82.4ZM297.026 82.72H301.191V82.08H297.026V82.72ZM297.026 83.04H301.191V82.4H297.026V83.04ZM296.705 83.36H301.511V82.72H296.705V83.36ZM296.705 98.3999L301.511 98.3999L301.511 97.7599L296.705 97.7599L296.705 98.3999ZM297.026 98.7199L301.191 98.7199L301.191 98.0799L297.026 98.0799L297.026 98.7199ZM297.026 99.0399L301.191 99.0399L301.191 98.3999L297.026 98.3999L297.026 99.0399ZM297.026 99.3599L301.191 99.3599L301.191 98.7199L297.026 98.7199L297.026 99.3599ZM297.026 99.6799L301.191 99.6799L301.191 99.0399L297.026 99.0399L297.026 99.6799ZM297.026 99.9999L301.191 99.9999L301.191 99.3599L297.026 99.3599L297.026 99.9999ZM297.026 100.32L301.191 100.32L301.191 99.6799L297.026 99.6799L297.026 100.32ZM297.026 100.64L301.191 100.64L301.191 99.9999L297.026 99.9999L297.026 100.64ZM297.346 100.96L300.87 100.96L300.87 100.32L297.346 100.32L297.346 100.96ZM297.346 101.28L300.87 101.28L300.87 100.64L297.346 100.64L297.346 101.28ZM297.346 101.6L300.87 101.6L300.87 100.96L297.346 100.96L297.346 101.6ZM297.346 101.92H300.87V101.28H297.346V101.92ZM297.346 102.24H300.87V101.6H297.346V102.24ZM297.346 102.56H300.87V101.92H297.346V102.56ZM297.346 102.88L300.87 102.88L300.87 102.24L297.346 102.24L297.346 102.88ZM297.346 103.2L300.87 103.2L300.87 102.56L297.346 102.56L297.346 103.2ZM297.666 103.52L300.55 103.52L300.55 102.88L297.666 102.88L297.666 103.52ZM297.666 103.84L300.55 103.84L300.55 103.2L297.666 103.2L297.666 103.84ZM297.666 104.16L300.55 104.16L300.55 103.52L297.666 103.52L297.666 104.16ZM297.666 104.48L300.55 104.48L300.55 103.84L297.666 103.84L297.666 104.48ZM297.666 104.8L300.55 104.8L300.55 104.16L297.666 104.16L297.666 104.8ZM297.666 105.12L300.55 105.12L300.55 104.48L297.666 104.48L297.666 105.12ZM297.666 105.44L300.55 105.44L300.55 104.8L297.666 104.8L297.666 105.44ZM297.987 105.76L300.229 105.76L300.229 105.12L297.987 105.12L297.987 105.76ZM297.987 106.08L300.229 106.08L300.229 105.44L297.987 105.44L297.987 106.08ZM297.987 106.4L300.229 106.4L300.229 105.76L297.987 105.76L297.987 106.4ZM297.987 106.72L300.229 106.72L300.229 106.08L297.987 106.08L297.987 106.72ZM297.987 107.04L300.229 107.04L300.229 106.4L297.987 106.4L297.987 107.04ZM297.987 107.36L300.229 107.36L300.229 106.72L297.987 106.72L297.987 107.36ZM297.987 107.68L300.229 107.68L300.229 107.04L297.987 107.04L297.987 107.68ZM298.307 108L299.909 108L299.909 107.36L298.307 107.36L298.307 108ZM298.307 108.32L299.909 108.32L299.909 107.68L298.307 107.68L298.307 108.32ZM298.307 108.64L299.909 108.64L299.909 108L298.307 108L298.307 108.64ZM298.307 108.96L299.909 108.96L299.909 108.32L298.307 108.32L298.307 108.96ZM298.307 109.28L299.909 109.28L299.909 108.64L298.307 108.64L298.307 109.28ZM298.307 109.6L299.909 109.6L299.909 108.96L298.307 108.96L298.307 109.6ZM298.307 109.92L299.909 109.92L299.909 109.28L298.307 109.28L298.307 109.92ZM298.307 110.24L299.909 110.24L299.909 109.6L298.307 109.6L298.307 110.24ZM298.628 110.56L299.589 110.56L299.589 109.92L298.628 109.92L298.628 110.56ZM298.628 110.88L299.589 110.88L299.589 110.24L298.628 110.24L298.628 110.88ZM298.628 111.2L299.589 111.2L299.589 110.56L298.628 110.56L298.628 111.2ZM298.628 111.52L299.589 111.52L299.589 110.88L298.628 110.88L298.628 111.52ZM298.628 111.84L299.589 111.84L299.589 111.2L298.628 111.2L298.628 111.84ZM298.628 112.16L299.589 112.16L299.589 111.52L298.628 111.52L298.628 112.16ZM298.628 112.48L299.589 112.48L299.589 111.84L298.628 111.84L298.628 112.48Z" fill="white"/>
    </g>
    <!--    21 H1-->
    <g class="group">
    </g>
    <!--    22 H2-->
    <g class="group">
    </g>
    <!--    25 h-->
    <g class="group">
    </g>
    <!--    23 h1-->
    <g class="group">
    </g>
    <!--    24 h2-->
    <g class="group">
    </g>
    <!--    25 R-->
    <g class="group">
    </g>
    <!--    26 Deg-->
    <g class="group">
    </g>
    <!--    29 DN-->
    <g class="group">
    </g>

</svg>
