<svg width="621" height="286" viewBox="0 0 621 286" fill="none" xmlns="http://www.w3.org/2000/svg">
<rect width="621" height="286" fill="none"/>
<path d="M144.671 213.681H59.4438H144.671Z" stroke="white" stroke-width="2.24" stroke-miterlimit="10" stroke-linecap="round" stroke-linejoin="round"/>
<path d="M144.671 225.201H59.4438H144.671Z" stroke="white" stroke-width="2.24" stroke-miterlimit="10" stroke-linecap="round" stroke-linejoin="round"/>
<path d="M144.67 213.682L152.68 213.042L144.67 213.682Z" stroke="white" stroke-width="2.24" stroke-miterlimit="10" stroke-linecap="round" stroke-linejoin="round"/>
<path d="M152.681 213.041L160.37 211.121L152.681 213.041Z" stroke="white" stroke-width="2.24" stroke-miterlimit="10" stroke-linecap="round" stroke-linejoin="round"/>
<path d="M160.37 211.121L168.06 207.921L160.37 211.121Z" stroke="white" stroke-width="2.24" stroke-miterlimit="10" stroke-linecap="round" stroke-linejoin="round"/>
<path d="M168.06 207.921L174.788 203.761L168.06 207.921Z" stroke="white" stroke-width="2.24" stroke-miterlimit="10" stroke-linecap="round" stroke-linejoin="round"/>
<path d="M174.788 203.761L180.876 198.641L174.788 203.761Z" stroke="white" stroke-width="2.24" stroke-miterlimit="10" stroke-linecap="round" stroke-linejoin="round"/>
<path d="M180.876 198.641L186.002 192.241L180.876 198.641Z" stroke="white" stroke-width="2.24" stroke-miterlimit="10" stroke-linecap="round" stroke-linejoin="round"/>
<path d="M186.002 192.241L190.168 185.521L186.002 192.241Z" stroke="white" stroke-width="2.24" stroke-miterlimit="10" stroke-linecap="round" stroke-linejoin="round"/>
<path d="M190.167 185.521L193.371 177.841L190.167 185.521Z" stroke="white" stroke-width="2.24" stroke-miterlimit="10" stroke-linecap="round" stroke-linejoin="round"/>
<path d="M193.372 177.841L195.294 170.161L193.372 177.841Z" stroke="white" stroke-width="2.24" stroke-miterlimit="10" stroke-linecap="round" stroke-linejoin="round"/>
<path d="M195.294 170.161L195.614 162.801L195.294 170.161Z" stroke="white" stroke-width="2.24" stroke-miterlimit="10" stroke-linecap="round" stroke-linejoin="round"/>
<path d="M144.67 225.202L153.642 224.562L144.67 225.202Z" stroke="white" stroke-width="2.24" stroke-miterlimit="10" stroke-linecap="round" stroke-linejoin="round"/>
<path d="M153.642 224.561L162.293 222.641L153.642 224.561Z" stroke="white" stroke-width="2.24" stroke-miterlimit="10" stroke-linecap="round" stroke-linejoin="round"/>
<path d="M162.293 222.641L170.623 219.441L162.293 222.641Z" stroke="white" stroke-width="2.24" stroke-miterlimit="10" stroke-linecap="round" stroke-linejoin="round"/>
<path d="M170.623 219.441L178.313 214.961L170.623 219.441Z" stroke="white" stroke-width="2.24" stroke-miterlimit="10" stroke-linecap="round" stroke-linejoin="round"/>
<path d="M178.313 214.961L185.682 209.841L178.313 214.961Z" stroke="white" stroke-width="2.24" stroke-miterlimit="10" stroke-linecap="round" stroke-linejoin="round"/>
<path d="M185.682 209.841L191.77 203.441L185.682 209.841Z" stroke="white" stroke-width="2.24" stroke-miterlimit="10" stroke-linecap="round" stroke-linejoin="round"/>
<path d="M191.77 203.441L197.216 196.081L191.77 203.441Z" stroke="white" stroke-width="2.24" stroke-miterlimit="10" stroke-linecap="round" stroke-linejoin="round"/>
<path d="M197.216 196.081L201.382 188.401L197.216 196.081Z" stroke="white" stroke-width="2.24" stroke-miterlimit="10" stroke-linecap="round" stroke-linejoin="round"/>
<path d="M201.382 188.401L204.586 180.081L201.382 188.401Z" stroke="white" stroke-width="2.24" stroke-miterlimit="10" stroke-linecap="round" stroke-linejoin="round"/>
<path d="M204.585 180.081L206.508 171.121L204.585 180.081Z" stroke="white" stroke-width="2.24" stroke-miterlimit="10" stroke-linecap="round" stroke-linejoin="round"/>
<path d="M206.508 171.121L207.148 162.801L206.508 171.121Z" stroke="white" stroke-width="2.24" stroke-miterlimit="10" stroke-linecap="round" stroke-linejoin="round"/>
<path d="M195.614 78.3213V162.801V78.3213Z" stroke="white" stroke-width="2.24" stroke-miterlimit="10" stroke-linecap="round" stroke-linejoin="round"/>
<path d="M207.149 78.3213V162.801V78.3213Z" stroke="white" stroke-width="2.24" stroke-miterlimit="10" stroke-linecap="round" stroke-linejoin="round"/>
<path d="M196.576 77.6814H206.188H196.576Z" stroke="white" stroke-width="2.24" stroke-miterlimit="10" stroke-linecap="round" stroke-linejoin="round"/>
<path d="M59.4438 213.681V225.201V213.681Z" stroke="white" stroke-width="2.24" stroke-miterlimit="10" stroke-linecap="round" stroke-linejoin="round"/>
<path d="M207.149 125.681H283.725H207.149Z" stroke="white" stroke-width="2.24" stroke-miterlimit="10" stroke-linecap="round" stroke-linejoin="round"/>
<path d="M207.149 131.441H283.404H207.149Z" stroke="white" stroke-width="2.24" stroke-miterlimit="10" stroke-linecap="round" stroke-linejoin="round"/>
<path d="M196.575 77.6814L195.614 78.3214L196.575 77.6814Z" stroke="white" stroke-width="2.24" stroke-miterlimit="10" stroke-linecap="round" stroke-linejoin="round"/>
<path d="M206.188 77.6814L207.149 78.3214L206.188 77.6814Z" stroke="white" stroke-width="2.24" stroke-miterlimit="10" stroke-linecap="round" stroke-linejoin="round"/>
<path d="M195.614 78.3213H207.149H195.614Z" stroke="white" stroke-width="2.24" stroke-miterlimit="10" stroke-linecap="round" stroke-linejoin="round"/>
<path d="M195.614 96.5613H207.149H195.614Z" stroke="white" stroke-width="0.64" stroke-miterlimit="10" stroke-linecap="round" stroke-linejoin="round"/>
<path d="M196.576 77.6814V96.5614V77.6814Z" stroke="white" stroke-width="0.96" stroke-miterlimit="10" stroke-linecap="round" stroke-linejoin="round"/>
<path d="M195.614 78.3213L196.575 79.6013L195.614 78.3213Z" stroke="white" stroke-width="1.28" stroke-miterlimit="10" stroke-linecap="round" stroke-linejoin="round"/>
<path d="M196.575 79.6013L195.614 80.8813L196.575 79.6013Z" stroke="white" stroke-width="1.28" stroke-miterlimit="10" stroke-linecap="round" stroke-linejoin="round"/>
<path d="M195.614 80.8813L196.575 82.4813L195.614 80.8813Z" stroke="white" stroke-width="1.28" stroke-miterlimit="10" stroke-linecap="round" stroke-linejoin="round"/>
<path d="M196.575 82.4814L195.614 83.7614L196.575 82.4814Z" stroke="white" stroke-width="1.28" stroke-miterlimit="10" stroke-linecap="round" stroke-linejoin="round"/>
<path d="M195.614 83.7615L196.575 85.0415L195.614 83.7615Z" stroke="white" stroke-width="1.28" stroke-miterlimit="10" stroke-linecap="round" stroke-linejoin="round"/>
<path d="M196.575 85.0415L195.614 86.3215L196.575 85.0415Z" stroke="white" stroke-width="1.28" stroke-miterlimit="10" stroke-linecap="round" stroke-linejoin="round"/>
<path d="M195.614 86.3213L196.575 87.6013L195.614 86.3213Z" stroke="white" stroke-width="1.28" stroke-miterlimit="10" stroke-linecap="round" stroke-linejoin="round"/>
<path d="M196.575 87.6013L195.614 88.8813L196.575 87.6013Z" stroke="white" stroke-width="1.28" stroke-miterlimit="10" stroke-linecap="round" stroke-linejoin="round"/>
<path d="M195.614 88.8813L196.575 90.1613L195.614 88.8813Z" stroke="white" stroke-width="1.28" stroke-miterlimit="10" stroke-linecap="round" stroke-linejoin="round"/>
<path d="M196.575 90.1614L195.614 91.4414L196.575 90.1614Z" stroke="white" stroke-width="1.28" stroke-miterlimit="10" stroke-linecap="round" stroke-linejoin="round"/>
<path d="M195.614 91.4414L196.575 92.7214L195.614 91.4414Z" stroke="white" stroke-width="1.28" stroke-miterlimit="10" stroke-linecap="round" stroke-linejoin="round"/>
<path d="M196.575 92.7214L195.614 94.0014L196.575 92.7214Z" stroke="white" stroke-width="1.28" stroke-miterlimit="10" stroke-linecap="round" stroke-linejoin="round"/>
<path d="M195.614 94.0015L196.575 95.2815L195.614 94.0015Z" stroke="white" stroke-width="1.28" stroke-miterlimit="10" stroke-linecap="round" stroke-linejoin="round"/>
<path d="M196.575 95.2815L195.614 96.5615L196.575 95.2815Z" stroke="white" stroke-width="1.28" stroke-miterlimit="10" stroke-linecap="round" stroke-linejoin="round"/>
<path d="M206.188 77.6814V96.5614V77.6814Z" stroke="white" stroke-width="0.96" stroke-miterlimit="10" stroke-linecap="round" stroke-linejoin="round"/>
<path d="M207.149 78.3213L206.188 79.6013L207.149 78.3213Z" stroke="white" stroke-width="1.28" stroke-miterlimit="10" stroke-linecap="round" stroke-linejoin="round"/>
<path d="M206.188 79.6013L207.149 80.8813L206.188 79.6013Z" stroke="white" stroke-width="1.28" stroke-miterlimit="10" stroke-linecap="round" stroke-linejoin="round"/>
<path d="M207.149 80.8813L206.188 82.4813L207.149 80.8813Z" stroke="white" stroke-width="1.28" stroke-miterlimit="10" stroke-linecap="round" stroke-linejoin="round"/>
<path d="M206.188 82.4814L207.149 83.7614L206.188 82.4814Z" stroke="white" stroke-width="1.28" stroke-miterlimit="10" stroke-linecap="round" stroke-linejoin="round"/>
<path d="M207.149 83.7615L206.188 85.0415L207.149 83.7615Z" stroke="white" stroke-width="1.28" stroke-miterlimit="10" stroke-linecap="round" stroke-linejoin="round"/>
<path d="M206.188 85.0415L207.149 86.3215L206.188 85.0415Z" stroke="white" stroke-width="1.28" stroke-miterlimit="10" stroke-linecap="round" stroke-linejoin="round"/>
<path d="M207.149 86.3213L206.188 87.6013L207.149 86.3213Z" stroke="white" stroke-width="1.28" stroke-miterlimit="10" stroke-linecap="round" stroke-linejoin="round"/>
<path d="M206.188 87.6013L207.149 88.8813L206.188 87.6013Z" stroke="white" stroke-width="1.28" stroke-miterlimit="10" stroke-linecap="round" stroke-linejoin="round"/>
<path d="M207.149 88.8813L206.188 90.1613L207.149 88.8813Z" stroke="white" stroke-width="1.28" stroke-miterlimit="10" stroke-linecap="round" stroke-linejoin="round"/>
<path d="M206.188 90.1614L207.149 91.4414L206.188 90.1614Z" stroke="white" stroke-width="1.28" stroke-miterlimit="10" stroke-linecap="round" stroke-linejoin="round"/>
<path d="M207.149 91.4414L206.188 92.7214L207.149 91.4414Z" stroke="white" stroke-width="1.28" stroke-miterlimit="10" stroke-linecap="round" stroke-linejoin="round"/>
<path d="M206.188 92.7214L207.149 94.0014L206.188 92.7214Z" stroke="white" stroke-width="1.28" stroke-miterlimit="10" stroke-linecap="round" stroke-linejoin="round"/>
<path d="M207.149 94.0015L206.188 95.2815L207.149 94.0015Z" stroke="white" stroke-width="1.28" stroke-miterlimit="10" stroke-linecap="round" stroke-linejoin="round"/>
<path d="M206.188 95.2815L207.149 96.5615L206.188 95.2815Z" stroke="white" stroke-width="1.28" stroke-miterlimit="10" stroke-linecap="round" stroke-linejoin="round"/>
<path d="M437.517 78.3213V162.801V78.3213Z" stroke="white" stroke-width="2.24" stroke-miterlimit="10" stroke-linecap="round" stroke-linejoin="round"/>
<path d="M448.731 78.3213V162.801V78.3213Z" stroke="white" stroke-width="2.24" stroke-miterlimit="10" stroke-linecap="round" stroke-linejoin="round"/>
<path d="M499.996 225.201H584.902H499.996Z" stroke="white" stroke-width="2.24" stroke-miterlimit="10" stroke-linecap="round" stroke-linejoin="round"/>
<path d="M499.996 213.681H584.902H499.996Z" stroke="white" stroke-width="2.24" stroke-miterlimit="10" stroke-linecap="round" stroke-linejoin="round"/>
<path d="M437.517 162.801L438.157 171.441L437.517 162.801Z" stroke="white" stroke-width="2.24" stroke-miterlimit="10" stroke-linecap="round" stroke-linejoin="round"/>
<path d="M438.158 171.441L440.081 180.401L438.158 171.441Z" stroke="white" stroke-width="2.24" stroke-miterlimit="10" stroke-linecap="round" stroke-linejoin="round"/>
<path d="M440.081 180.401L442.964 188.721L440.081 180.401Z" stroke="white" stroke-width="2.24" stroke-miterlimit="10" stroke-linecap="round" stroke-linejoin="round"/>
<path d="M442.964 188.721L447.45 196.401L442.964 188.721Z" stroke="white" stroke-width="2.24" stroke-miterlimit="10" stroke-linecap="round" stroke-linejoin="round"/>
<path d="M447.45 196.401L452.897 203.761L447.45 196.401Z" stroke="white" stroke-width="2.24" stroke-miterlimit="10" stroke-linecap="round" stroke-linejoin="round"/>
<path d="M452.896 203.761L458.984 209.841L452.896 203.761Z" stroke="white" stroke-width="2.24" stroke-miterlimit="10" stroke-linecap="round" stroke-linejoin="round"/>
<path d="M458.984 209.841L466.353 215.281L458.984 209.841Z" stroke="white" stroke-width="2.24" stroke-miterlimit="10" stroke-linecap="round" stroke-linejoin="round"/>
<path d="M466.354 215.281L474.043 219.441L466.354 215.281Z" stroke="white" stroke-width="2.24" stroke-miterlimit="10" stroke-linecap="round" stroke-linejoin="round"/>
<path d="M474.043 219.441L482.373 222.641L474.043 219.441Z" stroke="white" stroke-width="2.24" stroke-miterlimit="10" stroke-linecap="round" stroke-linejoin="round"/>
<path d="M482.374 222.641L491.345 224.561L482.374 222.641Z" stroke="white" stroke-width="2.24" stroke-miterlimit="10" stroke-linecap="round" stroke-linejoin="round"/>
<path d="M491.345 224.562L499.996 225.202L491.345 224.562Z" stroke="white" stroke-width="2.24" stroke-miterlimit="10" stroke-linecap="round" stroke-linejoin="round"/>
<path d="M448.731 162.801L449.371 170.801L448.731 162.801Z" stroke="white" stroke-width="2.24" stroke-miterlimit="10" stroke-linecap="round" stroke-linejoin="round"/>
<path d="M449.372 170.801L451.294 178.481L449.372 170.801Z" stroke="white" stroke-width="2.24" stroke-miterlimit="10" stroke-linecap="round" stroke-linejoin="round"/>
<path d="M451.294 178.481L454.498 186.161L451.294 178.481Z" stroke="white" stroke-width="2.24" stroke-miterlimit="10" stroke-linecap="round" stroke-linejoin="round"/>
<path d="M454.499 186.161L458.664 192.881L454.499 186.161Z" stroke="white" stroke-width="2.24" stroke-miterlimit="10" stroke-linecap="round" stroke-linejoin="round"/>
<path d="M458.664 192.881L464.11 198.961L458.664 192.881Z" stroke="white" stroke-width="2.24" stroke-miterlimit="10" stroke-linecap="round" stroke-linejoin="round"/>
<path d="M464.11 198.961L470.198 204.081L464.11 198.961Z" stroke="white" stroke-width="2.24" stroke-miterlimit="10" stroke-linecap="round" stroke-linejoin="round"/>
<path d="M470.198 204.081L477.247 208.241L470.198 204.081Z" stroke="white" stroke-width="2.24" stroke-miterlimit="10" stroke-linecap="round" stroke-linejoin="round"/>
<path d="M477.247 208.241L484.616 211.441L477.247 208.241Z" stroke="white" stroke-width="2.24" stroke-miterlimit="10" stroke-linecap="round" stroke-linejoin="round"/>
<path d="M484.616 211.441L492.626 213.041L484.616 211.441Z" stroke="white" stroke-width="2.24" stroke-miterlimit="10" stroke-linecap="round" stroke-linejoin="round"/>
<path d="M492.626 213.042L499.995 213.682L492.626 213.042Z" stroke="white" stroke-width="2.24" stroke-miterlimit="10" stroke-linecap="round" stroke-linejoin="round"/>
<path d="M437.517 131.441H289.492H437.517Z" stroke="white" stroke-width="2.24" stroke-miterlimit="10" stroke-linecap="round" stroke-linejoin="round"/>
<path d="M448.091 77.6814H438.158H448.091Z" stroke="white" stroke-width="2.24" stroke-miterlimit="10" stroke-linecap="round" stroke-linejoin="round"/>
<path d="M584.902 213.681V225.201V213.681Z" stroke="white" stroke-width="2.24" stroke-miterlimit="10" stroke-linecap="round" stroke-linejoin="round"/>
<path d="M448.09 77.6814L448.73 78.3214L448.09 77.6814Z" stroke="white" stroke-width="2.24" stroke-miterlimit="10" stroke-linecap="round" stroke-linejoin="round"/>
<path d="M438.157 77.6814L437.517 78.3214L438.157 77.6814Z" stroke="white" stroke-width="2.24" stroke-miterlimit="10" stroke-linecap="round" stroke-linejoin="round"/>
<path d="M437.517 96.5613H448.731H437.517Z" stroke="white" stroke-width="0.64" stroke-miterlimit="10" stroke-linecap="round" stroke-linejoin="round"/>
<path d="M438.158 77.6814V96.5614V77.6814Z" stroke="white" stroke-width="0.96" stroke-miterlimit="10" stroke-linecap="round" stroke-linejoin="round"/>
<path d="M437.517 78.3213L438.157 79.6013L437.517 78.3213Z" stroke="white" stroke-width="1.28" stroke-miterlimit="10" stroke-linecap="round" stroke-linejoin="round"/>
<path d="M438.157 79.6013L437.517 80.8813L438.157 79.6013Z" stroke="white" stroke-width="1.28" stroke-miterlimit="10" stroke-linecap="round" stroke-linejoin="round"/>
<path d="M437.517 80.8813L438.157 82.4813L437.517 80.8813Z" stroke="white" stroke-width="1.28" stroke-miterlimit="10" stroke-linecap="round" stroke-linejoin="round"/>
<path d="M438.157 82.4814L437.517 83.7614L438.157 82.4814Z" stroke="white" stroke-width="1.28" stroke-miterlimit="10" stroke-linecap="round" stroke-linejoin="round"/>
<path d="M437.517 83.7615L438.157 85.0415L437.517 83.7615Z" stroke="white" stroke-width="1.28" stroke-miterlimit="10" stroke-linecap="round" stroke-linejoin="round"/>
<path d="M438.157 85.0415L437.517 86.3215L438.157 85.0415Z" stroke="white" stroke-width="1.28" stroke-miterlimit="10" stroke-linecap="round" stroke-linejoin="round"/>
<path d="M437.517 86.3213L438.157 87.6013L437.517 86.3213Z" stroke="white" stroke-width="1.28" stroke-miterlimit="10" stroke-linecap="round" stroke-linejoin="round"/>
<path d="M438.157 87.6013L437.517 88.8813L438.157 87.6013Z" stroke="white" stroke-width="1.28" stroke-miterlimit="10" stroke-linecap="round" stroke-linejoin="round"/>
<path d="M437.517 88.8813L438.157 90.1613L437.517 88.8813Z" stroke="white" stroke-width="1.28" stroke-miterlimit="10" stroke-linecap="round" stroke-linejoin="round"/>
<path d="M438.157 90.1614L437.517 91.4414L438.157 90.1614Z" stroke="white" stroke-width="1.28" stroke-miterlimit="10" stroke-linecap="round" stroke-linejoin="round"/>
<path d="M437.517 91.4414L438.157 92.7214L437.517 91.4414Z" stroke="white" stroke-width="1.28" stroke-miterlimit="10" stroke-linecap="round" stroke-linejoin="round"/>
<path d="M438.157 92.7214L437.517 94.0014L438.157 92.7214Z" stroke="white" stroke-width="1.28" stroke-miterlimit="10" stroke-linecap="round" stroke-linejoin="round"/>
<path d="M437.517 94.0015L438.157 95.2815L437.517 94.0015Z" stroke="white" stroke-width="1.28" stroke-miterlimit="10" stroke-linecap="round" stroke-linejoin="round"/>
<path d="M438.157 95.2815L437.517 96.5615L438.157 95.2815Z" stroke="white" stroke-width="1.28" stroke-miterlimit="10" stroke-linecap="round" stroke-linejoin="round"/>
<path d="M448.09 77.6814V96.5614V77.6814Z" stroke="white" stroke-width="0.96" stroke-miterlimit="10" stroke-linecap="round" stroke-linejoin="round"/>
<path d="M448.73 78.3213L448.09 79.6013L448.73 78.3213Z" stroke="white" stroke-width="1.28" stroke-miterlimit="10" stroke-linecap="round" stroke-linejoin="round"/>
<path d="M448.09 79.6013L448.73 80.8813L448.09 79.6013Z" stroke="white" stroke-width="1.28" stroke-miterlimit="10" stroke-linecap="round" stroke-linejoin="round"/>
<path d="M448.73 80.8813L448.09 82.4813L448.73 80.8813Z" stroke="white" stroke-width="1.28" stroke-miterlimit="10" stroke-linecap="round" stroke-linejoin="round"/>
<path d="M448.09 82.4814L448.73 83.7614L448.09 82.4814Z" stroke="white" stroke-width="1.28" stroke-miterlimit="10" stroke-linecap="round" stroke-linejoin="round"/>
<path d="M448.73 83.7615L448.09 85.0415L448.73 83.7615Z" stroke="white" stroke-width="1.28" stroke-miterlimit="10" stroke-linecap="round" stroke-linejoin="round"/>
<path d="M448.09 85.0415L448.73 86.3215L448.09 85.0415Z" stroke="white" stroke-width="1.28" stroke-miterlimit="10" stroke-linecap="round" stroke-linejoin="round"/>
<path d="M448.73 86.3213L448.09 87.6013L448.73 86.3213Z" stroke="white" stroke-width="1.28" stroke-miterlimit="10" stroke-linecap="round" stroke-linejoin="round"/>
<path d="M448.09 87.6013L448.73 88.8813L448.09 87.6013Z" stroke="white" stroke-width="1.28" stroke-miterlimit="10" stroke-linecap="round" stroke-linejoin="round"/>
<path d="M448.73 88.8813L448.09 90.1613L448.73 88.8813Z" stroke="white" stroke-width="1.28" stroke-miterlimit="10" stroke-linecap="round" stroke-linejoin="round"/>
<path d="M448.09 90.1614L448.73 91.4414L448.09 90.1614Z" stroke="white" stroke-width="1.28" stroke-miterlimit="10" stroke-linecap="round" stroke-linejoin="round"/>
<path d="M448.73 91.4414L448.09 92.7214L448.73 91.4414Z" stroke="white" stroke-width="1.28" stroke-miterlimit="10" stroke-linecap="round" stroke-linejoin="round"/>
<path d="M448.09 92.7214L448.73 94.0014L448.09 92.7214Z" stroke="white" stroke-width="1.28" stroke-miterlimit="10" stroke-linecap="round" stroke-linejoin="round"/>
<path d="M448.73 94.0015L448.09 95.2815L448.73 94.0015Z" stroke="white" stroke-width="1.28" stroke-miterlimit="10" stroke-linecap="round" stroke-linejoin="round"/>
<path d="M448.09 95.2815L448.73 96.5615L448.09 95.2815Z" stroke="white" stroke-width="1.28" stroke-miterlimit="10" stroke-linecap="round" stroke-linejoin="round"/>
<path d="M448.731 78.3213H437.517H448.731Z" stroke="white" stroke-width="2.24" stroke-miterlimit="10" stroke-linecap="round" stroke-linejoin="round"/>
<path d="M289.492 125.681H437.517H289.492Z" stroke="white" stroke-width="2.24" stroke-miterlimit="10" stroke-linecap="round" stroke-linejoin="round"/>
    <!--    1 A-->
    <g class="group">
    </g>
    <!--    2 D-->
    <g class="group">
    </g>
    <!--    2 Dy-->
    <g class="group">
    </g>
    <!--    3 Dh-->
    <g class="group">
    </g>
    <!--    4 D1-->
    <g class="group">
        <path d="M19.4355 178.2V182.433L17.381 181.659V177.454C17.381 176.005 17.0975 174.696 16.5304 173.524C15.9546 172.349 15.152 171.334 14.1226 170.477C13.0844 169.607 11.8718 168.92 10.4847 168.416L9.32004 167.993C8.22955 167.596 7.26118 167.383 6.41496 167.354C5.56001 167.322 4.84028 167.469 4.25577 167.795C3.66254 168.117 3.21326 168.613 2.90792 169.282C2.60258 169.941 2.44991 170.772 2.44991 171.775V176.342L0.382324 175.59V171.023C0.382324 169.696 0.5917 168.56 1.01045 167.617C1.42048 166.671 2.01807 165.946 2.80323 165.443C3.57966 164.927 4.52185 164.656 5.6298 164.632C6.72902 164.605 7.96783 164.842 9.34622 165.343L10.4847 165.757C11.8631 166.258 13.1063 166.923 14.2142 167.753C15.3134 168.58 16.2512 169.538 17.0277 170.628C17.8041 171.708 18.4017 172.891 18.8205 174.176C19.2305 175.448 19.4355 176.789 19.4355 178.2ZM0.382324 174.072L19.4355 180.999V183.686L0.382324 176.76V174.072Z" fill="white"/>
        <path d="M14.2578 160.019L26.9214 164.623V166.326L16.2559 162.448L17.4323 166.309L15.9878 165.784L14.2578 160.286V160.019Z" fill="white"/>
        <path d="M51.7544 214.001C51.9311 214.001 52.0744 213.858 52.0744 213.681C52.0744 213.505 51.9311 213.361 51.7544 213.361V214.001ZM29.3263 213.361C29.1496 213.361 29.0063 213.505 29.0063 213.681C29.0063 213.858 29.1496 214.001 29.3263 214.001V213.361ZM51.7544 225.521C51.9311 225.521 52.0744 225.378 52.0744 225.201C52.0744 225.025 51.9311 224.881 51.7544 224.881V225.521ZM29.3263 224.881C29.1496 224.881 29.0063 225.025 29.0063 225.201C29.0063 225.378 29.1496 225.521 29.3263 225.521V224.881ZM37.3358 155.121C37.3358 154.945 37.1925 154.801 37.0158 154.801C36.839 154.801 36.6958 154.945 36.6958 155.121H37.3358ZM19.4355 182.433L19.3226 182.733C19.4209 182.77 19.5311 182.756 19.6175 182.696C19.7039 182.637 19.7555 182.538 19.7555 182.433H19.4355ZM17.381 181.659H17.061C17.061 181.792 17.1435 181.911 17.2681 181.958L17.381 181.659ZM16.5304 173.524L16.8185 173.385L16.8178 173.383L16.5304 173.524ZM14.1226 170.477L13.9171 170.722L13.9179 170.723L14.1226 170.477ZM10.4847 168.416L10.3754 168.717L10.3754 168.717L10.4847 168.416ZM9.32004 167.993L9.42938 167.692L9.42938 167.692L9.32004 167.993ZM6.41496 167.354L6.40286 167.674L6.40394 167.674L6.41496 167.354ZM4.25577 167.795L4.4087 168.076L4.41161 168.074L4.25577 167.795ZM2.90792 169.282L3.1983 169.416L3.19901 169.415L2.90792 169.282ZM2.44991 176.342L2.34057 176.643C2.43868 176.678 2.54801 176.664 2.6335 176.604C2.719 176.544 2.76991 176.446 2.76991 176.342H2.44991ZM0.382324 175.59H0.0623242C0.0623242 175.725 0.146518 175.845 0.272991 175.891L0.382324 175.59ZM1.01045 167.617L1.30293 167.747L1.30407 167.745L1.01045 167.617ZM2.80323 165.443L2.97601 165.712L2.98036 165.709L2.80323 165.443ZM5.6298 164.632L5.63679 164.952L5.63777 164.952L5.6298 164.632ZM9.34622 165.343L9.23688 165.643L9.23688 165.643L9.34622 165.343ZM10.4847 165.757L10.594 165.456L10.594 165.456L10.4847 165.757ZM14.2142 167.753L14.4065 167.497L14.406 167.497L14.2142 167.753ZM17.0277 170.628L16.7671 170.813L16.7678 170.814L17.0277 170.628ZM18.8205 174.176L19.125 174.077L19.1247 174.076L18.8205 174.176ZM0.382324 174.072L0.491658 173.772C0.393556 173.736 0.284225 173.75 0.19873 173.81C0.113236 173.87 0.0623242 173.968 0.0623242 174.072H0.382324ZM19.4355 180.999H19.7555C19.7555 180.865 19.6713 180.744 19.5448 180.698L19.4355 180.999ZM19.4355 183.686L19.3262 183.987C19.4243 184.023 19.5336 184.008 19.6191 183.949C19.7046 183.889 19.7555 183.791 19.7555 183.686H19.4355ZM0.382324 176.76H0.0623242C0.0623242 176.894 0.146518 177.015 0.272991 177.061L0.382324 176.76ZM14.2578 160.019L14.3671 159.719C14.269 159.683 14.1597 159.697 14.0742 159.757C13.9887 159.817 13.9378 159.915 13.9378 160.019H14.2578ZM26.9214 164.623H27.2414C27.2414 164.489 27.1573 164.368 27.0308 164.322L26.9214 164.623ZM26.9214 166.326L26.8121 166.627C26.9102 166.662 27.0195 166.648 27.105 166.588C27.1905 166.528 27.2414 166.43 27.2414 166.326H26.9214ZM16.2559 162.448L16.3653 162.148C16.2513 162.106 16.1237 162.133 16.0357 162.216C15.9477 162.3 15.9145 162.426 15.9498 162.542L16.2559 162.448ZM17.4323 166.309L17.323 166.61C17.437 166.651 17.5646 166.625 17.6526 166.541C17.7405 166.458 17.7738 166.332 17.7384 166.216L17.4323 166.309ZM15.9878 165.784L15.6825 165.88C15.7124 165.975 15.7849 166.051 15.8785 166.085L15.9878 165.784ZM14.2578 160.286H13.9378C13.9378 160.319 13.9427 160.351 13.9525 160.382L14.2578 160.286ZM39.2586 194.801L39.5764 194.839C39.5919 194.708 39.5256 194.581 39.4093 194.519C39.2931 194.457 39.1506 194.472 39.0505 194.558L39.2586 194.801ZM34.4528 194.801L34.6446 194.545C34.5414 194.468 34.4018 194.46 34.2906 194.525C34.1794 194.591 34.1183 194.716 34.1357 194.844L34.4528 194.801ZM37.3358 187.121C37.3358 186.945 37.1925 186.801 37.0158 186.801C36.839 186.801 36.6958 186.945 36.6958 187.121H37.3358ZM34.4528 244.081L34.1357 244.038C34.1183 244.166 34.1794 244.292 34.2906 244.357C34.4018 244.423 34.5414 244.415 34.6446 244.338L34.4528 244.081ZM37.016 242.161L37.016 241.841L37.016 241.841L37.016 242.161ZM39.2586 244.081L39.0505 244.324C39.1506 244.41 39.2931 244.426 39.4093 244.364C39.5256 244.302 39.5919 244.175 39.5764 244.044L39.2586 244.081ZM36.6958 251.441C36.6958 251.618 36.839 251.761 37.0158 251.761C37.1925 251.761 37.3358 251.618 37.3358 251.441L36.6958 251.441ZM51.7544 213.361H29.3263V214.001H51.7544V213.361ZM51.7544 224.881H29.3263V225.521H51.7544V224.881ZM19.1155 178.2V182.433H19.7555V178.2H19.1155ZM19.5484 182.134L17.4939 181.359L17.2681 181.958L19.3226 182.733L19.5484 182.134ZM17.701 181.659V177.454H17.061V181.659H17.701ZM17.701 177.454C17.701 175.963 17.4088 174.604 16.8184 173.385L16.2424 173.664C16.7861 174.787 17.061 176.048 17.061 177.454H17.701ZM16.8178 173.383C16.2217 172.167 15.3905 171.116 14.3273 170.231L13.9179 170.723C14.9135 171.551 15.6876 172.532 16.2431 173.665L16.8178 173.383ZM14.328 170.231C13.2589 169.336 12.013 168.631 10.594 168.115L10.3754 168.717C11.7306 169.21 12.91 169.879 13.9171 170.722L14.328 170.231ZM10.594 168.115L9.42938 167.692L9.21071 168.293L10.3754 168.717L10.594 168.115ZM9.42938 167.692C8.31814 167.288 7.31562 167.065 6.42598 167.034L6.40394 167.674C7.20675 167.702 8.14095 167.905 9.21071 168.293L9.42938 167.692ZM6.42705 167.035C5.52957 167.001 4.74811 167.154 4.09994 167.515L4.41161 168.074C4.93245 167.784 5.59044 167.643 6.40286 167.674L6.42705 167.035ZM4.10285 167.514C3.44326 167.872 2.94826 168.423 2.61682 169.149L3.19901 169.415C3.47826 168.803 3.88183 168.362 4.40869 168.076L4.10285 167.514ZM2.61753 169.147C2.28675 169.862 2.12991 170.742 2.12991 171.775H2.76991C2.76991 170.802 2.9184 170.021 3.1983 169.416L2.61753 169.147ZM2.12991 171.775V176.342H2.76991V171.775H2.12991ZM2.55924 176.041L0.491658 175.289L0.272991 175.891L2.34057 176.643L2.55924 176.041ZM0.702324 175.59V171.023H0.0623242V175.59H0.702324ZM0.702324 171.023C0.702324 169.728 0.906725 168.64 1.30292 167.747L0.717984 167.487C0.276675 168.481 0.0623242 169.663 0.0623242 171.023H0.702324ZM1.30407 167.745C1.6916 166.85 2.24994 166.178 2.97599 165.712L2.63047 165.173C1.78621 165.715 1.14935 166.492 0.71683 167.49L1.30407 167.745ZM2.98036 165.709C3.69743 165.232 4.57789 164.975 5.63679 164.952L5.62281 164.312C4.46582 164.338 3.4619 164.621 2.6261 165.176L2.98036 165.709ZM5.63777 164.952C6.68614 164.926 7.88424 165.152 9.23688 165.643L9.45555 165.042C8.05142 164.532 6.7719 164.284 5.62183 164.312L5.63777 164.952ZM9.23688 165.643L10.3754 166.057L10.594 165.456L9.45555 165.042L9.23688 165.643ZM10.3754 166.057C11.726 166.548 12.941 167.199 14.0224 168.009L14.406 167.497C13.2715 166.647 12.0002 165.967 10.594 165.456L10.3754 166.057ZM14.0219 168.009C15.0956 168.816 16.0102 169.751 16.7671 170.813L17.2883 170.442C16.4923 169.325 15.5312 168.343 14.4065 167.497L14.0219 168.009ZM16.7678 170.814C17.5247 171.868 18.1075 173.021 18.5162 174.275L19.1247 174.076C18.6959 172.761 18.0835 171.549 17.2876 170.441L16.7678 170.814ZM18.5159 174.274C18.9151 175.513 19.1155 176.821 19.1155 178.2H19.7555C19.7555 176.758 19.5458 175.383 19.125 174.077L18.5159 174.274ZM0.272991 174.373L19.3262 181.3L19.5448 180.698L0.491658 173.772L0.272991 174.373ZM19.1155 180.999V183.686H19.7555V180.999H19.1155ZM19.5448 183.386L0.491658 176.459L0.272991 177.061L19.3262 183.987L19.5448 183.386ZM0.702324 176.76V174.072H0.0623242V176.76H0.702324ZM14.1484 160.32L26.8121 164.924L27.0308 164.322L14.3671 159.719L14.1484 160.32ZM26.6014 164.623V166.326H27.2414V164.623H26.6014ZM27.0308 166.025L16.3653 162.148L16.1466 162.749L26.8121 166.627L27.0308 166.025ZM15.9498 162.542L17.1262 166.402L17.7384 166.216L16.562 162.355L15.9498 162.542ZM17.5417 166.008L16.0971 165.483L15.8785 166.085L17.323 166.61L17.5417 166.008ZM16.293 165.688L14.563 160.19L13.9525 160.382L15.6825 165.88L16.293 165.688ZM14.5778 160.286V160.019H13.9378V160.286H14.5778ZM37.3335 213.719L39.5764 194.839L38.9408 194.764L36.698 213.644L37.3335 213.719ZM39.0505 194.558L36.8077 196.478L37.2239 196.964L39.4667 195.044L39.0505 194.558ZM37.2076 196.465L34.6446 194.545L34.2609 195.057L36.8239 196.977L37.2076 196.465ZM34.1357 194.844L36.6987 213.724L37.3329 213.638L34.7699 194.758L34.1357 194.844ZM37.3358 213.681V187.121H36.6958V213.681H37.3358ZM38.9382 195.441H39.2586V194.801H38.9382V195.441ZM38.6178 195.761H39.2586V195.121H38.6178V195.761ZM38.2974 196.081H39.2586V195.441H38.2974V196.081ZM37.977 196.401H39.2586V195.761H37.977V196.401ZM37.6566 196.721H39.2586V196.081H37.6566V196.721ZM37.0158 197.041L39.2586 197.041L39.2586 196.401L37.0158 196.401L37.0158 197.041ZM37.0158 211.761H37.3362V211.121H37.0158V211.761ZM37.0158 212.081H37.3362V211.441H37.0158V212.081ZM37.0158 212.401H37.3362V211.761H37.0158V212.401ZM37.0158 212.721H37.3362V212.081H37.0158V212.721ZM37.0158 213.041H37.3362V212.401H37.0158V213.041ZM37.0158 213.361H37.3362V212.721H37.0158V213.361ZM37.0158 213.681H37.3362V213.041H37.0158V213.681ZM34.7731 195.441H35.0935V194.801H34.7731V195.441ZM34.7731 195.761H35.4139V195.121H34.7731V195.761ZM34.7731 196.081H35.7343V195.441H34.7731V196.081ZM34.7731 196.401H36.3751V195.761H34.7731V196.401ZM34.7731 196.721H36.6955V196.081H34.7731V196.721ZM34.7731 197.041L37.0158 197.041L37.0158 196.401L34.7731 196.401L34.7731 197.041ZM36.6989 225.158L34.1357 244.038L34.7699 244.124L37.3331 225.244L36.6989 225.158ZM34.6446 244.338L37.2079 242.417L36.8242 241.905L34.2609 243.825L34.6446 244.338ZM36.8079 242.404L39.0505 244.324L39.4667 243.838L37.2241 241.918L36.8079 242.404ZM39.5764 244.044L37.3338 225.164L36.6982 225.239L38.9408 244.119L39.5764 244.044ZM36.696 225.201L36.6958 251.441L37.3358 251.441L37.336 225.201L36.696 225.201ZM34.7731 242.481L37.016 242.481L37.016 241.841L34.7731 241.841L34.7731 242.481ZM34.7731 242.801H36.6955V242.161H34.7731V242.801ZM34.7731 243.121H36.3751V242.481H34.7731V243.121ZM34.7731 243.441H35.7343V242.801H34.7731V243.441ZM34.7731 243.761H35.4139V243.121H34.7731V243.761ZM34.7731 244.081H35.0935V243.441H34.7731V244.081ZM37.0158 225.841H37.3362V225.201H37.0158V225.841ZM37.0158 226.161H37.3362V225.521H37.0158V226.161ZM37.0158 226.481H37.3362V225.841H37.0158V226.481ZM37.0158 226.801H37.3362V226.161H37.0158V226.801ZM37.0158 227.121H37.3362V226.481H37.0158V227.121ZM37.0158 227.441H37.3362V226.801H37.0158V227.441ZM37.0158 227.761H37.3362V227.121H37.0158V227.761ZM37.016 242.481L39.2586 242.481L39.2586 241.841L37.016 241.841L37.016 242.481ZM37.6566 242.802H39.2586V242.162H37.6566V242.802ZM37.977 243.122H39.2586V242.482H37.977V243.122ZM38.2974 243.442H39.2586V242.802H38.2974V243.442ZM38.6178 243.762H39.2586V243.122H38.6178V243.762ZM38.9382 244.082H39.2586V243.442H38.9382V244.082ZM36.6958 213.681L36.696 225.201L37.336 225.201L37.3358 213.681L36.6958 213.681ZM37.3358 213.681V155.121H36.6958V213.681H37.3358ZM34.7731 197.361L39.2586 197.361L39.2586 196.721L34.7731 196.721L34.7731 197.361ZM35.0935 197.681H39.2586V197.041H35.0935V197.681ZM35.0935 198.001H38.9382V197.361H35.0935V198.001ZM35.0935 198.321L38.9382 198.321L38.9382 197.681L35.0935 197.681L35.0935 198.321ZM35.0935 198.641L38.9382 198.641L38.9382 198.001L35.0935 198.001L35.0935 198.641ZM35.0935 198.961L38.9382 198.961L38.9382 198.321L35.0935 198.321L35.0935 198.961ZM35.0935 199.281L38.9382 199.281L38.9382 198.641L35.0935 198.641L35.0935 199.281ZM35.0935 199.601L38.9382 199.601L38.9382 198.961L35.0935 198.961L35.0935 199.601ZM35.4139 199.921L38.9382 199.921L38.9382 199.281L35.4139 199.281L35.4139 199.921ZM35.4139 200.241L38.9382 200.241L38.9382 199.601L35.4139 199.601L35.4139 200.241ZM35.4139 200.561L38.6178 200.561L38.6178 199.921L35.4139 199.921L35.4139 200.561ZM35.4139 200.881L38.6178 200.881L38.6178 200.241L35.4139 200.241L35.4139 200.881ZM35.4139 201.201L38.6178 201.201L38.6178 200.561L35.4139 200.561L35.4139 201.201ZM35.4139 201.521L38.6178 201.521L38.6178 200.881L35.4139 200.881L35.4139 201.521ZM35.4139 201.841L38.6178 201.841L38.6178 201.201L35.4139 201.201L35.4139 201.841ZM35.4139 202.161L38.6178 202.161L38.6178 201.521L35.4139 201.521L35.4139 202.161ZM35.7343 202.481L38.6178 202.481L38.6178 201.841L35.7343 201.841L35.7343 202.481ZM35.7343 202.801L38.6178 202.801L38.6178 202.161L35.7343 202.161L35.7343 202.801ZM35.7343 203.121L38.6178 203.121L38.6178 202.481L35.7343 202.481L35.7343 203.121ZM35.7343 203.441L38.2974 203.441L38.2974 202.801L35.7343 202.801L35.7343 203.441ZM35.7343 203.761L38.2974 203.761L38.2974 203.121L35.7343 203.121L35.7343 203.761ZM35.7343 204.081L38.2974 204.081L38.2974 203.441L35.7343 203.441L35.7343 204.081ZM35.7343 204.401L38.2974 204.401L38.2974 203.761L35.7343 203.761L35.7343 204.401ZM36.0547 204.721L38.2974 204.721L38.2974 204.081L36.0547 204.081L36.0547 204.721ZM36.0547 205.041L38.2974 205.041L38.2974 204.401L36.0547 204.401L36.0547 205.041ZM36.0547 205.361L38.2974 205.361L38.2974 204.721L36.0547 204.721L36.0547 205.361ZM36.0547 205.681L38.2974 205.681L38.2974 205.041L36.0547 205.041L36.0547 205.681ZM36.0547 206.001L37.977 206.001L37.977 205.361L36.0547 205.361L36.0547 206.001ZM36.0547 206.321L37.977 206.321L37.977 205.681L36.0547 205.681L36.0547 206.321ZM36.0547 206.641L37.977 206.641L37.977 206.001L36.0547 206.001L36.0547 206.641ZM36.3751 206.961L37.977 206.961L37.977 206.321L36.3751 206.321L36.3751 206.961ZM36.3751 207.281L37.977 207.281L37.977 206.641L36.3751 206.641L36.3751 207.281ZM36.3751 207.601L37.977 207.601L37.977 206.961L36.3751 206.961L36.3751 207.601ZM36.3751 207.921L37.977 207.921L37.977 207.281L36.3751 207.281L36.3751 207.921ZM36.3751 208.241L37.977 208.241L37.977 207.601L36.3751 207.601L36.3751 208.241ZM36.3751 208.561L37.977 208.561L37.977 207.921L36.3751 207.921L36.3751 208.561ZM36.3751 208.881L37.6566 208.881L37.6566 208.241L36.3751 208.241L36.3751 208.881ZM36.3751 209.201L37.6566 209.201L37.6566 208.561L36.3751 208.561L36.3751 209.201ZM36.6955 209.521L37.6566 209.521L37.6566 208.881L36.6955 208.881L36.6955 209.521ZM36.6955 209.841L37.6566 209.841L37.6566 209.201L36.6955 209.201L36.6955 209.841ZM36.6955 210.161L37.6566 210.161L37.6566 209.521L36.6955 209.521L36.6955 210.161ZM36.6955 210.481L37.6566 210.481L37.6566 209.841L36.6955 209.841L36.6955 210.481ZM36.6955 210.801L37.6566 210.801L37.6566 210.161L36.6955 210.161L36.6955 210.801ZM36.6955 211.121L37.6566 211.121L37.6566 210.481L36.6955 210.481L36.6955 211.121ZM36.6955 211.441L37.3362 211.441L37.3362 210.801L36.6955 210.801L36.6955 211.441ZM36.6955 228.081L37.3362 228.081L37.3362 227.441L36.6955 227.441L36.6955 228.081ZM36.6955 228.401L37.6566 228.401L37.6566 227.761L36.6955 227.761L36.6955 228.401ZM36.6955 228.721L37.6566 228.721L37.6566 228.081L36.6955 228.081L36.6955 228.721ZM36.6955 229.041L37.6566 229.041L37.6566 228.401L36.6955 228.401L36.6955 229.041ZM36.6955 229.361L37.6566 229.361L37.6566 228.721L36.6955 228.721L36.6955 229.361ZM36.6955 229.681L37.6566 229.681L37.6566 229.041L36.6955 229.041L36.6955 229.681ZM36.6955 230.001L37.6566 230.001L37.6566 229.361L36.6955 229.361L36.6955 230.001ZM36.3751 230.321L37.6566 230.321L37.6566 229.681L36.3751 229.681L36.3751 230.321ZM36.3751 230.641L37.6566 230.641L37.6566 230.001L36.3751 230.001L36.3751 230.641ZM36.3751 230.961L37.977 230.961L37.977 230.321L36.3751 230.321L36.3751 230.961ZM36.3751 231.281L37.977 231.281L37.977 230.641L36.3751 230.641L36.3751 231.281ZM36.3751 231.601L37.977 231.601L37.977 230.961L36.3751 230.961L36.3751 231.601ZM36.3751 231.921L37.977 231.921L37.977 231.281L36.3751 231.281L36.3751 231.921ZM36.3751 232.241L37.977 232.241L37.977 231.601L36.3751 231.601L36.3751 232.241ZM36.3751 232.561L37.977 232.561L37.977 231.921L36.3751 231.921L36.3751 232.561ZM36.0547 232.881L37.977 232.881L37.977 232.241L36.0547 232.241L36.0547 232.881ZM36.0547 233.201L37.977 233.201L37.977 232.561L36.0547 232.561L36.0547 233.201ZM36.0547 233.521L37.977 233.521L37.977 232.881L36.0547 232.881L36.0547 233.521ZM36.0547 233.841L38.2974 233.841L38.2974 233.201L36.0547 233.201L36.0547 233.841ZM36.0547 234.161L38.2974 234.161L38.2974 233.521L36.0547 233.521L36.0547 234.161ZM36.0547 234.481L38.2974 234.481L38.2974 233.841L36.0547 233.841L36.0547 234.481ZM36.0547 234.801L38.2974 234.801L38.2974 234.161L36.0547 234.161L36.0547 234.801ZM35.7343 235.121L38.2974 235.121L38.2974 234.481L35.7343 234.481L35.7343 235.121ZM35.7343 235.441L38.2974 235.441L38.2974 234.801L35.7343 234.801L35.7343 235.441ZM35.7343 235.761L38.2974 235.761L38.2974 235.121L35.7343 235.121L35.7343 235.761ZM35.7343 236.081L38.2974 236.081L38.2974 235.441L35.7343 235.441L35.7343 236.081ZM35.7343 236.401L38.6178 236.401L38.6178 235.761L35.7343 235.761L35.7343 236.401ZM35.7343 236.721L38.6178 236.721L38.6178 236.081L35.7343 236.081L35.7343 236.721ZM35.7343 237.041L38.6178 237.041L38.6178 236.401L35.7343 236.401L35.7343 237.041ZM35.4139 237.361L38.6178 237.361L38.6178 236.721L35.4139 236.721L35.4139 237.361ZM35.4139 237.681L38.6178 237.681L38.6178 237.041L35.4139 237.041L35.4139 237.681ZM35.4139 238.001L38.6178 238.001L38.6178 237.361L35.4139 237.361L35.4139 238.001ZM35.4139 238.321L38.6178 238.321L38.6178 237.681L35.4139 237.681L35.4139 238.321ZM35.4139 238.641L38.6178 238.641L38.6178 238.001L35.4139 238.001L35.4139 238.641ZM35.4139 238.961L38.6178 238.962L38.6178 238.322L35.4139 238.321L35.4139 238.961ZM35.4139 239.281L38.9382 239.282L38.9382 238.642L35.4139 238.641L35.4139 239.281ZM35.4139 239.601L38.9382 239.602L38.9382 238.962L35.4139 238.961L35.4139 239.601ZM35.0935 239.921L38.9382 239.922L38.9382 239.282L35.0935 239.281L35.0935 239.921ZM35.0935 240.241L38.9382 240.242L38.9382 239.602L35.0935 239.601L35.0935 240.241ZM35.0935 240.561L38.9382 240.562L38.9382 239.922L35.0935 239.921L35.0935 240.561ZM35.0935 240.881L38.9382 240.882L38.9382 240.242L35.0935 240.241L35.0935 240.881ZM35.0935 241.201L38.9382 241.202L38.9382 240.562L35.0935 240.561L35.0935 241.201ZM35.0935 241.521L38.9382 241.521L38.9382 240.881L35.0935 240.881L35.0935 241.521ZM35.0935 241.841L39.2586 241.841L39.2586 241.201L35.0935 241.201L35.0935 241.841ZM34.7731 242.161L39.2586 242.161L39.2586 241.521L34.7731 241.521L34.7731 242.161Z" fill="white"/>
    </g>
    <!--    5 D2-->
    <g class="group">
    </g>
    <!--    6 d-->
    <g class="group">
        <path d="M165.433 17.6809L171.755 0.333984H174.345L167.022 20.4282H164.655L165.433 17.6809ZM156.817 13.5077L156.918 13.233C157.312 12.1515 157.809 11.1704 158.408 10.2895C159.02 9.39991 159.702 8.63678 160.454 8.00012C161.215 7.36345 162.02 6.87505 162.868 6.53492C163.728 6.18606 164.608 6.01163 165.509 6.01163C166.456 6.01163 167.225 6.16862 167.816 6.48259C168.419 6.78784 168.859 7.23699 169.135 7.83005C169.423 8.41439 169.56 9.12082 169.546 9.94936C169.532 10.7779 169.39 11.7154 169.119 12.762L168.681 13.9656C168.2 15.0034 167.661 15.9366 167.062 16.7652C166.472 17.5937 165.82 18.3001 165.106 18.8845C164.401 19.4688 163.634 19.9179 162.805 20.2319C161.979 20.5372 161.088 20.6898 160.131 20.6898C159.25 20.6898 158.507 20.511 157.904 20.1534C157.31 19.7958 156.867 19.2944 156.573 18.649C156.288 18.0036 156.161 17.2448 156.191 16.3727C156.234 15.4918 156.442 14.5368 156.817 13.5077ZM159.507 13.233L159.407 13.5077C159.15 14.2141 158.983 14.877 158.905 15.4962C158.837 16.1154 158.88 16.6605 159.033 17.1315C159.187 17.6024 159.465 17.9731 159.867 18.2434C160.273 18.5051 160.824 18.6359 161.521 18.6359C162.375 18.6359 163.137 18.4658 163.809 18.1257C164.49 17.7856 165.099 17.3364 165.637 16.7782C166.174 16.2201 166.655 15.6139 167.079 14.9598L168.228 11.807C168.292 11.3273 168.298 10.8651 168.246 10.4203C168.207 9.9668 168.084 9.56561 167.877 9.21676C167.683 8.85918 167.382 8.57573 166.976 8.36642C166.579 8.1571 166.055 8.05245 165.406 8.05245C164.7 8.05245 164.041 8.19199 163.429 8.47108C162.829 8.74144 162.279 9.11646 161.78 9.59614C161.283 10.0671 160.842 10.6165 160.455 11.2445C160.081 11.8637 159.765 12.5265 159.507 13.233Z" fill="white"/>
        <path d="M225.091 35.7614L225.048 36.0785C225.176 36.0958 225.302 36.0346 225.367 35.9233C225.433 35.812 225.425 35.6724 225.347 35.5692L225.091 35.7614ZM225.091 30.6413L225.347 30.8335C225.425 30.7303 225.433 30.5907 225.367 30.4794C225.302 30.3681 225.176 30.3069 225.048 30.3242L225.091 30.6413ZM195.294 70.0014C195.294 70.1782 195.438 70.3214 195.614 70.3214C195.791 70.3214 195.934 70.1782 195.934 70.0014H195.294ZM195.934 25.5214C195.934 25.3447 195.791 25.2014 195.614 25.2014C195.438 25.2014 195.294 25.3447 195.294 25.5214H195.934ZM205.868 70.0014C205.868 70.1782 206.011 70.3214 206.188 70.3214C206.364 70.3214 206.507 70.1782 206.507 70.0014H205.868ZM206.507 25.5214C206.507 25.3447 206.364 25.2014 206.188 25.2014C206.011 25.2014 205.868 25.3447 205.868 25.5214H206.507ZM144.35 32.8814C144.173 32.8814 144.03 33.0246 144.03 33.2014C144.03 33.3781 144.173 33.5214 144.35 33.5214V32.8814ZM165.433 17.6809L165.132 17.5713C165.13 17.5787 165.127 17.5861 165.125 17.5937L165.433 17.6809ZM171.755 0.333984V0.0139844C171.621 0.0139844 171.501 0.0980615 171.455 0.224409L171.755 0.333984ZM174.345 0.333984L174.646 0.44356C174.682 0.345444 174.667 0.236052 174.607 0.150496C174.547 0.0649401 174.45 0.0139844 174.345 0.0139844V0.333984ZM167.022 20.4282V20.7482C167.156 20.7482 167.276 20.6641 167.322 20.5377L167.022 20.4282ZM164.655 20.4282L164.347 20.3409C164.319 20.4374 164.339 20.5411 164.399 20.6211C164.46 20.7011 164.554 20.7482 164.655 20.7482V20.4282ZM156.817 13.5077L157.118 13.6173L157.118 13.6173L156.817 13.5077ZM156.918 13.233L156.617 13.1234L156.617 13.1234L156.918 13.233ZM158.408 10.2895L158.144 10.1081L158.144 10.1094L158.408 10.2895ZM160.454 8.00012L160.249 7.75466L160.247 7.75591L160.454 8.00012ZM162.868 6.53492L162.987 6.83192L162.988 6.83147L162.868 6.53492ZM167.816 6.48259L167.666 6.76525L167.671 6.76814L167.816 6.48259ZM169.135 7.83005L168.844 7.96504L168.848 7.97164L169.135 7.83005ZM169.119 12.762L169.42 12.8716C169.424 12.8619 169.427 12.852 169.429 12.842L169.119 12.762ZM168.681 13.9656L168.971 14.1C168.975 14.0919 168.978 14.0836 168.981 14.0751L168.681 13.9656ZM167.062 16.7652L166.802 16.5777L166.801 16.5796L167.062 16.7652ZM165.106 18.8845L164.903 18.6368L164.902 18.6381L165.106 18.8845ZM162.805 20.2319L162.916 20.5321L162.918 20.5312L162.805 20.2319ZM157.904 20.1534L157.739 20.4276L157.741 20.4287L157.904 20.1534ZM156.573 18.649L156.28 18.7781L156.282 18.7816L156.573 18.649ZM156.191 16.3727L155.871 16.3572L155.871 16.3617L156.191 16.3727ZM159.507 13.233L159.808 13.3425L159.808 13.3425L159.507 13.233ZM159.407 13.5077L159.107 13.3981L159.107 13.3981L159.407 13.5077ZM158.905 15.4962L158.588 15.4566L158.587 15.4613L158.905 15.4962ZM159.867 18.2434L159.689 18.5092L159.694 18.5124L159.867 18.2434ZM163.809 18.1257L163.666 17.8394L163.664 17.8402L163.809 18.1257ZM167.079 14.9598L167.348 15.1339C167.361 15.1137 167.372 15.092 167.38 15.0694L167.079 14.9598ZM168.228 11.807L168.529 11.9166C168.537 11.8947 168.542 11.872 168.546 11.849L168.228 11.807ZM168.246 10.4203L167.927 10.4477L167.928 10.457L168.246 10.4203ZM167.877 9.21676L167.596 9.36981L167.602 9.38007L167.877 9.21676ZM166.976 8.36642L166.827 8.64952L166.829 8.6509L166.976 8.36642ZM163.429 8.47108L163.56 8.76281L163.562 8.76225L163.429 8.47108ZM161.78 9.59614L162 9.82832L162.001 9.82699L161.78 9.59614ZM160.455 11.2445L160.182 11.0767L160.181 11.079L160.455 11.2445ZM176.711 30.6413L176.754 30.3242C176.626 30.3069 176.5 30.3681 176.435 30.4794C176.37 30.5907 176.378 30.7303 176.455 30.8335L176.711 30.6413ZM176.711 35.7614L176.455 35.5692C176.378 35.6724 176.37 35.812 176.435 35.9233C176.5 36.0346 176.626 36.0958 176.754 36.0785L176.711 35.7614ZM169.341 32.8814C169.165 32.8814 169.021 33.0246 169.021 33.2014C169.021 33.3781 169.165 33.5214 169.341 33.5214V32.8814ZM232.781 33.5214C232.958 33.5214 233.101 33.3781 233.101 33.2014C233.101 33.0246 232.958 32.8814 232.781 32.8814V33.5214ZM225.347 35.5692L223.425 33.0092L222.913 33.3935L224.835 35.9535L225.347 35.5692ZM223.425 33.3935L225.347 30.8335L224.835 30.4492L222.913 33.0092L223.425 33.3935ZM195.934 70.0014V25.5214H195.294V70.0014H195.934ZM206.507 70.0014V25.5214H205.868V70.0014H206.507ZM165.734 17.7905L172.056 0.44356L171.455 0.224409L165.132 17.5713L165.734 17.7905ZM171.755 0.653984H174.345V0.0139844H171.755V0.653984ZM174.044 0.224409L166.721 20.3186L167.322 20.5377L174.646 0.44356L174.044 0.224409ZM167.022 20.1082H164.655V20.7482H167.022V20.1082ZM164.963 20.5154L165.741 17.7681L165.125 17.5937L164.347 20.3409L164.963 20.5154ZM157.118 13.6173L157.218 13.3425L156.617 13.1234L156.517 13.3981L157.118 13.6173ZM157.218 13.3425C157.604 12.284 158.089 11.3268 158.673 10.4695L158.144 10.1094C157.528 11.0139 157.019 12.019 156.617 13.1234L157.218 13.3425ZM158.672 10.4709C159.269 9.60243 159.932 8.86099 160.661 8.24433L160.247 7.75591C159.472 8.41257 158.771 9.19738 158.144 10.1081L158.672 10.4709ZM160.659 8.24557C161.397 7.62866 162.173 7.15848 162.987 6.83192L162.748 6.23792C161.867 6.59163 161.033 7.09824 160.249 7.75466L160.659 8.24557ZM162.988 6.83147C163.811 6.49761 164.651 6.33163 165.509 6.33163V5.69163C164.566 5.69163 163.645 5.87452 162.747 6.23836L162.988 6.83147ZM165.509 6.33163C166.424 6.33163 167.136 6.48384 167.666 6.76519L167.966 6.19999C167.313 5.8534 166.488 5.69163 165.509 5.69163V6.33163ZM167.671 6.76814C168.213 7.04216 168.6 7.43943 168.845 7.965L169.425 7.6951C169.118 7.03456 168.625 6.53352 167.96 6.19704L167.671 6.76814ZM168.848 7.97164C169.108 8.49955 169.239 9.15281 169.226 9.94387L169.866 9.95484C169.881 9.08884 169.738 8.32922 169.422 7.68847L168.848 7.97164ZM169.226 9.94387C169.212 10.741 169.075 11.6529 168.81 12.6821L169.429 12.842C169.704 11.778 169.851 10.8148 169.866 9.95484L169.226 9.94387ZM168.819 12.6524L168.38 13.856L168.981 14.0751L169.42 12.8716L168.819 12.6524ZM168.39 13.8312C167.918 14.8525 167.388 15.7676 166.802 16.5777L167.321 16.9526C167.933 16.1056 168.483 15.1543 168.971 14.1L168.39 13.8312ZM166.801 16.5796C166.226 17.3873 165.593 18.0722 164.903 18.6368L165.308 19.1321C166.047 18.528 166.718 17.8001 167.322 16.9507L166.801 16.5796ZM164.902 18.6381C164.223 19.2006 163.486 19.6316 162.691 19.9327L162.918 20.5312C163.781 20.2043 164.579 19.7369 165.31 19.1308L164.902 18.6381ZM162.694 19.9318C161.906 20.2228 161.053 20.3698 160.131 20.3698V21.0098C161.122 21.0098 162.051 20.8515 162.916 20.5321L162.694 19.9318ZM160.131 20.3698C159.292 20.3698 158.61 20.1998 158.067 19.8782L157.741 20.4287C158.405 20.8222 159.207 21.0098 160.131 21.0098V20.3698ZM158.069 19.8793C157.532 19.5559 157.132 19.1044 156.864 18.5164L156.282 18.7816C156.602 19.4844 157.089 20.0358 157.739 20.4275L158.069 19.8793ZM156.866 18.5199C156.604 17.9278 156.482 17.2189 156.511 16.3837L155.871 16.3617C155.84 17.2708 155.972 18.0794 156.28 18.7781L156.866 18.5199ZM156.511 16.3881C156.551 15.5461 156.752 14.6232 157.118 13.6173L156.517 13.3981C156.133 14.4505 155.916 15.4375 155.871 16.3572L156.511 16.3881ZM159.207 13.1234L159.107 13.3981L159.708 13.6173L159.808 13.3425L159.207 13.1234ZM159.107 13.3981C158.843 14.1227 158.668 14.8092 158.588 15.4566L159.223 15.5358C159.297 14.9447 159.457 14.3055 159.708 13.6173L159.107 13.3981ZM158.587 15.4613C158.516 16.1144 158.559 16.7068 158.729 17.2305L159.338 17.0324C159.202 16.6142 159.159 16.1164 159.223 15.5311L158.587 15.4613ZM158.729 17.2305C158.904 17.768 159.226 18.1979 159.689 18.5091L160.046 17.9778C159.704 17.7482 159.469 17.4369 159.338 17.0324L158.729 17.2305ZM159.694 18.5124C160.17 18.819 160.789 18.9559 161.521 18.9559V18.3159C160.86 18.3159 160.377 18.1911 160.041 17.9745L159.694 18.5124ZM161.521 18.9559C162.418 18.9559 163.231 18.7769 163.954 18.4112L163.664 17.8402C163.043 18.1548 162.331 18.3159 161.521 18.3159V18.9559ZM163.952 18.412C164.666 18.0552 165.305 17.5842 165.867 17.0002L165.406 16.5562C164.894 17.0886 164.314 17.5159 163.666 17.8394L163.952 18.412ZM165.867 17.0002C166.419 16.4272 166.913 15.805 167.348 15.1339L166.811 14.7857C166.398 15.4228 165.93 16.0129 165.406 16.5562L165.867 17.0002ZM167.38 15.0694L168.529 11.9166L167.928 11.6974L166.779 14.8502L167.38 15.0694ZM168.546 11.849C168.612 11.3453 168.619 10.8565 168.564 10.3836L167.928 10.457C167.977 10.8737 167.971 11.3094 167.911 11.7651L168.546 11.849ZM168.565 10.3929C168.523 9.89731 168.387 9.44856 168.153 9.05344L167.602 9.38007C167.782 9.68266 167.892 10.0363 167.928 10.4477L168.565 10.3929ZM168.158 9.06381C167.93 8.64311 167.579 8.31687 167.122 8.08193L166.829 8.6509C167.186 8.8346 167.436 9.07525 167.596 9.3697L168.158 9.06381ZM167.125 8.08333C166.666 7.84136 166.086 7.73245 165.406 7.73245V8.37245C166.025 8.37245 166.492 8.47285 166.827 8.6495L167.125 8.08333ZM165.406 7.73245C164.657 7.73245 163.952 7.8809 163.296 8.1799L163.562 8.76225C164.13 8.50308 164.744 8.37245 165.406 8.37245V7.73245ZM163.297 8.17934C162.663 8.46549 162.083 8.86167 161.558 9.36528L162.001 9.82699C162.476 9.37125 162.996 9.01739 163.56 8.76281L163.297 8.17934ZM161.56 9.36396C161.041 9.85544 160.583 10.4269 160.182 11.0767L160.727 11.4123C161.101 10.8061 161.525 10.2787 162 9.82831L161.56 9.36396ZM160.181 11.079C159.796 11.7166 159.471 12.3983 159.207 13.1234L159.808 13.3425C160.059 12.6548 160.366 12.0108 160.729 11.41L160.181 11.079ZM195.658 32.8843L176.754 30.3242L176.668 30.9584L195.572 33.5185L195.658 32.8843ZM176.455 30.8335L178.377 33.3935L178.889 33.0092L176.967 30.4492L176.455 30.8335ZM178.377 33.0092L176.455 35.5692L176.967 35.9535L178.889 33.3935L178.377 33.0092ZM176.754 36.0785L195.658 33.5185L195.572 32.8843L176.668 35.4443L176.754 36.0785ZM195.615 32.8814H169.341V33.5214H195.615V32.8814ZM177.031 31.2814H179.274V30.6414H177.031V31.2814ZM177.352 31.6014H181.517V30.9614H177.352V31.6014ZM177.672 31.9214H184.08V31.2814H177.672V31.9214ZM177.672 32.2414H186.323V31.6014H177.672V32.2414ZM177.992 32.5614H188.566V31.9214H177.992V32.5614ZM178.313 32.8814H191.129V32.2414H178.313V32.8814ZM178.633 33.2014H193.372V32.5614H178.633V33.2014ZM178.633 33.5213L195.615 33.5214L195.615 32.8814L178.633 32.8813L178.633 33.5213ZM178.633 33.8414H193.372V33.2014H178.633V33.8414ZM178.313 34.1614H191.129V33.5214H178.313V34.1614ZM177.992 34.4814H188.566V33.8414H177.992V34.4814ZM177.672 34.8014H186.323V34.1614H177.672V34.8014ZM177.672 35.1214H184.08V34.4814H177.672V35.1214ZM177.352 35.4414H181.517V34.8014H177.352V35.4414ZM177.031 35.7614H179.274V35.1214H177.031V35.7614ZM206.145 33.5185L225.048 36.0785L225.134 35.4443L206.23 32.8843L206.145 33.5185ZM225.048 30.3242L206.145 32.8843L206.23 33.5185L225.134 30.9584L225.048 30.3242ZM206.188 33.5214H232.781V32.8814H206.188V33.5214ZM206.188 33.5214H223.169V32.8814H206.188V33.5214ZM208.751 33.8414H223.489V33.2014H208.751V33.8414ZM210.994 34.1614H223.81V33.5214H210.994V34.1614ZM213.557 34.4814H224.13V33.8414H213.557V34.4814ZM215.8 34.8014H224.13V34.1614H215.8V34.8014ZM218.042 35.1214H224.45V34.4814H218.042V35.1214ZM220.606 35.4414H224.771V34.8014H220.606V35.4414ZM222.848 35.7614H225.091V35.1214H222.848V35.7614ZM222.849 31.2814H225.091V30.6414H222.849V31.2814ZM220.606 31.6014H224.771V30.9614H220.606V31.6014ZM218.043 31.9214H224.451V31.2814H218.043V31.9214ZM215.8 32.2414H224.13V31.6014H215.8V32.2414ZM213.557 32.5614H224.13V31.9214H213.557V32.5614ZM210.994 32.8814H223.81V32.2414H210.994V32.8814ZM208.751 33.2014H223.489V32.5614H208.751V33.2014ZM195.615 33.5214H206.188V32.8814H195.615V33.5214ZM195.615 32.8814H144.35V33.5214H195.615V32.8814Z" fill="white"/>
    </g>
    <!--    7 dH-->
    <g class="group">
    </g>
    <!--    8 d1-->
    <g class="group">
    </g>
    <!--    9 d2-->
    <g class="group">
        <path d="M269.04 189.279V193.512L266.985 192.737V188.532C266.985 187.084 266.702 185.774 266.135 184.603C265.559 183.428 264.757 182.412 263.727 181.555C262.689 180.686 261.476 179.999 260.089 179.495L258.925 179.072C257.834 178.675 256.866 178.462 256.019 178.433C255.165 178.401 254.445 178.548 253.86 178.873C253.267 179.196 252.818 179.692 252.512 180.361C252.207 181.02 252.054 181.851 252.054 182.854V187.421L249.987 186.669V182.102C249.987 180.775 250.196 179.639 250.615 178.696C251.025 177.75 251.623 177.025 252.408 176.521C253.184 176.005 254.126 175.735 255.234 175.711C256.334 175.684 257.572 175.921 258.951 176.422L260.089 176.835C261.468 177.337 262.711 178.002 263.819 178.832C264.918 179.658 265.856 180.617 266.632 181.707C267.409 182.787 268.006 183.97 268.425 185.254C268.835 186.527 269.04 187.868 269.04 189.279ZM249.987 185.151L269.04 192.078V194.765L249.987 187.839V185.151Z" fill="white"/>
        <path d="M275.211 171.959L276.526 172.437V181.208L275.375 180.79L270.782 174.73C270.217 173.985 269.739 173.393 269.346 172.956C268.948 172.511 268.594 172.173 268.282 171.944C267.965 171.706 267.642 171.527 267.314 171.407C266.898 171.256 266.524 171.212 266.189 171.275C265.849 171.329 265.578 171.494 265.376 171.771C265.174 172.047 265.073 172.434 265.073 172.931C265.073 173.526 265.183 174.063 265.402 174.541C265.615 175.011 265.915 175.415 266.302 175.752C266.688 176.089 267.132 176.348 267.634 176.531V178.233C266.924 177.976 266.276 177.574 265.687 177.029C265.099 176.484 264.632 175.823 264.286 175.047C263.934 174.268 263.758 173.404 263.758 172.453C263.758 171.606 263.9 170.933 264.182 170.435C264.459 169.934 264.851 169.616 265.359 169.482C265.86 169.339 266.449 169.39 267.123 169.635C267.492 169.77 267.867 169.973 268.248 170.247C268.623 170.512 268.998 170.829 269.372 171.199C269.747 171.562 270.116 171.963 270.48 172.402C270.843 172.835 271.2 173.287 271.552 173.758L275.211 178.678V171.959Z" fill="white"/>
        <path d="M286.289 206C286.289 206.177 286.432 206.32 286.609 206.32C286.785 206.32 286.929 206.177 286.929 206H286.289ZM269.04 193.512L268.927 193.812C269.025 193.849 269.136 193.835 269.222 193.775C269.308 193.716 269.36 193.617 269.36 193.512H269.04ZM266.985 192.737H266.665C266.665 192.871 266.748 192.99 266.873 193.037L266.985 192.737ZM266.135 184.603L266.423 184.464L266.422 184.462L266.135 184.603ZM263.727 181.555L263.522 181.801L263.522 181.801L263.727 181.555ZM260.089 179.495L260.199 179.194L260.199 179.194L260.089 179.495ZM258.925 179.072L258.815 179.372L258.815 179.372L258.925 179.072ZM256.019 178.433L256.007 178.753L256.008 178.753L256.019 178.433ZM253.86 178.873L254.013 179.155L254.016 179.153L253.86 178.873ZM252.512 180.361L252.803 180.495L252.804 180.494L252.512 180.361ZM252.054 187.421L251.945 187.721C252.043 187.757 252.152 187.743 252.238 187.683C252.323 187.623 252.374 187.525 252.374 187.421H252.054ZM249.987 186.669H249.667C249.667 186.804 249.751 186.924 249.877 186.97L249.987 186.669ZM250.615 178.696L250.907 178.826L250.909 178.823L250.615 178.696ZM252.408 176.521L252.581 176.791L252.585 176.788L252.408 176.521ZM255.234 175.711L255.241 176.031L255.242 176.031L255.234 175.711ZM258.951 176.422L258.841 176.722L258.841 176.722L258.951 176.422ZM260.089 176.835L260.199 176.535L260.199 176.535L260.089 176.835ZM263.819 178.832L264.011 178.576L264.011 178.576L263.819 178.832ZM266.632 181.707L266.372 181.892L266.372 181.893L266.632 181.707ZM268.425 185.254L268.73 185.156L268.729 185.155L268.425 185.254ZM249.987 185.151L250.096 184.851C249.998 184.815 249.889 184.829 249.803 184.889C249.718 184.949 249.667 185.047 249.667 185.151H249.987ZM269.04 192.078H269.36C269.36 191.943 269.276 191.823 269.149 191.777L269.04 192.078ZM269.04 194.765L268.931 195.066C269.029 195.102 269.138 195.087 269.224 195.027C269.309 194.968 269.36 194.87 269.36 194.765H269.04ZM249.987 187.839H249.667C249.667 187.973 249.751 188.093 249.877 188.139L249.987 187.839ZM275.211 171.959L275.32 171.658C275.222 171.623 275.113 171.637 275.028 171.697C274.942 171.757 274.891 171.855 274.891 171.959H275.211ZM276.526 172.437H276.846C276.846 172.302 276.762 172.182 276.635 172.136L276.526 172.437ZM276.526 181.208L276.417 181.509C276.515 181.545 276.624 181.53 276.71 181.47C276.795 181.411 276.846 181.313 276.846 181.208H276.526ZM275.375 180.79L275.12 180.983C275.158 181.033 275.208 181.07 275.266 181.091L275.375 180.79ZM270.782 174.73L271.037 174.537L271.037 174.537L270.782 174.73ZM269.346 172.956L269.108 173.17L269.108 173.17L269.346 172.956ZM268.282 171.944L268.09 172.2L268.092 172.201L268.282 171.944ZM267.314 171.407L267.423 171.107L267.314 171.407ZM266.189 171.275L266.24 171.591L266.248 171.589L266.189 171.275ZM265.402 174.541L265.693 174.409L265.693 174.408L265.402 174.541ZM267.634 176.531H267.954C267.954 176.396 267.869 176.276 267.743 176.23L267.634 176.531ZM267.634 178.233L267.524 178.534C267.622 178.57 267.732 178.555 267.817 178.495C267.903 178.436 267.954 178.338 267.954 178.233H267.634ZM264.286 175.047L264.578 174.916L264.578 174.915L264.286 175.047ZM264.182 170.435L264.461 170.592L264.462 170.589L264.182 170.435ZM265.359 169.482L265.441 169.791L265.446 169.79L265.359 169.482ZM267.123 169.635L267.014 169.936L267.123 169.635ZM268.248 170.247L268.061 170.507L268.063 170.508L268.248 170.247ZM269.372 171.199L269.148 171.427L269.15 171.428L269.372 171.199ZM270.48 172.402L270.233 172.606L270.234 172.608L270.48 172.402ZM271.552 173.758L271.809 173.567L271.809 173.567L271.552 173.758ZM275.211 178.678L274.954 178.869C275.037 178.98 275.181 179.025 275.312 178.982C275.443 178.938 275.531 178.816 275.531 178.678H275.211ZM288.851 106.8L289.169 106.838C289.185 106.707 289.118 106.58 289.002 106.518C288.886 106.455 288.743 106.471 288.643 106.557L288.851 106.8ZM284.045 106.8L284.237 106.544C284.134 106.466 283.994 106.459 283.883 106.524C283.772 106.589 283.711 106.715 283.728 106.843L284.045 106.8ZM286.929 99.4399C286.929 99.2632 286.785 99.1199 286.609 99.1199C286.432 99.1199 286.289 99.2632 286.289 99.4399H286.929ZM284.045 150.32L283.728 150.277C283.711 150.405 283.772 150.53 283.883 150.596C283.994 150.661 284.134 150.653 284.237 150.576L284.045 150.32ZM286.608 148.4L286.608 148.08L286.608 148.08L286.608 148.4ZM288.851 150.32L288.643 150.563C288.743 150.649 288.886 150.664 289.002 150.602C289.118 150.54 289.185 150.413 289.169 150.282L288.851 150.32ZM286.289 158C286.289 158.177 286.432 158.32 286.609 158.32C286.785 158.32 286.929 158.177 286.929 158H286.289ZM268.72 189.279V193.512H269.36V189.279H268.72ZM269.153 193.213L267.098 192.438L266.873 193.037L268.927 193.812L269.153 193.213ZM267.305 192.737V188.532H266.665V192.737H267.305ZM267.305 188.532C267.305 187.041 267.013 185.683 266.423 184.464L265.847 184.742C266.391 185.866 266.665 187.127 266.665 188.532H267.305ZM266.422 184.462C265.826 183.246 264.995 182.195 263.932 181.31L263.522 181.801C264.518 182.63 265.292 183.611 265.848 184.744L266.422 184.462ZM263.933 181.31C262.863 180.415 261.618 179.71 260.199 179.194L259.98 179.796C261.335 180.288 262.515 180.957 263.522 181.801L263.933 181.31ZM260.199 179.194L259.034 178.771L258.815 179.372L259.98 179.796L260.199 179.194ZM259.034 178.771C257.923 178.367 256.92 178.144 256.03 178.113L256.008 178.753C256.811 178.781 257.745 178.983 258.815 179.372L259.034 178.771ZM256.032 178.113C255.134 178.079 254.353 178.233 253.704 178.594L254.016 179.153C254.537 178.863 255.195 178.722 256.007 178.753L256.032 178.113ZM253.707 178.592C253.048 178.951 252.553 179.502 252.221 180.228L252.804 180.494C253.083 179.882 253.486 179.441 254.013 179.155L253.707 178.592ZM252.222 180.226C251.891 180.941 251.734 181.821 251.734 182.854H252.374C252.374 181.881 252.523 181.1 252.803 180.495L252.222 180.226ZM251.734 182.854V187.421H252.374V182.854H251.734ZM252.164 187.12L250.096 186.368L249.877 186.97L251.945 187.721L252.164 187.12ZM250.307 186.669V182.102H249.667V186.669H250.307ZM250.307 182.102C250.307 180.807 250.511 179.718 250.907 178.826L250.322 178.566C249.881 179.56 249.667 180.742 249.667 182.102H250.307ZM250.909 178.823C251.296 177.929 251.854 177.256 252.58 176.791L252.235 176.252C251.391 176.794 250.754 177.571 250.321 178.569L250.909 178.823ZM252.585 176.788C253.302 176.311 254.182 176.054 255.241 176.031L255.227 175.391C254.07 175.416 253.066 175.699 252.231 176.255L252.585 176.788ZM255.242 176.031C256.291 176.005 257.489 176.231 258.841 176.722L259.06 176.121C257.656 175.61 256.376 175.362 255.226 175.391L255.242 176.031ZM258.841 176.722L259.98 177.136L260.199 176.535L259.06 176.121L258.841 176.722ZM259.98 177.136C261.33 177.627 262.546 178.278 263.627 179.088L264.011 178.576C262.876 177.726 261.605 177.046 260.199 176.535L259.98 177.136ZM263.626 179.088C264.7 179.895 265.615 180.83 266.372 181.892L266.893 181.521C266.097 180.404 265.136 179.422 264.011 178.576L263.626 179.088ZM266.372 181.893C267.129 182.947 267.712 184.1 268.121 185.354L268.729 185.155C268.3 183.84 267.688 182.628 266.892 181.52L266.372 181.893ZM268.12 185.353C268.52 186.591 268.72 187.9 268.72 189.279H269.36C269.36 187.837 269.15 186.462 268.73 185.156L268.12 185.353ZM249.877 185.452L268.931 192.379L269.149 191.777L250.096 184.851L249.877 185.452ZM268.72 192.078V194.765H269.36V192.078H268.72ZM269.149 194.465L250.096 187.538L249.877 188.139L268.931 195.066L269.149 194.465ZM250.307 187.839V185.151H249.667V187.839H250.307ZM275.102 172.26L276.417 172.738L276.635 172.136L275.32 171.658L275.102 172.26ZM276.206 172.437V181.208H276.846V172.437H276.206ZM276.635 180.908L275.485 180.489L275.266 181.091L276.417 181.509L276.635 180.908ZM275.631 180.597L271.037 174.537L270.527 174.923L275.12 180.983L275.631 180.597ZM271.037 174.537C270.47 173.788 269.985 173.189 269.585 172.743L269.108 173.17C269.492 173.598 269.965 174.181 270.527 174.923L271.037 174.537ZM269.585 172.743C269.179 172.289 268.808 171.934 268.472 171.686L268.092 172.201C268.379 172.413 268.718 172.733 269.108 173.17L269.585 172.743ZM268.475 171.688C268.135 171.433 267.785 171.238 267.423 171.107L267.204 171.708C267.5 171.815 267.795 171.978 268.09 172.2L268.475 171.688ZM267.423 171.107C266.97 170.942 266.536 170.884 266.13 170.96L266.248 171.589C266.512 171.54 266.827 171.571 267.204 171.708L267.423 171.107ZM266.139 170.959C265.716 171.026 265.37 171.237 265.118 171.582L265.634 171.959C265.786 171.752 265.982 171.632 266.24 171.591L266.139 170.959ZM265.118 171.582C264.861 171.933 264.753 172.395 264.753 172.931H265.393C265.393 172.472 265.487 172.161 265.634 171.959L265.118 171.582ZM264.753 172.931C264.753 173.566 264.87 174.149 265.111 174.674L265.693 174.408C265.495 173.976 265.393 173.486 265.393 172.931H264.753ZM265.111 174.673C265.343 175.185 265.67 175.626 266.091 175.993L266.512 175.511C266.16 175.204 265.888 174.838 265.693 174.409L265.111 174.673ZM266.091 175.993C266.509 176.357 266.987 176.636 267.524 176.831L267.743 176.23C267.277 176.06 266.867 175.82 266.512 175.511L266.091 175.993ZM267.314 176.531V178.233H267.954V176.531H267.314ZM267.743 177.933C267.076 177.69 266.464 177.312 265.905 176.794L265.47 177.264C266.087 177.836 266.772 178.261 267.524 178.534L267.743 177.933ZM265.905 176.794C265.35 176.28 264.908 175.656 264.578 174.916L263.994 175.177C264.356 175.99 264.848 176.687 265.47 177.264L265.905 176.794ZM264.578 174.915C264.247 174.183 264.078 173.364 264.078 172.453H263.438C263.438 173.444 263.622 174.354 263.995 175.179L264.578 174.915ZM264.078 172.453C264.078 171.637 264.215 171.025 264.461 170.592L263.904 170.277C263.584 170.841 263.438 171.575 263.438 172.453H264.078ZM264.462 170.589C264.701 170.158 265.026 169.901 265.441 169.791L265.277 169.172C264.677 169.332 264.217 169.71 263.902 170.28L264.462 170.589ZM265.446 169.79C265.863 169.671 266.379 169.705 267.014 169.936L267.233 169.335C266.518 169.075 265.858 169.007 265.271 169.174L265.446 169.79ZM267.014 169.936C267.351 170.059 267.7 170.247 268.061 170.507L268.435 169.987C268.035 169.7 267.634 169.481 267.233 169.335L267.014 169.936ZM268.063 170.508C268.422 170.762 268.783 171.068 269.148 171.427L269.597 170.971C269.212 170.591 268.824 170.262 268.433 169.985L268.063 170.508ZM269.15 171.428C269.515 171.783 269.877 172.175 270.233 172.606L270.726 172.198C270.356 171.751 269.979 171.341 269.595 170.969L269.15 171.428ZM270.234 172.608C270.594 173.035 270.947 173.483 271.296 173.95L271.809 173.567C271.453 173.091 271.092 172.634 270.725 172.196L270.234 172.608ZM271.295 173.949L274.954 178.869L275.468 178.487L271.809 173.567L271.295 173.949ZM275.531 178.678V171.959H274.891V178.678H275.531ZM286.926 125.718L289.169 106.838L288.534 106.762L286.291 125.642L286.926 125.718ZM288.643 106.557L286.4 108.477L286.817 108.963L289.059 107.043L288.643 106.557ZM286.8 108.464L284.237 106.544L283.853 107.056L286.417 108.976L286.8 108.464ZM283.728 106.843L286.291 125.723L286.926 125.637L284.362 106.757L283.728 106.843ZM286.929 125.68V99.4399H286.289V125.68H286.929ZM288.531 107.44H288.851V106.8H288.531V107.44ZM288.211 107.76H288.851V107.12H288.211V107.76ZM287.89 108.08H288.851V107.44H287.89V108.08ZM287.57 108.4H288.851V107.76H287.57V108.4ZM287.249 108.72H288.851V108.08H287.249V108.72ZM286.609 109.04L288.851 109.04L288.851 108.4L286.609 108.4L286.609 109.04ZM286.609 123.76H286.929V123.12H286.609V123.76ZM286.609 124.08H286.929V123.44H286.609V124.08ZM286.609 124.4H286.929V123.76H286.609V124.4ZM286.609 124.72H286.929V124.08H286.609V124.72ZM286.609 125.04H286.929V124.4H286.609V125.04ZM286.609 125.36H286.929V124.72H286.609V125.36ZM286.609 125.68H286.929V125.04H286.609V125.68ZM284.366 107.44H284.686V106.8H284.366V107.44ZM284.366 107.76H285.007V107.12H284.366V107.76ZM284.366 108.08H285.327V107.44H284.366V108.08ZM284.366 108.4H285.968V107.76H284.366V108.4ZM284.366 108.72H286.288V108.08H284.366V108.72ZM284.366 109.04L286.609 109.04L286.609 108.4L284.366 108.4L284.366 109.04ZM286.291 131.397L283.728 150.277L284.362 150.363L286.926 131.483L286.291 131.397ZM284.237 150.576L286.8 148.656L286.416 148.144L283.853 150.064L284.237 150.576ZM286.4 148.643L288.643 150.563L289.059 150.077L286.816 148.157L286.4 148.643ZM289.169 150.282L286.926 131.402L286.291 131.478L288.534 150.358L289.169 150.282ZM286.289 131.44V158H286.929V131.44H286.289ZM284.366 148.72L286.608 148.72L286.608 148.08L284.366 148.08L284.366 148.72ZM284.366 149.04H286.288V148.4H284.366V149.04ZM284.366 149.36H285.968V148.72H284.366V149.36ZM284.366 149.68H285.327V149.04H284.366V149.68ZM284.366 150H285.007V149.36H284.366V150ZM284.366 150.32H284.686V149.68H284.366V150.32ZM286.609 132.08H286.929V131.44H286.609V132.08ZM286.609 132.4H286.929V131.76H286.609V132.4ZM286.609 132.72H286.929V132.08H286.609V132.72ZM286.609 133.04H286.929V132.4H286.609V133.04ZM286.609 133.36H286.929V132.72H286.609V133.36ZM286.609 133.68H286.929V133.04H286.609V133.68ZM286.609 134H286.929V133.36H286.609V134ZM286.608 148.72L288.851 148.72L288.851 148.08L286.608 148.08L286.608 148.72ZM287.249 149.04H288.851V148.4H287.249V149.04ZM287.57 149.36H288.851V148.72H287.57V149.36ZM287.89 149.68H288.851V149.04H287.89V149.68ZM288.211 150H288.851V149.36H288.211V150ZM288.531 150.32H288.851V149.68H288.531V150.32ZM286.289 125.68V131.44H286.929V125.68H286.289ZM286.289 131.44V206H286.929V131.44H286.289ZM284.366 109.36L288.851 109.36L288.851 108.72L284.366 108.72L284.366 109.36ZM284.686 109.68L288.851 109.68L288.851 109.04L284.686 109.04L284.686 109.68ZM284.686 110L288.531 110L288.531 109.36L284.686 109.36L284.686 110ZM284.686 110.32L288.531 110.32L288.531 109.68L284.686 109.68L284.686 110.32ZM284.686 110.64L288.531 110.64L288.531 110L284.686 110L284.686 110.64ZM284.686 110.96L288.531 110.96L288.531 110.32L284.686 110.32L284.686 110.96ZM284.686 111.28L288.531 111.28L288.531 110.64L284.686 110.64L284.686 111.28ZM284.686 111.6L288.531 111.6L288.531 110.96L284.686 110.96L284.686 111.6ZM285.007 111.92L288.531 111.92L288.531 111.28L285.007 111.28L285.007 111.92ZM285.007 112.24L288.531 112.24L288.531 111.6L285.007 111.6L285.007 112.24ZM285.007 112.56L288.211 112.56L288.211 111.92L285.007 111.92L285.007 112.56ZM285.007 112.88L288.211 112.88L288.211 112.24L285.007 112.24L285.007 112.88ZM285.007 113.2L288.211 113.2L288.211 112.56L285.007 112.56L285.007 113.2ZM285.007 113.52L288.211 113.52L288.211 112.88L285.007 112.88L285.007 113.52ZM285.007 113.84L288.211 113.84L288.211 113.2L285.007 113.2L285.007 113.84ZM285.007 114.16L288.211 114.16L288.211 113.52L285.007 113.52L285.007 114.16ZM285.327 114.48L288.211 114.48L288.211 113.84L285.327 113.84L285.327 114.48ZM285.327 114.8L288.211 114.8L288.211 114.16L285.327 114.16L285.327 114.8ZM285.327 115.12L288.211 115.12L288.211 114.48L285.327 114.48L285.327 115.12ZM285.327 115.44L287.89 115.44L287.89 114.8L285.327 114.8L285.327 115.44ZM285.327 115.76L287.89 115.76L287.89 115.12L285.327 115.12L285.327 115.76ZM285.327 116.08L287.89 116.08L287.89 115.44L285.327 115.44L285.327 116.08ZM285.327 116.4L287.89 116.4L287.89 115.76L285.327 115.76L285.327 116.4ZM285.647 116.72L287.89 116.72L287.89 116.08L285.647 116.08L285.647 116.72ZM285.647 117.04L287.89 117.04L287.89 116.4L285.647 116.4L285.647 117.04ZM285.647 117.36L287.89 117.36L287.89 116.72L285.647 116.72L285.647 117.36ZM285.647 117.68L287.89 117.68L287.89 117.04L285.647 117.04L285.647 117.68ZM285.647 118L287.57 118L287.57 117.36L285.647 117.36L285.647 118ZM285.647 118.32L287.57 118.32L287.57 117.68L285.647 117.68L285.647 118.32ZM285.647 118.64L287.57 118.64L287.57 118L285.647 118L285.647 118.64ZM285.968 118.96L287.57 118.96L287.57 118.32L285.968 118.32L285.968 118.96ZM285.968 119.28L287.57 119.28L287.57 118.64L285.968 118.64L285.968 119.28ZM285.968 119.6L287.57 119.6L287.57 118.96L285.968 118.96L285.968 119.6ZM285.968 119.92L287.57 119.92L287.57 119.28L285.968 119.28L285.968 119.92ZM285.968 120.24L287.57 120.24L287.57 119.6L285.968 119.6L285.968 120.24ZM285.968 120.56L287.57 120.56L287.57 119.92L285.968 119.92L285.968 120.56ZM285.968 120.88L287.249 120.88L287.249 120.24L285.968 120.24L285.968 120.88ZM285.968 121.2L287.249 121.2L287.249 120.56L285.968 120.56L285.968 121.2ZM286.288 121.52L287.249 121.52L287.249 120.88L286.288 120.88L286.288 121.52ZM286.288 121.84L287.249 121.84L287.249 121.2L286.288 121.2L286.288 121.84ZM286.288 122.16L287.249 122.16L287.249 121.52L286.288 121.52L286.288 122.16ZM286.288 122.48L287.249 122.48L287.249 121.84L286.288 121.84L286.288 122.48ZM286.288 122.8L287.249 122.8L287.249 122.16L286.288 122.16L286.288 122.8ZM286.288 123.12L287.249 123.12L287.249 122.48L286.288 122.48L286.288 123.12ZM286.288 123.44L286.929 123.44L286.929 122.8L286.288 122.8L286.288 123.44ZM286.288 134.32L286.929 134.32L286.929 133.68L286.288 133.68L286.288 134.32ZM286.288 134.64L287.249 134.64L287.249 134L286.288 134L286.288 134.64ZM286.288 134.96L287.249 134.96L287.249 134.32L286.288 134.32L286.288 134.96ZM286.288 135.28L287.249 135.28L287.249 134.64L286.288 134.64L286.288 135.28ZM286.288 135.6L287.249 135.6L287.249 134.96L286.288 134.96L286.288 135.6ZM286.288 135.92L287.249 135.92L287.249 135.28L286.288 135.28L286.288 135.92ZM286.288 136.24L287.249 136.24L287.249 135.6L286.288 135.6L286.288 136.24ZM285.968 136.56L287.249 136.56L287.249 135.92L285.968 135.92L285.968 136.56ZM285.968 136.88L287.249 136.88L287.249 136.24L285.968 136.24L285.968 136.88ZM285.968 137.2L287.57 137.2L287.57 136.56L285.968 136.56L285.968 137.2ZM285.968 137.52L287.57 137.52L287.57 136.88L285.968 136.88L285.968 137.52ZM285.968 137.84L287.57 137.84L287.57 137.2L285.968 137.2L285.968 137.84ZM285.968 138.16L287.57 138.16L287.57 137.52L285.968 137.52L285.968 138.16ZM285.968 138.48L287.57 138.48L287.57 137.84L285.968 137.84L285.968 138.48ZM285.968 138.8L287.57 138.8L287.57 138.16L285.968 138.16L285.968 138.8ZM285.647 139.12L287.57 139.12L287.57 138.48L285.647 138.48L285.647 139.12ZM285.647 139.44L287.57 139.44L287.57 138.8L285.647 138.8L285.647 139.44ZM285.647 139.76L287.57 139.76L287.57 139.12L285.647 139.12L285.647 139.76ZM285.647 140.08L287.89 140.08L287.89 139.44L285.647 139.44L285.647 140.08ZM285.647 140.4L287.89 140.4L287.89 139.76L285.647 139.76L285.647 140.4ZM285.647 140.72L287.89 140.72L287.89 140.08L285.647 140.08L285.647 140.72ZM285.647 141.04L287.89 141.04L287.89 140.4L285.647 140.4L285.647 141.04ZM285.327 141.36L287.89 141.36L287.89 140.72L285.327 140.72L285.327 141.36ZM285.327 141.68L287.89 141.68L287.89 141.04L285.327 141.04L285.327 141.68ZM285.327 142L287.89 142L287.89 141.36L285.327 141.36L285.327 142ZM285.327 142.32L287.89 142.32L287.89 141.68L285.327 141.68L285.327 142.32ZM285.327 142.64L288.211 142.64L288.211 142L285.327 142L285.327 142.64ZM285.327 142.96L288.211 142.96L288.211 142.32L285.327 142.32L285.327 142.96ZM285.327 143.28L288.211 143.28L288.211 142.64L285.327 142.64L285.327 143.28ZM285.007 143.6L288.211 143.6L288.211 142.96L285.007 142.96L285.007 143.6ZM285.007 143.92L288.211 143.92L288.211 143.28L285.007 143.28L285.007 143.92ZM285.007 144.24L288.211 144.24L288.211 143.6L285.007 143.6L285.007 144.24ZM285.007 144.56L288.211 144.56L288.211 143.92L285.007 143.92L285.007 144.56ZM285.007 144.88L288.211 144.88L288.211 144.24L285.007 144.24L285.007 144.88ZM285.007 145.2L288.211 145.2L288.211 144.56L285.007 144.56L285.007 145.2ZM285.007 145.52L288.531 145.52L288.531 144.88L285.007 144.88L285.007 145.52ZM285.007 145.84L288.531 145.84L288.531 145.2L285.007 145.2L285.007 145.84ZM284.686 146.16L288.531 146.16L288.531 145.52L284.686 145.52L284.686 146.16ZM284.686 146.48L288.531 146.48L288.531 145.84L284.686 145.84L284.686 146.48ZM284.686 146.8L288.531 146.8L288.531 146.16L284.686 146.16L284.686 146.8ZM284.686 147.12L288.531 147.12L288.531 146.48L284.686 146.48L284.686 147.12ZM284.686 147.44L288.531 147.44L288.531 146.8L284.686 146.8L284.686 147.44ZM284.686 147.76L288.531 147.76L288.531 147.12L284.686 147.12L284.686 147.76ZM284.686 148.08L288.851 148.08L288.851 147.44L284.686 147.44L284.686 148.08ZM284.366 148.4L288.851 148.4L288.851 147.76L284.366 147.76L284.366 148.4Z" fill="white"/>
    </g>
    <!--    10 L-->
    <g class="group">
        <path d="M138.767 263.185L138.019 265.239H127.882L128.631 263.185H138.767ZM135.353 246.192L128.411 265.239H125.724L132.666 246.192H135.353Z" fill="white"/>
        <path d="M201.702 213.68C201.702 213.503 201.559 213.36 201.382 213.36C201.205 213.36 201.062 213.503 201.062 213.68H201.702ZM59.7638 234.16C59.7638 233.983 59.6206 233.84 59.4438 233.84C59.2671 233.84 59.1238 233.983 59.1238 234.16H59.7638ZM59.1238 285.68C59.1238 285.857 59.2671 286 59.4438 286C59.6206 286 59.7638 285.857 59.7638 285.68H59.1238ZM201.062 285.68C201.062 285.857 201.205 286 201.382 286C201.559 286 201.702 285.857 201.702 285.68H201.062ZM138.767 263.185L139.068 263.295C139.104 263.197 139.089 263.087 139.03 263.002C138.97 262.916 138.872 262.865 138.767 262.865V263.185ZM138.019 265.239V265.559C138.153 265.559 138.273 265.475 138.32 265.349L138.019 265.239ZM127.882 265.239L127.582 265.13C127.546 265.228 127.56 265.337 127.62 265.423C127.68 265.508 127.778 265.559 127.882 265.559V265.239ZM128.631 263.185V262.865C128.496 262.865 128.376 262.949 128.33 263.076L128.631 263.185ZM135.353 246.192L135.654 246.301C135.69 246.203 135.675 246.094 135.616 246.008C135.556 245.923 135.458 245.872 135.353 245.872V246.192ZM128.411 265.239V265.559C128.546 265.559 128.666 265.475 128.712 265.349L128.411 265.239ZM125.724 265.239L125.423 265.13C125.388 265.228 125.402 265.337 125.462 265.423C125.522 265.508 125.62 265.559 125.724 265.559V265.239ZM132.666 246.192V245.872C132.532 245.872 132.411 245.956 132.365 246.082L132.666 246.192ZM59.4438 278L59.4009 277.683C59.2422 277.704 59.1238 277.84 59.1238 278C59.1238 278.16 59.2422 278.296 59.4009 278.317L59.4438 278ZM78.3475 275.44L78.6034 275.632C78.6809 275.529 78.6888 275.389 78.6235 275.278C78.5582 275.167 78.4324 275.106 78.3046 275.123L78.3475 275.44ZM78.3477 280.56L78.3047 280.877C78.4326 280.894 78.5584 280.833 78.6237 280.722C78.689 280.611 78.6811 280.471 78.6036 280.368L78.3477 280.56ZM201.382 278L201.425 278.317C201.583 278.296 201.702 278.16 201.702 278C201.702 277.84 201.583 277.704 201.425 277.683L201.382 278ZM182.478 280.56L182.222 280.368C182.145 280.471 182.137 280.611 182.202 280.722C182.267 280.833 182.393 280.894 182.521 280.877L182.478 280.56ZM182.478 275.44L182.521 275.123C182.393 275.106 182.267 275.167 182.202 275.278C182.137 275.389 182.145 275.529 182.222 275.632L182.478 275.44ZM59.1238 234.16V285.68H59.7638V234.16H59.1238ZM138.467 263.076L137.718 265.13L138.32 265.349L139.068 263.295L138.467 263.076ZM138.019 264.919H127.882V265.559H138.019V264.919ZM128.183 265.349L128.931 263.295L128.33 263.076L127.582 265.13L128.183 265.349ZM128.631 263.505H138.767V262.865H128.631V263.505ZM135.053 246.082L128.111 265.13L128.712 265.349L135.654 246.301L135.053 246.082ZM128.411 264.919H125.724V265.559H128.411V264.919ZM126.025 265.349L132.967 246.301L132.365 246.082L125.423 265.13L126.025 265.349ZM132.666 246.512H135.353V245.872H132.666V246.512ZM59.4868 278.317L78.3904 275.757L78.3046 275.123L59.4009 277.683L59.4868 278.317ZM78.0916 275.248L76.1694 277.808L76.6812 278.192L78.6034 275.632L78.0916 275.248ZM76.1694 278.192L78.0918 280.752L78.6036 280.368L76.6812 277.808L76.1694 278.192ZM78.3906 280.243L59.4868 277.683L59.4009 278.317L78.3047 280.877L78.3906 280.243ZM76.105 276.08H78.3478V275.44H76.105V276.08ZM73.8622 276.4H78.0274V275.76H73.8622V276.4ZM71.299 276.72H77.707V276.08H71.299V276.72ZM69.0561 277.04H77.3866V276.4H69.0561V277.04ZM66.8133 277.36H77.3866V276.72H66.8133V277.36ZM64.2501 277.68H77.0662V277.04H64.2501V277.68ZM62.0073 278H76.7458V277.36H62.0073V278ZM59.4438 278.32H76.4253V277.68H59.4438V278.32ZM62.0071 278.64H76.7455V278H62.0071V278.64ZM64.2499 278.96H77.0659V278.32H64.2499V278.96ZM66.8131 279.28H77.3863V278.64H66.8131V279.28ZM69.0559 279.6H77.3863V278.96H69.0559V279.6ZM71.2987 279.92H77.7067V279.28H71.2987V279.92ZM73.8619 280.24H78.0271V279.6H73.8619V280.24ZM76.1047 280.56H78.3475V279.92H76.1047V280.56ZM201.339 277.683L182.435 280.243L182.521 280.877L201.425 278.317L201.339 277.683ZM182.734 280.752L184.656 278.192L184.145 277.808L182.222 280.368L182.734 280.752ZM184.656 277.808L182.734 275.248L182.222 275.632L184.145 278.192L184.656 277.808ZM182.435 275.757L201.339 278.317L201.425 277.683L182.521 275.123L182.435 275.757ZM184.4 278.32H201.382V277.68H184.4V278.32ZM184.4 278.64H199.139V278H184.4V278.64ZM184.08 278.96H196.896V278.32H184.08V278.96ZM183.76 279.28H194.333V278.64H183.76V279.28ZM183.439 279.6H192.09V278.96H183.439V279.6ZM183.439 279.92H189.847V279.28H183.439V279.92ZM183.119 280.24H187.284V279.6H183.119V280.24ZM182.798 280.56H185.041V279.92H182.798V280.56ZM182.798 276.08H185.041V275.44H182.798V276.08ZM183.119 276.4H187.284V275.76H183.119V276.4ZM183.439 276.72H189.847V276.08H183.439V276.72ZM183.439 277.04H192.09V276.4H183.439V277.04ZM183.76 277.36H194.333V276.72H183.76V277.36ZM184.08 277.68H196.896V277.04H184.08V277.68ZM184.4 278H199.139V277.36H184.4V278ZM59.4438 278.32L201.382 278.32L201.382 277.68L59.4438 277.68L59.4438 278.32ZM201.702 285.68V213.68H201.062V285.68H201.702Z" fill="white"/>
        <path d="M597.352 140.132L599.406 140.879V151.015L597.352 150.268V140.132ZM580.353 143.56L599.406 150.486V153.174L580.353 146.247V143.56Z" fill="white"/>
        <path d="M481.412 77.3614C481.235 77.3614 481.092 77.5047 481.092 77.6814C481.092 77.8581 481.235 78.0014 481.412 78.0014V77.3614ZM594.834 219.121C594.657 219.121 594.514 219.265 594.514 219.441C594.514 219.618 594.657 219.761 594.834 219.761V219.121ZM619.825 219.761C620.002 219.761 620.145 219.618 620.145 219.441C620.145 219.265 620.002 219.121 619.825 219.121V219.761ZM619.825 78.0014C620.002 78.0014 620.145 77.8581 620.145 77.6814C620.145 77.5047 620.002 77.3614 619.825 77.3614V78.0014ZM597.352 140.132L597.461 139.831C597.363 139.795 597.253 139.81 597.168 139.87C597.082 139.93 597.032 140.027 597.032 140.132H597.352ZM599.406 140.879H599.726C599.726 140.744 599.642 140.624 599.515 140.578L599.406 140.879ZM599.406 151.015L599.297 151.316C599.395 151.352 599.504 151.337 599.59 151.277C599.675 151.218 599.726 151.12 599.726 151.015H599.406ZM597.352 150.268H597.032C597.032 150.403 597.116 150.523 597.242 150.569L597.352 150.268ZM580.353 143.56L580.462 143.259C580.364 143.223 580.255 143.238 580.169 143.297C580.084 143.357 580.033 143.455 580.033 143.56H580.353ZM599.406 150.486H599.726C599.726 150.352 599.642 150.231 599.515 150.185L599.406 150.486ZM599.406 153.174L599.297 153.474C599.395 153.51 599.504 153.495 599.59 153.436C599.675 153.376 599.726 153.278 599.726 153.174H599.406ZM580.353 146.247H580.033C580.033 146.381 580.117 146.502 580.244 146.548L580.353 146.247ZM612.136 219.442L611.818 219.479C611.837 219.639 611.972 219.76 612.133 219.762C612.294 219.763 612.431 219.644 612.453 219.485L612.136 219.442ZM609.893 200.562L610.101 200.318C610.001 200.233 609.859 200.217 609.742 200.279C609.626 200.341 609.56 200.468 609.575 200.599L609.893 200.562ZM612.136 202.482L612.136 202.802L612.136 202.802L612.136 202.482ZM614.699 200.562L615.016 200.605C615.033 200.477 614.972 200.351 614.861 200.286C614.75 200.22 614.61 200.228 614.507 200.305L614.699 200.562ZM612.136 77.6814L612.453 77.6383C612.431 77.4787 612.294 77.3601 612.133 77.3614C611.972 77.3628 611.837 77.4837 611.818 77.6437L612.136 77.6814ZM614.699 96.5614L614.507 96.8175C614.61 96.8948 614.75 96.9026 614.861 96.8373C614.972 96.7719 615.033 96.6462 615.016 96.5183L614.699 96.5614ZM609.893 96.5614L609.575 96.5236C609.56 96.6545 609.626 96.7815 609.742 96.8436C609.859 96.9057 610.001 96.8902 610.101 96.8044L609.893 96.5614ZM594.834 219.761H619.825V219.121H594.834V219.761ZM597.242 140.433L599.297 141.179L599.515 140.578L597.461 139.831L597.242 140.433ZM599.086 140.879V151.015H599.726V140.879H599.086ZM599.515 150.715L597.461 149.968L597.242 150.569L599.297 151.316L599.515 150.715ZM597.672 150.268V140.132H597.032V150.268H597.672ZM580.244 143.86L599.297 150.787L599.515 150.185L580.462 143.259L580.244 143.86ZM599.086 150.486V153.174H599.726V150.486H599.086ZM599.515 152.873L580.462 145.946L580.244 146.548L599.297 153.474L599.515 152.873ZM580.673 146.247V143.56H580.033V146.247H580.673ZM612.454 219.404L610.211 200.524L609.575 200.599L611.818 219.479L612.454 219.404ZM609.685 200.805L611.928 202.725L612.344 202.238L610.101 200.318L609.685 200.805ZM612.328 202.738L614.891 200.818L614.507 200.305L611.944 202.225L612.328 202.738ZM614.382 200.518L611.819 219.398L612.453 219.485L615.016 200.605L614.382 200.518ZM610.213 201.201H610.534V200.561H610.213V201.201ZM610.213 201.521H610.854V200.881H610.213V201.521ZM610.213 201.841H611.175V201.201H610.213V201.841ZM610.213 202.161H611.495V201.521H610.213V202.161ZM610.213 202.481H611.815V201.841H610.213V202.481ZM610.213 202.801L612.136 202.802L612.136 202.162L610.213 202.161L610.213 202.801ZM614.378 201.201H614.699V200.561H614.378V201.201ZM614.058 201.521H614.699V200.881H614.058V201.521ZM613.417 201.841H614.699V201.201H613.417V201.841ZM613.097 202.161H614.699V201.521H613.097V202.161ZM612.777 202.481H614.699V201.841H612.777V202.481ZM612.136 202.802L614.699 202.801L614.699 202.161L612.136 202.162L612.136 202.802ZM612.136 217.201H612.777V216.561H612.136V217.201ZM612.136 217.521H612.456V216.881H612.136V217.521ZM612.136 217.841H612.456V217.201H612.136V217.841ZM612.136 218.161H612.456V217.521H612.136V218.161ZM612.136 218.481H612.456V217.841H612.136V218.481ZM612.136 218.801H612.456V218.161H612.136V218.801ZM612.136 219.121H612.456V218.481H612.136V219.121ZM612.136 219.441H612.456V218.801H612.136V219.441ZM611.819 77.7244L614.382 96.6044L615.016 96.5183L612.453 77.6383L611.819 77.7244ZM614.891 96.3053L612.328 94.3852L611.944 94.8975L614.507 96.8175L614.891 96.3053ZM611.928 94.3983L609.685 96.3183L610.101 96.8044L612.344 94.8844L611.928 94.3983ZM610.211 96.5991L612.454 77.7191L611.818 77.6437L609.575 96.5236L610.211 96.5991ZM612.136 78.3215H612.456V77.6815H612.136V78.3215ZM612.136 78.6415H612.456V78.0015H612.136V78.6415ZM612.136 78.9615H612.456V78.3215H612.136V78.9615ZM612.136 79.2815H612.456V78.6415H612.136V79.2815ZM612.136 79.6015H612.456V78.9615H612.136V79.6015ZM612.136 79.9215H612.456V79.2815H612.136V79.9215ZM612.136 80.2415H612.456V79.6015H612.136V80.2415ZM612.136 80.5615H612.777V79.9215H612.136V80.5615ZM612.136 94.9614L614.699 94.9615L614.699 94.3215L612.136 94.3214L612.136 94.9614ZM612.777 95.2815H614.699V94.6415H612.777V95.2815ZM613.097 95.6015H614.699V94.9615H613.097V95.6015ZM613.417 95.9215H614.699V95.2815H613.417V95.9215ZM614.058 96.2415H614.699V95.6015H614.058V96.2415ZM614.378 96.5615H614.699V95.9215H614.378V96.5615ZM610.213 94.9613L612.136 94.9614L612.136 94.3214L610.213 94.3213L610.213 94.9613ZM610.213 95.2813H611.815V94.6413H610.213V95.2813ZM610.213 95.6013H611.495V94.9613H610.213V95.6013ZM610.213 95.9213H611.175V95.2813H610.213V95.9213ZM610.213 96.2413H610.854V95.6013H610.213V96.2413ZM610.213 96.5613H610.534V95.9213H610.213V96.5613ZM612.456 219.442L612.456 77.6814L611.816 77.6814L611.816 219.442L612.456 219.442ZM619.825 77.3614H481.412V78.0014H619.825V77.3614ZM610.213 203.121H614.699V202.481H610.213V203.121ZM610.213 203.441H614.378V202.801H610.213V203.441ZM610.534 203.761H614.378V203.121H610.534V203.761ZM610.534 204.081H614.378V203.441H610.534V204.081ZM610.534 204.401H614.378V203.761H610.534V204.401ZM610.534 204.721H614.378V204.081H610.534V204.721ZM610.534 205.041H614.378V204.401H610.534V205.041ZM610.534 205.361H614.378V204.721H610.534V205.361ZM610.534 205.681H614.058V205.041H610.534V205.681ZM610.534 206.001L614.058 206.001L614.058 205.361L610.534 205.361L610.534 206.001ZM610.854 206.321H614.058V205.681H610.854V206.321ZM610.854 206.641H614.058V206.001H610.854V206.641ZM610.854 206.961H614.058V206.321H610.854V206.961ZM610.854 207.281H614.058V206.641H610.854V207.281ZM610.854 207.601H614.058V206.961H610.854V207.601ZM610.854 207.921L614.058 207.921L614.058 207.281L610.854 207.281L610.854 207.921ZM610.854 208.241H613.738V207.601H610.854V208.241ZM610.854 208.561L613.738 208.561L613.738 207.921L610.854 207.921L610.854 208.561ZM610.854 208.881H613.738V208.241H610.854V208.881ZM611.175 209.201H613.738V208.561H611.175V209.201ZM611.175 209.521H613.738V208.881H611.175V209.521ZM611.175 209.841H613.738V209.201H611.175V209.841ZM611.175 210.161H613.738V209.521H611.175V210.161ZM611.175 210.481H613.417V209.841H611.175V210.481ZM611.175 210.801L613.417 210.801L613.417 210.161L611.175 210.161L611.175 210.801ZM611.175 211.121H613.417V210.481H611.175V211.121ZM611.175 211.441L613.417 211.441L613.417 210.801L611.175 210.801L611.175 211.441ZM611.495 211.761H613.417V211.121H611.495V211.761ZM611.495 212.081L613.417 212.081L613.417 211.441L611.495 211.441L611.495 212.081ZM611.495 212.401H613.417V211.761H611.495V212.401ZM611.495 212.721H613.097V212.081H611.495V212.721ZM611.495 213.041H613.097V212.401H611.495V213.041ZM611.495 213.361H613.097V212.721H611.495V213.361ZM611.495 213.681H613.097V213.041H611.495V213.681ZM611.495 214.001H613.097V213.361H611.495V214.001ZM611.495 214.321L613.097 214.321L613.097 213.681L611.495 213.681L611.495 214.321ZM611.815 214.641H613.097V214.001H611.815V214.641ZM611.815 214.961L613.097 214.961L613.097 214.321L611.815 214.321L611.815 214.961ZM611.815 215.281H612.777V214.641H611.815V215.281ZM611.815 215.601L612.777 215.601L612.777 214.961L611.815 214.961L611.815 215.601ZM611.815 215.921H612.777V215.281H611.815V215.921ZM611.815 216.241H612.777V215.601H611.815V216.241ZM611.815 216.561H612.777V215.921H611.815V216.561ZM611.815 216.881H612.777V216.241H611.815V216.881ZM611.815 80.8813L612.776 80.8815L612.777 80.2415L611.816 80.2413L611.815 80.8813ZM611.815 81.2013L612.776 81.2015L612.777 80.5615L611.816 80.5613L611.815 81.2013ZM611.815 81.5213L612.776 81.5215L612.777 80.8815L611.816 80.8813L611.815 81.5213ZM611.815 81.8413L612.776 81.8415L612.777 81.2015L611.816 81.2013L611.815 81.8413ZM611.815 82.1613L612.776 82.1615L612.777 81.5215L611.816 81.5213L611.815 82.1613ZM611.815 82.4813L612.776 82.4815L612.777 81.8415L611.816 81.8413L611.815 82.4813ZM611.815 82.8013L613.097 82.8015L613.097 82.1615L611.815 82.1613L611.815 82.8013ZM611.815 83.1213L613.097 83.1215L613.097 82.4815L611.815 82.4813L611.815 83.1213ZM611.495 83.4413L613.097 83.4415L613.097 82.8015L611.495 82.8013L611.495 83.4413ZM611.495 83.7613L613.097 83.7615L613.097 83.1215L611.495 83.1213L611.495 83.7613ZM611.495 84.0813L613.097 84.0815L613.097 83.4415L611.495 83.4413L611.495 84.0813ZM611.495 84.4013L613.097 84.4015L613.097 83.7615L611.495 83.7613L611.495 84.4013ZM611.495 84.7213L613.097 84.7215L613.097 84.0815L611.495 84.0813L611.495 84.7213ZM611.495 85.0413L613.097 85.0415L613.097 84.4015L611.495 84.4013L611.495 85.0413ZM611.495 85.3613L613.417 85.3615L613.417 84.7215L611.495 84.7213L611.495 85.3613ZM611.495 85.6813L613.417 85.6815L613.417 85.0415L611.495 85.0413L611.495 85.6813ZM611.495 86.0013L613.417 86.0015L613.417 85.3615L611.495 85.3613L611.495 86.0013ZM611.175 86.3213L613.417 86.3215L613.417 85.6815L611.175 85.6813L611.175 86.3213ZM611.175 86.6413L613.417 86.6415L613.417 86.0015L611.175 86.0013L611.175 86.6413ZM611.175 86.9613L613.417 86.9615L613.417 86.3215L611.175 86.3213L611.175 86.9613ZM611.175 87.2813L613.417 87.2815L613.417 86.6415L611.175 86.6413L611.175 87.2813ZM611.175 87.6013L613.738 87.6015L613.738 86.9615L611.175 86.9613L611.175 87.6013ZM611.175 87.9213L613.738 87.9215L613.738 87.2815L611.175 87.2813L611.175 87.9213ZM611.175 88.2413L613.738 88.2415L613.738 87.6015L611.175 87.6013L611.175 88.2413ZM611.175 88.5613L613.738 88.5615L613.738 87.9215L611.175 87.9213L611.175 88.5613ZM610.854 88.8813L613.738 88.8815L613.738 88.2415L610.854 88.2413L610.854 88.8813ZM610.854 89.2013L613.738 89.2015L613.738 88.5615L610.854 88.5613L610.854 89.2013ZM610.854 89.5213L613.738 89.5215L613.738 88.8815L610.854 88.8813L610.854 89.5213ZM610.854 89.8413L614.058 89.8415L614.058 89.2015L610.854 89.2013L610.854 89.8413ZM610.854 90.1613L614.058 90.1615L614.058 89.5215L610.854 89.5213L610.854 90.1613ZM610.854 90.4813L614.058 90.4815L614.058 89.8415L610.854 89.8413L610.854 90.4813ZM610.854 90.8013L614.058 90.8015L614.058 90.1615L610.854 90.1613L610.854 90.8013ZM610.854 91.1213L614.058 91.1215L614.058 90.4815L610.854 90.4813L610.854 91.1213ZM610.854 91.4413L614.058 91.4415L614.058 90.8015L610.854 90.8013L610.854 91.4413ZM610.534 91.7613L614.058 91.7615L614.058 91.1215L610.534 91.1213L610.534 91.7613ZM610.534 92.0813L614.058 92.0815L614.058 91.4415L610.534 91.4413L610.534 92.0813ZM610.534 92.4013L614.378 92.4015L614.378 91.7615L610.534 91.7613L610.534 92.4013ZM610.534 92.7213L614.378 92.7215L614.378 92.0815L610.534 92.0813L610.534 92.7213ZM610.534 93.0413L614.378 93.0415L614.378 92.4015L610.534 92.4013L610.534 93.0413ZM610.534 93.3613L614.378 93.3615L614.378 92.7215L610.534 92.7213L610.534 93.3613ZM610.534 93.6813L614.378 93.6815L614.378 93.0415L610.534 93.0413L610.534 93.6813ZM610.534 94.0013L614.378 94.0015L614.378 93.3615L610.534 93.3613L610.534 94.0013ZM610.213 94.3213L614.378 94.3215L614.378 93.6815L610.213 93.6813L610.213 94.3213ZM610.213 94.6413L614.699 94.6415L614.699 94.0015L610.213 94.0013L610.213 94.6413Z" fill="white"/>
    </g>
    <!--    11 L1-->
    <g class="group">
    </g>
    <!--    12 L2-->
    <g class="group">
    </g>
    <!--    13 S-->
    <g class="group">
    </g>
    <!--    14 S1-->
    <g class="group">
    </g>
    <!--    15 S2-->
    <g class="group">
    </g>
    <!--    16 S3-->
    <g class="group">
    </g>
    <!--    17 S4-->
    <g class="group">
    </g>
    <!--    19 I-->
    <g class="group">
    </g>
    <!--    18 I1-->
    <g class="group">
        <path d="M331.591 31.9507L326.977 44.6107H325.275L329.161 33.9483L325.299 35.1243L325.825 33.6802L331.324 31.9507H331.591Z" fill="white"/>
        <path d="M437.197 70.0014C437.197 70.1781 437.34 70.3214 437.517 70.3214C437.694 70.3214 437.837 70.1781 437.837 70.0014H437.197ZM437.837 46.9614C437.837 46.7847 437.694 46.6414 437.517 46.6414C437.34 46.6414 437.197 46.7847 437.197 46.9614H437.837ZM327.305 17.0476L327.606 17.1572C327.642 17.0591 327.628 16.9497 327.568 16.8641C327.508 16.7786 327.41 16.7276 327.305 16.7276V17.0476ZM319.982 37.1418V37.4618C320.116 37.4618 320.237 37.3777 320.283 37.2513L319.982 37.1418ZM317.392 37.1418L317.092 37.0322C317.056 37.1303 317.07 37.2397 317.13 37.3253C317.19 37.4108 317.288 37.4618 317.392 37.4618V37.1418ZM324.716 17.0476V16.7276C324.581 16.7276 324.461 16.8117 324.415 16.938L324.716 17.0476ZM331.591 31.9507L331.892 32.0603C331.928 31.9622 331.913 31.8528 331.854 31.7672C331.794 31.6817 331.696 31.6307 331.591 31.6307V31.9507ZM326.977 44.6107V44.9307C327.112 44.9307 327.232 44.8466 327.278 44.7202L326.977 44.6107ZM325.275 44.6107L324.974 44.5011C324.938 44.5992 324.953 44.7086 325.012 44.7942C325.072 44.8797 325.17 44.9307 325.275 44.9307V44.6107ZM329.161 33.9483L329.461 34.0579C329.503 33.9439 329.476 33.8162 329.393 33.7282C329.309 33.6401 329.183 33.6068 329.067 33.6422L329.161 33.9483ZM325.299 35.1243L324.998 35.0148C324.957 35.1287 324.983 35.2564 325.067 35.3444C325.15 35.4325 325.276 35.4658 325.392 35.4305L325.299 35.1243ZM325.825 33.6802L325.729 33.3749C325.634 33.4048 325.559 33.4771 325.525 33.5706L325.825 33.6802ZM331.324 31.9507V31.6307C331.292 31.6307 331.259 31.6357 331.228 31.6454L331.324 31.9507ZM437.517 54.6413L437.56 54.9584C437.719 54.9369 437.837 54.8015 437.837 54.6413C437.837 54.4812 437.719 54.3457 437.56 54.3242L437.517 54.6413ZM418.613 57.2013L418.357 57.0092C418.28 57.1123 418.272 57.252 418.337 57.3633C418.403 57.4746 418.528 57.5357 418.656 57.5184L418.613 57.2013ZM418.613 52.0813L418.656 51.7642C418.528 51.7468 418.403 51.808 418.337 51.9193C418.272 52.0306 418.28 52.1702 418.357 52.2734L418.613 52.0813ZM209.712 54.6413L209.669 54.3241C209.51 54.3456 209.392 54.4811 209.392 54.6413C209.392 54.8014 209.51 54.9369 209.669 54.9584L209.712 54.6413ZM228.616 52.0813L228.871 52.2734C228.949 52.1702 228.957 52.0306 228.892 51.9193C228.826 51.808 228.7 51.7468 228.573 51.7642L228.616 52.0813ZM228.616 57.2013L228.573 57.5184C228.701 57.5357 228.826 57.4746 228.892 57.3633C228.957 57.252 228.949 57.1123 228.872 57.0092L228.616 57.2013ZM437.837 70.0014V46.9614H437.197V70.0014H437.837ZM327.005 16.938L319.681 37.0322L320.283 37.2513L327.606 17.1572L327.005 16.938ZM319.982 36.8218H317.392V37.4618H319.982V36.8218ZM317.693 37.2513L325.016 17.1572L324.415 16.938L317.092 37.0322L317.693 37.2513ZM324.716 17.3676H327.305V16.7276H324.716V17.3676ZM331.291 31.8411L326.677 44.5011L327.278 44.7202L331.892 32.0603L331.291 31.8411ZM326.977 44.2907H325.275V44.9307H326.977V44.2907ZM325.575 44.7202L329.461 34.0579L328.86 33.8387L324.974 44.5011L325.575 44.7202ZM329.067 33.6422L325.206 34.8182L325.392 35.4305L329.254 34.2544L329.067 33.6422ZM325.6 35.2339L326.126 33.7898L325.525 33.5706L324.998 35.0148L325.6 35.2339ZM325.921 33.9855L331.42 32.256L331.228 31.6454L325.729 33.3749L325.921 33.9855ZM331.324 32.2707H331.591V31.6307H331.324V32.2707ZM437.474 54.3242L418.57 56.8842L418.656 57.5184L437.56 54.9584L437.474 54.3242ZM418.869 57.3935L420.792 54.8335L420.28 54.4492L418.357 57.0092L418.869 57.3935ZM420.792 54.4492L418.869 51.8891L418.357 52.2734L420.28 54.8335L420.792 54.4492ZM418.57 52.3984L437.474 54.9584L437.56 54.3242L418.656 51.7642L418.57 52.3984ZM420.536 54.9613H437.517V54.3213H420.536V54.9613ZM420.536 55.2813H435.275V54.6413H420.536V55.2813ZM420.216 55.6013H433.032V54.9613H420.216V55.6013ZM419.895 55.9213H430.469V55.2813H419.895V55.9213ZM419.575 56.2413H428.226V55.6013H419.575V56.2413ZM419.575 56.5613H425.983V55.9213H419.575V56.5613ZM419.254 56.8813H423.42V56.2413H419.254V56.8813ZM418.934 57.2013H421.177V56.5613H418.934V57.2013ZM418.934 52.7213H421.177V52.0813H418.934V52.7213ZM419.254 53.0413H423.42V52.4013H419.254V53.0413ZM419.575 53.3613H425.983V52.7213H419.575V53.3613ZM419.575 53.6813H428.226V53.0413H419.575V53.6813ZM419.895 54.0013H430.469V53.3613H419.895V54.0013ZM420.216 54.3213H433.032V53.6813H420.216V54.3213ZM420.536 54.6413H435.275V54.0013H420.536V54.6413ZM209.755 54.9584L228.658 52.3984L228.573 51.7642L209.669 54.3241L209.755 54.9584ZM228.36 51.8891L226.437 54.4491L226.949 54.8334L228.871 52.2734L228.36 51.8891ZM226.437 54.8334L228.36 57.3935L228.872 57.0092L226.949 54.4491L226.437 54.8334ZM228.659 56.8842L209.755 54.3241L209.669 54.9584L228.573 57.5184L228.659 56.8842ZM226.373 52.7213H228.616V52.0813H226.373V52.7213ZM224.13 53.0413H228.295V52.4013H224.13V53.0413ZM221.567 53.3613H227.975V52.7213H221.567V53.3613ZM219.324 53.6813H227.655V53.0413H219.324V53.6813ZM217.081 54.0013H227.655V53.3613H217.081V54.0013ZM214.518 54.3213H227.334V53.6813H214.518V54.3213ZM212.275 54.6413H227.014V54.0013H212.275V54.6413ZM209.712 54.9613H226.693V54.3213H209.712V54.9613ZM212.275 55.2813H227.014V54.6413H212.275V55.2813ZM214.518 55.6013H227.334V54.9613H214.518V55.6013ZM217.081 55.9213H227.654V55.2813H217.081V55.9213ZM219.324 56.2413H227.654V55.6013H219.324V56.2413ZM221.567 56.5613H227.975V55.9213H221.567V56.5613ZM224.13 56.8813H228.295V56.2413H224.13V56.8813ZM226.373 57.2013H228.616V56.5613H226.373V57.2013ZM437.517 54.3213L209.712 54.3213L209.712 54.9613L437.517 54.9613L437.517 54.3213Z" fill="white"/>
        <path d="M327.305 17.0476L319.982 37.1418H317.392L324.716 17.0476H327.305Z" fill="white"/>
        <path d="M209.712 70.0014V46.9614V70.0014Z" stroke="white" stroke-width="0.64" stroke-miterlimit="10" stroke-linecap="round" stroke-linejoin="round"/>
    </g>
    <!--    19 I2-->
    <g class="group">
    </g>
    <!--    20 H-->
    <g class="group">
    </g>
    <!--    21 H1-->
    <g class="group">
    </g>
    <!--    22 H2-->
    <g class="group">
    </g>
    <!--    25 h-->
    <g class="group">
    </g>
    <!--    23 h1-->
    <g class="group">
    </g>
    <!--    24 h2-->
    <g class="group">
    </g>
    <!--    25 R-->
    <g class="group">
    </g>
    <!--    26 Deg-->
    <g class="group">
    </g>
    <!--    29 DN-->
    <g class="group">
    </g>

</svg>
