<svg width="396" height="259" viewBox="0 0 396 259" fill="none" xmlns="http://www.w3.org/2000/svg">
<path d="M74.4399 76.5601V218.32V76.5601Z" stroke="white" stroke-width="2.24" stroke-miterlimit="10" stroke-linecap="round" stroke-linejoin="round"/>
<path d="M85.96 76.5601V218.32V76.5601Z" stroke="white" stroke-width="2.24" stroke-miterlimit="10" stroke-linecap="round" stroke-linejoin="round"/>
<path d="M75.3999 75.92H84.9999H75.3999Z" stroke="white" stroke-width="2.24" stroke-miterlimit="10" stroke-linecap="round" stroke-linejoin="round"/>
<path d="M75.3999 75.92L74.4399 76.56L75.3999 75.92Z" stroke="white" stroke-width="2.24" stroke-miterlimit="10" stroke-linecap="round" stroke-linejoin="round"/>
<path d="M85 75.92L85.96 76.56L85 75.92Z" stroke="white" stroke-width="2.24" stroke-miterlimit="10" stroke-linecap="round" stroke-linejoin="round"/>
<path d="M74.4399 76.5601H85.9599H74.4399Z" stroke="white" stroke-width="2.24" stroke-miterlimit="10" stroke-linecap="round" stroke-linejoin="round"/>
<path d="M74.4399 94.8H85.9599H74.4399Z" stroke="white" stroke-width="0.64" stroke-miterlimit="10" stroke-linecap="round" stroke-linejoin="round"/>
<path d="M75.3999 75.92V94.8V75.92Z" stroke="white" stroke-width="0.96" stroke-miterlimit="10" stroke-linecap="round" stroke-linejoin="round"/>
<path d="M74.4399 76.5601L75.3999 77.8401L74.4399 76.5601Z" stroke="white" stroke-width="1.28" stroke-miterlimit="10" stroke-linecap="round" stroke-linejoin="round"/>
<path d="M75.3999 77.8401L74.4399 79.1201L75.3999 77.8401Z" stroke="white" stroke-width="1.28" stroke-miterlimit="10" stroke-linecap="round" stroke-linejoin="round"/>
<path d="M74.4399 79.12L75.3999 80.72L74.4399 79.12Z" stroke="white" stroke-width="1.28" stroke-miterlimit="10" stroke-linecap="round" stroke-linejoin="round"/>
<path d="M75.3999 80.72L74.4399 82L75.3999 80.72Z" stroke="white" stroke-width="1.28" stroke-miterlimit="10" stroke-linecap="round" stroke-linejoin="round"/>
<path d="M74.4399 82L75.3999 83.28L74.4399 82Z" stroke="white" stroke-width="1.28" stroke-miterlimit="10" stroke-linecap="round" stroke-linejoin="round"/>
<path d="M75.3999 83.28L74.4399 84.56L75.3999 83.28Z" stroke="white" stroke-width="1.28" stroke-miterlimit="10" stroke-linecap="round" stroke-linejoin="round"/>
<path d="M74.4399 84.5601L75.3999 85.8401L74.4399 84.5601Z" stroke="white" stroke-width="1.28" stroke-miterlimit="10" stroke-linecap="round" stroke-linejoin="round"/>
<path d="M75.3999 85.8401L74.4399 87.1201L75.3999 85.8401Z" stroke="white" stroke-width="1.28" stroke-miterlimit="10" stroke-linecap="round" stroke-linejoin="round"/>
<path d="M74.4399 87.12L75.3999 88.4L74.4399 87.12Z" stroke="white" stroke-width="1.28" stroke-miterlimit="10" stroke-linecap="round" stroke-linejoin="round"/>
<path d="M75.3999 88.4L74.4399 89.68L75.3999 88.4Z" stroke="white" stroke-width="1.28" stroke-miterlimit="10" stroke-linecap="round" stroke-linejoin="round"/>
<path d="M74.4399 89.6801L75.3999 90.9601L74.4399 89.6801Z" stroke="white" stroke-width="1.28" stroke-miterlimit="10" stroke-linecap="round" stroke-linejoin="round"/>
<path d="M75.3999 90.9601L74.4399 92.2401L75.3999 90.9601Z" stroke="white" stroke-width="1.28" stroke-miterlimit="10" stroke-linecap="round" stroke-linejoin="round"/>
<path d="M74.4399 92.24L75.3999 93.52L74.4399 92.24Z" stroke="white" stroke-width="1.28" stroke-miterlimit="10" stroke-linecap="round" stroke-linejoin="round"/>
<path d="M75.3999 93.52L74.4399 94.8L75.3999 93.52Z" stroke="white" stroke-width="1.28" stroke-miterlimit="10" stroke-linecap="round" stroke-linejoin="round"/>
<path d="M85 75.92V94.8V75.92Z" stroke="white" stroke-width="0.96" stroke-miterlimit="10" stroke-linecap="round" stroke-linejoin="round"/>
<path d="M85.96 76.5601L85 77.8401L85.96 76.5601Z" stroke="white" stroke-width="1.28" stroke-miterlimit="10" stroke-linecap="round" stroke-linejoin="round"/>
<path d="M85 77.8401L85.96 79.1201L85 77.8401Z" stroke="white" stroke-width="1.28" stroke-miterlimit="10" stroke-linecap="round" stroke-linejoin="round"/>
<path d="M85.96 79.12L85 80.72L85.96 79.12Z" stroke="white" stroke-width="1.28" stroke-miterlimit="10" stroke-linecap="round" stroke-linejoin="round"/>
<path d="M85 80.72L85.96 82L85 80.72Z" stroke="white" stroke-width="1.28" stroke-miterlimit="10" stroke-linecap="round" stroke-linejoin="round"/>
<path d="M85.96 82L85 83.28L85.96 82Z" stroke="white" stroke-width="1.28" stroke-miterlimit="10" stroke-linecap="round" stroke-linejoin="round"/>
<path d="M85 83.28L85.96 84.56L85 83.28Z" stroke="white" stroke-width="1.28" stroke-miterlimit="10" stroke-linecap="round" stroke-linejoin="round"/>
<path d="M85.96 84.5601L85 85.8401L85.96 84.5601Z" stroke="white" stroke-width="1.28" stroke-miterlimit="10" stroke-linecap="round" stroke-linejoin="round"/>
<path d="M85 85.8401L85.96 87.1201L85 85.8401Z" stroke="white" stroke-width="1.28" stroke-miterlimit="10" stroke-linecap="round" stroke-linejoin="round"/>
<path d="M85.96 87.12L85 88.4L85.96 87.12Z" stroke="white" stroke-width="1.28" stroke-miterlimit="10" stroke-linecap="round" stroke-linejoin="round"/>
<path d="M85 88.4L85.96 89.68L85 88.4Z" stroke="white" stroke-width="1.28" stroke-miterlimit="10" stroke-linecap="round" stroke-linejoin="round"/>
<path d="M85.96 89.6801L85 90.9601L85.96 89.6801Z" stroke="white" stroke-width="1.28" stroke-miterlimit="10" stroke-linecap="round" stroke-linejoin="round"/>
<path d="M85 90.9601L85.96 92.2401L85 90.9601Z" stroke="white" stroke-width="1.28" stroke-miterlimit="10" stroke-linecap="round" stroke-linejoin="round"/>
<path d="M85.96 92.24L85 93.52L85.96 92.24Z" stroke="white" stroke-width="1.28" stroke-miterlimit="10" stroke-linecap="round" stroke-linejoin="round"/>
<path d="M85 93.52L85.96 94.8L85 93.52Z" stroke="white" stroke-width="1.28" stroke-miterlimit="10" stroke-linecap="round" stroke-linejoin="round"/>
<path d="M316.04 76.5601V218.32V76.5601Z" stroke="white" stroke-width="2.24" stroke-miterlimit="10" stroke-linecap="round" stroke-linejoin="round"/>
<path d="M327.24 76.5601V218.32V76.5601Z" stroke="white" stroke-width="2.24" stroke-miterlimit="10" stroke-linecap="round" stroke-linejoin="round"/>
<path d="M326.6 75.92H316.68H326.6Z" stroke="white" stroke-width="2.24" stroke-miterlimit="10" stroke-linecap="round" stroke-linejoin="round"/>
<path d="M326.6 75.92L327.24 76.56L326.6 75.92Z" stroke="white" stroke-width="2.24" stroke-miterlimit="10" stroke-linecap="round" stroke-linejoin="round"/>
<path d="M316.68 75.92L316.04 76.56L316.68 75.92Z" stroke="white" stroke-width="2.24" stroke-miterlimit="10" stroke-linecap="round" stroke-linejoin="round"/>
<path d="M316.04 94.8H327.24H316.04Z" stroke="white" stroke-width="0.64" stroke-miterlimit="10" stroke-linecap="round" stroke-linejoin="round"/>
<path d="M316.68 75.92V94.8V75.92Z" stroke="white" stroke-width="0.96" stroke-miterlimit="10" stroke-linecap="round" stroke-linejoin="round"/>
<path d="M316.04 76.5601L316.68 77.8401L316.04 76.5601Z" stroke="white" stroke-width="1.28" stroke-miterlimit="10" stroke-linecap="round" stroke-linejoin="round"/>
<path d="M316.68 77.8401L316.04 79.1201L316.68 77.8401Z" stroke="white" stroke-width="1.28" stroke-miterlimit="10" stroke-linecap="round" stroke-linejoin="round"/>
<path d="M316.04 79.12L316.68 80.72L316.04 79.12Z" stroke="white" stroke-width="1.28" stroke-miterlimit="10" stroke-linecap="round" stroke-linejoin="round"/>
<path d="M316.68 80.72L316.04 82L316.68 80.72Z" stroke="white" stroke-width="1.28" stroke-miterlimit="10" stroke-linecap="round" stroke-linejoin="round"/>
<path d="M316.04 82L316.68 83.28L316.04 82Z" stroke="white" stroke-width="1.28" stroke-miterlimit="10" stroke-linecap="round" stroke-linejoin="round"/>
<path d="M316.68 83.28L316.04 84.56L316.68 83.28Z" stroke="white" stroke-width="1.28" stroke-miterlimit="10" stroke-linecap="round" stroke-linejoin="round"/>
<path d="M316.04 84.5601L316.68 85.8401L316.04 84.5601Z" stroke="white" stroke-width="1.28" stroke-miterlimit="10" stroke-linecap="round" stroke-linejoin="round"/>
<path d="M316.68 85.8401L316.04 87.1201L316.68 85.8401Z" stroke="white" stroke-width="1.28" stroke-miterlimit="10" stroke-linecap="round" stroke-linejoin="round"/>
<path d="M316.04 87.12L316.68 88.4L316.04 87.12Z" stroke="white" stroke-width="1.28" stroke-miterlimit="10" stroke-linecap="round" stroke-linejoin="round"/>
<path d="M316.68 88.4L316.04 89.68L316.68 88.4Z" stroke="white" stroke-width="1.28" stroke-miterlimit="10" stroke-linecap="round" stroke-linejoin="round"/>
<path d="M316.04 89.6801L316.68 90.9601L316.04 89.6801Z" stroke="white" stroke-width="1.28" stroke-miterlimit="10" stroke-linecap="round" stroke-linejoin="round"/>
<path d="M316.68 90.9601L316.04 92.2401L316.68 90.9601Z" stroke="white" stroke-width="1.28" stroke-miterlimit="10" stroke-linecap="round" stroke-linejoin="round"/>
<path d="M316.04 92.24L316.68 93.52L316.04 92.24Z" stroke="white" stroke-width="1.28" stroke-miterlimit="10" stroke-linecap="round" stroke-linejoin="round"/>
<path d="M316.68 93.52L316.04 94.8L316.68 93.52Z" stroke="white" stroke-width="1.28" stroke-miterlimit="10" stroke-linecap="round" stroke-linejoin="round"/>
<path d="M326.6 75.92V94.8V75.92Z" stroke="white" stroke-width="0.96" stroke-miterlimit="10" stroke-linecap="round" stroke-linejoin="round"/>
<path d="M327.24 76.5601L326.6 77.8401L327.24 76.5601Z" stroke="white" stroke-width="1.28" stroke-miterlimit="10" stroke-linecap="round" stroke-linejoin="round"/>
<path d="M326.6 77.8401L327.24 79.1201L326.6 77.8401Z" stroke="white" stroke-width="1.28" stroke-miterlimit="10" stroke-linecap="round" stroke-linejoin="round"/>
<path d="M327.24 79.12L326.6 80.72L327.24 79.12Z" stroke="white" stroke-width="1.28" stroke-miterlimit="10" stroke-linecap="round" stroke-linejoin="round"/>
<path d="M326.6 80.72L327.24 82L326.6 80.72Z" stroke="white" stroke-width="1.28" stroke-miterlimit="10" stroke-linecap="round" stroke-linejoin="round"/>
<path d="M327.24 82L326.6 83.28L327.24 82Z" stroke="white" stroke-width="1.28" stroke-miterlimit="10" stroke-linecap="round" stroke-linejoin="round"/>
<path d="M326.6 83.28L327.24 84.56L326.6 83.28Z" stroke="white" stroke-width="1.28" stroke-miterlimit="10" stroke-linecap="round" stroke-linejoin="round"/>
<path d="M327.24 84.5601L326.6 85.8401L327.24 84.5601Z" stroke="white" stroke-width="1.28" stroke-miterlimit="10" stroke-linecap="round" stroke-linejoin="round"/>
<path d="M326.6 85.8401L327.24 87.1201L326.6 85.8401Z" stroke="white" stroke-width="1.28" stroke-miterlimit="10" stroke-linecap="round" stroke-linejoin="round"/>
<path d="M327.24 87.12L326.6 88.4L327.24 87.12Z" stroke="white" stroke-width="1.28" stroke-miterlimit="10" stroke-linecap="round" stroke-linejoin="round"/>
<path d="M326.6 88.4L327.24 89.68L326.6 88.4Z" stroke="white" stroke-width="1.28" stroke-miterlimit="10" stroke-linecap="round" stroke-linejoin="round"/>
<path d="M327.24 89.6801L326.6 90.9601L327.24 89.6801Z" stroke="white" stroke-width="1.28" stroke-miterlimit="10" stroke-linecap="round" stroke-linejoin="round"/>
<path d="M326.6 90.9601L327.24 92.2401L326.6 90.9601Z" stroke="white" stroke-width="1.28" stroke-miterlimit="10" stroke-linecap="round" stroke-linejoin="round"/>
<path d="M327.24 92.24L326.6 93.52L327.24 92.24Z" stroke="white" stroke-width="1.28" stroke-miterlimit="10" stroke-linecap="round" stroke-linejoin="round"/>
<path d="M326.6 93.52L327.24 94.8L326.6 93.52Z" stroke="white" stroke-width="1.28" stroke-miterlimit="10" stroke-linecap="round" stroke-linejoin="round"/>
<path d="M327.24 76.5601H316.04H327.24Z" stroke="white" stroke-width="2.24" stroke-miterlimit="10" stroke-linecap="round" stroke-linejoin="round"/>
<path d="M74.4399 218.32H85.9599H74.4399Z" stroke="white" stroke-width="2.24" stroke-miterlimit="10" stroke-linecap="round" stroke-linejoin="round"/>
<path d="M316.04 218.32H327.24H316.04Z" stroke="white" stroke-width="2.24" stroke-miterlimit="10" stroke-linecap="round" stroke-linejoin="round"/>
<path d="M85.96 144.08H162.44H85.96Z" stroke="white" stroke-width="2.24" stroke-miterlimit="10" stroke-linecap="round" stroke-linejoin="round"/>
<path d="M85.96 149.84H162.12H85.96Z" stroke="white" stroke-width="2.24" stroke-miterlimit="10" stroke-linecap="round" stroke-linejoin="round"/>
<path d="M316.04 149.84H168.2H316.04Z" stroke="white" stroke-width="2.24" stroke-miterlimit="10" stroke-linecap="round" stroke-linejoin="round"/>
<path d="M168.2 144.08H316.04H168.2Z" stroke="white" stroke-width="2.24" stroke-miterlimit="10" stroke-linecap="round" stroke-linejoin="round"/>

    <!--    1 A-->
    <g class="group">
    </g>
    <!--    2 D-->
    <g class="group">
    </g>
    <!--    3 Dy-->
    <g class="group">
    </g>
    <!--    4 Dh-->
    <g class="group">
    </g>
    <!--    5 D1-->
    <g class="group">
        <path d="M32.9375 236.099H26.3123L33.6557 215.925H40.5745C42.6571 215.925 44.2922 216.329 45.4797 217.136C46.6697 217.938 47.3858 219.09 47.6281 220.594C47.8728 222.091 47.6151 223.884 46.8549 225.972C46.09 228.074 45.0331 229.883 43.6842 231.4C42.3377 232.911 40.7545 234.073 38.9345 234.887C37.117 235.695 35.118 236.099 32.9375 236.099ZM29.7009 233.932H33.5586C35.3338 233.932 36.922 233.61 38.3234 232.966C39.7247 232.323 40.9283 231.407 41.934 230.218C42.9398 229.029 43.7414 227.614 44.339 225.972C44.9319 224.344 45.1592 222.942 45.021 221.766C44.8852 220.584 44.3694 219.678 43.4737 219.047C42.5804 218.41 41.2952 218.092 39.6179 218.092H35.4666L29.7009 233.932Z" fill="white"/>
        <path d="M53.2177 229.061L48.2798 242.627H46.5317L50.8427 230.783H50.7581L46.4331 232.982L47.0407 231.313L51.4695 229.061H53.2177Z" fill="white"/>
        <path d="M86.28 226.96C86.28 226.783 86.1367 226.64 85.96 226.64C85.7832 226.64 85.64 226.783 85.64 226.96H86.28ZM85.64 258.32C85.64 258.497 85.7832 258.64 85.96 258.64C86.1367 258.64 86.28 258.497 86.28 258.32H85.64ZM74.7599 226.96C74.7599 226.783 74.6167 226.64 74.4399 226.64C74.2632 226.64 74.1199 226.783 74.1199 226.96H74.7599ZM74.1199 258.32C74.1199 258.497 74.2632 258.64 74.4399 258.64C74.6167 258.64 74.7599 258.497 74.7599 258.32H74.1199ZM15.8799 250.32C15.7032 250.32 15.5599 250.463 15.5599 250.64C15.5599 250.817 15.7032 250.96 15.8799 250.96V250.32ZM26.3123 236.099L26.0116 235.989C25.9759 236.087 25.9903 236.197 26.0502 236.282C26.1101 236.368 26.2079 236.419 26.3123 236.419V236.099ZM33.6557 215.925V215.605C33.5212 215.605 33.401 215.689 33.355 215.815L33.6557 215.925ZM45.4797 217.136L45.2997 217.401L45.301 217.402L45.4797 217.136ZM47.6281 220.594L47.3122 220.645L47.3123 220.646L47.6281 220.594ZM46.8549 225.972L46.5542 225.863L46.8549 225.972ZM43.6842 231.4L43.9231 231.613L43.9233 231.613L43.6842 231.4ZM38.9345 234.887L39.0645 235.18L39.0652 235.179L38.9345 234.887ZM29.7009 233.932L29.4002 233.822C29.3645 233.92 29.3789 234.03 29.4388 234.115C29.4987 234.201 29.5965 234.252 29.7009 234.252V233.932ZM44.339 225.972L44.0383 225.863L44.339 225.972ZM45.021 221.766L44.7031 221.803L44.7032 221.803L45.021 221.766ZM43.4737 219.047L43.2879 219.308L43.2896 219.309L43.4737 219.047ZM35.4666 218.092V217.772C35.3321 217.772 35.2119 217.856 35.1659 217.982L35.4666 218.092ZM53.2177 229.061L53.5184 229.171C53.5541 229.072 53.5397 228.963 53.4798 228.878C53.4199 228.792 53.3221 228.741 53.2177 228.741V229.061ZM48.2798 242.627V242.947C48.4143 242.947 48.5345 242.863 48.5805 242.736L48.2798 242.627ZM46.5317 242.627L46.231 242.517C46.1952 242.615 46.2096 242.725 46.2695 242.81C46.3294 242.896 46.4272 242.947 46.5317 242.947V242.627ZM50.8427 230.783L51.1434 230.893C51.1791 230.795 51.1647 230.685 51.1048 230.6C51.0449 230.514 50.9471 230.463 50.8427 230.463V230.783ZM50.7581 230.783V230.463C50.7077 230.463 50.658 230.475 50.613 230.498L50.7581 230.783ZM46.4331 232.982L46.1324 232.873C46.0874 232.996 46.1226 233.135 46.2209 233.222C46.3193 233.309 46.461 233.327 46.5781 233.268L46.4331 232.982ZM47.0407 231.313L46.8956 231.028C46.8234 231.065 46.7677 231.128 46.74 231.204L47.0407 231.313ZM51.4695 229.061V228.741C51.4191 228.741 51.3694 228.753 51.3245 228.776L51.4695 229.061ZM104.84 253.2L104.797 253.517C104.925 253.534 105.051 253.473 105.116 253.362C105.181 253.251 105.173 253.111 105.096 253.008L104.84 253.2ZM104.84 248.08L105.096 248.272C105.173 248.169 105.181 248.029 105.116 247.918C105.051 247.807 104.925 247.746 104.797 247.763L104.84 248.08ZM112.2 250.96C112.377 250.96 112.52 250.817 112.52 250.64C112.52 250.463 112.377 250.32 112.2 250.32V250.96ZM55.5601 248.08L55.6031 247.763C55.4752 247.746 55.3495 247.807 55.2841 247.918C55.2188 248.029 55.2267 248.169 55.3041 248.272L55.5601 248.08ZM55.5601 253.2L55.3041 253.008C55.2267 253.111 55.2188 253.251 55.2841 253.362C55.3495 253.473 55.4752 253.534 55.6031 253.517L55.5601 253.2ZM48.1997 250.32C48.023 250.32 47.8797 250.463 47.8797 250.64C47.8797 250.817 48.023 250.96 48.1997 250.96V250.32ZM85.64 226.96V258.32H86.28V226.96H85.64ZM74.1199 226.96V258.32H74.7599V226.96H74.1199ZM32.9375 235.779H26.3123V236.419H32.9375V235.779ZM26.613 236.208L33.9564 216.034L33.355 215.815L26.0116 235.989L26.613 236.208ZM33.6557 216.245H40.5745V215.605H33.6557V216.245ZM40.5745 216.245C42.6204 216.245 44.1842 216.642 45.2998 217.401L45.6597 216.872C44.4001 216.015 42.6937 215.605 40.5745 215.605V216.245ZM45.301 217.402C46.4126 218.15 47.083 219.222 47.3122 220.645L47.944 220.543C47.6886 218.958 46.9268 217.725 45.6584 216.871L45.301 217.402ZM47.3123 220.646C47.545 222.069 47.3038 223.804 46.5542 225.863L47.1556 226.082C47.9264 223.964 48.2006 222.113 47.9439 220.542L47.3123 220.646ZM46.5542 225.863C45.8017 227.93 44.7645 229.704 43.4451 231.187L43.9233 231.613C45.3017 230.063 46.3783 228.217 47.1556 226.082L46.5542 225.863ZM43.4453 231.187C42.1284 232.664 40.5819 233.8 38.8038 234.595L39.0652 235.179C40.927 234.346 42.547 233.157 43.9231 231.613L43.4453 231.187ZM38.8046 234.595C37.0317 235.383 35.0776 235.779 32.9375 235.779V236.419C35.1584 236.419 37.2022 236.007 39.0645 235.18L38.8046 234.595ZM29.7009 234.252H33.5586V233.612H29.7009V234.252ZM33.5586 234.252C35.3729 234.252 37.0078 233.923 38.4569 233.257L38.1898 232.676C36.8362 233.297 35.2946 233.612 33.5586 233.612V234.252ZM38.4569 233.257C39.9013 232.594 41.1426 231.649 42.1783 230.425L41.6897 230.011C40.714 231.164 39.5481 232.052 38.1898 232.676L38.4569 233.257ZM42.1783 230.425C43.2112 229.204 44.0308 227.755 44.6397 226.082L44.0383 225.863C43.4521 227.473 42.6683 228.855 41.6897 230.011L42.1783 230.425ZM44.6397 226.082C45.2423 224.426 45.4849 222.972 45.3388 221.729L44.7032 221.803C44.8335 222.912 44.6214 224.261 44.0383 225.863L44.6397 226.082ZM45.3389 221.73C45.1937 220.466 44.6352 219.474 43.6579 218.786L43.2896 219.309C44.1036 219.882 44.5767 220.702 44.7031 221.803L45.3389 221.73ZM43.6595 218.787C42.6902 218.096 41.3287 217.772 39.6179 217.772V218.412C41.2616 218.412 42.4707 218.725 43.2879 219.308L43.6595 218.787ZM39.6179 217.772H35.4666V218.412H39.6179V217.772ZM35.1659 217.982L29.4002 233.822L30.0016 234.041L35.7673 218.201L35.1659 217.982ZM52.917 228.952L47.9791 242.517L48.5805 242.736L53.5184 229.171L52.917 228.952ZM48.2798 242.307H46.5317V242.947H48.2798V242.307ZM46.8324 242.736L51.1434 230.893L50.542 230.674L46.231 242.517L46.8324 242.736ZM50.8427 230.463H50.7581V231.103H50.8427V230.463ZM50.613 230.498L46.2881 232.697L46.5781 233.268L50.9031 231.069L50.613 230.498ZM46.7338 233.092L47.3414 231.423L46.74 231.204L46.1324 232.873L46.7338 233.092ZM47.1857 231.598L51.6146 229.346L51.3245 228.776L46.8956 231.028L47.1857 231.598ZM51.4695 229.381H53.2177V228.741H51.4695V229.381ZM85.917 250.957L104.797 253.517L104.883 252.883L86.003 250.323L85.917 250.957ZM105.096 253.008L103.176 250.448L102.664 250.832L104.584 253.392L105.096 253.008ZM103.176 250.832L105.096 248.272L104.584 247.888L102.664 250.448L103.176 250.832ZM104.797 247.763L85.917 250.323L86.003 250.957L104.883 248.397L104.797 247.763ZM85.96 250.96H112.2V250.32H85.96V250.96ZM85.96 250.96H102.92V250.32H85.96V250.96ZM88.52 251.28H103.24V250.64H88.52V251.28ZM90.76 251.6H103.56V250.96H90.76V251.6ZM93.32 251.92H103.88V251.28H93.32V251.92ZM95.56 252.24H103.88V251.6H95.56V252.24ZM97.8 252.56H104.2V251.92H97.8V252.56ZM100.36 252.88H104.52V252.24H100.36V252.88ZM102.6 253.2H104.84V252.56H102.6V253.2ZM102.6 248.72H104.84V248.08H102.6V248.72ZM100.36 249.04H104.52V248.4H100.36V249.04ZM97.8 249.36H104.2V248.72H97.8V249.36ZM95.56 249.68H103.88V249.04H95.56V249.68ZM93.32 250H103.88V249.36H93.32V250ZM90.76 250.32H103.56V249.68H90.76V250.32ZM88.52 250.64H103.24V250H88.52V250.64ZM74.4831 250.323L55.6031 247.763L55.5171 248.397L74.3971 250.957L74.4831 250.323ZM55.3041 248.272L57.2241 250.832L57.7361 250.448L55.8161 247.888L55.3041 248.272ZM57.2241 250.448L55.3041 253.008L55.8161 253.392L57.7361 250.832L57.2241 250.448ZM55.6031 253.517L74.4831 250.957L74.3971 250.323L55.5171 252.883L55.6031 253.517ZM74.4401 250.32H48.1997V250.96H74.4401V250.32ZM55.8799 248.72H58.1199V248.08H55.8799V248.72ZM56.1999 249.04H60.3599V248.4H56.1999V249.04ZM56.5199 249.36H62.9199V248.72H56.5199V249.36ZM56.5199 249.68H65.1599V249.04H56.5199V249.68ZM56.8399 250H67.3999V249.36H56.8399V250ZM57.1599 250.32H69.9599V249.68H57.1599V250.32ZM57.4799 250.64H72.1999V250H57.4799V250.64ZM57.4801 250.96L74.4401 250.96L74.4401 250.32L57.4801 250.32L57.4801 250.96ZM57.4799 251.28H72.1999V250.64H57.4799V251.28ZM57.1599 251.6H69.9599V250.96H57.1599V251.6ZM56.8399 251.92H67.3999V251.28H56.8399V251.92ZM56.5199 252.24H65.1599V251.6H56.5199V252.24ZM56.5199 252.56H62.9199V251.92H56.5199V252.56ZM56.1999 252.88H60.3599V252.24H56.1999V252.88ZM55.8799 253.2H58.1199V252.56H55.8799V253.2ZM85.96 250.32H74.4401V250.96H85.96V250.32ZM74.4401 250.32H15.8799V250.96H74.4401V250.32Z" fill="white"/>
    </g>
    <!--   6 D2-->
    <g class="group">
        <path d="M150.619 193.968V200.594L130.445 193.25V186.332C130.445 184.249 130.849 182.614 131.657 181.426C132.458 180.236 133.611 179.52 135.115 179.278C136.612 179.033 138.405 179.291 140.493 180.051C142.594 180.816 144.404 181.873 145.921 183.222C147.431 184.568 148.594 186.152 149.408 187.971C150.216 189.789 150.619 191.788 150.619 193.968ZM148.452 197.205V193.347C148.452 191.572 148.131 189.984 147.487 188.583C146.843 187.181 145.927 185.978 144.739 184.972C143.55 183.966 142.135 183.165 140.493 182.567C138.864 181.974 137.462 181.747 136.287 181.885C135.105 182.021 134.198 182.537 133.568 183.432C132.931 184.326 132.612 185.611 132.612 187.288V191.439L148.452 197.205Z" fill="white"/>
        <path d="M157.147 185.004L155.955 184.57L151.053 178.021C150.479 177.253 149.98 176.611 149.556 176.095C149.128 175.577 148.726 175.163 148.35 174.852C147.971 174.535 147.573 174.301 147.158 174.15C146.681 173.977 146.268 173.949 145.92 174.066C145.571 174.179 145.301 174.41 145.111 174.759C144.922 175.108 144.827 175.543 144.827 176.065C144.827 176.619 144.935 177.143 145.151 177.635C145.363 178.121 145.661 178.547 146.045 178.912C146.43 179.273 146.88 179.547 147.397 179.735V181.399C146.602 181.11 145.904 180.661 145.304 180.052C144.703 179.443 144.235 178.742 143.899 177.948C143.564 177.149 143.396 176.329 143.396 175.488C143.396 174.642 143.564 173.953 143.899 173.422C144.235 172.891 144.688 172.544 145.257 172.38C145.827 172.216 146.46 172.261 147.158 172.515C147.657 172.697 148.145 172.971 148.622 173.337C149.095 173.697 149.622 174.218 150.205 174.9C150.784 175.576 151.49 176.479 152.325 177.61L155.584 182.039L155.69 182.077V175.367L157.147 175.897V185.004Z" fill="white"/>
        <path d="M165 210.96C165 211.137 165.143 211.28 165.32 211.28C165.497 211.28 165.64 211.137 165.64 210.96H165ZM150.619 200.594L150.51 200.894C150.608 200.93 150.717 200.916 150.803 200.856C150.889 200.796 150.939 200.698 150.939 200.594H150.619ZM130.445 193.25H130.125C130.125 193.385 130.209 193.505 130.336 193.551L130.445 193.25ZM131.657 181.426L131.922 181.606L131.922 181.605L131.657 181.426ZM135.115 179.278L135.165 179.594L135.166 179.594L135.115 179.278ZM140.493 180.051L140.384 180.352L140.493 180.051ZM145.921 183.222L146.134 182.983L146.133 182.983L145.921 183.222ZM149.408 187.971L149.7 187.842L149.7 187.841L149.408 187.971ZM148.452 197.205L148.343 197.506C148.441 197.541 148.55 197.527 148.636 197.467C148.721 197.407 148.772 197.309 148.772 197.205H148.452ZM140.493 182.567L140.384 182.868L140.493 182.567ZM136.287 181.885L136.323 182.203L136.324 182.203L136.287 181.885ZM133.568 183.432L133.829 183.618L133.83 183.616L133.568 183.432ZM132.612 191.439H132.292C132.292 191.574 132.377 191.694 132.503 191.74L132.612 191.439ZM157.147 185.004L157.037 185.305C157.136 185.341 157.245 185.326 157.33 185.267C157.416 185.207 157.467 185.109 157.467 185.004H157.147ZM155.955 184.57L155.698 184.762C155.736 184.812 155.787 184.85 155.845 184.871L155.955 184.57ZM151.053 178.021L150.797 178.213L150.797 178.213L151.053 178.021ZM149.556 176.095L149.803 175.892L149.803 175.891L149.556 176.095ZM148.35 174.852L148.146 175.098L148.147 175.099L148.35 174.852ZM147.158 174.15L147.049 174.451L147.158 174.15ZM145.92 174.066L146.018 174.371L146.022 174.369L145.92 174.066ZM145.111 174.759L144.83 174.606L144.83 174.606L145.111 174.759ZM145.151 177.635L145.444 177.507L145.444 177.506L145.151 177.635ZM146.045 178.912L145.825 179.144L145.826 179.146L146.045 178.912ZM147.397 179.735H147.717C147.717 179.601 147.633 179.481 147.506 179.435L147.397 179.735ZM147.397 181.399L147.287 181.7C147.385 181.735 147.495 181.721 147.58 181.661C147.666 181.601 147.717 181.503 147.717 181.399H147.397ZM145.304 180.052L145.531 179.827L145.531 179.827L145.304 180.052ZM143.899 177.948L143.604 178.072L143.605 178.072L143.899 177.948ZM143.899 173.422L143.629 173.251L143.629 173.251L143.899 173.422ZM147.158 172.515L147.268 172.214L147.158 172.515ZM148.622 173.337L148.427 173.591L148.428 173.591L148.622 173.337ZM150.205 174.9L149.962 175.108L149.962 175.108L150.205 174.9ZM152.325 177.61L152.583 177.42L152.582 177.42L152.325 177.61ZM155.584 182.039L155.326 182.228C155.363 182.279 155.415 182.318 155.474 182.339L155.584 182.039ZM155.69 182.077L155.58 182.378C155.678 182.414 155.788 182.399 155.873 182.339C155.959 182.28 156.01 182.182 156.01 182.077H155.69ZM155.69 175.367L155.799 175.066C155.701 175.03 155.592 175.045 155.506 175.105C155.421 175.164 155.37 175.262 155.37 175.367H155.69ZM157.147 175.897H157.467C157.467 175.763 157.383 175.642 157.256 175.596L157.147 175.897ZM167.56 125.2L167.878 125.238C167.893 125.107 167.827 124.98 167.71 124.918C167.594 124.856 167.452 124.871 167.352 124.957L167.56 125.2ZM165.32 127.12L165.32 127.44L165.32 127.44L165.32 127.12ZM162.76 125.2L162.952 124.944C162.849 124.867 162.709 124.859 162.598 124.924C162.486 124.989 162.425 125.115 162.443 125.243L162.76 125.2ZM165.64 117.52C165.64 117.343 165.497 117.2 165.32 117.2C165.143 117.2 165 117.343 165 117.52H165.64ZM162.76 168.72L162.443 168.677C162.425 168.805 162.486 168.931 162.598 168.996C162.709 169.061 162.849 169.053 162.952 168.976L162.76 168.72ZM167.56 168.72L167.352 168.963C167.452 169.049 167.594 169.064 167.71 169.002C167.827 168.94 167.893 168.813 167.878 168.682L167.56 168.72ZM165 176.08C165 176.257 165.143 176.4 165.32 176.4C165.497 176.4 165.64 176.257 165.64 176.08H165ZM150.299 193.968V200.594H150.939V193.968H150.299ZM150.729 200.293L130.555 192.95L130.336 193.551L150.51 200.894L150.729 200.293ZM130.765 193.25V186.332H130.125V193.25H130.765ZM130.765 186.332C130.765 184.286 131.163 182.722 131.922 181.606L131.392 181.246C130.536 182.506 130.125 184.212 130.125 186.332H130.765ZM131.922 181.605C132.671 180.493 133.743 179.823 135.165 179.594L135.064 178.962C133.478 179.217 132.245 179.979 131.392 181.248L131.922 181.605ZM135.166 179.594C136.59 179.361 138.324 179.602 140.384 180.352L140.602 179.75C138.485 178.98 136.634 178.705 135.063 178.962L135.166 179.594ZM140.384 180.352C142.451 181.104 144.224 182.142 145.708 183.461L146.133 182.983C144.583 181.604 142.738 180.528 140.602 179.75L140.384 180.352ZM145.708 183.461C147.185 184.778 148.32 186.324 149.116 188.102L149.7 187.841C148.867 185.979 147.677 184.359 146.134 182.983L145.708 183.461ZM149.115 188.101C149.903 189.874 150.299 191.828 150.299 193.968H150.939C150.939 191.748 150.528 189.704 149.7 187.842L149.115 188.101ZM148.772 197.205V193.347H148.132V197.205H148.772ZM148.772 193.347C148.772 191.533 148.443 189.898 147.778 188.449L147.196 188.716C147.818 190.07 148.132 191.611 148.132 193.347H148.772ZM147.778 188.449C147.114 187.005 146.169 185.763 144.945 184.728L144.532 185.216C145.685 186.192 146.572 187.358 147.196 188.716L147.778 188.449ZM144.945 184.728C143.725 183.695 142.275 182.875 140.602 182.266L140.384 182.868C141.994 183.454 143.375 184.238 144.532 185.216L144.945 184.728ZM140.602 182.266C138.947 181.664 137.492 181.421 136.249 181.567L136.324 182.203C137.432 182.073 138.782 182.285 140.384 182.868L140.602 182.266ZM136.25 181.567C134.986 181.712 133.994 182.271 133.306 183.248L133.83 183.616C134.403 182.802 135.223 182.329 136.323 182.203L136.25 181.567ZM133.307 183.246C132.616 184.216 132.292 185.577 132.292 187.288H132.932C132.932 185.644 133.246 184.435 133.829 183.618L133.307 183.246ZM132.292 187.288V191.439H132.932V187.288H132.292ZM132.503 191.74L148.343 197.506L148.562 196.904L132.722 191.139L132.503 191.74ZM157.256 184.704L156.064 184.27L155.845 184.871L157.037 185.305L157.256 184.704ZM156.211 184.379L151.309 177.829L150.797 178.213L155.698 184.762L156.211 184.379ZM151.309 177.83C150.733 177.059 150.231 176.413 149.803 175.892L149.309 176.298C149.729 176.809 150.224 177.447 150.797 178.213L151.309 177.83ZM149.803 175.891C149.366 175.363 148.95 174.933 148.554 174.606L148.147 175.099C148.502 175.393 148.89 175.791 149.309 176.299L149.803 175.891ZM148.555 174.607C148.151 174.269 147.721 174.015 147.268 173.85L147.049 174.451C147.425 174.588 147.791 174.802 148.146 175.098L148.555 174.607ZM147.268 173.85C146.748 173.661 146.257 173.615 145.817 173.763L146.022 174.369C146.28 174.282 146.614 174.293 147.049 174.451L147.268 173.85ZM145.821 173.762C145.387 173.902 145.056 174.191 144.83 174.606L145.393 174.912C145.547 174.628 145.754 174.456 146.018 174.371L145.821 173.762ZM144.83 174.606C144.608 175.014 144.507 175.506 144.507 176.065H145.147C145.147 175.581 145.235 175.201 145.393 174.912L144.83 174.606ZM144.507 176.065C144.507 176.662 144.623 177.23 144.858 177.764L145.444 177.506C145.246 177.056 145.147 176.576 145.147 176.065H144.507ZM144.858 177.763C145.087 178.288 145.41 178.749 145.825 179.144L146.266 178.68C145.913 178.344 145.639 177.954 145.444 177.507L144.858 177.763ZM145.826 179.146C146.243 179.537 146.732 179.834 147.287 180.036L147.506 179.435C147.028 179.261 146.616 179.009 146.264 178.679L145.826 179.146ZM147.077 179.735V181.399H147.717V179.735H147.077ZM147.506 181.098C146.756 180.825 146.099 180.402 145.531 179.827L145.076 180.277C145.709 180.919 146.447 181.394 147.287 181.7L147.506 181.098ZM145.531 179.827C144.959 179.248 144.514 178.58 144.194 177.823L143.605 178.072C143.956 178.904 144.446 179.639 145.076 180.277L145.531 179.827ZM144.194 177.824C143.875 177.063 143.716 176.285 143.716 175.488H143.076C143.076 176.373 143.253 177.235 143.604 178.072L144.194 177.824ZM143.716 175.488C143.716 174.682 143.876 174.058 144.17 173.593L143.629 173.251C143.251 173.848 143.076 174.602 143.076 175.488H143.716ZM144.17 173.593C144.466 173.124 144.856 172.828 145.346 172.687L145.169 172.072C144.519 172.259 144.004 172.658 143.629 173.251L144.17 173.593ZM145.346 172.687C145.835 172.547 146.398 172.579 147.049 172.816L147.268 172.214C146.523 171.943 145.818 171.885 145.169 172.072L145.346 172.687ZM147.049 172.816C147.513 172.985 147.973 173.242 148.427 173.591L148.817 173.083C148.318 172.699 147.801 172.408 147.268 172.214L147.049 172.816ZM148.428 173.591C148.876 173.933 149.387 174.435 149.962 175.108L150.448 174.692C149.857 174.001 149.313 173.461 148.816 173.082L148.428 173.591ZM149.962 175.108C150.534 175.776 151.235 176.672 152.067 177.8L152.582 177.42C151.745 176.286 151.034 175.376 150.448 174.692L149.962 175.108ZM152.067 177.8L155.326 182.228L155.841 181.849L152.583 177.42L152.067 177.8ZM155.474 182.339L155.58 182.378L155.799 181.777L155.693 181.738L155.474 182.339ZM156.01 182.077V175.367H155.37V182.077H156.01ZM155.58 175.667L157.037 176.198L157.256 175.596L155.799 175.066L155.58 175.667ZM156.827 175.897V185.004H157.467V175.897H156.827ZM165.638 144.118L167.878 125.238L167.242 125.162L165.002 144.042L165.638 144.118ZM167.352 124.957L165.112 126.877L165.528 127.363L167.768 125.443L167.352 124.957ZM165.512 126.864L162.952 124.944L162.568 125.456L165.128 127.376L165.512 126.864ZM162.443 125.243L165.003 144.123L165.637 144.037L163.077 125.157L162.443 125.243ZM165.64 144.08V117.52H165V144.08H165.64ZM167.24 125.84H167.56V125.2H167.24V125.84ZM166.92 126.16H167.56V125.52H166.92V126.16ZM166.6 126.48H167.56V125.84H166.6V126.48ZM166.28 126.8H167.56V126.16H166.28V126.8ZM165.96 127.12H167.56V126.48H165.96V127.12ZM165.32 127.44L167.56 127.44L167.56 126.8L165.32 126.8L165.32 127.44ZM165.32 142.16H165.64V141.52H165.32V142.16ZM165.32 142.48H165.64V141.84H165.32V142.48ZM165.32 142.8H165.64V142.16H165.32V142.8ZM165.32 143.12H165.64V142.48H165.32V143.12ZM165.32 143.44H165.64V142.8H165.32V143.44ZM165.32 143.76H165.64V143.12H165.32V143.76ZM165.32 144.08H165.64V143.44H165.32V144.08ZM163.08 125.84H163.4V125.2H163.08V125.84ZM163.08 126.16H163.72V125.52H163.08V126.16ZM163.08 126.48H164.04V125.84H163.08V126.48ZM163.08 126.8H164.68V126.16H163.08V126.8ZM163.08 127.12H165V126.48H163.08V127.12ZM163.08 127.44L165.32 127.44L165.32 126.8L163.08 126.8L163.08 127.44ZM165.003 149.797L162.443 168.677L163.077 168.763L165.637 149.883L165.003 149.797ZM162.952 168.976L165.512 167.056L165.128 166.544L162.568 168.464L162.952 168.976ZM165.112 167.043L167.352 168.963L167.768 168.477L165.528 166.557L165.112 167.043ZM167.878 168.682L165.638 149.802L165.002 149.878L167.242 168.758L167.878 168.682ZM165 149.84V176.08H165.64V149.84H165ZM163.08 167.12L165.32 167.12L165.32 166.48L163.08 166.48L163.08 167.12ZM163.08 167.44H165V166.8H163.08V167.44ZM163.08 167.76H164.68V167.12H163.08V167.76ZM163.08 168.08H164.04V167.44H163.08V168.08ZM163.08 168.4H163.72V167.76H163.08V168.4ZM163.08 168.72H163.4V168.08H163.08V168.72ZM165.32 150.48H165.64V149.84H165.32V150.48ZM165.32 150.8H165.64V150.16H165.32V150.8ZM165.32 151.12H165.64V150.48H165.32V151.12ZM165.32 151.44H165.64V150.8H165.32V151.44ZM165.32 151.76H165.64V151.12H165.32V151.76ZM165.32 152.08H165.64V151.44H165.32V152.08ZM165.32 152.4H165.64V151.76H165.32V152.4ZM165.32 167.12L167.56 167.12L167.56 166.48L165.32 166.48L165.32 167.12ZM165.96 167.44H167.56V166.8H165.96V167.44ZM166.28 167.76H167.56V167.12H166.28V167.76ZM166.6 168.08H167.56V167.44H166.6V168.08ZM166.92 168.4H167.56V167.76H166.92V168.4ZM167.24 168.72H167.56V168.08H167.24V168.72ZM165 144.08V149.84H165.64V144.08H165ZM165 149.84V210.96H165.64V149.84H165ZM163.08 127.76H167.56V127.12H163.08V127.76ZM163.4 128.08H167.56V127.44H163.4V128.08ZM163.4 128.4H167.24V127.76H163.4V128.4ZM163.4 128.72H167.24V128.08H163.4V128.72ZM163.4 129.04H167.24V128.4H163.4V129.04ZM163.4 129.36H167.24V128.72H163.4V129.36ZM163.4 129.68H167.24V129.04H163.4V129.68ZM163.4 130H167.24V129.36H163.4V130ZM163.72 130.32H167.24V129.68H163.72V130.32ZM163.72 130.64H167.24V130H163.72V130.64ZM163.72 130.96H166.92V130.32H163.72V130.96ZM163.72 131.28H166.92V130.64H163.72V131.28ZM163.72 131.6H166.92V130.96H163.72V131.6ZM163.72 131.92H166.92V131.28H163.72V131.92ZM163.72 132.24H166.92V131.6H163.72V132.24ZM163.72 132.56H166.92V131.92H163.72V132.56ZM164.04 132.88H166.92V132.24H164.04V132.88ZM164.04 133.2H166.92V132.56H164.04V133.2ZM164.04 133.52H166.92V132.88H164.04V133.52ZM164.04 133.84H166.6V133.2H164.04V133.84ZM164.04 134.16H166.6V133.52H164.04V134.16ZM164.04 134.48H166.6V133.84H164.04V134.48ZM164.04 134.8H166.6V134.16H164.04V134.8ZM164.36 135.12H166.6V134.48H164.36V135.12ZM164.36 135.44H166.6V134.8H164.36V135.44ZM164.36 135.76H166.6V135.12H164.36V135.76ZM164.36 136.08H166.6V135.44H164.36V136.08ZM164.36 136.4H166.28V135.76H164.36V136.4ZM164.36 136.72H166.28V136.08H164.36V136.72ZM164.36 137.04H166.28V136.4H164.36V137.04ZM164.68 137.36H166.28V136.72H164.68V137.36ZM164.68 137.68H166.28V137.04H164.68V137.68ZM164.68 138H166.28V137.36H164.68V138ZM164.68 138.32H166.28V137.68H164.68V138.32ZM164.68 138.64H166.28V138H164.68V138.64ZM164.68 138.96H166.28V138.32H164.68V138.96ZM164.68 139.28H165.96V138.64H164.68V139.28ZM164.68 139.6H165.96V138.96H164.68V139.6ZM165 139.92H165.96V139.28H165V139.92ZM165 140.24H165.96V139.6H165V140.24ZM165 140.56H165.96V139.92H165V140.56ZM165 140.88H165.96V140.24H165V140.88ZM165 141.2H165.96V140.56H165V141.2ZM165 141.52H165.96V140.88H165V141.52ZM165 141.84H165.64V141.2H165V141.84ZM165 152.72L165.64 152.72L165.64 152.08L165 152.08L165 152.72ZM165 153.04L165.96 153.04L165.96 152.4L165 152.4L165 153.04ZM165 153.36L165.96 153.36L165.96 152.72L165 152.72L165 153.36ZM165 153.68L165.96 153.68L165.96 153.04L165 153.04L165 153.68ZM165 154L165.96 154L165.96 153.36L165 153.36L165 154ZM165 154.32L165.96 154.32L165.96 153.68L165 153.68L165 154.32ZM165 154.64L165.96 154.64L165.96 154L165 154L165 154.64ZM164.68 154.96L165.96 154.96L165.96 154.32L164.68 154.32L164.68 154.96ZM164.68 155.28L165.96 155.28L165.96 154.64L164.68 154.64L164.68 155.28ZM164.68 155.6L166.28 155.6L166.28 154.96L164.68 154.96L164.68 155.6ZM164.68 155.92L166.28 155.92L166.28 155.28L164.68 155.28L164.68 155.92ZM164.68 156.24L166.28 156.24L166.28 155.6L164.68 155.6L164.68 156.24ZM164.68 156.56L166.28 156.56L166.28 155.92L164.68 155.92L164.68 156.56ZM164.68 156.88L166.28 156.88L166.28 156.24L164.68 156.24L164.68 156.88ZM164.68 157.2L166.28 157.2L166.28 156.56L164.68 156.56L164.68 157.2ZM164.36 157.52L166.28 157.52L166.28 156.88L164.36 156.88L164.36 157.52ZM164.36 157.84L166.28 157.84L166.28 157.2L164.36 157.2L164.36 157.84ZM164.36 158.16L166.28 158.16L166.28 157.52L164.36 157.52L164.36 158.16ZM164.36 158.48L166.6 158.48L166.6 157.84L164.36 157.84L164.36 158.48ZM164.36 158.8L166.6 158.8L166.6 158.16L164.36 158.16L164.36 158.8ZM164.36 159.12L166.6 159.12L166.6 158.48L164.36 158.48L164.36 159.12ZM164.36 159.44L166.6 159.44L166.6 158.8L164.36 158.8L164.36 159.44ZM164.04 159.76L166.6 159.76L166.6 159.12L164.04 159.12L164.04 159.76ZM164.04 160.08L166.6 160.08L166.6 159.44L164.04 159.44L164.04 160.08ZM164.04 160.4L166.6 160.4L166.6 159.76L164.04 159.76L164.04 160.4ZM164.04 160.72L166.6 160.72L166.6 160.08L164.04 160.08L164.04 160.72ZM164.04 161.04L166.92 161.04L166.92 160.4L164.04 160.4L164.04 161.04ZM164.04 161.36L166.92 161.36L166.92 160.72L164.04 160.72L164.04 161.36ZM164.04 161.68L166.92 161.68L166.92 161.04L164.04 161.04L164.04 161.68ZM163.72 162L166.92 162L166.92 161.36L163.72 161.36L163.72 162ZM163.72 162.32L166.92 162.32L166.92 161.68L163.72 161.68L163.72 162.32ZM163.72 162.64L166.92 162.64L166.92 162L163.72 162L163.72 162.64ZM163.72 162.96L166.92 162.96L166.92 162.32L163.72 162.32L163.72 162.96ZM163.72 163.28L166.92 163.28L166.92 162.64L163.72 162.64L163.72 163.28ZM163.72 163.6L166.92 163.6L166.92 162.96L163.72 162.96L163.72 163.6ZM163.72 163.92L167.24 163.92L167.24 163.28L163.72 163.28L163.72 163.92ZM163.72 164.24L167.24 164.24L167.24 163.6L163.72 163.6L163.72 164.24ZM163.4 164.56L167.24 164.56L167.24 163.92L163.4 163.92L163.4 164.56ZM163.4 164.88L167.24 164.88L167.24 164.24L163.4 164.24L163.4 164.88ZM163.4 165.2L167.24 165.2L167.24 164.56L163.4 164.56L163.4 165.2ZM163.4 165.52L167.24 165.52L167.24 164.88L163.4 164.88L163.4 165.52ZM163.4 165.84L167.24 165.84L167.24 165.2L163.4 165.2L163.4 165.84ZM163.4 166.16L167.24 166.16L167.24 165.52L163.4 165.52L163.4 166.16ZM163.4 166.48L167.56 166.48L167.56 165.84L163.4 165.84L163.4 166.48ZM163.08 166.8L167.56 166.8L167.56 166.16L163.08 166.16L163.08 166.8Z" fill="white"/>
    </g>
    <!--   7 d-->
    <g class="group">
        <path d="M39.0536 21.8047C37.7117 21.8047 36.6431 21.4862 35.8476 20.8492C35.0546 20.2056 34.5808 19.2993 34.4262 18.1304C34.274 16.9549 34.4896 15.5659 35.0728 13.9636C35.6513 12.3743 36.4433 10.9952 37.4489 9.82628C38.4544 8.65733 39.5903 7.75436 40.8565 7.11735C42.1227 6.48034 43.4337 6.16183 44.7895 6.16183C45.8378 6.16183 46.6062 6.32601 47.0947 6.65437C47.5925 6.97615 47.9269 7.34391 48.0978 7.75764C48.278 8.1648 48.4112 8.49972 48.4973 8.76241H48.707L51.4177 1.31531H53.8917L46.5483 21.4895H44.1582L45.0044 19.1647H44.7109C44.4288 19.4405 44.0435 19.7886 43.5551 20.2089C43.069 20.6226 42.4552 20.9936 41.7137 21.322C40.9746 21.6438 40.0879 21.8047 39.0536 21.8047ZM40.1492 19.7163C41.1416 19.7163 42.0686 19.4734 42.9304 18.9874C43.7946 18.4949 44.5626 17.8152 45.2346 16.9483C45.9089 16.0749 46.4541 15.0668 46.87 13.9242C47.2812 12.7946 47.4662 11.8063 47.4252 10.9591C47.3865 10.1054 47.1108 9.4421 46.598 8.96927C46.0876 8.48987 45.3292 8.25017 44.3229 8.25017C43.2746 8.25017 42.3089 8.50301 41.426 9.00867C40.5525 9.50777 39.7844 10.1875 39.1218 11.0478C38.4686 11.9015 37.9484 12.8603 37.5612 13.9242C37.1691 15.0012 36.9877 15.9797 37.0168 16.8597C37.0553 17.7331 37.326 18.4292 37.8291 18.948C38.3415 19.4602 39.1148 19.7163 40.1492 19.7163Z" fill="white"/>
        <path d="M74.1199 68.24C74.1199 68.4167 74.2632 68.56 74.4399 68.56C74.6167 68.56 74.7599 68.4167 74.7599 68.24H74.1199ZM74.7599 23.76C74.7599 23.5833 74.6167 23.44 74.4399 23.44C74.2632 23.44 74.1199 23.5833 74.1199 23.76H74.7599ZM84.68 68.24C84.68 68.4167 84.8233 68.56 85 68.56C85.1767 68.56 85.32 68.4167 85.32 68.24H84.68ZM85.32 23.76C85.32 23.5833 85.1767 23.44 85 23.44C84.8233 23.44 84.68 23.5833 84.68 23.76H85.32ZM23.2397 31.1201C23.063 31.1201 22.9197 31.2633 22.9197 31.4401C22.9197 31.6168 23.063 31.7601 23.2397 31.7601V31.1201ZM35.8476 20.8492L35.646 21.0977L35.6476 21.0989L35.8476 20.8492ZM34.4262 18.1304L34.1088 18.1715L34.109 18.1723L34.4262 18.1304ZM35.0728 13.9636L35.3735 14.073L35.0728 13.9636ZM37.4489 9.82628L37.2063 9.6176L37.2063 9.6176L37.4489 9.82628ZM40.8565 7.11735L40.7127 6.83148L40.7127 6.83148L40.8565 7.11735ZM47.0947 6.65437L46.9161 6.91999L46.921 6.92312L47.0947 6.65437ZM48.0978 7.75764L47.8019 7.87984L47.8052 7.88718L48.0978 7.75764ZM48.4973 8.76241L48.1932 8.86206C48.2363 8.99352 48.359 9.08241 48.4973 9.08241V8.76241ZM48.707 8.76241V9.08241C48.8415 9.08241 48.9617 8.99827 49.0077 8.87186L48.707 8.76241ZM51.4177 1.31531V0.995308C51.2832 0.995308 51.163 1.07944 51.117 1.20585L51.4177 1.31531ZM53.8917 1.31531L54.1924 1.42476C54.2281 1.32665 54.2137 1.21729 54.1538 1.13177C54.0939 1.04624 53.9961 0.995308 53.8917 0.995308V1.31531ZM46.5483 21.4895V21.8095C46.6828 21.8095 46.803 21.7253 46.849 21.5989L46.5483 21.4895ZM44.1582 21.4895L43.8575 21.38C43.8218 21.4781 43.8362 21.5875 43.8961 21.673C43.9559 21.7585 44.0538 21.8095 44.1582 21.8095V21.4895ZM45.0044 19.1647L45.3051 19.2742C45.3408 19.1761 45.3264 19.0667 45.2665 18.9812C45.2066 18.8956 45.1088 18.8447 45.0044 18.8447V19.1647ZM44.7109 19.1647V18.8447C44.6272 18.8447 44.547 18.8774 44.4872 18.9359L44.7109 19.1647ZM43.5551 20.2089L43.7625 20.4526L43.7638 20.4514L43.5551 20.2089ZM41.7137 21.322L41.8415 21.6154L41.8433 21.6146L41.7137 21.322ZM42.9304 18.9874L43.0876 19.2661L43.0889 19.2654L42.9304 18.9874ZM45.2346 16.9483L45.4875 17.1444L45.4879 17.1439L45.2346 16.9483ZM46.87 13.9242L46.5693 13.8147L46.5693 13.8147L46.87 13.9242ZM47.4252 10.9591L47.1055 10.9736L47.1055 10.9746L47.4252 10.9591ZM46.598 8.96927L46.3789 9.20253L46.381 9.20452L46.598 8.96927ZM41.426 9.00867L41.5848 9.28652L41.5851 9.28636L41.426 9.00867ZM39.1218 11.0478L38.8683 10.8525L38.8677 10.8533L39.1218 11.0478ZM37.5612 13.9242L37.8619 14.0336L37.5612 13.9242ZM37.0168 16.8597L36.6969 16.8702L36.6971 16.8737L37.0168 16.8597ZM37.8291 18.948L37.5993 19.1708L37.6028 19.1743L37.8291 18.948ZM55.5601 28.88L55.6031 28.5629C55.4752 28.5456 55.3495 28.6067 55.2841 28.7179C55.2188 28.8292 55.2267 28.9688 55.3041 29.072L55.5601 28.88ZM55.5601 34.0001L55.3041 33.8081C55.2267 33.9113 55.2188 34.0509 55.2841 34.1621C55.3495 34.2734 55.4752 34.3345 55.6031 34.3172L55.5601 34.0001ZM48.1997 31.1201C48.023 31.1201 47.8797 31.2633 47.8797 31.4401C47.8797 31.6168 48.023 31.7601 48.1997 31.7601V31.1201ZM103.88 34.0001L103.837 34.3172C103.965 34.3345 104.091 34.2734 104.156 34.1621C104.221 34.0509 104.213 33.9113 104.136 33.8081L103.88 34.0001ZM103.88 28.88L104.136 29.072C104.213 28.9688 104.221 28.8292 104.156 28.7179C104.091 28.6067 103.965 28.5456 103.837 28.5629L103.88 28.88ZM111.56 31.7601C111.737 31.7601 111.88 31.6168 111.88 31.4401C111.88 31.2633 111.737 31.1201 111.56 31.1201V31.7601ZM74.7599 68.24V23.76H74.1199V68.24H74.7599ZM85.32 68.24V23.76H84.68V68.24H85.32ZM39.0536 21.4847C37.7613 21.4847 36.7706 21.1783 36.0477 20.5994L35.6476 21.0989C36.5156 21.794 37.6622 22.1247 39.0536 22.1247V21.4847ZM36.0493 20.6007C35.3295 20.0166 34.8891 19.1898 34.7434 18.0884L34.109 18.1723C34.2725 19.4089 34.7796 20.3946 35.646 21.0976L36.0493 20.6007ZM34.7436 18.0893C34.6002 16.9819 34.8006 15.6469 35.3735 14.073L34.7721 13.8541C34.1785 15.4849 33.9479 16.9278 34.1088 18.1715L34.7436 18.0893ZM35.3735 14.073C35.9401 12.5166 36.7135 11.1719 37.6915 10.035L37.2063 9.6176C36.1732 10.8185 35.3626 12.2321 34.7721 13.8541L35.3735 14.073ZM37.6915 10.035C38.672 8.89517 39.775 8.01965 41.0003 7.40321L40.7127 6.83148C39.4056 7.48907 38.2369 8.41949 37.2063 9.6176L37.6915 10.035ZM41.0003 7.40321C42.224 6.7876 43.4859 6.48183 44.7895 6.48183V5.84183C43.3815 5.84183 42.0214 6.17308 40.7127 6.83148L41.0003 7.40321ZM44.7895 6.48183C45.8176 6.48183 46.5076 6.64532 46.9161 6.91994L47.2732 6.38879C46.7048 6.00671 45.858 5.84183 44.7895 5.84183V6.48183ZM46.921 6.92312C47.3817 7.22089 47.6629 7.54294 47.802 7.8798L48.3936 7.63548C48.1909 7.14489 47.8034 6.73142 47.2684 6.38561L46.921 6.92312ZM47.8052 7.88718C47.9834 8.28969 48.1118 8.61373 48.1932 8.86206L48.8014 8.66275C48.7106 8.38572 48.5727 8.03991 48.3904 7.6281L47.8052 7.88718ZM48.4973 9.08241H48.707V8.44241H48.4973V9.08241ZM49.0077 8.87186L51.7184 1.42476L51.117 1.20585L48.4063 8.65295L49.0077 8.87186ZM51.4177 1.63531H53.8917V0.995308H51.4177V1.63531ZM53.591 1.20585L46.2476 21.38L46.849 21.5989L54.1924 1.42476L53.591 1.20585ZM46.5483 21.1695H44.1582V21.8095H46.5483V21.1695ZM44.4589 21.5989L45.3051 19.2742L44.7037 19.0553L43.8575 21.38L44.4589 21.5989ZM45.0044 18.8447H44.7109V19.4847H45.0044V18.8447ZM44.4872 18.9359C44.212 19.205 43.8324 19.5481 43.3463 19.9663L43.7638 20.4514C44.2546 20.0291 44.6456 19.6761 44.9346 19.3935L44.4872 18.9359ZM43.3476 19.9652C42.8904 20.3544 42.3047 20.7103 41.5841 21.0294L41.8433 21.6146C42.6057 21.277 43.2476 20.8908 43.7625 20.4526L43.3476 19.9652ZM41.586 21.0286C40.8968 21.3286 40.0559 21.4847 39.0536 21.4847V22.1247C40.1199 22.1247 41.0524 21.9589 41.8414 21.6154L41.586 21.0286ZM40.1492 20.0363C41.1964 20.0363 42.1777 19.7792 43.0876 19.2661L42.7732 18.7087C41.9596 19.1675 41.0867 19.3963 40.1492 19.3963V20.0363ZM43.0889 19.2654C43.9932 18.75 44.7924 18.0411 45.4875 17.1444L44.9817 16.7523C44.3329 17.5893 43.596 18.2397 42.772 18.7094L43.0889 19.2654ZM45.4879 17.1439C46.1843 16.2418 46.7447 15.2041 47.1707 14.0336L46.5693 13.8147C46.1635 14.9295 45.6336 15.9079 44.9813 16.7527L45.4879 17.1439ZM47.1707 14.0336C47.5908 12.8795 47.7886 11.8471 47.7448 10.9436L47.1055 10.9746C47.1439 11.7655 46.9715 12.7097 46.5693 13.8147L47.1707 14.0336ZM47.7448 10.9446C47.7032 10.0268 47.4031 9.27638 46.8149 8.73402L46.381 9.20452C46.8184 9.60783 47.0697 10.184 47.1055 10.9736L47.7448 10.9446ZM46.8171 8.73603C46.2258 8.18063 45.3752 7.93017 44.3229 7.93017V8.57017C45.2832 8.57017 45.9494 8.79912 46.3789 9.20252L46.8171 8.73603ZM44.3229 7.93017C43.2205 7.93017 42.1998 8.19673 41.267 8.73099L41.5851 9.28636C42.4181 8.80928 43.3286 8.57017 44.3229 8.57017V7.93017ZM41.2673 8.73083C40.3541 9.25254 39.5546 9.96137 38.8683 10.8525L39.3754 11.243C40.0142 10.4136 40.7508 9.76301 41.5848 9.28652L41.2673 8.73083ZM38.8677 10.8533C38.1937 11.7342 37.6582 12.7219 37.2605 13.8147L37.8619 14.0336C38.2386 12.9986 38.7435 12.0688 39.376 11.2422L38.8677 10.8533ZM37.2605 13.8147C36.8585 14.9191 36.6662 15.9391 36.697 16.8702L37.3366 16.8491C37.3092 16.0202 37.4798 15.0832 37.8619 14.0336L37.2605 13.8147ZM36.6971 16.8737C36.7383 17.8082 37.0309 18.5845 37.5993 19.1707L38.0588 18.7252C37.6212 18.2739 37.3723 17.658 37.3365 16.8456L36.6971 16.8737ZM37.6028 19.1743C38.1969 19.7682 39.0665 20.0363 40.1492 20.0363V19.3963C39.1632 19.3963 38.486 19.1523 38.0553 18.7217L37.6028 19.1743ZM74.4831 31.123L55.6031 28.5629L55.5171 29.1971L74.3971 31.7572L74.4831 31.123ZM55.3041 29.072L57.2241 31.632L57.7361 31.248L55.8161 28.688L55.3041 29.072ZM57.2241 31.248L55.3041 33.8081L55.8161 34.1921L57.7361 31.632L57.2241 31.248ZM55.6031 34.3172L74.4831 31.7572L74.3971 31.123L55.5171 33.683L55.6031 34.3172ZM74.4401 31.1201H48.1997V31.7601H74.4401V31.1201ZM55.8799 29.5201H58.1199V28.8801H55.8799V29.5201ZM56.1999 29.8401H60.3599V29.2001H56.1999V29.8401ZM56.5199 30.1601H62.9199V29.5201H56.5199V30.1601ZM56.5199 30.4801H65.1599V29.8401H56.5199V30.4801ZM56.8399 30.8001H67.3999V30.1601H56.8399V30.8001ZM57.1599 31.1201H69.9599V30.4801H57.1599V31.1201ZM57.4799 31.4401H72.1999V30.8001H57.4799V31.4401ZM57.4801 31.76L74.4401 31.7601L74.4401 31.1201L57.4801 31.12L57.4801 31.76ZM57.4799 32.0801H72.1999V31.4401H57.4799V32.0801ZM57.1599 32.4001H69.9599V31.7601H57.1599V32.4001ZM56.8399 32.7201H67.3999V32.0801H56.8399V32.7201ZM56.5199 33.0401H65.1599V32.4001H56.5199V33.0401ZM56.5199 33.3601H62.9199V32.7201H56.5199V33.3601ZM56.1999 33.6801H60.3599V33.0401H56.1999V33.6801ZM55.8799 34.0001H58.1199V33.3601H55.8799V34.0001ZM84.957 31.7572L103.837 34.3172L103.923 33.683L85.043 31.123L84.957 31.7572ZM104.136 33.8081L102.216 31.248L101.704 31.6321L103.624 34.1921L104.136 33.8081ZM102.216 31.632L104.136 29.072L103.624 28.688L101.704 31.2481L102.216 31.632ZM103.837 28.5629L84.957 31.123L85.043 31.7572L103.923 29.1971L103.837 28.5629ZM85 31.7601H111.56V31.1201H85V31.7601ZM85 31.7601H101.96V31.1201H85V31.7601ZM87.56 32.0801H102.28V31.4401H87.56V32.0801ZM89.8 32.4001H102.6V31.7601H89.8V32.4001ZM92.36 32.7201H102.92V32.0801H92.36V32.7201ZM94.6 33.0401H102.92V32.4001H94.6V33.0401ZM96.84 33.3601H103.24V32.7201H96.84V33.3601ZM99.4 33.6801H103.56V33.0401H99.4V33.6801ZM101.64 34.0001H103.88V33.3601H101.64V34.0001ZM101.64 29.5201H103.88V28.8801H101.64V29.5201ZM99.4001 29.8401H103.56V29.2001H99.4001V29.8401ZM96.8401 30.1601H103.24V29.5201H96.8401V30.1601ZM94.6001 30.4801H102.92V29.8401H94.6001V30.4801ZM92.3601 30.8001H102.92V30.1601H92.3601V30.8001ZM89.8001 31.1201H102.6V30.4801H89.8001V31.1201ZM87.5601 31.4401H102.28V30.8001H87.5601V31.4401ZM74.4401 31.7601H85V31.1201H74.4401V31.7601ZM74.4401 31.1201H23.2397V31.7601H74.4401V31.1201Z" fill="white"/>
    </g>
    <!--    8 dH-->
    <g class="group">
    </g>
    <!--    9 d1-->
    <g class="group">
    </g>
    <!--    10 d2-->
    <g class="group">
    </g>
    <!--    11 L-->
    <g class="group">
        <path d="M377.683 152.531L357.509 145.187V142.588L375.516 149.142V139.162L377.683 139.951V152.531Z" fill="white"/>
        <path d="M332.36 218C332.183 218 332.04 218.143 332.04 218.32C332.04 218.497 332.183 218.64 332.36 218.64V218ZM395.08 218.64C395.257 218.64 395.4 218.497 395.4 218.32C395.4 218.143 395.257 218 395.08 218V218.64ZM332.36 75.6C332.183 75.6 332.04 75.7433 332.04 75.92C332.04 76.0968 332.183 76.24 332.36 76.24V75.6ZM395.08 76.24C395.257 76.24 395.4 76.0968 395.4 75.92C395.4 75.7433 395.257 75.6 395.08 75.6V76.24ZM377.683 152.531L377.574 152.831C377.672 152.867 377.781 152.853 377.867 152.793C377.953 152.733 378.003 152.635 378.003 152.531H377.683ZM357.509 145.187H357.189C357.189 145.322 357.273 145.442 357.4 145.488L357.509 145.187ZM357.509 142.588L357.619 142.287C357.521 142.251 357.411 142.266 357.326 142.325C357.24 142.385 357.189 142.483 357.189 142.588H357.509ZM375.516 149.142L375.407 149.443C375.505 149.479 375.614 149.464 375.7 149.404C375.785 149.344 375.836 149.247 375.836 149.142H375.516ZM375.516 139.162L375.626 138.862C375.528 138.826 375.418 138.84 375.333 138.9C375.247 138.96 375.196 139.058 375.196 139.162H375.516ZM377.683 139.951H378.003C378.003 139.817 377.919 139.696 377.793 139.65L377.683 139.951ZM387.72 218.32L387.403 218.363C387.425 218.522 387.56 218.64 387.72 218.64C387.88 218.64 388.016 218.522 388.037 218.363L387.72 218.32ZM385.16 199.44L385.352 199.184C385.249 199.107 385.109 199.099 384.998 199.164C384.887 199.229 384.826 199.355 384.843 199.483L385.16 199.44ZM387.72 201.36L387.72 201.68L387.72 201.68L387.72 201.36ZM390.28 199.44L390.597 199.483C390.614 199.355 390.553 199.229 390.442 199.164C390.331 199.099 390.191 199.107 390.088 199.184L390.28 199.44ZM387.72 75.92L388.037 75.877C388.015 75.7184 387.88 75.6 387.72 75.6C387.56 75.6 387.424 75.7184 387.403 75.8771L387.72 75.92ZM390.28 94.8L390.088 95.056C390.191 95.1335 390.331 95.1413 390.442 95.076C390.553 95.0106 390.614 94.8849 390.597 94.757L390.28 94.8ZM385.16 94.8L384.843 94.757C384.826 94.8849 384.887 95.0106 384.998 95.0759C385.109 95.1413 385.249 95.1334 385.352 95.056L385.16 94.8ZM332.36 218.64H395.08V218H332.36V218.64ZM332.36 76.24H395.08V75.6H332.36V76.24ZM377.793 152.23L357.619 144.887L357.4 145.488L377.574 152.831L377.793 152.23ZM357.829 145.187V142.588H357.189V145.187H357.829ZM357.4 142.888L375.407 149.443L375.626 148.841L357.619 142.287L357.4 142.888ZM375.836 149.142V139.162H375.196V149.142H375.836ZM375.407 139.463L377.574 140.252L377.793 139.65L375.626 138.862L375.407 139.463ZM377.363 139.951V152.531H378.003V139.951H377.363ZM388.037 218.277L385.477 199.397L384.843 199.483L387.403 218.363L388.037 218.277ZM384.968 199.696L387.528 201.616L387.912 201.104L385.352 199.184L384.968 199.696ZM387.912 201.616L390.472 199.696L390.088 199.184L387.528 201.104L387.912 201.616ZM389.963 199.397L387.403 218.277L388.037 218.363L390.597 199.483L389.963 199.397ZM385.48 200.08H385.8V199.44H385.48V200.08ZM385.48 200.4H386.12V199.76H385.48V200.4ZM385.48 200.72H386.44V200.08H385.48V200.72ZM385.48 201.04H387.08V200.4H385.48V201.04ZM385.48 201.36H387.4V200.72H385.48V201.36ZM385.48 201.68L387.72 201.68L387.72 201.04L385.48 201.04L385.48 201.68ZM389.96 200.08H390.28V199.44H389.96V200.08ZM389.64 200.4H390.28V199.76H389.64V200.4ZM389 200.72H390.28V200.08H389V200.72ZM388.68 201.04H390.28V200.4H388.68V201.04ZM388.36 201.36H390.28V200.72H388.36V201.36ZM387.72 201.68L390.28 201.68L390.28 201.04L387.72 201.04L387.72 201.68ZM387.72 216.4H388.04V215.76H387.72V216.4ZM387.72 216.72H388.04V216.08H387.72V216.72ZM387.72 217.04H388.04V216.4H387.72V217.04ZM387.72 217.36H388.04V216.72H387.72V217.36ZM387.72 217.68H388.04V217.04H387.72V217.68ZM387.72 218H388.04V217.36H387.72V218ZM387.72 218.32H388.04V217.68H387.72V218.32ZM387.403 75.963L389.963 94.843L390.597 94.757L388.037 75.877L387.403 75.963ZM390.472 94.544L387.912 92.624L387.528 93.136L390.088 95.056L390.472 94.544ZM387.528 92.624L384.968 94.544L385.352 95.056L387.912 93.136L387.528 92.624ZM385.477 94.843L388.037 75.963L387.403 75.8771L384.843 94.757L385.477 94.843ZM387.72 76.56H388.04V75.92H387.72V76.56ZM387.72 76.88H388.04V76.24H387.72V76.88ZM387.72 77.2H388.04V76.56H387.72V77.2ZM387.72 77.52H388.04V76.88H387.72V77.52ZM387.72 77.84H388.04V77.2H387.72V77.84ZM387.72 78.16H388.04V77.52H387.72V78.16ZM387.72 78.48H388.04V77.84H387.72V78.48ZM387.72 93.2L390.28 93.2L390.28 92.56L387.72 92.56L387.72 93.2ZM388.36 93.52H390.28V92.88H388.36V93.52ZM388.68 93.84H390.28V93.2H388.68V93.84ZM389 94.16H390.28V93.52H389V94.16ZM389.64 94.48H390.28V93.84H389.64V94.48ZM389.96 94.8H390.28V94.16H389.96V94.8ZM385.48 93.2L387.72 93.2L387.72 92.56L385.48 92.56L385.48 93.2ZM385.48 93.52H387.4V92.88H385.48V93.52ZM385.48 93.84H387.08V93.2H385.48V93.84ZM385.48 94.16H386.44V93.52H385.48V94.16ZM385.48 94.48H386.12V93.84H385.48V94.48ZM385.48 94.8H385.8V94.16H385.48V94.8ZM388.04 218.32L388.04 75.92L387.4 75.92L387.4 218.32L388.04 218.32ZM385.48 202H390.28V201.36H385.48V202ZM385.8 202.32H389.96V201.68H385.8V202.32ZM385.8 202.64H389.96V202H385.8V202.64ZM385.8 202.96H389.96V202.32H385.8V202.96ZM385.8 203.28H389.96V202.64H385.8V203.28ZM385.8 203.6H389.96V202.96H385.8V203.6ZM385.8 203.92H389.96V203.28H385.8V203.92ZM385.8 204.24H389.96V203.6H385.8V204.24ZM386.12 204.56H389.64V203.92H386.12V204.56ZM386.12 204.88H389.64V204.24H386.12V204.88ZM386.12 205.2H389.64V204.56H386.12V205.2ZM386.12 205.52H389.64V204.88H386.12V205.52ZM386.12 205.84H389.64V205.2H386.12V205.84ZM386.12 206.16H389.64V205.52H386.12V206.16ZM386.12 206.48H389.64V205.84H386.12V206.48ZM386.12 206.8H389.64V206.16H386.12V206.8ZM386.44 207.12H389.32V206.48H386.44V207.12ZM386.44 207.44H389.32V206.8H386.44V207.44ZM386.44 207.76H389.32V207.12H386.44V207.76ZM386.44 208.08H389.32V207.44H386.44V208.08ZM386.44 208.4H389.32V207.76H386.44V208.4ZM386.44 208.72H389.32V208.08H386.44V208.72ZM386.44 209.04H389.32V208.4H386.44V209.04ZM386.76 209.36H389V208.72H386.76V209.36ZM386.76 209.68H389V209.04H386.76V209.68ZM386.76 210H389V209.36H386.76V210ZM386.76 210.32H389V209.68H386.76V210.32ZM386.76 210.64H389V210H386.76V210.64ZM386.76 210.96H389V210.32H386.76V210.96ZM386.76 211.28H389V210.64H386.76V211.28ZM387.08 211.6H388.68V210.96H387.08V211.6ZM387.08 211.92H388.68V211.28H387.08V211.92ZM387.08 212.24H388.68V211.6H387.08V212.24ZM387.08 212.56H388.68V211.92H387.08V212.56ZM387.08 212.88H388.68V212.24H387.08V212.88ZM387.08 213.2H388.68V212.56H387.08V213.2ZM387.08 213.52H388.68V212.88H387.08V213.52ZM387.08 213.84H388.68V213.2H387.08V213.84ZM387.4 214.16H388.36V213.52H387.4V214.16ZM387.4 214.48H388.36V213.84H387.4V214.48ZM387.4 214.8H388.36V214.16H387.4V214.8ZM387.4 215.12H388.36V214.48H387.4V215.12ZM387.4 215.44H388.36V214.8H387.4V215.44ZM387.4 215.76H388.36V215.12H387.4V215.76ZM387.4 216.08H388.36V215.44H387.4V216.08ZM387.4 78.8L388.36 78.8L388.36 78.16L387.4 78.16L387.4 78.8ZM387.4 79.12L388.36 79.12L388.36 78.48L387.4 78.48L387.4 79.12ZM387.4 79.44L388.36 79.44L388.36 78.8L387.4 78.8L387.4 79.44ZM387.4 79.76L388.36 79.76L388.36 79.12L387.4 79.12L387.4 79.76ZM387.4 80.08L388.36 80.08L388.36 79.44L387.4 79.44L387.4 80.08ZM387.4 80.4L388.36 80.4L388.36 79.76L387.4 79.76L387.4 80.4ZM387.4 80.72L388.36 80.72L388.36 80.08L387.4 80.08L387.4 80.72ZM387.08 81.04L388.68 81.04L388.68 80.4L387.08 80.4L387.08 81.04ZM387.08 81.36L388.68 81.36L388.68 80.72L387.08 80.72L387.08 81.36ZM387.08 81.68L388.68 81.68L388.68 81.04L387.08 81.04L387.08 81.68ZM387.08 82L388.68 82L388.68 81.36L387.08 81.36L387.08 82ZM387.08 82.32L388.68 82.32L388.68 81.68L387.08 81.68L387.08 82.32ZM387.08 82.64L388.68 82.64L388.68 82L387.08 82L387.08 82.64ZM387.08 82.96L388.68 82.96L388.68 82.32L387.08 82.32L387.08 82.96ZM387.08 83.28L388.68 83.28L388.68 82.64L387.08 82.64L387.08 83.28ZM386.76 83.6L389 83.6L389 82.96L386.76 82.96L386.76 83.6ZM386.76 83.92L389 83.92L389 83.28L386.76 83.28L386.76 83.92ZM386.76 84.24L389 84.24L389 83.6L386.76 83.6L386.76 84.24ZM386.76 84.56L389 84.56L389 83.92L386.76 83.92L386.76 84.56ZM386.76 84.88L389 84.88L389 84.24L386.76 84.24L386.76 84.88ZM386.76 85.2L389 85.2L389 84.56L386.76 84.56L386.76 85.2ZM386.76 85.52L389 85.52L389 84.88L386.76 84.88L386.76 85.52ZM386.44 85.84L389.32 85.84L389.32 85.2L386.44 85.2L386.44 85.84ZM386.44 86.16L389.32 86.16L389.32 85.52L386.44 85.52L386.44 86.16ZM386.44 86.48L389.32 86.48L389.32 85.84L386.44 85.84L386.44 86.48ZM386.44 86.8L389.32 86.8L389.32 86.16L386.44 86.16L386.44 86.8ZM386.44 87.12L389.32 87.12L389.32 86.48L386.44 86.48L386.44 87.12ZM386.44 87.44L389.32 87.44L389.32 86.8L386.44 86.8L386.44 87.44ZM386.44 87.76L389.32 87.76L389.32 87.12L386.44 87.12L386.44 87.76ZM386.12 88.08L389.64 88.08L389.64 87.44L386.12 87.44L386.12 88.08ZM386.12 88.4L389.64 88.4L389.64 87.76L386.12 87.76L386.12 88.4ZM386.12 88.72L389.64 88.72L389.64 88.08L386.12 88.08L386.12 88.72ZM386.12 89.04L389.64 89.04L389.64 88.4L386.12 88.4L386.12 89.04ZM386.12 89.36L389.64 89.36L389.64 88.72L386.12 88.72L386.12 89.36ZM386.12 89.68L389.64 89.68L389.64 89.04L386.12 89.04L386.12 89.68ZM386.12 90L389.64 90L389.64 89.36L386.12 89.36L386.12 90ZM386.12 90.32L389.64 90.32L389.64 89.68L386.12 89.68L386.12 90.32ZM385.8 90.64L389.96 90.64L389.96 90L385.8 90L385.8 90.64ZM385.8 90.96L389.96 90.96L389.96 90.32L385.8 90.32L385.8 90.96ZM385.8 91.28L389.96 91.28L389.96 90.64L385.8 90.64L385.8 91.28ZM385.8 91.6L389.96 91.6L389.96 90.96L385.8 90.96L385.8 91.6ZM385.8 91.92L389.96 91.92L389.96 91.28L385.8 91.28L385.8 91.92ZM385.8 92.24L389.96 92.24L389.96 91.6L385.8 91.6L385.8 92.24ZM385.8 92.56L389.96 92.56L389.96 91.92L385.8 91.92L385.8 92.56ZM385.48 92.88L390.28 92.88L390.28 92.24L385.48 92.24L385.48 92.88Z" fill="white"/>
    </g>
    <!--    12 L1-->
    <g class="group">
    </g>
    <!--    13 L2-->
    <g class="group">
    </g>
    <!--    14 S-->
    <g class="group">
    </g>
    <!--    15 S1-->
    <g class="group">
    </g>
    <!--    16 S2-->
    <g class="group">
    </g>
    <!--    17 S3-->
    <g class="group">
    </g>
    <!--    18 S4-->
    <g class="group">
    </g>
    <!--    19 I-->
    <g class="group">
        <path d="M0.535645 79.8022L20.7098 87.1456V89.6196L0.535645 82.2762V79.8022Z" fill="white"/>
        <path d="M66.7597 76.24C66.9365 76.24 67.0797 76.0968 67.0797 75.92C67.0797 75.7433 66.9365 75.6 66.7597 75.6V76.24ZM23.2397 75.6C23.063 75.6 22.9197 75.7433 22.9197 75.92C22.9197 76.0968 23.063 76.24 23.2397 76.24V75.6ZM66.7597 95.12C66.9365 95.12 67.0797 94.9768 67.0797 94.8C67.0797 94.6233 66.9365 94.48 66.7597 94.48V95.12ZM23.2397 94.48C23.063 94.48 22.9197 94.6233 22.9197 94.8C22.9197 94.9768 23.063 95.12 23.2397 95.12V94.48ZM0.535645 79.8022L0.645099 79.5015C0.54699 79.4658 0.437629 79.4802 0.352104 79.5401C0.266578 79.6 0.215645 79.6978 0.215645 79.8022H0.535645ZM20.7098 87.1456H21.0298C21.0298 87.0111 20.9457 86.8909 20.8193 86.8449L20.7098 87.1456ZM20.7098 89.6196L20.6003 89.9203C20.6985 89.956 20.8078 89.9416 20.8933 89.8817C20.9789 89.8218 21.0298 89.724 21.0298 89.6196H20.7098ZM0.535645 82.2762H0.215645C0.215645 82.4107 0.29978 82.5309 0.42619 82.5769L0.535645 82.2762ZM33.1601 57.04L33.4772 57.083C33.4945 56.9552 33.4334 56.8294 33.3221 56.7641C33.2109 56.6988 33.0713 56.7066 32.9681 56.784L33.1601 57.04ZM30.6001 58.96L30.6001 59.28L30.6001 59.28L30.6001 58.96ZM28.04 57.04L28.232 56.784C28.1288 56.7066 27.9892 56.6988 27.878 56.7641C27.7667 56.8294 27.7056 56.9552 27.7229 57.083L28.04 57.04ZM30.9201 49.36C30.9201 49.1833 30.7768 49.04 30.6001 49.04C30.4234 49.04 30.2801 49.1833 30.2801 49.36H30.9201ZM28.04 113.68L27.7229 113.637C27.7056 113.765 27.7667 113.891 27.878 113.956C27.9892 114.021 28.1288 114.013 28.232 113.936L28.04 113.68ZM33.1601 113.68L32.9681 113.936C33.0713 114.013 33.2109 114.021 33.3221 113.956C33.4334 113.891 33.4945 113.765 33.4772 113.637L33.1601 113.68ZM30.2801 121.36C30.2801 121.537 30.4234 121.68 30.6001 121.68C30.7768 121.68 30.9201 121.537 30.9201 121.36L30.2801 121.36ZM66.7597 75.6H23.2397V76.24H66.7597V75.6ZM66.7597 94.48H23.2397V95.12H66.7597V94.48ZM0.42619 80.1029L20.6003 87.4463L20.8193 86.8449L0.645099 79.5015L0.42619 80.1029ZM20.3898 87.1456V89.6196H21.0298V87.1456H20.3898ZM20.8193 89.3189L0.645099 81.9755L0.42619 82.5769L20.6003 89.9203L20.8193 89.3189ZM0.855645 82.2762V79.8022H0.215645V82.2762H0.855645ZM30.9172 75.963L33.4772 57.083L32.843 56.997L30.283 75.877L30.9172 75.963ZM32.9681 56.784L30.4081 58.704L30.7921 59.216L33.3521 57.296L32.9681 56.784ZM30.7921 58.704L28.232 56.784L27.848 57.296L30.4081 59.216L30.7921 58.704ZM27.7229 57.083L30.283 75.963L30.9172 75.877L28.3571 56.997L27.7229 57.083ZM30.9201 75.92V49.36H30.2801V75.92H30.9201ZM32.8401 57.68H33.1601V57.04H32.8401V57.68ZM32.5201 58H33.1601V57.36H32.5201V58ZM31.8801 58.32H33.1601V57.68H31.8801V58.32ZM31.5601 58.64H33.1601V58H31.5601V58.64ZM31.2401 58.96H33.1601V58.32H31.2401V58.96ZM30.6001 59.28L33.1601 59.28L33.1601 58.64L30.6001 58.64L30.6001 59.28ZM30.6001 74H30.9201V73.36H30.6001V74ZM30.6001 74.32H30.9201V73.68H30.6001V74.32ZM30.6001 74.64H30.9201V74H30.6001V74.64ZM30.6001 74.96H30.9201V74.32H30.6001V74.96ZM30.6001 75.28H30.9201V74.64H30.6001V75.28ZM30.6001 75.6H30.9201V74.96H30.6001V75.6ZM30.6001 75.92H30.9201V75.28H30.6001V75.92ZM28.3599 57.68H28.6799V57.04H28.3599V57.68ZM28.3599 58H28.9999V57.36H28.3599V58ZM28.3599 58.32H29.3199V57.68H28.3599V58.32ZM28.3599 58.64H29.9599V58H28.3599V58.64ZM28.3599 58.96H30.2799V58.32H28.3599V58.96ZM28.3598 59.28L30.6001 59.28L30.6001 58.64L28.3599 58.64L28.3598 59.28ZM30.2829 94.7571L27.7229 113.637L28.3571 113.723L30.9171 94.843L30.2829 94.7571ZM28.232 113.936L30.792 112.016L30.408 111.504L27.848 113.424L28.232 113.936ZM30.408 112.016L32.9681 113.936L33.3521 113.424L30.792 111.504L30.408 112.016ZM33.4772 113.637L30.9171 94.7571L30.2829 94.843L32.843 113.723L33.4772 113.637ZM30.28 94.8L30.2801 121.36L30.9201 121.36L30.92 94.8L30.28 94.8ZM28.3598 112.08L30.6 112.08L30.6 111.44L28.3599 111.44L28.3598 112.08ZM28.3599 112.4H30.2799V111.76H28.3599V112.4ZM28.3599 112.72H29.9599V112.08H28.3599V112.72ZM28.3599 113.04H29.3199V112.4H28.3599V113.04ZM28.3599 113.36H28.9999V112.72H28.3599V113.36ZM28.3599 113.68H28.6799V113.04H28.3599V113.68ZM30.6001 95.44H30.9201V94.8H30.6001V95.44ZM30.6001 95.76H30.9201V95.12H30.6001V95.76ZM30.6001 96.08H30.9201V95.44H30.6001V96.08ZM30.6001 96.4H30.9201V95.76H30.6001V96.4ZM30.6001 96.72H30.9201V96.08H30.6001V96.72ZM30.6001 97.04H30.9201V96.4H30.6001V97.04ZM30.6001 97.36H30.9201V96.72H30.6001V97.36ZM30.6 112.08L33.1601 112.08L33.1601 111.44L30.6 111.44L30.6 112.08ZM31.2401 112.4H33.1601V111.76H31.2401V112.4ZM31.5601 112.72H33.1601V112.08H31.5601V112.72ZM31.8801 113.04H33.1601V112.4H31.8801V113.04ZM32.5201 113.36H33.1601V112.72H32.5201V113.36ZM32.8401 113.68H33.1601V113.04H32.8401V113.68ZM30.2801 75.92L30.28 94.8L30.92 94.8L30.9201 75.92L30.2801 75.92ZM28.3599 59.6H33.1601V58.96H28.3599V59.6ZM28.6799 59.92H32.8401V59.28H28.6799V59.92ZM28.6799 60.24H32.8401V59.6H28.6799V60.24ZM28.6799 60.56H32.8401V59.92H28.6799V60.56ZM28.6799 60.88H32.8401V60.24H28.6799V60.88ZM28.6799 61.2H32.8401V60.56H28.6799V61.2ZM28.6799 61.52H32.8401V60.88H28.6799V61.52ZM28.6799 61.84H32.8401V61.2H28.6799V61.84ZM28.9999 62.16H32.5201V61.52H28.9999V62.16ZM28.9999 62.48H32.5201V61.84H28.9999V62.48ZM28.9999 62.8H32.5201V62.16H28.9999V62.8ZM28.9999 63.12H32.5201V62.48H28.9999V63.12ZM28.9999 63.44H32.5201V62.8H28.9999V63.44ZM28.9999 63.76H32.5201V63.12H28.9999V63.76ZM28.9999 64.08H32.5201V63.44H28.9999V64.08ZM28.9999 64.4H32.5201V63.76H28.9999V64.4ZM29.3199 64.72H32.2001V64.08H29.3199V64.72ZM29.3199 65.04H32.2001V64.4H29.3199V65.04ZM29.3199 65.36H32.2001V64.72H29.3199V65.36ZM29.3199 65.68H32.2001V65.04H29.3199V65.68ZM29.3199 66H32.2001V65.36H29.3199V66ZM29.3199 66.32H32.2001V65.68H29.3199V66.32ZM29.3199 66.64H32.2001V66H29.3199V66.64ZM29.6399 66.96H31.8801V66.32H29.6399V66.96ZM29.6399 67.28H31.8801V66.64H29.6399V67.28ZM29.6399 67.6H31.8801V66.96H29.6399V67.6ZM29.6399 67.92H31.8801V67.28H29.6399V67.92ZM29.6399 68.24H31.8801V67.6H29.6399V68.24ZM29.6399 68.56H31.8801V67.92H29.6399V68.56ZM29.6399 68.88H31.8801V68.24H29.6399V68.88ZM29.9599 69.2H31.5601V68.56H29.9599V69.2ZM29.9599 69.52H31.5601V68.88H29.9599V69.52ZM29.9599 69.84H31.5601V69.2H29.9599V69.84ZM29.9599 70.16H31.5601V69.52H29.9599V70.16ZM29.9599 70.48H31.5601V69.84H29.9599V70.48ZM29.9599 70.8H31.5601V70.16H29.9599V70.8ZM29.9599 71.12H31.5601V70.48H29.9599V71.12ZM29.9599 71.44H31.5601V70.8H29.9599V71.44ZM30.2799 71.76H31.2401V71.12H30.2799V71.76ZM30.2799 72.08H31.2401V71.44H30.2799V72.08ZM30.2799 72.4H31.2401V71.76H30.2799V72.4ZM30.2799 72.72H31.2401V72.08H30.2799V72.72ZM30.2799 73.04H31.2401V72.4H30.2799V73.04ZM30.2799 73.36H31.2401V72.72H30.2799V73.36ZM30.2799 73.68H31.2401V73.04H30.2799V73.68ZM30.2798 97.68L31.2401 97.68L31.2401 97.04L30.2799 97.04L30.2798 97.68ZM30.2798 98L31.2401 98L31.2401 97.36L30.2799 97.36L30.2798 98ZM30.2798 98.32L31.2401 98.32L31.2401 97.68L30.2799 97.68L30.2798 98.32ZM30.2798 98.64L31.2401 98.64L31.2401 98L30.2799 98L30.2798 98.64ZM30.2798 98.96L31.2401 98.96L31.2401 98.32L30.2799 98.32L30.2798 98.96ZM30.2798 99.28L31.2401 99.28L31.2401 98.64L30.2799 98.64L30.2798 99.28ZM30.2798 99.6L31.2401 99.6L31.2401 98.96L30.2799 98.96L30.2798 99.6ZM29.9599 99.92L31.5601 99.92L31.5601 99.28L29.9599 99.28L29.9599 99.92ZM29.9599 100.24L31.5601 100.24L31.5601 99.6L29.9599 99.6L29.9599 100.24ZM29.9599 100.56L31.5601 100.56L31.5601 99.92L29.9599 99.92L29.9599 100.56ZM29.9599 100.88L31.5601 100.88L31.5601 100.24L29.9599 100.24L29.9599 100.88ZM29.9599 101.2L31.5601 101.2L31.5601 100.56L29.9599 100.56L29.9599 101.2ZM29.9599 101.52L31.5601 101.52L31.5601 100.88L29.9599 100.88L29.9599 101.52ZM29.9598 101.84L31.5601 101.84L31.5601 101.2L29.9599 101.2L29.9598 101.84ZM29.9598 102.16L31.5601 102.16L31.5601 101.52L29.9599 101.52L29.9598 102.16ZM29.6399 102.48L31.8801 102.48L31.8801 101.84L29.6399 101.84L29.6399 102.48ZM29.6399 102.8L31.8801 102.8L31.8801 102.16L29.6399 102.16L29.6399 102.8ZM29.6399 103.12L31.8801 103.12L31.8801 102.48L29.6399 102.48L29.6399 103.12ZM29.6399 103.44L31.8801 103.44L31.8801 102.8L29.6399 102.8L29.6399 103.44ZM29.6399 103.76L31.8801 103.76L31.8801 103.12L29.6399 103.12L29.6399 103.76ZM29.6399 104.08L31.8801 104.08L31.8801 103.44L29.6399 103.44L29.6399 104.08ZM29.6399 104.4L31.8801 104.4L31.8801 103.76L29.6399 103.76L29.6399 104.4ZM29.3199 104.72L32.2001 104.72L32.2001 104.08L29.3199 104.08L29.3199 104.72ZM29.3199 105.04L32.2001 105.04L32.2001 104.4L29.3199 104.4L29.3199 105.04ZM29.3199 105.36L32.2001 105.36L32.2001 104.72L29.3199 104.72L29.3199 105.36ZM29.3199 105.68L32.2001 105.68L32.2001 105.04L29.3199 105.04L29.3199 105.68ZM29.3199 106L32.2001 106L32.2001 105.36L29.3199 105.36L29.3199 106ZM29.3199 106.32L32.2001 106.32L32.2001 105.68L29.3199 105.68L29.3199 106.32ZM29.3199 106.64L32.2001 106.64L32.2001 106L29.3199 106L29.3199 106.64ZM28.9999 106.96L32.5201 106.96L32.5201 106.32L28.9999 106.32L28.9999 106.96ZM28.9999 107.28L32.5201 107.28L32.5201 106.64L28.9999 106.64L28.9999 107.28ZM28.9999 107.6L32.5201 107.6L32.5201 106.96L28.9999 106.96L28.9999 107.6ZM28.9999 107.92L32.5201 107.92L32.5201 107.28L28.9999 107.28L28.9999 107.92ZM28.9999 108.24L32.5201 108.24L32.5201 107.6L28.9999 107.6L28.9999 108.24ZM28.9999 108.56L32.5201 108.56L32.5201 107.92L28.9999 107.92L28.9999 108.56ZM28.9999 108.88L32.5201 108.88L32.5201 108.24L28.9999 108.24L28.9999 108.88ZM28.9999 109.2L32.5201 109.2L32.5201 108.56L28.9999 108.56L28.9999 109.2ZM28.6799 109.52L32.8401 109.52L32.8401 108.88L28.6799 108.88L28.6799 109.52ZM28.6799 109.84L32.8401 109.84L32.8401 109.2L28.6799 109.2L28.6799 109.84ZM28.6799 110.16L32.8401 110.16L32.8401 109.52L28.6799 109.52L28.6799 110.16ZM28.6799 110.48L32.8401 110.48L32.8401 109.84L28.6799 109.84L28.6799 110.48ZM28.6799 110.8L32.8401 110.8L32.8401 110.16L28.6799 110.16L28.6799 110.8ZM28.6799 111.12L32.8401 111.12L32.8401 110.48L28.6799 110.48L28.6799 111.12ZM28.6799 111.44L32.8401 111.44L32.8401 110.8L28.6799 110.8L28.6799 111.44ZM28.3599 111.76L33.1601 111.76L33.1601 111.12L28.3599 111.12L28.3599 111.76Z" fill="white"/>
    </g>
    <!--    20 I1-->
    <g class="group">
        <path d="M204.95 18.0291L197.607 38.2032H195.133L202.476 18.0291H204.95Z" fill="white"/>
        <path d="M209.76 31.1654L204.822 44.7311H203.074L207.385 32.8876H207.3L202.975 35.0867L203.583 33.4175L208.012 31.1654H209.76Z" fill="white"/>
        <path d="M315.72 68.2401C315.72 68.4168 315.863 68.5601 316.04 68.5601C316.217 68.5601 316.36 68.4168 316.36 68.2401H315.72ZM316.36 45.2001C316.36 45.0233 316.217 44.8801 316.04 44.8801C315.863 44.8801 315.72 45.0233 315.72 45.2001H316.36ZM88.2 68.2401C88.2 68.4168 88.3433 68.5601 88.52 68.5601C88.6968 68.5601 88.84 68.4168 88.84 68.2401H88.2ZM88.84 45.2001C88.84 45.0233 88.6968 44.8801 88.52 44.8801C88.3433 44.8801 88.2 45.0233 88.2 45.2001H88.84ZM204.95 18.0291L205.251 18.1385C205.286 18.0404 205.272 17.931 205.212 17.8455C205.152 17.76 205.054 17.7091 204.95 17.7091V18.0291ZM197.607 38.2032V38.5232C197.741 38.5232 197.861 38.4391 197.907 38.3127L197.607 38.2032ZM195.133 38.2032L194.832 38.0938C194.796 38.1919 194.811 38.3012 194.87 38.3867C194.93 38.4723 195.028 38.5232 195.133 38.5232V38.2032ZM202.476 18.0291V17.7091C202.341 17.7091 202.221 17.7932 202.175 17.9196L202.476 18.0291ZM209.76 31.1654L210.06 31.2749C210.096 31.1768 210.082 31.0674 210.022 30.9819C209.962 30.8964 209.864 30.8454 209.76 30.8454V31.1654ZM204.822 44.7311V45.0511C204.956 45.0511 205.076 44.9669 205.122 44.8405L204.822 44.7311ZM203.074 44.7311L202.773 44.6216C202.737 44.7197 202.752 44.8291 202.812 44.9146C202.871 45.0001 202.969 45.0511 203.074 45.0511V44.7311ZM207.385 32.8876L207.685 32.9971C207.721 32.899 207.707 32.7896 207.647 32.7041C207.587 32.6186 207.489 32.5676 207.385 32.5676V32.8876ZM207.3 32.8876V32.5676C207.25 32.5676 207.2 32.5795 207.155 32.6024L207.3 32.8876ZM202.975 35.0867L202.674 34.9773C202.629 35.1008 202.665 35.2392 202.763 35.3263C202.861 35.4134 203.003 35.4316 203.12 35.372L202.975 35.0867ZM203.583 33.4175L203.438 33.1323C203.365 33.1691 203.31 33.2319 203.282 33.3081L203.583 33.4175ZM208.012 31.1654V30.8454C207.961 30.8454 207.911 30.8573 207.866 30.8802L208.012 31.1654ZM316.04 52.88L316.083 53.1971C316.242 53.1756 316.36 53.0401 316.36 52.88C316.36 52.7199 316.242 52.5844 316.083 52.5629L316.04 52.88ZM297.16 55.44L296.904 55.248C296.827 55.3512 296.819 55.4908 296.884 55.6021C296.95 55.7133 297.075 55.7744 297.203 55.7571L297.16 55.44ZM297.16 50.3201L297.203 50.003C297.075 49.9856 296.95 50.0468 296.884 50.158C296.819 50.2692 296.827 50.4088 296.904 50.5121L297.16 50.3201ZM88.52 52.8801L88.477 52.563C88.3184 52.5845 88.2 52.7199 88.2 52.8801C88.2 53.0402 88.3184 53.1756 88.477 53.1972L88.52 52.8801ZM107.4 50.3201L107.656 50.5121C107.733 50.4088 107.741 50.2692 107.676 50.158C107.611 50.0468 107.485 49.9856 107.357 50.003L107.4 50.3201ZM107.4 55.44L107.357 55.7571C107.485 55.7744 107.611 55.7133 107.676 55.602C107.741 55.4908 107.733 55.3512 107.656 55.248L107.4 55.44ZM316.36 68.2401V45.2001H315.72V68.2401H316.36ZM88.84 68.2401V45.2001H88.2V68.2401H88.84ZM204.649 17.9196L197.306 38.0938L197.907 38.3127L205.251 18.1385L204.649 17.9196ZM197.607 37.8832H195.133V38.5232H197.607V37.8832ZM195.433 38.3127L202.777 18.1385L202.175 17.9196L194.832 38.0938L195.433 38.3127ZM202.476 18.3491H204.95V17.7091H202.476V18.3491ZM209.459 31.056L204.521 44.6216L205.122 44.8405L210.06 31.2749L209.459 31.056ZM204.822 44.4111H203.074V45.0511H204.822V44.4111ZM203.374 44.8405L207.685 32.9971L207.084 32.7782L202.773 44.6216L203.374 44.8405ZM207.385 32.5676H207.3V33.2076H207.385V32.5676ZM207.155 32.6024L202.83 34.8015L203.12 35.372L207.445 33.1729L207.155 32.6024ZM203.276 35.1962L203.883 33.527L203.282 33.3081L202.674 34.9773L203.276 35.1962ZM203.728 33.7028L208.157 31.4507L207.866 30.8802L203.438 33.1323L203.728 33.7028ZM208.012 31.4854H209.76V30.8454H208.012V31.4854ZM315.997 52.5629L297.117 55.1229L297.203 55.7571L316.083 53.1971L315.997 52.5629ZM297.416 55.632L299.336 53.072L298.824 52.688L296.904 55.248L297.416 55.632ZM299.336 52.688L297.416 50.1281L296.904 50.5121L298.824 53.072L299.336 52.688ZM297.117 50.6372L315.997 53.1971L316.083 52.5629L297.203 50.003L297.117 50.6372ZM299.08 53.2H316.04V52.56H299.08V53.2ZM299.08 53.52H313.8V52.88H299.08V53.52ZM298.76 53.84H311.56V53.2H298.76V53.84ZM298.44 54.16H309V53.52H298.44V54.16ZM298.12 54.48H306.76V53.84H298.12V54.48ZM298.12 54.8H304.52V54.16H298.12V54.8ZM297.8 55.12H301.96V54.48H297.8V55.12ZM297.48 55.44H299.72V54.8H297.48V55.44ZM297.48 50.96H299.72V50.32H297.48V50.96ZM297.8 51.28H301.96V50.64H297.8V51.28ZM298.12 51.6H304.52V50.96H298.12V51.6ZM298.12 51.92H306.76V51.28H298.12V51.92ZM298.44 52.24H309V51.6H298.44V52.24ZM298.76 52.56H311.56V51.92H298.76V52.56ZM299.08 52.88H313.8V52.24H299.08V52.88ZM88.563 53.1972L107.443 50.6372L107.357 50.003L88.477 52.563L88.563 53.1972ZM107.144 50.1281L105.224 52.6881L105.736 53.0721L107.656 50.5121L107.144 50.1281ZM105.224 53.0721L107.144 55.632L107.656 55.248L105.736 52.6881L105.224 53.0721ZM107.443 55.1229L88.563 52.563L88.477 53.1972L107.357 55.7571L107.443 55.1229ZM105.16 50.96H107.4V50.32H105.16V50.96ZM102.92 51.28H107.08V50.64H102.92V51.28ZM100.36 51.6H106.76V50.96H100.36V51.6ZM98.1201 51.92H106.44V51.28H98.1201V51.92ZM95.8801 52.24H106.44V51.6H95.8801V52.24ZM93.3201 52.56H106.12V51.92H93.3201V52.56ZM91.0801 52.88H105.8V52.24H91.0801V52.88ZM88.52 53.2001H105.48V52.5601H88.52V53.2001ZM91.08 53.52H105.8V52.88H91.08V53.52ZM93.32 53.84H106.12V53.2H93.32V53.84ZM95.88 54.16H106.44V53.52H95.88V54.16ZM98.12 54.48H106.44V53.84H98.12V54.48ZM100.36 54.8H106.76V54.16H100.36V54.8ZM102.92 55.12H107.08V54.48H102.92V55.12ZM105.16 55.44H107.4V54.8H105.16V55.44ZM316.04 52.56L88.52 52.5601L88.52 53.2001L316.04 53.2L316.04 52.56Z" fill="white"/>
    </g>
    <!--    21 I2-->
    <g class="group">
    </g>
    <!--    22 H-->
    <g class="group">
    </g>
    <!--    23 H1-->
    <g class="group">
    </g>
    <!--    24 H2-->
    <g class="group">
    </g>
    <!--    25 h-->
    <g class="group">
    </g>
    <!--    26 h1-->
    <g class="group">
    </g>
    <!--    27 h2-->
    <g class="group">
    </g>
    <!--    28 R-->
    <g class="group">
    </g>
    <!--    29 Deg-->
    <g class="group">
    </g>
    <!--    29 DN-->
    <g class="group">
    </g>

</svg>
