<svg width="342" height="176" viewBox="0 0 342 176" fill="none" xmlns="http://www.w3.org/2000/svg">
<rect width="342" height="176" fill="none"/>
<path d="M113.968 81.76L113.488 74.8L113.968 81.76Z" stroke="white" stroke-width="1.68" stroke-linecap="round" stroke-linejoin="round"/>
<path d="M113.488 74.7998L112.045 67.8398L113.488 74.7998Z" stroke="white" stroke-width="1.68" stroke-linecap="round" stroke-linejoin="round"/>
<path d="M112.046 67.8399L109.642 61.1199L112.046 67.8399Z" stroke="white" stroke-width="1.68" stroke-linecap="round" stroke-linejoin="round"/>
<path d="M109.641 61.1199L106.516 54.6399L109.641 61.1199Z" stroke="white" stroke-width="1.68" stroke-linecap="round" stroke-linejoin="round"/>
<path d="M106.516 54.6399L102.43 48.8799L106.516 54.6399Z" stroke="white" stroke-width="1.68" stroke-linecap="round" stroke-linejoin="round"/>
<path d="M102.43 48.8799L97.6216 43.5999L102.43 48.8799Z" stroke="white" stroke-width="1.68" stroke-linecap="round" stroke-linejoin="round"/>
<path d="M97.6215 43.6001L92.0923 38.8L97.6215 43.6001Z" stroke="white" stroke-width="1.68" stroke-linecap="round" stroke-linejoin="round"/>
<path d="M92.0921 38.7999L86.082 35.2L92.0921 38.7999Z" stroke="white" stroke-width="1.68" stroke-linecap="round" stroke-linejoin="round"/>
<path d="M86.0821 35.1998L79.5913 32.0798L86.0821 35.1998Z" stroke="white" stroke-width="1.68" stroke-linecap="round" stroke-linejoin="round"/>
<path d="M79.5913 32.0799L72.6196 30.1599L79.5913 32.0799Z" stroke="white" stroke-width="1.68" stroke-linecap="round" stroke-linejoin="round"/>
<path d="M72.6196 30.16L65.6479 28.96L72.6196 30.16Z" stroke="white" stroke-width="1.68" stroke-linecap="round" stroke-linejoin="round"/>
<path d="M65.6481 28.96L58.436 28.72L65.6481 28.96Z" stroke="white" stroke-width="1.68" stroke-linecap="round" stroke-linejoin="round"/>
<path d="M58.436 28.72L51.4644 29.44L58.436 28.72Z" stroke="white" stroke-width="1.68" stroke-linecap="round" stroke-linejoin="round"/>
<path d="M51.4643 29.4399L44.4927 31.3599L51.4643 29.4399Z" stroke="white" stroke-width="1.68" stroke-linecap="round" stroke-linejoin="round"/>
<path d="M44.493 31.3599L37.7617 33.9999L44.493 31.3599Z" stroke="white" stroke-width="1.68" stroke-linecap="round" stroke-linejoin="round"/>
<path d="M37.7616 34L31.5112 37.36L37.7616 34Z" stroke="white" stroke-width="1.68" stroke-linecap="round" stroke-linejoin="round"/>
<path d="M31.5113 37.3599L25.7417 41.6799L31.5113 37.3599Z" stroke="white" stroke-width="1.68" stroke-linecap="round" stroke-linejoin="round"/>
<path d="M25.7413 41.6799L20.6929 46.7199L25.7413 41.6799Z" stroke="white" stroke-width="1.68" stroke-linecap="round" stroke-linejoin="round"/>
<path d="M20.6929 46.72L16.3657 52.48L20.6929 46.72Z" stroke="white" stroke-width="1.68" stroke-linecap="round" stroke-linejoin="round"/>
<path d="M16.3658 52.48L12.7598 58.48L16.3658 52.48Z" stroke="white" stroke-width="1.68" stroke-linecap="round" stroke-linejoin="round"/>
<path d="M12.7596 58.48L10.1152 65.2L12.7596 58.48Z" stroke="white" stroke-width="1.68" stroke-linecap="round" stroke-linejoin="round"/>
<path d="M10.1154 65.2L8.43262 72.1599L10.1154 65.2Z" stroke="white" stroke-width="1.68" stroke-linecap="round" stroke-linejoin="round"/>
<path d="M8.43279 72.1599L7.47119 79.1199L8.43279 72.1599Z" stroke="white" stroke-width="1.68" stroke-linecap="round" stroke-linejoin="round"/>
<path d="M7.47119 79.1199L7.71119 86.3199L7.47119 79.1199Z" stroke="white" stroke-width="1.68" stroke-linecap="round" stroke-linejoin="round"/>
<path d="M7.71143 86.3198L8.67302 93.5198L7.71143 86.3198Z" stroke="white" stroke-width="1.68" stroke-linecap="round" stroke-linejoin="round"/>
<path d="M8.67285 93.52L10.8365 100.24L8.67285 93.52Z" stroke="white" stroke-width="1.68" stroke-linecap="round" stroke-linejoin="round"/>
<path d="M10.8364 100.24L13.7213 106.72L10.8364 100.24Z" stroke="white" stroke-width="1.68" stroke-linecap="round" stroke-linejoin="round"/>
<path d="M13.7217 106.72L17.5681 112.96L13.7217 106.72Z" stroke="white" stroke-width="1.68" stroke-linecap="round" stroke-linejoin="round"/>
<path d="M17.5679 112.96L22.1355 118.24L17.5679 112.96Z" stroke="white" stroke-width="1.68" stroke-linecap="round" stroke-linejoin="round"/>
<path d="M22.1357 118.24L27.1842 123.28L22.1357 118.24Z" stroke="white" stroke-width="1.68" stroke-linecap="round" stroke-linejoin="round"/>
<path d="M27.1841 123.28L33.1941 127.36L27.1841 123.28Z" stroke="white" stroke-width="1.68" stroke-linecap="round" stroke-linejoin="round"/>
<path d="M33.1938 127.36L39.4443 130.48L33.1938 127.36Z" stroke="white" stroke-width="1.68" stroke-linecap="round" stroke-linejoin="round"/>
<path d="M39.4443 130.48L46.1756 132.88L39.4443 130.48Z" stroke="white" stroke-width="1.68" stroke-linecap="round" stroke-linejoin="round"/>
<path d="M46.1758 132.88L53.1474 134.56L46.1758 132.88Z" stroke="white" stroke-width="1.68" stroke-linecap="round" stroke-linejoin="round"/>
<path d="M53.1475 134.56L60.3595 135.04L53.1475 134.56Z" stroke="white" stroke-width="1.68" stroke-linecap="round" stroke-linejoin="round"/>
<path d="M60.3594 135.04L67.5714 134.56L60.3594 135.04Z" stroke="white" stroke-width="1.68" stroke-linecap="round" stroke-linejoin="round"/>
<path d="M67.5713 134.56L74.5429 133.12L67.5713 134.56Z" stroke="white" stroke-width="1.68" stroke-linecap="round" stroke-linejoin="round"/>
<path d="M74.543 133.12L81.2742 130.96L74.543 133.12Z" stroke="white" stroke-width="1.68" stroke-linecap="round" stroke-linejoin="round"/>
<path d="M81.2739 130.96L87.7648 127.84L81.2739 130.96Z" stroke="white" stroke-width="1.68" stroke-linecap="round" stroke-linejoin="round"/>
<path d="M87.7651 127.84L93.5347 123.76L87.7651 127.84Z" stroke="white" stroke-width="1.68" stroke-linecap="round" stroke-linejoin="round"/>
<path d="M93.5347 123.76L98.8235 118.96L93.5347 123.76Z" stroke="white" stroke-width="1.68" stroke-linecap="round" stroke-linejoin="round"/>
<path d="M98.8232 118.96L103.631 113.44L98.8232 118.96Z" stroke="white" stroke-width="1.68" stroke-linecap="round" stroke-linejoin="round"/>
<path d="M103.631 113.44L107.478 107.44L103.631 113.44Z" stroke="white" stroke-width="1.68" stroke-linecap="round" stroke-linejoin="round"/>
<path d="M107.478 107.44L110.363 100.96L107.478 107.44Z" stroke="white" stroke-width="1.68" stroke-linecap="round" stroke-linejoin="round"/>
<path d="M110.363 100.96L112.526 94.24L110.363 100.96Z" stroke="white" stroke-width="1.68" stroke-linecap="round" stroke-linejoin="round"/>
<path d="M112.526 94.24L113.728 87.28L112.526 94.24Z" stroke="white" stroke-width="1.68" stroke-linecap="round" stroke-linejoin="round"/>
<path d="M113.729 87.28L113.969 81.76L113.729 87.28Z" stroke="white" stroke-width="1.68" stroke-linecap="round" stroke-linejoin="round"/>
<path d="M109.881 81.76L109.401 75.04L109.881 81.76Z" stroke="white" stroke-width="1.68" stroke-linecap="round" stroke-linejoin="round"/>
<path d="M109.401 75.0398L107.958 68.3198L109.401 75.0398Z" stroke="white" stroke-width="1.68" stroke-linecap="round" stroke-linejoin="round"/>
<path d="M107.959 68.3198L105.795 61.8398L107.959 68.3198Z" stroke="white" stroke-width="1.68" stroke-linecap="round" stroke-linejoin="round"/>
<path d="M105.795 61.8398L102.43 55.8398L105.795 61.8398Z" stroke="white" stroke-width="1.68" stroke-linecap="round" stroke-linejoin="round"/>
<path d="M102.43 55.8398L98.3428 50.3198L102.43 55.8398Z" stroke="white" stroke-width="1.68" stroke-linecap="round" stroke-linejoin="round"/>
<path d="M98.3427 50.32L93.5347 45.28L98.3427 50.32Z" stroke="white" stroke-width="1.68" stroke-linecap="round" stroke-linejoin="round"/>
<path d="M93.5344 45.28L88.2456 41.2L93.5344 45.28Z" stroke="white" stroke-width="1.68" stroke-linecap="round" stroke-linejoin="round"/>
<path d="M88.2459 41.1998L82.2358 37.5999L88.2459 41.1998Z" stroke="white" stroke-width="1.68" stroke-linecap="round" stroke-linejoin="round"/>
<path d="M82.2358 37.5999L75.9854 35.2L82.2358 37.5999Z" stroke="white" stroke-width="1.68" stroke-linecap="round" stroke-linejoin="round"/>
<path d="M75.9851 35.2L69.2539 33.52L75.9851 35.2Z" stroke="white" stroke-width="1.68" stroke-linecap="round" stroke-linejoin="round"/>
<path d="M69.2543 33.5201L62.2827 32.8L69.2543 33.5201Z" stroke="white" stroke-width="1.68" stroke-linecap="round" stroke-linejoin="round"/>
<path d="M62.2825 32.8L55.5513 33.04L62.2825 32.8Z" stroke="white" stroke-width="1.68" stroke-linecap="round" stroke-linejoin="round"/>
<path d="M55.5511 33.04L48.8198 34.24L55.5511 33.04Z" stroke="white" stroke-width="1.68" stroke-linecap="round" stroke-linejoin="round"/>
<path d="M48.8201 34.24L42.0889 36.4L48.8201 34.24Z" stroke="white" stroke-width="1.68" stroke-linecap="round" stroke-linejoin="round"/>
<path d="M42.0887 36.3999L36.0786 39.2799L42.0887 36.3999Z" stroke="white" stroke-width="1.68" stroke-linecap="round" stroke-linejoin="round"/>
<path d="M36.0787 39.28L30.3091 43.12L36.0787 39.28Z" stroke="white" stroke-width="1.68" stroke-linecap="round" stroke-linejoin="round"/>
<path d="M30.3092 43.1199L25.2607 47.9199L30.3092 43.1199Z" stroke="white" stroke-width="1.68" stroke-linecap="round" stroke-linejoin="round"/>
<path d="M25.2608 47.9199L20.9336 53.1999L25.2608 47.9199Z" stroke="white" stroke-width="1.68" stroke-linecap="round" stroke-linejoin="round"/>
<path d="M20.9333 53.2L17.0869 58.9599L20.9333 53.2Z" stroke="white" stroke-width="1.68" stroke-linecap="round" stroke-linejoin="round"/>
<path d="M17.0873 58.96L14.4429 65.2L17.0873 58.96Z" stroke="white" stroke-width="1.68" stroke-linecap="round" stroke-linejoin="round"/>
<path d="M14.4427 65.2L12.5195 71.92L14.4427 65.2Z" stroke="white" stroke-width="1.68" stroke-linecap="round" stroke-linejoin="round"/>
<path d="M12.5192 71.9199L11.5576 78.6399L12.5192 71.9199Z" stroke="white" stroke-width="1.68" stroke-linecap="round" stroke-linejoin="round"/>
<path d="M11.5576 78.6399V85.5999V78.6399Z" stroke="white" stroke-width="1.68" stroke-linecap="round" stroke-linejoin="round"/>
<path d="M11.5576 85.5999L12.5192 92.3199L11.5576 85.5999Z" stroke="white" stroke-width="1.68" stroke-linecap="round" stroke-linejoin="round"/>
<path d="M12.5195 92.3198L14.4427 98.7998L12.5195 92.3198Z" stroke="white" stroke-width="1.68" stroke-linecap="round" stroke-linejoin="round"/>
<path d="M14.4429 98.8L17.3277 105.04L14.4429 98.8Z" stroke="white" stroke-width="1.68" stroke-linecap="round" stroke-linejoin="round"/>
<path d="M17.3276 105.04L20.9337 111.04L17.3276 105.04Z" stroke="white" stroke-width="1.68" stroke-linecap="round" stroke-linejoin="round"/>
<path d="M20.9336 111.04L25.5012 116.08L20.9336 111.04Z" stroke="white" stroke-width="1.68" stroke-linecap="round" stroke-linejoin="round"/>
<path d="M25.501 116.08L30.5494 120.64L25.501 116.08Z" stroke="white" stroke-width="1.68" stroke-linecap="round" stroke-linejoin="round"/>
<path d="M30.5493 120.64L36.3189 124.48L30.5493 120.64Z" stroke="white" stroke-width="1.68" stroke-linecap="round" stroke-linejoin="round"/>
<path d="M36.3193 124.48L42.5697 127.6L36.3193 124.48Z" stroke="white" stroke-width="1.68" stroke-linecap="round" stroke-linejoin="round"/>
<path d="M42.5693 127.6L49.0602 129.52L42.5693 127.6Z" stroke="white" stroke-width="1.68" stroke-linecap="round" stroke-linejoin="round"/>
<path d="M49.0605 129.52L55.7918 130.72L49.0605 129.52Z" stroke="white" stroke-width="1.68" stroke-linecap="round" stroke-linejoin="round"/>
<path d="M55.7915 130.72L62.7631 130.96L55.7915 130.72Z" stroke="white" stroke-width="1.68" stroke-linecap="round" stroke-linejoin="round"/>
<path d="M62.7632 130.96L69.4944 130.24L62.7632 130.96Z" stroke="white" stroke-width="1.68" stroke-linecap="round" stroke-linejoin="round"/>
<path d="M69.4946 130.24L76.2259 128.56L69.4946 130.24Z" stroke="white" stroke-width="1.68" stroke-linecap="round" stroke-linejoin="round"/>
<path d="M76.2256 128.56L82.7164 125.92L76.2256 128.56Z" stroke="white" stroke-width="1.68" stroke-linecap="round" stroke-linejoin="round"/>
<path d="M82.7168 125.92L88.4864 122.32L82.7168 125.92Z" stroke="white" stroke-width="1.68" stroke-linecap="round" stroke-linejoin="round"/>
<path d="M88.4863 122.32L94.0156 118.24L88.4863 122.32Z" stroke="white" stroke-width="1.68" stroke-linecap="round" stroke-linejoin="round"/>
<path d="M94.0156 118.24L98.5832 113.2L94.0156 118.24Z" stroke="white" stroke-width="1.68" stroke-linecap="round" stroke-linejoin="round"/>
<path d="M98.583 113.2L102.67 107.68L98.583 113.2Z" stroke="white" stroke-width="1.68" stroke-linecap="round" stroke-linejoin="round"/>
<path d="M102.67 107.68L105.795 101.44L102.67 107.68Z" stroke="white" stroke-width="1.68" stroke-linecap="round" stroke-linejoin="round"/>
<path d="M105.795 101.44L108.199 94.96L105.795 101.44Z" stroke="white" stroke-width="1.68" stroke-linecap="round" stroke-linejoin="round"/>
<path d="M108.199 94.96L109.642 88.24L108.199 94.96Z" stroke="white" stroke-width="1.68" stroke-linecap="round" stroke-linejoin="round"/>
<path d="M109.642 88.24L109.882 81.76L109.642 88.24Z" stroke="white" stroke-width="1.68" stroke-linecap="round" stroke-linejoin="round"/>
<path d="M111.324 90.8799L112.045 83.9199L111.324 90.8799Z" stroke="white" stroke-width="0.72" stroke-linecap="round" stroke-linejoin="round"/>
<path d="M112.045 83.92L111.805 76.72L112.045 83.92Z" stroke="white" stroke-width="0.72" stroke-linecap="round" stroke-linejoin="round"/>
<path d="M111.805 76.72L110.603 69.76L111.805 76.72Z" stroke="white" stroke-width="0.72" stroke-linecap="round" stroke-linejoin="round"/>
<path d="M110.603 69.76L108.68 63.28L110.603 69.76Z" stroke="white" stroke-width="0.72" stroke-linecap="round" stroke-linejoin="round"/>
<path d="M108.68 63.28L105.555 56.8L108.68 63.28Z" stroke="white" stroke-width="0.72" stroke-linecap="round" stroke-linejoin="round"/>
<path d="M105.555 56.8L101.708 51.04L105.555 56.8Z" stroke="white" stroke-width="0.72" stroke-linecap="round" stroke-linejoin="round"/>
<path d="M101.708 51.04L97.1406 45.76L101.708 51.04Z" stroke="white" stroke-width="0.72" stroke-linecap="round" stroke-linejoin="round"/>
<path d="M97.1404 45.76L91.8516 40.96L97.1404 45.76Z" stroke="white" stroke-width="0.72" stroke-linecap="round" stroke-linejoin="round"/>
<path d="M91.8517 40.9599L86.082 37.1199L91.8517 40.9599Z" stroke="white" stroke-width="0.72" stroke-linecap="round" stroke-linejoin="round"/>
<path d="M86.0821 37.12L79.5913 34.24L86.0821 37.12Z" stroke="white" stroke-width="0.72" stroke-linecap="round" stroke-linejoin="round"/>
<path d="M79.5916 34.2398L72.8604 32.0798L79.5916 34.2398Z" stroke="white" stroke-width="0.72" stroke-linecap="round" stroke-linejoin="round"/>
<path d="M72.8601 32.0799L66.1289 30.8799L72.8601 32.0799Z" stroke="white" stroke-width="0.72" stroke-linecap="round" stroke-linejoin="round"/>
<path d="M66.129 30.8799L58.917 30.6399L66.129 30.8799Z" stroke="white" stroke-width="0.72" stroke-linecap="round" stroke-linejoin="round"/>
<path d="M58.9169 30.6399L51.9453 31.3599L58.9169 30.6399Z" stroke="white" stroke-width="0.72" stroke-linecap="round" stroke-linejoin="round"/>
<path d="M51.9451 31.3599L45.2139 33.0399L51.9451 31.3599Z" stroke="white" stroke-width="0.72" stroke-linecap="round" stroke-linejoin="round"/>
<path d="M45.214 33.04L38.7231 35.44L45.214 33.04Z" stroke="white" stroke-width="0.72" stroke-linecap="round" stroke-linejoin="round"/>
<path d="M38.7231 35.4399L32.4727 39.0399L38.7231 35.4399Z" stroke="white" stroke-width="0.72" stroke-linecap="round" stroke-linejoin="round"/>
<path d="M32.4726 39.04L26.9434 43.12L32.4726 39.04Z" stroke="white" stroke-width="0.72" stroke-linecap="round" stroke-linejoin="round"/>
<path d="M26.9434 43.1199L21.895 48.1599L26.9434 43.1199Z" stroke="white" stroke-width="0.72" stroke-linecap="round" stroke-linejoin="round"/>
<path d="M21.8949 48.1599L17.8081 53.6799L21.8949 48.1599Z" stroke="white" stroke-width="0.72" stroke-linecap="round" stroke-linejoin="round"/>
<path d="M17.8082 53.6799L14.2021 59.9199L17.8082 53.6799Z" stroke="white" stroke-width="0.72" stroke-linecap="round" stroke-linejoin="round"/>
<path d="M14.2023 59.9199L11.7983 66.3999L14.2023 59.9199Z" stroke="white" stroke-width="0.72" stroke-linecap="round" stroke-linejoin="round"/>
<path d="M11.798 66.3999L10.1152 73.1199L11.798 66.3999Z" stroke="white" stroke-width="0.72" stroke-linecap="round" stroke-linejoin="round"/>
<path d="M10.1152 73.1199L9.39404 80.0799L10.1152 73.1199Z" stroke="white" stroke-width="0.72" stroke-linecap="round" stroke-linejoin="round"/>
<path d="M9.39404 80.0798L9.63404 87.2798L9.39404 80.0798Z" stroke="white" stroke-width="0.72" stroke-linecap="round" stroke-linejoin="round"/>
<path d="M9.63477 87.28L10.8368 94L9.63477 87.28Z" stroke="white" stroke-width="0.72" stroke-linecap="round" stroke-linejoin="round"/>
<path d="M10.8364 94L13 100.72L10.8364 94Z" stroke="white" stroke-width="0.72" stroke-linecap="round" stroke-linejoin="round"/>
<path d="M13 100.72L15.8848 107.2L13 100.72Z" stroke="white" stroke-width="0.72" stroke-linecap="round" stroke-linejoin="round"/>
<path d="M15.8853 107.2L19.9721 112.96L15.8853 107.2Z" stroke="white" stroke-width="0.72" stroke-linecap="round" stroke-linejoin="round"/>
<path d="M19.9717 112.96L24.5393 118.24L19.9717 112.96Z" stroke="white" stroke-width="0.72" stroke-linecap="round" stroke-linejoin="round"/>
<path d="M24.5396 118.24L29.8284 122.8L24.5396 118.24Z" stroke="white" stroke-width="0.72" stroke-linecap="round" stroke-linejoin="round"/>
<path d="M29.8281 122.8L35.5977 126.64L29.8281 122.8Z" stroke="white" stroke-width="0.72" stroke-linecap="round" stroke-linejoin="round"/>
<path d="M35.5981 126.64L42.089 129.76L35.5981 126.64Z" stroke="white" stroke-width="0.72" stroke-linecap="round" stroke-linejoin="round"/>
<path d="M42.0889 129.76L48.8201 131.68L42.0889 129.76Z" stroke="white" stroke-width="0.72" stroke-linecap="round" stroke-linejoin="round"/>
<path d="M48.8198 131.68L51.7046 132.4L48.8198 131.68Z" stroke="white" stroke-width="0.72" stroke-linecap="round" stroke-linejoin="round"/>
<path d="M60.8398 22.24V42.64V22.24Z" stroke="white" stroke-width="0.48" stroke-linecap="round" stroke-linejoin="round"/>
<path d="M60.8398 46.72V51.04V46.72Z" stroke="white" stroke-width="0.48" stroke-linecap="round" stroke-linejoin="round"/>
<path d="M60.8398 55.3599V75.5199V55.3599Z" stroke="white" stroke-width="0.48" stroke-linecap="round" stroke-linejoin="round"/>
<path d="M60.8398 79.8398V83.9198V79.8398Z" stroke="white" stroke-width="0.48" stroke-linecap="round" stroke-linejoin="round"/>
<path d="M60.8398 88.24V108.4V88.24Z" stroke="white" stroke-width="0.48" stroke-linecap="round" stroke-linejoin="round"/>
<path d="M60.8398 112.72V117.04V112.72Z" stroke="white" stroke-width="0.48" stroke-linecap="round" stroke-linejoin="round"/>
<path d="M60.8398 121.12V141.28V121.12Z" stroke="white" stroke-width="0.48" stroke-linecap="round" stroke-linejoin="round"/>
<path d="M1.2207 81.76H21.4144H1.2207Z" stroke="white" stroke-width="0.48" stroke-linecap="round" stroke-linejoin="round"/>
<path d="M25.501 81.76H29.8282H25.501Z" stroke="white" stroke-width="0.48" stroke-linecap="round" stroke-linejoin="round"/>
<path d="M34.1558 81.76H54.3495H34.1558Z" stroke="white" stroke-width="0.48" stroke-linecap="round" stroke-linejoin="round"/>
<path d="M58.6763 81.76H62.7631H58.6763Z" stroke="white" stroke-width="0.48" stroke-linecap="round" stroke-linejoin="round"/>
<path d="M67.0903 81.76H87.284H67.0903Z" stroke="white" stroke-width="0.48" stroke-linecap="round" stroke-linejoin="round"/>
<path d="M91.6113 81.76H95.9385H91.6113Z" stroke="white" stroke-width="0.48" stroke-linecap="round" stroke-linejoin="round"/>
<path d="M100.025 81.76H120.459H100.025Z" stroke="white" stroke-width="0.48" stroke-linecap="round" stroke-linejoin="round"/>
<path d="M297.154 128.56V43.5999V128.56Z" stroke="white" stroke-width="0.72" stroke-linecap="round" stroke-linejoin="round"/>
<path d="M190.657 128.56H297.154H190.657Z" stroke="white" stroke-width="1.68" stroke-linecap="round" stroke-linejoin="round"/>
<path d="M190.657 128.56V43.5999V128.56Z" stroke="white" stroke-width="0.72" stroke-linecap="round" stroke-linejoin="round"/>
<path d="M190.657 43.5999H297.154H190.657Z" stroke="white" stroke-width="1.68" stroke-linecap="round" stroke-linejoin="round"/>
<path d="M199.311 43.5999V94.4799V43.5999Z" stroke="white" stroke-width="1.68" stroke-linecap="round" stroke-linejoin="round"/>
<path d="M263.258 43.5999L262.537 48.1599L263.258 43.5999Z" stroke="white" stroke-width="0.48" stroke-linecap="round" stroke-linejoin="round"/>
<path d="M262.537 48.1599V48.6399V48.1599Z" stroke="white" stroke-width="0.48" stroke-linecap="round" stroke-linejoin="round"/>
<path d="M262.537 48.6399V48.8799V48.6399Z" stroke="white" stroke-width="0.48" stroke-linecap="round" stroke-linejoin="round"/>
<path d="M262.536 48.8799L262.296 49.1199L262.536 48.8799Z" stroke="white" stroke-width="0.48" stroke-linecap="round" stroke-linejoin="round"/>
<path d="M262.296 49.1199V49.5999V49.1199Z" stroke="white" stroke-width="0.48" stroke-linecap="round" stroke-linejoin="round"/>
<path d="M262.295 49.5999L261.815 50.7999L262.295 49.5999Z" stroke="white" stroke-width="0.48" stroke-linecap="round" stroke-linejoin="round"/>
<path d="M261.815 50.8V51.04V50.8Z" stroke="white" stroke-width="0.48" stroke-linecap="round" stroke-linejoin="round"/>
<path d="M261.815 51.04L261.575 51.52L261.815 51.04Z" stroke="white" stroke-width="0.48" stroke-linecap="round" stroke-linejoin="round"/>
<path d="M261.574 51.52L261.334 52L261.574 51.52Z" stroke="white" stroke-width="0.48" stroke-linecap="round" stroke-linejoin="round"/>
<path d="M261.334 52L261.094 52.72L261.334 52Z" stroke="white" stroke-width="0.48" stroke-linecap="round" stroke-linejoin="round"/>
<path d="M261.094 52.72L260.854 52.96L261.094 52.72Z" stroke="white" stroke-width="0.48" stroke-linecap="round" stroke-linejoin="round"/>
<path d="M260.853 52.96L260.613 53.44L260.853 52.96Z" stroke="white" stroke-width="0.48" stroke-linecap="round" stroke-linejoin="round"/>
<path d="M260.613 53.4399L260.373 53.9199L260.613 53.4399Z" stroke="white" stroke-width="0.48" stroke-linecap="round" stroke-linejoin="round"/>
<path d="M260.372 53.9199L259.892 54.6399L260.372 53.9199Z" stroke="white" stroke-width="0.48" stroke-linecap="round" stroke-linejoin="round"/>
<path d="M259.892 54.6399V54.8799V54.6399Z" stroke="white" stroke-width="0.48" stroke-linecap="round" stroke-linejoin="round"/>
<path d="M259.892 54.8799L259.652 55.1199L259.892 54.8799Z" stroke="white" stroke-width="0.48" stroke-linecap="round" stroke-linejoin="round"/>
<path d="M259.651 55.1199L259.171 55.5999L259.651 55.1199Z" stroke="white" stroke-width="0.48" stroke-linecap="round" stroke-linejoin="round"/>
<path d="M259.17 55.5999L258.69 56.3199L259.17 55.5999Z" stroke="white" stroke-width="0.48" stroke-linecap="round" stroke-linejoin="round"/>
<path d="M258.69 56.3198L258.45 56.5598L258.69 56.3198Z" stroke="white" stroke-width="0.48" stroke-linecap="round" stroke-linejoin="round"/>
<path d="M258.449 56.5601L258.209 56.8001L258.449 56.5601Z" stroke="white" stroke-width="0.48" stroke-linecap="round" stroke-linejoin="round"/>
<path d="M258.209 56.8L257.729 57.28L258.209 56.8Z" stroke="white" stroke-width="0.48" stroke-linecap="round" stroke-linejoin="round"/>
<path d="M257.728 57.28L257.248 57.76L257.728 57.28Z" stroke="white" stroke-width="0.48" stroke-linecap="round" stroke-linejoin="round"/>
<path d="M257.248 57.76V58V57.76Z" stroke="white" stroke-width="0.48" stroke-linecap="round" stroke-linejoin="round"/>
<path d="M257.247 58H257.007H257.247Z" stroke="white" stroke-width="0.48" stroke-linecap="round" stroke-linejoin="round"/>
<path d="M257.007 58L256.767 58.24L257.007 58Z" stroke="white" stroke-width="0.48" stroke-linecap="round" stroke-linejoin="round"/>
<path d="M256.767 58.24L256.046 58.72L256.767 58.24Z" stroke="white" stroke-width="0.48" stroke-linecap="round" stroke-linejoin="round"/>
<path d="M256.046 58.72L255.325 59.44L256.046 58.72Z" stroke="white" stroke-width="0.48" stroke-linecap="round" stroke-linejoin="round"/>
<path d="M255.324 59.4399L255.084 59.6799L255.324 59.4399Z" stroke="white" stroke-width="0.48" stroke-linecap="round" stroke-linejoin="round"/>
<path d="M255.084 59.6799L254.844 59.9199L255.084 59.6799Z" stroke="white" stroke-width="0.48" stroke-linecap="round" stroke-linejoin="round"/>
<path d="M254.844 59.9199L254.123 60.3999L254.844 59.9199Z" stroke="white" stroke-width="0.48" stroke-linecap="round" stroke-linejoin="round"/>
<path d="M254.123 60.3999L253.161 60.8799L254.123 60.3999Z" stroke="white" stroke-width="0.48" stroke-linecap="round" stroke-linejoin="round"/>
<path d="M253.16 60.8799H252.92H253.16Z" stroke="white" stroke-width="0.48" stroke-linecap="round" stroke-linejoin="round"/>
<path d="M252.92 60.8799V61.1199V60.8799Z" stroke="white" stroke-width="0.48" stroke-linecap="round" stroke-linejoin="round"/>
<path d="M252.92 61.1199H252.68H252.92Z" stroke="white" stroke-width="0.48" stroke-linecap="round" stroke-linejoin="round"/>
<path d="M252.679 61.1199L252.199 61.3599L252.679 61.1199Z" stroke="white" stroke-width="0.48" stroke-linecap="round" stroke-linejoin="round"/>
<path d="M252.199 61.3599L251.238 61.8399L252.199 61.3599Z" stroke="white" stroke-width="0.48" stroke-linecap="round" stroke-linejoin="round"/>
<path d="M251.238 61.8398L249.314 62.7998L251.238 61.8398Z" stroke="white" stroke-width="0.48" stroke-linecap="round" stroke-linejoin="round"/>
<path d="M249.315 62.8L246.43 64.2401L249.315 62.8Z" stroke="white" stroke-width="0.48" stroke-linecap="round" stroke-linejoin="round"/>
<path d="M246.43 64.24L240.66 66.64L246.43 64.24Z" stroke="white" stroke-width="0.48" stroke-linecap="round" stroke-linejoin="round"/>
<path d="M240.66 66.6399L237.535 68.0799L240.66 66.6399Z" stroke="white" stroke-width="0.48" stroke-linecap="round" stroke-linejoin="round"/>
<path d="M237.535 68.0798L234.891 69.5198L237.535 68.0798Z" stroke="white" stroke-width="0.48" stroke-linecap="round" stroke-linejoin="round"/>
<path d="M234.89 69.52L234.65 69.76L234.89 69.52Z" stroke="white" stroke-width="0.48" stroke-linecap="round" stroke-linejoin="round"/>
<path d="M234.65 69.76H234.41H234.65Z" stroke="white" stroke-width="0.48" stroke-linecap="round" stroke-linejoin="round"/>
<path d="M234.41 69.76V70V69.76Z" stroke="white" stroke-width="0.48" stroke-linecap="round" stroke-linejoin="round"/>
<path d="M234.409 70H233.929H234.409Z" stroke="white" stroke-width="0.48" stroke-linecap="round" stroke-linejoin="round"/>
<path d="M233.928 70L233.448 70.48L233.928 70Z" stroke="white" stroke-width="0.48" stroke-linecap="round" stroke-linejoin="round"/>
<path d="M233.448 70.48L232.006 71.44L233.448 70.48Z" stroke="white" stroke-width="0.48" stroke-linecap="round" stroke-linejoin="round"/>
<path d="M232.006 71.4399L231.285 72.1599L232.006 71.4399Z" stroke="white" stroke-width="0.48" stroke-linecap="round" stroke-linejoin="round"/>
<path d="M231.284 72.1599H231.044H231.284Z" stroke="white" stroke-width="0.48" stroke-linecap="round" stroke-linejoin="round"/>
<path d="M231.044 72.1599L230.804 72.3999L231.044 72.1599Z" stroke="white" stroke-width="0.48" stroke-linecap="round" stroke-linejoin="round"/>
<path d="M230.803 72.3999L230.323 72.8799L230.803 72.3999Z" stroke="white" stroke-width="0.48" stroke-linecap="round" stroke-linejoin="round"/>
<path d="M230.323 72.8799L229.361 73.8399L230.323 72.8799Z" stroke="white" stroke-width="0.48" stroke-linecap="round" stroke-linejoin="round"/>
<path d="M229.361 73.8398L227.438 75.7598L229.361 73.8398Z" stroke="white" stroke-width="0.48" stroke-linecap="round" stroke-linejoin="round"/>
<path d="M227.438 75.76L224.313 78.88L227.438 75.76Z" stroke="white" stroke-width="0.48" stroke-linecap="round" stroke-linejoin="round"/>
<path d="M224.313 78.8799L218.543 85.3599L224.313 78.8799Z" stroke="white" stroke-width="0.48" stroke-linecap="round" stroke-linejoin="round"/>
<path d="M218.543 85.3599L216.62 87.2799L218.543 85.3599Z" stroke="white" stroke-width="0.48" stroke-linecap="round" stroke-linejoin="round"/>
<path d="M216.62 87.28L214.937 88.72L216.62 87.28Z" stroke="white" stroke-width="0.48" stroke-linecap="round" stroke-linejoin="round"/>
<path d="M214.937 88.72L214.697 88.96L214.937 88.72Z" stroke="white" stroke-width="0.48" stroke-linecap="round" stroke-linejoin="round"/>
<path d="M214.697 88.96L214.457 89.2L214.697 88.96Z" stroke="white" stroke-width="0.48" stroke-linecap="round" stroke-linejoin="round"/>
<path d="M214.457 89.2L213.735 89.6799L214.457 89.2Z" stroke="white" stroke-width="0.48" stroke-linecap="round" stroke-linejoin="round"/>
<path d="M213.735 89.6799L212.293 90.6399L213.735 89.6799Z" stroke="white" stroke-width="0.48" stroke-linecap="round" stroke-linejoin="round"/>
<path d="M212.293 90.6399L211.572 91.3599L212.293 90.6399Z" stroke="white" stroke-width="0.48" stroke-linecap="round" stroke-linejoin="round"/>
<path d="M211.571 91.3599H211.331H211.571Z" stroke="white" stroke-width="0.48" stroke-linecap="round" stroke-linejoin="round"/>
<path d="M211.331 91.3599L211.091 91.5999L211.331 91.3599Z" stroke="white" stroke-width="0.48" stroke-linecap="round" stroke-linejoin="round"/>
<path d="M211.09 91.5999L210.61 91.8399L211.09 91.5999Z" stroke="white" stroke-width="0.48" stroke-linecap="round" stroke-linejoin="round"/>
<path d="M210.61 91.8398L209.408 92.3198L210.61 91.8398Z" stroke="white" stroke-width="0.48" stroke-linecap="round" stroke-linejoin="round"/>
<path d="M209.408 92.3198L208.687 92.7998L209.408 92.3198Z" stroke="white" stroke-width="0.48" stroke-linecap="round" stroke-linejoin="round"/>
<path d="M208.686 92.8H208.446H208.686Z" stroke="white" stroke-width="0.48" stroke-linecap="round" stroke-linejoin="round"/>
<path d="M208.445 92.8L207.965 93.04L208.445 92.8Z" stroke="white" stroke-width="0.48" stroke-linecap="round" stroke-linejoin="round"/>
<path d="M207.965 93.04L207.004 93.28L207.965 93.04Z" stroke="white" stroke-width="0.48" stroke-linecap="round" stroke-linejoin="round"/>
<path d="M207.004 93.28L206.283 93.52L207.004 93.28Z" stroke="white" stroke-width="0.48" stroke-linecap="round" stroke-linejoin="round"/>
<path d="M206.283 93.52V93.76V93.52Z" stroke="white" stroke-width="0.48" stroke-linecap="round" stroke-linejoin="round"/>
<path d="M206.282 93.76H206.042H206.282Z" stroke="white" stroke-width="0.48" stroke-linecap="round" stroke-linejoin="round"/>
<path d="M206.042 93.76H205.802H206.042Z" stroke="white" stroke-width="0.48" stroke-linecap="round" stroke-linejoin="round"/>
<path d="M205.802 93.76H205.562H205.802Z" stroke="white" stroke-width="0.48" stroke-linecap="round" stroke-linejoin="round"/>
<path d="M205.562 93.76L204.6 94L205.562 93.76Z" stroke="white" stroke-width="0.48" stroke-linecap="round" stroke-linejoin="round"/>
<path d="M204.6 94L203.879 94.24L204.6 94Z" stroke="white" stroke-width="0.48" stroke-linecap="round" stroke-linejoin="round"/>
<path d="M203.878 94.24H203.638H203.878Z" stroke="white" stroke-width="0.48" stroke-linecap="round" stroke-linejoin="round"/>
<path d="M203.638 94.24H203.398H203.638Z" stroke="white" stroke-width="0.48" stroke-linecap="round" stroke-linejoin="round"/>
<path d="M203.397 94.24H202.917H203.397Z" stroke="white" stroke-width="0.48" stroke-linecap="round" stroke-linejoin="round"/>
<path d="M202.917 94.24L202.196 94.48L202.917 94.24Z" stroke="white" stroke-width="0.48" stroke-linecap="round" stroke-linejoin="round"/>
<path d="M202.196 94.48H201.234H202.196Z" stroke="white" stroke-width="0.48" stroke-linecap="round" stroke-linejoin="round"/>
<path d="M201.234 94.48H200.994H201.234Z" stroke="white" stroke-width="0.48" stroke-linecap="round" stroke-linejoin="round"/>
<path d="M200.993 94.48H200.513H200.993Z" stroke="white" stroke-width="0.48" stroke-linecap="round" stroke-linejoin="round"/>
<path d="M200.513 94.48H199.792H200.513Z" stroke="white" stroke-width="0.48" stroke-linecap="round" stroke-linejoin="round"/>
<path d="M199.792 94.48H198.83H199.792Z" stroke="white" stroke-width="0.48" stroke-linecap="round" stroke-linejoin="round"/>
<path d="M198.83 94.48H198.59H198.83Z" stroke="white" stroke-width="0.48" stroke-linecap="round" stroke-linejoin="round"/>
<path d="M198.59 94.48H198.35H198.59Z" stroke="white" stroke-width="0.48" stroke-linecap="round" stroke-linejoin="round"/>
<path d="M198.349 94.48L197.869 94.24L198.349 94.48Z" stroke="white" stroke-width="0.48" stroke-linecap="round" stroke-linejoin="round"/>
<path d="M197.869 94.24H197.147H197.869Z" stroke="white" stroke-width="0.48" stroke-linecap="round" stroke-linejoin="round"/>
<path d="M197.147 94.24L195.945 94L197.147 94.24Z" stroke="white" stroke-width="0.48" stroke-linecap="round" stroke-linejoin="round"/>
<path d="M195.945 94H195.705H195.945Z" stroke="white" stroke-width="0.48" stroke-linecap="round" stroke-linejoin="round"/>
<path d="M195.705 94H195.465H195.705Z" stroke="white" stroke-width="0.48" stroke-linecap="round" stroke-linejoin="round"/>
<path d="M195.465 94L194.744 93.76L195.465 94Z" stroke="white" stroke-width="0.48" stroke-linecap="round" stroke-linejoin="round"/>
<path d="M194.743 93.76L193.542 93.52L194.743 93.76Z" stroke="white" stroke-width="0.48" stroke-linecap="round" stroke-linejoin="round"/>
<path d="M193.541 93.5201L190.897 92.8L193.541 93.5201Z" stroke="white" stroke-width="0.48" stroke-linecap="round" stroke-linejoin="round"/>
<path d="M190.897 92.8001L190.657 92.5601L190.897 92.8001Z" stroke="white" stroke-width="0.48" stroke-linecap="round" stroke-linejoin="round"/>
<path d="M194.744 93.76V128.56V93.76Z" stroke="white" stroke-width="1.68" stroke-linecap="round" stroke-linejoin="round"/>
<path d="M293.067 47.6799L297.154 43.5999L293.067 47.6799Z" stroke="white" stroke-width="1.68" stroke-linecap="round" stroke-linejoin="round"/>
<path d="M293.067 47.6799V128.56V47.6799Z" stroke="white" stroke-width="1.68" stroke-linecap="round" stroke-linejoin="round"/>
<path d="M293.067 47.6799H262.777H293.067Z" stroke="white" stroke-width="1.68" stroke-linecap="round" stroke-linejoin="round"/>
<path d="M244.026 134.32V111.04V134.32Z" stroke="white" stroke-width="0.48" stroke-linecap="round" stroke-linejoin="round"/>
<path d="M244.026 106.72V101.92V106.72Z" stroke="white" stroke-width="0.48" stroke-linecap="round" stroke-linejoin="round"/>
<path d="M244.026 97.8398V74.3198V97.8398Z" stroke="white" stroke-width="0.48" stroke-linecap="round" stroke-linejoin="round"/>
<path d="M244.026 70.2399V65.4399V70.2399Z" stroke="white" stroke-width="0.48" stroke-linecap="round" stroke-linejoin="round"/>
<path d="M244.026 61.3598V37.8398V61.3598Z" stroke="white" stroke-width="0.48" stroke-linecap="round" stroke-linejoin="round"/>
<path d="M190.657 84.8799L199.311 93.5199L190.657 84.8799Z" stroke="white" stroke-width="0.48" stroke-linecap="round" stroke-linejoin="round"/>
<path d="M190.657 72.8799L199.311 81.5199L190.657 72.8799Z" stroke="white" stroke-width="0.48" stroke-linecap="round" stroke-linejoin="round"/>
<path d="M190.657 60.8799L199.311 69.5199L190.657 60.8799Z" stroke="white" stroke-width="0.48" stroke-linecap="round" stroke-linejoin="round"/>
<path d="M190.657 48.8799L199.311 57.2799L190.657 48.8799Z" stroke="white" stroke-width="0.48" stroke-linecap="round" stroke-linejoin="round"/>
<path d="M197.388 43.5999L199.311 45.2798L197.388 43.5999Z" stroke="white" stroke-width="0.48" stroke-linecap="round" stroke-linejoin="round"/>

    <!--    1 A-->
    <g class="group">
    </g>
    <!--    2 D-->
    <g class="group">
        <path d="M243.441 160.152H240.267L240.849 158.611H244.003C245.089 158.611 246.072 158.399 246.951 157.973C247.832 157.542 248.595 156.94 249.238 156.168C249.891 155.39 250.407 154.481 250.786 153.441L251.104 152.568C251.402 151.75 251.563 151.024 251.585 150.389C251.61 149.749 251.501 149.209 251.257 148.771C251.015 148.326 250.643 147.989 250.142 147.76C249.648 147.531 249.025 147.417 248.273 147.417H244.847L245.413 145.867H248.838C249.833 145.867 250.685 146.024 251.392 146.338C252.101 146.645 252.644 147.093 253.022 147.682C253.408 148.264 253.61 148.97 253.627 149.801C253.647 150.625 253.469 151.554 253.092 152.587L252.781 153.441C252.404 154.474 251.904 155.406 251.281 156.237C250.66 157.061 249.941 157.764 249.123 158.346C248.312 158.928 247.424 159.376 246.461 159.69C245.506 159.998 244.5 160.152 243.441 160.152ZM246.551 145.867L241.342 160.152H239.327L244.535 145.867H246.551Z" fill="white"/>
        <path d="M297.394 136.24C297.394 136.107 297.287 136 297.154 136C297.022 136 296.914 136.107 296.914 136.24H297.394ZM296.914 174.88C296.914 175.013 297.022 175.12 297.154 175.12C297.287 175.12 297.394 175.013 297.394 174.88H296.914ZM190.897 136.24C190.897 136.107 190.789 136 190.657 136C190.524 136 190.417 136.107 190.417 136.24H190.897ZM190.417 174.88C190.417 175.013 190.524 175.12 190.657 175.12C190.789 175.12 190.897 175.013 190.897 174.88H190.417ZM240.267 160.152L240.042 160.067C240.014 160.14 240.025 160.223 240.069 160.288C240.114 160.353 240.188 160.392 240.267 160.392V160.152ZM240.849 158.611V158.371C240.75 158.371 240.66 158.433 240.625 158.526L240.849 158.611ZM246.951 157.973L247.055 158.19L247.056 158.189L246.951 157.973ZM249.238 156.168L249.054 156.014L249.054 156.015L249.238 156.168ZM250.786 153.441L250.561 153.359L250.561 153.359L250.786 153.441ZM251.104 152.568L251.33 152.65L251.33 152.65L251.104 152.568ZM251.585 150.389L251.345 150.38L251.345 150.381L251.585 150.389ZM251.257 148.771L251.046 148.885L251.047 148.887L251.257 148.771ZM250.142 147.76L250.041 147.978L250.042 147.978L250.142 147.76ZM244.847 147.417L244.622 147.335C244.595 147.408 244.606 147.49 244.651 147.554C244.696 147.619 244.769 147.657 244.847 147.657V147.417ZM245.413 145.867V145.627C245.312 145.627 245.222 145.69 245.187 145.784L245.413 145.867ZM251.392 146.338L251.294 146.557L251.296 146.558L251.392 146.338ZM253.022 147.682L252.819 147.811L252.822 147.814L253.022 147.682ZM253.627 149.801L253.387 149.806L253.387 149.807L253.627 149.801ZM253.092 152.587L253.317 152.669L253.317 152.669L253.092 152.587ZM252.781 153.441L252.555 153.359L252.555 153.359L252.781 153.441ZM251.281 156.237L251.472 156.381L251.473 156.381L251.281 156.237ZM249.123 158.346L248.984 158.151L248.983 158.151L249.123 158.346ZM246.461 159.69L246.534 159.919L246.535 159.919L246.461 159.69ZM246.551 145.867L246.776 145.949C246.803 145.875 246.792 145.793 246.748 145.729C246.703 145.665 246.629 145.627 246.551 145.627V145.867ZM241.342 160.152V160.392C241.443 160.392 241.533 160.329 241.568 160.234L241.342 160.152ZM239.327 160.152L239.101 160.069C239.075 160.143 239.085 160.225 239.13 160.289C239.175 160.353 239.249 160.392 239.327 160.392V160.152ZM244.535 145.867V145.627C244.435 145.627 244.344 145.69 244.31 145.784L244.535 145.867ZM297.154 169.36L297.183 169.598C297.303 169.584 297.393 169.483 297.394 169.362C297.395 169.241 297.306 169.138 297.187 169.122L297.154 169.36ZM282.971 171.04L282.789 170.884C282.724 170.959 282.712 171.065 282.759 171.153C282.805 171.24 282.901 171.29 282.999 171.278L282.971 171.04ZM282.971 167.44L283.003 167.202C282.907 167.189 282.813 167.235 282.764 167.319C282.715 167.402 282.721 167.507 282.779 167.584L282.971 167.44ZM190.657 169.36L190.625 169.122C190.505 169.138 190.416 169.241 190.417 169.362C190.418 169.483 190.508 169.584 190.629 169.598L190.657 169.36ZM204.84 167.44L205.032 167.584C205.09 167.507 205.096 167.402 205.047 167.319C204.998 167.235 204.904 167.189 204.808 167.202L204.84 167.44ZM204.84 171.04L204.812 171.278C204.91 171.29 205.006 171.24 205.052 171.153C205.099 171.065 205.087 170.959 205.022 170.884L204.84 171.04ZM296.914 136.24V174.88H297.394V136.24H296.914ZM190.417 136.24V174.88H190.897V136.24H190.417ZM243.441 159.912H240.267V160.392H243.441V159.912ZM240.491 160.236L241.074 158.696L240.625 158.526L240.042 160.067L240.491 160.236ZM240.849 158.851H244.003V158.371H240.849V158.851ZM244.003 158.851C245.121 158.851 246.14 158.632 247.055 158.19L246.846 157.757C246.003 158.165 245.057 158.371 244.003 158.371V158.851ZM247.056 158.189C247.969 157.742 248.758 157.119 249.422 156.322L249.054 156.015C248.431 156.761 247.696 157.341 246.845 157.758L247.056 158.189ZM249.422 156.322C250.094 155.521 250.624 154.587 251.011 153.523L250.561 153.359C250.19 154.375 249.687 155.259 249.054 156.014L249.422 156.322ZM251.011 153.523L251.33 152.65L250.879 152.485L250.561 153.359L251.011 153.523ZM251.33 152.65C251.634 151.817 251.801 151.065 251.825 150.398L251.345 150.381C251.324 150.983 251.171 151.683 250.879 152.485L251.33 152.65ZM251.825 150.399C251.851 149.726 251.737 149.14 251.466 148.654L251.047 148.887C251.264 149.278 251.369 149.771 251.345 150.38L251.825 150.399ZM251.467 148.656C251.199 148.161 250.786 147.79 250.242 147.542L250.042 147.978C250.501 148.188 250.831 148.49 251.046 148.885L251.467 148.656ZM250.243 147.542C249.707 147.294 249.047 147.177 248.273 147.177V147.657C249.002 147.657 249.588 147.768 250.041 147.978L250.243 147.542ZM248.273 147.177H244.847V147.657H248.273V147.177ZM245.073 147.499L245.638 145.949L245.187 145.784L244.622 147.335L245.073 147.499ZM245.413 146.107H248.838V145.627H245.413V146.107ZM248.838 146.107C249.809 146.107 250.625 146.26 251.294 146.557L251.489 146.118C250.744 145.787 249.858 145.627 248.838 145.627V146.107ZM251.296 146.558C251.967 146.848 252.471 147.267 252.82 147.811L253.224 147.552C252.818 146.919 252.236 146.442 251.487 146.117L251.296 146.558ZM252.822 147.814C253.179 148.352 253.371 149.012 253.387 149.806L253.867 149.796C253.849 148.928 253.638 148.176 253.222 147.549L252.822 147.814ZM253.387 149.807C253.406 150.593 253.236 151.491 252.866 152.505L253.317 152.669C253.701 151.617 253.888 150.657 253.867 149.795L253.387 149.807ZM252.866 152.505L252.555 153.359L253.006 153.523L253.317 152.669L252.866 152.505ZM252.555 153.359C252.186 154.371 251.697 155.282 251.089 156.093L251.473 156.381C252.111 155.53 252.622 154.577 253.006 153.523L252.555 153.359ZM251.089 156.093C250.483 156.898 249.781 157.583 248.984 158.151L249.262 158.542C250.1 157.945 250.837 157.225 251.472 156.381L251.089 156.093ZM248.983 158.151C248.192 158.719 247.327 159.156 246.386 159.462L246.535 159.919C247.522 159.597 248.431 159.138 249.263 158.541L248.983 158.151ZM246.387 159.462C245.458 159.761 244.476 159.912 243.441 159.912V160.392C244.523 160.392 245.555 160.234 246.534 159.919L246.387 159.462ZM246.325 145.784L241.117 160.069L241.568 160.234L246.776 145.949L246.325 145.784ZM241.342 159.912H239.327V160.392H241.342V159.912ZM239.552 160.234L244.761 145.949L244.31 145.784L239.101 160.069L239.552 160.234ZM244.535 146.107H246.551V145.627H244.535V146.107ZM297.126 169.122L282.942 170.802L282.999 171.278L297.183 169.598L297.126 169.122ZM283.153 171.196L284.595 169.516L284.231 169.204L282.789 170.884L283.153 171.196ZM284.605 169.216L283.163 167.296L282.779 167.584L284.221 169.504L284.605 169.216ZM282.939 167.678L297.122 169.598L297.187 169.122L283.003 167.202L282.939 167.678ZM284.413 169.6H297.154V169.12H284.413V169.6ZM284.413 169.84H295.231V169.36H284.413V169.84ZM284.173 170.08H293.308V169.6H284.173V170.08ZM283.932 170.32H291.144V169.84H283.932V170.32ZM283.692 170.56H289.221V170.08H283.692V170.56ZM283.451 170.8H287.057V170.32H283.451V170.8ZM283.211 171.04H285.134V170.56H283.211V171.04ZM283.211 167.92H284.894V167.44H283.211V167.92ZM283.451 168.16H286.577V167.68H283.451V168.16ZM283.692 168.4H288.5V167.92H283.692V168.4ZM283.692 168.64H290.183V168.16H283.692V168.64ZM283.932 168.88H291.865V168.4H283.932V168.88ZM284.173 169.12H293.789V168.64H284.173V169.12ZM284.413 169.36H295.471V168.88H284.413V169.36ZM190.689 169.598L204.873 167.678L204.808 167.202L190.625 169.122L190.689 169.598ZM204.649 167.296L203.206 169.216L203.59 169.504L205.032 167.584L204.649 167.296ZM203.216 169.516L204.658 171.196L205.022 170.884L203.58 169.204L203.216 169.516ZM204.869 170.802L190.685 169.122L190.629 169.598L204.812 171.278L204.869 170.802ZM203.158 167.92H204.841V167.44H203.158V167.92ZM201.475 168.16H204.6V167.68H201.475V168.16ZM199.552 168.4H204.36V167.92H199.552V168.4ZM197.869 168.64H204.119V168.16H197.869V168.64ZM196.186 168.88H204.119V168.4H196.186V168.88ZM194.263 169.12H203.879V168.64H194.263V169.12ZM192.58 169.36H203.639V168.88H192.58V169.36ZM190.657 169.6H203.398V169.12H190.657V169.6ZM192.82 169.84H203.638V169.36H192.82V169.84ZM194.744 170.08H203.879V169.6H194.744V170.08ZM196.907 170.32H204.119V169.84H196.907V170.32ZM198.83 170.56H204.36V170.08H198.83V170.56ZM200.994 170.8H204.6V170.32H200.994V170.8ZM202.917 171.04H204.84V170.56H202.917V171.04ZM297.154 169.12L190.657 169.12L190.657 169.6L297.154 169.6L297.154 169.12Z" fill="white"/>
        <path d="M60.2344 160.152H57.0598L57.6423 158.611H60.7961C61.8821 158.611 62.8647 158.399 63.7437 157.974C64.6252 157.542 65.3876 156.94 66.031 156.168C66.6838 155.39 67.1998 154.481 67.579 153.441L67.8974 152.568C68.1955 151.75 68.3557 151.024 68.3782 150.39C68.4031 149.749 68.2935 149.209 68.0495 148.771C67.8078 148.326 67.4364 147.989 66.935 147.76C66.4407 147.531 65.8175 147.417 65.0656 147.417H61.6404L62.2056 145.867H65.6308C66.6264 145.867 67.4777 146.024 68.1847 146.338C68.8942 146.645 69.4374 147.093 69.8146 147.682C70.201 148.264 70.403 148.97 70.4204 149.801C70.4401 150.625 70.2616 151.554 69.8848 152.587L69.5736 153.441C69.1968 154.474 68.6968 155.406 68.0737 156.237C67.453 157.061 66.7336 157.764 65.9157 158.346C65.1047 158.929 64.2173 159.377 63.2535 159.691C62.299 159.998 61.2926 160.152 60.2344 160.152ZM63.3438 145.867L58.1354 160.152H56.1199L61.3284 145.867H63.3438Z" fill="white"/>
        <path d="M7.71119 128.56C7.71119 128.428 7.60374 128.32 7.47119 128.32C7.33864 128.32 7.23119 128.428 7.23119 128.56H7.71119ZM7.23119 174.88C7.23119 175.013 7.33864 175.12 7.47119 175.12C7.60374 175.12 7.71119 175.013 7.71119 174.88H7.23119ZM114.209 128.56C114.209 128.428 114.101 128.32 113.969 128.32C113.836 128.32 113.729 128.428 113.729 128.56H114.209ZM113.729 174.88C113.729 175.013 113.836 175.12 113.969 175.12C114.101 175.12 114.209 175.013 114.209 174.88H113.729ZM57.0598 160.152L56.8353 160.067C56.8074 160.141 56.8175 160.223 56.8623 160.288C56.9071 160.353 56.9809 160.392 57.0598 160.392V160.152ZM57.6423 158.611V158.371C57.5425 158.371 57.4531 158.433 57.4178 158.526L57.6423 158.611ZM63.7437 157.974L63.8482 158.19L63.8493 158.189L63.7437 157.974ZM66.031 156.168L65.8471 156.014L65.8467 156.015L66.031 156.168ZM67.579 153.441L67.3535 153.359L67.3535 153.359L67.579 153.441ZM67.8974 152.568L68.1228 152.65L68.1228 152.65L67.8974 152.568ZM68.3782 150.39L68.1384 150.38L68.1384 150.381L68.3782 150.39ZM68.0495 148.771L67.8386 148.885L67.8398 148.888L68.0495 148.771ZM66.935 147.76L66.8342 147.978L66.8353 147.979L66.935 147.76ZM61.6404 147.417L61.4149 147.335C61.388 147.408 61.3988 147.49 61.4437 147.554C61.4886 147.619 61.562 147.657 61.6404 147.657V147.417ZM62.2056 145.867V145.627C62.1047 145.627 62.0146 145.69 61.9801 145.784L62.2056 145.867ZM68.1847 146.338L68.0873 146.557L68.0893 146.558L68.1847 146.338ZM69.8146 147.682L69.6125 147.811L69.6146 147.814L69.8146 147.682ZM70.4204 149.801L70.1804 149.806L70.1804 149.807L70.4204 149.801ZM69.8848 152.587L69.6593 152.505L69.6593 152.505L69.8848 152.587ZM69.5736 153.441L69.7991 153.523L69.7991 153.523L69.5736 153.441ZM68.0737 156.237L68.2654 156.381L68.2657 156.381L68.0737 156.237ZM65.9157 158.346L65.7765 158.151L65.7757 158.151L65.9157 158.346ZM63.2535 159.691L63.3271 159.919L63.3278 159.919L63.2535 159.691ZM63.3438 145.867L63.5693 145.949C63.5961 145.875 63.5854 145.793 63.5405 145.729C63.4956 145.665 63.4222 145.627 63.3438 145.627V145.867ZM58.1354 160.152V160.392C58.2362 160.392 58.3263 160.329 58.3609 160.234L58.1354 160.152ZM56.1199 160.152L55.8944 160.069C55.8676 160.143 55.8784 160.225 55.9233 160.289C55.9682 160.353 56.0416 160.392 56.1199 160.392V160.152ZM61.3284 145.867V145.627C61.2275 145.627 61.1374 145.69 61.1029 145.784L61.3284 145.867ZM7.47119 169.36L7.439 169.122C7.31922 169.138 7.23019 169.241 7.2312 169.362C7.23221 169.483 7.32293 169.584 7.44296 169.598L7.47119 169.36ZM21.6549 167.44L21.8467 167.584C21.9049 167.507 21.9108 167.402 21.8619 167.319C21.8129 167.235 21.7186 167.189 21.6227 167.202L21.6549 167.44ZM21.6548 171.04L21.6266 171.278C21.7248 171.29 21.8201 171.24 21.8666 171.153C21.9131 171.066 21.9013 170.959 21.8369 170.884L21.6548 171.04ZM113.969 169.36L113.997 169.598C114.117 169.584 114.208 169.483 114.209 169.362C114.21 169.241 114.121 169.138 114.001 169.122L113.969 169.36ZM99.7852 171.04L99.6031 170.884C99.5386 170.959 99.5268 171.066 99.5734 171.153C99.6199 171.24 99.7152 171.29 99.8134 171.278L99.7852 171.04ZM99.7852 167.44L99.8173 167.202C99.7214 167.189 99.6271 167.235 99.5781 167.319C99.5292 167.402 99.5351 167.507 99.5933 167.584L99.7852 167.44ZM7.23119 128.56V174.88H7.71119V128.56H7.23119ZM113.729 128.56V174.88H114.209V128.56H113.729ZM60.2344 159.912H57.0598V160.392H60.2344V159.912ZM57.2843 160.237L57.8668 158.696L57.4178 158.526L56.8353 160.067L57.2843 160.237ZM57.6423 158.851H60.7961V158.371H57.6423V158.851ZM60.7961 158.851C61.9142 158.851 62.9331 158.632 63.8482 158.19L63.6392 157.758C62.7963 158.165 61.85 158.371 60.7961 158.371V158.851ZM63.8493 158.189C64.7618 157.742 65.5509 157.119 66.2154 156.322L65.8467 156.015C65.2244 156.761 64.4886 157.342 63.6382 157.758L63.8493 158.189ZM66.2149 156.323C66.8872 155.521 67.4166 154.587 67.8045 153.523L67.3535 153.359C66.983 154.375 66.4804 155.259 65.8471 156.014L66.2149 156.323ZM67.8045 153.523L68.1228 152.65L67.6719 152.485L67.3535 153.359L67.8045 153.523ZM68.1228 152.65C68.4266 151.817 68.5944 151.065 68.6181 150.398L68.1384 150.381C68.117 150.983 67.9643 151.683 67.6719 152.485L68.1228 152.65ZM68.618 150.399C68.6441 149.726 68.5298 149.14 68.2592 148.654L67.8398 148.888C68.0572 149.278 68.162 149.771 68.1384 150.38L68.618 150.399ZM68.2604 148.656C67.9917 148.162 67.5789 147.79 67.0347 147.542L66.8353 147.979C67.2938 148.188 67.624 148.49 67.8386 148.885L68.2604 148.656ZM67.0359 147.542C66.5003 147.294 65.8399 147.177 65.0656 147.177V147.657C65.7951 147.657 66.381 147.768 66.8342 147.978L67.0359 147.542ZM65.0656 147.177H61.6404V147.657H65.0656V147.177ZM61.8658 147.499L62.431 145.949L61.9801 145.784L61.4149 147.335L61.8658 147.499ZM62.2056 146.107H65.6308V145.627H62.2056V146.107ZM65.6308 146.107C66.6021 146.107 67.4184 146.26 68.0873 146.557L68.2821 146.118C67.537 145.787 66.6507 145.627 65.6308 145.627V146.107ZM68.0893 146.558C68.7598 146.848 69.2638 147.267 69.6125 147.811L70.0166 147.552C69.6111 146.919 69.0285 146.442 68.2802 146.117L68.0893 146.558ZM69.6146 147.814C69.9715 148.352 70.1638 149.012 70.1804 149.806L70.6603 149.796C70.6422 148.928 70.4306 148.176 70.0145 147.549L69.6146 147.814ZM70.1804 149.807C70.1993 150.593 70.0291 151.491 69.6593 152.505L70.1103 152.67C70.4941 151.617 70.681 150.657 70.6603 149.795L70.1804 149.807ZM69.6593 152.505L69.3481 153.359L69.7991 153.523L70.1103 152.67L69.6593 152.505ZM69.3481 153.359C68.9789 154.371 68.4899 155.282 67.8817 156.093L68.2657 156.381C68.9038 155.53 69.4147 154.577 69.7991 153.523L69.3481 153.359ZM67.882 156.093C67.2756 156.898 66.5739 157.583 65.7765 158.151L66.0548 158.542C66.8934 157.945 67.6303 157.225 68.2654 156.381L67.882 156.093ZM65.7757 158.151C64.9851 158.719 64.1199 159.156 63.1791 159.462L63.3278 159.919C64.3147 159.597 65.2243 159.138 66.0556 158.541L65.7757 158.151ZM63.1799 159.462C62.2505 159.761 61.2691 159.912 60.2344 159.912V160.392C61.3162 160.392 62.3475 160.234 63.3271 159.919L63.1799 159.462ZM63.1184 145.784L57.9099 160.069L58.3609 160.234L63.5693 145.949L63.1184 145.784ZM58.1354 159.912H56.1199V160.392H58.1354V159.912ZM56.3454 160.234L61.5538 145.949L61.1029 145.784L55.8944 160.069L56.3454 160.234ZM61.3284 146.107H63.3438V145.627H61.3284V146.107ZM7.50339 169.598L21.6871 167.678L21.6227 167.202L7.439 169.122L7.50339 169.598ZM21.463 167.296L20.0205 169.216L20.4043 169.504L21.8467 167.584L21.463 167.296ZM20.0303 169.516L21.4727 171.196L21.8369 170.884L20.3945 169.204L20.0303 169.516ZM21.683 170.802L7.49942 169.122L7.44296 169.598L21.6266 171.278L21.683 170.802ZM19.9717 167.92H21.6545V167.44H19.9717V167.92ZM18.2889 168.16H21.4141V167.68H18.2889V168.16ZM16.3657 168.4H21.1737V167.92H16.3657V168.4ZM14.6829 168.64H20.9333V168.16H14.6829V168.64ZM13.0001 168.88H20.9333V168.4H13.0001V168.88ZM11.0769 169.12H20.6929V168.64H11.0769V169.12ZM9.39404 169.36H20.4525V168.88H9.39404V169.36ZM7.47119 169.6H20.2124V169.12H7.47119V169.6ZM9.6348 169.84H20.4529V169.36H9.6348V169.84ZM11.558 170.08H20.6933V169.6H11.558V170.08ZM13.7216 170.32H20.9337V169.84H13.7216V170.32ZM15.6448 170.56H21.1741V170.08H15.6448V170.56ZM17.8084 170.8H21.4145V170.32H17.8084V170.8ZM19.7317 171.04H21.6549V170.56H19.7317V171.04ZM113.941 169.122L99.7569 170.802L99.8134 171.278L113.997 169.598L113.941 169.122ZM99.9672 171.196L101.41 169.516L101.045 169.204L99.6031 170.884L99.9672 171.196ZM101.419 169.216L99.977 167.296L99.5933 167.584L101.036 169.504L101.419 169.216ZM99.753 167.678L113.937 169.598L114.001 169.122L99.8173 167.202L99.753 167.678ZM101.228 169.6H113.969V169.12H101.228V169.6ZM101.227 169.84H112.045V169.36H101.227V169.84ZM100.987 170.08H110.122V169.6H100.987V170.08ZM100.747 170.32H107.959V169.84H100.747V170.32ZM100.506 170.56H106.035V170.08H100.506V170.56ZM100.266 170.8H103.872V170.32H100.266V170.8ZM100.025 171.04H101.949V170.56H100.025V171.04ZM100.025 167.92H101.708V167.44H100.025V167.92ZM100.266 168.16H103.391V167.68H100.266V168.16ZM100.506 168.4H105.314V167.92H100.506V168.4ZM100.506 168.64H106.997V168.16H100.506V168.64ZM100.747 168.88H108.68V168.4H100.747V168.88ZM100.987 169.12H110.603V168.64H100.987V169.12ZM101.227 169.36H112.286V168.88H101.227V169.36ZM7.47119 169.6L113.969 169.6L113.969 169.12L7.47119 169.12L7.47119 169.6Z" fill="white"/>
    </g>
    <!--    3 Dy-->
    <g class="group">
    </g>
    <!--    4 Dh-->
    <g class="group">
    </g>
    <!--    5 D1-->
    <g class="group">
    </g>
    <!--   6 D2-->
    <g class="group">
    </g>
    <!--   7 d-->
    <g class="group">
    </g>
    <!--    8 dH-->
    <g class="group">
    </g>
    <!--    9 d1-->
    <g class="group">
    </g>
    <!--    10 d2-->
    <g class="group">
    </g>
    <!--    11 L-->
    <g class="group">
    </g>
    <!--    12 L1-->
    <g class="group">
    </g>
    <!--    13 L2-->
    <g class="group">
    </g>
    <!--    14 S-->
    <g class="group">
        <path d="M167.533 8.96457C167.629 8.70294 167.654 8.46094 167.61 8.23855C167.575 8.00962 167.403 7.80359 167.094 7.62045C166.794 7.43077 166.297 7.26725 165.602 7.12989C165.021 7.00562 164.507 6.85845 164.061 6.68839C163.621 6.51833 163.268 6.3123 163.002 6.07029C162.742 5.82828 162.577 5.54376 162.509 5.21672C162.44 4.88969 162.486 4.50705 162.645 4.06882C162.798 3.65021 163.04 3.2545 163.371 2.88168C163.708 2.50885 164.111 2.17854 164.578 1.89075C165.052 1.60296 165.576 1.3773 166.151 1.21378C166.726 1.05027 167.33 0.968506 167.963 0.968506C168.868 0.968506 169.586 1.11894 170.117 1.41982C170.648 1.72069 170.992 2.12295 171.15 2.62659C171.309 3.12368 171.279 3.67638 171.057 4.28467H169.125C169.232 3.99033 169.242 3.70581 169.154 3.4311C169.076 3.14985 168.892 2.91765 168.604 2.73451C168.323 2.55137 167.928 2.4598 167.42 2.4598C166.884 2.4598 166.42 2.53829 166.028 2.69526C165.646 2.8457 165.336 3.03865 165.097 3.27412C164.865 3.50959 164.701 3.75814 164.606 4.01977C164.534 4.21599 164.504 4.39259 164.517 4.54957C164.539 4.7 164.62 4.84063 164.76 4.97145C164.903 5.09572 165.124 5.21345 165.425 5.32465C165.725 5.43584 166.12 5.54703 166.608 5.65822C167.463 5.85445 168.139 6.08991 168.638 6.36463C169.136 6.63934 169.459 6.97619 169.606 7.37517C169.753 7.77416 169.723 8.25817 169.515 8.82722C169.346 9.29161 169.087 9.71676 168.737 10.1027C168.394 10.4886 167.977 10.8221 167.484 11.1034C167.001 11.3781 166.463 11.594 165.87 11.7509C165.286 11.9014 164.663 11.9766 164.002 11.9766C163.006 11.9766 162.225 11.8098 161.657 11.4762C161.09 11.1426 160.725 10.711 160.563 10.1812C160.401 9.65135 160.427 9.09212 160.642 8.50345H162.584C162.431 9.00055 162.44 9.39626 162.611 9.6906C162.785 9.97839 163.051 10.1844 163.409 10.3087C163.77 10.4264 164.149 10.4853 164.546 10.4853C165.075 10.4853 165.541 10.4199 165.943 10.2891C166.353 10.1583 166.694 9.97839 166.965 9.74946C167.237 9.52054 167.426 9.25891 167.533 8.96457Z" fill="white"/>
        <path d="M199.071 37.1199C199.071 37.2525 199.178 37.3599 199.311 37.3599C199.444 37.3599 199.551 37.2525 199.551 37.1199H199.071ZM199.551 15.2799C199.551 15.1474 199.444 15.0399 199.311 15.0399C199.178 15.0399 199.071 15.1474 199.071 15.2799H199.551ZM190.417 37.1199C190.417 37.2525 190.524 37.3599 190.657 37.3599C190.789 37.3599 190.897 37.2525 190.897 37.1199H190.417ZM190.897 15.2799C190.897 15.1474 190.789 15.0399 190.657 15.0399C190.524 15.0399 190.417 15.1474 190.417 15.2799H190.897ZM151.952 20.5599C151.82 20.5599 151.712 20.6674 151.712 20.7999C151.712 20.9325 151.82 21.0399 151.952 21.0399V20.5599ZM167.533 8.96457L167.308 8.88236L167.533 8.96457ZM167.61 8.23855L167.373 8.27474L167.375 8.28537L167.61 8.23855ZM167.094 7.62045L166.966 7.82336L166.972 7.82694L167.094 7.62045ZM165.602 7.12989L165.552 7.36462L165.555 7.36534L165.602 7.12989ZM164.061 6.68839L163.974 6.91221L163.975 6.91266L164.061 6.68839ZM163.002 6.07029L162.838 6.24594L162.84 6.24806L163.002 6.07029ZM162.645 4.06882L162.871 4.15103L162.645 4.06882ZM163.371 2.88168L163.193 2.72051L163.191 2.72237L163.371 2.88168ZM164.578 1.89075L164.453 1.68561L164.452 1.68644L164.578 1.89075ZM171.15 2.62659L170.921 2.69822L170.921 2.70007L171.15 2.62659ZM171.057 4.28467V4.52467C171.158 4.52467 171.248 4.46162 171.282 4.36688L171.057 4.28467ZM169.125 4.28467L168.899 4.20246C168.872 4.27604 168.883 4.3581 168.928 4.42227C168.973 4.48644 169.046 4.52467 169.125 4.52467V4.28467ZM169.154 3.4311L168.923 3.49564L168.925 3.50417L169.154 3.4311ZM168.604 2.73451L168.473 2.93566L168.475 2.93709L168.604 2.73451ZM166.028 2.69526L166.116 2.91858L166.118 2.91802L166.028 2.69526ZM165.097 3.27412L164.928 3.10313L164.926 3.10566L165.097 3.27412ZM164.517 4.54957L164.278 4.56844C164.278 4.57361 164.279 4.57875 164.279 4.58388L164.517 4.54957ZM164.76 4.97145L164.596 5.14707L164.602 5.15241L164.76 4.97145ZM166.608 5.65822L166.662 5.42431L166.662 5.42421L166.608 5.65822ZM169.515 8.82722L169.741 8.90943L169.515 8.82722ZM168.737 10.1027L168.559 9.94153L168.558 9.94333L168.737 10.1027ZM167.484 11.1034L167.603 11.312L167.604 11.3118L167.484 11.1034ZM165.87 11.7509L165.93 11.9834L165.931 11.983L165.87 11.7509ZM160.642 8.50345V8.26345C160.541 8.26345 160.451 8.32649 160.417 8.42124L160.642 8.50345ZM162.584 8.50345L162.814 8.57422C162.836 8.50141 162.823 8.42226 162.778 8.36095C162.732 8.29963 162.661 8.26345 162.584 8.26345V8.50345ZM162.611 9.6906L162.404 9.81126L162.406 9.81453L162.611 9.6906ZM163.409 10.3087L163.33 10.5355L163.335 10.5369L163.409 10.3087ZM165.943 10.2891L165.87 10.0604L165.869 10.0608L165.943 10.2891ZM213.495 22.7199L213.463 22.9578C213.558 22.9708 213.653 22.9249 213.702 22.8414C213.751 22.7579 213.745 22.6532 213.687 22.5758L213.495 22.7199ZM213.495 19.1198L213.677 19.2761C213.741 19.2011 213.753 19.0942 213.706 19.0069C213.66 18.9196 213.565 18.8698 213.466 18.8814L213.495 19.1198ZM219.024 21.0399C219.156 21.0399 219.264 20.9325 219.264 20.7999C219.264 20.6674 219.156 20.5599 219.024 20.5599V21.0399ZM176.473 19.1198L176.501 18.8814C176.403 18.8698 176.308 18.9196 176.261 19.0069C176.215 19.0942 176.227 19.2011 176.291 19.2761L176.473 19.1198ZM176.473 22.7199L176.281 22.5758C176.223 22.6532 176.217 22.7579 176.266 22.8414C176.315 22.9249 176.409 22.9708 176.505 22.9578L176.473 22.7199ZM170.944 20.5599C170.811 20.5599 170.704 20.6674 170.704 20.7999C170.704 20.9325 170.811 21.0399 170.944 21.0399V20.5599ZM199.551 37.1199V15.2799H199.071V37.1199H199.551ZM190.897 37.1199V15.2799H190.417V37.1199H190.897ZM167.759 9.04679C167.866 8.75327 167.9 8.46609 167.845 8.19173L167.375 8.28537C167.409 8.45579 167.392 8.65262 167.308 8.88236L167.759 9.04679ZM167.847 8.2024C167.797 7.87051 167.553 7.6134 167.216 7.41396L166.972 7.82694C167.253 7.99378 167.354 8.14874 167.373 8.27471L167.847 8.2024ZM167.222 7.41763C166.883 7.20314 166.349 7.03299 165.649 6.89445L165.555 7.36534C166.244 7.50151 166.705 7.6584 166.966 7.82327L167.222 7.41763ZM165.652 6.8952C165.08 6.7729 164.579 6.62891 164.146 6.46413L163.975 6.91266C164.435 7.088 164.961 7.23834 165.552 7.36459L165.652 6.8952ZM164.147 6.46458C163.728 6.30206 163.402 6.10968 163.163 5.89252L162.84 6.24806C163.135 6.51492 163.515 6.73461 163.974 6.9122L164.147 6.46458ZM163.165 5.89466C162.939 5.68415 162.802 5.44285 162.744 5.16736L162.274 5.26609C162.353 5.64467 162.544 5.97242 162.838 6.24592L163.165 5.89466ZM162.744 5.16736C162.687 4.89829 162.721 4.56311 162.871 4.15103L162.42 3.98661C162.251 4.451 162.193 4.88108 162.274 5.26609L162.744 5.16736ZM162.871 4.15103C163.012 3.76396 163.237 3.3939 163.55 3.04098L163.191 2.72237C162.843 3.1151 162.584 3.53647 162.42 3.98661L162.871 4.15103ZM163.548 3.04283C163.87 2.68821 164.254 2.37205 164.704 2.09506L164.452 1.68644C163.967 1.98504 163.547 2.3295 163.193 2.72052L163.548 3.04283ZM164.702 2.09589C165.156 1.8201 165.661 1.60271 166.216 1.44463L166.085 0.982943C165.491 1.15189 164.947 1.38582 164.453 1.68561L164.702 2.09589ZM166.216 1.44463C166.769 1.28754 167.351 1.20851 167.963 1.20851V0.728506C167.309 0.728506 166.683 0.812993 166.085 0.982943L166.216 1.44463ZM167.963 1.20851C168.846 1.20851 169.517 1.35574 169.999 1.62861L170.235 1.21103C169.655 0.882144 168.891 0.728506 167.963 0.728506V1.20851ZM169.999 1.62861C170.485 1.90449 170.784 2.26174 170.921 2.69822L171.379 2.55495C171.2 1.98416 170.81 1.5369 170.235 1.21103L169.999 1.62861ZM170.921 2.70007C171.061 3.13519 171.039 3.632 170.831 4.20245L171.282 4.36688C171.518 3.72076 171.558 3.11218 171.378 2.5531L170.921 2.70007ZM171.057 4.04467H169.125V4.52467H171.057V4.04467ZM169.35 4.36688C169.474 4.02715 169.488 3.68787 169.383 3.35803L168.925 3.50417C168.996 3.72375 168.99 3.95352 168.899 4.20246L169.35 4.36688ZM169.385 3.36661C169.288 3.01873 169.062 2.74113 168.733 2.53193L168.475 2.93709C168.722 3.09416 168.863 3.28096 168.923 3.49559L169.385 3.36661ZM168.735 2.53337C168.399 2.31496 167.952 2.2198 167.42 2.2198V2.6998C167.904 2.6998 168.246 2.78777 168.473 2.93564L168.735 2.53337ZM167.42 2.2198C166.861 2.2198 166.365 2.30151 165.939 2.47251L166.118 2.91802C166.474 2.77506 166.906 2.6998 167.42 2.6998V2.2198ZM165.94 2.47195C165.535 2.63165 165.195 2.84052 164.928 3.10315L165.265 3.44509C165.477 3.23679 165.758 3.05975 166.116 2.91858L165.94 2.47195ZM164.926 3.10566C164.674 3.36111 164.489 3.63811 164.38 3.93755L164.831 4.10198C164.913 3.87816 165.055 3.65807 165.268 3.44258L164.926 3.10566ZM164.38 3.93755C164.3 4.15605 164.262 4.36791 164.278 4.56844L164.756 4.53069C164.747 4.41727 164.768 4.27592 164.831 4.10198L164.38 3.93755ZM164.279 4.58388C164.311 4.8013 164.427 4.98883 164.596 5.14697L164.924 4.79592C164.813 4.69243 164.766 4.5987 164.754 4.51526L164.279 4.58388ZM164.602 5.15241C164.777 5.30455 165.03 5.43447 165.341 5.54974L165.508 5.09955C165.218 4.99244 165.028 4.88689 164.918 4.79048L164.602 5.15241ZM165.341 5.54974C165.656 5.66598 166.061 5.77986 166.555 5.89224L166.662 5.42421C166.178 5.3142 165.795 5.2057 165.508 5.09955L165.341 5.54974ZM166.555 5.89214C167.398 6.08575 168.051 6.315 168.522 6.57483L168.754 6.15442C168.228 5.86483 167.528 5.62314 166.662 5.42431L166.555 5.89214ZM168.522 6.57483C168.987 6.83121 169.26 7.12938 169.381 7.45811L169.831 7.29224C169.659 6.823 169.286 6.44747 168.754 6.15442L168.522 6.57483ZM169.381 7.45811C169.501 7.78512 169.486 8.20701 169.29 8.74501L169.741 8.90943C169.96 8.30933 170.005 7.76319 169.831 7.29224L169.381 7.45811ZM169.29 8.74501C169.132 9.17873 168.889 9.57737 168.559 9.94154L168.915 10.2638C169.284 9.85615 169.56 9.40449 169.741 8.90943L169.29 8.74501ZM168.558 9.94333C168.234 10.3079 167.837 10.6254 167.365 10.895L167.604 11.3118C168.116 11.0189 168.555 10.6693 168.916 10.262L168.558 9.94333ZM167.366 10.8948C166.903 11.1583 166.384 11.3667 165.809 11.5189L165.931 11.983C166.543 11.8212 167.1 11.598 167.603 11.312L167.366 10.8948ZM165.81 11.5185C165.247 11.6635 164.645 11.7366 164.002 11.7366V12.2166C164.682 12.2166 165.325 12.1393 165.93 11.9833L165.81 11.5185ZM164.002 11.7366C163.029 11.7366 162.295 11.5729 161.779 11.2693L161.536 11.6831C162.154 12.0467 162.984 12.2166 164.002 12.2166V11.7366ZM161.779 11.2693C161.253 10.9601 160.934 10.5728 160.792 10.111L160.333 10.2513C160.516 10.8491 160.926 11.3252 161.536 11.6831L161.779 11.2693ZM160.792 10.111C160.648 9.63753 160.668 9.13206 160.868 8.58566L160.417 8.42124C160.187 9.05217 160.154 9.66518 160.333 10.2513L160.792 10.111ZM160.642 8.74345H162.584V8.26345H160.642V8.74345ZM162.355 8.43268C162.192 8.96024 162.184 9.4343 162.404 9.81125L162.819 9.56995C162.695 9.35822 162.67 9.04085 162.814 8.57422L162.355 8.43268ZM162.406 9.81453C162.612 10.1566 162.926 10.3953 163.33 10.5355L163.488 10.0819C163.175 9.97353 162.957 9.8002 162.817 9.56666L162.406 9.81453ZM163.335 10.5369C163.721 10.6628 164.125 10.7253 164.546 10.7253V10.2453C164.173 10.2453 163.819 10.1901 163.484 10.0805L163.335 10.5369ZM164.546 10.7253C165.094 10.7253 165.586 10.6576 166.018 10.5173L165.869 10.0608C165.496 10.1822 165.056 10.2453 164.546 10.2453V10.7253ZM166.016 10.5177C166.45 10.3793 166.82 10.1859 167.12 9.93293L166.81 9.566C166.568 9.77087 166.256 9.93722 165.87 10.0604L166.016 10.5177ZM167.12 9.93293C167.419 9.68067 167.635 9.38548 167.759 9.04679L167.308 8.88236C167.217 9.13233 167.054 9.36041 166.81 9.566L167.12 9.93293ZM199.279 21.0378L213.463 22.9578L213.527 22.4821L199.343 20.5621L199.279 21.0378ZM213.687 22.5758L212.244 20.6558L211.86 20.9441L213.303 22.8641L213.687 22.5758ZM212.234 20.9563L213.677 19.2761L213.313 18.9634L211.87 20.6436L212.234 20.9563ZM213.466 18.8814L199.283 20.5616L199.339 21.0383L213.523 19.3581L213.466 18.8814ZM199.311 21.0399H219.024V20.5599H199.311V21.0399ZM199.311 21.0399H212.052V20.5599H199.311V21.0399ZM201.234 21.2799H212.293V20.7999H201.234V21.2799ZM202.917 21.5199H212.533V21.0399H202.917V21.5199ZM204.84 21.7599H212.774V21.2799H204.84V21.7599ZM206.523 21.9999H212.774V21.5199H206.523V21.9999ZM208.206 22.2399H213.014V21.7599H208.206V22.2399ZM210.129 22.4799H213.254V21.9999H210.129V22.4799ZM211.812 22.7199H213.495V22.2399H211.812V22.7199ZM211.571 19.5998H213.495V19.1198H211.571V19.5998ZM209.648 19.8398H213.254V19.3598H209.648V19.8398ZM207.485 20.0798H213.014V19.5998H207.485V20.0798ZM205.561 20.3198H212.773V19.8398H205.561V20.3198ZM203.398 20.5598H212.533V20.0798H203.398V20.5598ZM201.475 20.7998H212.293V20.3198H201.475V20.7998ZM190.685 20.5616L176.501 18.8814L176.445 19.3581L190.629 21.0383L190.685 20.5616ZM176.291 19.2761L177.733 20.9561L178.098 20.6434L176.655 18.9634L176.291 19.2761ZM177.724 20.6556L176.281 22.5758L176.665 22.8641L178.107 20.9439L177.724 20.6556ZM176.505 22.9578L190.689 21.0378L190.625 20.5621L176.441 22.4821L176.505 22.9578ZM190.657 20.5599H170.944V21.0399H190.657V20.5599ZM176.713 19.5998H178.637V19.1198H176.713V19.5998ZM176.954 19.8398H180.56V19.3598H176.954V19.8398ZM177.194 20.0798H182.723V19.5998H177.194V20.0798ZM177.435 20.3198H184.647V19.8398H177.435V20.3198ZM177.675 20.5598H186.81V20.0798H177.675V20.5598ZM177.915 20.7998H188.733V20.3198H177.915V20.7998ZM177.916 21.0398L190.657 21.0399L190.657 20.5599L177.916 20.5598L177.916 21.0398ZM177.915 21.2799H188.974V20.7999H177.915V21.2799ZM177.675 21.5199H187.291V21.0399H177.675V21.5199ZM177.435 21.7599H185.368V21.2799H177.435V21.7599ZM177.194 21.9999H183.685V21.5199H177.194V21.9999ZM177.194 22.2399H182.002V21.7599H177.194V22.2399ZM176.954 22.4799H180.079V21.9999H176.954V22.4799ZM176.713 22.7199H178.396V22.2399H176.713V22.7199ZM199.311 20.5599H190.657V21.0399H199.311V20.5599ZM190.657 20.5599H151.952V21.0399H190.657V20.5599Z" fill="white"/>
    </g>
    <!--    15 S1-->
    <g class="group">
    </g>
    <!--    16 S2-->
    <g class="group">
    </g>
    <!--    17 S3-->
    <g class="group">
    </g>
    <!--    18 S4-->
    <g class="group">
    </g>
    <!--    19 I-->
    <g class="group">
    </g>
    <!--    20 I1-->
    <g class="group">
    </g>
    <!--    21 I2-->
    <g class="group">
    </g>
    <!--    22 H-->
    <g class="group">
        <path d="M318.368 77.8155L319.909 78.3755V86.6045L318.368 86.0445V77.8155ZM312.224 83.4985L326.514 88.6916V90.7071L312.224 85.514V83.4985ZM312.224 73.8284L326.514 79.0215V81.0265L312.224 75.8334V73.8284Z" fill="white"/>
        <path d="M305.087 43.3599C304.955 43.3599 304.847 43.4673 304.847 43.5999C304.847 43.7324 304.955 43.8399 305.087 43.8399V43.3599ZM341.388 43.8399C341.521 43.8399 341.628 43.7324 341.628 43.5999C341.628 43.4673 341.521 43.3599 341.388 43.3599V43.8399ZM305.087 128.32C304.955 128.32 304.847 128.427 304.847 128.56C304.847 128.692 304.955 128.8 305.087 128.8V128.32ZM341.388 128.8C341.521 128.8 341.628 128.692 341.628 128.56C341.628 128.427 341.521 128.32 341.388 128.32V128.8ZM318.368 77.8155L318.45 77.5899C318.376 77.5632 318.294 77.574 318.23 77.6189C318.166 77.6639 318.128 77.7372 318.128 77.8155H318.368ZM319.909 78.3755H320.149C320.149 78.2745 320.086 78.1844 319.991 78.1499L319.909 78.3755ZM319.909 86.6045L319.827 86.8301C319.9 86.8568 319.982 86.846 320.046 86.8011C320.11 86.7561 320.149 86.6828 320.149 86.6045H319.909ZM318.368 86.0445H318.128C318.128 86.1455 318.191 86.2356 318.286 86.2701L318.368 86.0445ZM312.224 83.4985L312.306 83.2729C312.232 83.2462 312.15 83.257 312.086 83.3019C312.022 83.3469 311.984 83.4202 311.984 83.4985H312.224ZM326.514 88.6916H326.754C326.754 88.5907 326.691 88.5005 326.596 88.466L326.514 88.6916ZM326.514 90.7071L326.432 90.9326C326.506 90.9594 326.588 90.9486 326.652 90.9036C326.716 90.8587 326.754 90.7854 326.754 90.7071H326.514ZM312.224 85.514H311.984C311.984 85.6149 312.047 85.7051 312.142 85.7396L312.224 85.514ZM312.224 73.8284L312.306 73.6028C312.232 73.576 312.15 73.5869 312.086 73.6318C312.022 73.6767 311.984 73.7501 311.984 73.8284H312.224ZM326.514 79.0215H326.754C326.754 78.9205 326.691 78.8304 326.596 78.7959L326.514 79.0215ZM326.514 81.0265L326.432 81.2521C326.506 81.2788 326.588 81.268 326.652 81.2231C326.716 81.1781 326.754 81.1048 326.754 81.0265H326.514ZM312.224 75.8334H311.984C311.984 75.9343 312.047 76.0245 312.142 76.059L312.224 75.8334ZM335.619 43.5999L335.856 43.5676C335.84 43.4486 335.739 43.3599 335.619 43.3599C335.499 43.3599 335.397 43.4486 335.381 43.5676L335.619 43.5999ZM337.542 57.7599L337.398 57.952C337.475 58.01 337.58 58.0158 337.663 57.9667C337.747 57.9177 337.793 57.8234 337.78 57.7276L337.542 57.7599ZM335.619 56.3198L335.619 56.0798L335.619 56.0798L335.619 56.3198ZM333.695 57.7598L333.457 57.7275C333.444 57.8234 333.49 57.9177 333.574 57.9667C333.657 58.0157 333.762 58.0099 333.839 57.9519L333.695 57.7598ZM335.618 128.56L335.381 128.592C335.397 128.711 335.498 128.8 335.618 128.8C335.739 128.8 335.84 128.711 335.856 128.592L335.618 128.56ZM333.695 114.4L333.839 114.208C333.762 114.15 333.657 114.144 333.574 114.193C333.49 114.242 333.444 114.336 333.457 114.432L333.695 114.4ZM335.618 115.84L335.618 116.08L335.619 116.08L335.618 115.84ZM337.542 114.4L337.78 114.432C337.793 114.336 337.747 114.242 337.663 114.193C337.58 114.144 337.475 114.15 337.398 114.208L337.542 114.4ZM305.087 43.8399H341.388V43.3599H305.087V43.8399ZM305.087 128.8H341.388V128.32H305.087V128.8ZM318.286 78.0411L319.827 78.601L319.991 78.1499L318.45 77.5899L318.286 78.0411ZM319.669 78.3755V86.6045H320.149V78.3755H319.669ZM319.991 86.3789L318.45 85.819L318.286 86.2701L319.827 86.8301L319.991 86.3789ZM318.608 86.0445V77.8155H318.128V86.0445H318.608ZM312.142 83.7241L326.432 88.9172L326.596 88.466L312.306 83.2729L312.142 83.7241ZM326.274 88.6916V90.7071H326.754V88.6916H326.274ZM326.596 90.4815L312.306 85.2884L312.142 85.7396L326.432 90.9326L326.596 90.4815ZM312.464 85.514V83.4985H311.984V85.514H312.464ZM312.142 74.0539L326.432 79.247L326.596 78.7959L312.306 73.6028L312.142 74.0539ZM326.274 79.0215V81.0265H326.754V79.0215H326.274ZM326.596 80.8009L312.306 75.6078L312.142 76.059L326.432 81.2521L326.596 80.8009ZM312.464 75.8334V73.8284H311.984V75.8334H312.464ZM335.381 43.6322L337.304 57.7922L337.78 57.7276L335.856 43.5676L335.381 43.6322ZM337.686 57.5677L335.763 56.1277L335.475 56.5119L337.398 57.952L337.686 57.5677ZM335.475 56.1277L333.551 57.5677L333.839 57.9519L335.762 56.5119L335.475 56.1277ZM333.933 57.7921L335.856 43.6322L335.381 43.5676L333.457 57.7275L333.933 57.7921ZM335.619 44.0798H335.859V43.5998H335.619V44.0798ZM335.619 44.3198H335.859V43.8398H335.619V44.3198ZM335.619 44.5598H335.859V44.0798H335.619V44.5598ZM335.619 44.7998H335.859V44.3198H335.619V44.7998ZM335.619 45.0398H335.859V44.5598H335.619V45.0398ZM335.619 45.2798H335.859V44.7998H335.619V45.2798ZM335.619 45.5198H335.859V45.0398H335.619V45.5198ZM335.619 56.5598L337.542 56.5598L337.542 56.0798L335.619 56.0798L335.619 56.5598ZM336.099 56.7998H337.542V56.3198H336.099V56.7998ZM336.34 57.0398H337.542V56.5598H336.34V57.0398ZM336.58 57.2798H337.542V56.7998H336.58V57.2798ZM337.061 57.5198H337.542V57.0398H337.061V57.5198ZM337.301 57.7598H337.542V57.2798H337.301V57.7598ZM333.936 56.56L335.619 56.5598L335.619 56.0798L333.936 56.08L333.936 56.56ZM333.936 56.8H335.378V56.32H333.936V56.8ZM333.936 57.04H335.138V56.56H333.936V57.04ZM333.936 57.28H334.657V56.8H333.936V57.28ZM333.936 57.52H334.416V57.04H333.936V57.52ZM333.936 57.76H334.176V57.28H333.936V57.76ZM335.856 128.528L333.933 114.368L333.457 114.432L335.381 128.592L335.856 128.528ZM333.551 114.592L335.475 116.032L335.762 115.648L333.839 114.208L333.551 114.592ZM335.762 116.032L337.686 114.592L337.398 114.208L335.475 115.648L335.762 116.032ZM337.304 114.368L335.381 128.528L335.856 128.592L337.78 114.432L337.304 114.368ZM333.936 114.88H334.176V114.4H333.936V114.88ZM333.936 115.12H334.416V114.64H333.936V115.12ZM333.936 115.36H334.657V114.88H333.936V115.36ZM333.936 115.6H335.138V115.12H333.936V115.6ZM333.936 115.84H335.378V115.36H333.936V115.84ZM333.936 116.08L335.618 116.08L335.619 115.6L333.936 115.6L333.936 116.08ZM337.301 114.88H337.542V114.4H337.301V114.88ZM337.061 115.12H337.542V114.64H337.061V115.12ZM336.58 115.36H337.542V114.88H336.58V115.36ZM336.34 115.6H337.542V115.12H336.34V115.6ZM336.099 115.84H337.542V115.36H336.099V115.84ZM335.619 116.08L337.542 116.08L337.542 115.6L335.618 115.6L335.619 116.08ZM335.619 127.12H335.859V126.64H335.619V127.12ZM335.619 127.36H335.859V126.88H335.619V127.36ZM335.619 127.6H335.859V127.12H335.619V127.6ZM335.619 127.84H335.859V127.36H335.619V127.84ZM335.619 128.08H335.859V127.6H335.619V128.08ZM335.619 128.32H335.859V127.84H335.619V128.32ZM335.619 128.56H335.859V128.08H335.619V128.56ZM335.379 43.5999L335.378 128.56L335.858 128.56L335.859 43.5999L335.379 43.5999ZM335.378 45.76L336.1 45.7598L336.099 45.2798L335.378 45.28L335.378 45.76ZM335.378 46L336.1 45.9998L336.099 45.5198L335.378 45.52L335.378 46ZM335.378 46.24L336.1 46.2398L336.099 45.7598L335.378 45.76L335.378 46.24ZM335.378 46.48L336.1 46.4798L336.099 45.9998L335.378 46L335.378 46.48ZM335.378 46.72L336.1 46.7198L336.099 46.2398L335.378 46.24L335.378 46.72ZM335.378 46.96L336.1 46.9598L336.099 46.4798L335.378 46.48L335.378 46.96ZM335.378 47.2L336.1 47.1998L336.099 46.7198L335.378 46.72L335.378 47.2ZM335.138 47.44L336.34 47.4398L336.34 46.9598L335.138 46.96L335.138 47.44ZM335.138 47.68L336.34 47.6798L336.34 47.1998L335.138 47.2L335.138 47.68ZM335.138 47.92L336.34 47.9198L336.34 47.4398L335.138 47.44L335.138 47.92ZM335.138 48.16L336.34 48.1598L336.34 47.6798L335.138 47.68L335.138 48.16ZM335.138 48.4L336.34 48.3998L336.34 47.9198L335.138 47.92L335.138 48.4ZM335.138 48.64L336.34 48.6398L336.34 48.1598L335.138 48.16L335.138 48.64ZM335.138 48.88L336.34 48.8798L336.34 48.3998L335.138 48.4L335.138 48.88ZM335.138 49.12L336.34 49.1198L336.34 48.6398L335.138 48.64L335.138 49.12ZM334.897 49.36L336.58 49.3598L336.58 48.8798L334.897 48.88L334.897 49.36ZM334.897 49.6L336.58 49.5998L336.58 49.1198L334.897 49.12L334.897 49.6ZM334.897 49.84L336.58 49.8398L336.58 49.3598L334.897 49.36L334.897 49.84ZM334.897 50.08L336.58 50.0798L336.58 49.5998L334.897 49.6L334.897 50.08ZM334.897 50.32L336.58 50.3198L336.58 49.8398L334.897 49.84L334.897 50.32ZM334.897 50.56L336.58 50.5598L336.58 50.0798L334.897 50.08L334.897 50.56ZM334.897 50.8L336.58 50.7998L336.58 50.3198L334.897 50.32L334.897 50.8ZM334.657 51.04L336.821 51.0398L336.821 50.5598L334.657 50.56L334.657 51.04ZM334.657 51.28L336.821 51.2798L336.821 50.7998L334.657 50.8L334.657 51.28ZM334.657 51.52L336.821 51.5198L336.821 51.0398L334.657 51.04L334.657 51.52ZM334.657 51.76L336.821 51.7598L336.821 51.2798L334.657 51.28L334.657 51.76ZM334.657 52L336.821 51.9998L336.821 51.5198L334.657 51.52L334.657 52ZM334.657 52.24L336.821 52.2398L336.821 51.7598L334.657 51.76L334.657 52.24ZM334.657 52.48L336.821 52.4798L336.821 51.9998L334.657 52L334.657 52.48ZM334.416 52.72L337.061 52.7198L337.061 52.2398L334.416 52.24L334.416 52.72ZM334.416 52.96L337.061 52.9598L337.061 52.4798L334.416 52.48L334.416 52.96ZM334.416 53.2L337.061 53.1998L337.061 52.7198L334.416 52.72L334.416 53.2ZM334.416 53.44L337.061 53.4398L337.061 52.9598L334.416 52.96L334.416 53.44ZM334.416 53.68L337.061 53.6798L337.061 53.1998L334.416 53.2L334.416 53.68ZM334.416 53.92L337.061 53.9198L337.061 53.4398L334.416 53.44L334.416 53.92ZM334.416 54.16L337.061 54.1598L337.061 53.6798L334.416 53.68L334.416 54.16ZM334.416 54.4L337.061 54.3998L337.061 53.9198L334.416 53.92L334.416 54.4ZM334.176 54.64L337.301 54.6398L337.301 54.1598L334.176 54.16L334.176 54.64ZM334.176 54.88L337.301 54.8798L337.301 54.3998L334.176 54.4L334.176 54.88ZM334.176 55.12L337.301 55.1198L337.301 54.6398L334.176 54.64L334.176 55.12ZM334.176 55.36L337.301 55.3598L337.301 54.8798L334.176 54.88L334.176 55.36ZM334.176 55.6L337.301 55.5998L337.301 55.1198L334.176 55.12L334.176 55.6ZM334.176 55.84L337.301 55.8398L337.301 55.3598L334.176 55.36L334.176 55.84ZM334.176 56.08L337.301 56.0798L337.301 55.5998L334.176 55.6L334.176 56.08ZM333.936 56.32L337.542 56.3198L337.542 55.8398L333.936 55.84L333.936 56.32ZM333.936 116.32H337.542V115.84H333.936V116.32ZM334.176 116.56H337.301V116.08H334.176V116.56ZM334.176 116.8H337.301V116.32H334.176V116.8ZM334.176 117.04L337.301 117.04L337.301 116.56L334.176 116.56L334.176 117.04ZM334.176 117.28H337.301V116.8H334.176V117.28ZM334.176 117.52H337.301V117.04H334.176V117.52ZM334.176 117.76H337.301V117.28H334.176V117.76ZM334.176 118L337.301 118L337.301 117.52L334.176 117.52L334.176 118ZM334.416 118.24H337.061V117.76H334.416V118.24ZM334.416 118.48H337.061V118H334.416V118.48ZM334.416 118.72H337.061V118.24H334.416V118.72ZM334.416 118.96L337.061 118.96L337.061 118.48L334.416 118.48L334.416 118.96ZM334.416 119.2H337.061V118.72H334.416V119.2ZM334.416 119.44H337.061V118.96H334.416V119.44ZM334.416 119.68L337.061 119.68L337.061 119.2L334.416 119.2L334.416 119.68ZM334.416 119.92H337.061V119.44H334.416V119.92ZM334.657 120.16H336.821V119.68H334.657V120.16ZM334.657 120.4H336.821V119.92H334.657V120.4ZM334.657 120.64L336.821 120.64L336.821 120.16L334.657 120.16L334.657 120.64ZM334.657 120.88H336.821V120.4H334.657V120.88ZM334.657 121.12H336.821V120.64H334.657V121.12ZM334.657 121.36L336.821 121.36L336.821 120.88L334.657 120.88L334.657 121.36ZM334.657 121.6L336.821 121.6L336.821 121.12L334.657 121.12L334.657 121.6ZM334.897 121.84H336.58V121.36H334.897V121.84ZM334.897 122.08H336.58V121.6H334.897V122.08ZM334.897 122.32L336.58 122.32L336.58 121.84L334.897 121.84L334.897 122.32ZM334.897 122.56L336.58 122.56L336.58 122.08L334.897 122.08L334.897 122.56ZM334.897 122.8H336.58V122.32H334.897V122.8ZM334.897 123.04H336.58V122.56H334.897V123.04ZM334.897 123.28L336.58 123.28L336.58 122.8L334.897 122.8L334.897 123.28ZM335.138 123.52L336.34 123.52L336.34 123.04L335.138 123.04L335.138 123.52ZM335.138 123.76H336.34V123.28H335.138V123.76ZM335.138 124L336.34 124L336.34 123.52L335.138 123.52L335.138 124ZM335.138 124.24L336.34 124.24L336.34 123.76L335.138 123.76L335.138 124.24ZM335.138 124.48H336.34V124H335.138V124.48ZM335.138 124.72H336.34V124.24H335.138V124.72ZM335.138 124.96L336.34 124.96L336.34 124.48L335.138 124.48L335.138 124.96ZM335.138 125.2L336.34 125.2L336.34 124.72L335.138 124.72L335.138 125.2ZM335.378 125.44H336.099V124.96H335.378V125.44ZM335.378 125.68L336.099 125.68L336.099 125.2L335.378 125.2L335.378 125.68ZM335.378 125.92L336.099 125.92L336.099 125.44L335.378 125.44L335.378 125.92ZM335.378 126.16L336.099 126.16L336.099 125.68L335.378 125.68L335.378 126.16ZM335.378 126.4H336.099V125.92H335.378V126.4ZM335.378 126.64L336.099 126.64L336.099 126.16L335.378 126.16L335.378 126.64ZM335.378 126.88L336.099 126.88L336.099 126.4L335.378 126.4L335.378 126.88Z" fill="white"/>
    </g>
    <!--    23 H1-->
    <g class="group">
    </g>
    <!--    24 H2-->
    <g class="group">
    </g>
    <!--    25 h-->
    <g class="group">
    </g>
    <!--    26 h1-->
    <g class="group">
    </g>
    <!--    27 h2-->
    <g class="group">
    </g>
    <!--    28 R-->
    <g class="group">
    </g>
    <!--    29 Deg-->
    <g class="group">
    </g>
    <!--    29 DN-->
    <g class="group">
    </g>

</svg>
