<svg width="485" height="130" viewBox="0 0 485 130" fill="none" xmlns="http://www.w3.org/2000/svg">
<rect width="485" height="130" fill="none"/>
<path d="M0.245605 69.2H23.0837H0.245605Z" stroke="white" stroke-width="0.48" stroke-linecap="round" stroke-linejoin="round"/>
<path d="M27.4106 69.2H31.4975H27.4106Z" stroke="white" stroke-width="0.48" stroke-linecap="round" stroke-linejoin="round"/>
<path d="M35.8247 69.2H58.6628H35.8247Z" stroke="white" stroke-width="0.48" stroke-linecap="round" stroke-linejoin="round"/>
<path d="M62.9902 69.2H67.3174H62.9902Z" stroke="white" stroke-width="0.48" stroke-linecap="round" stroke-linejoin="round"/>
<path d="M71.4043 69.2H94.2424H71.4043Z" stroke="white" stroke-width="0.48" stroke-linecap="round" stroke-linejoin="round"/>
<path d="M98.5693 69.2H102.897H98.5693Z" stroke="white" stroke-width="0.48" stroke-linecap="round" stroke-linejoin="round"/>
<path d="M106.983 69.2H129.822H106.983Z" stroke="white" stroke-width="0.48" stroke-linecap="round" stroke-linejoin="round"/>
<path d="M238.243 32L258.677 43.52L238.243 32Z" stroke="white" stroke-width="0.48" stroke-linecap="round" stroke-linejoin="round"/>
<path d="M262.283 45.6799L265.889 47.8399L262.283 45.6799Z" stroke="white" stroke-width="0.48" stroke-linecap="round" stroke-linejoin="round"/>
<path d="M269.735 50L289.929 61.76L269.735 50Z" stroke="white" stroke-width="0.48" stroke-linecap="round" stroke-linejoin="round"/>
<path d="M318.296 69.2H341.134H318.296Z" stroke="white" stroke-width="0.48" stroke-linecap="round" stroke-linejoin="round"/>
<path d="M345.461 69.2H349.548H345.461Z" stroke="white" stroke-width="0.48" stroke-linecap="round" stroke-linejoin="round"/>
<path d="M353.875 69.2H376.714H353.875Z" stroke="white" stroke-width="0.48" stroke-linecap="round" stroke-linejoin="round"/>
<path d="M381.041 69.2H385.128H381.041Z" stroke="white" stroke-width="0.48" stroke-linecap="round" stroke-linejoin="round"/>
<path d="M389.455 69.2H412.293H389.455Z" stroke="white" stroke-width="0.48" stroke-linecap="round" stroke-linejoin="round"/>
<path d="M416.62 69.2H420.707H416.62Z" stroke="white" stroke-width="0.48" stroke-linecap="round" stroke-linejoin="round"/>
<path d="M425.034 69.2H447.872H425.034Z" stroke="white" stroke-width="0.48" stroke-linecap="round" stroke-linejoin="round"/>
<path d="M129.822 69.2L137.274 68.72L129.822 69.2Z" stroke="white" stroke-width="0.48" stroke-linecap="round" stroke-linejoin="round"/>
<path d="M137.274 68.72L144.486 67.28L137.274 68.72Z" stroke="white" stroke-width="0.48" stroke-linecap="round" stroke-linejoin="round"/>
<path d="M144.486 67.2799L151.458 65.1199L144.486 67.2799Z" stroke="white" stroke-width="0.48" stroke-linecap="round" stroke-linejoin="round"/>
<path d="M151.458 65.12L158.189 61.76L151.458 65.12Z" stroke="white" stroke-width="0.48" stroke-linecap="round" stroke-linejoin="round"/>
<path d="M289.929 61.76L296.42 64.88L289.929 61.76Z" stroke="white" stroke-width="0.48" stroke-linecap="round" stroke-linejoin="round"/>
<path d="M296.42 64.8799L303.632 67.2799L296.42 64.8799Z" stroke="white" stroke-width="0.48" stroke-linecap="round" stroke-linejoin="round"/>
<path d="M303.632 67.28L310.844 68.72L303.632 67.28Z" stroke="white" stroke-width="0.48" stroke-linecap="round" stroke-linejoin="round"/>
<path d="M310.844 68.72L318.056 69.2L310.844 68.72Z" stroke="white" stroke-width="0.48" stroke-linecap="round" stroke-linejoin="round"/>
<path d="M318.056 69.2H318.296H318.056Z" stroke="white" stroke-width="0.48" stroke-linecap="round" stroke-linejoin="round"/>
<path d="M158.189 61.76L178.623 50L158.189 61.76Z" stroke="white" stroke-width="0.48" stroke-linecap="round" stroke-linejoin="round"/>
<path d="M182.229 47.8399L185.835 45.6799L182.229 47.8399Z" stroke="white" stroke-width="0.48" stroke-linecap="round" stroke-linejoin="round"/>
<path d="M189.682 43.52L209.875 32L189.682 43.52Z" stroke="white" stroke-width="0.48" stroke-linecap="round" stroke-linejoin="round"/>
<path d="M238.243 31.9998L233.435 29.8398L238.243 31.9998Z" stroke="white" stroke-width="0.48" stroke-linecap="round" stroke-linejoin="round"/>
<path d="M233.435 29.8399L228.386 28.3999L233.435 29.8399Z" stroke="white" stroke-width="0.48" stroke-linecap="round" stroke-linejoin="round"/>
<path d="M228.386 28.3999L223.338 28.1599L228.386 28.3999Z" stroke="white" stroke-width="0.48" stroke-linecap="round" stroke-linejoin="round"/>
<path d="M223.338 28.1599L218.049 28.6399L223.338 28.1599Z" stroke="white" stroke-width="0.48" stroke-linecap="round" stroke-linejoin="round"/>
<path d="M218.049 28.6399L213 30.3199L218.049 28.6399Z" stroke="white" stroke-width="0.48" stroke-linecap="round" stroke-linejoin="round"/>
<path d="M213.001 30.3198L209.875 31.9998L213.001 30.3198Z" stroke="white" stroke-width="0.48" stroke-linecap="round" stroke-linejoin="round"/>
<path d="M7.45752 55.04H129.822H7.45752Z" stroke="white" stroke-width="1.68" stroke-linecap="round" stroke-linejoin="round"/>
<path d="M7.45752 83.3599H129.822H7.45752Z" stroke="white" stroke-width="1.68" stroke-linecap="round" stroke-linejoin="round"/>
<path d="M129.822 55.0401L136.313 54.5601L129.822 55.0401Z" stroke="white" stroke-width="1.68" stroke-linecap="round" stroke-linejoin="round"/>
<path d="M136.312 54.5599L142.563 53.1199L136.312 54.5599Z" stroke="white" stroke-width="1.68" stroke-linecap="round" stroke-linejoin="round"/>
<path d="M142.563 53.12L148.333 50.96L142.563 53.12Z" stroke="white" stroke-width="1.68" stroke-linecap="round" stroke-linejoin="round"/>
<path d="M148.333 50.96L151.217 49.52L148.333 50.96Z" stroke="white" stroke-width="1.68" stroke-linecap="round" stroke-linejoin="round"/>
<path d="M129.822 83.3599L137.995 82.8799L129.822 83.3599Z" stroke="white" stroke-width="1.68" stroke-linecap="round" stroke-linejoin="round"/>
<path d="M137.995 82.8799L146.169 81.4399L137.995 82.8799Z" stroke="white" stroke-width="1.68" stroke-linecap="round" stroke-linejoin="round"/>
<path d="M146.169 81.44L154.102 79.28L146.169 81.44Z" stroke="white" stroke-width="1.68" stroke-linecap="round" stroke-linejoin="round"/>
<path d="M154.102 79.2799L161.795 75.9199L154.102 79.2799Z" stroke="white" stroke-width="1.68" stroke-linecap="round" stroke-linejoin="round"/>
<path d="M161.795 75.92L165.401 74L161.795 75.92Z" stroke="white" stroke-width="1.68" stroke-linecap="round" stroke-linejoin="round"/>
<path d="M151.217 49.5198L174.777 35.8398L151.217 49.5198Z" stroke="white" stroke-width="1.68" stroke-linecap="round" stroke-linejoin="round"/>
<path d="M165.401 74L217.087 44.24L165.401 74Z" stroke="white" stroke-width="1.68" stroke-linecap="round" stroke-linejoin="round"/>
<path d="M245.455 19.7599L239.685 16.8799L245.455 19.7599Z" stroke="white" stroke-width="1.68" stroke-linecap="round" stroke-linejoin="round"/>
<path d="M239.685 16.88L233.435 14.96L239.685 16.88Z" stroke="white" stroke-width="1.68" stroke-linecap="round" stroke-linejoin="round"/>
<path d="M233.434 14.96L227.184 14L233.434 14.96Z" stroke="white" stroke-width="1.68" stroke-linecap="round" stroke-linejoin="round"/>
<path d="M227.184 14H220.693H227.184Z" stroke="white" stroke-width="1.68" stroke-linecap="round" stroke-linejoin="round"/>
<path d="M220.693 14L214.443 14.96L220.693 14Z" stroke="white" stroke-width="1.68" stroke-linecap="round" stroke-linejoin="round"/>
<path d="M214.443 14.96L208.433 16.88L214.443 14.96Z" stroke="white" stroke-width="1.68" stroke-linecap="round" stroke-linejoin="round"/>
<path d="M208.433 16.8799L202.904 19.7599L208.433 16.8799Z" stroke="white" stroke-width="1.68" stroke-linecap="round" stroke-linejoin="round"/>
<path d="M231.271 44.2401L227.665 42.8L231.271 44.2401Z" stroke="white" stroke-width="1.68" stroke-linecap="round" stroke-linejoin="round"/>
<path d="M227.665 42.7998L224.059 42.3198L227.665 42.7998Z" stroke="white" stroke-width="1.68" stroke-linecap="round" stroke-linejoin="round"/>
<path d="M224.059 42.3198L220.453 42.7998L224.059 42.3198Z" stroke="white" stroke-width="1.68" stroke-linecap="round" stroke-linejoin="round"/>
<path d="M220.453 42.8L217.087 44.2401L220.453 42.8Z" stroke="white" stroke-width="1.68" stroke-linecap="round" stroke-linejoin="round"/>
<path d="M245.455 19.76L296.9 49.52L245.455 19.76Z" stroke="white" stroke-width="1.68" stroke-linecap="round" stroke-linejoin="round"/>
<path d="M231.271 44.24L282.717 74L231.271 44.24Z" stroke="white" stroke-width="1.68" stroke-linecap="round" stroke-linejoin="round"/>
<path d="M296.9 49.52L302.67 52.16L296.9 49.52Z" stroke="white" stroke-width="1.68" stroke-linecap="round" stroke-linejoin="round"/>
<path d="M302.67 52.1599L308.92 54.0799L302.67 52.1599Z" stroke="white" stroke-width="1.68" stroke-linecap="round" stroke-linejoin="round"/>
<path d="M308.92 54.0798L315.171 55.0398L308.92 54.0798Z" stroke="white" stroke-width="1.68" stroke-linecap="round" stroke-linejoin="round"/>
<path d="M315.171 55.04H318.296H315.171Z" stroke="white" stroke-width="1.68" stroke-linecap="round" stroke-linejoin="round"/>
<path d="M282.717 74L290.169 77.6L282.717 74Z" stroke="white" stroke-width="1.68" stroke-linecap="round" stroke-linejoin="round"/>
<path d="M290.169 77.5999L297.862 80.4799L290.169 77.5999Z" stroke="white" stroke-width="1.68" stroke-linecap="round" stroke-linejoin="round"/>
<path d="M297.862 80.48L306.036 82.4L297.862 80.48Z" stroke="white" stroke-width="1.68" stroke-linecap="round" stroke-linejoin="round"/>
<path d="M306.036 82.3999L314.209 83.3599L306.036 82.3999Z" stroke="white" stroke-width="1.68" stroke-linecap="round" stroke-linejoin="round"/>
<path d="M314.209 83.3599H318.296H314.209Z" stroke="white" stroke-width="1.68" stroke-linecap="round" stroke-linejoin="round"/>
<path d="M318.296 55.04H440.661H318.296Z" stroke="white" stroke-width="1.68" stroke-linecap="round" stroke-linejoin="round"/>
<path d="M318.296 83.3599H440.661H318.296Z" stroke="white" stroke-width="1.68" stroke-linecap="round" stroke-linejoin="round"/>
<path d="M440.66 55.04V83.36V55.04Z" stroke="white" stroke-width="1.68" stroke-linecap="round" stroke-linejoin="round"/>
<path d="M375.031 79.04H444.987H375.031Z" stroke="white" stroke-width="0.72" stroke-linecap="round" stroke-linejoin="round"/>
<path d="M440.66 83.36L444.987 79.04L440.66 83.36Z" stroke="white" stroke-width="1.68" stroke-linecap="round" stroke-linejoin="round"/>
<path d="M440.66 83.36L437.775 79.04L440.66 83.36Z" stroke="white" stroke-width="0.96" stroke-linecap="round" stroke-linejoin="round"/>
<path d="M435.372 83.36L437.776 79.04L435.372 83.36Z" stroke="white" stroke-width="0.96" stroke-linecap="round" stroke-linejoin="round"/>
<path d="M435.371 83.36L432.727 79.04L435.371 83.36Z" stroke="white" stroke-width="0.96" stroke-linecap="round" stroke-linejoin="round"/>
<path d="M430.323 83.36L432.727 79.04L430.323 83.36Z" stroke="white" stroke-width="0.96" stroke-linecap="round" stroke-linejoin="round"/>
<path d="M430.323 83.36L427.919 79.04L430.323 83.36Z" stroke="white" stroke-width="0.96" stroke-linecap="round" stroke-linejoin="round"/>
<path d="M425.275 83.36L427.919 79.04L425.275 83.36Z" stroke="white" stroke-width="0.96" stroke-linecap="round" stroke-linejoin="round"/>
<path d="M425.275 83.36L422.871 79.04L425.275 83.36Z" stroke="white" stroke-width="0.96" stroke-linecap="round" stroke-linejoin="round"/>
<path d="M420.226 83.36L422.87 79.04L420.226 83.36Z" stroke="white" stroke-width="0.96" stroke-linecap="round" stroke-linejoin="round"/>
<path d="M420.226 83.36L417.822 79.04L420.226 83.36Z" stroke="white" stroke-width="0.96" stroke-linecap="round" stroke-linejoin="round"/>
<path d="M415.178 83.36L417.822 79.04L415.178 83.36Z" stroke="white" stroke-width="0.96" stroke-linecap="round" stroke-linejoin="round"/>
<path d="M415.178 83.36L412.774 79.04L415.178 83.36Z" stroke="white" stroke-width="0.96" stroke-linecap="round" stroke-linejoin="round"/>
<path d="M410.129 83.36L412.774 79.04L410.129 83.36Z" stroke="white" stroke-width="0.96" stroke-linecap="round" stroke-linejoin="round"/>
<path d="M410.13 83.36L407.726 79.04L410.13 83.36Z" stroke="white" stroke-width="0.96" stroke-linecap="round" stroke-linejoin="round"/>
<path d="M405.081 83.36L407.725 79.04L405.081 83.36Z" stroke="white" stroke-width="0.96" stroke-linecap="round" stroke-linejoin="round"/>
<path d="M405.081 83.36L402.677 79.04L405.081 83.36Z" stroke="white" stroke-width="0.96" stroke-linecap="round" stroke-linejoin="round"/>
<path d="M400.033 83.36L402.677 79.04L400.033 83.36Z" stroke="white" stroke-width="0.96" stroke-linecap="round" stroke-linejoin="round"/>
<path d="M400.032 83.36L397.628 79.04L400.032 83.36Z" stroke="white" stroke-width="0.96" stroke-linecap="round" stroke-linejoin="round"/>
<path d="M395.225 83.36L397.629 79.04L395.225 83.36Z" stroke="white" stroke-width="0.96" stroke-linecap="round" stroke-linejoin="round"/>
<path d="M395.224 83.36L392.58 79.04L395.224 83.36Z" stroke="white" stroke-width="0.96" stroke-linecap="round" stroke-linejoin="round"/>
<path d="M390.176 83.36L392.58 79.04L390.176 83.36Z" stroke="white" stroke-width="0.96" stroke-linecap="round" stroke-linejoin="round"/>
<path d="M375.031 59.3599H444.987H375.031Z" stroke="white" stroke-width="0.72" stroke-linecap="round" stroke-linejoin="round"/>
<path d="M440.66 55.04L444.987 59.36L440.66 55.04Z" stroke="white" stroke-width="1.68" stroke-linecap="round" stroke-linejoin="round"/>
<path d="M440.66 55.04L437.775 59.36L440.66 55.04Z" stroke="white" stroke-width="0.96" stroke-linecap="round" stroke-linejoin="round"/>
<path d="M435.372 55.04L437.776 59.36L435.372 55.04Z" stroke="white" stroke-width="0.96" stroke-linecap="round" stroke-linejoin="round"/>
<path d="M435.371 55.04L432.727 59.36L435.371 55.04Z" stroke="white" stroke-width="0.96" stroke-linecap="round" stroke-linejoin="round"/>
<path d="M430.323 55.04L432.727 59.36L430.323 55.04Z" stroke="white" stroke-width="0.96" stroke-linecap="round" stroke-linejoin="round"/>
<path d="M430.323 55.04L427.919 59.36L430.323 55.04Z" stroke="white" stroke-width="0.96" stroke-linecap="round" stroke-linejoin="round"/>
<path d="M425.275 55.04L427.919 59.36L425.275 55.04Z" stroke="white" stroke-width="0.96" stroke-linecap="round" stroke-linejoin="round"/>
<path d="M425.275 55.04L422.871 59.36L425.275 55.04Z" stroke="white" stroke-width="0.96" stroke-linecap="round" stroke-linejoin="round"/>
<path d="M420.226 55.04L422.87 59.36L420.226 55.04Z" stroke="white" stroke-width="0.96" stroke-linecap="round" stroke-linejoin="round"/>
<path d="M420.226 55.04L417.822 59.36L420.226 55.04Z" stroke="white" stroke-width="0.96" stroke-linecap="round" stroke-linejoin="round"/>
<path d="M415.178 55.04L417.822 59.36L415.178 55.04Z" stroke="white" stroke-width="0.96" stroke-linecap="round" stroke-linejoin="round"/>
<path d="M415.178 55.04L412.774 59.36L415.178 55.04Z" stroke="white" stroke-width="0.96" stroke-linecap="round" stroke-linejoin="round"/>
<path d="M410.129 55.04L412.774 59.36L410.129 55.04Z" stroke="white" stroke-width="0.96" stroke-linecap="round" stroke-linejoin="round"/>
<path d="M410.13 55.04L407.726 59.36L410.13 55.04Z" stroke="white" stroke-width="0.96" stroke-linecap="round" stroke-linejoin="round"/>
<path d="M405.081 55.04L407.725 59.36L405.081 55.04Z" stroke="white" stroke-width="0.96" stroke-linecap="round" stroke-linejoin="round"/>
<path d="M405.081 55.04L402.677 59.36L405.081 55.04Z" stroke="white" stroke-width="0.96" stroke-linecap="round" stroke-linejoin="round"/>
<path d="M400.033 55.04L402.677 59.36L400.033 55.04Z" stroke="white" stroke-width="0.96" stroke-linecap="round" stroke-linejoin="round"/>
<path d="M400.032 55.04L397.628 59.36L400.032 55.04Z" stroke="white" stroke-width="0.96" stroke-linecap="round" stroke-linejoin="round"/>
<path d="M395.225 55.04L397.629 59.36L395.225 55.04Z" stroke="white" stroke-width="0.96" stroke-linecap="round" stroke-linejoin="round"/>
<path d="M395.224 55.04L392.58 59.36L395.224 55.04Z" stroke="white" stroke-width="0.96" stroke-linecap="round" stroke-linejoin="round"/>
<path d="M390.176 55.04L392.58 59.36L390.176 55.04Z" stroke="white" stroke-width="0.96" stroke-linecap="round" stroke-linejoin="round"/>
<path d="M390.176 55.04L387.532 59.36L390.176 55.04Z" stroke="white" stroke-width="0.96" stroke-linecap="round" stroke-linejoin="round"/>
<path d="M385.128 55.04L387.532 59.36L385.128 55.04Z" stroke="white" stroke-width="0.96" stroke-linecap="round" stroke-linejoin="round"/>
<path d="M385.128 55.04L382.483 59.36L385.128 55.04Z" stroke="white" stroke-width="0.96" stroke-linecap="round" stroke-linejoin="round"/>
<path d="M380.079 55.04L382.483 59.36L380.079 55.04Z" stroke="white" stroke-width="0.96" stroke-linecap="round" stroke-linejoin="round"/>
<path d="M380.079 55.04L377.435 59.36L380.079 55.04Z" stroke="white" stroke-width="0.96" stroke-linecap="round" stroke-linejoin="round"/>
<path d="M375.031 55.04L377.435 59.36L375.031 55.04Z" stroke="white" stroke-width="0.96" stroke-linecap="round" stroke-linejoin="round"/>
<path d="M390.176 83.36L387.532 79.04L390.176 83.36Z" stroke="white" stroke-width="0.96" stroke-linecap="round" stroke-linejoin="round"/>
<path d="M385.128 83.36L387.532 79.04L385.128 83.36Z" stroke="white" stroke-width="0.96" stroke-linecap="round" stroke-linejoin="round"/>
<path d="M385.128 83.36L382.483 79.04L385.128 83.36Z" stroke="white" stroke-width="0.96" stroke-linecap="round" stroke-linejoin="round"/>
<path d="M380.079 83.36L382.483 79.04L380.079 83.36Z" stroke="white" stroke-width="0.96" stroke-linecap="round" stroke-linejoin="round"/>
<path d="M380.079 83.36L377.435 79.04L380.079 83.36Z" stroke="white" stroke-width="0.96" stroke-linecap="round" stroke-linejoin="round"/>
<path d="M375.031 83.36L377.435 79.04L375.031 83.36Z" stroke="white" stroke-width="0.96" stroke-linecap="round" stroke-linejoin="round"/>
<path d="M375.031 55.04V83.36V55.04Z" stroke="white" stroke-width="1.68" stroke-linecap="round" stroke-linejoin="round"/>
<path d="M7.45752 55.04V83.36V55.04Z" stroke="white" stroke-width="1.68" stroke-linecap="round" stroke-linejoin="round"/>
<path d="M73.0871 79.04H3.13037H73.0871Z" stroke="white" stroke-width="0.72" stroke-linecap="round" stroke-linejoin="round"/>
<path d="M7.45759 83.36L3.13037 79.04L7.45759 83.36Z" stroke="white" stroke-width="1.68" stroke-linecap="round" stroke-linejoin="round"/>
<path d="M7.45752 83.36L10.3423 79.04L7.45752 83.36Z" stroke="white" stroke-width="0.96" stroke-linecap="round" stroke-linejoin="round"/>
<path d="M12.7463 83.36L10.3423 79.04L12.7463 83.36Z" stroke="white" stroke-width="0.96" stroke-linecap="round" stroke-linejoin="round"/>
<path d="M12.7466 83.36L15.391 79.04L12.7466 83.36Z" stroke="white" stroke-width="0.96" stroke-linecap="round" stroke-linejoin="round"/>
<path d="M17.7946 83.36L15.3906 79.04L17.7946 83.36Z" stroke="white" stroke-width="0.96" stroke-linecap="round" stroke-linejoin="round"/>
<path d="M17.7949 83.36L20.4393 79.04L17.7949 83.36Z" stroke="white" stroke-width="0.96" stroke-linecap="round" stroke-linejoin="round"/>
<path d="M22.8435 83.36L20.4395 79.04L22.8435 83.36Z" stroke="white" stroke-width="0.96" stroke-linecap="round" stroke-linejoin="round"/>
<path d="M22.8433 83.36L25.4877 79.04L22.8433 83.36Z" stroke="white" stroke-width="0.96" stroke-linecap="round" stroke-linejoin="round"/>
<path d="M27.8918 83.36L25.4878 79.04L27.8918 83.36Z" stroke="white" stroke-width="0.96" stroke-linecap="round" stroke-linejoin="round"/>
<path d="M27.8916 83.36L30.536 79.04L27.8916 83.36Z" stroke="white" stroke-width="0.96" stroke-linecap="round" stroke-linejoin="round"/>
<path d="M32.9401 83.36L30.5361 79.04L32.9401 83.36Z" stroke="white" stroke-width="0.96" stroke-linecap="round" stroke-linejoin="round"/>
<path d="M32.9399 83.36L35.3439 79.04L32.9399 83.36Z" stroke="white" stroke-width="0.96" stroke-linecap="round" stroke-linejoin="round"/>
<path d="M37.9886 83.36L35.3442 79.04L37.9886 83.36Z" stroke="white" stroke-width="0.96" stroke-linecap="round" stroke-linejoin="round"/>
<path d="M37.9883 83.36L40.3923 79.04L37.9883 83.36Z" stroke="white" stroke-width="0.96" stroke-linecap="round" stroke-linejoin="round"/>
<path d="M43.037 83.36L40.3926 79.04L43.037 83.36Z" stroke="white" stroke-width="0.96" stroke-linecap="round" stroke-linejoin="round"/>
<path d="M43.0371 83.36L45.4411 79.04L43.0371 83.36Z" stroke="white" stroke-width="0.96" stroke-linecap="round" stroke-linejoin="round"/>
<path d="M48.0853 83.36L45.4409 79.04L48.0853 83.36Z" stroke="white" stroke-width="0.96" stroke-linecap="round" stroke-linejoin="round"/>
<path d="M48.0854 83.36L50.4895 79.04L48.0854 83.36Z" stroke="white" stroke-width="0.96" stroke-linecap="round" stroke-linejoin="round"/>
<path d="M53.1337 83.36L50.4893 79.04L53.1337 83.36Z" stroke="white" stroke-width="0.96" stroke-linecap="round" stroke-linejoin="round"/>
<path d="M53.1338 83.36L55.5378 79.04L53.1338 83.36Z" stroke="white" stroke-width="0.96" stroke-linecap="round" stroke-linejoin="round"/>
<path d="M58.182 83.36L55.5376 79.04L58.182 83.36Z" stroke="white" stroke-width="0.96" stroke-linecap="round" stroke-linejoin="round"/>
<path d="M73.0871 59.3599H3.13037H73.0871Z" stroke="white" stroke-width="0.72" stroke-linecap="round" stroke-linejoin="round"/>
<path d="M7.45759 55.04L3.13037 59.36L7.45759 55.04Z" stroke="white" stroke-width="1.68" stroke-linecap="round" stroke-linejoin="round"/>
<path d="M7.45752 55.04L10.3423 59.36L7.45752 55.04Z" stroke="white" stroke-width="0.96" stroke-linecap="round" stroke-linejoin="round"/>
<path d="M12.7463 55.04L10.3423 59.36L12.7463 55.04Z" stroke="white" stroke-width="0.96" stroke-linecap="round" stroke-linejoin="round"/>
<path d="M12.7466 55.04L15.391 59.36L12.7466 55.04Z" stroke="white" stroke-width="0.96" stroke-linecap="round" stroke-linejoin="round"/>
<path d="M17.7946 55.04L15.3906 59.36L17.7946 55.04Z" stroke="white" stroke-width="0.96" stroke-linecap="round" stroke-linejoin="round"/>
<path d="M17.7949 55.04L20.4393 59.36L17.7949 55.04Z" stroke="white" stroke-width="0.96" stroke-linecap="round" stroke-linejoin="round"/>
<path d="M22.8435 55.04L20.4395 59.36L22.8435 55.04Z" stroke="white" stroke-width="0.96" stroke-linecap="round" stroke-linejoin="round"/>
<path d="M22.8433 55.04L25.4877 59.36L22.8433 55.04Z" stroke="white" stroke-width="0.96" stroke-linecap="round" stroke-linejoin="round"/>
<path d="M27.8918 55.04L25.4878 59.36L27.8918 55.04Z" stroke="white" stroke-width="0.96" stroke-linecap="round" stroke-linejoin="round"/>
<path d="M27.8916 55.04L30.536 59.36L27.8916 55.04Z" stroke="white" stroke-width="0.96" stroke-linecap="round" stroke-linejoin="round"/>
<path d="M32.9401 55.04L30.5361 59.36L32.9401 55.04Z" stroke="white" stroke-width="0.96" stroke-linecap="round" stroke-linejoin="round"/>
<path d="M32.9399 55.04L35.3439 59.36L32.9399 55.04Z" stroke="white" stroke-width="0.96" stroke-linecap="round" stroke-linejoin="round"/>
<path d="M37.9886 55.04L35.3442 59.36L37.9886 55.04Z" stroke="white" stroke-width="0.96" stroke-linecap="round" stroke-linejoin="round"/>
<path d="M37.9883 55.04L40.3923 59.36L37.9883 55.04Z" stroke="white" stroke-width="0.96" stroke-linecap="round" stroke-linejoin="round"/>
<path d="M43.037 55.04L40.3926 59.36L43.037 55.04Z" stroke="white" stroke-width="0.96" stroke-linecap="round" stroke-linejoin="round"/>
<path d="M43.0371 55.04L45.4411 59.36L43.0371 55.04Z" stroke="white" stroke-width="0.96" stroke-linecap="round" stroke-linejoin="round"/>
<path d="M48.0853 55.04L45.4409 59.36L48.0853 55.04Z" stroke="white" stroke-width="0.96" stroke-linecap="round" stroke-linejoin="round"/>
<path d="M48.0854 55.04L50.4895 59.36L48.0854 55.04Z" stroke="white" stroke-width="0.96" stroke-linecap="round" stroke-linejoin="round"/>
<path d="M53.1337 55.04L50.4893 59.36L53.1337 55.04Z" stroke="white" stroke-width="0.96" stroke-linecap="round" stroke-linejoin="round"/>
<path d="M53.1338 55.04L55.5378 59.36L53.1338 55.04Z" stroke="white" stroke-width="0.96" stroke-linecap="round" stroke-linejoin="round"/>
<path d="M58.182 55.04L55.5376 59.36L58.182 55.04Z" stroke="white" stroke-width="0.96" stroke-linecap="round" stroke-linejoin="round"/>
<path d="M58.1821 55.04L60.5861 59.36L58.1821 55.04Z" stroke="white" stroke-width="0.96" stroke-linecap="round" stroke-linejoin="round"/>
<path d="M62.9904 55.04L60.5864 59.36L62.9904 55.04Z" stroke="white" stroke-width="0.96" stroke-linecap="round" stroke-linejoin="round"/>
<path d="M62.9902 55.04L65.6346 59.36L62.9902 55.04Z" stroke="white" stroke-width="0.96" stroke-linecap="round" stroke-linejoin="round"/>
<path d="M68.0388 55.04L65.6348 59.36L68.0388 55.04Z" stroke="white" stroke-width="0.96" stroke-linecap="round" stroke-linejoin="round"/>
<path d="M68.0386 55.04L70.683 59.36L68.0386 55.04Z" stroke="white" stroke-width="0.96" stroke-linecap="round" stroke-linejoin="round"/>
<path d="M73.0871 55.04L70.6831 59.36L73.0871 55.04Z" stroke="white" stroke-width="0.96" stroke-linecap="round" stroke-linejoin="round"/>
<path d="M58.1821 83.36L60.5861 79.04L58.1821 83.36Z" stroke="white" stroke-width="0.96" stroke-linecap="round" stroke-linejoin="round"/>
<path d="M62.9904 83.36L60.5864 79.04L62.9904 83.36Z" stroke="white" stroke-width="0.96" stroke-linecap="round" stroke-linejoin="round"/>
<path d="M62.9902 83.36L65.6346 79.04L62.9902 83.36Z" stroke="white" stroke-width="0.96" stroke-linecap="round" stroke-linejoin="round"/>
<path d="M68.0388 83.36L65.6348 79.04L68.0388 83.36Z" stroke="white" stroke-width="0.96" stroke-linecap="round" stroke-linejoin="round"/>
<path d="M68.0386 83.36L70.683 79.04L68.0386 83.36Z" stroke="white" stroke-width="0.96" stroke-linecap="round" stroke-linejoin="round"/>
<path d="M73.0871 83.36L70.6831 79.04L73.0871 83.36Z" stroke="white" stroke-width="0.96" stroke-linecap="round" stroke-linejoin="round"/>
<path d="M73.0869 55.04V83.36V55.04Z" stroke="white" stroke-width="1.68" stroke-linecap="round" stroke-linejoin="round"/>
<path d="M216.607 14.48L213.481 17.84L216.607 14.48Z" stroke="white" stroke-width="1.68" stroke-linecap="round" stroke-linejoin="round"/>
<path d="M213.481 17.8398L212.52 20.2398L213.481 17.8398Z" stroke="white" stroke-width="1.68" stroke-linecap="round" stroke-linejoin="round"/>
<path d="M212.519 20.24L212.279 20.48L212.519 20.24Z" stroke="white" stroke-width="1.68" stroke-linecap="round" stroke-linejoin="round"/>
<path d="M212.279 20.48V20.72V20.48Z" stroke="white" stroke-width="1.68" stroke-linecap="round" stroke-linejoin="round"/>
<path d="M212.279 20.72V20.96V20.72Z" stroke="white" stroke-width="1.68" stroke-linecap="round" stroke-linejoin="round"/>
<path d="M212.279 20.96V21.2V20.96Z" stroke="white" stroke-width="1.68" stroke-linecap="round" stroke-linejoin="round"/>
<path d="M212.279 21.2V21.44V21.2Z" stroke="white" stroke-width="1.68" stroke-linecap="round" stroke-linejoin="round"/>
<path d="M212.279 21.4399V21.6799V21.4399Z" stroke="white" stroke-width="1.68" stroke-linecap="round" stroke-linejoin="round"/>
<path d="M212.279 21.6799L212.519 21.9199L212.279 21.6799Z" stroke="white" stroke-width="1.68" stroke-linecap="round" stroke-linejoin="round"/>
<path d="M212.52 21.9199V22.1599V21.9199Z" stroke="white" stroke-width="1.68" stroke-linecap="round" stroke-linejoin="round"/>
<path d="M212.52 22.1599V22.3999V22.1599Z" stroke="white" stroke-width="1.68" stroke-linecap="round" stroke-linejoin="round"/>
<path d="M212.52 22.3999L212.76 22.6399L212.52 22.3999Z" stroke="white" stroke-width="1.68" stroke-linecap="round" stroke-linejoin="round"/>
<path d="M212.76 22.6399V22.8799V22.6399Z" stroke="white" stroke-width="1.68" stroke-linecap="round" stroke-linejoin="round"/>
<path d="M212.76 22.8799L213 23.3599L212.76 22.8799Z" stroke="white" stroke-width="1.68" stroke-linecap="round" stroke-linejoin="round"/>
<path d="M213 23.3599L213.48 24.0799L213 23.3599Z" stroke="white" stroke-width="1.68" stroke-linecap="round" stroke-linejoin="round"/>
<path d="M213.481 24.0798L214.683 25.0398L213.481 24.0798Z" stroke="white" stroke-width="1.68" stroke-linecap="round" stroke-linejoin="round"/>
<path d="M214.684 25.04L217.088 27.2L214.684 25.04Z" stroke="white" stroke-width="1.68" stroke-linecap="round" stroke-linejoin="round"/>
<path d="M217.087 27.2L220.453 30.56L217.087 27.2Z" stroke="white" stroke-width="1.68" stroke-linecap="round" stroke-linejoin="round"/>
<path d="M220.453 30.5601L221.896 33.2001L220.453 30.5601Z" stroke="white" stroke-width="1.68" stroke-linecap="round" stroke-linejoin="round"/>
<path d="M221.896 33.2L222.136 36.08L221.896 33.2Z" stroke="white" stroke-width="1.68" stroke-linecap="round" stroke-linejoin="round"/>
<path d="M222.135 36.0798L221.655 38.7198L222.135 36.0798Z" stroke="white" stroke-width="1.68" stroke-linecap="round" stroke-linejoin="round"/>
<path d="M221.655 38.72L220.212 41.12L221.655 38.72Z" stroke="white" stroke-width="1.68" stroke-linecap="round" stroke-linejoin="round"/>
<path d="M220.212 41.1199L218.049 43.5199L220.212 41.1199Z" stroke="white" stroke-width="1.68" stroke-linecap="round" stroke-linejoin="round"/>
<path d="M218.049 43.52L217.087 44.24L218.049 43.52Z" stroke="white" stroke-width="1.68" stroke-linecap="round" stroke-linejoin="round"/>
<path d="M140.88 53.5999L137.515 56.9599L140.88 53.5999Z" stroke="white" stroke-width="1.68" stroke-linecap="round" stroke-linejoin="round"/>
<path d="M137.515 56.96L136.312 59.36L137.515 56.96Z" stroke="white" stroke-width="1.68" stroke-linecap="round" stroke-linejoin="round"/>
<path d="M136.312 59.3599V59.5999V59.3599Z" stroke="white" stroke-width="1.68" stroke-linecap="round" stroke-linejoin="round"/>
<path d="M136.312 59.5999V59.8399V59.5999Z" stroke="white" stroke-width="1.68" stroke-linecap="round" stroke-linejoin="round"/>
<path d="M136.312 59.8398V60.0798V59.8398Z" stroke="white" stroke-width="1.68" stroke-linecap="round" stroke-linejoin="round"/>
<path d="M136.312 60.0798V60.3198V60.0798Z" stroke="white" stroke-width="1.68" stroke-linecap="round" stroke-linejoin="round"/>
<path d="M136.312 60.3198V60.5598V60.3198Z" stroke="white" stroke-width="1.68" stroke-linecap="round" stroke-linejoin="round"/>
<path d="M136.312 60.5601V60.8001V60.5601Z" stroke="white" stroke-width="1.68" stroke-linecap="round" stroke-linejoin="round"/>
<path d="M136.312 60.8V61.04V60.8Z" stroke="white" stroke-width="1.68" stroke-linecap="round" stroke-linejoin="round"/>
<path d="M136.312 61.04H136.552H136.312Z" stroke="white" stroke-width="1.68" stroke-linecap="round" stroke-linejoin="round"/>
<path d="M136.553 61.04V61.28V61.04Z" stroke="white" stroke-width="1.68" stroke-linecap="round" stroke-linejoin="round"/>
<path d="M136.553 61.28V61.52V61.28Z" stroke="white" stroke-width="1.68" stroke-linecap="round" stroke-linejoin="round"/>
<path d="M136.553 61.52L136.793 62L136.553 61.52Z" stroke="white" stroke-width="1.68" stroke-linecap="round" stroke-linejoin="round"/>
<path d="M136.793 62L137.273 62.48L136.793 62Z" stroke="white" stroke-width="1.68" stroke-linecap="round" stroke-linejoin="round"/>
<path d="M137.274 62.48L138.236 63.44L137.274 62.48Z" stroke="white" stroke-width="1.68" stroke-linecap="round" stroke-linejoin="round"/>
<path d="M138.236 63.4399L140.399 65.1199L138.236 63.4399Z" stroke="white" stroke-width="1.68" stroke-linecap="round" stroke-linejoin="round"/>
<path d="M140.399 65.1199L143.765 67.9999L140.399 65.1199Z" stroke="white" stroke-width="1.68" stroke-linecap="round" stroke-linejoin="round"/>
<path d="M143.765 68L145.208 70.4L143.765 68Z" stroke="white" stroke-width="1.68" stroke-linecap="round" stroke-linejoin="round"/>
<path d="M145.208 70.3999L145.688 72.5599L145.208 70.3999Z" stroke="white" stroke-width="1.68" stroke-linecap="round" stroke-linejoin="round"/>
<path d="M145.688 72.5601L145.928 75.2001L145.688 72.5601Z" stroke="white" stroke-width="1.68" stroke-linecap="round" stroke-linejoin="round"/>
<path d="M145.928 75.2L145.448 79.04L145.928 75.2Z" stroke="white" stroke-width="1.68" stroke-linecap="round" stroke-linejoin="round"/>
<path d="M145.448 79.04V81.2V79.04Z" stroke="white" stroke-width="1.68" stroke-linecap="round" stroke-linejoin="round"/>
<path d="M145.448 81.2V81.44V81.2Z" stroke="white" stroke-width="1.68" stroke-linecap="round" stroke-linejoin="round"/>
<path d="M145.448 81.4399V81.6799V81.4399Z" stroke="white" stroke-width="1.68" stroke-linecap="round" stroke-linejoin="round"/>
<path d="M137.274 57.44L143.524 55.76L137.274 57.44Z" stroke="white" stroke-width="1.68" stroke-linecap="round" stroke-linejoin="round"/>
<path d="M143.524 55.7599L149.775 53.3599L143.524 55.7599Z" stroke="white" stroke-width="1.68" stroke-linecap="round" stroke-linejoin="round"/>
<path d="M149.775 53.3599L152.66 51.9199L149.775 53.3599Z" stroke="white" stroke-width="1.68" stroke-linecap="round" stroke-linejoin="round"/>
<path d="M152.66 51.92L176.219 38.24L152.66 51.92Z" stroke="white" stroke-width="1.68" stroke-linecap="round" stroke-linejoin="round"/>
<path d="M213.241 18.3198L207.471 20.4798L213.241 18.3198Z" stroke="white" stroke-width="1.68" stroke-linecap="round" stroke-linejoin="round"/>
<path d="M207.471 20.48L204.105 22.16L207.471 20.48Z" stroke="white" stroke-width="1.68" stroke-linecap="round" stroke-linejoin="round"/>
<path d="M221.174 39.6799L217.328 40.8799L221.174 39.6799Z" stroke="white" stroke-width="1.68" stroke-linecap="round" stroke-linejoin="round"/>
<path d="M217.328 40.8799L215.645 41.8399L217.328 40.8799Z" stroke="white" stroke-width="1.68" stroke-linecap="round" stroke-linejoin="round"/>
<path d="M163.958 71.5998L215.645 41.8398L163.958 71.5998Z" stroke="white" stroke-width="1.68" stroke-linecap="round" stroke-linejoin="round"/>
<path d="M145.448 78.7999L153.141 76.3999L145.448 78.7999Z" stroke="white" stroke-width="1.68" stroke-linecap="round" stroke-linejoin="round"/>
<path d="M153.141 76.4L160.593 73.28L153.141 76.4Z" stroke="white" stroke-width="1.68" stroke-linecap="round" stroke-linejoin="round"/>
<path d="M160.593 73.2798L163.959 71.5999L160.593 73.2798Z" stroke="white" stroke-width="1.68" stroke-linecap="round" stroke-linejoin="round"/>
<path d="M179.104 33.2L202.904 19.76L179.104 33.2Z" stroke="white" stroke-width="1.68" stroke-linecap="round" stroke-linejoin="round"/>
<path d="M180.546 35.8399L204.106 22.1599L180.546 35.8399Z" stroke="white" stroke-width="1.68" stroke-linecap="round" stroke-linejoin="round"/>
<path d="M3.13037 59.3599V79.0399V59.3599Z" stroke="white" stroke-width="1.68" stroke-linecap="round" stroke-linejoin="round"/>
<path d="M444.988 59.3599V79.0399V59.3599Z" stroke="white" stroke-width="1.68" stroke-linecap="round" stroke-linejoin="round"/>
<path d="M212.76 46.6399L219.251 40.1599L212.76 46.6399Z" stroke="white" stroke-width="0.48" stroke-linecap="round" stroke-linejoin="round"/>
<path d="M203.384 52.16L211.077 44.24L203.384 52.16Z" stroke="white" stroke-width="0.48" stroke-linecap="round" stroke-linejoin="round"/>
<path d="M193.769 57.44L201.702 49.76L193.769 57.44Z" stroke="white" stroke-width="0.48" stroke-linecap="round" stroke-linejoin="round"/>
<path d="M184.393 62.96L192.085 55.28L184.393 62.96Z" stroke="white" stroke-width="0.48" stroke-linecap="round" stroke-linejoin="round"/>
<path d="M174.777 68.48L182.71 60.8L174.777 68.48Z" stroke="white" stroke-width="0.48" stroke-linecap="round" stroke-linejoin="round"/>
<path d="M165.401 73.9998L173.094 66.3198L165.401 73.9998Z" stroke="white" stroke-width="0.48" stroke-linecap="round" stroke-linejoin="round"/>
<path d="M157.468 77.8398L163.478 71.5999L157.468 77.8398Z" stroke="white" stroke-width="0.48" stroke-linecap="round" stroke-linejoin="round"/>
<path d="M213 18.3199L213.722 17.5999L213 18.3199Z" stroke="white" stroke-width="0.48" stroke-linecap="round" stroke-linejoin="round"/>
<path d="M150.977 80.2399L155.785 75.4399L150.977 80.2399Z" stroke="white" stroke-width="0.48" stroke-linecap="round" stroke-linejoin="round"/>
<path d="M145.448 81.6799L149.535 77.5999L145.448 81.6799Z" stroke="white" stroke-width="0.48" stroke-linecap="round" stroke-linejoin="round"/>
<path d="M206.51 20.9599L211.558 15.9199L206.51 20.9599Z" stroke="white" stroke-width="0.48" stroke-linecap="round" stroke-linejoin="round"/>
<path d="M197.134 26.2401L204.827 18.5601L197.134 26.2401Z" stroke="white" stroke-width="0.48" stroke-linecap="round" stroke-linejoin="round"/>
<path d="M187.758 31.7598L195.451 23.8398L187.758 31.7598Z" stroke="white" stroke-width="0.48" stroke-linecap="round" stroke-linejoin="round"/>
<path d="M180.306 34.8799L185.835 29.3599L180.306 34.8799Z" stroke="white" stroke-width="0.48" stroke-linecap="round" stroke-linejoin="round"/>
<path d="M168.767 42.5598L175.017 36.3198L168.767 42.5598Z" stroke="white" stroke-width="0.48" stroke-linecap="round" stroke-linejoin="round"/>
<path d="M159.151 48.0799L166.844 40.3999L159.151 48.0799Z" stroke="white" stroke-width="0.48" stroke-linecap="round" stroke-linejoin="round"/>
<path d="M150.016 53.3599L157.468 45.9199L150.016 53.3599Z" stroke="white" stroke-width="0.48" stroke-linecap="round" stroke-linejoin="round"/>
<path d="M143.284 56L148.333 50.96L143.284 56Z" stroke="white" stroke-width="0.48" stroke-linecap="round" stroke-linejoin="round"/>
<path d="M137.995 57.1999L141.842 53.3599L137.995 57.1999Z" stroke="white" stroke-width="0.48" stroke-linecap="round" stroke-linejoin="round"/>

    <!--    1 A-->
    <g class="group">
    </g>
    <!--    2 D-->
    <g class="group">
    </g>
    <!--    3 Dy-->
    <g class="group">
    </g>
    <!--    4 Dh-->
    <g class="group">
    </g>
    <!--    5 D1-->
    <g class="group">
    </g>
    <!--   6 D2-->
    <g class="group">
    </g>
    <!--   7 d-->
    <g class="group">
        <path d="M467.389 65.7285L454.374 60.9991V59.0567L469.45 64.5351V66.3104L467.389 65.7285ZM464.258 72.1932L464.052 72.1183C463.241 71.8234 462.504 71.4515 461.844 71.0025C461.176 70.5441 460.604 70.0332 460.126 69.4698C459.648 68.8994 459.282 68.2963 459.027 67.6605C458.765 67.0154 458.634 66.3552 458.634 65.6799C458.634 64.9698 458.752 64.393 458.987 63.9495C459.216 63.4966 459.553 63.1665 459.998 62.9592C460.437 62.7426 460.967 62.6393 461.588 62.6494C462.21 62.6595 462.913 62.7654 463.699 62.9672L464.602 63.2953C465.38 63.6549 466.08 64.059 466.702 64.5076C467.324 64.9493 467.854 65.4378 468.292 65.9731C468.73 66.5014 469.067 67.0764 469.303 67.698C469.532 68.3173 469.646 68.9855 469.646 69.7026C469.646 70.364 469.512 70.9209 469.244 71.3734C468.976 71.819 468.6 72.1522 468.115 72.3731C467.631 72.587 467.062 72.683 466.408 72.661C465.747 72.6297 465.03 72.4738 464.258 72.1932ZM464.052 70.1759L464.258 70.2508C464.788 70.4434 465.285 70.5684 465.75 70.6258C466.215 70.6763 466.623 70.6439 466.977 70.5286C467.33 70.4134 467.608 70.2046 467.811 69.9024C468.007 69.5978 468.106 69.1844 468.106 68.6623C468.106 68.0218 467.978 67.4498 467.723 66.9463C467.468 66.4358 467.131 65.9792 466.712 65.5764C466.293 65.1736 465.838 64.8134 465.348 64.4958L462.982 63.6362C462.622 63.589 462.275 63.5848 461.942 63.6237C461.601 63.6532 461.3 63.7457 461.039 63.9012C460.77 64.0474 460.558 64.273 460.401 64.5779C460.244 64.8759 460.165 65.2686 460.165 65.7559C460.165 66.285 460.27 66.7791 460.479 67.2381C460.682 67.6877 460.964 68.0998 461.323 68.4742C461.677 68.8463 462.089 69.1771 462.56 69.4667C463.025 69.7469 463.522 69.9833 464.052 70.1759Z" fill="white"/>
        <path d="M451.238 54.8C451.106 54.8 450.998 54.9075 450.998 55.04C450.998 55.1726 451.106 55.28 451.238 55.28V54.8ZM484.414 55.28C484.546 55.28 484.654 55.1726 484.654 55.04C484.654 54.9075 484.546 54.8 484.414 54.8V55.28ZM451.238 83.1199C451.106 83.1199 450.998 83.2273 450.998 83.3599C450.998 83.4924 451.106 83.5999 451.238 83.5999V83.1199ZM484.414 83.5999C484.546 83.5999 484.654 83.4924 484.654 83.3599C484.654 83.2273 484.546 83.1199 484.414 83.1199V83.5999ZM467.389 65.7285L467.307 65.9541C467.313 65.9561 467.318 65.9579 467.324 65.9595L467.389 65.7285ZM454.374 60.9991H454.134C454.134 61.1 454.198 61.1902 454.292 61.2246L454.374 60.9991ZM454.374 59.0567L454.456 58.8311C454.383 58.8044 454.301 58.8152 454.237 58.8601C454.173 58.905 454.134 58.9784 454.134 59.0567H454.374ZM469.45 64.5351H469.69C469.69 64.4342 469.627 64.344 469.532 64.3096L469.45 64.5351ZM469.45 66.3104L469.385 66.5414C469.457 66.5618 469.535 66.5472 469.595 66.5018C469.655 66.4564 469.69 66.3856 469.69 66.3104H469.45ZM464.258 72.1932L464.34 71.9676L464.34 71.9676L464.258 72.1932ZM464.052 72.1183L463.97 72.3438L463.97 72.3438L464.052 72.1183ZM461.844 71.0025L461.708 71.2003L461.709 71.201L461.844 71.0025ZM460.126 69.4698L459.942 69.6239L459.943 69.625L460.126 69.4698ZM459.027 67.6605L459.249 67.5711L459.249 67.5703L459.027 67.6605ZM458.987 63.9495L459.199 64.0621L459.202 64.0578L458.987 63.9495ZM459.998 62.9592L460.1 63.1768L460.105 63.1744L459.998 62.9592ZM463.699 62.9672L463.781 62.7416C463.773 62.739 463.766 62.7367 463.758 62.7347L463.699 62.9672ZM464.602 63.2953L464.702 63.0774C464.696 63.0746 464.69 63.072 464.684 63.0698L464.602 63.2953ZM466.702 64.5076L466.562 64.7022L466.563 64.7033L466.702 64.5076ZM468.292 65.9731L468.106 66.1252L468.107 66.1264L468.292 65.9731ZM469.303 67.698L469.528 67.6148L469.527 67.613L469.303 67.698ZM469.244 71.3734L469.45 71.4972L469.451 71.4958L469.244 71.3734ZM468.115 72.3731L468.212 72.5926L468.215 72.5914L468.115 72.3731ZM466.408 72.661L466.396 72.9007L466.399 72.9009L466.408 72.661ZM464.052 70.1759L464.134 69.9503L464.134 69.9503L464.052 70.1759ZM464.258 70.2508L464.176 70.4764L464.176 70.4764L464.258 70.2508ZM465.75 70.6258L465.72 70.8641L465.724 70.8644L465.75 70.6258ZM467.811 69.9024L468.01 70.0362L468.013 70.0324L467.811 69.9024ZM467.723 66.9463L467.508 67.0536L467.509 67.0548L467.723 66.9463ZM465.348 64.4958L465.478 64.2943C465.463 64.2845 465.446 64.2764 465.429 64.2702L465.348 64.4958ZM462.982 63.6362L463.064 63.4107C463.048 63.4047 463.031 63.4006 463.013 63.3983L462.982 63.6362ZM461.942 63.6237L461.962 63.8629L461.969 63.8621L461.942 63.6237ZM461.039 63.9012L461.154 64.1121L461.161 64.1076L461.039 63.9012ZM460.401 64.5779L460.613 64.6898L460.614 64.6878L460.401 64.5779ZM460.479 67.2381L460.698 67.1394L460.698 67.1385L460.479 67.2381ZM461.323 68.4742L461.497 68.309L461.496 68.3079L461.323 68.4742ZM462.56 69.4667L462.434 69.6711L462.436 69.6722L462.56 69.4667ZM480.567 40.8799L480.805 40.9122C480.818 40.8163 480.772 40.722 480.688 40.673C480.605 40.624 480.5 40.6298 480.423 40.6878L480.567 40.8799ZM478.644 42.3199L478.644 42.5599L478.644 42.5599L478.644 42.3199ZM476.721 40.8799L476.865 40.6878C476.787 40.6298 476.682 40.624 476.599 40.673C476.516 40.722 476.47 40.8163 476.483 40.9122L476.721 40.8799ZM478.884 35.3599C478.884 35.2273 478.776 35.1199 478.644 35.1199C478.511 35.1199 478.404 35.2273 478.404 35.3599H478.884ZM476.721 97.5199L476.483 97.4876C476.47 97.5834 476.516 97.6777 476.599 97.7268C476.682 97.7758 476.787 97.77 476.865 97.712L476.721 97.5199ZM478.644 96.0798L478.644 95.8398L478.644 95.8398L478.644 96.0798ZM480.567 97.5198L480.423 97.7119C480.5 97.7699 480.605 97.7758 480.688 97.7267C480.772 97.6777 480.818 97.5834 480.805 97.4875L480.567 97.5198ZM478.404 103.28C478.404 103.412 478.511 103.52 478.644 103.52C478.776 103.52 478.884 103.412 478.884 103.28L478.404 103.28ZM451.238 55.28H484.414V54.8H451.238V55.28ZM451.238 83.5999H484.414V83.1199H451.238V83.5999ZM467.471 65.5029L454.456 60.7735L454.292 61.2246L467.307 65.9541L467.471 65.5029ZM454.614 60.9991V59.0567H454.134V60.9991H454.614ZM454.292 59.2823L469.368 64.7607L469.532 64.3096L454.456 58.8311L454.292 59.2823ZM469.21 64.5351V66.3104H469.69V64.5351H469.21ZM469.515 66.0794L467.454 65.4975L467.324 65.9595L469.385 66.5414L469.515 66.0794ZM464.34 71.9676L464.134 71.8927L463.97 72.3438L464.176 72.4187L464.34 71.9676ZM464.134 71.8927C463.34 71.6041 462.622 71.241 461.978 70.804L461.709 71.201C462.387 71.662 463.141 72.0427 463.97 72.3438L464.134 71.8927ZM461.979 70.8046C461.328 70.3572 460.772 69.8603 460.309 69.3146L459.943 69.625C460.436 70.2061 461.024 70.7311 461.708 71.2003L461.979 70.8046ZM460.31 69.3157C459.847 68.763 459.494 68.1815 459.249 67.5711L458.804 67.7499C459.069 68.4111 459.449 69.0357 459.942 69.6239L460.31 69.3157ZM459.249 67.5703C458.999 66.9529 458.874 66.3233 458.874 65.6799H458.394C458.394 66.3871 458.531 67.0779 458.804 67.7507L459.249 67.5703ZM458.874 65.6799C458.874 64.9937 458.988 64.4595 459.199 64.062L458.775 63.8369C458.515 64.3264 458.394 64.9458 458.394 65.6799H458.874ZM459.202 64.0578C459.407 63.6512 459.705 63.3605 460.1 63.1768L459.897 62.7417C459.402 62.9725 459.026 63.342 458.773 63.8411L459.202 64.0578ZM460.105 63.1744C460.501 62.9787 460.991 62.8797 461.585 62.8894L461.592 62.4094C460.943 62.3989 460.373 62.5066 459.892 62.7441L460.105 63.1744ZM461.585 62.8894C462.183 62.8991 462.867 63.0012 463.639 63.1996L463.758 62.7347C462.96 62.5296 462.237 62.4199 461.592 62.4094L461.585 62.8894ZM463.617 63.1928L464.52 63.5209L464.684 63.0698L463.781 62.7416L463.617 63.1928ZM464.501 63.5132C465.267 63.867 465.954 64.2636 466.562 64.7022L466.842 64.313C466.207 63.8543 465.493 63.4427 464.702 63.0774L464.501 63.5132ZM466.563 64.7033C467.169 65.1339 467.683 65.608 468.106 66.1252L468.478 65.821C468.024 65.2676 467.478 64.7648 466.841 64.312L466.563 64.7033ZM468.107 66.1264C468.529 66.6349 468.853 67.187 469.079 67.7831L469.527 67.613C469.282 66.9657 468.931 66.3678 468.477 65.8198L468.107 66.1264ZM469.078 67.7813C469.296 68.3717 469.406 69.0115 469.406 69.7026H469.886C469.886 68.9596 469.768 68.2629 469.528 67.6148L469.078 67.7813ZM469.406 69.7026C469.406 70.3319 469.279 70.844 469.038 71.251L469.451 71.4958C469.746 70.9979 469.886 70.3961 469.886 69.7026H469.406ZM469.038 71.2496C468.796 71.6527 468.457 71.9534 468.016 72.1547L468.215 72.5914C468.742 72.3509 469.156 71.9853 469.45 71.4972L469.038 71.2496ZM468.018 72.1535C467.574 72.3498 467.042 72.4422 466.416 72.4211L466.399 72.9009C467.082 72.9237 467.688 72.8241 468.212 72.5926L468.018 72.1535ZM466.419 72.4213C465.787 72.3913 465.095 72.2418 464.34 71.9676L464.176 72.4187C464.966 72.7057 465.706 72.868 466.396 72.9007L466.419 72.4213ZM463.97 70.4015L464.176 70.4764L464.34 70.0252L464.134 69.9503L463.97 70.4015ZM464.176 70.4764C464.72 70.6739 465.235 70.804 465.72 70.864L465.779 70.3877C465.336 70.3328 464.856 70.2129 464.34 70.0252L464.176 70.4764ZM465.724 70.8644C466.214 70.9177 466.658 70.885 467.051 70.7568L466.902 70.3005C466.589 70.4029 466.215 70.435 465.776 70.3872L465.724 70.8644ZM467.051 70.7568C467.454 70.6253 467.777 70.3839 468.01 70.0361L467.612 69.7686C467.44 70.0253 467.206 70.2015 466.902 70.3005L467.051 70.7568ZM468.013 70.0324C468.243 69.6755 468.346 69.2112 468.346 68.6623H467.866C467.866 69.1576 467.772 69.5201 467.609 69.7724L468.013 70.0324ZM468.346 68.6623C468.346 67.9892 468.211 67.3792 467.937 66.8378L467.509 67.0548C467.745 67.5203 467.866 68.0543 467.866 68.6623H468.346ZM467.937 66.839C467.67 66.3036 467.316 65.8248 466.878 65.4034L466.545 65.7494C466.945 66.1335 467.265 66.5681 467.508 67.0536L467.937 66.839ZM466.878 65.4034C466.448 64.9899 465.981 64.6202 465.478 64.2943L465.217 64.6973C465.695 65.0066 466.138 65.3572 466.545 65.7494L466.878 65.4034ZM465.429 64.2702L463.064 63.4107L462.9 63.8618L465.266 64.7214L465.429 64.2702ZM463.013 63.3983C462.635 63.3487 462.269 63.344 461.914 63.3853L461.969 63.8621C462.282 63.8257 462.609 63.8293 462.951 63.8742L463.013 63.3983ZM461.921 63.3846C461.549 63.4168 461.213 63.5188 460.916 63.6949L461.161 64.1076C461.388 63.9726 461.654 63.8896 461.962 63.8628L461.921 63.3846ZM460.924 63.6905C460.608 63.8624 460.364 64.1258 460.187 64.468L460.614 64.6878C460.752 64.4201 460.933 64.2324 461.154 64.112L460.924 63.6905ZM460.188 64.466C460.007 64.8105 459.925 65.2458 459.925 65.7559H460.405C460.405 65.2913 460.481 64.9414 460.613 64.6898L460.188 64.466ZM459.925 65.7559C459.925 66.3177 460.037 66.8459 460.261 67.3377L460.698 67.1385C460.503 66.7123 460.405 66.2524 460.405 65.7559H459.925ZM460.261 67.3368C460.475 67.8127 460.772 68.2474 461.15 68.6405L461.496 68.3079C461.155 67.9522 460.889 67.5628 460.698 67.1394L460.261 67.3368ZM461.149 68.6395C461.518 69.0278 461.947 69.3715 462.434 69.6711L462.686 69.2622C462.231 68.9827 461.835 68.6648 461.497 68.309L461.149 68.6395ZM462.436 69.6722C462.915 69.9607 463.426 70.2038 463.97 70.4015L464.134 69.9503C463.618 69.7628 463.135 69.533 462.684 69.2612L462.436 69.6722ZM478.881 55.0722L480.805 40.9122L480.329 40.8476L478.406 55.0076L478.881 55.0722ZM480.423 40.6878L478.5 42.1278L478.787 42.512L480.711 41.072L480.423 40.6878ZM478.787 42.1278L476.865 40.6878L476.577 41.072L478.5 42.512L478.787 42.1278ZM476.483 40.9122L478.406 55.0722L478.881 55.0076L476.959 40.8476L476.483 40.9122ZM478.884 55.0399V35.3599H478.404V55.0399H478.884ZM480.326 41.3599H480.567V40.8799H480.326V41.3599ZM480.086 41.5999H480.567V41.1199H480.086V41.5999ZM479.605 41.8399H480.567V41.3599H479.605V41.8399ZM479.365 42.0799H480.567V41.5999H479.365V42.0799ZM479.124 42.3199H480.567V41.8399H479.124V42.3199ZM478.644 42.5599L480.567 42.5599L480.567 42.0799L478.644 42.0799L478.644 42.5599ZM478.644 53.5999H478.884V53.1199H478.644V53.5999ZM478.644 53.8399H478.884V53.3599H478.644V53.8399ZM478.644 54.0799H478.884V53.5999H478.644V54.0799ZM478.644 54.3199H478.884V53.8399H478.644V54.3199ZM478.644 54.5599H478.884V54.0799H478.644V54.5599ZM478.644 54.7999H478.884V54.3199H478.644V54.7999ZM478.644 55.0399H478.884V54.5599H478.644V55.0399ZM476.961 41.3599H477.201V40.8799H476.961V41.3599ZM476.961 41.5999H477.442V41.1199H476.961V41.5999ZM476.961 41.8399H477.682V41.3599H476.961V41.8399ZM476.961 42.0799H478.163V41.5999H476.961V42.0799ZM476.961 42.3199H478.403V41.8399H476.961V42.3199ZM476.961 42.5599L478.644 42.5599L478.644 42.0799L476.961 42.0799L476.961 42.5599ZM478.406 83.3276L476.483 97.4876L476.959 97.5522L478.882 83.3922L478.406 83.3276ZM476.865 97.712L478.788 96.2719L478.5 95.8877L476.577 97.3278L476.865 97.712ZM478.5 96.2719L480.423 97.7119L480.711 97.3277L478.788 95.8877L478.5 96.2719ZM480.805 97.4875L478.882 83.3276L478.406 83.3922L480.329 97.5521L480.805 97.4875ZM478.404 83.3599L478.404 103.28L478.884 103.28L478.884 83.3599L478.404 83.3599ZM476.961 96.32L478.644 96.3198L478.644 95.8398L476.961 95.84L476.961 96.32ZM476.961 96.56H478.403V96.08H476.961V96.56ZM476.961 96.8H478.163V96.32H476.961V96.8ZM476.961 97.04H477.682V96.56H476.961V97.04ZM476.961 97.28H477.442V96.8H476.961V97.28ZM476.961 97.52H477.201V97.04H476.961V97.52ZM478.644 83.8399H478.884V83.3599H478.644V83.8399ZM478.644 84.0799H478.884V83.5999H478.644V84.0799ZM478.644 84.3199H478.884V83.8399H478.644V84.3199ZM478.644 84.5599H478.884V84.0799H478.644V84.5599ZM478.644 84.7999H478.884V84.3199H478.644V84.7999ZM478.644 85.0399H478.884V84.5599H478.644V85.0399ZM478.644 85.2799H478.884V84.7999H478.644V85.2799ZM478.644 96.3198L480.567 96.3198L480.567 95.8398L478.644 95.8398L478.644 96.3198ZM479.124 96.5598H480.567V96.0798H479.124V96.5598ZM479.365 96.7998H480.567V96.3198H479.365V96.7998ZM479.605 97.0398H480.567V96.5598H479.605V97.0398ZM480.086 97.2798H480.567V96.7998H480.086V97.2798ZM480.326 97.5198H480.567V97.0398H480.326V97.5198ZM478.404 55.0399L478.404 83.3599L478.884 83.3599L478.884 55.0399L478.404 55.0399ZM476.961 42.7999L480.567 42.7999L480.567 42.3199L476.961 42.3199L476.961 42.7999ZM477.201 43.0399L480.326 43.0399L480.326 42.5599L477.201 42.5599L477.201 43.0399ZM477.201 43.2799L480.326 43.2799L480.326 42.7999L477.201 42.7999L477.201 43.2799ZM477.201 43.5199L480.326 43.5199L480.326 43.0399L477.201 43.0399L477.201 43.5199ZM477.201 43.7599L480.326 43.7599L480.326 43.2799L477.201 43.2799L477.201 43.7599ZM477.201 43.9999L480.326 43.9999L480.326 43.5199L477.201 43.5199L477.201 43.9999ZM477.201 44.2399L480.326 44.2399L480.326 43.7599L477.201 43.7599L477.201 44.2399ZM477.201 44.4799L480.326 44.4799L480.326 43.9999L477.201 43.9999L477.201 44.4799ZM477.442 44.7199L480.086 44.7199L480.086 44.2399L477.442 44.2399L477.442 44.7199ZM477.442 44.9599L480.086 44.9599L480.086 44.4799L477.442 44.4799L477.442 44.9599ZM477.442 45.1999L480.086 45.1999L480.086 44.7199L477.442 44.7199L477.442 45.1999ZM477.442 45.4399L480.086 45.4399L480.086 44.9599L477.442 44.9599L477.442 45.4399ZM477.442 45.6799L480.086 45.6799L480.086 45.1999L477.442 45.1999L477.442 45.6799ZM477.442 45.9199L480.086 45.9199L480.086 45.4399L477.442 45.4399L477.442 45.9199ZM477.442 46.1599L480.086 46.1599L480.086 45.6799L477.442 45.6799L477.442 46.1599ZM477.442 46.3999L480.086 46.3999L480.086 45.9199L477.442 45.9199L477.442 46.3999ZM477.682 46.6399L479.846 46.6399L479.846 46.1599L477.682 46.1599L477.682 46.6399ZM477.682 46.8799L479.846 46.8799L479.846 46.3999L477.682 46.3999L477.682 46.8799ZM477.682 47.1199L479.846 47.1199L479.846 46.6399L477.682 46.6399L477.682 47.1199ZM477.682 47.3599L479.846 47.3599L479.846 46.8799L477.682 46.8799L477.682 47.3599ZM477.682 47.5999L479.846 47.5999L479.846 47.1199L477.682 47.1199L477.682 47.5999ZM477.682 47.8399L479.846 47.8399L479.846 47.3599L477.682 47.3599L477.682 47.8399ZM477.682 48.0799L479.846 48.0799L479.846 47.5999L477.682 47.5999L477.682 48.0799ZM477.923 48.3199L479.605 48.3199L479.605 47.8399L477.923 47.8399L477.923 48.3199ZM477.923 48.5599L479.605 48.5599L479.605 48.0799L477.923 48.0799L477.923 48.5599ZM477.923 48.7999L479.605 48.7999L479.605 48.3199L477.923 48.3199L477.923 48.7999ZM477.923 49.0399L479.605 49.0399L479.605 48.5599L477.923 48.5599L477.923 49.0399ZM477.923 49.2799L479.605 49.2799L479.605 48.7999L477.923 48.7999L477.923 49.2799ZM477.923 49.5199L479.605 49.5199L479.605 49.0399L477.923 49.0399L477.923 49.5199ZM477.923 49.7599L479.605 49.7599L479.605 49.2799L477.923 49.2799L477.923 49.7599ZM478.163 49.9999L479.365 49.9999L479.365 49.5199L478.163 49.5199L478.163 49.9999ZM478.163 50.2399L479.365 50.2399L479.365 49.7599L478.163 49.7599L478.163 50.2399ZM478.163 50.4799L479.365 50.4799L479.365 49.9999L478.163 49.9999L478.163 50.4799ZM478.163 50.7199L479.365 50.7199L479.365 50.2399L478.163 50.2399L478.163 50.7199ZM478.163 50.9599L479.365 50.9599L479.365 50.4799L478.163 50.4799L478.163 50.9599ZM478.163 51.1999L479.365 51.1999L479.365 50.7199L478.163 50.7199L478.163 51.1999ZM478.163 51.4399L479.365 51.4399L479.365 50.9599L478.163 50.9599L478.163 51.4399ZM478.163 51.6799L479.365 51.6799L479.365 51.1999L478.163 51.1999L478.163 51.6799ZM478.403 51.9199L479.124 51.9199L479.124 51.4399L478.403 51.4399L478.403 51.9199ZM478.403 52.1599L479.124 52.1599L479.124 51.6799L478.403 51.6799L478.403 52.1599ZM478.403 52.3999L479.124 52.3999L479.124 51.9199L478.403 51.9199L478.403 52.3999ZM478.403 52.6399L479.124 52.6399L479.124 52.1599L478.403 52.1599L478.403 52.6399ZM478.403 52.8799L479.124 52.8799L479.124 52.3999L478.403 52.3999L478.403 52.8799ZM478.403 53.1199L479.124 53.1199L479.124 52.6399L478.403 52.6399L478.403 53.1199ZM478.403 53.3599L479.124 53.3599L479.124 52.8799L478.403 52.8799L478.403 53.3599ZM478.403 85.52L479.124 85.5199L479.124 85.0399L478.403 85.04L478.403 85.52ZM478.403 85.76L479.124 85.7599L479.124 85.2799L478.403 85.28L478.403 85.76ZM478.403 86L479.124 85.9999L479.124 85.5199L478.403 85.52L478.403 86ZM478.403 86.24L479.124 86.2399L479.124 85.7599L478.403 85.76L478.403 86.24ZM478.403 86.48L479.124 86.4799L479.124 85.9999L478.403 86L478.403 86.48ZM478.403 86.72L479.124 86.7199L479.124 86.2399L478.403 86.24L478.403 86.72ZM478.403 86.96L479.124 86.9599L479.124 86.4799L478.403 86.48L478.403 86.96ZM478.163 87.2L479.365 87.1999L479.365 86.7199L478.163 86.72L478.163 87.2ZM478.163 87.44L479.365 87.4399L479.365 86.9599L478.163 86.96L478.163 87.44ZM478.163 87.68L479.365 87.6798L479.365 87.1998L478.163 87.2L478.163 87.68ZM478.163 87.92L479.365 87.9199L479.365 87.4399L478.163 87.44L478.163 87.92ZM478.163 88.16L479.365 88.1598L479.365 87.6798L478.163 87.68L478.163 88.16ZM478.163 88.4L479.365 88.3999L479.365 87.9199L478.163 87.92L478.163 88.4ZM478.163 88.64L479.365 88.6399L479.365 88.1599L478.163 88.16L478.163 88.64ZM478.163 88.88L479.365 88.8799L479.365 88.3999L478.163 88.4L478.163 88.88ZM477.923 89.12L479.605 89.1199L479.605 88.6399L477.923 88.64L477.923 89.12ZM477.923 89.36L479.605 89.3599L479.605 88.8799L477.923 88.88L477.923 89.36ZM477.923 89.6L479.605 89.5999L479.605 89.1199L477.923 89.12L477.923 89.6ZM477.923 89.84L479.605 89.8398L479.605 89.3598L477.923 89.36L477.923 89.84ZM477.923 90.08L479.605 90.0799L479.605 89.5999L477.923 89.6L477.923 90.08ZM477.923 90.32L479.605 90.3198L479.605 89.8398L477.923 89.84L477.923 90.32ZM477.923 90.56L479.605 90.5599L479.605 90.0799L477.923 90.08L477.923 90.56ZM477.682 90.8L479.846 90.7998L479.846 90.3198L477.682 90.32L477.682 90.8ZM477.682 91.04L479.846 91.0399L479.846 90.5599L477.682 90.56L477.682 91.04ZM477.682 91.28L479.846 91.2798L479.846 90.7998L477.682 90.8L477.682 91.28ZM477.682 91.52L479.846 91.5198L479.846 91.0399L477.682 91.04L477.682 91.52ZM477.682 91.76L479.846 91.7598L479.846 91.2798L477.682 91.28L477.682 91.76ZM477.682 92L479.846 91.9998L479.846 91.5198L477.682 91.52L477.682 92ZM477.682 92.24L479.846 92.2398L479.846 91.7598L477.682 91.76L477.682 92.24ZM477.442 92.48L480.086 92.4798L480.086 91.9998L477.442 92L477.442 92.48ZM477.442 92.72L480.086 92.7199L480.086 92.2399L477.442 92.24L477.442 92.72ZM477.442 92.96L480.086 92.9598L480.086 92.4798L477.442 92.48L477.442 92.96ZM477.442 93.2L480.086 93.1999L480.086 92.7199L477.442 92.72L477.442 93.2ZM477.442 93.44L480.086 93.4398L480.086 92.9598L477.442 92.96L477.442 93.44ZM477.442 93.68L480.086 93.6798L480.086 93.1998L477.442 93.2L477.442 93.68ZM477.442 93.92L480.086 93.9198L480.086 93.4398L477.442 93.44L477.442 93.92ZM477.442 94.16L480.086 94.1598L480.086 93.6798L477.442 93.68L477.442 94.16ZM477.201 94.4L480.326 94.3998L480.326 93.9198L477.201 93.92L477.201 94.4ZM477.201 94.64L480.326 94.6398L480.326 94.1598L477.201 94.16L477.201 94.64ZM477.201 94.88L480.326 94.8798L480.326 94.3998L477.201 94.4L477.201 94.88ZM477.201 95.12L480.326 95.1198L480.326 94.6398L477.201 94.64L477.201 95.12ZM477.201 95.36L480.326 95.3598L480.326 94.8798L477.201 94.88L477.201 95.36ZM477.201 95.6L480.326 95.5998L480.326 95.1198L477.201 95.12L477.201 95.6ZM477.201 95.84L480.326 95.8398L480.326 95.3598L477.201 95.36L477.201 95.84ZM476.961 96.08L480.567 96.0798L480.567 95.5998L476.961 95.6L476.961 96.08Z" fill="white"/>
    </g>
    <!--    8 dH-->
    <g class="group">
    </g>
    <!--    9 d1-->
    <g class="group">
    </g>
    <!--    10 d2-->
    <g class="group">
    </g>
    <!--    11 L-->
    <g class="group">
        <path d="M72.5926 112.669L72.031 114.209H64.4285L64.9901 112.669H72.5926ZM70.0338 99.9242L64.8253 114.209H62.8099L68.0183 99.9242H70.0338Z" fill="white"/>
        <path d="M3.37037 91.76C3.37037 91.6275 3.26292 91.52 3.13037 91.52C2.99782 91.52 2.89037 91.6275 2.89037 91.76H3.37037ZM2.89037 128.96C2.89037 129.093 2.99782 129.2 3.13037 129.2C3.26292 129.2 3.37037 129.093 3.37037 128.96H2.89037ZM130.062 91.76C130.062 91.6275 129.954 91.52 129.822 91.52C129.689 91.52 129.582 91.6275 129.582 91.76H130.062ZM129.582 128.96C129.582 129.093 129.689 129.2 129.822 129.2C129.954 129.2 130.062 129.093 130.062 128.96H129.582ZM72.5926 112.669L72.8181 112.751C72.8449 112.677 72.8341 112.595 72.7892 112.531C72.7443 112.467 72.6709 112.429 72.5926 112.429V112.669ZM72.031 114.209V114.449C72.1318 114.449 72.2219 114.386 72.2564 114.291L72.031 114.209ZM64.4285 114.209L64.203 114.127C64.1762 114.201 64.187 114.283 64.2319 114.347C64.2768 114.411 64.3502 114.449 64.4285 114.449V114.209ZM64.9901 112.669V112.429C64.8893 112.429 64.7992 112.492 64.7647 112.587L64.9901 112.669ZM70.0338 99.9242L70.2593 100.006C70.2861 99.9328 70.2753 99.8508 70.2304 99.7866C70.1855 99.7224 70.1121 99.6842 70.0338 99.6842V99.9242ZM64.8253 114.209V114.449C64.9262 114.449 65.0163 114.386 65.0508 114.291L64.8253 114.209ZM62.8099 114.209L62.5844 114.127C62.5575 114.201 62.5683 114.283 62.6132 114.347C62.6581 114.411 62.7315 114.449 62.8099 114.449V114.209ZM68.0183 99.9242V99.6842C67.9174 99.6842 67.8274 99.7472 67.7928 99.842L68.0183 99.9242ZM3.13037 123.44L3.09818 123.202C2.9784 123.218 2.88937 123.321 2.89038 123.442C2.89139 123.563 2.98211 123.664 3.10214 123.678L3.13037 123.44ZM17.314 121.52L17.5059 121.664C17.564 121.587 17.57 121.482 17.521 121.399C17.4721 121.315 17.3777 121.269 17.2818 121.282L17.314 121.52ZM17.314 125.12L17.2858 125.358C17.384 125.37 17.4793 125.32 17.5258 125.233C17.5723 125.146 17.5605 125.039 17.4961 124.964L17.314 125.12ZM129.822 123.44L129.85 123.678C129.97 123.664 130.061 123.563 130.062 123.442C130.063 123.321 129.974 123.218 129.854 123.202L129.822 123.44ZM115.638 125.12L115.456 124.964C115.392 125.039 115.38 125.146 115.426 125.233C115.473 125.32 115.568 125.37 115.666 125.358L115.638 125.12ZM115.638 121.52L115.67 121.282C115.574 121.269 115.48 121.315 115.431 121.399C115.382 121.482 115.388 121.587 115.446 121.664L115.638 121.52ZM2.89037 91.76V128.96H3.37037V91.76H2.89037ZM129.582 91.76V128.96H130.062V91.76H129.582ZM72.3671 112.587L71.8055 114.127L72.2564 114.291L72.8181 112.751L72.3671 112.587ZM72.031 113.969H64.4285V114.449H72.031V113.969ZM64.654 114.291L65.2156 112.751L64.7647 112.587L64.203 114.127L64.654 114.291ZM64.9901 112.909H72.5926V112.429H64.9901V112.909ZM69.8083 99.842L64.5999 114.127L65.0508 114.291L70.2593 100.006L69.8083 99.842ZM64.8253 113.969H62.8099V114.449H64.8253V113.969ZM63.0353 114.291L68.2438 100.006L67.7928 99.842L62.5844 114.127L63.0353 114.291ZM68.0183 100.164H70.0338V99.6842H68.0183V100.164ZM3.16257 123.678L17.3462 121.758L17.2818 121.282L3.09818 123.202L3.16257 123.678ZM17.1221 121.376L15.6797 123.296L16.0635 123.584L17.5059 121.664L17.1221 121.376ZM15.6895 123.596L17.1319 125.276L17.4961 124.964L16.0537 123.284L15.6895 123.596ZM17.3422 124.882L3.1586 123.202L3.10214 123.678L17.2858 125.358L17.3422 124.882ZM15.6314 122H17.3142V121.52H15.6314V122ZM13.9485 122.24H17.0738V121.76H13.9485V122.24ZM12.0253 122.48H16.8334V122H12.0253V122.48ZM10.3425 122.72H16.593V122.24H10.3425V122.72ZM8.65973 122.96H16.593V122.48H8.65973V122.96ZM6.73652 123.2H16.3526V122.72H6.73652V123.2ZM5.05371 123.44H16.1122V122.96H5.05371V123.44ZM3.13037 123.68H15.8716V123.2H3.13037V123.68ZM5.29398 123.92H16.112V123.44H5.29398V123.92ZM7.21719 124.16H16.3524V123.68H7.21719V124.16ZM9.3808 124.4H16.5928V123.92H9.3808V124.4ZM11.304 124.64H16.8332V124.16H11.304V124.64ZM13.4676 124.88H17.0736V124.4H13.4676V124.88ZM15.3908 125.12H17.314V124.64H15.3908V125.12ZM129.794 123.202L115.61 124.882L115.666 125.358L129.85 123.678L129.794 123.202ZM115.82 125.276L117.263 123.596L116.898 123.284L115.456 124.964L115.82 125.276ZM117.272 123.296L115.83 121.376L115.446 121.664L116.889 123.584L117.272 123.296ZM115.606 121.758L129.79 123.678L129.854 123.202L115.67 121.282L115.606 121.758ZM117.081 123.68H129.822V123.2H117.081V123.68ZM117.08 123.92H127.898V123.44H117.08V123.92ZM116.84 124.16H125.975V123.68H116.84V124.16ZM116.6 124.4H123.812V123.92H116.6V124.4ZM116.359 124.64H121.888V124.16H116.359V124.64ZM116.119 124.88H119.725V124.4H116.119V124.88ZM115.878 125.12H117.802V124.64H115.878V125.12ZM115.878 122H117.561V121.52H115.878V122ZM116.119 122.24H119.244V121.76H116.119V122.24ZM116.359 122.48H121.167V122H116.359V122.48ZM116.359 122.72H122.85V122.24H116.359V122.72ZM116.6 122.96H124.533V122.48H116.6V122.96ZM116.84 123.2H126.456V122.72H116.84V123.2ZM117.08 123.44H128.139V122.96H117.08V123.44ZM3.13037 123.68L129.822 123.68L129.822 123.2L3.13037 123.2L3.13037 123.68Z" fill="white"/>
        <path d="M387.787 112.669L387.225 114.209H379.623L380.184 112.669H387.787ZM385.228 99.9242L380.02 114.209H378.004L383.213 99.9242H385.228Z" fill="white"/>
        <path d="M318.536 91.76C318.536 91.6275 318.429 91.52 318.296 91.52C318.164 91.52 318.056 91.6275 318.056 91.76H318.536ZM318.056 128.96C318.056 129.093 318.164 129.2 318.296 129.2C318.429 129.2 318.536 129.093 318.536 128.96H318.056ZM445.228 91.76C445.228 91.6275 445.12 91.52 444.988 91.52C444.855 91.52 444.748 91.6275 444.748 91.76H445.228ZM444.748 128.96C444.748 129.093 444.855 129.2 444.988 129.2C445.12 129.2 445.228 129.093 445.228 128.96H444.748ZM387.787 112.669L388.012 112.751C388.039 112.677 388.028 112.595 387.984 112.531C387.939 112.467 387.865 112.429 387.787 112.429V112.669ZM387.225 114.209V114.449C387.326 114.449 387.416 114.386 387.451 114.291L387.225 114.209ZM379.623 114.209L379.397 114.127C379.371 114.201 379.381 114.283 379.426 114.347C379.471 114.411 379.545 114.449 379.623 114.449V114.209ZM380.184 112.669V112.429C380.084 112.429 379.994 112.492 379.959 112.587L380.184 112.669ZM385.228 99.9242L385.454 100.006C385.48 99.9328 385.47 99.8508 385.425 99.7866C385.38 99.7224 385.306 99.6842 385.228 99.6842V99.9242ZM380.02 114.209V114.449C380.121 114.449 380.211 114.386 380.245 114.291L380.02 114.209ZM378.004 114.209L377.779 114.127C377.752 114.201 377.763 114.283 377.808 114.347C377.852 114.411 377.926 114.449 378.004 114.449V114.209ZM383.213 99.9242V99.6842C383.112 99.6842 383.022 99.7472 382.987 99.842L383.213 99.9242ZM318.296 123.44L318.264 123.202C318.144 123.218 318.055 123.321 318.056 123.442C318.057 123.563 318.148 123.664 318.268 123.678L318.296 123.44ZM332.48 121.52L332.672 121.664C332.73 121.587 332.736 121.482 332.687 121.399C332.638 121.315 332.544 121.269 332.448 121.282L332.48 121.52ZM332.48 125.12L332.452 125.358C332.55 125.37 332.645 125.32 332.692 125.233C332.738 125.146 332.727 125.039 332.662 124.964L332.48 125.12ZM444.987 123.44L445.016 123.678C445.136 123.664 445.226 123.563 445.227 123.442C445.228 123.321 445.139 123.218 445.02 123.202L444.987 123.44ZM430.804 125.12L430.622 124.964C430.557 125.039 430.545 125.146 430.592 125.233C430.638 125.32 430.734 125.37 430.832 125.358L430.804 125.12ZM430.804 121.52L430.836 121.282C430.74 121.269 430.646 121.315 430.597 121.399C430.548 121.482 430.554 121.587 430.612 121.664L430.804 121.52ZM318.056 91.76V128.96H318.536V91.76H318.056ZM444.748 91.76V128.96H445.228V91.76H444.748ZM387.561 112.587L387 114.127L387.451 114.291L388.012 112.751L387.561 112.587ZM387.225 113.969H379.623V114.449H387.225V113.969ZM379.848 114.291L380.41 112.751L379.959 112.587L379.397 114.127L379.848 114.291ZM380.184 112.909H387.787V112.429H380.184V112.909ZM385.003 99.842L379.794 114.127L380.245 114.291L385.454 100.006L385.003 99.842ZM380.02 113.969H378.004V114.449H380.02V113.969ZM378.23 114.291L383.438 100.006L382.987 99.842L377.779 114.127L378.23 114.291ZM383.213 100.164H385.228V99.6842H383.213V100.164ZM318.329 123.678L332.512 121.758L332.448 121.282L318.264 123.202L318.329 123.678ZM332.288 121.376L330.846 123.296L331.229 123.584L332.672 121.664L332.288 121.376ZM330.856 123.596L332.298 125.276L332.662 124.964L331.22 123.284L330.856 123.596ZM332.508 124.882L318.325 123.202L318.268 123.678L332.452 125.358L332.508 124.882ZM330.797 122H332.48V121.52H330.797V122ZM329.114 122.24H332.239V121.76H329.114V122.24ZM327.191 122.48H331.999V122H327.191V122.48ZM325.508 122.72H331.759V122.24H325.508V122.72ZM323.825 122.96H331.759V122.48H323.825V122.96ZM321.902 123.2H331.518V122.72H321.902V123.2ZM320.219 123.44H331.278V122.96H320.219V123.44ZM318.296 123.68H331.038V123.2H318.296V123.68ZM320.46 123.92H331.278V123.44H320.46V123.92ZM322.383 124.16H331.518V123.68H322.383V124.16ZM324.547 124.4H331.759V123.92H324.547V124.4ZM326.47 124.64H331.999V124.16H326.47V124.64ZM328.634 124.88H332.24V124.4H328.634V124.88ZM330.557 125.12H332.48V124.64H330.557V125.12ZM444.959 123.202L430.775 124.882L430.832 125.358L445.016 123.678L444.959 123.202ZM430.986 125.276L432.428 123.596L432.064 123.284L430.622 124.964L430.986 125.276ZM432.438 123.296L430.996 121.376L430.612 121.664L432.054 123.584L432.438 123.296ZM430.772 121.758L444.955 123.678L445.02 123.202L430.836 121.282L430.772 121.758ZM432.246 123.68H444.987V123.2H432.246V123.68ZM432.246 123.92H443.064V123.44H432.246V123.92ZM432.006 124.16H441.141V123.68H432.006V124.16ZM431.766 124.4H438.978V123.92H431.766V124.4ZM431.525 124.64H437.054V124.16H431.525V124.64ZM431.285 124.88H434.891V124.4H431.285V124.88ZM431.044 125.12H432.968V124.64H431.044V125.12ZM431.044 122H432.727V121.52H431.044V122ZM431.285 122.24H434.41V121.76H431.285V122.24ZM431.525 122.48H436.333V122H431.525V122.48ZM431.525 122.72H438.016V122.24H431.525V122.72ZM431.766 122.96H439.699V122.48H431.766V122.96ZM432.006 123.2H441.622V122.72H432.006V123.2ZM432.246 123.44H443.305V122.96H432.246V123.44ZM318.296 123.68L444.987 123.68L444.987 123.2L318.296 123.2L318.296 123.68Z" fill="white"/>
    </g>
    <!--    12 L1-->
    <g class="group">
    </g>
    <!--    13 L2-->
    <g class="group">
    </g>
    <!--    14 S-->
    <g class="group">
        <path d="M175.792 8.54389C176.066 8.49562 176.289 8.39673 176.459 8.24722C176.64 8.10253 176.732 7.85057 176.736 7.49133C176.75 7.13692 176.643 6.62461 176.414 5.95441C176.23 5.38908 176.1 4.87075 176.024 4.39943C175.952 3.93413 175.953 3.52547 176.029 3.17346C176.109 2.82747 176.273 2.54295 176.521 2.31989C176.77 2.09683 177.124 1.94487 177.584 1.86401C178.022 1.78678 178.486 1.79814 178.974 1.8981C179.466 2.00409 179.954 2.18723 180.437 2.44752C180.923 2.71383 181.381 3.0549 181.81 3.4707C182.24 3.88651 182.613 4.36863 182.93 4.91706C183.383 5.70053 183.612 6.39725 183.618 7.00722C183.623 7.61719 183.447 8.11629 183.09 8.50452C182.739 8.89154 182.245 9.14117 181.608 9.2534L180.64 7.58099C180.949 7.52669 181.2 7.39283 181.394 7.17943C181.598 6.97084 181.708 6.69597 181.722 6.35482C181.74 6.01969 181.621 5.63215 181.367 5.1922C181.098 4.72815 180.798 4.36596 180.466 4.10564C180.145 3.85014 179.822 3.67782 179.499 3.58868C179.179 3.50556 178.882 3.48814 178.607 3.53641C178.402 3.57262 178.234 3.63533 178.104 3.72456C177.985 3.81861 177.904 3.95907 177.861 4.14592C177.825 4.33157 177.834 4.58231 177.888 4.89814C177.942 5.21396 178.043 5.61114 178.192 6.08969C178.449 6.92744 178.584 7.63081 178.596 8.1998C178.608 8.76878 178.478 9.21664 178.206 9.54337C177.934 9.87011 177.5 10.086 176.903 10.191C176.416 10.2766 175.919 10.2647 175.409 10.1551C174.904 10.0515 174.406 9.85692 173.916 9.57132C173.436 9.29054 172.98 8.9326 172.547 8.49751C172.125 8.06723 171.748 7.56583 171.417 6.99329C170.918 6.13147 170.671 5.37147 170.676 4.71328C170.681 4.05509 170.872 3.52343 171.249 3.11832C171.627 2.71321 172.124 2.45635 172.741 2.34774L173.714 4.02919C173.207 4.14501 172.869 4.35061 172.699 4.64598C172.537 4.94015 172.492 5.27347 172.564 5.64595C172.643 6.01722 172.781 6.37462 172.98 6.71814C173.245 7.17617 173.535 7.5468 173.85 7.83002C174.168 8.11928 174.494 8.32414 174.828 8.44463C175.162 8.56511 175.484 8.5982 175.792 8.54389Z" fill="white"/>
        <path d="M169.761 22.2805C169.828 22.3952 169.975 22.4341 170.089 22.3676C170.204 22.301 170.243 22.1542 170.177 22.0395L169.761 22.2805ZM157.916 0.919547C157.85 0.804914 157.703 0.765932 157.588 0.832478C157.473 0.899024 157.434 1.0459 157.501 1.16053L157.916 0.919547ZM175.792 8.54389L175.834 8.78026L175.792 8.54389ZM176.459 8.24722L176.309 8.05968L176.301 8.06682L176.459 8.24722ZM176.736 7.49133L176.496 7.48178L176.496 7.48881L176.736 7.49133ZM176.414 5.95441L176.185 6.02848L176.187 6.032L176.414 5.95441ZM176.024 4.39943L175.787 4.43646L175.787 4.43771L176.024 4.39943ZM176.029 3.17346L175.795 3.11975L175.795 3.12285L176.029 3.17346ZM177.584 1.86401L177.625 2.10038L177.584 1.86401ZM178.974 1.8981L179.025 1.66347L179.023 1.66298L178.974 1.8981ZM180.437 2.44752L180.552 2.237L180.551 2.23625L180.437 2.44752ZM182.93 4.91706L183.138 4.79691L183.138 4.79691L182.93 4.91706ZM183.09 8.50452L182.913 8.34202L182.912 8.34346L183.09 8.50452ZM181.608 9.2534L181.4 9.37355C181.45 9.46082 181.55 9.50725 181.649 9.48977L181.608 9.2534ZM180.64 7.58099L180.599 7.34463C180.522 7.35821 180.456 7.4086 180.423 7.47961C180.39 7.55062 180.394 7.63332 180.433 7.70114L180.64 7.58099ZM181.394 7.17943L181.223 7.01141L181.216 7.01805L181.394 7.17943ZM181.722 6.35482L181.482 6.34215L181.482 6.34481L181.722 6.35482ZM181.367 5.1922L181.159 5.31236L181.367 5.1922ZM180.466 4.10564L180.317 4.29354L180.318 4.29448L180.466 4.10564ZM179.499 3.58868L179.563 3.35728L179.559 3.35639L179.499 3.58868ZM178.607 3.53641L178.649 3.77278L178.607 3.53641ZM178.104 3.72456L177.968 3.52684C177.964 3.52977 177.96 3.53284 177.956 3.53605L178.104 3.72456ZM177.861 4.14592L177.627 4.09204L177.625 4.10003L177.861 4.14592ZM178.192 6.08969L178.421 6.01909L178.421 6.01864L178.192 6.08969ZM176.903 10.191L176.945 10.4273L176.903 10.191ZM175.409 10.1551L175.46 9.92045L175.458 9.91997L175.409 10.1551ZM173.916 9.57132L173.795 9.77844L173.795 9.77867L173.916 9.57132ZM172.547 8.49751L172.376 8.66568L172.377 8.66679L172.547 8.49751ZM171.417 6.99329L171.209 7.11344L171.209 7.11344L171.417 6.99329ZM172.741 2.34774L172.949 2.22759C172.899 2.14032 172.799 2.0939 172.7 2.11137L172.741 2.34774ZM173.714 4.02919L173.767 4.26316C173.842 4.24619 173.903 4.19494 173.934 4.12507C173.964 4.0552 173.96 3.97502 173.922 3.90904L173.714 4.02919ZM172.699 4.64598L172.491 4.52671L172.489 4.53006L172.699 4.64598ZM172.564 5.64595L172.328 5.69143L172.329 5.69574L172.564 5.64595ZM172.98 6.71814L173.188 6.59799L173.188 6.59799L172.98 6.71814ZM173.85 7.83002L174.011 7.65239L174.01 7.65159L173.85 7.83002ZM171.411 21.2L171.633 21.1086C171.595 21.0159 171.503 20.9567 171.403 20.9601C171.303 20.9635 171.215 21.0288 171.183 21.1239L171.411 21.2ZM170.69 23.36L170.69 23.6L170.69 23.6L170.69 23.36ZM168.286 23.1199L168.31 22.8811C168.215 22.8716 168.124 22.9191 168.077 23.0021C168.03 23.0851 168.037 23.1879 168.094 23.264L168.286 23.1199ZM167.292 17.241C167.227 17.1258 167.08 17.0857 166.965 17.1514C166.85 17.2171 166.81 17.3636 166.876 17.4788L167.292 17.241ZM183.912 50.24L183.691 50.3328C183.728 50.4211 183.814 50.479 183.909 50.48C184.005 50.4811 184.092 50.4251 184.131 50.3376L183.912 50.24ZM184.874 48.0798L184.874 47.8398L184.874 47.8398L184.874 48.0798ZM187.037 48.3198L187.011 48.5584C187.106 48.569 187.199 48.5215 187.246 48.4377C187.293 48.3539 187.286 48.25 187.228 48.1737L187.037 48.3198ZM188.032 54.2002C188.098 54.3149 188.245 54.3541 188.359 54.2878C188.474 54.2214 188.513 54.0746 188.447 53.9599L188.032 54.2002ZM170.177 22.0395L157.916 0.919547L157.501 1.16053L169.761 22.2805L170.177 22.0395ZM175.834 8.78026C176.141 8.72611 176.407 8.61209 176.617 8.42762L176.301 8.06682C176.17 8.18138 175.991 8.26514 175.751 8.30753L175.834 8.78026ZM176.609 8.43457C176.871 8.22476 176.972 7.88509 176.976 7.49386L176.496 7.48881C176.492 7.81605 176.409 7.9803 176.309 8.05987L176.609 8.43457ZM176.976 7.50089C176.992 7.10009 176.872 6.55279 176.641 5.87683L176.187 6.032C176.413 6.69644 176.508 7.17375 176.496 7.48178L176.976 7.50089ZM176.642 5.88035C176.461 5.32401 176.335 4.81783 176.261 4.36114L175.787 4.43771C175.866 4.92368 175.999 5.45416 176.185 6.02848L176.642 5.88035ZM176.261 4.36239C176.192 3.91772 176.196 3.53991 176.264 3.22407L175.795 3.12285C175.711 3.51103 175.711 3.95054 175.787 4.43646L176.261 4.36239ZM176.263 3.22716C176.332 2.92624 176.472 2.68644 176.682 2.49856L176.361 2.14121C176.073 2.39946 175.885 2.7287 175.795 3.11976L176.263 3.22716ZM176.682 2.49856C176.886 2.31506 177.193 2.17641 177.625 2.10038L177.542 1.62765C177.055 1.71333 176.654 1.87859 176.361 2.14121L176.682 2.49856ZM177.625 2.10038C178.031 2.02896 178.464 2.0386 178.926 2.13323L179.023 1.66298C178.508 1.55768 178.014 1.54459 177.542 1.62765L177.625 2.10038ZM178.924 2.13272C179.392 2.23353 179.858 2.40826 180.323 2.65878L180.551 2.23625C180.049 1.96619 179.541 1.77464 179.025 1.66349L178.924 2.13272ZM180.321 2.65803C180.788 2.91325 181.228 3.2411 181.643 3.6431L181.977 3.2983C181.534 2.86869 181.059 2.51442 180.552 2.237L180.321 2.65803ZM181.643 3.6431C182.056 4.04256 182.416 4.50684 182.722 5.03721L183.138 4.79691C182.81 4.23041 182.423 3.73045 181.977 3.2983L181.643 3.6431ZM182.722 5.03721C183.164 5.80089 183.373 6.45612 183.378 7.00928L183.858 7.00515C183.852 6.33837 183.602 5.60017 183.138 4.79691L182.722 5.03721ZM183.378 7.00928C183.382 7.56855 183.223 8.0056 182.913 8.34203L183.266 8.66701C183.671 8.22697 183.863 7.66583 183.858 7.00515L183.378 7.00928ZM182.912 8.34346C182.605 8.6822 182.164 8.91178 181.566 9.01704L181.649 9.48977C182.327 9.37056 182.874 9.10089 183.268 8.66558L182.912 8.34346ZM181.815 9.13325L180.848 7.46084L180.433 7.70114L181.4 9.37355L181.815 9.13325ZM180.682 7.81736C181.038 7.75468 181.339 7.59708 181.572 7.34081L181.216 7.01805C181.062 7.18859 180.86 7.2987 180.599 7.34463L180.682 7.81736ZM181.566 7.34732C181.818 7.08929 181.945 6.75455 181.962 6.36482L181.482 6.34481C181.47 6.63738 181.378 6.85239 181.223 7.01153L181.566 7.34732ZM181.961 6.36749C181.983 5.96779 181.841 5.53295 181.574 5.07205L181.159 5.31236C181.401 5.73136 181.496 6.07159 181.482 6.34215L181.961 6.36749ZM181.574 5.07205C181.295 4.58839 180.976 4.20037 180.615 3.91681L180.318 4.29448C180.62 4.53156 180.902 4.8679 181.159 5.31236L181.574 5.07205ZM180.616 3.91775C180.274 3.64652 179.923 3.45672 179.563 3.3573L179.435 3.82006C179.721 3.89892 180.015 4.05376 180.317 4.29354L180.616 3.91775ZM179.559 3.35639C179.212 3.26622 178.88 3.2448 178.566 3.30005L178.649 3.77278C178.884 3.73148 179.146 3.7449 179.439 3.82097L179.559 3.35639ZM178.566 3.30005C178.337 3.34036 178.134 3.41284 177.968 3.52684L178.24 3.92229C178.334 3.85783 178.467 3.80487 178.649 3.77278L178.566 3.30005ZM177.956 3.53605C177.783 3.67201 177.679 3.86616 177.627 4.09207L178.095 4.19978C178.129 4.05198 178.187 3.96522 178.253 3.91308L177.956 3.53605ZM177.625 4.10003C177.581 4.32734 177.595 4.61133 177.651 4.93874L178.124 4.85753C178.072 4.55329 178.068 4.33581 178.096 4.19182L177.625 4.10003ZM177.651 4.93874C177.708 5.26891 177.812 5.6771 177.962 6.16074L178.421 6.01864C178.274 5.54519 178.176 5.15901 178.124 4.85753L177.651 4.93874ZM177.962 6.16029C178.217 6.98692 178.345 7.66662 178.356 8.20476L178.836 8.19483C178.824 7.595 178.682 6.86797 178.421 6.01909L177.962 6.16029ZM178.356 8.20476C178.367 8.73575 178.245 9.12071 178.021 9.38987L178.39 9.69688C178.71 9.31256 178.849 8.80181 178.836 8.19483L178.356 8.20476ZM178.021 9.38987C177.799 9.65762 177.426 9.85533 176.862 9.9546L176.945 10.4273C177.574 10.3166 178.069 10.0826 178.39 9.69688L178.021 9.38987ZM176.862 9.9546C176.407 10.0346 175.94 10.0239 175.46 9.92046L175.359 10.3897C175.897 10.5055 176.426 10.5187 176.945 10.4273L176.862 9.9546ZM175.458 9.91997C174.98 9.82213 174.507 9.63772 174.037 9.36397L173.795 9.77867C174.305 10.0761 174.828 10.2809 175.361 10.3902L175.458 9.91997ZM174.037 9.3642C173.577 9.09489 173.137 8.75016 172.717 8.32822L172.377 8.66679C172.823 9.11504 173.295 9.48618 173.795 9.77844L174.037 9.3642ZM172.718 8.32934C172.311 7.91478 171.946 7.42987 171.624 6.87314L171.209 7.11344C171.549 7.70179 171.938 8.21968 172.376 8.66567L172.718 8.32934ZM171.624 6.87314C171.137 6.0308 170.912 5.31389 170.916 4.71497L170.436 4.71159C170.431 5.42904 170.699 6.23214 171.209 7.11344L171.624 6.87314ZM170.916 4.71497C170.92 4.10491 171.096 3.63501 171.425 3.28197L171.074 2.95468C170.648 3.41186 170.441 4.00526 170.436 4.71159L170.916 4.71497ZM171.425 3.28197C171.762 2.91994 172.21 2.68492 172.783 2.5841L172.7 2.11137C172.038 2.22778 171.492 2.50648 171.074 2.95468L171.425 3.28197ZM172.534 2.46789L173.506 4.14934L173.922 3.90904L172.949 2.22759L172.534 2.46789ZM173.66 3.79521C173.122 3.91813 172.708 4.14839 172.491 4.52673L172.908 4.76524C173.029 4.55283 173.291 4.37189 173.767 4.26316L173.66 3.79521ZM172.489 4.53006C172.296 4.87973 172.247 5.27138 172.328 5.69142L172.799 5.60048C172.737 5.27557 172.778 5.00057 172.91 4.76191L172.489 4.53006ZM172.329 5.69574C172.413 6.09285 172.561 6.47389 172.772 6.83829L173.188 6.59799C173.001 6.27535 172.872 5.94159 172.799 5.59616L172.329 5.69574ZM172.772 6.83829C173.047 7.31292 173.351 7.70482 173.689 8.00846L174.01 7.65159C173.718 7.38878 173.443 7.03942 173.188 6.59799L172.772 6.83829ZM173.688 8.00766C174.025 8.31368 174.378 8.53726 174.747 8.6704L174.91 8.21886C174.611 8.11103 174.311 7.92487 174.011 7.65239L173.688 8.00766ZM174.747 8.6704C175.115 8.80315 175.479 8.84275 175.834 8.78026L175.751 8.30753C175.488 8.35365 175.21 8.32707 174.91 8.21886L174.747 8.6704ZM177.162 34.5486L171.633 21.1086L171.189 21.2913L176.718 34.7313L177.162 34.5486ZM171.183 21.1239L170.462 23.2839L170.918 23.436L171.639 21.276L171.183 21.1239ZM170.714 23.1211L168.31 22.8811L168.262 23.3587L170.666 23.5988L170.714 23.1211ZM168.094 23.264L176.748 34.7841L177.132 34.4958L168.478 22.9757L168.094 23.264ZM177.149 34.521L167.292 17.241L166.876 17.4788L176.732 34.7589L177.149 34.521ZM171.411 21.6799H171.652V21.1999H171.411V21.6799ZM171.411 21.9199H171.652V21.4399H171.411V21.9199ZM171.171 22.1599H171.892V21.6799H171.171V22.1599ZM171.171 22.3999H171.892V21.9199H171.171V22.3999ZM171.171 22.6399H172.132V22.1599H171.171V22.6399ZM170.93 22.8799H172.132V22.3999H170.93V22.8799ZM170.93 23.1199H172.132V22.6399H170.93V23.1199ZM170.93 23.3599H172.373V22.8799H170.93V23.3599ZM170.69 23.6L172.373 23.5999L172.373 23.1199L170.69 23.12L170.69 23.6ZM176.7 34.3999H176.94V33.9199H176.7V34.3999ZM168.526 23.5999L170.69 23.6L170.69 23.12L168.526 23.1199L168.526 23.5999ZM176.219 33.6799H176.46V33.1999H176.219V33.6799ZM176.46 34.1599H176.7V33.6799H176.46V34.1599ZM178.161 37.1328L183.691 50.3328L184.133 50.1473L178.604 36.9473L178.161 37.1328ZM184.131 50.3376L185.093 48.1774L184.654 47.9822L183.693 50.1424L184.131 50.3376ZM184.847 48.3184L187.011 48.5584L187.064 48.0813L184.9 47.8413L184.847 48.3184ZM187.228 48.1737L178.573 36.8939L178.192 37.1861L186.847 48.4659L187.228 48.1737ZM178.175 37.1602L188.032 54.2002L188.447 53.9599L178.591 36.9199L178.175 37.1602ZM178.623 37.76H178.863V37.28H178.623V37.76ZM183.191 48.32L184.874 48.3198L184.874 47.8398L183.191 47.84L183.191 48.32ZM183.191 48.56H184.873V48.08H183.191V48.56ZM183.431 48.8H184.873V48.32H183.431V48.8ZM183.431 49.04H184.633V48.56H183.431V49.04ZM183.431 49.28H184.633V48.8H183.431V49.28ZM183.671 49.52H184.393V49.04H183.671V49.52ZM183.671 49.76H184.393V49.28H183.671V49.76ZM183.912 50H184.152V49.52H183.912V50ZM183.912 50.24H184.152V49.76H183.912V50.24ZM178.864 38H179.104V37.52H178.864V38ZM179.104 38.48H179.345V38H179.104V38.48ZM184.874 48.3198L187.037 48.32L187.037 47.84L184.874 47.8398L184.874 48.3198ZM176.735 34.7636L178.177 37.1637L178.589 36.9164L177.146 34.5163L176.735 34.7636ZM168.767 23.8399L172.613 23.8399L172.613 23.3599L168.767 23.3599L168.767 23.8399ZM169.007 24.0799L172.613 24.0799L172.613 23.5999L169.007 23.5999L169.007 24.0799ZM169.007 24.3199L172.613 24.3199L172.613 23.8399L169.007 23.8399L169.007 24.3199ZM169.248 24.5599L172.854 24.5599L172.854 24.0799L169.248 24.0799L169.248 24.5599ZM169.488 24.7999L172.854 24.7999L172.854 24.3199L169.488 24.3199L169.488 24.7999ZM169.728 25.0399L173.094 25.0399L173.094 24.5599L169.728 24.5599L169.728 25.0399ZM169.728 25.2799L173.094 25.2799L173.094 24.7999L169.728 24.7999L169.728 25.2799ZM169.969 25.5199L173.094 25.5199L173.094 25.0399L169.969 25.0399L169.969 25.5199ZM170.209 25.7599L173.334 25.7599L173.334 25.2799L170.209 25.2799L170.209 25.7599ZM170.45 25.9999L173.334 25.9999L173.334 25.5199L170.45 25.5199L170.45 25.9999ZM170.45 26.2399L173.575 26.2399L173.575 25.7599L170.45 25.7599L170.45 26.2399ZM170.69 26.4799L173.575 26.4799L173.575 25.9999L170.69 25.9999L170.69 26.4799ZM170.93 26.7199L173.815 26.7199L173.815 26.2399L170.93 26.2399L170.93 26.7199ZM171.171 26.9599L173.815 26.9599L173.815 26.4799L171.171 26.4799L171.171 26.9599ZM171.171 27.1999L173.815 27.1999L173.815 26.7199L171.171 26.7199L171.171 27.1999ZM171.411 27.4399L174.056 27.4399L174.056 26.9599L171.411 26.9599L171.411 27.4399ZM171.652 27.6799L174.056 27.6799L174.056 27.1999L171.652 27.1999L171.652 27.6799ZM171.892 27.9199L174.296 27.9199L174.296 27.4399L171.892 27.4399L171.892 27.9199ZM171.892 28.1599L174.296 28.1599L174.296 27.6799L171.892 27.6799L171.892 28.1599ZM172.132 28.3999L174.296 28.3999L174.296 27.9199L172.132 27.9199L172.132 28.3999ZM172.373 28.6399L174.536 28.6399L174.536 28.1599L172.373 28.1599L172.373 28.6399ZM172.613 28.8799L174.536 28.8799L174.536 28.3999L172.613 28.3999L172.613 28.8799ZM172.613 29.1199L174.777 29.1199L174.777 28.6399L172.613 28.6399L172.613 29.1199ZM172.854 29.3599L174.777 29.3599L174.777 28.8799L172.854 28.8799L172.854 29.3599ZM173.094 29.5999L174.777 29.5999L174.777 29.1199L173.094 29.1199L173.094 29.5999ZM173.334 29.8399L175.017 29.8399L175.017 29.3599L173.334 29.3599L173.334 29.8399ZM173.334 30.0799L175.017 30.0799L175.017 29.5999L173.334 29.5999L173.334 30.0799ZM173.575 30.3199L175.258 30.3199L175.258 29.8399L173.575 29.8399L173.575 30.3199ZM173.815 30.5599L175.258 30.5599L175.258 30.0799L173.815 30.0799L173.815 30.5599ZM174.056 30.7999L175.498 30.7999L175.498 30.3199L174.056 30.3199L174.056 30.7999ZM174.056 31.0399L175.498 31.0399L175.498 30.5599L174.056 30.5599L174.056 31.0399ZM174.296 31.2799L175.498 31.2799L175.498 30.7999L174.296 30.7999L174.296 31.2799ZM174.536 31.5199L175.738 31.5199L175.738 31.0399L174.536 31.0399L174.536 31.5199ZM174.777 31.7599L175.738 31.7599L175.738 31.2799L174.777 31.2799L174.777 31.7599ZM174.777 31.9999L175.979 31.9999L175.979 31.5199L174.777 31.5199L174.777 31.9999ZM175.017 32.2399L175.979 32.2399L175.979 31.7599L175.017 31.7599L175.017 32.2399ZM175.258 32.4799L175.979 32.4799L175.979 31.9999L175.258 31.9999L175.258 32.4799ZM175.498 32.7199L176.219 32.7199L176.219 32.2399L175.498 32.2399L175.498 32.7199ZM175.498 32.9599L176.219 32.9599L176.219 32.4799L175.498 32.4799L175.498 32.9599ZM175.738 33.1999L176.46 33.1999L176.46 32.7199L175.738 32.7199L175.738 33.1999ZM175.979 33.4399L176.46 33.4399L176.46 32.9599L175.979 32.9599L175.979 33.4399ZM176.219 33.9199L176.7 33.9199L176.7 33.4399L176.219 33.4399L176.219 33.9199ZM178.863 38.24L179.345 38.24L179.345 37.76L178.863 37.76L178.863 38.24ZM179.104 38.72L179.585 38.72L179.585 38.24L179.104 38.24L179.104 38.72ZM179.104 38.96L179.825 38.96L179.825 38.48L179.104 38.48L179.104 38.96ZM179.344 39.2L180.066 39.2L180.066 38.72L179.344 38.72L179.344 39.2ZM179.344 39.44L180.066 39.44L180.066 38.96L179.344 38.96L179.344 39.44ZM179.585 39.68L180.306 39.68L180.306 39.2L179.585 39.2L179.585 39.68ZM179.585 39.92L180.547 39.92L180.547 39.44L179.585 39.44L179.585 39.92ZM179.825 40.16L180.787 40.16L180.787 39.68L179.825 39.68L179.825 40.16ZM179.825 40.4L180.787 40.4L180.787 39.92L179.825 39.92L179.825 40.4ZM179.825 40.64L181.027 40.64L181.027 40.16L179.825 40.16L179.825 40.64ZM180.065 40.88L181.268 40.88L181.268 40.4L180.065 40.4L180.065 40.88ZM180.065 41.12L181.508 41.12L181.508 40.64L180.065 40.64L180.065 41.12ZM180.306 41.36L181.749 41.36L181.749 40.88L180.306 40.88L180.306 41.36ZM180.306 41.6L181.749 41.6L181.749 41.12L180.306 41.12L180.306 41.6ZM180.306 41.84L181.989 41.84L181.989 41.36L180.306 41.36L180.306 41.84ZM180.546 42.08L182.229 42.08L182.229 41.6L180.546 41.6L180.546 42.08ZM180.546 42.32L182.47 42.32L182.47 41.84L180.546 41.84L180.546 42.32ZM180.787 42.56L182.47 42.56L182.47 42.08L180.787 42.08L180.787 42.56ZM180.787 42.8L182.71 42.8L182.71 42.32L180.787 42.32L180.787 42.8ZM181.027 43.04L182.951 43.04L182.951 42.56L181.027 42.56L181.027 43.04ZM181.027 43.28L183.191 43.28L183.191 42.8L181.027 42.8L181.027 43.28ZM181.027 43.52L183.191 43.52L183.191 43.04L181.027 43.04L181.027 43.52ZM181.267 43.76L183.431 43.76L183.431 43.28L181.267 43.28L181.267 43.76ZM181.267 44L183.672 44L183.672 43.52L181.267 43.52L181.267 44ZM181.508 44.24L183.912 44.24L183.912 43.76L181.508 43.76L181.508 44.24ZM181.508 44.48L183.912 44.48L183.912 44L181.508 44L181.508 44.48ZM181.508 44.72L184.153 44.72L184.153 44.24L181.508 44.24L181.508 44.72ZM181.748 44.96L184.393 44.96L184.393 44.48L181.748 44.48L181.748 44.96ZM181.748 45.2L184.633 45.2L184.633 44.72L181.748 44.72L181.748 45.2ZM181.989 45.44L184.874 45.44L184.874 44.96L181.989 44.96L181.989 45.44ZM181.989 45.68L184.874 45.68L184.874 45.2L181.989 45.2L181.989 45.68ZM182.229 45.92L185.114 45.92L185.114 45.44L182.229 45.44L182.229 45.92ZM182.229 46.16L185.355 46.16L185.355 45.68L182.229 45.68L182.229 46.16ZM182.229 46.4L185.595 46.4L185.595 45.92L182.229 45.92L182.229 46.4ZM182.469 46.64L185.595 46.64L185.595 46.16L182.469 46.16L182.469 46.64ZM182.469 46.88L185.835 46.88L185.835 46.4L182.469 46.4L182.469 46.88ZM182.71 47.12L186.076 47.12L186.076 46.64L182.71 46.64L182.71 47.12ZM182.71 47.36L186.316 47.36L186.316 46.88L182.71 46.88L182.71 47.36ZM182.71 47.6L186.316 47.6L186.316 47.12L182.71 47.12L182.71 47.6ZM182.95 47.84L186.557 47.84L186.557 47.36L182.95 47.36L182.95 47.84ZM182.95 48.08L186.797 48.08L186.797 47.6L182.95 47.6L182.95 48.08Z" fill="white"/>
    </g>
    <!--    15 S1-->
    <g class="group">
    </g>
    <!--    16 S2-->
    <g class="group">
    </g>
    <!--    17 S3-->
    <g class="group">
    </g>
    <!--    18 S4-->
    <g class="group">
    </g>
    <!--    19 I-->
    <g class="group">
        <path d="M414.782 5.81006L409.288 20.8799H407.345L412.84 5.81006H414.782Z" fill="white"/>
        <path d="M444.748 49.7565C444.748 49.8891 444.855 49.9965 444.988 49.9965C445.12 49.9965 445.228 49.8891 445.228 49.7565H444.748ZM445.228 24.3165C445.228 24.184 445.12 24.0765 444.988 24.0765C444.855 24.0765 444.748 24.184 444.748 24.3165H445.228ZM374.791 49.7565C374.791 49.8891 374.898 49.9965 375.031 49.9965C375.163 49.9965 375.271 49.8891 375.271 49.7565H374.791ZM375.271 24.3165C375.271 24.184 375.163 24.0765 375.031 24.0765C374.898 24.0765 374.791 24.184 374.791 24.3165H375.271ZM414.782 5.81006L415.008 5.89227C415.035 5.81868 415.024 5.73663 414.979 5.67246C414.934 5.60828 414.861 5.57006 414.782 5.57006V5.81006ZM409.288 20.8799V21.1199C409.389 21.1199 409.479 21.0569 409.513 20.9622L409.288 20.8799ZM407.345 20.8799L407.12 20.7977C407.093 20.8713 407.104 20.9534 407.149 21.0175C407.194 21.0817 407.267 21.1199 407.345 21.1199V20.8799ZM412.84 5.81006V5.57006C412.739 5.57006 412.649 5.6331 412.615 5.72785L412.84 5.81006ZM444.987 30.0765L445.016 30.3149C445.136 30.3006 445.226 30.1994 445.227 30.0785C445.228 29.9577 445.139 29.8549 445.02 29.8387L444.987 30.0765ZM430.804 31.7565L430.622 31.6002C430.557 31.6752 430.545 31.7821 430.592 31.8694C430.638 31.9567 430.734 32.0065 430.832 31.9949L430.804 31.7565ZM430.804 28.1566L430.836 27.9188C430.74 27.9058 430.646 27.9517 430.597 28.0352C430.548 28.1187 430.554 28.2234 430.612 28.3008L430.804 28.1566ZM375.031 30.0766L374.999 29.8388C374.879 29.855 374.79 29.9577 374.791 30.0786C374.792 30.1995 374.883 30.3007 375.003 30.3149L375.031 30.0766ZM389.214 28.1566L389.406 28.3008C389.464 28.2234 389.47 28.1187 389.421 28.0352C389.372 27.9517 389.278 27.9058 389.182 27.9188L389.214 28.1566ZM389.214 31.7565L389.186 31.9949C389.284 32.0065 389.38 31.9567 389.426 31.8694C389.473 31.7821 389.461 31.6752 389.396 31.6002L389.214 31.7565ZM445.228 49.7565V24.3165H444.748V49.7565H445.228ZM375.271 49.7565V24.3165H374.791V49.7565H375.271ZM414.557 5.72785L409.062 20.7977L409.513 20.9622L415.008 5.89227L414.557 5.72785ZM409.288 20.6399H407.345V21.1199H409.288V20.6399ZM407.571 20.9622L413.066 5.89227L412.615 5.72785L407.12 20.7977L407.571 20.9622ZM412.84 6.05006H414.782V5.57006H412.84V6.05006ZM444.959 29.8382L430.775 31.5182L430.832 31.9949L445.016 30.3149L444.959 29.8382ZM430.986 31.9129L432.428 30.2329L432.064 29.9202L430.622 31.6002L430.986 31.9129ZM432.438 29.9324L430.996 28.0124L430.612 28.3008L432.054 30.2207L432.438 29.9324ZM430.772 28.3944L444.955 30.3144L445.02 29.8387L430.836 27.9188L430.772 28.3944ZM432.246 30.3165H444.987V29.8365H432.246V30.3165ZM432.246 30.5565H443.064V30.0765H432.246V30.5565ZM432.006 30.7965H441.141V30.3165H432.006V30.7965ZM431.766 31.0365H438.978V30.5565H431.766V31.0365ZM431.525 31.2765H437.054V30.7965H431.525V31.2765ZM431.285 31.5165H434.891V31.0365H431.285V31.5165ZM431.044 31.7565H432.968V31.2765H431.044V31.7565ZM431.044 28.6366H432.727V28.1566H431.044V28.6366ZM431.285 28.8766H434.41V28.3966H431.285V28.8766ZM431.525 29.1166H436.333V28.6366H431.525V29.1166ZM431.525 29.3566H438.016V28.8766H431.525V29.3566ZM431.766 29.5966H439.699V29.1166H431.766V29.5966ZM432.006 29.8366H441.622V29.3566H432.006V29.8366ZM432.246 30.0766H443.305V29.5966H432.246V30.0766ZM375.063 30.3144L389.247 28.3944L389.182 27.9188L374.999 29.8388L375.063 30.3144ZM389.023 28.0124L387.58 29.9324L387.964 30.2208L389.406 28.3008L389.023 28.0124ZM387.59 30.2329L389.032 31.9129L389.396 31.6002L387.954 29.9203L387.59 30.2329ZM389.243 31.5182L375.059 29.8383L375.003 30.3149L389.186 31.9949L389.243 31.5182ZM387.532 28.6366H389.215V28.1566H387.532V28.6366ZM385.849 28.8766H388.974V28.3966H385.849V28.8766ZM383.926 29.1166H388.734V28.6366H383.926V29.1166ZM382.243 29.3566H388.493V28.8766H382.243V29.3566ZM380.56 29.5966H388.493V29.1166H380.56V29.5966ZM378.637 29.8366H388.253V29.3566H378.637V29.8366ZM376.954 30.0766H388.013V29.5966H376.954V30.0766ZM375.031 30.3166H387.772V29.8366H375.031V30.3166ZM377.194 30.5565H388.012V30.0765H377.194V30.5565ZM379.118 30.7965H388.253V30.3165H379.118V30.7965ZM381.281 31.0365H388.493V30.5565H381.281V31.0365ZM383.204 31.2765H388.734V30.7965H383.204V31.2765ZM385.368 31.5165H388.974V31.0365H385.368V31.5165ZM387.291 31.7565H389.214V31.2765H387.291V31.7565ZM444.987 29.8365L375.031 29.8366L375.031 30.3166L444.987 30.3165L444.987 29.8365Z" fill="white"/>
    </g>
    <!--    20 I1-->
    <g class="group">
    </g>
    <!--    21 I2-->
    <g class="group">
    </g>
    <!--    22 H-->
    <g class="group">
    </g>
    <!--    23 H1-->
    <g class="group">
    </g>
    <!--    24 H2-->
    <g class="group">
    </g>
    <!--    25 h-->
    <g class="group">
    </g>
    <!--    26 h1-->
    <g class="group">
    </g>
    <!--    27 h2-->
    <g class="group">
    </g>
    <!--    28 R-->
    <g class="group">
    </g>
    <!--    29 Deg-->
    <g class="group">
    </g>
    <!--    29 DN-->
    <g class="group">
    </g>

</svg>
