<svg width="508" height="124" viewBox="0 0 508 124" fill="none" xmlns="http://www.w3.org/2000/svg">
<rect width="508" height="124" fill="none"/>
<path d="M274.84 26.48L295.995 38.48L274.84 26.48Z" stroke="white" stroke-width="0.48" stroke-linecap="round" stroke-linejoin="round"/>
<path d="M299.602 40.6399L302.006 42.0799L299.602 40.6399Z" stroke="white" stroke-width="0.48" stroke-linecap="round" stroke-linejoin="round"/>
<path d="M305.611 44.24L326.526 56.24L305.611 44.24Z" stroke="white" stroke-width="0.48" stroke-linecap="round" stroke-linejoin="round"/>
<path d="M166.42 63.9199L173.872 63.4399L166.42 63.9199Z" stroke="white" stroke-width="0.48" stroke-linecap="round" stroke-linejoin="round"/>
<path d="M173.872 63.44L181.084 62L173.872 63.44Z" stroke="white" stroke-width="0.48" stroke-linecap="round" stroke-linejoin="round"/>
<path d="M181.084 61.9998L188.056 59.5999L181.084 61.9998Z" stroke="white" stroke-width="0.48" stroke-linecap="round" stroke-linejoin="round"/>
<path d="M188.056 59.6L194.787 56.24L188.056 59.6Z" stroke="white" stroke-width="0.48" stroke-linecap="round" stroke-linejoin="round"/>
<path d="M194.787 56.24H195.027H194.787Z" stroke="white" stroke-width="0.48" stroke-linecap="round" stroke-linejoin="round"/>
<path d="M326.526 56.24L333.258 59.6L326.526 56.24Z" stroke="white" stroke-width="0.48" stroke-linecap="round" stroke-linejoin="round"/>
<path d="M333.258 59.5999L340.229 61.9998L333.258 59.5999Z" stroke="white" stroke-width="0.48" stroke-linecap="round" stroke-linejoin="round"/>
<path d="M340.229 62L347.442 63.44L340.229 62Z" stroke="white" stroke-width="0.48" stroke-linecap="round" stroke-linejoin="round"/>
<path d="M347.441 63.4399L354.894 63.9199L347.441 63.4399Z" stroke="white" stroke-width="0.48" stroke-linecap="round" stroke-linejoin="round"/>
<path d="M195.027 56.24L215.942 44.24L195.027 56.24Z" stroke="white" stroke-width="0.48" stroke-linecap="round" stroke-linejoin="round"/>
<path d="M219.548 42.0799L221.952 40.6399L219.548 42.0799Z" stroke="white" stroke-width="0.48" stroke-linecap="round" stroke-linejoin="round"/>
<path d="M225.558 38.48L246.473 26.48L225.558 38.48Z" stroke="white" stroke-width="0.48" stroke-linecap="round" stroke-linejoin="round"/>
<path d="M274.84 26.4798L270.272 24.3198L274.84 26.4798Z" stroke="white" stroke-width="0.48" stroke-linecap="round" stroke-linejoin="round"/>
<path d="M270.273 24.3199L265.225 23.1199L270.273 24.3199Z" stroke="white" stroke-width="0.48" stroke-linecap="round" stroke-linejoin="round"/>
<path d="M265.224 23.1199L259.936 22.6399L265.224 23.1199Z" stroke="white" stroke-width="0.48" stroke-linecap="round" stroke-linejoin="round"/>
<path d="M259.935 22.6399L254.646 23.3599L259.935 22.6399Z" stroke="white" stroke-width="0.48" stroke-linecap="round" stroke-linejoin="round"/>
<path d="M254.647 23.3599L249.839 24.7999L254.647 23.3599Z" stroke="white" stroke-width="0.48" stroke-linecap="round" stroke-linejoin="round"/>
<path d="M249.838 24.8L246.473 26.48L249.838 24.8Z" stroke="white" stroke-width="0.48" stroke-linecap="round" stroke-linejoin="round"/>
<path d="M166.42 49.76L172.911 49.28L166.42 49.76Z" stroke="white" stroke-width="1.68" stroke-linecap="round" stroke-linejoin="round"/>
<path d="M172.91 49.2798L179.161 47.8398L172.91 49.2798Z" stroke="white" stroke-width="1.68" stroke-linecap="round" stroke-linejoin="round"/>
<path d="M179.161 47.8399L185.171 45.4399L179.161 47.8399Z" stroke="white" stroke-width="1.68" stroke-linecap="round" stroke-linejoin="round"/>
<path d="M185.171 45.44L187.815 44L185.171 45.44Z" stroke="white" stroke-width="1.68" stroke-linecap="round" stroke-linejoin="round"/>
<path d="M166.42 78.0798L174.834 77.5999L166.42 78.0798Z" stroke="white" stroke-width="1.68" stroke-linecap="round" stroke-linejoin="round"/>
<path d="M174.833 77.5999L183.007 76.1599L174.833 77.5999Z" stroke="white" stroke-width="1.68" stroke-linecap="round" stroke-linejoin="round"/>
<path d="M183.007 76.16L190.94 73.76L183.007 76.16Z" stroke="white" stroke-width="1.68" stroke-linecap="round" stroke-linejoin="round"/>
<path d="M190.94 73.7599L198.393 70.3999L190.94 73.7599Z" stroke="white" stroke-width="1.68" stroke-linecap="round" stroke-linejoin="round"/>
<path d="M198.393 70.4L201.999 68.48L198.393 70.4Z" stroke="white" stroke-width="1.68" stroke-linecap="round" stroke-linejoin="round"/>
<path d="M187.815 44L239.502 14.24L187.815 44Z" stroke="white" stroke-width="1.68" stroke-linecap="round" stroke-linejoin="round"/>
<path d="M201.999 68.48L253.685 38.72L201.999 68.48Z" stroke="white" stroke-width="1.68" stroke-linecap="round" stroke-linejoin="round"/>
<path d="M282.053 14.2399L276.283 11.3599L282.053 14.2399Z" stroke="white" stroke-width="1.68" stroke-linecap="round" stroke-linejoin="round"/>
<path d="M276.283 11.3599L270.272 9.67993L276.283 11.3599Z" stroke="white" stroke-width="1.68" stroke-linecap="round" stroke-linejoin="round"/>
<path d="M270.273 9.67996L263.782 8.71997L270.273 9.67996Z" stroke="white" stroke-width="1.68" stroke-linecap="round" stroke-linejoin="round"/>
<path d="M263.782 8.71997H257.531H263.782Z" stroke="white" stroke-width="1.68" stroke-linecap="round" stroke-linejoin="round"/>
<path d="M257.532 8.71997L251.041 9.67996L257.532 8.71997Z" stroke="white" stroke-width="1.68" stroke-linecap="round" stroke-linejoin="round"/>
<path d="M251.04 9.67993L245.03 11.5999L251.04 9.67993Z" stroke="white" stroke-width="1.68" stroke-linecap="round" stroke-linejoin="round"/>
<path d="M245.03 11.5999L239.501 14.2399L245.03 11.5999Z" stroke="white" stroke-width="1.68" stroke-linecap="round" stroke-linejoin="round"/>
<path d="M267.869 38.72L264.503 37.28L267.869 38.72Z" stroke="white" stroke-width="1.68" stroke-linecap="round" stroke-linejoin="round"/>
<path d="M264.503 37.28L260.897 36.8L264.503 37.28Z" stroke="white" stroke-width="1.68" stroke-linecap="round" stroke-linejoin="round"/>
<path d="M260.897 36.8L257.051 37.28L260.897 36.8Z" stroke="white" stroke-width="1.68" stroke-linecap="round" stroke-linejoin="round"/>
<path d="M257.05 37.28L253.685 38.72L257.05 37.28Z" stroke="white" stroke-width="1.68" stroke-linecap="round" stroke-linejoin="round"/>
<path d="M282.053 14.24L333.739 44L282.053 14.24Z" stroke="white" stroke-width="1.68" stroke-linecap="round" stroke-linejoin="round"/>
<path d="M267.869 38.72L319.555 68.48L267.869 38.72Z" stroke="white" stroke-width="1.68" stroke-linecap="round" stroke-linejoin="round"/>
<path d="M333.738 44L339.508 46.64L333.738 44Z" stroke="white" stroke-width="1.68" stroke-linecap="round" stroke-linejoin="round"/>
<path d="M339.508 46.6399L345.518 48.5599L339.508 46.6399Z" stroke="white" stroke-width="1.68" stroke-linecap="round" stroke-linejoin="round"/>
<path d="M345.519 48.5601L351.769 49.5201L345.519 48.5601Z" stroke="white" stroke-width="1.68" stroke-linecap="round" stroke-linejoin="round"/>
<path d="M351.769 49.52L354.894 49.76L351.769 49.52Z" stroke="white" stroke-width="1.68" stroke-linecap="round" stroke-linejoin="round"/>
<path d="M319.555 68.48L326.767 72.32L319.555 68.48Z" stroke="white" stroke-width="1.68" stroke-linecap="round" stroke-linejoin="round"/>
<path d="M326.767 72.3198L334.7 74.9598L326.767 72.3198Z" stroke="white" stroke-width="1.68" stroke-linecap="round" stroke-linejoin="round"/>
<path d="M334.7 74.96L342.633 76.88L334.7 74.96Z" stroke="white" stroke-width="1.68" stroke-linecap="round" stroke-linejoin="round"/>
<path d="M342.634 76.8799L350.807 77.8399L342.634 76.8799Z" stroke="white" stroke-width="1.68" stroke-linecap="round" stroke-linejoin="round"/>
<path d="M350.807 77.8398L354.893 78.0798L350.807 77.8398Z" stroke="white" stroke-width="1.68" stroke-linecap="round" stroke-linejoin="round"/>
<path d="M354.894 63.9199H387.107H354.894Z" stroke="white" stroke-width="0.48" stroke-linecap="round" stroke-linejoin="round"/>
<path d="M391.435 63.9199H395.041H391.435Z" stroke="white" stroke-width="0.48" stroke-linecap="round" stroke-linejoin="round"/>
<path d="M399.368 63.9199H431.582H399.368Z" stroke="white" stroke-width="0.48" stroke-linecap="round" stroke-linejoin="round"/>
<path d="M435.909 63.9199H439.515H435.909Z" stroke="white" stroke-width="0.48" stroke-linecap="round" stroke-linejoin="round"/>
<path d="M443.843 63.9199H476.056H443.843Z" stroke="white" stroke-width="0.48" stroke-linecap="round" stroke-linejoin="round"/>
<path d="M354.894 49.76H468.844H354.894Z" stroke="white" stroke-width="1.68" stroke-linecap="round" stroke-linejoin="round"/>
<path d="M354.894 78.0798H468.844H354.894Z" stroke="white" stroke-width="1.68" stroke-linecap="round" stroke-linejoin="round"/>
<path d="M473.171 54.0798V73.7598V54.0798Z" stroke="white" stroke-width="1.68" stroke-linecap="round" stroke-linejoin="round"/>
<path d="M473.171 54.3198V73.2798V54.3198Z" stroke="white" stroke-width="1.68" stroke-linecap="round" stroke-linejoin="round"/>
<path d="M468.844 49.76V78.08V49.76Z" stroke="white" stroke-width="1.68" stroke-linecap="round" stroke-linejoin="round"/>
<path d="M418.359 49.76V78.08V49.76Z" stroke="white" stroke-width="1.68" stroke-linecap="round" stroke-linejoin="round"/>
<path d="M418.359 73.76H473.171H418.359Z" stroke="white" stroke-width="0.72" stroke-linecap="round" stroke-linejoin="round"/>
<path d="M468.844 78.08L473.171 73.76L468.844 78.08Z" stroke="white" stroke-width="1.68" stroke-linecap="round" stroke-linejoin="round"/>
<path d="M468.844 78.08L465.959 73.76L468.844 78.08Z" stroke="white" stroke-width="0.96" stroke-linecap="round" stroke-linejoin="round"/>
<path d="M463.556 78.08L465.96 73.76L463.556 78.08Z" stroke="white" stroke-width="0.96" stroke-linecap="round" stroke-linejoin="round"/>
<path d="M463.556 78.08L460.911 73.76L463.556 78.08Z" stroke="white" stroke-width="0.96" stroke-linecap="round" stroke-linejoin="round"/>
<path d="M458.507 78.08L460.911 73.76L458.507 78.08Z" stroke="white" stroke-width="0.96" stroke-linecap="round" stroke-linejoin="round"/>
<path d="M458.507 78.08L455.862 73.76L458.507 78.08Z" stroke="white" stroke-width="0.96" stroke-linecap="round" stroke-linejoin="round"/>
<path d="M453.458 78.08L455.862 73.76L453.458 78.08Z" stroke="white" stroke-width="0.96" stroke-linecap="round" stroke-linejoin="round"/>
<path d="M453.459 78.08L450.814 73.76L453.459 78.08Z" stroke="white" stroke-width="0.96" stroke-linecap="round" stroke-linejoin="round"/>
<path d="M448.41 78.08L450.814 73.76L448.41 78.08Z" stroke="white" stroke-width="0.96" stroke-linecap="round" stroke-linejoin="round"/>
<path d="M448.41 78.08L446.006 73.76L448.41 78.08Z" stroke="white" stroke-width="0.96" stroke-linecap="round" stroke-linejoin="round"/>
<path d="M443.361 78.08L446.006 73.76L443.361 78.08Z" stroke="white" stroke-width="0.96" stroke-linecap="round" stroke-linejoin="round"/>
<path d="M443.361 78.08L440.957 73.76L443.361 78.08Z" stroke="white" stroke-width="0.96" stroke-linecap="round" stroke-linejoin="round"/>
<path d="M438.313 78.08L440.958 73.76L438.313 78.08Z" stroke="white" stroke-width="0.96" stroke-linecap="round" stroke-linejoin="round"/>
<path d="M438.313 78.08L435.909 73.76L438.313 78.08Z" stroke="white" stroke-width="0.96" stroke-linecap="round" stroke-linejoin="round"/>
<path d="M433.265 78.08L435.909 73.76L433.265 78.08Z" stroke="white" stroke-width="0.96" stroke-linecap="round" stroke-linejoin="round"/>
<path d="M433.264 78.08L430.86 73.76L433.264 78.08Z" stroke="white" stroke-width="0.96" stroke-linecap="round" stroke-linejoin="round"/>
<path d="M428.216 78.08L430.86 73.76L428.216 78.08Z" stroke="white" stroke-width="0.96" stroke-linecap="round" stroke-linejoin="round"/>
<path d="M428.217 78.08L425.812 73.76L428.217 78.08Z" stroke="white" stroke-width="0.96" stroke-linecap="round" stroke-linejoin="round"/>
<path d="M423.168 78.08L425.812 73.76L423.168 78.08Z" stroke="white" stroke-width="0.96" stroke-linecap="round" stroke-linejoin="round"/>
<path d="M423.168 78.08L420.764 73.76L423.168 78.08Z" stroke="white" stroke-width="0.96" stroke-linecap="round" stroke-linejoin="round"/>
<path d="M418.359 78.08L420.763 73.76L418.359 78.08Z" stroke="white" stroke-width="0.96" stroke-linecap="round" stroke-linejoin="round"/>
<path d="M418.359 54.0798H473.171H418.359Z" stroke="white" stroke-width="0.72" stroke-linecap="round" stroke-linejoin="round"/>
<path d="M468.844 49.76L473.171 54.08L468.844 49.76Z" stroke="white" stroke-width="1.68" stroke-linecap="round" stroke-linejoin="round"/>
<path d="M468.844 49.76L465.959 54.08L468.844 49.76Z" stroke="white" stroke-width="0.96" stroke-linecap="round" stroke-linejoin="round"/>
<path d="M463.556 49.76L465.96 54.08L463.556 49.76Z" stroke="white" stroke-width="0.96" stroke-linecap="round" stroke-linejoin="round"/>
<path d="M463.556 49.76L460.911 54.08L463.556 49.76Z" stroke="white" stroke-width="0.96" stroke-linecap="round" stroke-linejoin="round"/>
<path d="M458.507 49.76L460.911 54.08L458.507 49.76Z" stroke="white" stroke-width="0.96" stroke-linecap="round" stroke-linejoin="round"/>
<path d="M458.507 49.76L455.862 54.08L458.507 49.76Z" stroke="white" stroke-width="0.96" stroke-linecap="round" stroke-linejoin="round"/>
<path d="M453.458 49.76L455.862 54.08L453.458 49.76Z" stroke="white" stroke-width="0.96" stroke-linecap="round" stroke-linejoin="round"/>
<path d="M453.459 49.76L450.814 54.08L453.459 49.76Z" stroke="white" stroke-width="0.96" stroke-linecap="round" stroke-linejoin="round"/>
<path d="M448.41 49.76L450.814 54.08L448.41 49.76Z" stroke="white" stroke-width="0.96" stroke-linecap="round" stroke-linejoin="round"/>
<path d="M448.41 49.76L446.006 54.08L448.41 49.76Z" stroke="white" stroke-width="0.96" stroke-linecap="round" stroke-linejoin="round"/>
<path d="M443.361 49.76L446.006 54.08L443.361 49.76Z" stroke="white" stroke-width="0.96" stroke-linecap="round" stroke-linejoin="round"/>
<path d="M443.361 49.76L440.957 54.08L443.361 49.76Z" stroke="white" stroke-width="0.96" stroke-linecap="round" stroke-linejoin="round"/>
<path d="M438.313 49.76L440.958 54.08L438.313 49.76Z" stroke="white" stroke-width="0.96" stroke-linecap="round" stroke-linejoin="round"/>
<path d="M438.313 49.76L435.909 54.08L438.313 49.76Z" stroke="white" stroke-width="0.96" stroke-linecap="round" stroke-linejoin="round"/>
<path d="M433.265 49.76L435.909 54.08L433.265 49.76Z" stroke="white" stroke-width="0.96" stroke-linecap="round" stroke-linejoin="round"/>
<path d="M433.264 49.76L430.86 54.08L433.264 49.76Z" stroke="white" stroke-width="0.96" stroke-linecap="round" stroke-linejoin="round"/>
<path d="M428.216 49.76L430.86 54.08L428.216 49.76Z" stroke="white" stroke-width="0.96" stroke-linecap="round" stroke-linejoin="round"/>
<path d="M428.217 49.76L425.812 54.08L428.217 49.76Z" stroke="white" stroke-width="0.96" stroke-linecap="round" stroke-linejoin="round"/>
<path d="M423.168 49.76L425.812 54.08L423.168 49.76Z" stroke="white" stroke-width="0.96" stroke-linecap="round" stroke-linejoin="round"/>
<path d="M423.168 49.76L420.764 54.08L423.168 49.76Z" stroke="white" stroke-width="0.96" stroke-linecap="round" stroke-linejoin="round"/>
<path d="M418.359 49.76L420.763 54.08L418.359 49.76Z" stroke="white" stroke-width="0.96" stroke-linecap="round" stroke-linejoin="round"/>
<path d="M45.498 63.9199H77.7118H45.498Z" stroke="white" stroke-width="0.48" stroke-linecap="round" stroke-linejoin="round"/>
<path d="M82.0391 63.9199H85.6451H82.0391Z" stroke="white" stroke-width="0.48" stroke-linecap="round" stroke-linejoin="round"/>
<path d="M89.9717 63.9199H122.185H89.9717Z" stroke="white" stroke-width="0.48" stroke-linecap="round" stroke-linejoin="round"/>
<path d="M126.272 63.9199H130.119H126.272Z" stroke="white" stroke-width="0.48" stroke-linecap="round" stroke-linejoin="round"/>
<path d="M134.206 63.9199H166.42H134.206Z" stroke="white" stroke-width="0.48" stroke-linecap="round" stroke-linejoin="round"/>
<path d="M48.3828 49.76H166.42H48.3828Z" stroke="white" stroke-width="1.68" stroke-linecap="round" stroke-linejoin="round"/>
<path d="M48.3828 78.0798H166.42H48.3828Z" stroke="white" stroke-width="1.68" stroke-linecap="round" stroke-linejoin="round"/>
<path d="M48.3828 49.76V78.08V49.76Z" stroke="white" stroke-width="1.68" stroke-linecap="round" stroke-linejoin="round"/>
<path d="M48.3828 52.3999H110.647H48.3828Z" stroke="white" stroke-width="1.68" stroke-linecap="round" stroke-linejoin="round"/>
<path d="M48.3828 75.2H101.992H48.3828Z" stroke="white" stroke-width="1.68" stroke-linecap="round" stroke-linejoin="round"/>
<path d="M111.608 49.76L111.848 50.48L111.608 49.76Z" stroke="white" stroke-width="1.68" stroke-linecap="round" stroke-linejoin="round"/>
<path d="M111.849 50.48V50.72V50.48Z" stroke="white" stroke-width="1.68" stroke-linecap="round" stroke-linejoin="round"/>
<path d="M111.848 50.72L111.608 50.96L111.848 50.72Z" stroke="white" stroke-width="1.68" stroke-linecap="round" stroke-linejoin="round"/>
<path d="M111.608 50.96V51.2V50.96Z" stroke="white" stroke-width="1.68" stroke-linecap="round" stroke-linejoin="round"/>
<path d="M111.608 51.2V51.44V51.2Z" stroke="white" stroke-width="1.68" stroke-linecap="round" stroke-linejoin="round"/>
<path d="M111.607 51.4399L111.367 51.6799L111.607 51.4399Z" stroke="white" stroke-width="1.68" stroke-linecap="round" stroke-linejoin="round"/>
<path d="M111.367 51.6799L111.127 52.1599L111.367 51.6799Z" stroke="white" stroke-width="1.68" stroke-linecap="round" stroke-linejoin="round"/>
<path d="M111.127 52.1599L110.406 52.8799L111.127 52.1599Z" stroke="white" stroke-width="1.68" stroke-linecap="round" stroke-linejoin="round"/>
<path d="M110.406 52.8799L108.724 54.3199L110.406 52.8799Z" stroke="white" stroke-width="1.68" stroke-linecap="round" stroke-linejoin="round"/>
<path d="M108.723 54.3198L105.598 56.2398L108.723 54.3198Z" stroke="white" stroke-width="1.68" stroke-linecap="round" stroke-linejoin="round"/>
<path d="M105.598 56.24L100.79 59.12L105.598 56.24Z" stroke="white" stroke-width="1.68" stroke-linecap="round" stroke-linejoin="round"/>
<path d="M100.79 59.1199L98.3857 61.2799L100.79 59.1199Z" stroke="white" stroke-width="1.68" stroke-linecap="round" stroke-linejoin="round"/>
<path d="M98.3855 61.28L98.1455 61.76L98.3855 61.28Z" stroke="white" stroke-width="1.68" stroke-linecap="round" stroke-linejoin="round"/>
<path d="M98.1455 61.76V62V61.76Z" stroke="white" stroke-width="1.68" stroke-linecap="round" stroke-linejoin="round"/>
<path d="M98.1453 62H97.9053H98.1453Z" stroke="white" stroke-width="1.68" stroke-linecap="round" stroke-linejoin="round"/>
<path d="M97.9053 62V62.24V62Z" stroke="white" stroke-width="1.68" stroke-linecap="round" stroke-linejoin="round"/>
<path d="M97.9053 62.24V62.48V62.24Z" stroke="white" stroke-width="1.68" stroke-linecap="round" stroke-linejoin="round"/>
<path d="M97.9053 62.48V62.72V62.48Z" stroke="white" stroke-width="1.68" stroke-linecap="round" stroke-linejoin="round"/>
<path d="M97.9053 62.72V62.96V62.72Z" stroke="white" stroke-width="1.68" stroke-linecap="round" stroke-linejoin="round"/>
<path d="M97.9053 62.96V63.2V62.96Z" stroke="white" stroke-width="1.68" stroke-linecap="round" stroke-linejoin="round"/>
<path d="M97.9053 63.2V63.44V63.2Z" stroke="white" stroke-width="1.68" stroke-linecap="round" stroke-linejoin="round"/>
<path d="M97.9053 63.4399V63.6799V63.4399Z" stroke="white" stroke-width="1.68" stroke-linecap="round" stroke-linejoin="round"/>
<path d="M97.9053 63.6799L98.1453 63.9199L97.9053 63.6799Z" stroke="white" stroke-width="1.68" stroke-linecap="round" stroke-linejoin="round"/>
<path d="M98.1455 63.9199L98.3855 64.3999L98.1455 63.9199Z" stroke="white" stroke-width="1.68" stroke-linecap="round" stroke-linejoin="round"/>
<path d="M98.3857 64.3999L98.8657 65.3599L98.3857 64.3999Z" stroke="white" stroke-width="1.68" stroke-linecap="round" stroke-linejoin="round"/>
<path d="M98.8672 65.3599L100.31 67.0399L98.8672 65.3599Z" stroke="white" stroke-width="1.68" stroke-linecap="round" stroke-linejoin="round"/>
<path d="M100.31 67.04L102.714 69.92L100.31 67.04Z" stroke="white" stroke-width="1.68" stroke-linecap="round" stroke-linejoin="round"/>
<path d="M102.713 69.9199L103.674 72.0799L102.713 69.9199Z" stroke="white" stroke-width="1.68" stroke-linecap="round" stroke-linejoin="round"/>
<path d="M103.675 72.0798V72.3198V72.0798Z" stroke="white" stroke-width="1.68" stroke-linecap="round" stroke-linejoin="round"/>
<path d="M103.675 72.3198V72.5598V72.3198Z" stroke="white" stroke-width="1.68" stroke-linecap="round" stroke-linejoin="round"/>
<path d="M103.675 72.5601H103.435H103.675Z" stroke="white" stroke-width="1.68" stroke-linecap="round" stroke-linejoin="round"/>
<path d="M103.435 72.5601V72.8001V72.5601Z" stroke="white" stroke-width="1.68" stroke-linecap="round" stroke-linejoin="round"/>
<path d="M103.435 72.8V73.04V72.8Z" stroke="white" stroke-width="1.68" stroke-linecap="round" stroke-linejoin="round"/>
<path d="M103.435 73.04V73.28V73.04Z" stroke="white" stroke-width="1.68" stroke-linecap="round" stroke-linejoin="round"/>
<path d="M103.434 73.28L103.194 73.52L103.434 73.28Z" stroke="white" stroke-width="1.68" stroke-linecap="round" stroke-linejoin="round"/>
<path d="M103.193 73.52L102.953 74.24L103.193 73.52Z" stroke="white" stroke-width="1.68" stroke-linecap="round" stroke-linejoin="round"/>
<path d="M102.954 74.24L101.992 74.96L102.954 74.24Z" stroke="white" stroke-width="1.68" stroke-linecap="round" stroke-linejoin="round"/>
<path d="M101.992 74.96L100.068 76.4L101.992 74.96Z" stroke="white" stroke-width="1.68" stroke-linecap="round" stroke-linejoin="round"/>
<path d="M100.068 76.3999L97.1836 77.5999L100.068 76.3999Z" stroke="white" stroke-width="1.68" stroke-linecap="round" stroke-linejoin="round"/>
<path d="M97.1841 77.5999L96.4629 78.0798L97.1841 77.5999Z" stroke="white" stroke-width="1.68" stroke-linecap="round" stroke-linejoin="round"/>
<path d="M95.0205 78.08L97.9053 75.2L95.0205 78.08Z" stroke="white" stroke-width="0.48" stroke-linecap="round" stroke-linejoin="round"/>
<path d="M86.8467 78.08L89.7315 75.2L86.8467 78.08Z" stroke="white" stroke-width="0.48" stroke-linecap="round" stroke-linejoin="round"/>
<path d="M78.9131 78.08L81.7979 75.2L78.9131 78.08Z" stroke="white" stroke-width="0.48" stroke-linecap="round" stroke-linejoin="round"/>
<path d="M104.396 52.4L107.28 49.76L104.396 52.4Z" stroke="white" stroke-width="0.48" stroke-linecap="round" stroke-linejoin="round"/>
<path d="M96.4629 52.4L99.3477 49.76L96.4629 52.4Z" stroke="white" stroke-width="0.48" stroke-linecap="round" stroke-linejoin="round"/>
<path d="M70.9805 78.08L73.6249 75.2L70.9805 78.08Z" stroke="white" stroke-width="0.48" stroke-linecap="round" stroke-linejoin="round"/>
<path d="M62.8066 78.08L65.6915 75.2L62.8066 78.08Z" stroke="white" stroke-width="0.48" stroke-linecap="round" stroke-linejoin="round"/>
<path d="M88.2891 52.4L91.1739 49.76L88.2891 52.4Z" stroke="white" stroke-width="0.48" stroke-linecap="round" stroke-linejoin="round"/>
<path d="M80.3555 52.4L83.2403 49.76L80.3555 52.4Z" stroke="white" stroke-width="0.48" stroke-linecap="round" stroke-linejoin="round"/>
<path d="M54.873 78.08L57.7579 75.2L54.873 78.08Z" stroke="white" stroke-width="0.48" stroke-linecap="round" stroke-linejoin="round"/>
<path d="M48.3828 76.3999L49.5848 75.2L48.3828 76.3999Z" stroke="white" stroke-width="0.48" stroke-linecap="round" stroke-linejoin="round"/>
<path d="M72.4229 52.4L75.0673 49.76L72.4229 52.4Z" stroke="white" stroke-width="0.48" stroke-linecap="round" stroke-linejoin="round"/>
<path d="M64.249 52.4L67.1338 49.76L64.249 52.4Z" stroke="white" stroke-width="0.48" stroke-linecap="round" stroke-linejoin="round"/>
<path d="M56.3154 52.4L59.2002 49.76L56.3154 52.4Z" stroke="white" stroke-width="0.48" stroke-linecap="round" stroke-linejoin="round"/>
<path d="M48.3828 52.4L51.0272 49.76L48.3828 52.4Z" stroke="white" stroke-width="0.48" stroke-linecap="round" stroke-linejoin="round"/>

    <!--    1 A-->
    <g class="group">
    </g>
    <!--    2 D-->
    <g class="group">
        <path d="M14.5669 64.3369V67.5116L13.026 66.9307V63.777C13.026 62.6909 12.8133 61.7086 12.388 60.83C11.9562 59.949 11.3542 59.1872 10.5821 58.5446C9.80342 57.8927 8.8939 57.3777 7.85352 56.9996L6.97998 56.6822C6.16207 56.3849 5.43576 56.2254 4.80106 56.2037C4.15982 56.1795 3.62 56.2896 3.1816 56.5341C2.73665 56.7762 2.39967 57.1481 2.17065 57.6497C1.94164 58.1443 1.82713 58.7675 1.82713 59.5194V62.9447L0.276367 62.3812V58.9559C0.276367 57.9603 0.433407 57.1089 0.747485 56.4015C1.05502 55.6917 1.50324 55.148 2.09213 54.7702C2.67449 54.3831 3.38117 54.1804 4.21217 54.1621C5.03662 54.1415 5.96577 54.319 6.99961 54.6947L7.85352 55.005C8.88736 55.3807 9.81978 55.8797 10.6508 56.5019C11.4752 57.1217 12.1786 57.8403 12.761 58.6576C13.3433 59.468 13.7916 60.3549 14.1056 61.3184C14.4132 62.2725 14.5669 63.2787 14.5669 64.3369ZM0.276367 61.2429L14.5669 66.436V68.4515L0.276367 63.2584V61.2429Z" fill="white"/>
        <path d="M25.5444 35.5999L25.7822 35.6322C25.7952 35.5363 25.7494 35.442 25.666 35.393C25.5826 35.3439 25.478 35.3498 25.4005 35.4077L25.5444 35.5999ZM23.6212 37.0399L23.4651 37.2222C23.5505 37.2952 23.6751 37.2993 23.765 37.232L23.6212 37.0399ZM21.9386 35.5999L22.0946 35.4175C22.0195 35.3532 21.9127 35.3416 21.8255 35.3882C21.7383 35.4347 21.6886 35.53 21.7002 35.6282L21.9386 35.5999ZM32.5159 50C32.6485 50 32.7559 49.8926 32.7559 49.76C32.7559 49.6275 32.6485 49.52 32.5159 49.52V50ZM18.0919 49.52C17.9593 49.52 17.8519 49.6275 17.8519 49.76C17.8519 49.8926 17.9593 50 18.0919 50V49.52ZM32.5159 78.3198C32.6485 78.3198 32.7559 78.2124 32.7559 78.0798C32.7559 77.9473 32.6485 77.8398 32.5159 77.8398V78.3198ZM18.0919 77.8398C17.9593 77.8398 17.8519 77.9473 17.8519 78.0798C17.8519 78.2124 17.9593 78.3198 18.0919 78.3198V77.8398ZM14.5669 67.5116L14.4823 67.7362C14.556 67.764 14.6387 67.7538 14.7035 67.709C14.7683 67.6642 14.8069 67.5904 14.8069 67.5116H14.5669ZM13.026 66.9307H12.786C12.786 67.0306 12.8479 67.1201 12.9413 67.1553L13.026 66.9307ZM12.388 60.83L12.6041 60.7254L12.6035 60.7243L12.388 60.83ZM10.5821 58.5446L10.428 58.7286L10.4285 58.7291L10.5821 58.5446ZM7.85352 56.9996L7.77155 57.2252L7.77155 57.2252L7.85352 56.9996ZM6.97998 56.6822L7.06195 56.4566L7.06195 56.4566L6.97998 56.6822ZM4.80106 56.2037L4.79203 56.4435L4.79283 56.4435L4.80106 56.2037ZM3.1816 56.5341L3.29631 56.745L3.29849 56.7437L3.1816 56.5341ZM2.17065 57.6497L2.38845 57.7505L2.38897 57.7493L2.17065 57.6497ZM1.82713 62.9447L1.74516 63.1703C1.81874 63.197 1.90073 63.1862 1.96484 63.1413C2.02895 63.0963 2.06713 63.023 2.06713 62.9447H1.82713ZM0.276367 62.3812H0.0363672C0.0363672 62.4821 0.0995267 62.5723 0.194397 62.6067L0.276367 62.3812ZM0.747485 56.4015L0.966845 56.4989L0.967701 56.4969L0.747485 56.4015ZM2.09213 54.7702L2.22174 54.9722L2.22499 54.9701L2.09213 54.7702ZM4.21217 54.1621L4.21744 54.4021L4.21817 54.4021L4.21217 54.1621ZM6.99961 54.6947L6.91764 54.9203L6.91764 54.9203L6.99961 54.6947ZM7.85352 55.005L7.93549 54.7794L7.93549 54.7794L7.85352 55.005ZM10.6508 56.5019L10.795 56.3101L10.7946 56.3098L10.6508 56.5019ZM12.761 58.6576L12.5655 58.7969L12.5661 58.7977L12.761 58.6576ZM14.1056 61.3184L14.3341 61.2448L14.3338 61.244L14.1056 61.3184ZM0.276367 61.2429L0.358337 61.0173C0.284762 60.9906 0.202772 61.0014 0.138659 61.0463C0.0745454 61.0912 0.0363672 61.1646 0.0363672 61.2429H0.276367ZM14.5669 66.436H14.8069C14.8069 66.335 14.7438 66.2449 14.6489 66.2104L14.5669 66.436ZM14.5669 68.4515L14.485 68.677C14.5586 68.7038 14.6405 68.6929 14.7047 68.648C14.7688 68.6031 14.8069 68.5297 14.8069 68.4515H14.5669ZM0.276367 63.2584H0.0363672C0.0363672 63.3593 0.0995268 63.4495 0.194397 63.4839L0.276367 63.2584ZM23.8612 29.8398C23.8612 29.7073 23.7537 29.5998 23.6212 29.5998C23.4886 29.5998 23.3812 29.7073 23.3812 29.8398H23.8612ZM21.9386 92.2398L21.7002 92.2115C21.6886 92.3097 21.7383 92.4049 21.8255 92.4515C21.9126 92.4981 22.0195 92.4865 22.0946 92.4222L21.9386 92.2398ZM25.5444 92.2401L25.4005 92.4322C25.478 92.4901 25.5826 92.496 25.666 92.4469C25.7494 92.3979 25.7952 92.3036 25.7822 92.2078L25.5444 92.2401ZM23.3812 97.7598C23.3812 97.8924 23.4886 97.9998 23.6212 97.9998C23.7537 97.9998 23.8612 97.8924 23.8612 97.7598L23.3812 97.7598ZM25.4005 35.4077L23.4773 36.8477L23.765 37.232L25.6882 35.792L25.4005 35.4077ZM23.7772 36.8575L22.0946 35.4175L21.7825 35.7822L23.4651 37.2222L23.7772 36.8575ZM32.5159 49.52H18.0919V50H32.5159V49.52ZM32.5159 77.8398H18.0919V78.3198H32.5159V77.8398ZM14.3269 64.3369V67.5116H14.8069V64.3369H14.3269ZM14.6516 67.287L13.1107 66.7062L12.9413 67.1553L14.4823 67.7362L14.6516 67.287ZM13.266 66.9307V63.777H12.786V66.9307H13.266ZM13.266 63.777C13.266 62.6588 13.0468 61.6401 12.604 60.7254L12.172 60.9346C12.5798 61.777 12.786 62.723 12.786 63.777H13.266ZM12.6035 60.7243C12.1564 59.8123 11.5331 59.0238 10.7356 58.3601L10.4285 58.7291C11.1753 59.3506 11.7559 60.0857 12.1725 60.9356L12.6035 60.7243ZM10.7361 58.3606C9.93421 57.6892 8.99978 57.1608 7.93549 56.774L7.77155 57.2252C8.78803 57.5946 9.67263 58.0962 10.428 58.7286L10.7361 58.3606ZM7.93549 56.774L7.06195 56.4566L6.89801 56.9077L7.77155 57.2252L7.93549 56.774ZM7.06195 56.4566C6.22849 56.1537 5.47656 55.9867 4.8093 55.9638L4.79283 56.4435C5.39497 56.4642 6.09565 56.6162 6.89801 56.9077L7.06195 56.4566ZM4.8101 55.9638C4.13696 55.9385 3.55084 56.0534 3.0647 56.3245L3.29849 56.7437C3.68915 56.5259 4.18268 56.4205 4.79203 56.4435L4.8101 55.9638ZM3.06689 56.3233C2.57218 56.5925 2.20092 57.0055 1.95233 57.55L2.38897 57.7493C2.59842 57.2906 2.90112 56.96 3.2963 56.7449L3.06689 56.3233ZM1.95287 57.5488C1.70477 58.0846 1.58713 58.7451 1.58713 59.5194H2.06713C2.06713 58.7899 2.17851 58.2039 2.38844 57.7505L1.95287 57.5488ZM1.58713 59.5194V62.9447H2.06713V59.5194H1.58713ZM1.9091 62.7191L0.358337 62.1556L0.194397 62.6067L1.74516 63.1703L1.9091 62.7191ZM0.516367 62.3812V58.9559H0.0363672V62.3812H0.516367ZM0.516367 58.9559C0.516367 57.9846 0.669675 57.1681 0.966836 56.4989L0.528135 56.3041C0.197138 57.0496 0.0363672 57.936 0.0363672 58.9559H0.516367ZM0.967701 56.4969C1.25837 55.8261 1.67714 55.3215 2.22172 54.9722L1.96255 54.5682C1.32933 54.9744 0.851675 55.5574 0.527269 56.3061L0.967701 56.4969ZM2.22499 54.9701C2.76284 54.6126 3.42322 54.4195 4.21744 54.4021L4.20689 53.9222C3.33911 53.9413 2.58614 54.1536 1.95928 54.5703L2.22499 54.9701ZM4.21817 54.4021C5.0045 54.3824 5.90311 54.5516 6.91764 54.9203L7.08158 54.4691C6.02843 54.0864 5.06875 53.9006 4.20616 53.9222L4.21817 54.4021ZM6.91764 54.9203L7.77155 55.2306L7.93549 54.7794L7.08158 54.4691L6.91764 54.9203ZM7.77155 55.2306C8.78455 55.5987 9.69589 56.0867 10.5069 56.694L10.7946 56.3098C9.94366 55.6726 8.99016 55.1627 7.93549 54.7794L7.77155 55.2306ZM10.5066 56.6937C11.3119 57.2992 11.9979 58.0002 12.5655 58.7969L12.9565 58.5184C12.3594 57.6805 11.6386 56.9443 10.795 56.3101L10.5066 56.6937ZM12.5661 58.7977C13.1338 59.5877 13.5709 60.4524 13.8775 61.3928L14.3338 61.244C14.0122 60.2574 13.5529 59.3483 12.9559 58.5176L12.5661 58.7977ZM13.8772 61.392C14.1767 62.3211 14.3269 63.3023 14.3269 64.3369H14.8069C14.8069 63.2551 14.6497 62.224 14.3341 61.2448L13.8772 61.392ZM0.194397 61.4684L14.485 66.6615L14.6489 66.2104L0.358337 61.0173L0.194397 61.4684ZM14.3269 66.436V68.4515H14.8069V66.436H14.3269ZM14.6489 68.2259L0.358337 63.0328L0.194397 63.4839L14.485 68.677L14.6489 68.2259ZM0.516367 63.2584V61.2429H0.0363672V63.2584H0.516367ZM23.859 49.7922L25.7822 35.6322L25.3066 35.5676L23.3834 49.7276L23.859 49.7922ZM21.7002 35.6282L23.3828 49.7882L23.8595 49.7315L22.1769 35.5715L21.7002 35.6282ZM23.8612 49.7599V29.8398H23.3812V49.7599H23.8612ZM25.304 36.0798H25.5444V35.5998H25.304V36.0798ZM25.0636 36.3198H25.5444V35.8398H25.0636V36.3198ZM24.5828 36.5598H25.5444V36.0798H24.5828V36.5598ZM24.3424 36.7998H25.5444V36.3198H24.3424V36.7998ZM24.102 37.0398H25.5444V36.5598H24.102V37.0398ZM23.6212 48.0798H24.102V47.5998H23.6212V48.0798ZM23.6212 48.3198H23.8616V47.8398H23.6212V48.3198ZM23.6212 48.5598H23.8616V48.0798H23.6212V48.5598ZM23.6212 48.7998H23.8616V48.3198H23.6212V48.7998ZM23.6212 49.0398H23.8616V48.5598H23.6212V49.0398ZM23.6212 49.2798H23.8616V48.7998H23.6212V49.2798ZM23.6212 49.5198H23.8616V49.0398H23.6212V49.5198ZM23.6212 49.7598H23.8616V49.2798H23.6212V49.7598ZM22.1788 36.0798H22.4192V35.5998H22.1788V36.0798ZM22.1788 36.3198H22.6596V35.8398H22.1788V36.3198ZM22.1788 36.5598H22.9V36.0798H22.1788V36.5598ZM22.1788 36.7998H23.1404V36.3198H22.1788V36.7998ZM22.1788 37.0398H23.3808V36.5598H22.1788V37.0398ZM23.383 78.0515L21.7002 92.2115L22.1769 92.2682L23.8597 78.1082L23.383 78.0515ZM22.0946 92.4222L23.7774 90.9824L23.4653 90.6177L21.7825 92.0575L22.0946 92.4222ZM23.4775 90.9922L25.4005 92.4322L25.6882 92.0479L23.7652 90.6079L23.4775 90.9922ZM25.7822 92.2078L23.8592 78.0475L23.3835 78.1121L25.3066 92.2723L25.7822 92.2078ZM23.3814 78.0798L23.3812 97.7598L23.8612 97.7598L23.8614 78.0798L23.3814 78.0798ZM22.1788 91.04L23.6214 91.04L23.6214 90.56L22.1788 90.56L22.1788 91.04ZM22.1788 91.28H23.3808V90.8H22.1788V91.28ZM22.1788 91.52H23.1404V91.04H22.1788V91.52ZM22.1788 91.76H22.9V91.28H22.1788V91.76ZM22.1788 92H22.6596V91.52H22.1788V92ZM22.1788 92.24H22.4192V91.76H22.1788V92.24ZM23.6212 78.5598H23.8616V78.0798H23.6212V78.5598ZM23.6212 78.7998H23.8616V78.3198H23.6212V78.7998ZM23.6212 79.0398H23.8616V78.5598H23.6212V79.0398ZM23.6212 79.2798H23.8616V78.7998H23.6212V79.2798ZM23.6212 79.5198H23.8616V79.0398H23.6212V79.5198ZM23.6212 79.7598H23.8616V79.2798H23.6212V79.7598ZM23.6212 79.9998H23.8616V79.5198H23.6212V79.9998ZM23.6212 80.2398H24.102V79.7598H23.6212V80.2398ZM23.6214 91.04L25.5444 91.0398L25.5444 90.5598L23.6213 90.56L23.6214 91.04ZM24.102 91.2798H25.5444V90.7998H24.102V91.2798ZM24.3424 91.5198H25.5444V91.0398H24.3424V91.5198ZM24.5828 91.7598H25.5444V91.2798H24.5828V91.7598ZM25.0636 91.9998H25.5444V91.5198H25.0636V91.9998ZM25.304 92.2398H25.5444V91.7598H25.304V92.2398ZM23.3812 49.7599L23.3814 78.0798L23.8614 78.0798L23.8612 49.7599L23.3812 49.7599ZM22.1788 37.2798H25.5444V36.7998H22.1788V37.2798ZM22.1788 37.5198L25.5444 37.5198L25.5444 37.0398L22.1788 37.0398L22.1788 37.5198ZM22.1788 37.7598H25.304V37.2798H22.1788V37.7598ZM22.4192 37.9998H25.304V37.5198H22.4192V37.9998ZM22.4192 38.2398H25.304V37.7598H22.4192V38.2398ZM22.4192 38.4798H25.304V37.9998H22.4192V38.4798ZM22.4192 38.7198H25.304V38.2398H22.4192V38.7198ZM22.4192 38.9598L25.304 38.9598L25.304 38.4798L22.4192 38.4798L22.4192 38.9598ZM22.4192 39.1998L25.304 39.1998L25.304 38.7198L22.4192 38.7198L22.4192 39.1998ZM22.4192 39.4398H25.0636V38.9598H22.4192V39.4398ZM22.4192 39.6798H25.0636V39.1998H22.4192V39.6798ZM22.6596 39.9198H25.0636V39.4398H22.6596V39.9198ZM22.6596 40.1598H25.0636V39.6798H22.6596V40.1598ZM22.6596 40.3998H25.0636V39.9198H22.6596V40.3998ZM22.6596 40.6398H25.0636V40.1598H22.6596V40.6398ZM22.6596 40.8798H25.0636V40.3998H22.6596V40.8798ZM22.6596 41.1198L25.0636 41.1198L25.0636 40.6398L22.6596 40.6398L22.6596 41.1198ZM22.6596 41.3598L24.8232 41.3598L24.8232 40.8798L22.6596 40.8798L22.6596 41.3598ZM22.6596 41.5998H24.8232V41.1198H22.6596V41.5998ZM22.6596 41.8398H24.8232V41.3598H22.6596V41.8398ZM22.9 42.0798H24.8232V41.5998H22.9V42.0798ZM22.9 42.3198H24.8232V41.8398H22.9V42.3198ZM22.9 42.5598H24.8232V42.0798H22.9V42.5598ZM22.9 42.7998L24.8232 42.7998L24.8232 42.3198L22.9 42.3198L22.9 42.7998ZM22.9 43.0398L24.5828 43.0398L24.5828 42.5598L22.9 42.5598L22.9 43.0398ZM22.9 43.2798L24.5828 43.2798L24.5828 42.7998L22.9 42.7998L22.9 43.2798ZM22.9 43.5198L24.5828 43.5198L24.5828 43.0398L22.9 43.0398L22.9 43.5198ZM22.9 43.7598H24.5828V43.2798H22.9V43.7598ZM23.1404 43.9998H24.5828V43.5198H23.1404V43.9998ZM23.1404 44.2398H24.5828V43.7598H23.1404V44.2398ZM23.1404 44.4798H24.5828V43.9998H23.1404V44.4798ZM23.1404 44.7198H24.3424V44.2398H23.1404V44.7198ZM23.1404 44.9598L24.3424 44.9598L24.3424 44.4798L23.1404 44.4798L23.1404 44.9598ZM23.1404 45.1998L24.3424 45.1998L24.3424 44.7198L23.1404 44.7198L23.1404 45.1998ZM23.1404 45.4398L24.3424 45.4398L24.3424 44.9598L23.1404 44.9598L23.1404 45.4398ZM23.1404 45.6798L24.3424 45.6798L24.3424 45.1998L23.1404 45.1998L23.1404 45.6798ZM23.1404 45.9198L24.3424 45.9198L24.3424 45.4398L23.1404 45.4398L23.1404 45.9198ZM23.3808 46.1598L24.3424 46.1598L24.3424 45.6798L23.3808 45.6798L23.3808 46.1598ZM23.3808 46.3998L24.3424 46.3998L24.3424 45.9198L23.3808 45.9198L23.3808 46.3998ZM23.3808 46.6398L24.102 46.6398L24.102 46.1598L23.3808 46.1598L23.3808 46.6398ZM23.3808 46.8798L24.102 46.8798L24.102 46.3998L23.3808 46.3998L23.3808 46.8798ZM23.3808 47.1198H24.102V46.6398H23.3808V47.1198ZM23.3808 47.3598H24.102V46.8798H23.3808V47.3598ZM23.3808 47.5998H24.102V47.1198H23.3808V47.5998ZM23.3808 47.8398H24.102V47.3598H23.3808V47.8398ZM23.3808 80.48L24.102 80.4798L24.1019 79.9998L23.3807 80L23.3808 80.48ZM23.3808 80.72L24.102 80.7198L24.1019 80.2398L23.3807 80.24L23.3808 80.72ZM23.3808 80.96L24.102 80.9598L24.1019 80.4798L23.3807 80.48L23.3808 80.96ZM23.3808 81.2L24.102 81.1998L24.1019 80.7198L23.3807 80.72L23.3808 81.2ZM23.3808 81.44L24.102 81.4398L24.1019 80.9598L23.3807 80.96L23.3808 81.44ZM23.3808 81.68L24.102 81.6798L24.1019 81.1998L23.3807 81.2L23.3808 81.68ZM23.3808 81.92L24.3424 81.9198L24.3423 81.4398L23.3807 81.44L23.3808 81.92ZM23.3808 82.16L24.3424 82.1598L24.3423 81.6798L23.3807 81.68L23.3808 82.16ZM23.1404 82.4L24.3424 82.3998L24.3423 81.9198L23.1404 81.92L23.1404 82.4ZM23.1404 82.64L24.3424 82.6398L24.3423 82.1598L23.1404 82.16L23.1404 82.64ZM23.1404 82.88L24.3424 82.8798L24.3423 82.3998L23.1404 82.4L23.1404 82.88ZM23.1404 83.12L24.3424 83.1198L24.3423 82.6398L23.1404 82.64L23.1404 83.12ZM23.1404 83.36L24.3424 83.3598L24.3423 82.8798L23.1404 82.88L23.1404 83.36ZM23.1404 83.6L24.3424 83.5998L24.3423 83.1198L23.1404 83.12L23.1404 83.6ZM23.1404 83.84L24.5828 83.8398L24.5827 83.3598L23.1404 83.36L23.1404 83.84ZM23.1404 84.08L24.5828 84.0798L24.5827 83.5998L23.1404 83.6L23.1404 84.08ZM23.1404 84.32L24.5828 84.3198L24.5827 83.8398L23.1404 83.84L23.1404 84.32ZM22.9 84.56L24.5828 84.5598L24.5828 84.0798L22.9 84.08L22.9 84.56ZM22.9 84.8L24.5828 84.7998L24.5828 84.3198L22.9 84.32L22.9 84.8ZM22.9 85.04L24.5828 85.0398L24.5828 84.5598L22.9 84.56L22.9 85.04ZM22.9 85.28L24.5828 85.2798L24.5828 84.7998L22.9 84.8L22.9 85.28ZM22.9 85.52L24.8232 85.5198L24.8232 85.0398L22.9 85.04L22.9 85.52ZM22.9 85.76L24.8232 85.7598L24.8232 85.2798L22.9 85.28L22.9 85.76ZM22.9 86L24.8232 85.9998L24.8232 85.5198L22.9 85.52L22.9 86ZM22.9 86.24L24.8232 86.2398L24.8232 85.7598L22.9 85.76L22.9 86.24ZM22.6596 86.48L24.8232 86.4798L24.8232 85.9998L22.6596 86L22.6596 86.48ZM22.6596 86.72L24.8232 86.7198L24.8232 86.2398L22.6596 86.24L22.6596 86.72ZM22.6596 86.96L24.8232 86.9598L24.8232 86.4798L22.6596 86.48L22.6596 86.96ZM22.6596 87.2L25.0636 87.1998L25.0636 86.7198L22.6596 86.72L22.6596 87.2ZM22.6596 87.44L25.0636 87.4398L25.0636 86.9598L22.6596 86.96L22.6596 87.44ZM22.6596 87.68L25.0636 87.6798L25.0636 87.1998L22.6596 87.2L22.6596 87.68ZM22.6596 87.92L25.0636 87.9198L25.0636 87.4398L22.6596 87.44L22.6596 87.92ZM22.6596 88.16L25.0636 88.1598L25.0636 87.6798L22.6596 87.68L22.6596 88.16ZM22.6596 88.4L25.0636 88.3998L25.0636 87.9198L22.6596 87.92L22.6596 88.4ZM22.4192 88.64L25.0636 88.6398L25.0636 88.1598L22.4192 88.16L22.4192 88.64ZM22.4192 88.88L25.0636 88.8798L25.0636 88.3998L22.4192 88.4L22.4192 88.88ZM22.4192 89.12L25.304 89.1198L25.304 88.6398L22.4192 88.64L22.4192 89.12ZM22.4192 89.36L25.304 89.3598L25.304 88.8798L22.4192 88.88L22.4192 89.36ZM22.4192 89.6L25.304 89.5998L25.304 89.1198L22.4192 89.12L22.4192 89.6ZM22.4192 89.84L25.304 89.8398L25.304 89.3598L22.4192 89.36L22.4192 89.84ZM22.4192 90.08L25.304 90.0798L25.304 89.5998L22.4192 89.6L22.4192 90.08ZM22.4192 90.32L25.304 90.3198L25.304 89.8398L22.4192 89.84L22.4192 90.32ZM22.1788 90.56L25.304 90.5598L25.304 90.0798L22.1788 90.08L22.1788 90.56ZM22.1788 90.8L25.5444 90.7998L25.5444 90.3198L22.1788 90.32L22.1788 90.8Z" fill="white"/>
    </g>
    <!--    3 Dy-->
    <g class="group">
    </g>
    <!--    4 Dh-->
    <g class="group">
    </g>
    <!--    5 D1-->
    <g class="group">
    </g>
    <!--   6 D2-->
    <g class="group">
    </g>
    <!--   7 d-->
    <g class="group">
        <path d="M489.957 60.3103L476.942 55.5809V53.6385L492.018 59.1169V60.8922L489.957 60.3103ZM486.826 66.775L486.62 66.7001C485.809 66.4052 485.072 66.0333 484.412 65.5843C483.744 65.1259 483.172 64.615 482.694 64.0516C482.216 63.4812 481.85 62.8781 481.595 62.2423C481.333 61.5972 481.202 60.937 481.202 60.2617C481.202 59.5516 481.32 58.9747 481.555 58.5312C481.784 58.0784 482.121 57.7483 482.566 57.541C483.005 57.3244 483.535 57.2211 484.156 57.2312C484.778 57.2413 485.481 57.3472 486.267 57.549L487.17 57.8771C487.948 58.2366 488.648 58.6408 489.27 59.0894C489.892 59.5311 490.422 60.0196 490.86 60.5549C491.298 61.0832 491.635 61.6582 491.871 62.2798C492.1 62.8991 492.214 63.5673 492.214 64.2844C492.214 64.9458 492.08 65.5027 491.812 65.9552C491.544 66.4008 491.168 66.734 490.683 66.9548C490.199 67.1688 489.63 67.2647 488.976 67.2428C488.315 67.2115 487.598 67.0555 486.826 66.775ZM486.62 64.7577L486.826 64.8326C487.356 65.0252 487.853 65.1502 488.318 65.2076C488.782 65.2581 489.191 65.2257 489.545 65.1104C489.898 64.9952 490.176 64.7864 490.379 64.4842C490.575 64.1796 490.674 63.7662 490.674 63.244C490.674 62.6035 490.546 62.0315 490.291 61.5281C490.036 61.0176 489.699 60.561 489.28 60.1582C488.861 59.7554 488.406 59.3952 487.916 59.0776L485.55 58.218C485.19 58.1708 484.843 58.1666 484.51 58.2055C484.169 58.235 483.868 58.3275 483.607 58.483C483.338 58.6292 483.126 58.8548 482.969 59.1597C482.812 59.4577 482.733 59.8504 482.733 60.3377C482.733 60.8668 482.838 61.3609 483.047 61.8199C483.25 62.2695 483.531 62.6816 483.891 63.056C484.245 63.4281 484.657 63.7589 485.128 64.0485C485.593 64.3287 486.09 64.5651 486.62 64.7577Z" fill="white"/>
        <path d="M479.182 49.52C479.049 49.52 478.942 49.6275 478.942 49.76C478.942 49.8926 479.049 50 479.182 50V49.52ZM506.828 50C506.96 50 507.068 49.8926 507.068 49.76C507.068 49.6275 506.96 49.52 506.828 49.52V50ZM479.182 77.8398C479.049 77.8398 478.942 77.9473 478.942 78.0798C478.942 78.2124 479.049 78.3198 479.182 78.3198V77.8398ZM506.828 78.3198C506.96 78.3198 507.068 78.2124 507.068 78.0798C507.068 77.9473 506.96 77.8398 506.828 77.8398V78.3198ZM489.957 60.3103L489.875 60.5359C489.881 60.5379 489.886 60.5397 489.892 60.5413L489.957 60.3103ZM476.942 55.5809H476.702C476.702 55.6818 476.766 55.772 476.86 55.8064L476.942 55.5809ZM476.942 53.6385L477.024 53.4129C476.951 53.3862 476.869 53.397 476.805 53.4419C476.741 53.4868 476.702 53.5602 476.702 53.6385H476.942ZM492.018 59.1169H492.258C492.258 59.016 492.195 58.9258 492.1 58.8913L492.018 59.1169ZM492.018 60.8922L491.953 61.1232C492.025 61.1436 492.103 61.1289 492.163 61.0836C492.223 61.0382 492.258 60.9674 492.258 60.8922H492.018ZM486.826 66.775L486.908 66.5494L486.908 66.5494L486.826 66.775ZM486.62 66.7001L486.538 66.9256L486.538 66.9256L486.62 66.7001ZM484.412 65.5843L484.276 65.7821L484.277 65.7828L484.412 65.5843ZM482.694 64.0516L482.51 64.2057L482.511 64.2068L482.694 64.0516ZM481.595 62.2423L481.817 62.1529L481.817 62.1521L481.595 62.2423ZM481.555 58.5312L481.767 58.6438L481.77 58.6395L481.555 58.5312ZM482.566 57.541L482.668 57.7586L482.673 57.7562L482.566 57.541ZM486.267 57.549L486.349 57.3234C486.341 57.3208 486.334 57.3185 486.326 57.3165L486.267 57.549ZM487.17 57.8771L487.27 57.6592C487.264 57.6564 487.258 57.6538 487.252 57.6515L487.17 57.8771ZM489.27 59.0894L489.13 59.284L489.131 59.2851L489.27 59.0894ZM490.86 60.5549L490.674 60.707L490.675 60.7081L490.86 60.5549ZM491.871 62.2798L492.096 62.1966L492.095 62.1948L491.871 62.2798ZM491.812 65.9552L492.018 66.079L492.018 66.0776L491.812 65.9552ZM490.683 66.9548L490.78 67.1744L490.783 67.1732L490.683 66.9548ZM488.976 67.2428L488.964 67.4825L488.967 67.4826L488.976 67.2428ZM486.62 64.7577L486.702 64.5321L486.702 64.5321L486.62 64.7577ZM486.826 64.8326L486.744 65.0581L486.744 65.0581L486.826 64.8326ZM488.318 65.2076L488.288 65.4458L488.292 65.4462L488.318 65.2076ZM490.379 64.4842L490.578 64.6179L490.581 64.6142L490.379 64.4842ZM490.291 61.5281L490.076 61.6354L490.077 61.6366L490.291 61.5281ZM487.916 59.0776L488.046 58.8761C488.031 58.8663 488.014 58.8582 487.997 58.852L487.916 59.0776ZM485.55 58.218L485.632 57.9925C485.616 57.9865 485.599 57.9823 485.581 57.9801L485.55 58.218ZM484.51 58.2055L484.53 58.4447L484.537 58.4438L484.51 58.2055ZM483.607 58.483L483.722 58.6939L483.729 58.6893L483.607 58.483ZM482.969 59.1597L483.181 59.2716L483.182 59.2696L482.969 59.1597ZM483.047 61.8199L483.266 61.7212L483.266 61.7203L483.047 61.8199ZM483.891 63.056L484.065 62.8907L484.064 62.8897L483.891 63.056ZM485.128 64.0485L485.002 64.2529L485.004 64.254L485.128 64.0485ZM502.981 35.5999L503.219 35.6282C503.231 35.53 503.181 35.4347 503.094 35.3882C503.007 35.3416 502.9 35.3532 502.825 35.4175L502.981 35.5999ZM501.298 37.0399L501.298 37.2799L501.298 37.2799L501.298 37.0399ZM499.375 35.5999L499.519 35.4078C499.442 35.3498 499.337 35.3439 499.253 35.393C499.17 35.442 499.124 35.5363 499.137 35.6321L499.375 35.5999ZM501.538 29.8398C501.538 29.7073 501.431 29.5998 501.298 29.5998C501.165 29.5998 501.058 29.7073 501.058 29.8398H501.538ZM499.375 92.2398L499.137 92.2075C499.124 92.3034 499.17 92.3977 499.253 92.4467C499.337 92.4958 499.442 92.4899 499.519 92.432L499.375 92.2398ZM502.981 92.2401L502.825 92.4224C502.9 92.4867 503.007 92.4983 503.094 92.4517C503.181 92.4052 503.231 92.3099 503.219 92.2117L502.981 92.2401ZM501.058 97.7598C501.058 97.8924 501.165 97.9998 501.298 97.9998C501.431 97.9998 501.538 97.8924 501.538 97.7598L501.058 97.7598ZM479.182 50H506.828V49.52H479.182V50ZM479.182 78.3198H506.828V77.8398H479.182V78.3198ZM490.039 60.0847L477.024 55.3553L476.86 55.8064L489.875 60.5359L490.039 60.0847ZM477.182 55.5809V53.6385H476.702V55.5809H477.182ZM476.86 53.864L491.936 59.3425L492.1 58.8913L477.024 53.4129L476.86 53.864ZM491.778 59.1169V60.8922H492.258V59.1169H491.778ZM492.083 60.6612L490.022 60.0793L489.892 60.5413L491.953 61.1232L492.083 60.6612ZM486.908 66.5494L486.702 66.4745L486.538 66.9256L486.744 67.0005L486.908 66.5494ZM486.702 66.4745C485.908 66.1859 485.19 65.8227 484.546 65.3858L484.277 65.7828C484.955 66.2438 485.709 66.6245 486.538 66.9256L486.702 66.4745ZM484.547 65.3864C483.896 64.939 483.34 64.4421 482.877 63.8964L482.511 64.2068C483.004 64.7879 483.592 65.3128 484.276 65.7821L484.547 65.3864ZM482.878 63.8975C482.415 63.3448 482.062 62.7633 481.817 62.1529L481.372 62.3317C481.637 62.9929 482.017 63.6175 482.51 64.2056L482.878 63.8975ZM481.817 62.1521C481.567 61.5347 481.442 60.9051 481.442 60.2617H480.962C480.962 60.9689 481.099 61.6597 481.372 62.3325L481.817 62.1521ZM481.442 60.2617C481.442 59.5755 481.556 59.0413 481.767 58.6438L481.343 58.4187C481.083 58.9082 480.962 59.5276 480.962 60.2617H481.442ZM481.77 58.6395C481.975 58.233 482.273 57.9423 482.668 57.7586L482.465 57.3235C481.97 57.5543 481.594 57.9238 481.341 58.4229L481.77 58.6395ZM482.673 57.7562C483.069 57.5604 483.559 57.4615 484.152 57.4712L484.16 56.9912C483.511 56.9807 482.941 57.0883 482.46 57.3259L482.673 57.7562ZM484.152 57.4712C484.751 57.4808 485.435 57.583 486.207 57.7814L486.326 57.3165C485.528 57.1114 484.805 57.0017 484.16 56.9912L484.152 57.4712ZM486.185 57.7745L487.088 58.1027L487.252 57.6515L486.349 57.3234L486.185 57.7745ZM487.069 58.095C487.835 58.4488 488.522 58.8454 489.13 59.284L489.41 58.8948C488.775 58.4361 488.061 58.0245 487.27 57.6592L487.069 58.095ZM489.131 59.2851C489.737 59.7156 490.251 60.1898 490.674 60.7069L491.046 60.4028C490.592 59.8494 490.046 59.3466 489.409 58.8938L489.131 59.2851ZM490.675 60.7081C491.097 61.2167 491.421 61.7688 491.647 62.3649L492.095 62.1948C491.85 61.5475 491.499 60.9496 491.045 60.4016L490.675 60.7081ZM491.646 62.3631C491.864 62.9535 491.974 63.5933 491.974 64.2844H492.454C492.454 63.5413 492.336 62.8447 492.096 62.1966L491.646 62.3631ZM491.974 64.2844C491.974 64.9137 491.847 65.4258 491.606 65.8328L492.018 66.0776C492.314 65.5797 492.454 64.9779 492.454 64.2844H491.974ZM491.606 65.8314C491.364 66.2345 491.025 66.5352 490.584 66.7365L490.783 67.1732C491.31 66.9327 491.724 66.5671 492.018 66.079L491.606 65.8314ZM490.586 66.7353C490.142 66.9316 489.61 67.0239 488.984 67.0029L488.967 67.4826C489.65 67.5055 490.256 67.4059 490.78 67.1744L490.586 66.7353ZM488.987 67.003C488.355 66.9731 487.663 66.8236 486.908 66.5494L486.744 67.0005C487.534 67.2874 488.274 67.4498 488.964 67.4825L488.987 67.003ZM486.538 64.9832L486.744 65.0581L486.908 64.607L486.702 64.5321L486.538 64.9832ZM486.744 65.0581C487.288 65.2557 487.803 65.3858 488.288 65.4458L488.347 64.9694C487.904 64.9146 487.424 64.7947 486.908 64.607L486.744 65.0581ZM488.292 65.4462C488.782 65.4995 489.226 65.4668 489.619 65.3386L489.47 64.8823C489.157 64.9846 488.783 65.0167 488.344 64.969L488.292 65.4462ZM489.619 65.3386C490.022 65.2071 490.345 64.9657 490.578 64.6179L490.18 64.3504C490.008 64.6071 489.774 64.7833 489.47 64.8823L489.619 65.3386ZM490.581 64.6142C490.811 64.2573 490.914 63.793 490.914 63.244H490.434C490.434 63.7394 490.34 64.1019 490.177 64.3542L490.581 64.6142ZM490.914 63.244C490.914 62.571 490.779 61.961 490.505 61.4196L490.077 61.6366C490.313 62.1021 490.434 62.6361 490.434 63.244H490.914ZM490.505 61.4207C490.238 60.8854 489.884 60.4066 489.446 59.9852L489.113 60.3311C489.513 60.7153 489.833 61.1499 490.076 61.6354L490.505 61.4207ZM489.446 59.9852C489.016 59.5717 488.549 59.202 488.046 58.8761L487.785 59.2791C488.263 59.5884 488.706 59.939 489.113 60.3311L489.446 59.9852ZM487.997 58.852L485.632 57.9925L485.468 58.4436L487.834 59.3032L487.997 58.852ZM485.581 57.9801C485.203 57.9305 484.837 57.9258 484.482 57.9671L484.537 58.4438C484.85 58.4074 485.177 58.4111 485.519 58.456L485.581 57.9801ZM484.489 57.9664C484.117 57.9986 483.781 58.1006 483.484 58.2767L483.729 58.6893C483.956 58.5544 484.222 58.4713 484.53 58.4446L484.489 57.9664ZM483.492 58.2723C483.176 58.4442 482.932 58.7076 482.755 59.0498L483.182 59.2696C483.32 59.0019 483.501 58.8142 483.722 58.6938L483.492 58.2723ZM482.756 59.0478C482.575 59.3923 482.493 59.8276 482.493 60.3377H482.973C482.973 59.8731 483.049 59.5231 483.181 59.2716L482.756 59.0478ZM482.493 60.3377C482.493 60.8995 482.605 61.4277 482.829 61.9195L483.266 61.7203C483.071 61.2941 482.973 60.8342 482.973 60.3377H482.493ZM482.829 61.9186C483.043 62.3945 483.34 62.8292 483.718 63.2223L484.064 62.8897C483.723 62.534 483.457 62.1445 483.266 61.7212L482.829 61.9186ZM483.717 63.2213C484.086 63.6096 484.515 63.9533 485.002 64.2529L485.254 63.844C484.799 63.5645 484.403 63.2466 484.065 62.8908L483.717 63.2213ZM485.004 64.254C485.483 64.5425 485.994 64.7855 486.538 64.9832L486.702 64.5321C486.186 64.3446 485.703 64.1148 485.252 63.8429L485.004 64.254ZM501.536 49.7882L503.219 35.6282L502.742 35.5715L501.06 49.7315L501.536 49.7882ZM502.825 35.4175L501.142 36.8575L501.454 37.2222L503.137 35.7822L502.825 35.4175ZM501.442 36.8478L499.519 35.4078L499.231 35.792L501.154 37.232L501.442 36.8478ZM499.137 35.6321L501.06 49.7922L501.536 49.7276L499.613 35.5676L499.137 35.6321ZM501.538 49.7599V29.8398H501.058V49.7599H501.538ZM502.74 36.0798H502.981V35.5998H502.74V36.0798ZM502.5 36.3198H502.981V35.8398H502.5V36.3198ZM502.26 36.5598H502.981V36.0798H502.26V36.5598ZM502.019 36.7998H502.981V36.3198H502.019V36.7998ZM501.779 37.0398H502.981V36.5598H501.779V37.0398ZM501.298 37.2799L502.981 37.2798L502.981 36.7998L501.298 36.7999L501.298 37.2799ZM501.298 48.3198H501.538V47.8398H501.298V48.3198ZM501.298 48.5598H501.538V48.0798H501.298V48.5598ZM501.298 48.7998H501.538V48.3198H501.298V48.7998ZM501.298 49.0398H501.538V48.5598H501.298V49.0398ZM501.298 49.2798H501.538V48.7998H501.298V49.2798ZM501.298 49.5198H501.538V49.0398H501.298V49.5198ZM501.298 49.7598H501.538V49.2798H501.298V49.7598ZM499.615 36.0798H499.856V35.5998H499.615V36.0798ZM499.615 36.3198H500.096V35.8398H499.615V36.3198ZM499.615 36.5598H500.337V36.0798H499.615V36.5598ZM499.615 36.7998H500.817V36.3198H499.615V36.7998ZM499.615 37.0398H501.058V36.5598H499.615V37.0398ZM499.615 37.2798L501.298 37.2799L501.298 36.7999L499.615 36.7998L499.615 37.2798ZM501.06 78.0475L499.137 92.2075L499.613 92.2721L501.536 78.1121L501.06 78.0475ZM499.519 92.432L501.442 90.9922L501.154 90.6079L499.231 92.0477L499.519 92.432ZM501.142 90.9824L502.825 92.4224L503.137 92.0577L501.454 90.6177L501.142 90.9824ZM503.219 92.2117L501.537 78.0515L501.06 78.1082L502.742 92.2684L503.219 92.2117ZM501.058 78.0798L501.058 97.7598L501.538 97.7598L501.538 78.0798L501.058 78.0798ZM499.615 91.04L501.298 91.04L501.298 90.56L499.615 90.56L499.615 91.04ZM499.615 91.28H501.058V90.8H499.615V91.28ZM499.615 91.52H500.817V91.04H499.615V91.52ZM499.615 91.76H500.337V91.28H499.615V91.76ZM499.615 92H500.096V91.52H499.615V92ZM499.615 92.24H499.856V91.76H499.615V92.24ZM501.298 78.5598H501.538V78.0798H501.298V78.5598ZM501.298 78.7998H501.538V78.3198H501.298V78.7998ZM501.298 79.0398H501.538V78.5598H501.298V79.0398ZM501.298 79.2798H501.538V78.7998H501.298V79.2798ZM501.298 79.5198H501.538V79.0398H501.298V79.5198ZM501.298 79.7598H501.538V79.2798H501.298V79.7598ZM501.298 79.9998H501.538V79.5198H501.298V79.9998ZM501.298 91.04L502.981 91.0398L502.981 90.5598L501.298 90.56L501.298 91.04ZM501.779 91.2798H502.981V90.7998H501.779V91.2798ZM502.019 91.5198H502.981V91.0398H502.019V91.5198ZM502.26 91.7598H502.981V91.2798H502.26V91.7598ZM502.5 91.9998H502.981V91.5198H502.5V91.9998ZM502.74 92.2398H502.981V91.7598H502.74V92.2398ZM501.058 49.7599L501.058 78.0798L501.538 78.0798L501.538 49.7599L501.058 49.7599ZM499.615 37.5198L502.981 37.5198L502.981 37.0398L499.615 37.0398L499.615 37.5198ZM499.856 37.7598L502.981 37.7598L502.981 37.2798L499.856 37.2798L499.856 37.7598ZM499.856 37.9998L502.74 37.9998L502.74 37.5198L499.856 37.5198L499.856 37.9998ZM499.856 38.2398L502.74 38.2398L502.74 37.7598L499.856 37.7598L499.856 38.2398ZM499.856 38.4798L502.74 38.4798L502.74 37.9998L499.856 37.9998L499.856 38.4798ZM499.856 38.7198L502.74 38.7198L502.74 38.2398L499.856 38.2398L499.856 38.7198ZM499.856 38.9598L502.74 38.9598L502.74 38.4798L499.856 38.4798L499.856 38.9598ZM499.856 39.1998L502.74 39.1998L502.74 38.7198L499.856 38.7198L499.856 39.1998ZM500.096 39.4398L502.74 39.4398L502.74 38.9598L500.096 38.9598L500.096 39.4398ZM500.096 39.6798L502.74 39.6798L502.74 39.1998L500.096 39.1998L500.096 39.6798ZM500.096 39.9198L502.5 39.9198L502.5 39.4398L500.096 39.4398L500.096 39.9198ZM500.096 40.1598L502.5 40.1598L502.5 39.6798L500.096 39.6798L500.096 40.1598ZM500.096 40.3998L502.5 40.3998L502.5 39.9198L500.096 39.9198L500.096 40.3998ZM500.096 40.6398L502.5 40.6398L502.5 40.1598L500.096 40.1598L500.096 40.6398ZM500.096 40.8798L502.5 40.8798L502.5 40.3998L500.096 40.3998L500.096 40.8798ZM500.096 41.1198L502.5 41.1198L502.5 40.6398L500.096 40.6398L500.096 41.1198ZM500.337 41.3598L502.5 41.3598L502.5 40.8798L500.337 40.8798L500.337 41.3598ZM500.337 41.5998L502.5 41.5998L502.5 41.1198L500.337 41.1198L500.337 41.5998ZM500.337 41.8398L502.5 41.8398L502.5 41.3598L500.337 41.3598L500.337 41.8398ZM500.337 42.0798L502.26 42.0798L502.26 41.5998L500.337 41.5998L500.337 42.0798ZM500.337 42.3198L502.26 42.3198L502.26 41.8398L500.337 41.8398L500.337 42.3198ZM500.337 42.5598L502.26 42.5598L502.26 42.0798L500.337 42.0798L500.337 42.5598ZM500.337 42.7998L502.26 42.7998L502.26 42.3198L500.337 42.3198L500.337 42.7998ZM500.577 43.0398L502.26 43.0398L502.26 42.5598L500.577 42.5598L500.577 43.0398ZM500.577 43.2798L502.26 43.2798L502.26 42.7998L500.577 42.7998L500.577 43.2798ZM500.577 43.5198L502.26 43.5198L502.26 43.0398L500.577 43.0398L500.577 43.5198ZM500.577 43.7598L502.26 43.7598L502.26 43.2798L500.577 43.2798L500.577 43.7598ZM500.577 43.9998L502.019 43.9998L502.019 43.5198L500.577 43.5198L500.577 43.9998ZM500.577 44.2398L502.019 44.2398L502.019 43.7598L500.577 43.7598L500.577 44.2398ZM500.577 44.4798L502.019 44.4798L502.019 43.9998L500.577 43.9998L500.577 44.4798ZM500.817 44.7198L502.019 44.7198L502.019 44.2398L500.817 44.2398L500.817 44.7198ZM500.817 44.9598L502.019 44.9598L502.019 44.4798L500.817 44.4798L500.817 44.9598ZM500.817 45.1998L502.019 45.1998L502.019 44.7198L500.817 44.7198L500.817 45.1998ZM500.817 45.4398L502.019 45.4398L502.019 44.9598L500.817 44.9598L500.817 45.4398ZM500.817 45.6798L502.019 45.6798L502.019 45.1998L500.817 45.1998L500.817 45.6798ZM500.817 45.9198L502.019 45.9198L502.019 45.4398L500.817 45.4398L500.817 45.9198ZM500.817 46.1598L501.779 46.1598L501.779 45.6798L500.817 45.6798L500.817 46.1598ZM500.817 46.3998L501.779 46.3998L501.779 45.9198L500.817 45.9198L500.817 46.3998ZM501.058 46.6398L501.779 46.6398L501.779 46.1598L501.058 46.1598L501.058 46.6398ZM501.058 46.8798L501.779 46.8798L501.779 46.3998L501.058 46.3998L501.058 46.8798ZM501.058 47.1198L501.779 47.1198L501.779 46.6398L501.058 46.6398L501.058 47.1198ZM501.058 47.3598L501.779 47.3598L501.779 46.8798L501.058 46.8798L501.058 47.3598ZM501.058 47.5998L501.779 47.5998L501.779 47.1198L501.058 47.1198L501.058 47.5998ZM501.058 47.8398L501.779 47.8398L501.779 47.3598L501.058 47.3598L501.058 47.8398ZM501.058 48.0798L501.538 48.0798L501.538 47.5998L501.058 47.5998L501.058 48.0798ZM501.058 80.24L501.538 80.2398L501.538 79.7598L501.058 79.76L501.058 80.24ZM501.058 80.48L501.779 80.4798L501.779 79.9998L501.058 80L501.058 80.48ZM501.058 80.72L501.779 80.7198L501.779 80.2398L501.058 80.24L501.058 80.72ZM501.058 80.96L501.779 80.9598L501.779 80.4798L501.058 80.48L501.058 80.96ZM501.058 81.2L501.779 81.1998L501.779 80.7198L501.058 80.72L501.058 81.2ZM501.058 81.44L501.779 81.4398L501.779 80.9598L501.058 80.96L501.058 81.44ZM501.058 81.68L501.779 81.6798L501.779 81.1998L501.058 81.2L501.058 81.68ZM500.817 81.92L501.779 81.9198L501.779 81.4398L500.817 81.44L500.817 81.92ZM500.817 82.16L501.779 82.1598L501.779 81.6798L500.817 81.68L500.817 82.16ZM500.817 82.4L502.019 82.3998L502.019 81.9198L500.817 81.92L500.817 82.4ZM500.817 82.64L502.019 82.6398L502.019 82.1598L500.817 82.16L500.817 82.64ZM500.817 82.88L502.019 82.8798L502.019 82.3998L500.817 82.4L500.817 82.88ZM500.817 83.12L502.019 83.1198L502.019 82.6398L500.817 82.64L500.817 83.12ZM500.817 83.36L502.019 83.3598L502.019 82.8798L500.817 82.88L500.817 83.36ZM500.817 83.6L502.019 83.5998L502.019 83.1198L500.817 83.12L500.817 83.6ZM500.577 83.84L502.019 83.8398L502.019 83.3598L500.577 83.36L500.577 83.84ZM500.577 84.08L502.019 84.0798L502.019 83.5998L500.577 83.6L500.577 84.08ZM500.577 84.32L502.019 84.3198L502.019 83.8398L500.577 83.84L500.577 84.32ZM500.577 84.56L502.26 84.5598L502.26 84.0798L500.577 84.08L500.577 84.56ZM500.577 84.8L502.26 84.7998L502.26 84.3198L500.577 84.32L500.577 84.8ZM500.577 85.04L502.26 85.0398L502.26 84.5598L500.577 84.56L500.577 85.04ZM500.577 85.28L502.26 85.2798L502.26 84.7998L500.577 84.8L500.577 85.28ZM500.337 85.52L502.26 85.5198L502.26 85.0398L500.337 85.04L500.337 85.52ZM500.337 85.76L502.26 85.7598L502.26 85.2798L500.337 85.28L500.337 85.76ZM500.337 86L502.26 85.9998L502.26 85.5198L500.337 85.52L500.337 86ZM500.337 86.24L502.26 86.2398L502.26 85.7598L500.337 85.76L500.337 86.24ZM500.337 86.48L502.5 86.4798L502.5 85.9998L500.337 86L500.337 86.48ZM500.337 86.72L502.5 86.7198L502.5 86.2398L500.337 86.24L500.337 86.72ZM500.337 86.96L502.5 86.9598L502.5 86.4798L500.337 86.48L500.337 86.96ZM500.096 87.2L502.5 87.1998L502.5 86.7198L500.096 86.72L500.096 87.2ZM500.096 87.44L502.5 87.4398L502.5 86.9598L500.096 86.96L500.096 87.44ZM500.096 87.68L502.5 87.6798L502.5 87.1998L500.096 87.2L500.096 87.68ZM500.096 87.92L502.5 87.9198L502.5 87.4398L500.096 87.44L500.096 87.92ZM500.096 88.16L502.5 88.1598L502.5 87.6798L500.096 87.68L500.096 88.16ZM500.096 88.4L502.5 88.3998L502.5 87.9198L500.096 87.92L500.096 88.4ZM500.096 88.64L502.74 88.6398L502.74 88.1598L500.096 88.16L500.096 88.64ZM500.096 88.88L502.74 88.8798L502.74 88.3998L500.096 88.4L500.096 88.88ZM499.856 89.12L502.74 89.1198L502.74 88.6398L499.856 88.64L499.856 89.12ZM499.856 89.36L502.74 89.3598L502.74 88.8798L499.856 88.88L499.856 89.36ZM499.856 89.6L502.74 89.5998L502.74 89.1198L499.856 89.12L499.856 89.6ZM499.856 89.84L502.74 89.8398L502.74 89.3598L499.856 89.36L499.856 89.84ZM499.856 90.08L502.74 90.0798L502.74 89.5998L499.856 89.6L499.856 90.08ZM499.856 90.32L502.74 90.3198L502.74 89.8398L499.856 89.84L499.856 90.32ZM499.856 90.56L502.981 90.5598L502.981 90.0798L499.856 90.08L499.856 90.56ZM499.615 90.8L502.981 90.7998L502.981 90.3198L499.615 90.32L499.615 90.8Z" fill="white"/>
    </g>
    <!--    8 dH-->
    <g class="group">
    </g>
    <!--    9 d1-->
    <g class="group">
    </g>
    <!--    10 d2-->
    <g class="group">
    </g>
    <!--    11 L-->
    <g class="group">
        <path d="M420.201 107.25L419.639 108.791H412.036L412.598 107.25H420.201ZM417.642 94.5057L412.433 108.791H410.418L415.626 94.5057H417.642Z" fill="white"/>
        <path d="M355.134 86.24C355.134 86.1074 355.026 86 354.894 86C354.761 86 354.654 86.1074 354.654 86.24H355.134ZM354.654 123.68C354.654 123.813 354.761 123.92 354.894 123.92C355.026 123.92 355.134 123.813 355.134 123.68H354.654ZM473.411 86.24C473.411 86.1074 473.303 86 473.171 86C473.038 86 472.931 86.1074 472.931 86.24H473.411ZM472.931 123.68C472.931 123.813 473.038 123.92 473.171 123.92C473.303 123.92 473.411 123.813 473.411 123.68H472.931ZM420.201 107.25L420.426 107.333C420.453 107.259 420.442 107.177 420.397 107.113C420.352 107.049 420.279 107.01 420.201 107.01V107.25ZM419.639 108.791V109.031C419.74 109.031 419.83 108.968 419.864 108.873L419.639 108.791ZM412.036 108.791L411.811 108.709C411.784 108.782 411.795 108.864 411.84 108.928C411.885 108.993 411.958 109.031 412.036 109.031V108.791ZM412.598 107.25V107.01C412.497 107.01 412.407 107.073 412.373 107.168L412.598 107.25ZM417.642 94.5057L417.867 94.5879C417.894 94.5144 417.883 94.4323 417.838 94.3681C417.793 94.304 417.72 94.2657 417.642 94.2657V94.5057ZM412.433 108.791V109.031C412.534 109.031 412.624 108.968 412.659 108.873L412.433 108.791ZM410.418 108.791L410.192 108.709C410.165 108.782 410.176 108.864 410.221 108.928C410.266 108.993 410.339 109.031 410.418 109.031V108.791ZM415.626 94.5057V94.2657C415.525 94.2657 415.435 94.3288 415.401 94.4235L415.626 94.5057ZM354.894 117.92L354.861 117.682C354.742 117.698 354.654 117.8 354.654 117.92C354.654 118.04 354.742 118.142 354.861 118.158L354.894 117.92ZM369.077 116L369.281 116.127C369.33 116.048 369.329 115.948 369.279 115.87C369.228 115.792 369.137 115.75 369.045 115.762L369.077 116ZM369.078 119.84L369.046 120.078C369.138 120.09 369.229 120.048 369.28 119.97C369.33 119.892 369.331 119.791 369.281 119.713L369.078 119.84ZM473.171 117.92L473.203 118.158C473.322 118.142 473.411 118.04 473.411 117.92C473.411 117.8 473.322 117.698 473.203 117.682L473.171 117.92ZM458.987 119.84L458.795 119.696C458.737 119.773 458.731 119.878 458.78 119.961C458.829 120.045 458.924 120.091 459.019 120.078L458.987 119.84ZM458.987 116L459.019 115.762C458.924 115.749 458.829 115.795 458.78 115.879C458.731 115.962 458.737 116.067 458.795 116.144L458.987 116ZM354.654 86.24V123.68H355.134V86.24H354.654ZM472.931 86.24V123.68H473.411V86.24H472.931ZM419.975 107.168L419.413 108.709L419.864 108.873L420.426 107.333L419.975 107.168ZM419.639 108.551H412.036V109.031H419.639V108.551ZM412.262 108.873L412.824 107.333L412.373 107.168L411.811 108.709L412.262 108.873ZM412.598 107.49H420.201V107.01H412.598V107.49ZM417.416 94.4235L412.208 108.709L412.659 108.873L417.867 94.5879L417.416 94.4235ZM412.433 108.551H410.418V109.031H412.433V108.551ZM410.643 108.873L415.852 94.5879L415.401 94.4235L410.192 108.709L410.643 108.873ZM415.626 94.7457H417.642V94.2657H415.626V94.7457ZM354.926 118.158L369.109 116.238L369.045 115.762L354.861 117.682L354.926 118.158ZM368.874 115.873L367.673 117.793L368.079 118.047L369.281 116.127L368.874 115.873ZM367.673 118.047L368.875 119.967L369.281 119.713L368.079 117.793L367.673 118.047ZM369.11 119.602L354.926 117.682L354.861 118.158L369.046 120.078L369.11 119.602ZM367.395 116.48H369.078V116H367.395V116.48ZM365.712 116.72H368.837V116.24H365.712V116.72ZM363.789 116.96H368.837V116.48H363.789V116.96ZM362.106 117.2H368.597V116.72H362.106V117.2ZM360.423 117.44H368.357V116.96H360.423V117.44ZM358.5 117.68H368.357V117.2H358.5V117.68ZM356.817 117.92H368.116V117.44H356.817V117.92ZM354.894 118.16H367.876V117.68H354.894V118.16ZM356.817 118.4H368.116V117.92H356.817V118.4ZM358.5 118.64H368.356V118.16H358.5V118.64ZM360.423 118.88H368.356V118.4H360.423V118.88ZM362.106 119.12H368.596V118.64H362.106V119.12ZM363.788 119.36H368.837V118.88H363.788V119.36ZM365.712 119.6H368.837V119.12H365.712V119.6ZM367.394 119.84H369.077V119.36H367.394V119.84ZM473.139 117.682L458.955 119.602L459.019 120.078L473.203 118.158L473.139 117.682ZM459.179 119.984L460.622 118.064L460.238 117.776L458.795 119.696L459.179 119.984ZM460.622 117.776L459.179 115.856L458.795 116.144L460.238 118.064L460.622 117.776ZM458.955 116.238L473.139 118.158L473.203 117.682L459.019 115.762L458.955 116.238ZM460.43 118.16H473.171V117.68H460.43V118.16ZM460.431 118.4H471.489V117.92H460.431V118.4ZM460.19 118.64H469.806V118.16H460.19V118.64ZM459.95 118.88H467.883V118.4H459.95V118.88ZM459.709 119.12H466.2V118.64H459.709V119.12ZM459.709 119.36H464.517V118.88H459.709V119.36ZM459.469 119.6H462.594V119.12H459.469V119.6ZM459.229 119.84H460.911V119.36H459.229V119.84ZM459.229 116.48H460.911V116H459.229V116.48ZM459.469 116.72H462.594V116.24H459.469V116.72ZM459.709 116.96H464.517V116.48H459.709V116.96ZM459.709 117.2H466.2V116.72H459.709V117.2ZM459.95 117.44H467.883V116.96H459.95V117.44ZM460.19 117.68H469.806V117.2H460.19V117.68ZM460.431 117.92H471.489V117.44H460.431V117.92ZM354.894 118.16L473.171 118.16L473.171 117.68L354.894 117.68L354.894 118.16Z" fill="white"/>
        <path d="M113.524 107.25L112.962 108.791H105.36L105.921 107.25H113.524ZM110.965 94.5057L105.756 108.791H103.741L108.949 94.5057H110.965Z" fill="white"/>
        <path d="M48.6228 86.24C48.6228 86.1074 48.5154 86 48.3828 86C48.2503 86 48.1428 86.1074 48.1428 86.24H48.6228ZM48.1428 123.68C48.1428 123.813 48.2503 123.92 48.3828 123.92C48.5154 123.92 48.6228 123.813 48.6228 123.68H48.1428ZM166.66 86.24C166.66 86.1074 166.552 86 166.42 86C166.287 86 166.18 86.1074 166.18 86.24H166.66ZM166.18 123.68C166.18 123.813 166.287 123.92 166.42 123.92C166.552 123.92 166.66 123.813 166.66 123.68H166.18ZM113.524 107.25L113.749 107.333C113.776 107.259 113.765 107.177 113.72 107.113C113.675 107.049 113.602 107.01 113.524 107.01V107.25ZM112.962 108.791V109.031C113.063 109.031 113.153 108.968 113.188 108.873L112.962 108.791ZM105.36 108.791L105.134 108.709C105.107 108.782 105.118 108.864 105.163 108.928C105.208 108.993 105.281 109.031 105.36 109.031V108.791ZM105.921 107.25V107.01C105.82 107.01 105.73 107.073 105.696 107.168L105.921 107.25ZM110.965 94.5057L111.19 94.5879C111.217 94.5144 111.206 94.4323 111.162 94.3681C111.117 94.304 111.043 94.2657 110.965 94.2657V94.5057ZM105.756 108.791V109.031C105.857 109.031 105.947 108.968 105.982 108.873L105.756 108.791ZM103.741 108.791L103.516 108.709C103.489 108.782 103.499 108.864 103.544 108.928C103.589 108.993 103.663 109.031 103.741 109.031V108.791ZM108.949 94.5057V94.2657C108.849 94.2657 108.759 94.3288 108.724 94.4235L108.949 94.5057ZM48.3828 117.92L48.3506 117.682C48.2316 117.698 48.1428 117.8 48.1428 117.92C48.1428 118.04 48.2316 118.142 48.3506 118.158L48.3828 117.92ZM62.5665 116L62.7583 116.144C62.8165 116.067 62.8224 115.962 62.7735 115.879C62.7245 115.795 62.6302 115.749 62.5343 115.762L62.5665 116ZM62.5664 119.84L62.5342 120.078C62.6301 120.091 62.7245 120.045 62.7734 119.961C62.8224 119.878 62.8164 119.773 62.7583 119.696L62.5664 119.84ZM166.419 117.92L166.451 118.158C166.57 118.142 166.659 118.04 166.659 117.92C166.659 117.8 166.57 117.698 166.451 117.682L166.419 117.92ZM152.235 119.84L152.043 119.696C151.985 119.773 151.979 119.878 152.028 119.961C152.077 120.045 152.172 120.091 152.268 120.078L152.235 119.84ZM152.235 116L152.268 115.762C152.172 115.749 152.077 115.795 152.028 115.879C151.979 115.962 151.985 116.067 152.043 116.144L152.235 116ZM48.1428 86.24V123.68H48.6228V86.24H48.1428ZM166.18 86.24V123.68H166.66V86.24H166.18ZM113.298 107.168L112.737 108.709L113.188 108.873L113.749 107.333L113.298 107.168ZM112.962 108.551H105.36V109.031H112.962V108.551ZM105.585 108.873L106.147 107.333L105.696 107.168L105.134 108.709L105.585 108.873ZM105.921 107.49H113.524V107.01H105.921V107.49ZM110.739 94.4235L105.531 108.709L105.982 108.873L111.19 94.5879L110.739 94.4235ZM105.756 108.551H103.741V109.031H105.756V108.551ZM103.966 108.873L109.175 94.5879L108.724 94.4235L103.516 108.709L103.966 108.873ZM108.949 94.7457H110.965V94.2657H108.949V94.7457ZM48.415 118.158L62.5987 116.238L62.5343 115.762L48.3506 117.682L48.415 118.158ZM62.3746 115.856L60.9321 117.776L61.3159 118.064L62.7583 116.144L62.3746 115.856ZM60.9321 118.064L62.3745 119.984L62.7583 119.696L61.3159 117.776L60.9321 118.064ZM62.5986 119.602L48.415 117.682L48.3506 118.158L62.5342 120.078L62.5986 119.602ZM60.8833 116.48H62.5661V116H60.8833V116.48ZM59.2005 116.72H62.3257V116.24H59.2005V116.72ZM57.2773 116.96H62.0853V116.48H57.2773V116.96ZM55.5945 117.2H61.8449V116.72H55.5945V117.2ZM53.9117 117.44H61.8449V116.96H53.9117V117.44ZM51.9885 117.68H61.6045V117.2H51.9885V117.68ZM50.3057 117.92H61.3641V117.44H50.3057V117.92ZM48.3828 118.16H61.124V117.68H48.3828V118.16ZM50.306 118.4H61.3645V117.92H50.306V118.4ZM51.9888 118.64H61.6049V118.16H51.9888V118.64ZM53.912 118.88H61.8453V118.4H53.912V118.88ZM55.5948 119.12H61.8453V118.64H55.5948V119.12ZM57.2776 119.36H62.0857V118.88H57.2776V119.36ZM59.2009 119.6H62.3261V119.12H59.2009V119.6ZM60.8837 119.84H62.5665V119.36H60.8837V119.84ZM166.387 117.682L152.203 119.602L152.268 120.078L166.451 118.158L166.387 117.682ZM152.427 119.984L153.87 118.064L153.486 117.776L152.043 119.696L152.427 119.984ZM153.87 117.776L152.427 115.856L152.043 116.144L153.486 118.064L153.87 117.776ZM152.203 116.238L166.387 118.158L166.451 117.682L152.268 115.762L152.203 116.238ZM153.678 118.16H166.419V117.68H153.678V118.16ZM153.679 118.4H164.737V117.92H153.679V118.4ZM153.438 118.64H163.054V118.16H153.438V118.64ZM153.198 118.88H161.131V118.4H153.198V118.88ZM152.957 119.12H159.448V118.64H152.957V119.12ZM152.957 119.36H157.765V118.88H152.957V119.36ZM152.717 119.6H155.842V119.12H152.717V119.6ZM152.477 119.84H154.159V119.36H152.477V119.84ZM152.477 116.48H154.159V116H152.477V116.48ZM152.717 116.72H155.842V116.24H152.717V116.72ZM152.957 116.96H157.765V116.48H152.957V116.96ZM152.957 117.2H159.448V116.72H152.957V117.2ZM153.198 117.44H161.131V116.96H153.198V117.44ZM153.438 117.68H163.054V117.2H153.438V117.68ZM153.679 117.92H164.737V117.44H153.679V117.92ZM48.3828 118.16L166.419 118.16L166.419 117.68L48.3828 117.68L48.3828 118.16Z" fill="white"/>
    </g>
    <!--    12 L1-->
    <g class="group">
    </g>
    <!--    13 L2-->
    <g class="group">
    </g>
    <!--    14 S-->
    <g class="group">
        <path d="M28.6593 20.046C28.3976 19.9509 28.1555 19.9255 27.933 19.97C27.704 20.0051 27.4979 20.1774 27.3147 20.4867C27.1249 20.7868 26.9614 21.2843 26.824 21.9793C26.6996 22.5607 26.5524 23.0746 26.3823 23.521C26.2122 23.9604 26.006 24.3137 25.7639 24.5808C25.5218 24.8409 25.2372 25.0055 24.91 25.0746C24.5829 25.1436 24.2001 25.0985 23.7617 24.9392C23.3429 24.787 22.947 24.5457 22.5741 24.2152C22.2011 23.8778 21.8707 23.4758 21.5828 23.0091C21.2949 22.5355 21.0691 22.0114 20.9055 21.4368C20.7419 20.8622 20.6602 20.2581 20.6602 19.6245C20.6602 18.7195 20.8107 18.0014 21.1116 17.4703C21.4126 16.9392 21.815 16.5946 22.3189 16.4365C22.8162 16.2761 23.3691 16.3065 23.9776 16.5276V18.4595C23.6832 18.3525 23.3985 18.3431 23.1237 18.4312C22.8423 18.51 22.6101 18.6936 22.4268 18.9821C22.2436 19.2636 22.152 19.6584 22.152 20.1667C22.152 20.7027 22.2305 21.1664 22.3876 21.5576C22.5381 21.9395 22.7311 22.2499 22.9667 22.4886C23.2022 22.7204 23.4509 22.8839 23.7126 22.979C23.9089 23.0503 24.0856 23.0797 24.2426 23.0672C24.3931 23.0453 24.5338 22.9641 24.6647 22.8237C24.789 22.6809 24.9068 22.4592 25.018 22.1584C25.1292 21.8577 25.2405 21.463 25.3517 20.9743C25.548 20.1197 25.7836 19.443 26.0584 18.9441C26.3332 18.4453 26.6702 18.1222 27.0693 17.9748C27.4685 17.8275 27.9527 17.8572 28.5219 18.0641C28.9865 18.2329 29.4118 18.4919 29.7979 18.841C30.1839 19.1832 30.5176 19.6004 30.799 20.0925C31.0738 20.5753 31.2898 21.1132 31.4468 21.7064C31.5973 22.2902 31.6725 22.9128 31.6725 23.5741C31.6725 24.5697 31.5057 25.3515 31.172 25.9194C30.8383 26.4874 30.4064 26.8526 29.8764 27.0151C29.3464 27.1775 28.7869 27.1517 28.198 26.9377V24.9954C28.6953 25.1482 29.0912 25.1389 29.3857 24.9674C29.6736 24.7936 29.8797 24.5274 30.004 24.1687C30.1218 23.8077 30.1807 23.4288 30.1807 23.032C30.1807 22.5029 30.1152 22.037 29.9844 21.6344C29.8535 21.2248 29.6736 20.8845 29.4445 20.6133C29.2155 20.3421 28.9538 20.153 28.6593 20.046Z" fill="white"/>
        <path d="M43.5746 50C43.7071 50 43.8146 49.8926 43.8146 49.76C43.8146 49.6275 43.7071 49.52 43.5746 49.52V50ZM34.9201 49.52C34.7876 49.52 34.6801 49.6275 34.6801 49.76C34.6801 49.8926 34.7876 50 34.9201 50V49.52ZM43.5746 52.6399C43.7071 52.6399 43.8146 52.5325 43.8146 52.3999C43.8146 52.2674 43.7071 52.1599 43.5746 52.1599V52.6399ZM34.9201 52.1599C34.7876 52.1599 34.6801 52.2674 34.6801 52.3999C34.6801 52.5325 34.7876 52.6399 34.9201 52.6399V52.1599ZM40.9296 11.1199C40.9296 10.9873 40.8222 10.8799 40.6896 10.8799C40.5571 10.8799 40.4496 10.9873 40.4496 11.1199H40.9296ZM28.6593 20.046L28.5774 20.2715L28.5774 20.2715L28.6593 20.046ZM27.933 19.97L27.9695 20.2075L27.9801 20.2053L27.933 19.97ZM27.3147 20.4867L27.5176 20.6151L27.5212 20.609L27.3147 20.4867ZM26.824 21.9793L27.0587 22.0295L27.0594 22.0258L26.824 21.9793ZM26.3823 23.521L26.6061 23.6076L26.6065 23.6064L26.3823 23.521ZM25.7639 24.5808L25.9396 24.7443L25.9418 24.7419L25.7639 24.5808ZM23.7617 24.9392L23.8437 24.7137L23.7617 24.9392ZM22.5741 24.2152L22.4131 24.3932L22.4149 24.3949L22.5741 24.2152ZM21.5828 23.0091L21.3777 23.1338L21.3785 23.1352L21.5828 23.0091ZM22.3189 16.4365L22.3907 16.6655L22.3926 16.6649L22.3189 16.4365ZM23.9776 16.5276H24.2176C24.2176 16.4266 24.1545 16.3365 24.0596 16.302L23.9776 16.5276ZM23.9776 18.4595L23.8956 18.6851C23.9692 18.7118 24.0512 18.701 24.1153 18.6561C24.1794 18.6112 24.2176 18.5378 24.2176 18.4595H23.9776ZM23.1237 18.4312L23.1885 18.6625L23.197 18.6597L23.1237 18.4312ZM22.4268 18.9821L22.628 19.113L22.6294 19.1107L22.4268 18.9821ZM22.3876 21.5576L22.6109 21.4696L22.6103 21.4682L22.3876 21.5576ZM22.9667 22.4886L22.7958 22.6572L22.7983 22.6597L22.9667 22.4886ZM23.7126 22.979L23.6306 23.2046L23.6306 23.2046L23.7126 22.979ZM24.2426 23.0672L24.2617 23.3064C24.2669 23.306 24.272 23.3054 24.2772 23.3047L24.2426 23.0672ZM24.6647 22.8237L24.8403 22.9874L24.8457 22.9813L24.6647 22.8237ZM25.3517 20.9743L25.1178 20.9206L25.1177 20.9211L25.3517 20.9743ZM28.5219 18.0641L28.6039 17.8385L28.6039 17.8385L28.5219 18.0641ZM29.7979 18.841L29.6369 19.0191L29.6387 19.0207L29.7979 18.841ZM30.799 20.0925L31.0076 19.9738L31.0074 19.9734L30.799 20.0925ZM31.4468 21.7064L31.6792 21.6465L31.6788 21.6449L31.4468 21.7064ZM28.198 26.9377H27.958C27.958 27.0387 28.0212 27.1288 28.1161 27.1633L28.198 26.9377ZM28.198 24.9954L28.2686 24.766C28.1958 24.7436 28.1167 24.7571 28.0554 24.8023C27.9942 24.8476 27.958 24.9192 27.958 24.9954H28.198ZM29.3857 24.9674L29.5065 25.1749L29.5097 25.1729L29.3857 24.9674ZM30.004 24.1687L30.2308 24.2474L30.2322 24.2432L30.004 24.1687ZM29.9844 21.6344L29.7558 21.7075L29.7561 21.7086L29.9844 21.6344ZM42.6128 35.5999L42.8507 35.6322C42.8637 35.5363 42.8179 35.442 42.7345 35.393C42.6511 35.3439 42.5464 35.3498 42.469 35.4077L42.6128 35.5999ZM40.6896 37.0399L40.6896 37.2799L40.6896 37.2799L40.6896 37.0399ZM38.7668 35.5999L38.9107 35.4078C38.8332 35.3498 38.7286 35.3439 38.6452 35.393C38.5618 35.442 38.516 35.5363 38.529 35.6321L38.7668 35.5999ZM40.9296 29.8398C40.9296 29.7073 40.8222 29.5998 40.6896 29.5998C40.5571 29.5998 40.4496 29.7073 40.4496 29.8398H40.9296ZM38.7668 66.7999L38.5289 66.7681C38.5161 66.8639 38.562 66.958 38.6454 67.0069C38.7287 67.0558 38.8333 67.0499 38.9106 66.992L38.7668 66.7999ZM42.6128 66.7999L42.469 66.992C42.5463 67.0499 42.6509 67.0558 42.7343 67.0069C42.8176 66.958 42.8635 66.8639 42.8507 66.7681L42.6128 66.7999ZM40.4496 72.3199C40.4496 72.4524 40.5571 72.5599 40.6896 72.5599C40.8222 72.5599 40.9296 72.4525 40.9296 72.3199L40.4496 72.3199ZM43.5746 49.52H34.9201V50H43.5746V49.52ZM43.5746 52.1599H34.9201V52.6399H43.5746V52.1599ZM28.7413 19.8204C28.4477 19.7137 28.1604 19.6798 27.886 19.7347L27.9801 20.2053C28.1506 20.1713 28.3476 20.188 28.5774 20.2715L28.7413 19.8204ZM27.8967 19.7328C27.5648 19.7837 27.3077 20.0276 27.1082 20.3645L27.5212 20.609C27.6881 20.3272 27.8432 20.2266 27.9694 20.2072L27.8967 19.7328ZM27.1119 20.3585C26.8973 20.6977 26.7271 21.2318 26.5885 21.9327L27.0594 22.0258C27.1956 21.3368 27.3526 20.8759 27.5175 20.615L27.1119 20.3585ZM26.5893 21.9291C26.4669 22.5013 26.3229 23.003 26.158 23.4355L26.6065 23.6064C26.7819 23.1462 26.9323 22.6201 27.0586 22.0295L26.5893 21.9291ZM26.1585 23.4343C25.9959 23.8543 25.8034 24.1799 25.5861 24.4196L25.9418 24.7419C26.2087 24.4475 26.4284 24.0665 26.6061 23.6076L26.1585 23.4343ZM25.5883 24.4172C25.3776 24.6436 25.1361 24.7815 24.8604 24.8397L24.9596 25.3094C25.3383 25.2294 25.6661 25.0382 25.9396 24.7443L25.5883 24.4172ZM24.8604 24.8397C24.5912 24.8966 24.2559 24.8634 23.8437 24.7137L23.6797 25.1648C24.1443 25.3336 24.5745 25.3907 24.9596 25.3094L24.8604 24.8397ZM23.8437 24.7137C23.4564 24.5729 23.0863 24.3484 22.7332 24.0356L22.4149 24.3949C22.8078 24.743 23.2294 25.0011 23.6797 25.1648L23.8437 24.7137ZM22.7351 24.0373C22.3804 23.7163 22.0641 23.3322 21.787 22.8831L21.3785 23.1352C21.6772 23.6193 22.0219 24.0393 22.4131 24.3932L22.7351 24.0373ZM21.7878 22.8845C21.512 22.4306 21.2945 21.9266 21.1364 21.3711L20.6747 21.5025C20.8437 22.0962 21.0778 22.6404 21.3777 23.1338L21.7878 22.8845ZM21.1364 21.3711C20.9792 20.8191 20.9002 20.2372 20.9002 19.6245H20.4202C20.4202 20.279 20.5047 20.9052 20.6747 21.5025L21.1364 21.3711ZM20.9002 19.6245C20.9002 18.7424 21.0474 18.0703 21.3204 17.5886L20.9028 17.3519C20.5739 17.9325 20.4202 18.6966 20.4202 19.6245H20.9002ZM21.3204 17.5886C21.5965 17.1015 21.9539 16.8025 22.3907 16.6655L22.2471 16.2075C21.6762 16.3866 21.2288 16.7768 20.9028 17.3519L21.3204 17.5886ZM22.3926 16.6649C22.8279 16.5245 23.325 16.5458 23.8956 16.7532L24.0596 16.302C23.4132 16.0671 22.8044 16.0277 22.2452 16.2081L22.3926 16.6649ZM23.7376 16.5276V18.4595H24.2176V16.5276H23.7376ZM24.0596 18.234C23.7197 18.1104 23.3803 18.0969 23.0504 18.2026L23.197 18.6597C23.4167 18.5893 23.6466 18.5946 23.8956 18.6851L24.0596 18.234ZM23.059 18.2001C22.7111 18.2975 22.4335 18.5239 22.2243 18.8534L22.6294 19.1107C22.7866 18.8632 22.9736 18.7224 23.1884 18.6623L23.059 18.2001ZM22.2257 18.8511C22.0072 19.1868 21.912 19.6342 21.912 20.1667H22.392C22.392 19.6827 22.48 19.3403 22.628 19.113L22.2257 18.8511ZM21.912 20.1667C21.912 20.7254 21.9938 21.2208 22.1649 21.647L22.6103 21.4682C22.4673 21.112 22.392 20.6801 22.392 20.1667H21.912ZM22.1643 21.6456C22.3241 22.0511 22.533 22.3908 22.7958 22.6572L23.1375 22.3201C22.9292 22.1089 22.7521 21.828 22.6109 21.4696L22.1643 21.6456ZM22.7983 22.6597C23.0539 22.9112 23.3311 23.0957 23.6306 23.2046L23.7946 22.7534C23.5707 22.6721 23.3505 22.5297 23.135 22.3176L22.7983 22.6597ZM23.6306 23.2046C23.8492 23.284 24.0612 23.3224 24.2617 23.3064L24.2235 22.8279C24.11 22.837 23.9686 22.8167 23.7946 22.7534L23.6306 23.2046ZM24.2772 23.3047C24.4946 23.273 24.6821 23.157 24.8402 22.9873L24.4891 22.6601C24.3855 22.7712 24.2916 22.8175 24.2081 22.8297L24.2772 23.3047ZM24.8457 22.9813C24.9978 22.8065 25.1278 22.5535 25.2431 22.2417L24.7929 22.0752C24.6857 22.3649 24.5801 22.5553 24.4837 22.6661L24.8457 22.9813ZM25.2431 22.2417C25.3594 21.9274 25.4733 21.5215 25.5857 21.0276L25.1177 20.9211C25.0076 21.4046 24.8991 21.7881 24.7929 22.0752L25.2431 22.2417ZM25.5856 21.0281C25.7793 20.1848 26.0087 19.5318 26.2686 19.06L25.8482 18.8283C25.5585 19.3542 25.3167 20.0547 25.1178 20.9206L25.5856 21.0281ZM26.2686 19.06C26.5251 18.5943 26.8235 18.3214 27.1524 18.2L26.9862 17.7497C26.5169 17.9229 26.1413 18.2962 25.8482 18.8283L26.2686 19.06ZM27.1524 18.2C27.4797 18.0792 27.9018 18.0941 28.44 18.2897L28.6039 17.8385C28.0035 17.6204 27.4572 17.5758 26.9862 17.7497L27.1524 18.2ZM28.44 18.2897C28.8738 18.4473 29.2726 18.6896 29.6369 19.019L29.9589 18.663C29.551 18.2942 29.0992 18.0185 28.6039 17.8385L28.44 18.2897ZM29.6387 19.0207C30.0033 19.3439 30.321 19.74 30.5907 20.2116L31.0074 19.9734C30.7143 19.4608 30.3645 19.0226 29.9571 18.6614L29.6387 19.0207ZM30.5904 20.2112C30.854 20.6742 31.0625 21.1926 31.2148 21.7678L31.6788 21.6449C31.517 21.0338 31.2937 20.4763 31.0076 19.9738L30.5904 20.2112ZM31.2144 21.7663C31.3594 22.3287 31.4325 22.931 31.4325 23.5741H31.9125C31.9125 22.8945 31.8352 22.2516 31.6792 21.6465L31.2144 21.7663ZM31.4325 23.5741C31.4325 24.5472 31.2688 25.2809 30.9651 25.7978L31.3789 26.041C31.7426 25.422 31.9125 24.5922 31.9125 23.5741H31.4325ZM30.9651 25.7978C30.6557 26.3244 30.2681 26.644 29.8061 26.7856L29.9467 27.2445C30.5447 27.0612 31.0208 26.6504 31.3789 26.041L30.9651 25.7978ZM29.8061 26.7856C29.3323 26.9308 28.8266 26.9108 28.28 26.7122L28.1161 27.1633C28.7473 27.3927 29.3605 27.4242 29.9467 27.2445L29.8061 26.7856ZM28.438 26.9377V24.9954H27.958V26.9377H28.438ZM28.1275 25.2248C28.6553 25.387 29.1295 25.3944 29.5064 25.1748L29.2649 24.7601C29.0529 24.8835 28.7353 24.9094 28.2686 24.766L28.1275 25.2248ZM29.5097 25.1729C29.8518 24.9663 30.0906 24.6517 30.2308 24.2474L29.7772 24.0901C29.6688 24.403 29.4953 24.6208 29.2616 24.762L29.5097 25.1729ZM30.2322 24.2432C30.3581 23.8571 30.4207 23.453 30.4207 23.032H29.9407C29.9407 23.4047 29.8854 23.7584 29.7758 24.0943L30.2322 24.2432ZM30.4207 23.032C30.4207 22.4837 30.3529 21.9919 30.2126 21.5602L29.7561 21.7086C29.8775 22.0821 29.9407 22.5221 29.9407 23.032H30.4207ZM30.213 21.5614C30.0745 21.128 29.881 20.7581 29.6279 20.4584L29.2612 20.7681C29.4661 21.0108 29.6325 21.3217 29.7558 21.7075L30.213 21.5614ZM29.6279 20.4584C29.3755 20.1595 29.0802 19.9435 28.7413 19.8204L28.5774 20.2715C28.8274 20.3624 29.0555 20.5246 29.2612 20.7681L29.6279 20.4584ZM40.9275 49.7922L42.8507 35.6322L42.375 35.5676L40.4518 49.7276L40.9275 49.7922ZM42.469 35.4077L40.5458 36.8477L40.8335 37.232L42.7567 35.792L42.469 35.4077ZM40.8335 36.8478L38.9107 35.4078L38.6229 35.792L40.5458 37.232L40.8335 36.8478ZM38.529 35.6321L40.4518 49.7921L40.9275 49.7276L39.0046 35.5676L38.529 35.6321ZM40.9296 49.7599V29.8398H40.4496V49.7599H40.9296ZM42.3724 36.0798H42.6128V35.5998H42.3724V36.0798ZM42.132 36.3198H42.6128V35.8398H42.132V36.3198ZM41.6512 36.5598H42.6128V36.0798H41.6512V36.5598ZM41.4108 36.7998H42.6128V36.3198H41.4108V36.7998ZM41.1704 37.0398H42.6128V36.5598H41.1704V37.0398ZM40.6896 37.2799L42.6128 37.2798L42.6128 36.7998L40.6896 36.7999L40.6896 37.2799ZM40.6896 48.3198H40.93V47.8398H40.6896V48.3198ZM40.6896 48.5598H40.93V48.0798H40.6896V48.5598ZM40.6896 48.7998H40.93V48.3198H40.6896V48.7998ZM40.6896 49.0398H40.93V48.5598H40.6896V49.0398ZM40.6896 49.2798H40.93V48.7998H40.6896V49.2798ZM40.6896 49.5198H40.93V49.0398H40.6896V49.5198ZM40.6896 49.7598H40.93V49.2798H40.6896V49.7598ZM39.007 36.0798H39.2474V35.5998H39.007V36.0798ZM39.007 36.3198H39.4878V35.8398H39.007V36.3198ZM39.007 36.5598H39.7282V36.0798H39.007V36.5598ZM39.007 36.7998H40.209V36.3198H39.007V36.7998ZM39.007 37.0398H40.4494V36.5598H39.007V37.0398ZM39.007 37.2798L40.6896 37.2799L40.6896 36.7999L39.007 36.7998L39.007 37.2798ZM40.4521 52.3681L38.5289 66.7681L39.0047 66.8317L40.9279 52.4317L40.4521 52.3681ZM38.9106 66.992L40.8339 65.552L40.5462 65.1677L38.6229 66.6078L38.9106 66.992ZM40.5461 65.552L42.469 66.992L42.7567 66.6078L40.8339 65.1678L40.5461 65.552ZM42.8507 66.7681L40.9279 52.3681L40.4521 52.4317L42.375 66.8316L42.8507 66.7681ZM40.45 52.3999L40.4496 72.3199L40.9296 72.3199L40.93 52.3999L40.45 52.3999ZM39.007 65.5998L40.69 65.5999L40.69 65.1199L39.007 65.1198L39.007 65.5998ZM39.007 65.8398H40.4494V65.3598H39.007V65.8398ZM39.007 66.0798H40.209V65.5998H39.007V66.0798ZM39.007 66.3198H39.7282V65.8398H39.007V66.3198ZM39.007 66.5598H39.4878V66.0798H39.007V66.5598ZM39.007 66.7998H39.2474V66.3198H39.007V66.7998ZM40.6896 52.8799H40.93V52.3999H40.6896V52.8799ZM40.6896 53.1199H40.93V52.6399H40.6896V53.1199ZM40.6896 53.3599H40.93V52.8799H40.6896V53.3599ZM40.6896 53.5999H40.93V53.1199H40.6896V53.5999ZM40.6896 53.8399H40.93V53.3599H40.6896V53.8399ZM40.6896 54.0799H40.93V53.5999H40.6896V54.0799ZM40.6896 54.3199H40.93V53.8399H40.6896V54.3199ZM40.69 65.5999L42.6128 65.5999L42.6129 65.1199L40.69 65.1199L40.69 65.5999ZM41.1704 65.8399H42.6128V65.3599H41.1704V65.8399ZM41.4108 66.0799H42.6128V65.5999H41.4108V66.0799ZM41.6512 66.3199H42.6128V65.8399H41.6512V66.3199ZM42.132 66.5599H42.6128V66.0799H42.132V66.5599ZM42.3724 66.7999H42.6128V66.3199H42.3724V66.7999ZM40.4496 49.7599L40.45 52.3999L40.93 52.3999L40.9296 49.7598L40.4496 49.7599ZM40.9296 49.7599V11.1199H40.4496V49.7599H40.9296ZM39.007 37.5198L42.6128 37.5198L42.6128 37.0398L39.007 37.0398L39.007 37.5198ZM39.2474 37.7598L42.3724 37.7598L42.3724 37.2798L39.2474 37.2798L39.2474 37.7598ZM39.2474 37.9998L42.3724 37.9998L42.3724 37.5198L39.2474 37.5198L39.2474 37.9998ZM39.2474 38.2398L42.3724 38.2398L42.3724 37.7598L39.2474 37.7598L39.2474 38.2398ZM39.2474 38.4798H42.3724V37.9998H39.2474V38.4798ZM39.2474 38.7198H42.3724V38.2398H39.2474V38.7198ZM39.2474 38.9598H42.3724V38.4798H39.2474V38.9598ZM39.2474 39.1998L42.3724 39.1998L42.3724 38.7198L39.2474 38.7198L39.2474 39.1998ZM39.4878 39.4398L42.132 39.4398L42.132 38.9598L39.4878 38.9598L39.4878 39.4398ZM39.4878 39.6798L42.132 39.6798L42.132 39.1998L39.4878 39.1998L39.4878 39.6798ZM39.4878 39.9198L42.132 39.9198L42.132 39.4398L39.4878 39.4398L39.4878 39.9198ZM39.4878 40.1598L42.132 40.1598L42.132 39.6798L39.4878 39.6798L39.4878 40.1598ZM39.4878 40.3998L42.132 40.3998L42.132 39.9198L39.4878 39.9198L39.4878 40.3998ZM39.4878 40.6398L42.132 40.6398L42.132 40.1598L39.4878 40.1598L39.4878 40.6398ZM39.4878 40.8798L42.132 40.8798L42.132 40.3998L39.4878 40.3998L39.4878 40.8798ZM39.4878 41.1198L42.132 41.1198L42.132 40.6398L39.4878 40.6398L39.4878 41.1198ZM39.7282 41.3598L41.8916 41.3598L41.8916 40.8798L39.7282 40.8798L39.7282 41.3598ZM39.7282 41.5998L41.8916 41.5998L41.8916 41.1198L39.7282 41.1198L39.7282 41.5998ZM39.7282 41.8398L41.8916 41.8398L41.8916 41.3598L39.7282 41.3598L39.7282 41.8398ZM39.7282 42.0798L41.8916 42.0798L41.8916 41.5998L39.7282 41.5998L39.7282 42.0798ZM39.7282 42.3198L41.8916 42.3198L41.8916 41.8398L39.7282 41.8398L39.7282 42.3198ZM39.7282 42.5598L41.8916 42.5598L41.8916 42.0798L39.7282 42.0798L39.7282 42.5598ZM39.7282 42.7998L41.8916 42.7998L41.8916 42.3198L39.7282 42.3198L39.7282 42.7998ZM39.9686 43.0398L41.6512 43.0398L41.6512 42.5598L39.9686 42.5598L39.9686 43.0398ZM39.9686 43.2798L41.6512 43.2798L41.6512 42.7998L39.9686 42.7998L39.9686 43.2798ZM39.9686 43.5198L41.6512 43.5198L41.6512 43.0398L39.9686 43.0398L39.9686 43.5198ZM39.9686 43.7598L41.6512 43.7598L41.6512 43.2798L39.9686 43.2798L39.9686 43.7598ZM39.9686 43.9998L41.6512 43.9998L41.6512 43.5198L39.9686 43.5198L39.9686 43.9998ZM39.9686 44.2398L41.6512 44.2398L41.6512 43.7598L39.9686 43.7598L39.9686 44.2398ZM39.9686 44.4798L41.6512 44.4798L41.6512 43.9998L39.9686 43.9998L39.9686 44.4798ZM40.209 44.7198L41.4108 44.7198L41.4108 44.2398L40.209 44.2398L40.209 44.7198ZM40.209 44.9598L41.4108 44.9598L41.4108 44.4798L40.209 44.4798L40.209 44.9598ZM40.209 45.1998L41.4108 45.1998L41.4108 44.7198L40.209 44.7198L40.209 45.1998ZM40.209 45.4398L41.4108 45.4398L41.4108 44.9598L40.209 44.9598L40.209 45.4398ZM40.209 45.6798L41.4108 45.6798L41.4108 45.1998L40.209 45.1998L40.209 45.6798ZM40.209 45.9198L41.4108 45.9198L41.4108 45.4398L40.209 45.4398L40.209 45.9198ZM40.209 46.1598L41.4108 46.1598L41.4108 45.6798L40.209 45.6798L40.209 46.1598ZM40.209 46.3998L41.4108 46.3998L41.4108 45.9198L40.209 45.9198L40.209 46.3998ZM40.4494 46.6398L41.1704 46.6398L41.1704 46.1598L40.4494 46.1598L40.4494 46.6398ZM40.4494 46.8798L41.1704 46.8798L41.1704 46.3998L40.4494 46.3998L40.4494 46.8798ZM40.4494 47.1198L41.1704 47.1198L41.1704 46.6398L40.4494 46.6398L40.4494 47.1198ZM40.4494 47.3598L41.1704 47.3598L41.1704 46.8798L40.4494 46.8798L40.4494 47.3598ZM40.4494 47.5998L41.1704 47.5998L41.1704 47.1198L40.4494 47.1198L40.4494 47.5998ZM40.4494 47.8398L41.1704 47.8398L41.1704 47.3598L40.4494 47.3598L40.4494 47.8398ZM40.4494 48.0798L41.1704 48.0798L41.1704 47.5998L40.4494 47.5998L40.4494 48.0798ZM40.4494 54.5598L41.1704 54.5599L41.1705 54.0799L40.4495 54.0798L40.4494 54.5598ZM40.4494 54.7998L41.1704 54.7999L41.1705 54.3199L40.4495 54.3198L40.4494 54.7998ZM40.4494 55.0398L41.1704 55.0399L41.1705 54.5599L40.4495 54.5598L40.4494 55.0398ZM40.4494 55.2798L41.1704 55.2799L41.1705 54.7999L40.4495 54.7998L40.4494 55.2798ZM40.4494 55.5198L41.1704 55.5199L41.1705 55.0399L40.4495 55.0398L40.4494 55.5198ZM40.4494 55.7598L41.1704 55.7599L41.1705 55.2799L40.4495 55.2798L40.4494 55.7598ZM40.4494 55.9998L41.1704 55.9999L41.1705 55.5199L40.4495 55.5198L40.4494 55.9998ZM40.209 56.2398L41.1704 56.2399L41.1705 55.7599L40.2091 55.7598L40.209 56.2398ZM40.209 56.4798L41.4108 56.4799L41.4109 55.9999L40.209 55.9998L40.209 56.4798ZM40.209 56.7198L41.4108 56.7199L41.4109 56.2399L40.209 56.2398L40.209 56.7198ZM40.209 56.9598L41.4108 56.9599L41.4109 56.4799L40.209 56.4798L40.209 56.9598ZM40.209 57.1998L41.4108 57.1999L41.4109 56.7199L40.209 56.7198L40.209 57.1998ZM40.209 57.4398L41.4108 57.4399L41.4109 56.9599L40.209 56.9598L40.209 57.4398ZM40.209 57.6798L41.4108 57.6799L41.4109 57.1999L40.209 57.1998L40.209 57.6798ZM40.209 57.9198L41.4108 57.9199L41.4109 57.4399L40.209 57.4398L40.209 57.9198ZM39.9686 58.1598L41.6512 58.1599L41.6513 57.6799L39.9686 57.6798L39.9686 58.1598ZM39.9686 58.3998L41.6512 58.3999L41.6513 57.9199L39.9686 57.9198L39.9686 58.3998ZM39.9686 58.6398L41.6512 58.6399L41.6513 58.1599L39.9686 58.1598L39.9686 58.6398ZM39.9686 58.8798L41.6512 58.8799L41.6513 58.3999L39.9686 58.3998L39.9686 58.8798ZM39.9686 59.1198L41.6512 59.1199L41.6513 58.6399L39.9686 58.6398L39.9686 59.1198ZM39.9686 59.3598L41.6512 59.3599L41.6513 58.8799L39.9686 58.8798L39.9686 59.3598ZM39.9686 59.5998L41.6512 59.5999L41.6513 59.1199L39.9686 59.1198L39.9686 59.5998ZM39.7282 59.8398L41.6512 59.8399L41.6513 59.3599L39.7282 59.3598L39.7282 59.8398ZM39.7282 60.0798L41.8916 60.0799L41.8917 59.5999L39.7282 59.5998L39.7282 60.0798ZM39.7282 60.3198L41.8916 60.3199L41.8917 59.8399L39.7282 59.8398L39.7282 60.3198ZM39.7282 60.5598L41.8916 60.5599L41.8917 60.0799L39.7282 60.0798L39.7282 60.5598ZM39.7282 60.7998L41.8916 60.7999L41.8917 60.3199L39.7282 60.3198L39.7282 60.7998ZM39.7282 61.0398L41.8916 61.0399L41.8917 60.5599L39.7282 60.5598L39.7282 61.0398ZM39.7282 61.2798L41.8916 61.2799L41.8917 60.7999L39.7282 60.7998L39.7282 61.2798ZM39.7282 61.5198L41.8916 61.5199L41.8917 61.0399L39.7282 61.0398L39.7282 61.5198ZM39.4878 61.7598L42.132 61.7599L42.1321 61.2799L39.4878 61.2798L39.4878 61.7598ZM39.4878 61.9998L42.132 61.9999L42.1321 61.5199L39.4878 61.5198L39.4878 61.9998ZM39.4878 62.2398L42.132 62.2399L42.1321 61.7599L39.4878 61.7598L39.4878 62.2398ZM39.4878 62.4798L42.132 62.4799L42.1321 61.9999L39.4878 61.9998L39.4878 62.4798ZM39.4878 62.7198L42.132 62.7199L42.1321 62.2399L39.4878 62.2398L39.4878 62.7198ZM39.4878 62.9598L42.132 62.9599L42.1321 62.4799L39.4878 62.4798L39.4878 62.9598ZM39.4878 63.1998L42.132 63.1999L42.1321 62.7199L39.4878 62.7198L39.4878 63.1998ZM39.2474 63.4398L42.132 63.4399L42.1321 62.9599L39.2474 62.9598L39.2474 63.4398ZM39.2474 63.6798L42.3724 63.6799L42.3725 63.1999L39.2474 63.1998L39.2474 63.6798ZM39.2474 63.9198L42.3724 63.9199L42.3725 63.4399L39.2474 63.4398L39.2474 63.9198ZM39.2474 64.1598L42.3724 64.1599L42.3725 63.6799L39.2474 63.6798L39.2474 64.1598ZM39.2474 64.3998L42.3724 64.3999L42.3725 63.9199L39.2474 63.9198L39.2474 64.3998ZM39.2474 64.6398L42.3724 64.6399L42.3725 64.1599L39.2474 64.1598L39.2474 64.6398ZM39.2474 64.8798L42.3724 64.8799L42.3725 64.3999L39.2474 64.3998L39.2474 64.8798ZM39.2474 65.1198L42.3724 65.1199L42.3725 64.6399L39.2474 64.6398L39.2474 65.1198ZM39.007 65.3598L42.6128 65.3599L42.6129 64.8799L39.007 64.8798L39.007 65.3598Z" fill="white"/>
    </g>
    <!--    15 S1-->
    <g class="group">
    </g>
    <!--    16 S2-->
    <g class="group">
    </g>
    <!--    17 S3-->
    <g class="group">
    </g>
    <!--    18 S4-->
    <g class="group">
    </g>
    <!--    19 I-->
    <g class="group">
        <path d="M442.937 0.399902L437.442 15.4698H435.5L440.994 0.399902H442.937Z" fill="white"/>
        <path d="M472.931 44.245C472.931 44.3776 473.038 44.485 473.171 44.485C473.303 44.485 473.411 44.3776 473.411 44.245H472.931ZM473.411 19.045C473.411 18.9125 473.303 18.805 473.171 18.805C473.038 18.805 472.931 18.9125 472.931 19.045H473.411ZM402.975 44.245C402.975 44.3776 403.082 44.485 403.215 44.485C403.347 44.485 403.455 44.3776 403.455 44.245H402.975ZM403.455 19.045C403.455 18.9125 403.347 18.805 403.215 18.805C403.082 18.805 402.975 18.9125 402.975 19.045H403.455ZM442.937 0.399902L443.162 0.482114C443.189 0.408526 443.178 0.326474 443.133 0.262299C443.089 0.198125 443.015 0.159902 442.937 0.159902V0.399902ZM437.442 15.4698V15.7098C437.543 15.7098 437.633 15.6467 437.668 15.552L437.442 15.4698ZM435.5 15.4698L435.274 15.3876C435.247 15.4612 435.258 15.5432 435.303 15.6074C435.348 15.6716 435.421 15.7098 435.5 15.7098V15.4698ZM440.994 0.399902V0.159902C440.894 0.159902 440.803 0.222946 440.769 0.31769L440.994 0.399902ZM473.171 24.5651L473.203 24.8029C473.322 24.7868 473.411 24.6852 473.411 24.5651C473.411 24.4449 473.322 24.3433 473.203 24.3272L473.171 24.5651ZM458.987 26.485L458.795 26.3409C458.737 26.4183 458.731 26.523 458.78 26.6065C458.829 26.69 458.924 26.7359 459.019 26.7229L458.987 26.485ZM458.987 22.6449L459.02 22.4071C458.924 22.3941 458.829 22.44 458.78 22.5234C458.731 22.6069 458.737 22.7116 458.795 22.789L458.987 22.6449ZM403.215 24.5649L403.183 24.3271C403.064 24.3432 402.975 24.4448 402.975 24.5649C402.975 24.685 403.064 24.7866 403.183 24.8027L403.215 24.5649ZM417.399 22.6449L417.59 22.789C417.649 22.7117 417.655 22.6069 417.606 22.5235C417.557 22.44 417.462 22.3941 417.366 22.4071L417.399 22.6449ZM417.398 26.485L417.366 26.7229C417.462 26.7359 417.557 26.69 417.605 26.6065C417.654 26.523 417.648 26.4183 417.59 26.3409L417.398 26.485ZM473.411 44.245V19.045H472.931V44.245H473.411ZM403.455 44.245V19.045H402.975V44.245H403.455ZM442.711 0.31769L437.217 15.3876L437.668 15.552L443.162 0.482114L442.711 0.31769ZM437.442 15.2298H435.5V15.7098H437.442V15.2298ZM435.725 15.552L441.22 0.482114L440.769 0.31769L435.274 15.3876L435.725 15.552ZM440.994 0.639902H442.937V0.159902H440.994V0.639902ZM473.139 24.3272L458.955 26.2472L459.019 26.7229L473.203 24.8029L473.139 24.3272ZM459.179 26.6292L460.622 24.7092L460.238 24.4209L458.795 26.3409L459.179 26.6292ZM460.622 24.4209L459.179 22.5007L458.795 22.789L460.238 24.7092L460.622 24.4209ZM458.955 22.8827L473.139 24.8029L473.203 24.3272L459.02 22.4071L458.955 22.8827ZM460.43 24.8051H473.171V24.3251H460.43V24.8051ZM460.431 25.045H471.489V24.565H460.431V25.045ZM460.19 25.285H469.806V24.805H460.19V25.285ZM459.95 25.525H467.883V25.045H459.95V25.525ZM459.709 25.765H466.2V25.285H459.709V25.765ZM459.709 26.005H464.517V25.525H459.709V26.005ZM459.469 26.245H462.594V25.765H459.469V26.245ZM459.229 26.485H460.911V26.005H459.229V26.485ZM459.229 23.1249H460.911V22.6449H459.229V23.1249ZM459.469 23.3649H462.594V22.8849H459.469V23.3649ZM459.709 23.6049H464.517V23.1249H459.709V23.6049ZM459.709 23.8449H466.2V23.3649H459.709V23.8449ZM459.95 24.0849H467.883V23.6049H459.95V24.0849ZM460.19 24.3249H469.806V23.8449H460.19V24.3249ZM460.431 24.5649H471.489V24.0849H460.431V24.5649ZM403.247 24.8027L417.431 22.8827L417.366 22.4071L403.183 24.3271L403.247 24.8027ZM417.207 22.5007L415.764 24.4207L416.148 24.709L417.59 22.789L417.207 22.5007ZM415.764 24.709L417.207 26.6292L417.59 26.3409L416.148 24.4207L415.764 24.709ZM417.431 26.2472L403.247 24.3271L403.183 24.8027L417.366 26.7229L417.431 26.2472ZM415.715 23.1249H417.398V22.6449H415.715V23.1249ZM414.033 23.3649H417.158V22.8849H414.033V23.3649ZM412.109 23.6049H416.917V23.1249H412.109V23.6049ZM410.427 23.8449H416.677V23.3649H410.427V23.8449ZM408.744 24.0849H416.677V23.6049H408.744V24.0849ZM406.821 24.3249H416.437V23.8449H406.821V24.3249ZM405.138 24.5649H416.196V24.0849H405.138V24.5649ZM403.215 24.8049H415.956V24.3249H403.215V24.8049ZM405.138 25.045H416.197V24.565H405.138V25.045ZM406.821 25.285H416.437V24.805H406.821V25.285ZM408.744 25.525H416.677V25.045H408.744V25.525ZM410.427 25.765H416.677V25.285H410.427V25.765ZM412.11 26.005H416.918V25.525H412.11V26.005ZM414.033 26.245H417.158V25.765H414.033V26.245ZM415.716 26.485H417.399V26.005H415.716V26.485ZM473.171 24.3251L403.215 24.3249L403.215 24.8049L473.171 24.8051L473.171 24.3251Z" fill="white"/>
    </g>
    <!--    20 I1-->
    <g class="group">
    </g>
    <!--    21 I2-->
    <g class="group">
    </g>
    <!--    22 H-->
    <g class="group">
    </g>
    <!--    23 H1-->
    <g class="group">
    </g>
    <!--    24 H2-->
    <g class="group">
    </g>
    <!--    25 h-->
    <g class="group">
    </g>
    <!--    26 h1-->
    <g class="group">
    </g>
    <!--    27 h2-->
    <g class="group">
    </g>
    <!--    28 R-->
    <g class="group">
    </g>
    <!--    29 Deg-->
    <g class="group">
    </g>
    <!--    29 DN-->
    <g class="group">
    </g>

</svg>
