<svg width="682" height="156" viewBox="0 0 682 156" fill="none" xmlns="http://www.w3.org/2000/svg">
<path d="M371.474 25.64L399.634 41.64L371.474 25.64Z" stroke="white" stroke-width="0.64" stroke-miterlimit="10" stroke-linecap="round" stroke-linejoin="round"/>
<path d="M404.434 44.52L407.634 46.44L404.434 44.52Z" stroke="white" stroke-width="0.64" stroke-miterlimit="10" stroke-linecap="round" stroke-linejoin="round"/>
<path d="M412.434 49.3201L440.274 65.3201L412.434 49.3201Z" stroke="white" stroke-width="0.64" stroke-miterlimit="10" stroke-linecap="round" stroke-linejoin="round"/>
<path d="M227.154 75.56L237.074 74.92L227.154 75.56Z" stroke="white" stroke-width="0.64" stroke-miterlimit="10" stroke-linecap="round" stroke-linejoin="round"/>
<path d="M237.074 74.92L246.674 73L237.074 74.92Z" stroke="white" stroke-width="0.64" stroke-miterlimit="10" stroke-linecap="round" stroke-linejoin="round"/>
<path d="M246.674 73L255.954 69.8L246.674 73Z" stroke="white" stroke-width="0.64" stroke-miterlimit="10" stroke-linecap="round" stroke-linejoin="round"/>
<path d="M255.954 69.8001L264.914 65.3201L255.954 69.8001Z" stroke="white" stroke-width="0.64" stroke-miterlimit="10" stroke-linecap="round" stroke-linejoin="round"/>
<path d="M264.914 65.3201H265.234H264.914Z" stroke="white" stroke-width="0.64" stroke-miterlimit="10" stroke-linecap="round" stroke-linejoin="round"/>
<path d="M440.274 65.3201L449.234 69.8001L440.274 65.3201Z" stroke="white" stroke-width="0.64" stroke-miterlimit="10" stroke-linecap="round" stroke-linejoin="round"/>
<path d="M449.234 69.8L458.514 73L449.234 69.8Z" stroke="white" stroke-width="0.64" stroke-miterlimit="10" stroke-linecap="round" stroke-linejoin="round"/>
<path d="M458.514 73L468.114 74.92L458.514 73Z" stroke="white" stroke-width="0.64" stroke-miterlimit="10" stroke-linecap="round" stroke-linejoin="round"/>
<path d="M468.114 74.92L478.034 75.56L468.114 74.92Z" stroke="white" stroke-width="0.64" stroke-miterlimit="10" stroke-linecap="round" stroke-linejoin="round"/>
<path d="M265.234 65.3201L293.074 49.3201L265.234 65.3201Z" stroke="white" stroke-width="0.64" stroke-miterlimit="10" stroke-linecap="round" stroke-linejoin="round"/>
<path d="M297.874 46.44L301.074 44.52L297.874 46.44Z" stroke="white" stroke-width="0.64" stroke-miterlimit="10" stroke-linecap="round" stroke-linejoin="round"/>
<path d="M305.874 41.64L333.714 25.64L305.874 41.64Z" stroke="white" stroke-width="0.64" stroke-miterlimit="10" stroke-linecap="round" stroke-linejoin="round"/>
<path d="M371.474 25.64L365.394 22.76L371.474 25.64Z" stroke="white" stroke-width="0.64" stroke-miterlimit="10" stroke-linecap="round" stroke-linejoin="round"/>
<path d="M365.394 22.76L358.674 21.16L365.394 22.76Z" stroke="white" stroke-width="0.64" stroke-miterlimit="10" stroke-linecap="round" stroke-linejoin="round"/>
<path d="M358.674 21.16L351.634 20.52L358.674 21.16Z" stroke="white" stroke-width="0.64" stroke-miterlimit="10" stroke-linecap="round" stroke-linejoin="round"/>
<path d="M351.634 20.52L344.594 21.48L351.634 20.52Z" stroke="white" stroke-width="0.64" stroke-miterlimit="10" stroke-linecap="round" stroke-linejoin="round"/>
<path d="M344.594 21.48L338.194 23.4L344.594 21.48Z" stroke="white" stroke-width="0.64" stroke-miterlimit="10" stroke-linecap="round" stroke-linejoin="round"/>
<path d="M338.194 23.4L333.714 25.64L338.194 23.4Z" stroke="white" stroke-width="0.64" stroke-miterlimit="10" stroke-linecap="round" stroke-linejoin="round"/>
<path d="M227.154 56.68L235.794 56.04L227.154 56.68Z" stroke="white" stroke-width="2.24" stroke-miterlimit="10" stroke-linecap="round" stroke-linejoin="round"/>
<path d="M235.794 56.0401L244.114 54.1201L235.794 56.0401Z" stroke="white" stroke-width="2.24" stroke-miterlimit="10" stroke-linecap="round" stroke-linejoin="round"/>
<path d="M244.114 54.12L252.114 50.92L244.114 54.12Z" stroke="white" stroke-width="2.24" stroke-miterlimit="10" stroke-linecap="round" stroke-linejoin="round"/>
<path d="M252.114 50.92L255.634 49L252.114 50.92Z" stroke="white" stroke-width="2.24" stroke-miterlimit="10" stroke-linecap="round" stroke-linejoin="round"/>
<path d="M227.154 94.44L238.354 93.8L227.154 94.44Z" stroke="white" stroke-width="2.24" stroke-miterlimit="10" stroke-linecap="round" stroke-linejoin="round"/>
<path d="M238.354 93.8L249.234 91.88L238.354 93.8Z" stroke="white" stroke-width="2.24" stroke-miterlimit="10" stroke-linecap="round" stroke-linejoin="round"/>
<path d="M249.234 91.8801L259.794 88.6801L249.234 91.8801Z" stroke="white" stroke-width="2.24" stroke-miterlimit="10" stroke-linecap="round" stroke-linejoin="round"/>
<path d="M259.794 88.6801L269.714 84.2001L259.794 88.6801Z" stroke="white" stroke-width="2.24" stroke-miterlimit="10" stroke-linecap="round" stroke-linejoin="round"/>
<path d="M269.714 84.2L274.514 81.64L269.714 84.2Z" stroke="white" stroke-width="2.24" stroke-miterlimit="10" stroke-linecap="round" stroke-linejoin="round"/>
<path d="M255.634 49.0001L324.434 9.32007L255.634 49.0001Z" stroke="white" stroke-width="2.24" stroke-miterlimit="10" stroke-linecap="round" stroke-linejoin="round"/>
<path d="M274.514 81.6401L343.314 41.9601L274.514 81.6401Z" stroke="white" stroke-width="2.24" stroke-miterlimit="10" stroke-linecap="round" stroke-linejoin="round"/>
<path d="M381.074 9.31998L373.394 5.47998L381.074 9.31998Z" stroke="white" stroke-width="2.24" stroke-miterlimit="10" stroke-linecap="round" stroke-linejoin="round"/>
<path d="M373.394 5.47999L365.394 3.23999L373.394 5.47999Z" stroke="white" stroke-width="2.24" stroke-miterlimit="10" stroke-linecap="round" stroke-linejoin="round"/>
<path d="M365.394 3.24008L356.754 1.96008L365.394 3.24008Z" stroke="white" stroke-width="2.24" stroke-miterlimit="10" stroke-linecap="round" stroke-linejoin="round"/>
<path d="M356.754 1.96008H348.434H356.754Z" stroke="white" stroke-width="2.24" stroke-miterlimit="10" stroke-linecap="round" stroke-linejoin="round"/>
<path d="M348.434 1.96008L339.794 3.24008L348.434 1.96008Z" stroke="white" stroke-width="2.24" stroke-miterlimit="10" stroke-linecap="round" stroke-linejoin="round"/>
<path d="M339.794 3.23999L331.794 5.79999L339.794 3.23999Z" stroke="white" stroke-width="2.24" stroke-miterlimit="10" stroke-linecap="round" stroke-linejoin="round"/>
<path d="M331.794 5.80005L324.434 9.32005L331.794 5.80005Z" stroke="white" stroke-width="2.24" stroke-miterlimit="10" stroke-linecap="round" stroke-linejoin="round"/>
<path d="M362.194 41.96L357.714 40.04L362.194 41.96Z" stroke="white" stroke-width="2.24" stroke-miterlimit="10" stroke-linecap="round" stroke-linejoin="round"/>
<path d="M357.714 40.04L352.914 39.4L357.714 40.04Z" stroke="white" stroke-width="2.24" stroke-miterlimit="10" stroke-linecap="round" stroke-linejoin="round"/>
<path d="M352.914 39.4L347.794 40.04L352.914 39.4Z" stroke="white" stroke-width="2.24" stroke-miterlimit="10" stroke-linecap="round" stroke-linejoin="round"/>
<path d="M347.794 40.04L343.314 41.96L347.794 40.04Z" stroke="white" stroke-width="2.24" stroke-miterlimit="10" stroke-linecap="round" stroke-linejoin="round"/>
<path d="M381.074 9.32007L449.874 49.0001L381.074 9.32007Z" stroke="white" stroke-width="2.24" stroke-miterlimit="10" stroke-linecap="round" stroke-linejoin="round"/>
<path d="M362.194 41.9601L430.994 81.6401L362.194 41.9601Z" stroke="white" stroke-width="2.24" stroke-miterlimit="10" stroke-linecap="round" stroke-linejoin="round"/>
<path d="M449.874 49L457.554 52.52L449.874 49Z" stroke="white" stroke-width="2.24" stroke-miterlimit="10" stroke-linecap="round" stroke-linejoin="round"/>
<path d="M457.554 52.52L465.554 55.08L457.554 52.52Z" stroke="white" stroke-width="2.24" stroke-miterlimit="10" stroke-linecap="round" stroke-linejoin="round"/>
<path d="M465.554 55.0801L473.874 56.3601L465.554 55.0801Z" stroke="white" stroke-width="2.24" stroke-miterlimit="10" stroke-linecap="round" stroke-linejoin="round"/>
<path d="M473.874 56.3601L478.034 56.6801L473.874 56.3601Z" stroke="white" stroke-width="2.24" stroke-miterlimit="10" stroke-linecap="round" stroke-linejoin="round"/>
<path d="M430.994 81.64L440.594 86.76L430.994 81.64Z" stroke="white" stroke-width="2.24" stroke-miterlimit="10" stroke-linecap="round" stroke-linejoin="round"/>
<path d="M440.594 86.76L451.154 90.28L440.594 86.76Z" stroke="white" stroke-width="2.24" stroke-miterlimit="10" stroke-linecap="round" stroke-linejoin="round"/>
<path d="M451.154 90.28L461.714 92.84L451.154 90.28Z" stroke="white" stroke-width="2.24" stroke-miterlimit="10" stroke-linecap="round" stroke-linejoin="round"/>
<path d="M461.714 92.8401L472.594 94.1201L461.714 92.8401Z" stroke="white" stroke-width="2.24" stroke-miterlimit="10" stroke-linecap="round" stroke-linejoin="round"/>
<path d="M472.594 94.1201L478.034 94.4401L472.594 94.1201Z" stroke="white" stroke-width="2.24" stroke-miterlimit="10" stroke-linecap="round" stroke-linejoin="round"/>
<path d="M478.034 75.5601H518.034H478.034Z" stroke="white" stroke-width="0.64" stroke-miterlimit="10" stroke-linecap="round" stroke-linejoin="round"/>
<path d="M523.794 75.5601H528.274H523.794Z" stroke="white" stroke-width="0.64" stroke-miterlimit="10" stroke-linecap="round" stroke-linejoin="round"/>
<path d="M534.034 75.5601H574.034H534.034Z" stroke="white" stroke-width="0.64" stroke-miterlimit="10" stroke-linecap="round" stroke-linejoin="round"/>
<path d="M579.474 75.5601H584.274H579.474Z" stroke="white" stroke-width="0.64" stroke-miterlimit="10" stroke-linecap="round" stroke-linejoin="round"/>
<path d="M589.714 75.5601H629.714H589.714Z" stroke="white" stroke-width="0.64" stroke-miterlimit="10" stroke-linecap="round" stroke-linejoin="round"/>
<path d="M478.034 56.6801H629.714H478.034Z" stroke="white" stroke-width="2.24" stroke-miterlimit="10" stroke-linecap="round" stroke-linejoin="round"/>
<path d="M478.034 94.4401H629.714H478.034Z" stroke="white" stroke-width="2.24" stroke-miterlimit="10" stroke-linecap="round" stroke-linejoin="round"/>
<path d="M66.1938 75.5601H109.074H66.1938Z" stroke="white" stroke-width="0.64" stroke-miterlimit="10" stroke-linecap="round" stroke-linejoin="round"/>
<path d="M114.834 75.5601H119.634H114.834Z" stroke="white" stroke-width="0.64" stroke-miterlimit="10" stroke-linecap="round" stroke-linejoin="round"/>
<path d="M125.394 75.5601H168.274H125.394Z" stroke="white" stroke-width="0.64" stroke-miterlimit="10" stroke-linecap="round" stroke-linejoin="round"/>
<path d="M173.714 75.5601H178.834H173.714Z" stroke="white" stroke-width="0.64" stroke-miterlimit="10" stroke-linecap="round" stroke-linejoin="round"/>
<path d="M184.274 75.5601H227.154H184.274Z" stroke="white" stroke-width="0.64" stroke-miterlimit="10" stroke-linecap="round" stroke-linejoin="round"/>
<path d="M70.0337 56.6801H227.154H70.0337Z" stroke="white" stroke-width="2.24" stroke-miterlimit="10" stroke-linecap="round" stroke-linejoin="round"/>
<path d="M70.0337 94.4401H227.154H70.0337Z" stroke="white" stroke-width="2.24" stroke-miterlimit="10" stroke-linecap="round" stroke-linejoin="round"/>
<path d="M70.0337 56.6801V94.4401V56.6801Z" stroke="white" stroke-width="2.24" stroke-miterlimit="10" stroke-linecap="round" stroke-linejoin="round"/>
<path d="M70.0337 60.2001H152.914H70.0337Z" stroke="white" stroke-width="2.24" stroke-miterlimit="10" stroke-linecap="round" stroke-linejoin="round"/>
<path d="M70.0337 90.6001H141.394H70.0337Z" stroke="white" stroke-width="2.24" stroke-miterlimit="10" stroke-linecap="round" stroke-linejoin="round"/>
<path d="M154.194 56.6801L154.514 57.6401L154.194 56.6801Z" stroke="white" stroke-width="2.24" stroke-miterlimit="10" stroke-linecap="round" stroke-linejoin="round"/>
<path d="M154.514 57.64V57.96V57.64Z" stroke="white" stroke-width="2.24" stroke-miterlimit="10" stroke-linecap="round" stroke-linejoin="round"/>
<path d="M154.514 57.9601L154.194 58.2801L154.514 57.9601Z" stroke="white" stroke-width="2.24" stroke-miterlimit="10" stroke-linecap="round" stroke-linejoin="round"/>
<path d="M154.194 58.28V58.6V58.28Z" stroke="white" stroke-width="2.24" stroke-miterlimit="10" stroke-linecap="round" stroke-linejoin="round"/>
<path d="M154.194 58.6001V58.9201V58.6001Z" stroke="white" stroke-width="2.24" stroke-miterlimit="10" stroke-linecap="round" stroke-linejoin="round"/>
<path d="M154.194 58.92L153.874 59.24L154.194 58.92Z" stroke="white" stroke-width="2.24" stroke-miterlimit="10" stroke-linecap="round" stroke-linejoin="round"/>
<path d="M153.874 59.24L153.554 59.88L153.874 59.24Z" stroke="white" stroke-width="2.24" stroke-miterlimit="10" stroke-linecap="round" stroke-linejoin="round"/>
<path d="M153.554 59.88L152.594 60.84L153.554 59.88Z" stroke="white" stroke-width="2.24" stroke-miterlimit="10" stroke-linecap="round" stroke-linejoin="round"/>
<path d="M152.594 60.8401L150.354 62.7601L152.594 60.8401Z" stroke="white" stroke-width="2.24" stroke-miterlimit="10" stroke-linecap="round" stroke-linejoin="round"/>
<path d="M150.354 62.76L146.194 65.32L150.354 62.76Z" stroke="white" stroke-width="2.24" stroke-miterlimit="10" stroke-linecap="round" stroke-linejoin="round"/>
<path d="M146.194 65.3201L139.794 69.1601L146.194 65.3201Z" stroke="white" stroke-width="2.24" stroke-miterlimit="10" stroke-linecap="round" stroke-linejoin="round"/>
<path d="M139.794 69.16L136.594 72.04L139.794 69.16Z" stroke="white" stroke-width="2.24" stroke-miterlimit="10" stroke-linecap="round" stroke-linejoin="round"/>
<path d="M136.594 72.04L136.274 72.68L136.594 72.04Z" stroke="white" stroke-width="2.24" stroke-miterlimit="10" stroke-linecap="round" stroke-linejoin="round"/>
<path d="M136.274 72.6801V73.0001V72.6801Z" stroke="white" stroke-width="2.24" stroke-miterlimit="10" stroke-linecap="round" stroke-linejoin="round"/>
<path d="M136.274 73H135.954H136.274Z" stroke="white" stroke-width="2.24" stroke-miterlimit="10" stroke-linecap="round" stroke-linejoin="round"/>
<path d="M135.954 73V73.32V73Z" stroke="white" stroke-width="2.24" stroke-miterlimit="10" stroke-linecap="round" stroke-linejoin="round"/>
<path d="M135.954 73.3201V73.6401V73.3201Z" stroke="white" stroke-width="2.24" stroke-miterlimit="10" stroke-linecap="round" stroke-linejoin="round"/>
<path d="M135.954 73.64V73.96V73.64Z" stroke="white" stroke-width="2.24" stroke-miterlimit="10" stroke-linecap="round" stroke-linejoin="round"/>
<path d="M135.954 73.9601V74.2801V73.9601Z" stroke="white" stroke-width="2.24" stroke-miterlimit="10" stroke-linecap="round" stroke-linejoin="round"/>
<path d="M135.954 74.28V74.6V74.28Z" stroke="white" stroke-width="2.24" stroke-miterlimit="10" stroke-linecap="round" stroke-linejoin="round"/>
<path d="M135.954 74.6001V74.9201V74.6001Z" stroke="white" stroke-width="2.24" stroke-miterlimit="10" stroke-linecap="round" stroke-linejoin="round"/>
<path d="M135.954 74.92V75.24V74.92Z" stroke="white" stroke-width="2.24" stroke-miterlimit="10" stroke-linecap="round" stroke-linejoin="round"/>
<path d="M135.954 75.24L136.274 75.56L135.954 75.24Z" stroke="white" stroke-width="2.24" stroke-miterlimit="10" stroke-linecap="round" stroke-linejoin="round"/>
<path d="M136.274 75.5601L136.594 76.2001L136.274 75.5601Z" stroke="white" stroke-width="2.24" stroke-miterlimit="10" stroke-linecap="round" stroke-linejoin="round"/>
<path d="M136.594 76.2001L137.234 77.4801L136.594 76.2001Z" stroke="white" stroke-width="2.24" stroke-miterlimit="10" stroke-linecap="round" stroke-linejoin="round"/>
<path d="M137.234 77.48L139.154 79.72L137.234 77.48Z" stroke="white" stroke-width="2.24" stroke-miterlimit="10" stroke-linecap="round" stroke-linejoin="round"/>
<path d="M139.154 79.72L142.354 83.56L139.154 79.72Z" stroke="white" stroke-width="2.24" stroke-miterlimit="10" stroke-linecap="round" stroke-linejoin="round"/>
<path d="M142.354 83.5601L143.634 86.4401L142.354 83.5601Z" stroke="white" stroke-width="2.24" stroke-miterlimit="10" stroke-linecap="round" stroke-linejoin="round"/>
<path d="M143.634 86.4401V86.7601V86.4401Z" stroke="white" stroke-width="2.24" stroke-miterlimit="10" stroke-linecap="round" stroke-linejoin="round"/>
<path d="M143.634 86.76V87.08V86.76Z" stroke="white" stroke-width="2.24" stroke-miterlimit="10" stroke-linecap="round" stroke-linejoin="round"/>
<path d="M143.634 87.0801H143.314H143.634Z" stroke="white" stroke-width="2.24" stroke-miterlimit="10" stroke-linecap="round" stroke-linejoin="round"/>
<path d="M143.314 87.0801V87.4001V87.0801Z" stroke="white" stroke-width="2.24" stroke-miterlimit="10" stroke-linecap="round" stroke-linejoin="round"/>
<path d="M143.314 87.4V87.72V87.4Z" stroke="white" stroke-width="2.24" stroke-miterlimit="10" stroke-linecap="round" stroke-linejoin="round"/>
<path d="M143.314 87.72V88.04V87.72Z" stroke="white" stroke-width="2.24" stroke-miterlimit="10" stroke-linecap="round" stroke-linejoin="round"/>
<path d="M143.314 88.04L142.994 88.36L143.314 88.04Z" stroke="white" stroke-width="2.24" stroke-miterlimit="10" stroke-linecap="round" stroke-linejoin="round"/>
<path d="M142.994 88.3601L142.674 89.3201L142.994 88.3601Z" stroke="white" stroke-width="2.24" stroke-miterlimit="10" stroke-linecap="round" stroke-linejoin="round"/>
<path d="M142.674 89.3201L141.394 90.2801L142.674 89.3201Z" stroke="white" stroke-width="2.24" stroke-miterlimit="10" stroke-linecap="round" stroke-linejoin="round"/>
<path d="M141.394 90.28L138.834 92.2L141.394 90.28Z" stroke="white" stroke-width="2.24" stroke-miterlimit="10" stroke-linecap="round" stroke-linejoin="round"/>
<path d="M138.834 92.2001L134.994 93.8001L138.834 92.2001Z" stroke="white" stroke-width="2.24" stroke-miterlimit="10" stroke-linecap="round" stroke-linejoin="round"/>
<path d="M134.994 93.8L134.034 94.44L134.994 93.8Z" stroke="white" stroke-width="2.24" stroke-miterlimit="10" stroke-linecap="round" stroke-linejoin="round"/>
<path d="M629.714 56.6801V94.4401V56.6801Z" stroke="white" stroke-width="2.24" stroke-miterlimit="10" stroke-linecap="round" stroke-linejoin="round"/>
<path d="M132.114 94.4401L135.954 90.6001L132.114 94.4401Z" stroke="white" stroke-width="0.64" stroke-miterlimit="10" stroke-linecap="round" stroke-linejoin="round"/>
<path d="M121.234 94.4401L125.074 90.6001L121.234 94.4401Z" stroke="white" stroke-width="0.64" stroke-miterlimit="10" stroke-linecap="round" stroke-linejoin="round"/>
<path d="M110.674 94.4401L114.514 90.6001L110.674 94.4401Z" stroke="white" stroke-width="0.64" stroke-miterlimit="10" stroke-linecap="round" stroke-linejoin="round"/>
<path d="M144.594 60.2001L148.434 56.6801L144.594 60.2001Z" stroke="white" stroke-width="0.64" stroke-miterlimit="10" stroke-linecap="round" stroke-linejoin="round"/>
<path d="M134.034 60.2001L137.874 56.6801L134.034 60.2001Z" stroke="white" stroke-width="0.64" stroke-miterlimit="10" stroke-linecap="round" stroke-linejoin="round"/>
<path d="M100.114 94.4401L103.634 90.6001L100.114 94.4401Z" stroke="white" stroke-width="0.64" stroke-miterlimit="10" stroke-linecap="round" stroke-linejoin="round"/>
<path d="M89.2336 94.4401L93.0736 90.6001L89.2336 94.4401Z" stroke="white" stroke-width="0.64" stroke-miterlimit="10" stroke-linecap="round" stroke-linejoin="round"/>
<path d="M123.154 60.2001L126.994 56.6801L123.154 60.2001Z" stroke="white" stroke-width="0.64" stroke-miterlimit="10" stroke-linecap="round" stroke-linejoin="round"/>
<path d="M112.594 60.2001L116.434 56.6801L112.594 60.2001Z" stroke="white" stroke-width="0.64" stroke-miterlimit="10" stroke-linecap="round" stroke-linejoin="round"/>
<path d="M78.6738 94.4401L82.5138 90.6001L78.6738 94.4401Z" stroke="white" stroke-width="0.64" stroke-miterlimit="10" stroke-linecap="round" stroke-linejoin="round"/>
<path d="M70.0337 92.2001L71.6337 90.6001L70.0337 92.2001Z" stroke="white" stroke-width="0.64" stroke-miterlimit="10" stroke-linecap="round" stroke-linejoin="round"/>
<path d="M102.034 60.2001L105.554 56.6801L102.034 60.2001Z" stroke="white" stroke-width="0.64" stroke-miterlimit="10" stroke-linecap="round" stroke-linejoin="round"/>
<path d="M91.1538 60.2001L94.9938 56.6801L91.1538 60.2001Z" stroke="white" stroke-width="0.64" stroke-miterlimit="10" stroke-linecap="round" stroke-linejoin="round"/>
<path d="M80.5938 60.2001L84.4337 56.6801L80.5938 60.2001Z" stroke="white" stroke-width="0.64" stroke-miterlimit="10" stroke-linecap="round" stroke-linejoin="round"/>
<path d="M70.0337 60.2001L73.5537 56.6801L70.0337 60.2001Z" stroke="white" stroke-width="0.64" stroke-miterlimit="10" stroke-linecap="round" stroke-linejoin="round"/>

    <!--    1 A-->
    <g class="group">
    </g>
    <!--    2 D-->
    <g class="group">
        <path d="M27.2508 75.5417V82.1669L7.07666 74.8235V67.9048C7.07666 65.8222 7.48054 64.1871 8.28829 62.9995C9.08948 61.8096 10.242 61.0934 11.7459 60.8511C13.2432 60.6064 15.036 60.8642 17.1243 61.6243C19.2258 62.3892 21.035 63.4462 22.552 64.7951C24.0625 66.1416 25.2249 67.7248 26.0392 69.5447C26.8469 71.3623 27.2508 73.3613 27.2508 75.5417ZM25.0837 78.7783V74.9206C25.0837 73.1455 24.7619 71.5572 24.1183 70.1559C23.4747 68.7545 22.5586 67.551 21.37 66.5452C20.1813 65.5395 18.7661 64.7378 17.1243 64.1402C15.4957 63.5474 14.0936 63.3201 12.9181 63.4583C11.736 63.5941 10.8298 64.1098 10.1993 65.0055C9.56231 65.8988 9.24381 67.1841 9.24381 68.8614V73.0126L25.0837 78.7783Z" fill="white"/>
        <path d="M48.9139 57.0001C49.0906 57.0001 49.2339 56.8568 49.2339 56.6801C49.2339 56.5033 49.0906 56.3601 48.9139 56.3601V57.0001ZM29.7139 56.3601C29.5371 56.3601 29.3939 56.5033 29.3939 56.6801C29.3939 56.8568 29.5371 57.0001 29.7139 57.0001V56.3601ZM48.9139 94.7601C49.0906 94.7601 49.2339 94.6168 49.2339 94.4401C49.2339 94.2633 49.0906 94.1201 48.9139 94.1201V94.7601ZM29.7139 94.1201C29.5371 94.1201 29.3939 94.2633 29.3939 94.4401C29.3939 94.6168 29.5371 94.7601 29.7139 94.7601V94.1201ZM27.2508 82.1669L27.1414 82.4676C27.2395 82.5033 27.3488 82.489 27.4344 82.4291C27.5199 82.3692 27.5708 82.2713 27.5708 82.1669H27.2508ZM7.07666 74.8235H6.75666C6.75666 74.9581 6.8408 75.0782 6.96721 75.1242L7.07666 74.8235ZM8.28829 62.9995L8.55289 63.1795L8.55373 63.1782L8.28829 62.9995ZM11.7459 60.8511L11.7968 61.1671L11.7975 61.1669L11.7459 60.8511ZM17.1243 61.6243L17.0149 61.925L17.1243 61.6243ZM22.552 64.7951L22.765 64.5562L22.7647 64.5559L22.552 64.7951ZM26.0392 69.5447L26.3316 69.4148L26.3313 69.414L26.0392 69.5447ZM25.0837 78.7783L24.9742 79.079C25.0723 79.1147 25.1817 79.1003 25.2672 79.0405C25.3527 78.9806 25.4037 78.8827 25.4037 78.7783H25.0837ZM17.1243 64.1402L17.0149 64.4409L17.1243 64.1402ZM12.9181 63.4583L12.9546 63.7762L12.9555 63.7761L12.9181 63.4583ZM10.1993 65.0055L10.4599 65.1913L10.461 65.1897L10.1993 65.0055ZM9.24381 73.0126H8.92381C8.92381 73.1471 9.00794 73.2673 9.13435 73.3133L9.24381 73.0126ZM39.6337 37.8L39.9508 37.843C39.9682 37.7152 39.907 37.5895 39.7958 37.5241C39.6845 37.4588 39.5449 37.4666 39.4417 37.544L39.6337 37.8ZM37.0737 39.72L37.0737 40.04L37.0737 40.04L37.0737 39.72ZM34.8337 37.8L35.042 37.5571C34.9419 37.4713 34.7994 37.4557 34.6831 37.5177C34.5668 37.5798 34.5004 37.7068 34.516 37.8378L34.8337 37.8ZM37.3937 30.12C37.3937 29.9433 37.2505 29.8 37.0737 29.8C36.897 29.8 36.7537 29.9433 36.7537 30.12H37.3937ZM34.8337 113.32L34.516 113.282C34.5004 113.413 34.5668 113.54 34.6831 113.602C34.7994 113.664 34.9419 113.649 35.042 113.563L34.8337 113.32ZM37.0737 111.4L37.0737 111.08L37.0737 111.08L37.0737 111.4ZM39.6337 113.32L39.4417 113.576C39.5449 113.653 39.6845 113.661 39.7958 113.596C39.907 113.531 39.9682 113.405 39.9508 113.277L39.6337 113.32ZM36.7537 120.68C36.7537 120.857 36.897 121 37.0737 121C37.2505 121 37.3937 120.857 37.3937 120.68L36.7537 120.68ZM48.9139 56.3601H29.7139V57.0001H48.9139V56.3601ZM48.9139 94.1201H29.7139V94.7601H48.9139V94.1201ZM26.9308 75.5417V82.1669H27.5708V75.5417H26.9308ZM27.3603 81.8662L7.18611 74.5228L6.96721 75.1242L27.1414 82.4676L27.3603 81.8662ZM7.39666 74.8235V67.9048H6.75666V74.8235H7.39666ZM7.39666 67.9048C7.39666 65.8589 7.79411 64.2951 8.55289 63.1795L8.0237 62.8196C7.16697 64.0791 6.75666 65.7855 6.75666 67.9048H7.39666ZM8.55373 63.1782C9.30214 62.0667 10.3743 61.3962 11.7968 61.167L11.695 60.5352C10.1097 60.7906 8.87682 61.5525 8.02285 62.8208L8.55373 63.1782ZM11.7975 61.1669C13.2213 60.9342 14.9557 61.1755 17.0149 61.925L17.2338 61.3236C15.1163 60.5528 13.2651 60.2786 11.6943 60.5353L11.7975 61.1669ZM17.0149 61.925C19.0822 62.6775 20.8555 63.7148 22.3394 65.0342L22.7647 64.5559C21.2146 63.1776 19.3694 62.101 17.2338 61.3236L17.0149 61.925ZM22.3391 65.0339C23.8163 66.3508 24.9515 67.8973 25.7471 69.6754L26.3313 69.414C25.4982 67.5522 24.3086 65.9323 22.765 64.5562L22.3391 65.0339ZM25.7468 69.6747C26.5346 71.4475 26.9308 73.4017 26.9308 75.5417H27.5708C27.5708 73.3208 27.1592 71.277 26.3316 69.4148L25.7468 69.6747ZM25.4037 78.7783V74.9206H24.7637V78.7783H25.4037ZM25.4037 74.9206C25.4037 73.1063 25.0746 71.4715 24.4091 70.0223L23.8275 70.2894C24.4491 71.643 24.7637 73.1846 24.7637 74.9206H25.4037ZM24.4091 70.0223C23.7458 68.5779 22.8008 67.3367 21.5767 66.3009L21.1633 66.7895C22.3165 67.7653 23.2037 68.9311 23.8275 70.2894L24.4091 70.0223ZM21.5767 66.3009C20.3559 65.268 18.9068 64.4485 17.2338 63.8395L17.0149 64.4409C18.6255 65.0272 20.0068 65.811 21.1633 66.7895L21.5767 66.3009ZM17.2338 63.8395C15.5784 63.2369 14.1235 62.9944 12.8807 63.1405L12.9555 63.7761C14.0637 63.6458 15.413 63.8578 17.0149 64.4409L17.2338 63.8395ZM12.8816 63.1404C11.6176 63.2856 10.6255 63.844 9.93764 64.8213L10.461 65.1897C11.034 64.3756 11.8544 63.9026 12.9546 63.7762L12.8816 63.1404ZM9.93878 64.8197C9.24754 65.7891 8.92381 67.1505 8.92381 68.8614H9.56381C9.56381 67.2177 9.87708 66.0086 10.4599 65.1913L9.93878 64.8197ZM8.92381 68.8614V73.0126H9.56381V68.8614H8.92381ZM9.13435 73.3133L24.9742 79.079L25.1931 78.4776L9.35326 72.7119L9.13435 73.3133ZM37.3908 56.723L39.9508 37.843L39.3166 37.7571L36.7566 56.6371L37.3908 56.723ZM39.4417 37.544L36.8817 39.464L37.2657 39.976L39.8257 38.056L39.4417 37.544ZM37.282 39.4771L35.042 37.5571L34.6255 38.043L36.8655 39.963L37.282 39.4771ZM34.516 37.8378L36.7559 56.7177L37.3915 56.6423L35.1515 37.7623L34.516 37.8378ZM37.3937 56.68V30.12H36.7537V56.68H37.3937ZM39.3137 38.44H39.6337V37.8H39.3137V38.44ZM38.9937 38.76H39.6337V38.12H38.9937V38.76ZM38.3537 39.08H39.6337V38.44H38.3537V39.08ZM38.0337 39.4H39.6337V38.76H38.0337V39.4ZM37.7137 39.72H39.6337V39.08H37.7137V39.72ZM37.0737 40.04L39.6337 40.04L39.6337 39.4L37.0737 39.4L37.0737 40.04ZM37.0737 54.44H37.7137V53.8H37.0737V54.44ZM37.0737 54.76H37.3937V54.12H37.0737V54.76ZM37.0737 55.08H37.3937V54.44H37.0737V55.08ZM37.0737 55.4H37.3937V54.76H37.0737V55.4ZM37.0737 55.72H37.3937V55.08H37.0737V55.72ZM37.0737 56.04H37.3937V55.4H37.0737V56.04ZM37.0737 56.36H37.3937V55.72H37.0737V56.36ZM37.0737 56.68H37.3937V56.04H37.0737V56.68ZM35.1538 38.44H35.4738V37.8H35.1538V38.44ZM35.1538 38.76H35.7938V38.12H35.1538V38.76ZM35.1538 39.08H36.1138V38.44H35.1538V39.08ZM35.1538 39.4H36.4338V38.76H35.1538V39.4ZM35.1538 39.72H36.7538V39.08H35.1538V39.72ZM35.1538 40.04L37.0737 40.04L37.0737 39.4L35.1538 39.4L35.1538 40.04ZM36.756 94.4024L34.516 113.282L35.1515 113.358L37.3915 94.4778L36.756 94.4024ZM35.042 113.563L37.282 111.643L36.8655 111.157L34.6255 113.077L35.042 113.563ZM36.8817 111.656L39.4417 113.576L39.8257 113.064L37.2657 111.144L36.8817 111.656ZM39.9508 113.277L37.3908 94.3971L36.7566 94.4831L39.3166 113.363L39.9508 113.277ZM36.7537 94.4401L36.7537 120.68L37.3937 120.68L37.3937 94.4401L36.7537 94.4401ZM35.1538 111.72L37.0737 111.72L37.0737 111.08L35.1538 111.08L35.1538 111.72ZM35.1538 112.04H36.7538V111.4H35.1538V112.04ZM35.1538 112.36H36.4338V111.72H35.1538V112.36ZM35.1538 112.68H36.1138V112.04H35.1538V112.68ZM35.1538 113H35.7938V112.36H35.1538V113ZM35.1538 113.32H35.4738V112.68H35.1538V113.32ZM37.0737 95.08H37.3937V94.44H37.0737V95.08ZM37.0737 95.4H37.3937V94.76H37.0737V95.4ZM37.0737 95.72H37.3937V95.08H37.0737V95.72ZM37.0737 96.04H37.3937V95.4H37.0737V96.04ZM37.0737 96.36H37.3937V95.72H37.0737V96.36ZM37.0737 96.68H37.3937V96.04H37.0737V96.68ZM37.0737 97H37.3937V96.36H37.0737V97ZM37.0737 97.32H37.7137V96.68H37.0737V97.32ZM37.0737 111.72L39.6337 111.72L39.6337 111.08L37.0737 111.08L37.0737 111.72ZM37.7137 112.04H39.6337V111.4H37.7137V112.04ZM38.0337 112.36H39.6337V111.72H38.0337V112.36ZM38.3537 112.68H39.6337V112.04H38.3537V112.68ZM38.9937 113H39.6337V112.36H38.9937V113ZM39.3137 113.32H39.6337V112.68H39.3137V113.32ZM36.7537 56.68L36.7537 94.4401L37.3937 94.4401L37.3937 56.68L36.7537 56.68ZM35.1538 40.36H39.6337V39.72H35.1538V40.36ZM35.1538 40.68H39.3137V40.04H35.1538V40.68ZM35.4738 41H39.3137V40.36H35.4738V41ZM35.4738 41.32H39.3137V40.68H35.4738V41.32ZM35.4738 41.64H39.3137V41H35.4738V41.64ZM35.4738 41.96H39.3137V41.32H35.4738V41.96ZM35.4738 42.28H39.3137V41.64H35.4738V42.28ZM35.4738 42.6H39.3137V41.96H35.4738V42.6ZM35.4738 42.92H38.9937V42.28H35.4738V42.92ZM35.4738 43.24H38.9937V42.6H35.4738V43.24ZM35.7938 43.56H38.9937V42.92H35.7938V43.56ZM35.7938 43.88H38.9937V43.24H35.7938V43.88ZM35.7938 44.2H38.9937V43.56H35.7938V44.2ZM35.7938 44.52H38.9937V43.88H35.7938V44.52ZM35.7938 44.84H38.9937V44.2H35.7938V44.84ZM35.7938 45.16H38.9937V44.52H35.7938V45.16ZM35.7938 45.48H38.6737V44.84H35.7938V45.48ZM35.7938 45.8H38.6737V45.16H35.7938V45.8ZM35.7938 46.12H38.6737V45.48H35.7938V46.12ZM36.1138 46.44H38.6737V45.8H36.1138V46.44ZM36.1138 46.76H38.6737V46.12H36.1138V46.76ZM36.1138 47.08H38.6737V46.44H36.1138V47.08ZM36.1138 47.4H38.6737V46.76H36.1138V47.4ZM36.1138 47.72H38.3537V47.08H36.1138V47.72ZM36.1138 48.04H38.3537V47.4H36.1138V48.04ZM36.1138 48.36H38.3537V47.72H36.1138V48.36ZM36.1138 48.68H38.3537V48.04H36.1138V48.68ZM36.4338 49H38.3537V48.36H36.4338V49ZM36.4338 49.32H38.3537V48.68H36.4338V49.32ZM36.4338 49.64H38.3537V49H36.4338V49.64ZM36.4338 49.96H38.0337V49.32H36.4338V49.96ZM36.4338 50.28H38.0337V49.64H36.4338V50.28ZM36.4338 50.6H38.0337V49.96H36.4338V50.6ZM36.4338 50.92H38.0337V50.28H36.4338V50.92ZM36.4338 51.24H38.0337V50.6H36.4338V51.24ZM36.4338 51.56H38.0337V50.92H36.4338V51.56ZM36.7538 51.88H38.0337V51.24H36.7538V51.88ZM36.7538 52.2H38.0337V51.56H36.7538V52.2ZM36.7538 52.52H37.7137V51.88H36.7538V52.52ZM36.7538 52.84H37.7137V52.2H36.7538V52.84ZM36.7538 53.16H37.7137V52.52H36.7538V53.16ZM36.7538 53.48H37.7137V52.84H36.7538V53.48ZM36.7538 53.8H37.7137V53.16H36.7538V53.8ZM36.7538 54.12H37.7137V53.48H36.7538V54.12ZM36.7538 97.6401L37.7137 97.64L37.7137 97L36.7538 97.0001L36.7538 97.6401ZM36.7538 97.9601L37.7137 97.96L37.7137 97.32L36.7538 97.3201L36.7538 97.9601ZM36.7538 98.2801L37.7137 98.28L37.7137 97.64L36.7538 97.6401L36.7538 98.2801ZM36.7538 98.6001L37.7137 98.6L37.7137 97.96L36.7538 97.9601L36.7538 98.6001ZM36.7538 98.9201L37.7137 98.92L37.7137 98.28L36.7538 98.2801L36.7538 98.9201ZM36.7538 99.2401L37.7137 99.24L37.7137 98.6L36.7538 98.6001L36.7538 99.2401ZM36.7538 99.5601L38.0337 99.56L38.0337 98.92L36.7538 98.9201L36.7538 99.5601ZM36.7538 99.8801L38.0337 99.88L38.0337 99.24L36.7538 99.2401L36.7538 99.8801ZM36.4338 100.2L38.0337 100.2L38.0337 99.56L36.4338 99.5601L36.4338 100.2ZM36.4338 100.52L38.0337 100.52L38.0337 99.88L36.4338 99.8801L36.4338 100.52ZM36.4338 100.84L38.0337 100.84L38.0337 100.2L36.4338 100.2L36.4338 100.84ZM36.4338 101.16L38.0337 101.16L38.0337 100.52L36.4338 100.52L36.4338 101.16ZM36.4338 101.48L38.0337 101.48L38.0337 100.84L36.4338 100.84L36.4338 101.48ZM36.4338 101.8L38.0337 101.8L38.0337 101.16L36.4338 101.16L36.4338 101.8ZM36.4338 102.12L38.3537 102.12L38.3537 101.48L36.4338 101.48L36.4338 102.12ZM36.4338 102.44L38.3537 102.44L38.3537 101.8L36.4338 101.8L36.4338 102.44ZM36.4338 102.76L38.3537 102.76L38.3537 102.12L36.4338 102.12L36.4338 102.76ZM36.1138 103.08L38.3537 103.08L38.3537 102.44L36.1138 102.44L36.1138 103.08ZM36.1138 103.4L38.3537 103.4L38.3537 102.76L36.1138 102.76L36.1138 103.4ZM36.1138 103.72L38.3537 103.72L38.3537 103.08L36.1138 103.08L36.1138 103.72ZM36.1138 104.04L38.3537 104.04L38.3537 103.4L36.1138 103.4L36.1138 104.04ZM36.1138 104.36L38.6737 104.36L38.6737 103.72L36.1138 103.72L36.1138 104.36ZM36.1138 104.68L38.6737 104.68L38.6737 104.04L36.1138 104.04L36.1138 104.68ZM36.1138 105L38.6737 105L38.6737 104.36L36.1138 104.36L36.1138 105ZM36.1138 105.32L38.6737 105.32L38.6737 104.68L36.1138 104.68L36.1138 105.32ZM35.7938 105.64L38.6737 105.64L38.6737 105L35.7938 105L35.7938 105.64ZM35.7938 105.96L38.6737 105.96L38.6737 105.32L35.7938 105.32L35.7938 105.96ZM35.7938 106.28L38.6737 106.28L38.6737 105.64L35.7938 105.64L35.7938 106.28ZM35.7938 106.6L38.9937 106.6L38.9937 105.96L35.7938 105.96L35.7938 106.6ZM35.7938 106.92L38.9937 106.92L38.9937 106.28L35.7938 106.28L35.7938 106.92ZM35.7938 107.24L38.9937 107.24L38.9937 106.6L35.7938 106.6L35.7938 107.24ZM35.7938 107.56L38.9937 107.56L38.9937 106.92L35.7938 106.92L35.7938 107.56ZM35.7938 107.88L38.9937 107.88L38.9937 107.24L35.7938 107.24L35.7938 107.88ZM35.7938 108.2L38.9937 108.2L38.9937 107.56L35.7938 107.56L35.7938 108.2ZM35.4738 108.52L38.9937 108.52L38.9937 107.88L35.4738 107.88L35.4738 108.52ZM35.4738 108.84L38.9937 108.84L38.9937 108.2L35.4738 108.2L35.4738 108.84ZM35.4738 109.16L39.3137 109.16L39.3137 108.52L35.4738 108.52L35.4738 109.16ZM35.4738 109.48L39.3137 109.48L39.3137 108.84L35.4738 108.84L35.4738 109.48ZM35.4738 109.8L39.3137 109.8L39.3137 109.16L35.4738 109.16L35.4738 109.8ZM35.4738 110.12L39.3137 110.12L39.3137 109.48L35.4738 109.48L35.4738 110.12ZM35.4738 110.44L39.3137 110.44L39.3137 109.8L35.4738 109.8L35.4738 110.44ZM35.4738 110.76L39.3137 110.76L39.3137 110.12L35.4738 110.12L35.4738 110.76ZM35.1538 111.08L39.3137 111.08L39.3137 110.44L35.1538 110.44L35.1538 111.08ZM35.1538 111.4L39.6337 111.4L39.6337 110.76L35.1538 110.76L35.1538 111.4Z" fill="white"/>
    </g>
    <!--    3 Dy-->
    <g class="group">
    </g>
    <!--    4 Dh-->
    <g class="group">
    </g>
    <!--    5 D1-->
    <g class="group">
    </g>
    <!--   6 D2-->
    <g class="group">
    </g>
    <!--   7 d-->
    <g class="group">
        <path d="M663.106 75.787C663.106 77.1288 662.787 78.1975 662.15 78.9929C661.507 79.786 660.6 80.2598 659.432 80.4144C658.256 80.5665 656.867 80.351 655.265 79.7677C653.675 79.1893 652.296 78.3972 651.127 77.3917C649.958 76.3861 649.056 75.2503 648.418 73.9841C647.781 72.7179 647.463 71.4069 647.463 70.0511C647.463 69.0028 647.627 68.2344 647.956 67.7459C648.277 67.248 648.645 66.9137 649.059 66.7428C649.466 66.5625 649.801 66.4294 650.064 66.3433V66.1336L642.616 63.4229V60.9489L662.791 68.2923V70.6824L660.466 69.8362V70.1297C660.742 70.4118 661.09 70.7971 661.51 71.2855C661.924 71.7716 662.295 72.3854 662.623 73.1269C662.945 73.866 663.106 74.7527 663.106 75.787ZM661.017 74.6914C661.017 73.699 660.775 72.7719 660.289 71.9102C659.796 71.046 659.116 70.2779 658.249 69.606C657.376 68.9316 656.368 68.3865 655.225 67.9706C654.096 67.5594 653.107 67.3744 652.26 67.4154C651.407 67.4541 650.743 67.7298 650.27 68.2426C649.791 68.753 649.551 69.5114 649.551 70.5177C649.551 71.566 649.804 72.5316 650.31 73.4146C650.809 74.2881 651.489 75.0562 652.349 75.7187C653.203 76.3719 654.161 76.8922 655.225 77.2794C656.302 77.6714 657.281 77.8529 658.161 77.8238C659.034 77.7853 659.73 77.5145 660.249 77.0115C660.761 76.4991 661.017 75.7257 661.017 74.6914Z" fill="white"/>
        <path d="M643.474 56.3601C643.297 56.3601 643.154 56.5033 643.154 56.6801C643.154 56.8568 643.297 57.0001 643.474 57.0001V56.3601ZM680.274 57.0001C680.451 57.0001 680.594 56.8568 680.594 56.6801C680.594 56.5033 680.451 56.3601 680.274 56.3601V57.0001ZM643.474 94.1201C643.297 94.1201 643.154 94.2633 643.154 94.4401C643.154 94.6168 643.297 94.7601 643.474 94.7601V94.1201ZM680.274 94.7601C680.451 94.7601 680.594 94.6168 680.594 94.4401C680.594 94.2633 680.451 94.1201 680.274 94.1201V94.7601ZM662.15 78.9929L662.399 79.1946L662.4 79.193L662.15 78.9929ZM659.432 80.4144L659.473 80.7317L659.473 80.7316L659.432 80.4144ZM655.265 79.7677L655.374 79.467L655.265 79.7677ZM651.127 77.3917L650.919 77.6343L650.919 77.6343L651.127 77.3917ZM648.418 73.9841L648.133 74.1279L648.133 74.1279L648.418 73.9841ZM647.956 67.7459L648.221 67.9245L648.224 67.9196L647.956 67.7459ZM649.059 66.7428L649.181 67.0386L649.188 67.0354L649.059 66.7428ZM650.064 66.3433L650.163 66.6474C650.295 66.6043 650.384 66.4816 650.384 66.3433H650.064ZM650.064 66.1336H650.384C650.384 65.9991 650.299 65.8789 650.173 65.8329L650.064 66.1336ZM642.616 63.4229H642.296C642.296 63.5574 642.381 63.6776 642.507 63.7236L642.616 63.4229ZM642.616 60.9489L642.726 60.6482C642.628 60.6125 642.518 60.6269 642.433 60.6868C642.347 60.7466 642.296 60.8445 642.296 60.9489H642.616ZM662.791 68.2923H663.111C663.111 68.1578 663.026 68.0376 662.9 67.9916L662.791 68.2923ZM662.791 70.6824L662.681 70.9831C662.779 71.0188 662.889 71.0044 662.974 70.9445C663.06 70.8846 663.111 70.7868 663.111 70.6824H662.791ZM660.466 69.8362L660.575 69.5355C660.477 69.4998 660.368 69.5142 660.282 69.5741C660.197 69.6339 660.146 69.7318 660.146 69.8362H660.466ZM660.466 70.1297H660.146C660.146 70.2133 660.179 70.2936 660.237 70.3534L660.466 70.1297ZM661.51 71.2855L661.754 71.0781L661.753 71.0768L661.51 71.2855ZM662.623 73.1269L662.917 72.9991L662.916 72.9973L662.623 73.1269ZM660.289 71.9102L660.567 71.753L660.567 71.7517L660.289 71.9102ZM658.249 69.606L658.446 69.3531L658.445 69.3527L658.249 69.606ZM655.225 67.9706L655.116 68.2713L655.116 68.2713L655.225 67.9706ZM652.26 67.4154L652.275 67.7351L652.276 67.735L652.26 67.4154ZM650.27 68.2426L650.504 68.4617L650.506 68.4595L650.27 68.2426ZM650.31 73.4146L650.588 73.2558L650.588 73.2555L650.31 73.4146ZM652.349 75.7187L652.154 75.9723L652.154 75.9729L652.349 75.7187ZM655.225 77.2794L655.335 76.9787L655.225 77.2794ZM658.161 77.8238L658.171 78.1436L658.175 78.1435L658.161 77.8238ZM660.249 77.0115L660.472 77.2413L660.475 77.2377L660.249 77.0115ZM675.154 37.8L675.472 37.8378C675.487 37.7068 675.421 37.5798 675.304 37.5177C675.188 37.4557 675.046 37.4713 674.946 37.5571L675.154 37.8ZM672.914 39.72L672.914 40.04L672.914 40.04L672.914 39.72ZM670.354 37.8L670.546 37.544C670.443 37.4666 670.303 37.4588 670.192 37.5241C670.08 37.5895 670.019 37.7152 670.037 37.843L670.354 37.8ZM673.234 30.12C673.234 29.9433 673.091 29.8 672.914 29.8C672.737 29.8 672.594 29.9433 672.594 30.12H673.234ZM670.354 113.32L670.037 113.277C670.019 113.405 670.08 113.531 670.192 113.596C670.303 113.661 670.443 113.653 670.546 113.576L670.354 113.32ZM675.154 113.32L674.946 113.563C675.046 113.649 675.188 113.664 675.304 113.602C675.421 113.54 675.487 113.413 675.472 113.282L675.154 113.32ZM672.594 120.68C672.594 120.857 672.737 121 672.914 121C673.091 121 673.234 120.857 673.234 120.68L672.594 120.68ZM643.474 57.0001H680.274V56.3601H643.474V57.0001ZM643.474 94.7601H680.274V94.1201H643.474V94.7601ZM662.786 75.787C662.786 77.0793 662.479 78.07 661.901 78.7929L662.4 79.193C663.095 78.325 663.426 77.1784 663.426 75.787H662.786ZM661.902 78.7913C661.318 79.511 660.491 79.9515 659.39 80.0971L659.473 80.7316C660.71 80.5681 661.696 80.061 662.399 79.1946L661.902 78.7913ZM659.39 80.097C658.283 80.2404 656.948 80.04 655.374 79.467L655.155 80.0684C656.786 80.6621 658.229 80.8927 659.473 80.7317L659.39 80.097ZM655.374 79.467C653.818 78.9005 652.473 78.1271 651.336 77.1491L650.919 77.6343C652.12 78.6674 653.533 79.478 655.155 80.0684L655.374 79.467ZM651.336 77.1491C650.196 76.1686 649.321 75.0656 648.704 73.8403L648.133 74.1279C648.79 75.435 649.721 76.6036 650.919 77.6343L651.336 77.1491ZM648.704 73.8403C648.089 72.6166 647.783 71.3547 647.783 70.0511H647.143C647.143 71.4591 647.474 72.8192 648.133 74.1279L648.704 73.8403ZM647.783 70.0511C647.783 69.023 647.946 68.333 648.221 67.9244L647.69 67.5674C647.308 68.1358 647.143 68.9826 647.143 70.0511H647.783ZM648.224 67.9196C648.522 67.4589 648.844 67.1777 649.181 67.0386L648.937 66.447C648.446 66.6497 648.033 67.0372 647.687 67.5722L648.224 67.9196ZM649.188 67.0354C649.591 66.8572 649.915 66.7287 650.163 66.6474L649.964 66.0392C649.687 66.13 649.341 66.2679 648.929 66.4502L649.188 67.0354ZM650.384 66.3433V66.1336H649.744V66.3433H650.384ZM650.173 65.8329L642.726 63.1222L642.507 63.7236L649.954 66.4343L650.173 65.8329ZM642.936 63.4229V60.9489H642.296V63.4229H642.936ZM642.507 61.2496L662.681 68.593L662.9 67.9916L642.726 60.6482L642.507 61.2496ZM662.471 68.2923V70.6824H663.111V68.2923H662.471ZM662.9 70.3817L660.575 69.5355L660.356 70.1369L662.681 70.9831L662.9 70.3817ZM660.146 69.8362V70.1297H660.786V69.8362H660.146ZM660.237 70.3534C660.506 70.6286 660.849 71.0082 661.267 71.4942L661.753 71.0768C661.33 70.586 660.977 70.195 660.695 69.906L660.237 70.3534ZM661.266 71.4929C661.656 71.9502 662.011 72.5359 662.331 73.2564L662.916 72.9973C662.578 72.2348 662.192 71.593 661.754 71.0781L661.266 71.4929ZM662.33 73.2546C662.63 73.9437 662.786 74.7847 662.786 75.787H663.426C663.426 74.7207 663.26 73.7882 662.917 72.9991L662.33 73.2546ZM661.337 74.6914C661.337 73.6441 661.08 72.6629 660.567 71.753L660.01 72.0673C660.469 72.881 660.697 73.7539 660.697 74.6914H661.337ZM660.567 71.7517C660.051 70.8474 659.342 70.0482 658.446 69.3531L658.053 69.8589C658.89 70.5077 659.541 71.2446 660.011 72.0686L660.567 71.7517ZM658.445 69.3527C657.543 68.6563 656.505 68.0959 655.335 67.6699L655.116 68.2713C656.231 68.6771 657.209 69.207 658.054 69.8593L658.445 69.3527ZM655.335 67.6699C654.181 67.2498 653.148 67.052 652.245 67.0958L652.276 67.735C653.067 67.6967 654.011 67.869 655.116 68.2713L655.335 67.6699ZM652.246 67.0958C651.328 67.1373 650.578 67.4375 650.035 68.0257L650.506 68.4595C650.909 68.0222 651.485 67.7709 652.275 67.7351L652.246 67.0958ZM650.037 68.0235C649.482 68.6148 649.231 69.4654 649.231 70.5177H649.871C649.871 69.5573 650.1 68.8912 650.504 68.4617L650.037 68.0235ZM649.231 70.5177C649.231 71.62 649.498 72.6407 650.032 73.5736L650.588 73.2555C650.11 72.4225 649.871 71.512 649.871 70.5177H649.231ZM650.032 73.5733C650.554 74.4864 651.263 75.2859 652.154 75.9723L652.544 75.4652C651.715 74.8264 651.064 74.0898 650.588 73.2558L650.032 73.5733ZM652.154 75.9729C653.035 76.6469 654.023 77.1823 655.116 77.5801L655.335 76.9787C654.3 76.602 653.37 76.097 652.543 75.4646L652.154 75.9729ZM655.116 77.5801C656.22 77.9821 657.24 78.1744 658.171 78.1436L658.15 77.504C657.321 77.5314 656.384 77.3608 655.335 76.9787L655.116 77.5801ZM658.175 78.1435C659.109 78.1023 659.886 77.8097 660.472 77.2412L660.026 76.7818C659.575 77.2194 658.959 77.4683 658.147 77.5041L658.175 78.1435ZM660.475 77.2377C661.069 76.6436 661.337 75.774 661.337 74.6914H660.697C660.697 75.6774 660.453 76.3545 660.023 76.7853L660.475 77.2377ZM673.232 56.7177L675.472 37.8378L674.836 37.7623L672.596 56.6423L673.232 56.7177ZM674.946 37.5571L672.706 39.4771L673.122 39.963L675.362 38.043L674.946 37.5571ZM673.106 39.464L670.546 37.544L670.162 38.0561L672.722 39.9761L673.106 39.464ZM670.037 37.843L672.597 56.723L673.231 56.6371L670.671 37.7571L670.037 37.843ZM673.234 56.68V30.12H672.594V56.68H673.234ZM674.834 38.44H675.154V37.8H674.834V38.44ZM674.514 38.76H675.154V38.12H674.514V38.76ZM674.194 39.08H675.154V38.44H674.194V39.08ZM673.874 39.4H675.154V38.76H673.874V39.4ZM673.554 39.72H675.154V39.08H673.554V39.72ZM672.914 40.04L675.154 40.04L675.154 39.4L672.914 39.4L672.914 40.04ZM672.914 54.76H673.234V54.12H672.914V54.76ZM672.914 55.08H673.234V54.44H672.914V55.08ZM672.914 55.4H673.234V54.76H672.914V55.4ZM672.914 55.72H673.234V55.08H672.914V55.72ZM672.914 56.04H673.234V55.4H672.914V56.04ZM672.914 56.36H673.234V55.72H672.914V56.36ZM672.914 56.68H673.234V56.04H672.914V56.68ZM670.674 38.44H670.994V37.8H670.674V38.44ZM670.674 38.76H671.314V38.12H670.674V38.76ZM670.674 39.08H671.634V38.44H670.674V39.08ZM670.674 39.4H672.274V38.76H670.674V39.4ZM670.674 39.72H672.594V39.08H670.674V39.72ZM670.674 40.04L672.914 40.04L672.914 39.4L670.674 39.4L670.674 40.04ZM672.597 94.3971L670.037 113.277L670.671 113.363L673.231 94.4831L672.597 94.3971ZM670.546 113.576L673.106 111.656L672.722 111.144L670.162 113.064L670.546 113.576ZM672.705 111.643L674.946 113.563L675.362 113.077L673.122 111.157L672.705 111.643ZM675.472 113.282L673.232 94.4024L672.596 94.4778L674.836 113.358L675.472 113.282ZM672.594 94.4401L672.594 120.68L673.234 120.68L673.234 94.4401L672.594 94.4401ZM670.674 111.72L672.914 111.72L672.914 111.08L670.674 111.08L670.674 111.72ZM670.674 112.04H672.594V111.4H670.674V112.04ZM670.674 112.36H672.274V111.72H670.674V112.36ZM670.674 112.68H671.634V112.04H670.674V112.68ZM670.674 113H671.314V112.36H670.674V113ZM670.674 113.32H670.994V112.68H670.674V113.32ZM672.914 95.08H673.234V94.44H672.914V95.08ZM672.914 95.4H673.234V94.76H672.914V95.4ZM672.914 95.72H673.234V95.08H672.914V95.72ZM672.914 96.04H673.234V95.4H672.914V96.04ZM672.914 96.36H673.234V95.72H672.914V96.36ZM672.914 96.68H673.234V96.04H672.914V96.68ZM672.914 97H673.234V96.36H672.914V97ZM672.914 111.72L675.154 111.72L675.154 111.08L672.914 111.08L672.914 111.72ZM673.554 112.04H675.154V111.4H673.554V112.04ZM673.874 112.36H675.154V111.72H673.874V112.36ZM674.194 112.68H675.154V112.04H674.194V112.68ZM674.514 113H675.154V112.36H674.514V113ZM674.834 113.32H675.154V112.68H674.834V113.32ZM672.594 56.68L672.594 94.4401L673.234 94.4401L673.234 56.68L672.594 56.68ZM670.674 40.36H675.154V39.72H670.674V40.36ZM670.994 40.68H675.154V40.04H670.994V40.68ZM670.994 41H674.834V40.36H670.994V41ZM670.994 41.32H674.834V40.68H670.994V41.32ZM670.994 41.64H674.834V41H670.994V41.64ZM670.994 41.96H674.834V41.32H670.994V41.96ZM670.994 42.28H674.834V41.64H670.994V42.28ZM670.994 42.6H674.834V41.96H670.994V42.6ZM671.314 42.92H674.834V42.28H671.314V42.92ZM671.314 43.24H674.834V42.6H671.314V43.24ZM671.314 43.56H674.514V42.92H671.314V43.56ZM671.314 43.88H674.514V43.24H671.314V43.88ZM671.314 44.2H674.514V43.56H671.314V44.2ZM671.314 44.52H674.514V43.88H671.314V44.52ZM671.314 44.84H674.514V44.2H671.314V44.84ZM671.314 45.16H674.514V44.52H671.314V45.16ZM671.634 45.48H674.514V44.84H671.634V45.48ZM671.634 45.8H674.514V45.16H671.634V45.8ZM671.634 46.12H674.514V45.48H671.634V46.12ZM671.634 46.44H674.194V45.8H671.634V46.44ZM671.634 46.76H674.194V46.12H671.634V46.76ZM671.634 47.08H674.194V46.44H671.634V47.08ZM671.634 47.4H674.194V46.76H671.634V47.4ZM671.954 47.72H674.194V47.08H671.954V47.72ZM671.954 48.04H674.194V47.4H671.954V48.04ZM671.954 48.36H674.194V47.72H671.954V48.36ZM671.954 48.68H674.194V48.04H671.954V48.68ZM671.954 49H673.874V48.36H671.954V49ZM671.954 49.32H673.874V48.68H671.954V49.32ZM671.954 49.64H673.874V49H671.954V49.64ZM672.274 49.96H673.874V49.32H672.274V49.96ZM672.274 50.28H673.874V49.64H672.274V50.28ZM672.274 50.6H673.874V49.96H672.274V50.6ZM672.274 50.92H673.874V50.28H672.274V50.92ZM672.274 51.24H673.874V50.6H672.274V51.24ZM672.274 51.56H673.874V50.92H672.274V51.56ZM672.274 51.88H673.554V51.24H672.274V51.88ZM672.274 52.2H673.554V51.56H672.274V52.2ZM672.594 52.52H673.554V51.88H672.594V52.52ZM672.594 52.84H673.554V52.2H672.594V52.84ZM672.594 53.16H673.554V52.52H672.594V53.16ZM672.594 53.48H673.554V52.84H672.594V53.48ZM672.594 53.8H673.554V53.16H672.594V53.8ZM672.594 54.12H673.554V53.48H672.594V54.12ZM672.594 54.44H673.234V53.8H672.594V54.44ZM672.594 97.32L673.234 97.32L673.234 96.68L672.594 96.68L672.594 97.32ZM672.594 97.64L673.554 97.64L673.554 97L672.594 97L672.594 97.64ZM672.594 97.96L673.554 97.96L673.554 97.32L672.594 97.32L672.594 97.96ZM672.594 98.28L673.554 98.28L673.554 97.64L672.594 97.64L672.594 98.28ZM672.594 98.6L673.554 98.6L673.554 97.96L672.594 97.96L672.594 98.6ZM672.594 98.92L673.554 98.92L673.554 98.28L672.594 98.28L672.594 98.92ZM672.594 99.24L673.554 99.24L673.554 98.6L672.594 98.6L672.594 99.24ZM672.274 99.56L673.554 99.56L673.554 98.92L672.274 98.92L672.274 99.56ZM672.274 99.88L673.554 99.88L673.554 99.24L672.274 99.24L672.274 99.88ZM672.274 100.2L673.874 100.2L673.874 99.56L672.274 99.56L672.274 100.2ZM672.274 100.52L673.874 100.52L673.874 99.88L672.274 99.88L672.274 100.52ZM672.274 100.84L673.874 100.84L673.874 100.2L672.274 100.2L672.274 100.84ZM672.274 101.16L673.874 101.16L673.874 100.52L672.274 100.52L672.274 101.16ZM672.274 101.48L673.874 101.48L673.874 100.84L672.274 100.84L672.274 101.48ZM672.274 101.8L673.874 101.8L673.874 101.16L672.274 101.16L672.274 101.8ZM671.954 102.12L673.874 102.12L673.874 101.48L671.954 101.48L671.954 102.12ZM671.954 102.44L673.874 102.44L673.874 101.8L671.954 101.8L671.954 102.44ZM671.954 102.76L673.874 102.76L673.874 102.12L671.954 102.12L671.954 102.76ZM671.954 103.08L674.194 103.08L674.194 102.44L671.954 102.44L671.954 103.08ZM671.954 103.4L674.194 103.4L674.194 102.76L671.954 102.76L671.954 103.4ZM671.954 103.72L674.194 103.72L674.194 103.08L671.954 103.08L671.954 103.72ZM671.954 104.04L674.194 104.04L674.194 103.4L671.954 103.4L671.954 104.04ZM671.634 104.36L674.194 104.36L674.194 103.72L671.634 103.72L671.634 104.36ZM671.634 104.68L674.194 104.68L674.194 104.04L671.634 104.04L671.634 104.68ZM671.634 105L674.194 105L674.194 104.36L671.634 104.36L671.634 105ZM671.634 105.32L674.194 105.32L674.194 104.68L671.634 104.68L671.634 105.32ZM671.634 105.64L674.514 105.64L674.514 105L671.634 105L671.634 105.64ZM671.634 105.96L674.514 105.96L674.514 105.32L671.634 105.32L671.634 105.96ZM671.634 106.28L674.514 106.28L674.514 105.64L671.634 105.64L671.634 106.28ZM671.314 106.6L674.514 106.6L674.514 105.96L671.314 105.96L671.314 106.6ZM671.314 106.92L674.514 106.92L674.514 106.28L671.314 106.28L671.314 106.92ZM671.314 107.24L674.514 107.24L674.514 106.6L671.314 106.6L671.314 107.24ZM671.314 107.56L674.514 107.56L674.514 106.92L671.314 106.92L671.314 107.56ZM671.314 107.88L674.514 107.88L674.514 107.24L671.314 107.24L671.314 107.88ZM671.314 108.2L674.514 108.2L674.514 107.56L671.314 107.56L671.314 108.2ZM671.314 108.52L674.834 108.52L674.834 107.88L671.314 107.88L671.314 108.52ZM671.314 108.84L674.834 108.84L674.834 108.2L671.314 108.2L671.314 108.84ZM670.994 109.16L674.834 109.16L674.834 108.52L670.994 108.52L670.994 109.16ZM670.994 109.48L674.834 109.48L674.834 108.84L670.994 108.84L670.994 109.48ZM670.994 109.8L674.834 109.8L674.834 109.16L670.994 109.16L670.994 109.8ZM670.994 110.12L674.834 110.12L674.834 109.48L670.994 109.48L670.994 110.12ZM670.994 110.44L674.834 110.44L674.834 109.8L670.994 109.8L670.994 110.44ZM670.994 110.76L674.834 110.76L674.834 110.12L670.994 110.12L670.994 110.76ZM670.994 111.08L675.154 111.08L675.154 110.44L670.994 110.44L670.994 111.08ZM670.674 111.4L675.154 111.4L675.154 110.76L670.674 110.76L670.674 111.4Z" fill="white"/>
    </g>
    <!--    8 dH-->
    <g class="group">
    </g>
    <!--    9 d1-->
    <g class="group">
    </g>
    <!--    10 d2-->
    <g class="group">
    </g>
    <!--    11 L-->
    <g class="group">
        <path d="M143.173 137.585L150.517 117.411H153.116L146.562 135.418H156.542L155.753 137.585H143.173Z" fill="white"/>
        <path d="M70.3537 105.32C70.3537 105.143 70.2104 105 70.0337 105C69.857 105 69.7137 105.143 69.7137 105.32H70.3537ZM69.7137 155.24C69.7137 155.417 69.857 155.56 70.0337 155.56C70.2104 155.56 70.3537 155.417 70.3537 155.24H69.7137ZM227.474 105.32C227.474 105.143 227.331 105 227.154 105C226.977 105 226.834 105.143 226.834 105.32H227.474ZM226.834 155.24C226.834 155.417 226.977 155.56 227.154 155.56C227.331 155.56 227.474 155.417 227.474 155.24H226.834ZM143.173 137.585L142.872 137.476C142.837 137.574 142.851 137.683 142.911 137.769C142.971 137.854 143.069 137.905 143.173 137.905V137.585ZM150.517 117.411V117.091C150.382 117.091 150.262 117.175 150.216 117.302L150.517 117.411ZM153.116 117.411L153.417 117.521C153.453 117.422 153.438 117.313 153.378 117.228C153.319 117.142 153.221 117.091 153.116 117.091V117.411ZM146.562 135.418L146.261 135.309C146.225 135.407 146.24 135.516 146.3 135.602C146.36 135.687 146.457 135.738 146.562 135.738V135.418ZM156.542 135.418L156.842 135.528C156.878 135.429 156.864 135.32 156.804 135.235C156.744 135.149 156.646 135.098 156.542 135.098V135.418ZM155.753 137.585V137.905C155.887 137.905 156.007 137.821 156.053 137.695L155.753 137.585ZM70.0337 147.56L69.9907 147.243C69.832 147.264 69.7137 147.4 69.7137 147.56C69.7137 147.72 69.832 147.856 69.9907 147.877L70.0337 147.56ZM88.9137 145L89.1697 145.192C89.2471 145.089 89.255 144.949 89.1896 144.838C89.1243 144.727 88.9985 144.666 88.8707 144.683L88.9137 145ZM88.9137 150.12L88.8707 150.437C88.9985 150.454 89.1242 150.393 89.1896 150.282C89.2549 150.171 89.2471 150.031 89.1697 149.928L88.9137 150.12ZM227.154 147.56L227.197 147.877C227.355 147.856 227.474 147.72 227.474 147.56C227.474 147.4 227.355 147.264 227.197 147.243L227.154 147.56ZM208.274 150.12L208.018 149.928C207.94 150.031 207.932 150.171 207.998 150.282C208.063 150.393 208.189 150.454 208.317 150.437L208.274 150.12ZM208.274 145L208.317 144.683C208.189 144.666 208.063 144.727 207.998 144.838C207.932 144.949 207.94 145.089 208.018 145.192L208.274 145ZM69.7137 105.32V155.24H70.3537V105.32H69.7137ZM226.834 105.32V155.24H227.474V105.32H226.834ZM143.474 137.695L150.817 117.521L150.216 117.302L142.872 137.476L143.474 137.695ZM150.517 117.731H153.116V117.091H150.517V117.731ZM152.816 117.302L146.261 135.309L146.862 135.528L153.417 117.521L152.816 117.302ZM146.562 135.738H156.542V135.098H146.562V135.738ZM156.241 135.309L155.452 137.476L156.053 137.695L156.842 135.528L156.241 135.309ZM155.753 137.265H143.173V137.905H155.753V137.265ZM70.0767 147.877L88.9567 145.317L88.8707 144.683L69.9907 147.243L70.0767 147.877ZM88.6577 144.808L86.7377 147.368L87.2497 147.752L89.1697 145.192L88.6577 144.808ZM86.7377 147.752L88.6577 150.312L89.1697 149.928L87.2497 147.368L86.7377 147.752ZM88.9566 149.803L70.0767 147.243L69.9907 147.877L88.8707 150.437L88.9566 149.803ZM86.6737 145.64H88.9137V145H86.6737V145.64ZM84.4338 145.96H88.5938V145.32H84.4338V145.96ZM81.8737 146.28H88.2738V145.64H81.8737V146.28ZM79.6337 146.6H87.9538V145.96H79.6337V146.6ZM77.3937 146.92H87.9538V146.28H77.3937V146.92ZM74.8337 147.24H87.6337V146.6H74.8337V147.24ZM72.5938 147.56H87.3137V146.92H72.5938V147.56ZM70.0337 147.88H86.9937V147.24H70.0337V147.88ZM72.5937 148.2H87.3137V147.56H72.5937V148.2ZM74.8337 148.52H87.6337V147.88H74.8337V148.52ZM77.3937 148.84H87.9537V148.2H77.3937V148.84ZM79.6337 149.16H87.9537V148.52H79.6337V149.16ZM81.8737 149.48H88.2737V148.84H81.8737V149.48ZM84.4337 149.8H88.5937V149.16H84.4337V149.8ZM86.6737 150.12H88.9137V149.48H86.6737V150.12ZM227.111 147.243L208.231 149.803L208.317 150.437L227.197 147.877L227.111 147.243ZM208.53 150.312L210.45 147.752L209.938 147.368L208.018 149.928L208.53 150.312ZM210.45 147.368L208.53 144.808L208.018 145.192L209.938 147.752L210.45 147.368ZM208.231 145.317L227.111 147.877L227.197 147.243L208.317 144.683L208.231 145.317ZM210.194 147.88H227.154V147.24H210.194V147.88ZM210.194 148.2H224.914V147.56H210.194V148.2ZM209.874 148.52H222.674V147.88H209.874V148.52ZM209.554 148.84H220.114V148.2H209.554V148.84ZM209.234 149.16H217.874V148.52H209.234V149.16ZM209.234 149.48H215.634V148.84H209.234V149.48ZM208.914 149.8H213.074V149.16H208.914V149.8ZM208.594 150.12H210.834V149.48H208.594V150.12ZM208.594 145.64H210.834V145H208.594V145.64ZM208.914 145.96H213.074V145.32H208.914V145.96ZM209.234 146.28H215.634V145.64H209.234V146.28ZM209.234 146.6H217.874V145.96H209.234V146.6ZM209.554 146.92H220.114V146.28H209.554V146.92ZM209.874 147.24H222.674V146.6H209.874V147.24ZM210.194 147.56H224.914V146.92H210.194V147.56ZM70.0337 147.88L227.154 147.88L227.154 147.24L70.0337 147.24L70.0337 147.88Z" fill="white"/>
        <path d="M548.495 137.585L555.838 117.411H558.438L551.883 135.418H561.863L561.074 137.585H548.495Z" fill="white"/>
        <path d="M478.354 105.32C478.354 105.143 478.211 105 478.034 105C477.857 105 477.714 105.143 477.714 105.32H478.354ZM477.714 155.24C477.714 155.417 477.857 155.56 478.034 155.56C478.211 155.56 478.354 155.417 478.354 155.24H477.714ZM630.034 105.32C630.034 105.143 629.89 105 629.714 105C629.537 105 629.394 105.143 629.394 105.32H630.034ZM629.394 155.24C629.394 155.417 629.537 155.56 629.714 155.56C629.89 155.56 630.034 155.417 630.034 155.24H629.394ZM548.495 137.585L548.194 137.476C548.158 137.574 548.173 137.683 548.233 137.769C548.292 137.854 548.39 137.905 548.495 137.905V137.585ZM555.838 117.411V117.091C555.704 117.091 555.583 117.175 555.537 117.302L555.838 117.411ZM558.438 117.411L558.739 117.521C558.774 117.422 558.76 117.313 558.7 117.228C558.64 117.142 558.542 117.091 558.438 117.091V117.411ZM551.883 135.418L551.583 135.309C551.547 135.407 551.561 135.516 551.621 135.602C551.681 135.687 551.779 135.738 551.883 135.738V135.418ZM561.863 135.418L562.164 135.528C562.199 135.429 562.185 135.32 562.125 135.235C562.065 135.149 561.967 135.098 561.863 135.098V135.418ZM561.074 137.585V137.905C561.209 137.905 561.329 137.821 561.375 137.695L561.074 137.585ZM478.034 147.56L477.991 147.243C477.832 147.264 477.714 147.4 477.714 147.56C477.714 147.72 477.832 147.856 477.991 147.877L478.034 147.56ZM496.914 145L497.185 145.17C497.251 145.064 497.25 144.931 497.183 144.826C497.115 144.722 496.994 144.666 496.871 144.683L496.914 145ZM496.914 150.12L496.871 150.437C496.994 150.454 497.115 150.398 497.183 150.294C497.25 150.189 497.251 150.056 497.185 149.95L496.914 150.12ZM629.714 147.56L629.757 147.877C629.915 147.856 630.034 147.72 630.034 147.56C630.034 147.4 629.915 147.264 629.757 147.243L629.714 147.56ZM610.834 150.12L610.578 149.928C610.5 150.031 610.492 150.171 610.558 150.282C610.623 150.393 610.749 150.454 610.877 150.437L610.834 150.12ZM610.834 145L610.877 144.683C610.749 144.666 610.623 144.727 610.558 144.838C610.492 144.949 610.5 145.089 610.578 145.192L610.834 145ZM477.714 105.32V155.24H478.354V105.32H477.714ZM629.394 105.32V155.24H630.034V105.32H629.394ZM548.795 137.695L556.139 117.521L555.537 117.302L548.194 137.476L548.795 137.695ZM555.838 117.731H558.438V117.091H555.838V117.731ZM558.137 117.302L551.583 135.309L552.184 135.528L558.739 117.521L558.137 117.302ZM551.883 135.738H561.863V135.098H551.883V135.738ZM561.562 135.309L560.774 137.476L561.375 137.695L562.164 135.528L561.562 135.309ZM561.074 137.265H548.495V137.905H561.074V137.265ZM478.077 147.877L496.957 145.317L496.871 144.683L477.991 147.243L478.077 147.877ZM496.643 144.83L495.042 147.39L495.585 147.73L497.185 145.17L496.643 144.83ZM495.042 147.73L496.642 150.29L497.185 149.95L495.585 147.39L495.042 147.73ZM496.957 149.803L478.077 147.243L477.991 147.877L496.871 150.437L496.957 149.803ZM494.674 145.64H496.914V145H494.674V145.64ZM492.434 145.96H496.594V145.32H492.434V145.96ZM489.874 146.28H496.594V145.64H489.874V146.28ZM487.634 146.6H496.274V145.96H487.634V146.6ZM485.394 146.92H495.954V146.28H485.394V146.92ZM482.834 147.24H495.954V146.6H482.834V147.24ZM480.594 147.56H495.634V146.92H480.594V147.56ZM478.034 147.88H495.314V147.24H478.034V147.88ZM480.594 148.2H495.634V147.56H480.594V148.2ZM482.834 148.52H495.954V147.88H482.834V148.52ZM485.394 148.84H495.954V148.2H485.394V148.84ZM487.634 149.16H496.274V148.52H487.634V149.16ZM489.874 149.48H496.594V148.84H489.874V149.48ZM492.434 149.8H496.594V149.16H492.434V149.8ZM494.674 150.12H496.914V149.48H494.674V150.12ZM629.671 147.243L610.791 149.803L610.877 150.437L629.757 147.877L629.671 147.243ZM611.09 150.312L613.01 147.752L612.498 147.368L610.578 149.928L611.09 150.312ZM613.01 147.368L611.09 144.808L610.578 145.192L612.498 147.752L613.01 147.368ZM610.791 145.317L629.671 147.877L629.757 147.243L610.877 144.683L610.791 145.317ZM612.754 147.88H629.714V147.24H612.754V147.88ZM612.754 148.2H627.474V147.56H612.754V148.2ZM612.434 148.52H625.234V147.88H612.434V148.52ZM612.114 148.84H622.674V148.2H612.114V148.84ZM611.794 149.16H620.434V148.52H611.794V149.16ZM611.794 149.48H618.194V148.84H611.794V149.48ZM611.474 149.8H615.634V149.16H611.474V149.8ZM611.154 150.12H613.394V149.48H611.154V150.12ZM611.154 145.64H613.394V145H611.154V145.64ZM611.474 145.96H615.634V145.32H611.474V145.96ZM611.794 146.28H618.194V145.64H611.794V146.28ZM611.794 146.6H620.434V145.96H611.794V146.6ZM612.114 146.92H622.674V146.28H612.114V146.92ZM612.434 147.24H625.234V146.6H612.434V147.24ZM612.754 147.56H627.474V146.92H612.754V147.56ZM478.034 147.88L629.714 147.88L629.714 147.24L478.034 147.24L478.034 147.88Z" fill="white"/>
    </g>
    <!--    12 L1-->
    <g class="group">
    </g>
    <!--    13 L2-->
    <g class="group">
    </g>
    <!--    14 S-->
    <g class="group">
        <path d="M38.0174 12.0292L38.6084 14.4667C38.2604 14.4798 37.9222 14.5628 37.5938 14.7159C37.2589 14.8595 36.9831 15.1225 36.7664 15.5049C36.5497 15.8873 36.4413 16.4384 36.4413 17.1582C36.4413 18.1436 36.6547 19.0424 37.0816 19.8547C37.5019 20.6577 38.0371 21.1775 38.6872 21.4141C39.2652 21.6245 39.7216 21.567 40.0565 21.2416C40.3914 20.9162 40.6705 20.319 40.8938 19.4498L41.4454 17.2605C41.7738 15.9403 42.2762 15.0505 42.9526 14.5908C43.6224 14.1288 44.486 14.0902 45.5433 14.4751C46.4102 14.7906 47.1851 15.3382 47.8681 16.118C48.551 16.8907 49.0895 17.8206 49.4836 18.9074C49.8776 19.9943 50.0746 21.1633 50.0746 22.4142C50.0746 24.0566 49.7397 25.2939 49.0698 26.1264C48.4 26.9588 47.4215 27.284 46.1343 27.102L45.5827 24.553C46.397 24.6258 47.0078 24.4253 47.4149 23.9515C47.8221 23.4708 48.0257 22.7237 48.0257 21.7103C48.0257 20.5572 47.7958 19.558 47.3361 18.7128C46.8699 17.8582 46.3117 17.3126 45.6615 17.0759C45.1361 16.8847 44.6962 16.9202 44.3415 17.1825C43.9803 17.4424 43.7111 17.9454 43.5338 18.6915L42.9427 21.16C42.6144 22.5151 42.1054 23.4131 41.4159 23.854C40.7198 24.2855 39.8496 24.3112 38.8055 23.9311C37.9517 23.6204 37.1965 23.0904 36.5398 22.3412C35.8831 21.585 35.3676 20.695 34.9932 19.6711C34.6189 18.6403 34.4318 17.5589 34.4318 16.4267C34.4318 14.8333 34.7601 13.7019 35.4168 13.0324C36.0735 12.3559 36.9404 12.0215 38.0174 12.0292Z" fill="white"/>
        <path d="M63.6338 57.0001C63.8105 57.0001 63.9538 56.8568 63.9538 56.6801C63.9538 56.5033 63.8105 56.3601 63.6338 56.3601V57.0001ZM52.1138 56.3601C51.9371 56.3601 51.7938 56.5033 51.7938 56.6801C51.7938 56.8568 51.9371 57.0001 52.1138 57.0001V56.3601ZM63.6338 60.5201C63.8105 60.5201 63.9538 60.3768 63.9538 60.2001C63.9538 60.0233 63.8105 59.8801 63.6338 59.8801V60.5201ZM52.1138 59.8801C51.9371 59.8801 51.7938 60.0233 51.7938 60.2001C51.7938 60.3768 51.9371 60.5201 52.1138 60.5201V59.8801ZM60.1137 5.16003C60.1137 4.9833 59.9705 4.84003 59.7937 4.84003C59.617 4.84003 59.4737 4.9833 59.4737 5.16003H60.1137ZM38.0174 12.0292L38.3284 11.9537C38.2938 11.811 38.1665 11.7102 38.0197 11.7092L38.0174 12.0292ZM38.6084 14.4667L38.6205 14.7865C38.7164 14.7828 38.8057 14.7363 38.8636 14.6597C38.9216 14.5832 38.9421 14.4846 38.9194 14.3913L38.6084 14.4667ZM37.5938 14.7159L37.72 15.0101L37.729 15.0059L37.5938 14.7159ZM36.7664 15.5049L36.488 15.3471L36.488 15.3471L36.7664 15.5049ZM37.0816 19.8547L37.3651 19.7063L37.3649 19.7059L37.0816 19.8547ZM38.6872 21.4141L38.7967 21.1134L38.6872 21.4141ZM40.0565 21.2416L40.2795 21.4711L40.2795 21.4711L40.0565 21.2416ZM40.8938 19.4498L41.2037 19.5294L41.2041 19.528L40.8938 19.4498ZM41.4454 17.2605L41.7557 17.3387L41.756 17.3377L41.4454 17.2605ZM42.9526 14.5908L43.1324 14.8555L43.1343 14.8542L42.9526 14.5908ZM45.5433 14.4751L45.4339 14.7758L45.5433 14.4751ZM47.8681 16.118L47.6273 16.3288L47.6283 16.3299L47.8681 16.118ZM49.0698 26.1264L48.8205 25.9257L48.8205 25.9257L49.0698 26.1264ZM46.1343 27.102L45.8216 27.1697C45.8499 27.3007 45.9569 27.4001 46.0895 27.4189L46.1343 27.102ZM45.5827 24.553L45.6112 24.2343C45.5098 24.2253 45.4102 24.2649 45.3429 24.3412C45.2755 24.4175 45.2484 24.5213 45.27 24.6207L45.5827 24.553ZM47.4149 23.9515L47.6576 24.1601L47.6591 24.1583L47.4149 23.9515ZM47.3361 18.7128L47.6172 18.5599L47.617 18.5596L47.3361 18.7128ZM45.6615 17.0759L45.771 16.7752L45.771 16.7752L45.6615 17.0759ZM44.3415 17.1825L44.5284 17.4423L44.5318 17.4398L44.3415 17.1825ZM43.5338 18.6915L43.845 18.7661L43.8451 18.7655L43.5338 18.6915ZM42.9427 21.16L43.2537 21.2354L43.2539 21.2346L42.9427 21.16ZM41.4159 23.854L41.5845 24.126L41.5883 24.1236L41.4159 23.854ZM38.8055 23.9311L38.9149 23.6304L38.8055 23.9311ZM36.5398 22.3412L36.2982 22.551L36.2992 22.5521L36.5398 22.3412ZM34.9932 19.6711L34.6925 19.7804L34.6927 19.781L34.9932 19.6711ZM35.4168 13.0324L35.6453 13.2565L35.6464 13.2553L35.4168 13.0324ZM62.3537 37.8L62.6708 37.843C62.6882 37.7152 62.627 37.5895 62.5158 37.5241C62.4045 37.4588 62.2649 37.4666 62.1617 37.544L62.3537 37.8ZM59.7937 39.72L59.7937 40.04L59.7937 40.04L59.7937 39.72ZM57.2337 37.8L57.4257 37.544C57.3224 37.4666 57.1829 37.4588 57.0716 37.5241C56.9604 37.5895 56.8992 37.7152 56.9166 37.843L57.2337 37.8ZM60.1137 30.12C60.1137 29.9433 59.9705 29.8 59.7937 29.8C59.617 29.8 59.4737 29.9433 59.4737 30.12H60.1137ZM57.2337 79.4001L56.9165 79.3578C56.8994 79.4855 56.9607 79.611 57.0719 79.6762C57.1831 79.7413 57.3226 79.7334 57.4257 79.6561L57.2337 79.4001ZM59.7937 77.48L59.7937 77.16L59.7937 77.16L59.7937 77.48ZM62.3537 79.4L62.1617 79.656C62.2648 79.7333 62.4043 79.7412 62.5155 79.6761C62.6267 79.6109 62.6879 79.4854 62.6709 79.3577L62.3537 79.4ZM59.4737 86.7601C59.4737 86.9368 59.617 87.0801 59.7937 87.0801C59.9705 87.0801 60.1137 86.9368 60.1137 86.7601L59.4737 86.7601ZM63.6338 56.3601H52.1138V57.0001H63.6338V56.3601ZM63.6338 59.8801H52.1138V60.5201H63.6338V59.8801ZM37.7064 12.1046L38.2975 14.5421L38.9194 14.3913L38.3284 11.9537L37.7064 12.1046ZM38.5964 14.1469C38.204 14.1617 37.8241 14.2555 37.4586 14.4258L37.729 15.0059C38.0203 14.8701 38.3167 14.7979 38.6205 14.7865L38.5964 14.1469ZM37.4677 14.4218C37.0561 14.5983 36.7319 14.9168 36.488 15.3471L37.0448 15.6627C37.2343 15.3283 37.4617 15.1207 37.72 15.0099L37.4677 14.4218ZM36.488 15.3471C36.2318 15.7991 36.1213 16.4145 36.1213 17.1582H36.7613C36.7613 16.4622 36.8675 15.9754 37.0448 15.6627L36.488 15.3471ZM36.1213 17.1582C36.1213 18.1915 36.3456 19.142 36.7983 20.0036L37.3649 19.7059C36.9639 18.9428 36.7613 18.0956 36.7613 17.1582H36.1213ZM36.7981 20.0031C37.2436 20.8543 37.8318 21.4433 38.5778 21.7148L38.7967 21.1134C38.2424 20.9116 37.7601 20.461 37.3651 19.7063L36.7981 20.0031ZM38.5778 21.7148C39.2278 21.9514 39.8278 21.9099 40.2795 21.4711L39.8335 21.0121C39.6154 21.224 39.3025 21.2975 38.7967 21.1134L38.5778 21.7148ZM40.2795 21.4711C40.6803 21.0818 40.9771 20.4117 41.2037 19.5294L40.5839 19.3702C40.3639 20.2263 40.1025 20.7507 39.8335 21.0121L40.2795 21.4711ZM41.2041 19.528L41.7557 17.3387L41.1351 17.1823L40.5835 19.3716L41.2041 19.528ZM41.756 17.3377C42.0771 16.0468 42.5525 15.2496 43.1324 14.8555L42.7727 14.3261C41.9998 14.8514 41.4705 15.8339 41.1349 17.1832L41.756 17.3377ZM43.1343 14.8542C43.6888 14.4717 44.4336 14.4117 45.4339 14.7758L45.6528 14.1744C44.5384 13.7687 43.5561 13.7858 42.7709 14.3274L43.1343 14.8542ZM45.4339 14.7758C46.2441 15.0707 46.9754 15.5845 47.6273 16.3288L48.1088 15.9071C47.3948 15.092 46.5762 14.5105 45.6528 14.1744L45.4339 14.7758ZM47.6283 16.3299C48.2816 17.0691 48.8008 17.9629 49.1827 19.0165L49.7844 18.7984C49.3783 17.6782 48.8205 16.7124 48.1078 15.9061L47.6283 16.3299ZM49.1827 19.0165C49.5631 20.0657 49.7546 21.1974 49.7546 22.4142H50.3946C50.3946 21.1291 50.1921 19.923 49.7844 18.7984L49.1827 19.0165ZM49.7546 22.4142C49.7546 24.0208 49.4258 25.1736 48.8205 25.9257L49.3192 26.327C50.0536 25.4142 50.3946 24.0923 50.3946 22.4142H49.7546ZM48.8205 25.9257C48.2376 26.6501 47.3829 26.9554 46.1791 26.7852L46.0895 27.4189C47.4601 27.6126 48.5624 27.2674 49.3192 26.327L48.8205 25.9257ZM46.4471 27.0343L45.8955 24.4854L45.27 24.6207L45.8216 27.1697L46.4471 27.0343ZM45.5542 24.8718C46.4364 24.9506 47.1631 24.7355 47.6576 24.1601L47.1722 23.743C46.8524 24.1151 46.3576 24.301 45.6112 24.2343L45.5542 24.8718ZM47.6591 24.1583C48.1373 23.5937 48.3457 22.7562 48.3457 21.7103H47.7057C47.7057 22.6912 47.5068 23.3479 47.1707 23.7447L47.6591 24.1583ZM48.3457 21.7103C48.3457 20.5144 48.1071 19.4606 47.6172 18.5599L47.055 18.8657C47.4846 19.6555 47.7057 20.6001 47.7057 21.7103H48.3457ZM47.617 18.5596C47.1286 17.6643 46.5193 17.0476 45.771 16.7752L45.5521 17.3766C46.104 17.5775 46.6112 18.0522 47.0552 18.8661L47.617 18.5596ZM45.771 16.7752C45.1752 16.5584 44.6154 16.582 44.1512 16.9252L44.5318 17.4398C44.7769 17.2585 45.0971 17.211 45.5521 17.3766L45.771 16.7752ZM44.1546 16.9228C43.6994 17.2503 43.4058 17.846 43.2224 18.6176L43.8451 18.7655C44.0164 18.0448 44.2613 17.6345 44.5284 17.4422L44.1546 16.9228ZM43.2226 18.617L42.6315 21.0855L43.2539 21.2346L43.845 18.7661L43.2226 18.617ZM42.6317 21.0847C42.3101 22.4121 41.8285 23.2104 41.2435 23.5844L41.5883 24.1236C42.3824 23.6158 42.9187 22.6182 43.2537 21.2354L42.6317 21.0847ZM41.2473 23.582C40.6619 23.9449 39.902 23.9897 38.9149 23.6304L38.696 24.2318C39.7972 24.6327 40.7777 24.6261 41.5845 24.126L41.2473 23.582ZM38.9149 23.6304C38.1165 23.3398 37.4052 22.843 36.7804 22.1302L36.2992 22.5521C36.9878 23.3378 37.7869 23.9009 38.696 24.2318L38.9149 23.6304ZM36.7814 22.1313C36.1524 21.4071 35.6559 20.5517 35.2938 19.5613L34.6927 19.781C35.0792 20.8382 35.6137 21.7628 36.2982 22.551L36.7814 22.1313ZM35.294 19.5619C34.9328 18.5673 34.7518 17.5228 34.7518 16.4267H34.1118C34.1118 17.5949 34.305 18.7134 34.6925 19.7804L35.294 19.5619ZM34.7518 16.4267C34.7518 14.8623 35.0768 13.836 35.6453 13.2565L35.1884 12.8083C34.4434 13.5678 34.1118 14.8043 34.1118 16.4267H34.7518ZM35.6464 13.2553C36.2335 12.6506 37.0118 12.342 38.0151 12.3491L38.0197 11.7092C36.869 11.701 35.9136 12.0612 35.1872 12.8095L35.6464 13.2553ZM60.1108 56.723L62.6708 37.843L62.0366 37.7571L59.4766 56.6371L60.1108 56.723ZM62.1617 37.544L59.6017 39.464L59.9857 39.976L62.5457 38.056L62.1617 37.544ZM59.9857 39.464L57.4257 37.544L57.0417 38.0561L59.6017 39.976L59.9857 39.464ZM56.9166 37.843L59.4766 56.723L60.1108 56.6371L57.5508 37.7571L56.9166 37.843ZM60.1137 56.68V30.12H59.4737V56.68H60.1137ZM62.0337 38.44H62.3537V37.8H62.0337V38.44ZM61.7137 38.76H62.3537V38.12H61.7137V38.76ZM61.0737 39.08H62.3537V38.44H61.0737V39.08ZM60.7537 39.4H62.3537V38.76H60.7537V39.4ZM60.4337 39.72H62.3537V39.08H60.4337V39.72ZM59.7937 40.04L62.3537 40.04L62.3537 39.4L59.7937 39.4L59.7937 40.04ZM59.7937 54.76H60.1137V54.12H59.7937V54.76ZM59.7937 55.08H60.1137V54.44H59.7937V55.08ZM59.7937 55.4H60.1137V54.76H59.7937V55.4ZM59.7937 55.72H60.1137V55.08H59.7937V55.72ZM59.7937 56.04H60.1137V55.4H59.7937V56.04ZM59.7937 56.36H60.1137V55.72H59.7937V56.36ZM59.7937 56.68H60.1137V56.04H59.7937V56.68ZM57.5537 38.44H57.8737V37.8H57.5537V38.44ZM57.5537 38.76H58.1937V38.12H57.5537V38.76ZM57.5537 39.08H58.5137V38.44H57.5537V39.08ZM57.5537 39.4H59.1537V38.76H57.5537V39.4ZM57.5537 39.72H59.4737V39.08H57.5537V39.72ZM57.5537 40.04L59.7937 40.04L59.7937 39.4L57.5537 39.4L57.5537 40.04ZM59.4765 60.1578L56.9165 79.3578L57.5509 79.4424L60.1109 60.2424L59.4765 60.1578ZM57.4257 79.6561L59.9857 77.736L59.6017 77.224L57.0417 79.1441L57.4257 79.6561ZM59.6017 77.736L62.1617 79.656L62.5457 79.144L59.9857 77.224L59.6017 77.736ZM62.6709 79.3577L60.1109 60.1578L59.4765 60.2424L62.0365 79.4423L62.6709 79.3577ZM59.4737 60.2001L59.4737 86.7601L60.1137 86.7601L60.1137 60.2001L59.4737 60.2001ZM57.5537 77.8L59.7937 77.8L59.7937 77.16L57.5537 77.16L57.5537 77.8ZM57.5537 78.12H59.4737V77.48H57.5537V78.12ZM57.5537 78.44H59.1537V77.8H57.5537V78.44ZM57.5537 78.76H58.5137V78.12H57.5537V78.76ZM57.5537 79.08H58.1937V78.44H57.5537V79.08ZM57.5537 79.4H57.8737V78.76H57.5537V79.4ZM59.7937 60.84H60.1137V60.2H59.7937V60.84ZM59.7937 61.16H60.1137V60.52H59.7937V61.16ZM59.7937 61.48H60.1137V60.84H59.7937V61.48ZM59.7937 61.8H60.1137V61.16H59.7937V61.8ZM59.7937 62.12H60.1137V61.48H59.7937V62.12ZM59.7937 62.44H60.1137V61.8H59.7937V62.44ZM59.7937 62.76H60.1137V62.12H59.7937V62.76ZM59.7937 77.8L62.3537 77.8L62.3537 77.16L59.7937 77.16L59.7937 77.8ZM60.4337 78.12H62.3537V77.48H60.4337V78.12ZM60.7537 78.44H62.3537V77.8H60.7537V78.44ZM61.0737 78.76H62.3537V78.12H61.0737V78.76ZM61.7137 79.08H62.3537V78.44H61.7137V79.08ZM62.0337 79.4H62.3537V78.76H62.0337V79.4ZM59.4737 56.68L59.4737 60.2001L60.1137 60.2001L60.1137 56.6801L59.4737 56.68ZM60.1137 56.68V5.16003H59.4737V56.68H60.1137ZM57.5537 40.36H62.3537V39.72H57.5537V40.36ZM57.8737 40.68H62.0337V40.04H57.8737V40.68ZM57.8737 41H62.0337V40.36H57.8737V41ZM57.8737 41.32H62.0337V40.68H57.8737V41.32ZM57.8737 41.64H62.0337V41H57.8737V41.64ZM57.8737 41.96H62.0337V41.32H57.8737V41.96ZM57.8737 42.28H62.0337V41.64H57.8737V42.28ZM57.8737 42.6H62.0337V41.96H57.8737V42.6ZM58.1937 42.92H61.7137V42.28H58.1937V42.92ZM58.1937 43.24H61.7137V42.6H58.1937V43.24ZM58.1937 43.56H61.7137V42.92H58.1937V43.56ZM58.1937 43.88H61.7137V43.24H58.1937V43.88ZM58.1937 44.2H61.7137V43.56H58.1937V44.2ZM58.1937 44.52H61.7137V43.88H58.1937V44.52ZM58.1937 44.84H61.7137V44.2H58.1937V44.84ZM58.1937 45.16H61.7137V44.52H58.1937V45.16ZM58.5137 45.48H61.3937V44.84H58.5137V45.48ZM58.5137 45.8H61.3937V45.16H58.5137V45.8ZM58.5137 46.12H61.3937V45.48H58.5137V46.12ZM58.5137 46.44H61.3937V45.8H58.5137V46.44ZM58.5137 46.76H61.3937V46.12H58.5137V46.76ZM58.5137 47.08H61.3937V46.44H58.5137V47.08ZM58.5137 47.4H61.3937V46.76H58.5137V47.4ZM58.8337 47.72H61.0737V47.08H58.8337V47.72ZM58.8337 48.04H61.0737V47.4H58.8337V48.04ZM58.8337 48.36H61.0737V47.72H58.8337V48.36ZM58.8337 48.68H61.0737V48.04H58.8337V48.68ZM58.8337 49H61.0737V48.36H58.8337V49ZM58.8337 49.32H61.0737V48.68H58.8337V49.32ZM58.8337 49.64H61.0737V49H58.8337V49.64ZM59.1537 49.96H60.7537V49.32H59.1537V49.96ZM59.1537 50.28H60.7537V49.64H59.1537V50.28ZM59.1537 50.6H60.7537V49.96H59.1537V50.6ZM59.1537 50.92H60.7537V50.28H59.1537V50.92ZM59.1537 51.24H60.7537V50.6H59.1537V51.24ZM59.1537 51.56H60.7537V50.92H59.1537V51.56ZM59.1537 51.88H60.7537V51.24H59.1537V51.88ZM59.1537 52.2H60.7537V51.56H59.1537V52.2ZM59.4737 52.52H60.4337V51.88H59.4737V52.52ZM59.4737 52.84H60.4337V52.2H59.4737V52.84ZM59.4737 53.16H60.4337V52.52H59.4737V53.16ZM59.4737 53.48H60.4337V52.84H59.4737V53.48ZM59.4737 53.8H60.4337V53.16H59.4737V53.8ZM59.4737 54.12H60.4337V53.48H59.4737V54.12ZM59.4737 54.44H60.4337V53.8H59.4737V54.44ZM59.4737 63.08L60.4337 63.08L60.4337 62.44L59.4737 62.44L59.4737 63.08ZM59.4737 63.4L60.4337 63.4L60.4337 62.76L59.4737 62.76L59.4737 63.4ZM59.4737 63.72L60.4337 63.72L60.4337 63.08L59.4737 63.08L59.4737 63.72ZM59.4737 64.04L60.4337 64.04L60.4337 63.4L59.4737 63.4L59.4737 64.04ZM59.4737 64.36L60.4337 64.36L60.4337 63.72L59.4737 63.72L59.4737 64.36ZM59.4737 64.68L60.4337 64.68L60.4337 64.04L59.4737 64.04L59.4737 64.68ZM59.4737 65L60.4337 65L60.4337 64.36L59.4737 64.36L59.4737 65ZM59.1537 65.32L60.4337 65.32L60.4337 64.68L59.1537 64.68L59.1537 65.32ZM59.1537 65.64L60.7537 65.64L60.7537 65L59.1537 65L59.1537 65.64ZM59.1537 65.96L60.7537 65.96L60.7537 65.32L59.1537 65.32L59.1537 65.96ZM59.1537 66.28L60.7537 66.28L60.7537 65.64L59.1537 65.64L59.1537 66.28ZM59.1537 66.6L60.7537 66.6L60.7537 65.96L59.1537 65.96L59.1537 66.6ZM59.1537 66.92L60.7537 66.92L60.7537 66.28L59.1537 66.28L59.1537 66.92ZM59.1537 67.24L60.7537 67.24L60.7537 66.6L59.1537 66.6L59.1537 67.24ZM59.1537 67.56L60.7537 67.56L60.7537 66.92L59.1537 66.92L59.1537 67.56ZM58.8337 67.88L61.0737 67.88L61.0737 67.24L58.8337 67.24L58.8337 67.88ZM58.8337 68.2L61.0737 68.2L61.0737 67.56L58.8337 67.56L58.8337 68.2ZM58.8337 68.52L61.0737 68.52L61.0737 67.88L58.8337 67.88L58.8337 68.52ZM58.8337 68.84L61.0737 68.84L61.0737 68.2L58.8337 68.2L58.8337 68.84ZM58.8337 69.16L61.0737 69.16L61.0737 68.52L58.8337 68.52L58.8337 69.16ZM58.8337 69.48L61.0737 69.48L61.0737 68.84L58.8337 68.84L58.8337 69.48ZM58.8337 69.8L61.0737 69.8L61.0737 69.16L58.8337 69.16L58.8337 69.8ZM58.5137 70.12L61.0737 70.12L61.0737 69.48L58.5137 69.48L58.5137 70.12ZM58.5137 70.44L61.3937 70.44L61.3937 69.8L58.5137 69.8L58.5137 70.44ZM58.5137 70.76L61.3937 70.76L61.3937 70.12L58.5137 70.12L58.5137 70.76ZM58.5137 71.08L61.3937 71.08L61.3937 70.44L58.5137 70.44L58.5137 71.08ZM58.5137 71.4L61.3937 71.4L61.3937 70.76L58.5137 70.76L58.5137 71.4ZM58.5137 71.72L61.3937 71.72L61.3937 71.08L58.5137 71.08L58.5137 71.72ZM58.5137 72.04L61.3937 72.04L61.3937 71.4L58.5137 71.4L58.5137 72.04ZM58.5137 72.36L61.3937 72.36L61.3937 71.72L58.5137 71.72L58.5137 72.36ZM58.1937 72.68L61.7137 72.68L61.7137 72.04L58.1937 72.04L58.1937 72.68ZM58.1937 73L61.7137 73L61.7137 72.36L58.1937 72.36L58.1937 73ZM58.1937 73.32L61.7137 73.32L61.7137 72.68L58.1937 72.68L58.1937 73.32ZM58.1937 73.64L61.7137 73.64L61.7137 73L58.1937 73L58.1937 73.64ZM58.1937 73.96L61.7137 73.96L61.7137 73.32L58.1937 73.32L58.1937 73.96ZM58.1937 74.28L61.7137 74.28L61.7137 73.64L58.1937 73.64L58.1937 74.28ZM58.1937 74.6L61.7137 74.6L61.7137 73.96L58.1937 73.96L58.1937 74.6ZM57.8737 74.92L61.7137 74.92L61.7137 74.28L57.8737 74.28L57.8737 74.92ZM57.8737 75.24L62.0337 75.24L62.0337 74.6L57.8737 74.6L57.8737 75.24ZM57.8737 75.56L62.0337 75.56L62.0337 74.92L57.8737 74.92L57.8737 75.56ZM57.8737 75.88L62.0337 75.88L62.0337 75.24L57.8737 75.24L57.8737 75.88ZM57.8737 76.2L62.0337 76.2L62.0337 75.56L57.8737 75.56L57.8737 76.2ZM57.8737 76.52L62.0337 76.52L62.0337 75.88L57.8737 75.88L57.8737 76.52ZM57.8737 76.84L62.0337 76.84L62.0337 76.2L57.8737 76.2L57.8737 76.84ZM57.8737 77.16L62.0337 77.16L62.0337 76.52L57.8737 76.52L57.8737 77.16ZM57.5537 77.48L62.3537 77.48L62.3537 76.84L57.5537 76.84L57.5537 77.48Z" fill="white"/>
    </g>
    <!--    15 S1-->
    <g class="group">
    </g>
    <!--    16 S2-->
    <g class="group">
    </g>
    <!--    17 S3-->
    <g class="group">
    </g>
    <!--    18 S4-->
    <g class="group">
    </g>
    <!--    19 I-->
    <g class="group">
    </g>
    <!--    20 I1-->
    <g class="group">
    </g>
    <!--    21 I2-->
    <g class="group">
    </g>
    <!--    22 H-->
    <g class="group">
    </g>
    <!--    23 H1-->
    <g class="group">
    </g>
    <!--    24 H2-->
    <g class="group">
    </g>
    <!--    25 h-->
    <g class="group">
    </g>
    <!--    26 h1-->
    <g class="group">
    </g>
    <!--    27 h2-->
    <g class="group">
    </g>
    <!--    28 R-->
    <g class="group">
    </g>
    <!--    29 Deg-->
    <g class="group">
    </g>
    <!--    29 DN-->
    <g class="group">
    </g>

</svg>
