<svg width="357" height="337" viewBox="0 0 357 337" fill="none" xmlns="http://www.w3.org/2000/svg">
<rect width="357" height="337" fill="none"/>
<path d="M87.9102 295.68V180.96V295.68Z" stroke="white" stroke-width="1.68" stroke-linecap="round" stroke-linejoin="round"/>
<path d="M87.9102 180.96L88.3902 170.64L87.9102 180.96Z" stroke="white" stroke-width="1.68" stroke-linecap="round" stroke-linejoin="round"/>
<path d="M88.3906 170.64L89.833 160.32L88.3906 170.64Z" stroke="white" stroke-width="1.68" stroke-linecap="round" stroke-linejoin="round"/>
<path d="M89.833 160.32L92.237 150.24L89.833 160.32Z" stroke="white" stroke-width="1.68" stroke-linecap="round" stroke-linejoin="round"/>
<path d="M92.2373 150.24L95.6029 140.16L92.2373 150.24Z" stroke="white" stroke-width="1.68" stroke-linecap="round" stroke-linejoin="round"/>
<path d="M95.6035 140.16L99.6903 130.8L95.6035 140.16Z" stroke="white" stroke-width="1.68" stroke-linecap="round" stroke-linejoin="round"/>
<path d="M99.6895 130.8L104.738 121.68L99.6895 130.8Z" stroke="white" stroke-width="1.68" stroke-linecap="round" stroke-linejoin="round"/>
<path d="M104.738 121.68L110.748 113.04L104.738 121.68Z" stroke="white" stroke-width="1.68" stroke-linecap="round" stroke-linejoin="round"/>
<path d="M110.748 113.04L117.239 104.88L110.748 113.04Z" stroke="white" stroke-width="1.68" stroke-linecap="round" stroke-linejoin="round"/>
<path d="M117.239 104.88L124.692 97.4399L117.239 104.88Z" stroke="white" stroke-width="1.68" stroke-linecap="round" stroke-linejoin="round"/>
<path d="M124.691 97.44L132.625 90.72L124.691 97.44Z" stroke="white" stroke-width="1.68" stroke-linecap="round" stroke-linejoin="round"/>
<path d="M132.625 90.72L141.279 84.96L132.625 90.72Z" stroke="white" stroke-width="1.68" stroke-linecap="round" stroke-linejoin="round"/>
<path d="M141.279 84.9599L150.415 79.6799L141.279 84.9599Z" stroke="white" stroke-width="1.68" stroke-linecap="round" stroke-linejoin="round"/>
<path d="M150.415 79.6799L160.031 75.5999L150.415 79.6799Z" stroke="white" stroke-width="1.68" stroke-linecap="round" stroke-linejoin="round"/>
<path d="M160.03 75.6L169.887 72.24L160.03 75.6Z" stroke="white" stroke-width="1.68" stroke-linecap="round" stroke-linejoin="round"/>
<path d="M169.887 72.2399L179.984 69.5999L169.887 72.2399Z" stroke="white" stroke-width="1.68" stroke-linecap="round" stroke-linejoin="round"/>
<path d="M179.984 69.5999L190.322 68.1599L179.984 69.5999Z" stroke="white" stroke-width="1.68" stroke-linecap="round" stroke-linejoin="round"/>
<path d="M190.321 68.1599L200.659 67.6799L190.321 68.1599Z" stroke="white" stroke-width="1.68" stroke-linecap="round" stroke-linejoin="round"/>
<path d="M200.658 67.6799H201.379H200.658Z" stroke="white" stroke-width="1.68" stroke-linecap="round" stroke-linejoin="round"/>
<path d="M201.38 67.6799H310.762H201.38Z" stroke="white" stroke-width="1.68" stroke-linecap="round" stroke-linejoin="round"/>
<path d="M315.09 72V108.72V72Z" stroke="white" stroke-width="1.68" stroke-linecap="round" stroke-linejoin="round"/>
<path d="M133.346 295.68V169.68V295.68Z" stroke="white" stroke-width="1.68" stroke-linecap="round" stroke-linejoin="round"/>
<path d="M190.081 113.04H310.762H190.081Z" stroke="white" stroke-width="1.68" stroke-linecap="round" stroke-linejoin="round"/>
<path d="M190.08 113.04L182.628 113.52L190.08 113.04Z" stroke="white" stroke-width="1.68" stroke-linecap="round" stroke-linejoin="round"/>
<path d="M182.628 113.52L175.416 114.96L182.628 113.52Z" stroke="white" stroke-width="1.68" stroke-linecap="round" stroke-linejoin="round"/>
<path d="M175.416 114.96L168.444 117.36L175.416 114.96Z" stroke="white" stroke-width="1.68" stroke-linecap="round" stroke-linejoin="round"/>
<path d="M168.445 117.36L161.954 120.48L168.445 117.36Z" stroke="white" stroke-width="1.68" stroke-linecap="round" stroke-linejoin="round"/>
<path d="M161.954 120.48L155.703 124.56L161.954 120.48Z" stroke="white" stroke-width="1.68" stroke-linecap="round" stroke-linejoin="round"/>
<path d="M155.703 124.56L150.174 129.36L155.703 124.56Z" stroke="white" stroke-width="1.68" stroke-linecap="round" stroke-linejoin="round"/>
<path d="M150.174 129.36L145.126 134.88L150.174 129.36Z" stroke="white" stroke-width="1.68" stroke-linecap="round" stroke-linejoin="round"/>
<path d="M145.126 134.88L141.039 141.12L145.126 134.88Z" stroke="white" stroke-width="1.68" stroke-linecap="round" stroke-linejoin="round"/>
<path d="M141.038 141.12L137.673 147.6L141.038 141.12Z" stroke="white" stroke-width="1.68" stroke-linecap="round" stroke-linejoin="round"/>
<path d="M137.674 147.6L135.27 154.56L137.674 147.6Z" stroke="white" stroke-width="1.68" stroke-linecap="round" stroke-linejoin="round"/>
<path d="M135.27 154.56L133.827 161.76L135.27 154.56Z" stroke="white" stroke-width="1.68" stroke-linecap="round" stroke-linejoin="round"/>
<path d="M133.826 161.76L133.346 169.2L133.826 161.76Z" stroke="white" stroke-width="1.68" stroke-linecap="round" stroke-linejoin="round"/>
<path d="M133.346 169.2V169.68V169.2Z" stroke="white" stroke-width="1.68" stroke-linecap="round" stroke-linejoin="round"/>
<path d="M281.192 106.32H315.089H281.192Z" stroke="white" stroke-width="1.68" stroke-linecap="round" stroke-linejoin="round"/>
<path d="M92.2373 237.84V300V237.84Z" stroke="white" stroke-width="0.72" stroke-linecap="round" stroke-linejoin="round"/>
<path d="M129.019 237.84V300V237.84Z" stroke="white" stroke-width="0.72" stroke-linecap="round" stroke-linejoin="round"/>
<path d="M299.464 113.04L288.646 109.92L299.464 113.04Z" stroke="white" stroke-width="0.48" stroke-linecap="round" stroke-linejoin="round"/>
<path d="M288.645 109.92L283.116 107.52L288.645 109.92Z" stroke="white" stroke-width="0.48" stroke-linecap="round" stroke-linejoin="round"/>
<path d="M283.116 107.52L279.51 104.88L283.116 107.52Z" stroke="white" stroke-width="0.48" stroke-linecap="round" stroke-linejoin="round"/>
<path d="M279.51 104.88L277.347 102.48L279.51 104.88Z" stroke="white" stroke-width="0.48" stroke-linecap="round" stroke-linejoin="round"/>
<path d="M277.347 102.48L275.904 99.1199L277.347 102.48Z" stroke="white" stroke-width="0.48" stroke-linecap="round" stroke-linejoin="round"/>
<path d="M275.904 99.12L274.942 95.76L275.904 99.12Z" stroke="white" stroke-width="0.48" stroke-linecap="round" stroke-linejoin="round"/>
<path d="M274.943 95.76L273.26 90.48L274.943 95.76Z" stroke="white" stroke-width="0.48" stroke-linecap="round" stroke-linejoin="round"/>
<path d="M273.259 90.4799L271.336 87.5999L273.259 90.4799Z" stroke="white" stroke-width="0.48" stroke-linecap="round" stroke-linejoin="round"/>
<path d="M271.337 87.5999L268.692 85.4399L271.337 87.5999Z" stroke="white" stroke-width="0.48" stroke-linecap="round" stroke-linejoin="round"/>
<path d="M268.692 85.44L265.566 83.76L268.692 85.44Z" stroke="white" stroke-width="0.48" stroke-linecap="round" stroke-linejoin="round"/>
<path d="M265.567 83.7598L260.999 81.8398L265.567 83.7598Z" stroke="white" stroke-width="0.48" stroke-linecap="round" stroke-linejoin="round"/>
<path d="M260.999 81.8399L259.557 80.8799L260.999 81.8399Z" stroke="white" stroke-width="0.48" stroke-linecap="round" stroke-linejoin="round"/>
<path d="M259.556 80.8799H259.316H259.556Z" stroke="white" stroke-width="0.48" stroke-linecap="round" stroke-linejoin="round"/>
<path d="M259.316 80.8799V80.6399V80.8799Z" stroke="white" stroke-width="0.48" stroke-linecap="round" stroke-linejoin="round"/>
<path d="M259.316 80.6399H259.076H259.316Z" stroke="white" stroke-width="0.48" stroke-linecap="round" stroke-linejoin="round"/>
<path d="M259.076 80.6399V80.3999V80.6399Z" stroke="white" stroke-width="0.48" stroke-linecap="round" stroke-linejoin="round"/>
<path d="M259.076 80.3999H258.836H259.076Z" stroke="white" stroke-width="0.48" stroke-linecap="round" stroke-linejoin="round"/>
<path d="M258.836 80.3999V80.1599V80.3999Z" stroke="white" stroke-width="0.48" stroke-linecap="round" stroke-linejoin="round"/>
<path d="M258.835 80.1599H258.595H258.835Z" stroke="white" stroke-width="0.48" stroke-linecap="round" stroke-linejoin="round"/>
<path d="M258.595 80.1599V79.9199V80.1599Z" stroke="white" stroke-width="0.48" stroke-linecap="round" stroke-linejoin="round"/>
<path d="M258.594 79.9199H258.354H258.594Z" stroke="white" stroke-width="0.48" stroke-linecap="round" stroke-linejoin="round"/>
<path d="M258.354 79.9199V79.6799V79.9199Z" stroke="white" stroke-width="0.48" stroke-linecap="round" stroke-linejoin="round"/>
<path d="M258.354 79.6799V79.4399V79.6799Z" stroke="white" stroke-width="0.48" stroke-linecap="round" stroke-linejoin="round"/>
<path d="M258.354 79.44V79.2V79.44Z" stroke="white" stroke-width="0.48" stroke-linecap="round" stroke-linejoin="round"/>
<path d="M258.354 79.2V78.96V79.2Z" stroke="white" stroke-width="0.48" stroke-linecap="round" stroke-linejoin="round"/>
<path d="M258.354 78.96V78.72V78.96Z" stroke="white" stroke-width="0.48" stroke-linecap="round" stroke-linejoin="round"/>
<path d="M258.354 78.72V78.48V78.72Z" stroke="white" stroke-width="0.48" stroke-linecap="round" stroke-linejoin="round"/>
<path d="M258.354 78.48L258.594 78.24L258.354 78.48Z" stroke="white" stroke-width="0.48" stroke-linecap="round" stroke-linejoin="round"/>
<path d="M258.595 78.24V78V78.24Z" stroke="white" stroke-width="0.48" stroke-linecap="round" stroke-linejoin="round"/>
<path d="M258.595 78H258.835H258.595Z" stroke="white" stroke-width="0.48" stroke-linecap="round" stroke-linejoin="round"/>
<path d="M258.836 78V77.76V78Z" stroke="white" stroke-width="0.48" stroke-linecap="round" stroke-linejoin="round"/>
<path d="M258.836 77.76V77.52V77.76Z" stroke="white" stroke-width="0.48" stroke-linecap="round" stroke-linejoin="round"/>
<path d="M258.836 77.52H259.076H258.836Z" stroke="white" stroke-width="0.48" stroke-linecap="round" stroke-linejoin="round"/>
<path d="M259.076 77.52V77.28V77.52Z" stroke="white" stroke-width="0.48" stroke-linecap="round" stroke-linejoin="round"/>
<path d="M259.076 77.28H259.316H259.076Z" stroke="white" stroke-width="0.48" stroke-linecap="round" stroke-linejoin="round"/>
<path d="M259.316 77.28V77.04V77.28Z" stroke="white" stroke-width="0.48" stroke-linecap="round" stroke-linejoin="round"/>
<path d="M259.316 77.04L259.556 76.8L259.316 77.04Z" stroke="white" stroke-width="0.48" stroke-linecap="round" stroke-linejoin="round"/>
<path d="M259.557 76.8H259.797H259.557Z" stroke="white" stroke-width="0.48" stroke-linecap="round" stroke-linejoin="round"/>
<path d="M259.797 76.8001L260.037 76.5601L259.797 76.8001Z" stroke="white" stroke-width="0.48" stroke-linecap="round" stroke-linejoin="round"/>
<path d="M260.037 76.5598L260.277 76.3198L260.037 76.5598Z" stroke="white" stroke-width="0.48" stroke-linecap="round" stroke-linejoin="round"/>
<path d="M260.278 76.3198L261 75.8398L260.278 76.3198Z" stroke="white" stroke-width="0.48" stroke-linecap="round" stroke-linejoin="round"/>
<path d="M260.999 75.8399L262.682 74.6399L260.999 75.8399Z" stroke="white" stroke-width="0.48" stroke-linecap="round" stroke-linejoin="round"/>
<path d="M262.682 74.64L266.047 72.96L262.682 74.64Z" stroke="white" stroke-width="0.48" stroke-linecap="round" stroke-linejoin="round"/>
<path d="M266.048 72.9598L271.817 70.3198L266.048 72.9598Z" stroke="white" stroke-width="0.48" stroke-linecap="round" stroke-linejoin="round"/>
<path d="M271.817 70.3199L277.587 67.6799L271.817 70.3199Z" stroke="white" stroke-width="0.48" stroke-linecap="round" stroke-linejoin="round"/>
<path d="M263.163 74.3999H315.09H263.163Z" stroke="white" stroke-width="1.68" stroke-linecap="round" stroke-linejoin="round"/>
<path d="M190.08 90.24L181.186 91.44L190.08 90.24Z" stroke="white" stroke-width="0.48" stroke-linecap="round" stroke-linejoin="round"/>
<path d="M181.186 91.4399L172.291 93.5999L181.186 91.4399Z" stroke="white" stroke-width="0.48" stroke-linecap="round" stroke-linejoin="round"/>
<path d="M172.291 93.5999L169.646 94.5598L172.291 93.5999Z" stroke="white" stroke-width="0.48" stroke-linecap="round" stroke-linejoin="round"/>
<path d="M165.56 96L163.637 96.48L165.56 96Z" stroke="white" stroke-width="0.48" stroke-linecap="round" stroke-linejoin="round"/>
<path d="M163.636 96.48L161.473 97.44L163.636 96.48Z" stroke="white" stroke-width="0.48" stroke-linecap="round" stroke-linejoin="round"/>
<path d="M157.626 99.3599L155.463 100.32L157.626 99.3599Z" stroke="white" stroke-width="0.48" stroke-linecap="round" stroke-linejoin="round"/>
<path d="M155.463 100.32L147.771 105.12L155.463 100.32Z" stroke="white" stroke-width="0.48" stroke-linecap="round" stroke-linejoin="round"/>
<path d="M147.77 105.12L140.558 110.64L147.77 105.12Z" stroke="white" stroke-width="0.48" stroke-linecap="round" stroke-linejoin="round"/>
<path d="M140.557 110.64L140.317 110.88L140.557 110.64Z" stroke="white" stroke-width="0.48" stroke-linecap="round" stroke-linejoin="round"/>
<path d="M137.193 113.76L134.067 116.88L137.193 113.76Z" stroke="white" stroke-width="0.48" stroke-linecap="round" stroke-linejoin="round"/>
<path d="M131.183 120L128.058 123.84L131.183 120Z" stroke="white" stroke-width="0.48" stroke-linecap="round" stroke-linejoin="round"/>
<path d="M128.057 123.84L123.009 131.28L128.057 123.84Z" stroke="white" stroke-width="0.48" stroke-linecap="round" stroke-linejoin="round"/>
<path d="M123.009 131.28L119.644 137.52L123.009 131.28Z" stroke="white" stroke-width="0.48" stroke-linecap="round" stroke-linejoin="round"/>
<path d="M117.72 141.36L116.277 145.2L117.72 141.36Z" stroke="white" stroke-width="0.48" stroke-linecap="round" stroke-linejoin="round"/>
<path d="M114.835 149.28L112.672 156.48L114.835 149.28Z" stroke="white" stroke-width="0.48" stroke-linecap="round" stroke-linejoin="round"/>
<path d="M112.671 156.48L110.988 165.36L112.671 156.48Z" stroke="white" stroke-width="0.48" stroke-linecap="round" stroke-linejoin="round"/>
<path d="M110.988 165.36L110.508 169.68L110.988 165.36Z" stroke="white" stroke-width="0.48" stroke-linecap="round" stroke-linejoin="round"/>
<path d="M190.081 90.24H213.64H190.081Z" stroke="white" stroke-width="0.48" stroke-linecap="round" stroke-linejoin="round"/>
<path d="M217.967 90.24H222.054H217.967Z" stroke="white" stroke-width="0.48" stroke-linecap="round" stroke-linejoin="round"/>
<path d="M226.381 90.24H249.94H226.381Z" stroke="white" stroke-width="0.48" stroke-linecap="round" stroke-linejoin="round"/>
<path d="M254.027 90.24H258.355H254.027Z" stroke="white" stroke-width="0.48" stroke-linecap="round" stroke-linejoin="round"/>
<path d="M262.682 90.24H286.001H262.682Z" stroke="white" stroke-width="0.48" stroke-linecap="round" stroke-linejoin="round"/>
<path d="M290.328 90.24H294.655H290.328Z" stroke="white" stroke-width="0.48" stroke-linecap="round" stroke-linejoin="round"/>
<path d="M298.982 90.24H322.301H298.982Z" stroke="white" stroke-width="0.48" stroke-linecap="round" stroke-linejoin="round"/>
<path d="M110.508 169.68V193.68V169.68Z" stroke="white" stroke-width="0.48" stroke-linecap="round" stroke-linejoin="round"/>
<path d="M110.508 198V202.08V198Z" stroke="white" stroke-width="0.48" stroke-linecap="round" stroke-linejoin="round"/>
<path d="M110.508 206.4V230.4V206.4Z" stroke="white" stroke-width="0.48" stroke-linecap="round" stroke-linejoin="round"/>
<path d="M110.508 234.72V238.8V234.72Z" stroke="white" stroke-width="0.48" stroke-linecap="round" stroke-linejoin="round"/>
<path d="M110.508 243.12V267.12V243.12Z" stroke="white" stroke-width="0.48" stroke-linecap="round" stroke-linejoin="round"/>
<path d="M110.508 271.44V275.52V271.44Z" stroke="white" stroke-width="0.48" stroke-linecap="round" stroke-linejoin="round"/>
<path d="M110.508 279.84V303.84V279.84Z" stroke="white" stroke-width="0.48" stroke-linecap="round" stroke-linejoin="round"/>
<path d="M133.346 237.84H87.9102H133.346Z" stroke="white" stroke-width="1.68" stroke-linecap="round" stroke-linejoin="round"/>
<path d="M87.9102 295.68L92.2374 293.04L87.9102 295.68Z" stroke="white" stroke-width="0.96" stroke-linecap="round" stroke-linejoin="round"/>
<path d="M87.9102 290.4L92.2374 293.04L87.9102 290.4Z" stroke="white" stroke-width="0.96" stroke-linecap="round" stroke-linejoin="round"/>
<path d="M87.9102 290.4L92.2374 288L87.9102 290.4Z" stroke="white" stroke-width="0.96" stroke-linecap="round" stroke-linejoin="round"/>
<path d="M87.9102 285.6L92.2374 288L87.9102 285.6Z" stroke="white" stroke-width="0.96" stroke-linecap="round" stroke-linejoin="round"/>
<path d="M87.9102 285.6L92.2374 282.96L87.9102 285.6Z" stroke="white" stroke-width="0.96" stroke-linecap="round" stroke-linejoin="round"/>
<path d="M87.9102 280.56L92.2374 282.96L87.9102 280.56Z" stroke="white" stroke-width="0.96" stroke-linecap="round" stroke-linejoin="round"/>
<path d="M87.9102 280.56L92.2374 277.92L87.9102 280.56Z" stroke="white" stroke-width="0.96" stroke-linecap="round" stroke-linejoin="round"/>
<path d="M87.9102 275.52L92.2374 277.92L87.9102 275.52Z" stroke="white" stroke-width="0.96" stroke-linecap="round" stroke-linejoin="round"/>
<path d="M87.9102 275.52L92.2374 272.88L87.9102 275.52Z" stroke="white" stroke-width="0.96" stroke-linecap="round" stroke-linejoin="round"/>
<path d="M87.9102 270.48L92.2374 272.88L87.9102 270.48Z" stroke="white" stroke-width="0.96" stroke-linecap="round" stroke-linejoin="round"/>
<path d="M87.9102 270.48L92.2374 267.84L87.9102 270.48Z" stroke="white" stroke-width="0.96" stroke-linecap="round" stroke-linejoin="round"/>
<path d="M87.9102 265.44L92.2374 267.84L87.9102 265.44Z" stroke="white" stroke-width="0.96" stroke-linecap="round" stroke-linejoin="round"/>
<path d="M87.9102 265.44L92.2374 262.8L87.9102 265.44Z" stroke="white" stroke-width="0.96" stroke-linecap="round" stroke-linejoin="round"/>
<path d="M87.9102 260.4L92.2374 262.8L87.9102 260.4Z" stroke="white" stroke-width="0.96" stroke-linecap="round" stroke-linejoin="round"/>
<path d="M87.9102 260.4L92.2374 258L87.9102 260.4Z" stroke="white" stroke-width="0.96" stroke-linecap="round" stroke-linejoin="round"/>
<path d="M87.9102 255.36L92.2374 258L87.9102 255.36Z" stroke="white" stroke-width="0.96" stroke-linecap="round" stroke-linejoin="round"/>
<path d="M87.9102 255.36L92.2374 252.96L87.9102 255.36Z" stroke="white" stroke-width="0.96" stroke-linecap="round" stroke-linejoin="round"/>
<path d="M87.9102 250.32L92.2374 252.96L87.9102 250.32Z" stroke="white" stroke-width="0.96" stroke-linecap="round" stroke-linejoin="round"/>
<path d="M87.9102 250.32L92.2374 247.92L87.9102 250.32Z" stroke="white" stroke-width="0.96" stroke-linecap="round" stroke-linejoin="round"/>
<path d="M87.9102 245.28L92.2374 247.92L87.9102 245.28Z" stroke="white" stroke-width="0.96" stroke-linecap="round" stroke-linejoin="round"/>
<path d="M87.9102 245.28L92.2374 242.88L87.9102 245.28Z" stroke="white" stroke-width="0.96" stroke-linecap="round" stroke-linejoin="round"/>
<path d="M87.9102 240.24L92.2374 242.88L87.9102 240.24Z" stroke="white" stroke-width="0.96" stroke-linecap="round" stroke-linejoin="round"/>
<path d="M87.9102 240.24L92.2374 237.84L87.9102 240.24Z" stroke="white" stroke-width="0.96" stroke-linecap="round" stroke-linejoin="round"/>
<path d="M133.346 295.68L129.019 293.04L133.346 295.68Z" stroke="white" stroke-width="0.96" stroke-linecap="round" stroke-linejoin="round"/>
<path d="M133.346 290.4L129.019 293.04L133.346 290.4Z" stroke="white" stroke-width="0.96" stroke-linecap="round" stroke-linejoin="round"/>
<path d="M133.346 290.4L129.019 288L133.346 290.4Z" stroke="white" stroke-width="0.96" stroke-linecap="round" stroke-linejoin="round"/>
<path d="M133.346 285.6L129.019 288L133.346 285.6Z" stroke="white" stroke-width="0.96" stroke-linecap="round" stroke-linejoin="round"/>
<path d="M133.346 285.6L129.019 282.96L133.346 285.6Z" stroke="white" stroke-width="0.96" stroke-linecap="round" stroke-linejoin="round"/>
<path d="M133.346 280.56L129.019 282.96L133.346 280.56Z" stroke="white" stroke-width="0.96" stroke-linecap="round" stroke-linejoin="round"/>
<path d="M133.346 280.56L129.019 277.92L133.346 280.56Z" stroke="white" stroke-width="0.96" stroke-linecap="round" stroke-linejoin="round"/>
<path d="M133.346 275.52L129.019 277.92L133.346 275.52Z" stroke="white" stroke-width="0.96" stroke-linecap="round" stroke-linejoin="round"/>
<path d="M133.346 275.52L129.019 272.88L133.346 275.52Z" stroke="white" stroke-width="0.96" stroke-linecap="round" stroke-linejoin="round"/>
<path d="M133.346 270.48L129.019 272.88L133.346 270.48Z" stroke="white" stroke-width="0.96" stroke-linecap="round" stroke-linejoin="round"/>
<path d="M133.346 270.48L129.019 267.84L133.346 270.48Z" stroke="white" stroke-width="0.96" stroke-linecap="round" stroke-linejoin="round"/>
<path d="M133.346 265.44L129.019 267.84L133.346 265.44Z" stroke="white" stroke-width="0.96" stroke-linecap="round" stroke-linejoin="round"/>
<path d="M133.346 265.44L129.019 262.8L133.346 265.44Z" stroke="white" stroke-width="0.96" stroke-linecap="round" stroke-linejoin="round"/>
<path d="M133.346 260.4L129.019 262.8L133.346 260.4Z" stroke="white" stroke-width="0.96" stroke-linecap="round" stroke-linejoin="round"/>
<path d="M133.346 260.4L129.019 258L133.346 260.4Z" stroke="white" stroke-width="0.96" stroke-linecap="round" stroke-linejoin="round"/>
<path d="M133.346 255.36L129.019 258L133.346 255.36Z" stroke="white" stroke-width="0.96" stroke-linecap="round" stroke-linejoin="round"/>
<path d="M133.346 255.36L129.019 252.96L133.346 255.36Z" stroke="white" stroke-width="0.96" stroke-linecap="round" stroke-linejoin="round"/>
<path d="M133.346 250.32L129.019 252.96L133.346 250.32Z" stroke="white" stroke-width="0.96" stroke-linecap="round" stroke-linejoin="round"/>
<path d="M133.346 250.32L129.019 247.92L133.346 250.32Z" stroke="white" stroke-width="0.96" stroke-linecap="round" stroke-linejoin="round"/>
<path d="M133.346 245.28L129.019 247.92L133.346 245.28Z" stroke="white" stroke-width="0.96" stroke-linecap="round" stroke-linejoin="round"/>
<path d="M133.346 245.28L129.019 242.88L133.346 245.28Z" stroke="white" stroke-width="0.96" stroke-linecap="round" stroke-linejoin="round"/>
<path d="M133.346 240.24L129.019 242.88L133.346 240.24Z" stroke="white" stroke-width="0.96" stroke-linecap="round" stroke-linejoin="round"/>
<path d="M133.346 240.24L129.019 237.84L133.346 240.24Z" stroke="white" stroke-width="0.96" stroke-linecap="round" stroke-linejoin="round"/>
<path d="M238.401 113.04V67.6799V113.04Z" stroke="white" stroke-width="1.68" stroke-linecap="round" stroke-linejoin="round"/>
<path d="M310.762 113.04L315.089 108.72L310.762 113.04Z" stroke="white" stroke-width="1.68" stroke-linecap="round" stroke-linejoin="round"/>
<path d="M296.098 113.04L295.377 112.08L296.098 113.04Z" stroke="white" stroke-width="0.96" stroke-linecap="round" stroke-linejoin="round"/>
<path d="M291.049 113.04L292.251 111.12L291.049 113.04Z" stroke="white" stroke-width="0.96" stroke-linecap="round" stroke-linejoin="round"/>
<path d="M291.049 113.04L289.366 110.16L291.049 113.04Z" stroke="white" stroke-width="0.96" stroke-linecap="round" stroke-linejoin="round"/>
<path d="M286.001 113.04L287.924 109.68L286.001 113.04Z" stroke="white" stroke-width="0.96" stroke-linecap="round" stroke-linejoin="round"/>
<path d="M286.001 113.04L283.597 108.72L286.001 113.04Z" stroke="white" stroke-width="0.96" stroke-linecap="round" stroke-linejoin="round"/>
<path d="M280.952 113.04L283.597 108.72L280.952 113.04Z" stroke="white" stroke-width="0.96" stroke-linecap="round" stroke-linejoin="round"/>
<path d="M280.953 113.04L278.549 108.72L280.953 113.04Z" stroke="white" stroke-width="0.96" stroke-linecap="round" stroke-linejoin="round"/>
<path d="M275.904 113.04L278.549 108.72L275.904 113.04Z" stroke="white" stroke-width="0.96" stroke-linecap="round" stroke-linejoin="round"/>
<path d="M275.904 113.04L273.5 108.72L275.904 113.04Z" stroke="white" stroke-width="0.96" stroke-linecap="round" stroke-linejoin="round"/>
<path d="M270.855 113.04L273.5 108.72L270.855 113.04Z" stroke="white" stroke-width="0.96" stroke-linecap="round" stroke-linejoin="round"/>
<path d="M270.855 113.04L268.451 108.72L270.855 113.04Z" stroke="white" stroke-width="0.96" stroke-linecap="round" stroke-linejoin="round"/>
<path d="M265.807 113.04L268.451 108.72L265.807 113.04Z" stroke="white" stroke-width="0.96" stroke-linecap="round" stroke-linejoin="round"/>
<path d="M265.807 113.04L263.403 108.72L265.807 113.04Z" stroke="white" stroke-width="0.96" stroke-linecap="round" stroke-linejoin="round"/>
<path d="M260.759 113.04L263.403 108.72L260.759 113.04Z" stroke="white" stroke-width="0.96" stroke-linecap="round" stroke-linejoin="round"/>
<path d="M260.759 113.04L258.354 108.72L260.759 113.04Z" stroke="white" stroke-width="0.96" stroke-linecap="round" stroke-linejoin="round"/>
<path d="M255.71 113.04L258.354 108.72L255.71 113.04Z" stroke="white" stroke-width="0.96" stroke-linecap="round" stroke-linejoin="round"/>
<path d="M255.711 113.04L253.307 108.72L255.711 113.04Z" stroke="white" stroke-width="0.96" stroke-linecap="round" stroke-linejoin="round"/>
<path d="M250.902 113.04L253.306 108.72L250.902 113.04Z" stroke="white" stroke-width="0.96" stroke-linecap="round" stroke-linejoin="round"/>
<path d="M250.902 113.04L248.258 108.72L250.902 113.04Z" stroke="white" stroke-width="0.96" stroke-linecap="round" stroke-linejoin="round"/>
<path d="M275.904 67.6799L276.384 68.1599L275.904 67.6799Z" stroke="white" stroke-width="0.96" stroke-linecap="round" stroke-linejoin="round"/>
<path d="M275.903 67.6799L275.423 68.6399L275.903 67.6799Z" stroke="white" stroke-width="0.96" stroke-linecap="round" stroke-linejoin="round"/>
<path d="M270.855 67.6799L272.298 70.0799L270.855 67.6799Z" stroke="white" stroke-width="0.96" stroke-linecap="round" stroke-linejoin="round"/>
<path d="M270.856 67.6799L268.692 71.7599L270.856 67.6799Z" stroke="white" stroke-width="0.96" stroke-linecap="round" stroke-linejoin="round"/>
<path d="M265.807 67.6799L268.211 71.7599L265.807 67.6799Z" stroke="white" stroke-width="0.96" stroke-linecap="round" stroke-linejoin="round"/>
<path d="M265.807 67.6799L263.403 71.9999L265.807 67.6799Z" stroke="white" stroke-width="0.96" stroke-linecap="round" stroke-linejoin="round"/>
<path d="M260.759 67.6799L263.403 71.9999L260.759 67.6799Z" stroke="white" stroke-width="0.96" stroke-linecap="round" stroke-linejoin="round"/>
<path d="M260.759 67.6799L258.354 71.9999L260.759 67.6799Z" stroke="white" stroke-width="0.96" stroke-linecap="round" stroke-linejoin="round"/>
<path d="M255.71 67.6799L258.354 71.9999L255.71 67.6799Z" stroke="white" stroke-width="0.96" stroke-linecap="round" stroke-linejoin="round"/>
<path d="M255.711 67.6799L253.307 71.9999L255.711 67.6799Z" stroke="white" stroke-width="0.96" stroke-linecap="round" stroke-linejoin="round"/>
<path d="M250.902 67.6799L253.306 71.9999L250.902 67.6799Z" stroke="white" stroke-width="0.96" stroke-linecap="round" stroke-linejoin="round"/>
<path d="M250.902 67.6799L248.258 71.9999L250.902 67.6799Z" stroke="white" stroke-width="0.96" stroke-linecap="round" stroke-linejoin="round"/>
<path d="M245.854 67.6799L248.258 71.9999L245.854 67.6799Z" stroke="white" stroke-width="0.96" stroke-linecap="round" stroke-linejoin="round"/>
<path d="M245.853 67.6799L243.209 71.9999L245.853 67.6799Z" stroke="white" stroke-width="0.96" stroke-linecap="round" stroke-linejoin="round"/>
<path d="M240.806 67.6799L243.21 71.9999L240.806 67.6799Z" stroke="white" stroke-width="0.96" stroke-linecap="round" stroke-linejoin="round"/>
<path d="M240.805 67.6799L238.401 71.9999L240.805 67.6799Z" stroke="white" stroke-width="0.96" stroke-linecap="round" stroke-linejoin="round"/>
<path d="M238.401 72H267.971H238.401Z" stroke="white" stroke-width="0.72" stroke-linecap="round" stroke-linejoin="round"/>
<path d="M245.854 113.04L248.258 108.72L245.854 113.04Z" stroke="white" stroke-width="0.96" stroke-linecap="round" stroke-linejoin="round"/>
<path d="M245.853 113.04L243.209 108.72L245.853 113.04Z" stroke="white" stroke-width="0.96" stroke-linecap="round" stroke-linejoin="round"/>
<path d="M240.806 113.04L243.21 108.72L240.806 113.04Z" stroke="white" stroke-width="0.96" stroke-linecap="round" stroke-linejoin="round"/>
<path d="M240.805 113.04L238.401 108.72L240.805 113.04Z" stroke="white" stroke-width="0.96" stroke-linecap="round" stroke-linejoin="round"/>
<path d="M238.401 108.72H285.28H238.401Z" stroke="white" stroke-width="0.72" stroke-linecap="round" stroke-linejoin="round"/>
<path d="M310.762 67.6799L315.089 71.9999L310.762 67.6799Z" stroke="white" stroke-width="1.68" stroke-linecap="round" stroke-linejoin="round"/>
<path d="M87.9102 295.68H133.346H87.9102Z" stroke="white" stroke-width="1.68" stroke-linecap="round" stroke-linejoin="round"/>
<path d="M129.019 237.84V300V237.84Z" stroke="white" stroke-width="0.72" stroke-linecap="round" stroke-linejoin="round"/>
<path d="M129.019 300H92.2373H129.019Z" stroke="white" stroke-width="1.68" stroke-linecap="round" stroke-linejoin="round"/>
<path d="M87.9102 295.68L92.2374 300L87.9102 295.68Z" stroke="white" stroke-width="1.68" stroke-linecap="round" stroke-linejoin="round"/>
<path d="M133.346 295.68L129.019 300L133.346 295.68Z" stroke="white" stroke-width="1.68" stroke-linecap="round" stroke-linejoin="round"/>
<path d="M310.041 113.04L315.089 108L310.041 113.04Z" stroke="white" stroke-width="0.48" stroke-linecap="round" stroke-linejoin="round"/>
<path d="M298.262 112.8L304.753 106.32L298.262 112.8Z" stroke="white" stroke-width="0.48" stroke-linecap="round" stroke-linejoin="round"/>
<path d="M288.886 110.16L292.732 106.32L288.886 110.16Z" stroke="white" stroke-width="0.48" stroke-linecap="round" stroke-linejoin="round"/>
<path d="M312.445 74.4L315.09 72L312.445 74.4Z" stroke="white" stroke-width="0.48" stroke-linecap="round" stroke-linejoin="round"/>
<path d="M300.425 74.3999L307.396 67.6799L300.425 74.3999Z" stroke="white" stroke-width="0.48" stroke-linecap="round" stroke-linejoin="round"/>
<path d="M288.404 74.3999L295.136 67.6799L288.404 74.3999Z" stroke="white" stroke-width="0.48" stroke-linecap="round" stroke-linejoin="round"/>
<path d="M276.385 74.3999L283.116 67.6799L276.385 74.3999Z" stroke="white" stroke-width="0.48" stroke-linecap="round" stroke-linejoin="round"/>
<path d="M264.364 74.4L265.807 72.96L264.364 74.4Z" stroke="white" stroke-width="0.48" stroke-linecap="round" stroke-linejoin="round"/>

    <!--    1 A-->
    <g class="group">
    </g>
    <!--    2 D-->
    <g class="group">
    </g>
    <!--    3 Dy-->
    <g class="group">
    </g>
    <!--    4 Dh-->
    <g class="group">
    </g>
    <!--    5 D1-->
    <g class="group">
    </g>
    <!--   6 D2-->
    <g class="group">
    </g>
    <!--   7 d-->
    <g class="group">
        <path d="M114.131 319.763L118.875 306.754H120.817L115.323 321.823H113.547L114.131 319.763ZM107.67 316.633L107.745 316.427C108.041 315.616 108.414 314.88 108.863 314.22C109.323 313.553 109.834 312.98 110.398 312.503C110.969 312.025 111.572 311.659 112.208 311.404C112.854 311.142 113.514 311.012 114.189 311.012C114.9 311.012 115.476 311.129 115.92 311.365C116.372 311.594 116.702 311.931 116.909 312.375C117.125 312.814 117.228 313.343 117.217 313.965C117.206 314.586 117.099 315.289 116.897 316.074L116.568 316.977C116.207 317.755 115.802 318.455 115.353 319.076C114.911 319.698 114.422 320.227 113.886 320.666C113.357 321.104 112.782 321.441 112.16 321.676C111.54 321.905 110.872 322.02 110.155 322.02C109.494 322.02 108.937 321.886 108.485 321.617C108.039 321.349 107.706 320.973 107.486 320.489C107.273 320.005 107.177 319.436 107.2 318.782C107.232 318.121 107.389 317.405 107.67 316.633ZM109.688 316.427L109.613 316.633C109.419 317.163 109.294 317.66 109.236 318.125C109.185 318.589 109.217 318.998 109.332 319.351C109.447 319.704 109.655 319.982 109.957 320.185C110.262 320.381 110.675 320.479 111.197 320.479C111.837 320.479 112.41 320.352 112.913 320.097C113.424 319.842 113.881 319.505 114.284 319.086C114.688 318.668 115.048 318.213 115.366 317.722L116.228 315.358C116.276 314.998 116.281 314.652 116.242 314.318C116.213 313.978 116.121 313.677 115.966 313.415C115.82 313.147 115.594 312.935 115.29 312.778C114.992 312.621 114.599 312.542 114.112 312.542C113.583 312.542 113.089 312.647 112.629 312.856C112.179 313.059 111.767 313.34 111.392 313.7C111.02 314.053 110.689 314.465 110.398 314.936C110.118 315.4 109.881 315.898 109.688 316.427Z" fill="white"/>
        <path d="M88.1502 303.84C88.1502 303.707 88.0427 303.6 87.9102 303.6C87.7776 303.6 87.6702 303.707 87.6702 303.84H88.1502ZM87.6702 336.72C87.6702 336.852 87.7776 336.96 87.9102 336.96C88.0427 336.96 88.1502 336.852 88.1502 336.72H87.6702ZM133.586 303.84C133.586 303.707 133.478 303.6 133.346 303.6C133.213 303.6 133.106 303.707 133.106 303.84H133.586ZM133.106 336.72C133.106 336.852 133.213 336.96 133.346 336.96C133.478 336.96 133.586 336.852 133.586 336.72H133.106ZM114.131 319.763L113.906 319.681C113.904 319.686 113.902 319.692 113.901 319.698L114.131 319.763ZM118.875 306.754V306.514C118.774 306.514 118.684 306.577 118.649 306.671L118.875 306.754ZM120.817 306.754L121.043 306.836C121.07 306.762 121.059 306.68 121.014 306.616C120.969 306.552 120.896 306.514 120.817 306.514V306.754ZM115.323 321.823V322.063C115.423 322.063 115.514 322 115.548 321.906L115.323 321.823ZM113.547 321.823L113.316 321.758C113.296 321.83 113.311 321.908 113.356 321.968C113.401 322.028 113.472 322.063 113.547 322.063V321.823ZM107.67 316.633L107.896 316.716L107.896 316.716L107.67 316.633ZM107.745 316.427L107.52 316.345L107.52 316.345L107.745 316.427ZM108.863 314.22L108.666 314.084L108.665 314.085L108.863 314.22ZM110.398 312.503L110.244 312.319L110.243 312.32L110.398 312.503ZM112.208 311.404L112.298 311.627L112.299 311.626L112.208 311.404ZM115.92 311.365L115.807 311.577L115.811 311.579L115.92 311.365ZM116.909 312.375L116.691 312.477L116.693 312.481L116.909 312.375ZM116.897 316.074L117.122 316.156C117.125 316.149 117.127 316.142 117.129 316.134L116.897 316.074ZM116.568 316.977L116.785 317.078C116.788 317.071 116.791 317.065 116.793 317.059L116.568 316.977ZM115.353 319.076L115.159 318.936L115.158 318.937L115.353 319.076ZM113.886 320.666L113.734 320.48L113.733 320.481L113.886 320.666ZM112.16 321.676L112.243 321.901L112.245 321.901L112.16 321.676ZM108.485 321.617L108.361 321.823L108.362 321.824L108.485 321.617ZM107.486 320.489L107.267 320.586L107.268 320.589L107.486 320.489ZM107.2 318.782L106.96 318.77L106.96 318.774L107.2 318.782ZM109.688 316.427L109.462 316.345L109.462 316.345L109.688 316.427ZM109.613 316.633L109.838 316.716L109.838 316.716L109.613 316.633ZM109.236 318.125L108.998 318.095L108.997 318.098L109.236 318.125ZM109.957 320.185L109.823 320.384L109.827 320.387L109.957 320.185ZM112.913 320.097L112.806 319.882L112.805 319.883L112.913 320.097ZM115.366 317.722L115.568 317.853C115.578 317.838 115.586 317.822 115.592 317.805L115.366 317.722ZM116.228 315.358L116.454 315.44C116.46 315.424 116.464 315.407 116.466 315.389L116.228 315.358ZM116.242 314.318L116.003 314.338L116.004 314.345L116.242 314.318ZM115.966 313.415L115.755 313.53L115.759 313.538L115.966 313.415ZM115.29 312.778L115.178 312.99L115.18 312.991L115.29 312.778ZM112.629 312.856L112.728 313.075L112.729 313.074L112.629 312.856ZM111.392 313.7L111.557 313.874L111.558 313.873L111.392 313.7ZM110.398 314.936L110.194 314.81L110.193 314.812L110.398 314.936ZM87.9102 330.96L87.878 330.722C87.7589 330.738 87.6702 330.84 87.6702 330.96C87.6702 331.08 87.7589 331.181 87.878 331.198L87.9102 330.96ZM102.094 329.04L102.286 329.184C102.344 329.107 102.35 329.002 102.301 328.918C102.252 328.835 102.158 328.789 102.062 328.802L102.094 329.04ZM102.094 332.88L102.062 333.118C102.157 333.131 102.252 333.085 102.301 333.001C102.35 332.918 102.344 332.813 102.286 332.736L102.094 332.88ZM133.346 330.96L133.378 331.198C133.497 331.182 133.586 331.08 133.586 330.96C133.586 330.84 133.497 330.738 133.378 330.722L133.346 330.96ZM119.162 332.88L118.97 332.736C118.912 332.813 118.906 332.918 118.955 333.001C119.004 333.085 119.098 333.131 119.194 333.118L119.162 332.88ZM119.162 329.04L119.194 328.802C119.098 328.789 119.004 328.835 118.955 328.918C118.906 329.002 118.912 329.107 118.97 329.184L119.162 329.04ZM87.6702 303.84V336.72H88.1502V303.84H87.6702ZM133.106 303.84V336.72H133.586V303.84H133.106ZM114.357 319.845L119.1 306.836L118.649 306.671L113.906 319.681L114.357 319.845ZM118.875 306.994H120.817V306.514H118.875V306.994ZM120.592 306.671L115.097 321.741L115.548 321.906L121.043 306.836L120.592 306.671ZM115.323 321.583H113.547V322.063H115.323V321.583ZM113.778 321.889L114.362 319.829L113.901 319.698L113.316 321.758L113.778 321.889ZM107.896 316.716L107.971 316.51L107.52 316.345L107.445 316.551L107.896 316.716ZM107.971 316.51C108.26 315.716 108.624 314.998 109.062 314.355L108.665 314.085C108.203 314.763 107.822 315.517 107.52 316.345L107.971 316.51ZM109.061 314.356C109.509 313.705 110.007 313.149 110.553 312.686L110.243 312.32C109.661 312.812 109.136 313.401 108.666 314.084L109.061 314.356ZM110.552 312.687C111.105 312.224 111.687 311.872 112.298 311.627L112.119 311.181C111.458 311.447 110.833 311.826 110.244 312.319L110.552 312.687ZM112.299 311.626C112.916 311.376 113.546 311.252 114.189 311.252V310.772C113.482 310.772 112.791 310.909 112.118 311.182L112.299 311.626ZM114.189 311.252C114.876 311.252 115.41 311.366 115.807 311.577L116.032 311.153C115.543 310.893 114.924 310.772 114.189 310.772V311.252ZM115.811 311.579C116.217 311.784 116.508 312.082 116.691 312.477L117.126 312.274C116.896 311.779 116.527 311.403 116.028 311.151L115.811 311.579ZM116.693 312.481C116.889 312.877 116.987 313.367 116.977 313.961L117.457 313.969C117.468 313.319 117.361 312.75 117.124 312.269L116.693 312.481ZM116.977 313.961C116.967 314.558 116.864 315.242 116.664 316.014L117.129 316.134C117.335 315.336 117.446 314.614 117.457 313.969L116.977 313.961ZM116.671 315.992L116.342 316.895L116.793 317.059L117.122 316.156L116.671 315.992ZM116.35 316.876C115.995 317.642 115.598 318.328 115.159 318.936L115.548 319.217C116.007 318.582 116.419 317.868 116.785 317.078L116.35 316.876ZM115.158 318.937C114.726 319.543 114.252 320.057 113.734 320.48L114.038 320.851C114.592 320.398 115.095 319.853 115.549 319.216L115.158 318.937ZM113.733 320.481C113.224 320.903 112.671 321.226 112.075 321.452L112.245 321.901C112.892 321.656 113.491 321.305 114.039 320.851L113.733 320.481ZM112.077 321.451C111.486 321.669 110.846 321.78 110.155 321.78V322.26C110.898 322.26 111.595 322.141 112.243 321.901L112.077 321.451ZM110.155 321.78C109.526 321.78 109.014 321.652 108.607 321.411L108.362 321.824C108.86 322.119 109.461 322.26 110.155 322.26V321.78ZM108.608 321.412C108.206 321.169 107.905 320.831 107.705 320.39L107.268 320.589C107.508 321.116 107.873 321.529 108.361 321.823L108.608 321.412ZM107.706 320.392C107.51 319.948 107.418 319.417 107.44 318.79L106.96 318.774C106.937 319.455 107.036 320.062 107.267 320.586L107.706 320.392ZM107.44 318.794C107.47 318.162 107.621 317.47 107.896 316.716L107.445 316.551C107.157 317.34 106.994 318.081 106.96 318.77L107.44 318.794ZM109.462 316.345L109.387 316.551L109.838 316.716L109.913 316.51L109.462 316.345ZM109.387 316.551C109.189 317.095 109.058 317.609 108.998 318.095L109.474 318.154C109.529 317.711 109.65 317.232 109.838 316.716L109.387 316.551ZM108.997 318.098C108.944 318.588 108.976 319.033 109.104 319.425L109.56 319.277C109.458 318.963 109.426 318.59 109.474 318.151L108.997 318.098ZM109.104 319.425C109.235 319.828 109.476 320.151 109.823 320.384L110.091 319.986C109.834 319.814 109.659 319.58 109.56 319.277L109.104 319.425ZM109.827 320.387C110.184 320.617 110.648 320.719 111.197 320.719V320.239C110.702 320.239 110.339 320.146 110.087 319.983L109.827 320.387ZM111.197 320.719C111.87 320.719 112.48 320.585 113.022 320.311L112.805 319.883C112.339 320.118 111.805 320.239 111.197 320.239V320.719ZM113.021 320.311C113.556 320.044 114.035 319.691 114.457 319.253L114.111 318.92C113.727 319.319 113.292 319.639 112.806 319.882L113.021 320.311ZM114.457 319.253C114.871 318.823 115.241 318.356 115.568 317.853L115.165 317.592C114.855 318.07 114.504 318.512 114.111 318.92L114.457 319.253ZM115.592 317.805L116.454 315.44L116.003 315.276L115.141 317.64L115.592 317.805ZM116.466 315.389C116.516 315.012 116.521 314.645 116.481 314.29L116.004 314.345C116.04 314.658 116.036 314.985 115.991 315.326L116.466 315.389ZM116.481 314.297C116.449 313.926 116.348 313.589 116.172 313.293L115.759 313.538C115.894 313.765 115.977 314.03 116.003 314.338L116.481 314.297ZM116.176 313.301C116.005 312.985 115.742 312.74 115.399 312.564L115.18 312.991C115.447 313.129 115.635 313.309 115.755 313.53L116.176 313.301ZM115.401 312.565C115.057 312.384 114.622 312.302 114.112 312.302V312.782C114.576 312.782 114.926 312.857 115.178 312.99L115.401 312.565ZM114.112 312.302C113.55 312.302 113.022 312.413 112.53 312.638L112.729 313.074C113.155 312.88 113.615 312.782 114.112 312.782V312.302ZM112.531 312.637C112.055 312.852 111.62 313.149 111.226 313.527L111.558 313.873C111.915 313.531 112.304 313.266 112.728 313.075L112.531 312.637ZM111.227 313.526C110.838 313.894 110.494 314.323 110.194 314.81L110.603 315.062C110.883 314.607 111.201 314.212 111.557 313.874L111.227 313.526ZM110.193 314.812C109.904 315.29 109.66 315.801 109.462 316.345L109.913 316.51C110.101 315.994 110.332 315.511 110.604 315.06L110.193 314.812ZM87.9424 331.198L102.126 329.278L102.062 328.802L87.878 330.722L87.9424 331.198ZM101.902 328.896L100.459 330.816L100.843 331.104L102.286 329.184L101.902 328.896ZM100.459 331.104L101.902 333.024L102.286 332.736L100.843 330.816L100.459 331.104ZM102.126 332.642L87.9424 330.722L87.878 331.198L102.062 333.118L102.126 332.642ZM100.411 329.52H102.093V329.04H100.411V329.52ZM98.7278 329.76H101.853V329.28H98.7278V329.76ZM96.8046 330H101.613V329.52H96.8046V330ZM95.1218 330.24H101.372V329.76H95.1218V330.24ZM93.439 330.48H101.372V330H93.439V330.48ZM91.5158 330.72H101.132V330.24H91.5158V330.72ZM89.833 330.96H100.891V330.48H89.833V330.96ZM87.9102 331.2H100.651V330.72H87.9102V331.2ZM89.8334 331.44H100.892V330.96H89.8334V331.44ZM91.5162 331.68H101.132V331.2H91.5162V331.68ZM93.4394 331.92H101.373V331.44H93.4394V331.92ZM95.1222 332.16H101.373V331.68H95.1222V332.16ZM96.805 332.4H101.613V331.92H96.805V332.4ZM98.7282 332.64H101.853V332.16H98.7282V332.64ZM100.411 332.88H102.094V332.4H100.411V332.88ZM133.314 330.722L119.13 332.642L119.194 333.118L133.378 331.198L133.314 330.722ZM119.354 333.024L120.796 331.104L120.413 330.816L118.97 332.736L119.354 333.024ZM120.796 330.816L119.354 328.896L118.97 329.184L120.413 331.104L120.796 330.816ZM119.13 329.278L133.314 331.198L133.378 330.722L119.194 328.802L119.13 329.278ZM120.604 331.2H133.346V330.72H120.604V331.2ZM120.604 331.44H131.663V330.96H120.604V331.44ZM120.364 331.68H129.98V331.2H120.364V331.68ZM120.124 331.92H128.057V331.44H120.124V331.92ZM119.883 332.16H126.374V331.68H119.883V332.16ZM119.883 332.4H124.691V331.92H119.883V332.4ZM119.643 332.64H122.768V332.16H119.643V332.64ZM119.402 332.88H121.085V332.4H119.402V332.88ZM119.402 329.52H121.085V329.04H119.402V329.52ZM119.643 329.76H122.768V329.28H119.643V329.76ZM119.883 330H124.691V329.52H119.883V330ZM119.883 330.24H126.374V329.76H119.883V330.24ZM120.124 330.48H128.057V330H120.124V330.48ZM120.364 330.72H129.98V330.24H120.364V330.72ZM120.604 330.96H131.663V330.48H120.604V330.96ZM87.9102 331.2L133.346 331.2L133.346 330.72L87.9102 330.72L87.9102 331.2Z" fill="white"/>
    </g>
    <!--    8 dH-->
    <g class="group">
    </g>
    <!--    9 d1-->
    <g class="group">
    </g>
    <!--    10 d2-->
    <g class="group">
    </g>
    <!--    11 L-->
    <g class="group">
        <path d="M218.927 13.5611L218.365 15.1014H210.763L211.325 13.5611H218.927ZM216.368 0.816406L211.16 15.1014H209.144L214.353 0.816406H216.368Z" fill="white"/>
        <path d="M110.268 84.2398C110.268 84.3723 110.375 84.4798 110.508 84.4798C110.64 84.4798 110.748 84.3723 110.748 84.2398H110.268ZM314.85 44.1599C314.85 44.2924 314.957 44.3999 315.09 44.3999C315.222 44.3999 315.33 44.2924 315.33 44.1599H314.85ZM315.33 18.4799C315.33 18.3473 315.222 18.2399 315.09 18.2399C314.957 18.2399 314.85 18.3473 314.85 18.4799H315.33ZM110.748 18.4799C110.748 18.3473 110.64 18.2399 110.508 18.2399C110.375 18.2399 110.268 18.3473 110.268 18.4799H110.748ZM218.927 13.5611L219.153 13.6433C219.179 13.5697 219.169 13.4876 219.124 13.4235C219.079 13.3593 219.005 13.3211 218.927 13.3211V13.5611ZM218.365 15.1014V15.3414C218.466 15.3414 218.556 15.2784 218.591 15.1836L218.365 15.1014ZM210.763 15.1014L210.538 15.0192C210.511 15.0928 210.521 15.1748 210.566 15.239C210.611 15.3032 210.685 15.3414 210.763 15.3414V15.1014ZM211.325 13.5611V13.3211C211.224 13.3211 211.134 13.3841 211.099 13.4788L211.325 13.5611ZM216.368 0.816406L216.594 0.898618C216.621 0.825029 216.61 0.742978 216.565 0.678803C216.52 0.614629 216.447 0.576406 216.368 0.576406V0.816406ZM211.16 15.1014V15.3414C211.261 15.3414 211.351 15.2784 211.385 15.1836L211.16 15.1014ZM209.144 15.1014L208.919 15.0192C208.892 15.0928 208.903 15.1748 208.948 15.239C208.993 15.3032 209.066 15.3414 209.144 15.3414V15.1014ZM214.353 0.816406V0.576406C214.252 0.576406 214.162 0.63945 214.127 0.734194L214.353 0.816406ZM315.089 24.2399L315.121 24.4777C315.24 24.4616 315.329 24.36 315.329 24.2399C315.329 24.1198 315.24 24.0182 315.121 24.002L315.089 24.2399ZM300.905 26.1599L300.713 26.0157C300.655 26.0931 300.649 26.1978 300.698 26.2813C300.747 26.3648 300.842 26.4107 300.937 26.3977L300.905 26.1599ZM300.905 22.3197L300.937 22.0819C300.842 22.0689 300.747 22.1148 300.698 22.1983C300.649 22.2817 300.655 22.3865 300.713 22.4639L300.905 22.3197ZM110.508 24.2397L110.476 24.0019C110.357 24.018 110.268 24.1196 110.268 24.2397C110.268 24.3598 110.357 24.4614 110.476 24.4775L110.508 24.2397ZM124.691 22.3197L124.895 22.4471C124.944 22.3682 124.944 22.2678 124.893 22.1896C124.843 22.1114 124.752 22.0694 124.659 22.0819L124.691 22.3197ZM124.691 26.1599L124.659 26.3977C124.751 26.4102 124.842 26.3682 124.893 26.29C124.943 26.2118 124.944 26.1114 124.895 26.0325L124.691 26.1599ZM315.33 44.1599V18.4799H314.85V44.1599H315.33ZM218.702 13.4788L218.14 15.0192L218.591 15.1836L219.153 13.6433L218.702 13.4788ZM218.365 14.8614H210.763V15.3414H218.365V14.8614ZM210.988 15.1836L211.55 13.6433L211.099 13.4788L210.538 15.0192L210.988 15.1836ZM211.325 13.8011H218.927V13.3211H211.325V13.8011ZM216.143 0.734195L210.934 15.0192L211.385 15.1836L216.594 0.898618L216.143 0.734195ZM211.16 14.8614H209.144V15.3414H211.16V14.8614ZM209.37 15.1836L214.578 0.898618L214.127 0.734194L208.919 15.0192L209.37 15.1836ZM214.353 1.05641H216.368V0.576406H214.353V1.05641ZM315.057 24.002L300.873 25.922L300.937 26.3977L315.121 24.4777L315.057 24.002ZM301.097 26.304L302.54 24.384L302.156 24.0957L300.713 26.0157L301.097 26.304ZM302.54 24.0957L301.097 22.1756L300.713 22.4639L302.156 24.384L302.54 24.0957ZM300.873 22.5575L315.057 24.4777L315.121 24.002L300.937 22.0819L300.873 22.5575ZM302.348 24.4799H315.089V23.9999H302.348V24.4799ZM302.348 24.7199H313.407V24.2399H302.348V24.7199ZM302.108 24.9599H311.724V24.4799H302.108V24.9599ZM301.868 25.1999H309.801V24.7199H301.868V25.1999ZM301.627 25.4399H308.118V24.9599H301.627V25.4399ZM301.627 25.6799H306.435V25.1999H301.627V25.6799ZM301.387 25.9199H304.512V25.4399H301.387V25.9199ZM301.146 26.1599H302.829V25.6799H301.146V26.1599ZM301.146 22.7999H302.829V22.3199H301.146V22.7999ZM301.387 23.0399H304.512V22.5599H301.387V23.0399ZM301.627 23.2799H306.435V22.7999H301.627V23.2799ZM301.627 23.5199H308.118V23.0399H301.627V23.5199ZM301.868 23.7599H309.801V23.2799H301.868V23.7599ZM302.108 23.9999H311.724V23.5199H302.108V23.9999ZM302.348 24.2399H313.407V23.7599H302.348V24.2399ZM110.54 24.4775L124.724 22.5575L124.659 22.0819L110.476 24.0019L110.54 24.4775ZM124.488 22.1923L123.286 24.1123L123.693 24.3671L124.895 22.4471L124.488 22.1923ZM123.286 24.3671L124.488 26.2872L124.895 26.0325L123.693 24.1124L123.286 24.3671ZM124.723 25.922L110.54 24.0019L110.476 24.4775L124.659 26.3977L124.723 25.922ZM123.009 22.7999H124.692V22.3199H123.009V22.7999ZM121.326 23.0399H124.452V22.5599H121.326V23.0399ZM119.403 23.2799H124.452V22.7999H119.403V23.2799ZM117.72 23.5199H124.211V23.0399H117.72V23.5199ZM116.038 23.7599H123.971V23.2799H116.038V23.7599ZM114.114 23.9999H123.971V23.5199H114.114V23.9999ZM112.432 24.2399H123.731V23.7599H112.432V24.2399ZM110.508 24.4797H123.489V23.9997H110.508V24.4797ZM112.431 24.7199H123.73V24.2399H112.431V24.7199ZM114.114 24.9599H123.97V24.4799H114.114V24.9599ZM116.037 25.1999H123.97V24.7199H116.037V25.1999ZM117.72 25.4399H124.211V24.9599H117.72V25.4399ZM119.403 25.6799H124.451V25.1999H119.403V25.6799ZM121.326 25.9199H124.451V25.4399H121.326V25.9199ZM123.009 26.1599H124.691V25.6799H123.009V26.1599ZM315.089 23.9999L110.508 23.9997L110.508 24.4797L315.089 24.4799L315.089 23.9999ZM110.268 18.4799V84.2398H110.748V18.4799H110.268Z" fill="white"/>
        <path d="M13.5817 189.097L15.1226 189.657V197.259L13.5817 196.699V189.097ZM0.832031 191.669L15.1226 196.862V198.878L0.832031 193.685V191.669Z" fill="white"/>
        <path d="M101.854 90.48C101.986 90.48 102.094 90.3725 102.094 90.24C102.094 90.1074 101.986 90 101.854 90V90.48ZM56.4179 300.24C56.5504 300.24 56.6579 300.133 56.6579 300C56.6579 299.867 56.5504 299.76 56.4179 299.76V300.24ZM18.6749 299.76C18.5423 299.76 18.4349 299.867 18.4349 300C18.4349 300.133 18.5423 300.24 18.6749 300.24V299.76ZM18.6749 90C18.5423 90 18.4349 90.1074 18.4349 90.24C18.4349 90.3725 18.5423 90.48 18.6749 90.48V90ZM13.5817 189.097L13.6636 188.871C13.5901 188.844 13.5081 188.855 13.444 188.9C13.3798 188.945 13.3417 189.018 13.3417 189.097H13.5817ZM15.1226 189.657H15.3626C15.3626 189.556 15.2995 189.466 15.2046 189.431L15.1226 189.657ZM15.1226 197.259L15.0406 197.485C15.1142 197.512 15.1962 197.501 15.2603 197.456C15.3244 197.411 15.3626 197.337 15.3626 197.259H15.1226ZM13.5817 196.699H13.3417C13.3417 196.8 13.4048 196.89 13.4997 196.925L13.5817 196.699ZM0.832031 191.669L0.914001 191.444C0.840426 191.417 0.758436 191.428 0.694323 191.473C0.630209 191.518 0.592031 191.591 0.592031 191.669H0.832031ZM15.1226 196.862H15.3626C15.3626 196.761 15.2995 196.671 15.2046 196.637L15.1226 196.862ZM15.1226 198.878L15.0406 199.103C15.1142 199.13 15.1962 199.119 15.2603 199.074C15.3244 199.029 15.3626 198.956 15.3626 198.878H15.1226ZM0.832031 193.685H0.592031C0.592031 193.786 0.655191 193.876 0.750061 193.91L0.832031 193.685ZM24.2044 300L23.966 300.028C23.9803 300.148 24.0815 300.239 24.2024 300.24C24.3232 300.241 24.4259 300.152 24.4422 300.032L24.2044 300ZM22.5216 285.84L22.6776 285.658C22.6025 285.593 22.4957 285.582 22.4085 285.628C22.3213 285.675 22.2716 285.77 22.2832 285.868L22.5216 285.84ZM24.2044 287.28L24.2044 287.52L24.2044 287.52L24.2044 287.28ZM26.1274 285.84L26.3652 285.872C26.3782 285.776 26.3324 285.682 26.249 285.633C26.1656 285.584 26.061 285.59 25.9835 285.648L26.1274 285.84ZM24.2042 90.24L24.442 90.2077C24.4257 90.088 24.323 89.999 24.2022 90C24.0813 90.001 23.9801 90.0917 23.9659 90.2117L24.2042 90.24ZM26.1274 104.4L26.0003 104.604C26.0793 104.653 26.1796 104.652 26.2577 104.602C26.3358 104.551 26.3777 104.46 26.3652 104.368L26.1274 104.4ZM22.5216 104.4L22.2832 104.372C22.272 104.466 22.3175 104.558 22.3992 104.606C22.481 104.655 22.5836 104.651 22.6609 104.595L22.5216 104.4ZM56.4179 299.76H18.6749V300.24H56.4179V299.76ZM13.4997 189.322L15.0406 189.882L15.2046 189.431L13.6636 188.871L13.4997 189.322ZM14.8826 189.657V197.259H15.3626V189.657H14.8826ZM15.2046 197.034L13.6636 196.474L13.4997 196.925L15.0406 197.485L15.2046 197.034ZM13.8217 196.699V189.097H13.3417V196.699H13.8217ZM0.750061 191.895L15.0406 197.088L15.2046 196.637L0.914001 191.444L0.750061 191.895ZM14.8826 196.862V198.878H15.3626V196.862H14.8826ZM15.2046 198.652L0.914001 193.459L0.750061 193.91L15.0406 199.103L15.2046 198.652ZM1.07203 193.685V191.669H0.592031V193.685H1.07203ZM24.4427 299.972L22.7599 285.812L22.2832 285.868L23.966 300.028L24.4427 299.972ZM22.3655 286.022L24.0483 287.462L24.3604 287.098L22.6776 285.658L22.3655 286.022ZM24.3482 287.472L26.2713 286.032L25.9835 285.648L24.0605 287.088L24.3482 287.472ZM25.8896 285.808L23.9665 299.968L24.4422 300.032L26.3652 285.872L25.8896 285.808ZM22.7618 286.32H23.0022V285.84H22.7618V286.32ZM22.7618 286.56H23.2426V286.08H22.7618V286.56ZM22.7618 286.8H23.483V286.32H22.7618V286.8ZM22.7618 287.04H23.7234V286.56H22.7618V287.04ZM22.7618 287.28H23.9638V286.8H22.7618V287.28ZM22.7618 287.52L24.2044 287.52L24.2044 287.04L22.7618 287.04L22.7618 287.52ZM25.887 286.32H26.1274V285.84H25.887V286.32ZM25.6466 286.56H26.1274V286.08H25.6466V286.56ZM25.1658 286.8H26.1274V286.32H25.1658V286.8ZM24.9254 287.04H26.1274V286.56H24.9254V287.04ZM24.685 287.28H26.1274V286.8H24.685V287.28ZM24.2044 287.52L26.1274 287.52L26.1274 287.04L24.2044 287.04L24.2044 287.52ZM24.2042 298.32H24.685V297.84H24.2042V298.32ZM24.2042 298.56H24.4446V298.08H24.2042V298.56ZM24.2042 298.8H24.4446V298.32H24.2042V298.8ZM24.2042 299.04H24.4446V298.56H24.2042V299.04ZM24.2042 299.28H24.4446V298.8H24.2042V299.28ZM24.2042 299.52H24.4446V299.04H24.2042V299.52ZM24.2042 299.76H24.4446V299.28H24.2042V299.76ZM24.2042 300H24.4446V299.52H24.2042V300ZM23.9664 90.2723L25.8896 104.432L26.3652 104.368L24.442 90.2077L23.9664 90.2723ZM26.2544 104.196L24.3312 102.996L24.0771 103.404L26.0003 104.604L26.2544 104.196ZM24.0648 103.005L22.3822 104.205L22.6609 104.595L24.3435 103.395L24.0648 103.005ZM22.7599 104.428L24.4425 90.2683L23.9659 90.2117L22.2832 104.372L22.7599 104.428ZM24.2042 90.72H24.4446V90.24H24.2042V90.72ZM24.2042 90.96H24.4446V90.48H24.2042V90.96ZM24.2042 91.2H24.4446V90.72H24.2042V91.2ZM24.2042 91.44H24.4446V90.96H24.2042V91.44ZM24.2042 91.68H24.4446V91.2H24.2042V91.68ZM24.2042 91.92H24.4446V91.44H24.2042V91.92ZM24.2042 92.16H24.4446V91.68H24.2042V92.16ZM24.2042 92.4H24.685V91.92H24.2042V92.4ZM24.2042 103.44L26.1274 103.44L26.1274 102.96L24.2042 102.96L24.2042 103.44ZM24.685 103.68H26.1274V103.2H24.685V103.68ZM25.1658 103.92H26.1274V103.44H25.1658V103.92ZM25.4062 104.16H26.1274V103.68H25.4062V104.16ZM25.887 104.4H26.1274V103.92H25.887V104.4ZM22.7618 103.44L24.2042 103.44L24.2042 102.96L22.7618 102.96L22.7618 103.44ZM22.7618 103.68H23.9638V103.2H22.7618V103.68ZM22.7618 103.92H23.7234V103.44H22.7618V103.92ZM22.7618 104.16H23.2426V103.68H22.7618V104.16ZM22.7618 104.4H23.0022V103.92H22.7618V104.4ZM24.4444 300L24.4442 90.24L23.9642 90.24L23.9644 300L24.4444 300ZM18.6749 90.48H101.854V90H18.6749V90.48ZM22.7618 287.76H26.1274V287.28H22.7618V287.76ZM22.7618 288L25.887 288L25.887 287.52L22.7618 287.52L22.7618 288ZM23.0022 288.24H25.887V287.76H23.0022V288.24ZM23.0022 288.48H25.887V288H23.0022V288.48ZM23.0022 288.72L25.887 288.72L25.887 288.24L23.0022 288.24L23.0022 288.72ZM23.0022 288.96H25.887V288.48H23.0022V288.96ZM23.0022 289.2H25.887V288.72H23.0022V289.2ZM23.0022 289.44H25.887V288.96H23.0022V289.44ZM23.0022 289.68H25.6466V289.2H23.0022V289.68ZM23.0022 289.92L25.6466 289.92L25.6466 289.44L23.0022 289.44L23.0022 289.92ZM23.2426 290.16H25.6466V289.68H23.2426V290.16ZM23.2426 290.4H25.6466V289.92H23.2426V290.4ZM23.2426 290.64L25.6466 290.64L25.6466 290.16L23.2426 290.16L23.2426 290.64ZM23.2426 290.88H25.6466V290.4H23.2426V290.88ZM23.2426 291.12H25.6466V290.64H23.2426V291.12ZM23.2426 291.36L25.6466 291.36L25.6466 290.88L23.2426 290.88L23.2426 291.36ZM23.2426 291.6H25.4062V291.12H23.2426V291.6ZM23.2426 291.84H25.4062V291.36H23.2426V291.84ZM23.2426 292.08L25.4062 292.08L25.4062 291.6L23.2426 291.6L23.2426 292.08ZM23.483 292.32H25.4062V291.84H23.483V292.32ZM23.483 292.56L25.4062 292.56L25.4062 292.08L23.483 292.08L23.483 292.56ZM23.483 292.8L25.4062 292.8L25.4062 292.32L23.483 292.32L23.483 292.8ZM23.483 293.04H25.4062V292.56H23.483V293.04ZM23.483 293.28L25.1658 293.28L25.1658 292.8L23.483 292.8L23.483 293.28ZM23.483 293.52L25.1658 293.52L25.1658 293.04L23.483 293.04L23.483 293.52ZM23.483 293.76H25.1658V293.28H23.483V293.76ZM23.483 294L25.1658 294L25.1658 293.52L23.483 293.52L23.483 294ZM23.7234 294.24L25.1658 294.24L25.1658 293.76L23.7234 293.76L23.7234 294.24ZM23.7234 294.48L25.1658 294.48L25.1658 294L23.7234 294L23.7234 294.48ZM23.7234 294.72L25.1658 294.72L25.1658 294.24L23.7234 294.24L23.7234 294.72ZM23.7234 294.96L24.9254 294.96L24.9254 294.48L23.7234 294.48L23.7234 294.96ZM23.7234 295.2L24.9254 295.2L24.9254 294.72L23.7234 294.72L23.7234 295.2ZM23.7234 295.44L24.9254 295.44L24.9254 294.96L23.7234 294.96L23.7234 295.44ZM23.7234 295.68H24.9254V295.2H23.7234V295.68ZM23.7234 295.92L24.9254 295.92L24.9254 295.44L23.7234 295.44L23.7234 295.92ZM23.7234 296.16L24.9254 296.16L24.9254 295.68L23.7234 295.68L23.7234 296.16ZM23.9638 296.4H24.9254V295.92H23.9638V296.4ZM23.9638 296.64L24.9254 296.64L24.9254 296.16L23.9638 296.16L23.9638 296.64ZM23.9638 296.88L24.685 296.88L24.685 296.4L23.9638 296.4L23.9638 296.88ZM23.9638 297.12L24.685 297.12L24.685 296.64L23.9638 296.64L23.9638 297.12ZM23.9638 297.36L24.685 297.36L24.685 296.88L23.9638 296.88L23.9638 297.36ZM23.9638 297.6L24.685 297.6L24.685 297.12L23.9638 297.12L23.9638 297.6ZM23.9638 297.84L24.685 297.84L24.685 297.36L23.9638 297.36L23.9638 297.84ZM23.9638 298.08L24.685 298.08L24.685 297.6L23.9638 297.6L23.9638 298.08ZM23.9638 92.6399L24.685 92.64L24.685 92.16L23.9638 92.1599L23.9638 92.6399ZM23.9638 92.8799L24.685 92.88L24.685 92.4L23.9638 92.3999L23.9638 92.8799ZM23.9638 93.1199L24.685 93.12L24.685 92.64L23.9638 92.6399L23.9638 93.1199ZM23.9638 93.3599L24.685 93.36L24.685 92.88L23.9638 92.8799L23.9638 93.3599ZM23.9638 93.5999L24.685 93.6L24.685 93.12L23.9638 93.1199L23.9638 93.5999ZM23.9638 93.8399L24.685 93.84L24.685 93.36L23.9638 93.3599L23.9638 93.8399ZM23.9638 94.0799L24.9254 94.08L24.9254 93.6L23.9638 93.5999L23.9638 94.0799ZM23.9638 94.3199L24.9254 94.32L24.9254 93.84L23.9638 93.8399L23.9638 94.3199ZM23.7234 94.5599L24.9254 94.56L24.9254 94.08L23.7234 94.0799L23.7234 94.5599ZM23.7234 94.7999L24.9254 94.8L24.9254 94.32L23.7234 94.3199L23.7234 94.7999ZM23.7234 95.0399L24.9254 95.04L24.9254 94.56L23.7234 94.5599L23.7234 95.0399ZM23.7234 95.2799L24.9254 95.28L24.9254 94.8L23.7234 94.7999L23.7234 95.2799ZM23.7234 95.5199L24.9254 95.52L24.9254 95.04L23.7234 95.0399L23.7234 95.5199ZM23.7234 95.7599L24.9254 95.76L24.9254 95.28L23.7234 95.2799L23.7234 95.7599ZM23.7234 95.9999L25.1658 96L25.1658 95.52L23.7234 95.5199L23.7234 95.9999ZM23.7234 96.2399L25.1658 96.24L25.1658 95.76L23.7234 95.7599L23.7234 96.2399ZM23.7234 96.4799L25.1658 96.48L25.1658 96L23.7234 95.9999L23.7234 96.4799ZM23.483 96.7199L25.1658 96.72L25.1658 96.24L23.483 96.2399L23.483 96.7199ZM23.483 96.9599L25.1658 96.96L25.1658 96.48L23.483 96.4799L23.483 96.9599ZM23.483 97.1999L25.1658 97.2L25.1658 96.72L23.483 96.7199L23.483 97.1999ZM23.483 97.4399L25.1658 97.44L25.1658 96.96L23.483 96.9599L23.483 97.4399ZM23.483 97.6799L25.4062 97.68L25.4062 97.2L23.483 97.1999L23.483 97.6799ZM23.483 97.9199L25.4062 97.92L25.4062 97.44L23.483 97.4399L23.483 97.9199ZM23.483 98.1599L25.4062 98.16L25.4062 97.68L23.483 97.6799L23.483 98.1599ZM23.483 98.3999L25.4062 98.4L25.4062 97.92L23.483 97.9199L23.483 98.3999ZM23.2426 98.6399L25.4062 98.64L25.4062 98.16L23.2426 98.1599L23.2426 98.6399ZM23.2426 98.8799L25.4062 98.88L25.4062 98.4L23.2426 98.3999L23.2426 98.8799ZM23.2426 99.1199L25.4062 99.12L25.4062 98.64L23.2426 98.6399L23.2426 99.1199ZM23.2426 99.3599L25.6466 99.36L25.6466 98.88L23.2426 98.8799L23.2426 99.3599ZM23.2426 99.5999L25.6466 99.6L25.6466 99.12L23.2426 99.1199L23.2426 99.5999ZM23.2426 99.8399L25.6466 99.84L25.6466 99.36L23.2426 99.3599L23.2426 99.8399ZM23.2426 100.08L25.6466 100.08L25.6466 99.6L23.2426 99.5999L23.2426 100.08ZM23.2426 100.32L25.6466 100.32L25.6466 99.84L23.2426 99.8399L23.2426 100.32ZM23.2426 100.56L25.6466 100.56L25.6466 100.08L23.2426 100.08L23.2426 100.56ZM23.0022 100.8L25.6466 100.8L25.6466 100.32L23.0022 100.32L23.0022 100.8ZM23.0022 101.04L25.6466 101.04L25.6466 100.56L23.0022 100.56L23.0022 101.04ZM23.0022 101.28L25.887 101.28L25.887 100.8L23.0022 100.8L23.0022 101.28ZM23.0022 101.52L25.887 101.52L25.887 101.04L23.0022 101.04L23.0022 101.52ZM23.0022 101.76L25.887 101.76L25.887 101.28L23.0022 101.28L23.0022 101.76ZM23.0022 102L25.887 102L25.887 101.52L23.0022 101.52L23.0022 102ZM23.0022 102.24L25.887 102.24L25.887 101.76L23.0022 101.76L23.0022 102.24ZM23.0022 102.48L25.887 102.48L25.887 102L23.0022 102L23.0022 102.48ZM22.7618 102.72L25.887 102.72L25.887 102.24L22.7618 102.24L22.7618 102.72ZM22.7618 102.96L26.1274 102.96L26.1274 102.48L22.7618 102.48L22.7618 102.96ZM22.7618 103.2L26.1274 103.2L26.1274 102.72L22.7618 102.72L22.7618 103.2Z" fill="white"/>
    </g>
    <!--    12 L1-->
    <g class="group">
    </g>
    <!--    13 L2-->
    <g class="group">
    </g>
    <!--    14 S-->
    <g class="group">
        <path d="M338.788 97.5213C338.526 97.4262 338.284 97.4009 338.062 97.4453C337.833 97.4805 337.627 97.6527 337.443 97.9621C337.254 98.2621 337.09 98.7596 336.953 99.4546C336.828 100.036 336.681 100.55 336.511 100.996C336.341 101.436 336.135 101.789 335.893 102.056C335.651 102.316 335.366 102.481 335.039 102.55C334.712 102.619 334.329 102.574 333.89 102.415C333.472 102.262 333.076 102.021 332.703 101.691C332.33 101.353 331.999 100.951 331.711 100.484C331.424 100.011 331.198 99.4868 331.034 98.9121C330.871 98.3375 330.789 97.7334 330.789 97.0999C330.789 96.1948 330.939 95.4767 331.24 94.9456C331.541 94.4145 331.944 94.0699 332.448 93.9119C332.945 93.7514 333.498 93.7818 334.106 94.0029V95.9349C333.812 95.8279 333.527 95.8184 333.252 95.9065C332.971 95.9853 332.739 96.1689 332.556 96.4574C332.372 96.7389 332.281 97.1338 332.281 97.642C332.281 98.1781 332.359 98.6417 332.516 99.033C332.667 99.4149 332.86 99.7252 333.095 99.964C333.331 100.196 333.58 100.359 333.841 100.454C334.038 100.526 334.214 100.555 334.371 100.543C334.522 100.521 334.663 100.439 334.793 100.299C334.918 100.156 335.035 99.9345 335.147 99.6338C335.258 99.3331 335.369 98.9384 335.48 98.4497C335.677 97.5951 335.912 96.9184 336.187 96.4195C336.462 95.9206 336.799 95.5975 337.198 95.4502C337.597 95.3028 338.081 95.3326 338.651 95.5394C339.115 95.7083 339.541 95.9672 339.927 96.3164C340.313 96.6586 340.646 97.0757 340.928 97.5678C341.203 98.0506 341.418 98.5886 341.576 99.1817C341.726 99.7655 341.801 100.388 341.801 101.049C341.801 102.045 341.634 102.827 341.301 103.395C340.967 103.963 340.535 104.328 340.005 104.49C339.475 104.653 338.916 104.627 338.327 104.413V102.471C338.824 102.624 339.22 102.614 339.514 102.443C339.802 102.269 340.008 102.003 340.133 101.644C340.25 101.283 340.309 100.904 340.309 100.507C340.309 99.9782 340.244 99.5124 340.113 99.1098C339.982 98.7002 339.802 98.3598 339.573 98.0886C339.344 97.8174 339.083 97.6283 338.788 97.5213Z" fill="white"/>
        <path d="M322.302 67.4399C322.169 67.4399 322.062 67.5474 322.062 67.6799C322.062 67.8125 322.169 67.9199 322.302 67.9199V67.4399ZM356.439 67.9199C356.571 67.9199 356.679 67.8125 356.679 67.6799C356.679 67.5474 356.571 67.4399 356.439 67.4399V67.9199ZM322.302 74.1599C322.169 74.1599 322.062 74.2674 322.062 74.3999C322.062 74.5325 322.169 74.6399 322.302 74.6399V74.1599ZM356.439 74.6399C356.571 74.6399 356.679 74.5325 356.679 74.3999C356.679 74.2674 356.571 74.1599 356.439 74.1599V74.6399ZM350.429 113.04C350.429 113.173 350.536 113.28 350.669 113.28C350.801 113.28 350.909 113.173 350.909 113.04H350.429ZM338.788 97.5213L338.706 97.7469L338.706 97.7469L338.788 97.5213ZM338.062 97.4453L338.098 97.6828L338.109 97.6807L338.062 97.4453ZM337.443 97.9621L337.646 98.0904L337.65 98.0844L337.443 97.9621ZM336.953 99.4546L337.187 99.5048L337.188 99.5012L336.953 99.4546ZM336.511 100.996L336.735 101.083L336.735 101.082L336.511 100.996ZM335.893 102.056L336.068 102.22L336.07 102.217L335.893 102.056ZM333.89 102.415L333.972 102.189L333.89 102.415ZM332.703 101.691L332.542 101.869L332.544 101.87L332.703 101.691ZM331.711 100.484L331.506 100.609L331.507 100.61L331.711 100.484ZM332.448 93.9119L332.519 94.1409L332.521 94.1403L332.448 93.9119ZM334.106 94.0029H334.346C334.346 93.902 334.283 93.8118 334.188 93.7774L334.106 94.0029ZM334.106 95.9349L334.024 96.1604C334.098 96.1872 334.18 96.1764 334.244 96.1314C334.308 96.0865 334.346 96.0132 334.346 95.9349H334.106ZM333.252 95.9065L333.317 96.1378L333.326 96.1351L333.252 95.9065ZM332.556 96.4574L332.757 96.5883L332.758 96.5861L332.556 96.4574ZM332.516 99.033L332.74 98.945L332.739 98.9436L332.516 99.033ZM333.095 99.964L332.925 100.133L332.927 100.135L333.095 99.964ZM333.841 100.454L333.759 100.68L333.759 100.68L333.841 100.454ZM334.371 100.543L334.39 100.782C334.396 100.781 334.401 100.781 334.406 100.78L334.371 100.543ZM334.793 100.299L334.969 100.463L334.974 100.457L334.793 100.299ZM335.48 98.4497L335.247 98.396L335.246 98.3964L335.48 98.4497ZM338.651 95.5394L338.733 95.3139L338.733 95.3139L338.651 95.5394ZM339.927 96.3164L339.766 96.4944L339.767 96.496L339.927 96.3164ZM340.928 97.5678L341.136 97.4491L341.136 97.4487L340.928 97.5678ZM341.576 99.1817L341.808 99.1218L341.808 99.1203L341.576 99.1817ZM338.327 104.413H338.087C338.087 104.514 338.15 104.604 338.245 104.639L338.327 104.413ZM338.327 102.471L338.397 102.241C338.324 102.219 338.245 102.232 338.184 102.278C338.123 102.323 338.087 102.395 338.087 102.471H338.327ZM339.514 102.443L339.635 102.65L339.638 102.648L339.514 102.443ZM340.133 101.644L340.36 101.723L340.361 101.719L340.133 101.644ZM340.113 99.1098L339.884 99.1828L339.885 99.1839L340.113 99.1098ZM352.592 53.52L352.83 53.5523C352.843 53.4565 352.797 53.3622 352.714 53.3131C352.63 53.2641 352.526 53.2699 352.448 53.3279L352.592 53.52ZM350.669 54.96L350.669 55.2L350.669 55.2L350.669 54.96ZM348.986 53.52L349.142 53.3377C349.067 53.2734 348.96 53.2618 348.873 53.3083C348.786 53.3549 348.736 53.4502 348.748 53.5483L348.986 53.52ZM350.909 47.76C350.909 47.6275 350.801 47.52 350.669 47.52C350.536 47.52 350.429 47.6275 350.429 47.76H350.909ZM348.986 88.5599L348.748 88.5316C348.736 88.6297 348.786 88.725 348.873 88.7716C348.96 88.8182 349.067 88.8065 349.142 88.7423L348.986 88.5599ZM350.669 87.1199L350.669 86.8799L350.669 86.8799L350.669 87.1199ZM352.592 88.5599L352.448 88.752C352.526 88.81 352.63 88.8158 352.714 88.7668C352.797 88.7177 352.843 88.6234 352.83 88.5276L352.592 88.5599ZM350.429 94.3199C350.429 94.4524 350.536 94.5599 350.669 94.5599C350.801 94.5599 350.909 94.4524 350.909 94.3199H350.429ZM322.302 67.9199H356.439V67.4399H322.302V67.9199ZM322.302 74.6399H356.439V74.1599H322.302V74.6399ZM338.87 97.2957C338.576 97.189 338.289 97.1552 338.015 97.21L338.109 97.6807C338.279 97.6466 338.476 97.6634 338.706 97.7469L338.87 97.2957ZM338.025 97.2081C337.694 97.259 337.436 97.5029 337.237 97.8398L337.65 98.0844C337.817 97.8025 337.972 97.7019 338.098 97.6826L338.025 97.2081ZM337.241 97.8338C337.026 98.173 336.856 98.7071 336.717 99.4081L337.188 99.5012C337.324 98.8122 337.481 98.3512 337.646 98.0904L337.241 97.8338ZM336.718 99.4044C336.596 99.9766 336.452 100.478 336.287 100.911L336.735 101.082C336.911 100.622 337.061 100.095 337.187 99.5048L336.718 99.4044ZM336.287 100.91C336.125 101.33 335.932 101.655 335.715 101.895L336.07 102.217C336.337 101.923 336.557 101.542 336.735 101.083L336.287 100.91ZM335.717 101.893C335.506 102.119 335.265 102.257 334.989 102.315L335.088 102.785C335.467 102.705 335.795 102.514 336.068 102.22L335.717 101.893ZM334.989 102.315C334.72 102.372 334.385 102.339 333.972 102.189L333.808 102.64C334.273 102.809 334.703 102.866 335.088 102.785L334.989 102.315ZM333.972 102.189C333.585 102.048 333.215 101.824 332.862 101.511L332.544 101.87C332.937 102.218 333.358 102.476 333.808 102.64L333.972 102.189ZM332.864 101.513C332.509 101.192 332.193 100.808 331.916 100.358L331.507 100.61C331.806 101.095 332.151 101.515 332.542 101.869L332.864 101.513ZM331.917 100.36C331.641 99.906 331.423 99.4019 331.265 98.8464L330.803 98.9778C330.972 99.5716 331.206 100.116 331.506 100.609L331.917 100.36ZM331.265 98.8464C331.108 98.2944 331.029 97.7125 331.029 97.0999H330.549C330.549 97.7543 330.633 98.3806 330.803 98.9778L331.265 98.8464ZM331.029 97.0999C331.029 96.2177 331.176 95.5457 331.449 95.0639L331.032 94.8273C330.703 95.4078 330.549 96.1719 330.549 97.0999H331.029ZM331.449 95.0639C331.725 94.5769 332.083 94.2779 332.519 94.1409L332.376 93.6829C331.805 93.8619 331.358 94.2521 331.032 94.8273L331.449 95.0639ZM332.521 94.1403C332.957 93.9998 333.454 94.0211 334.024 94.2285L334.188 93.7774C333.542 93.5425 332.933 93.5031 332.374 93.6835L332.521 94.1403ZM333.866 94.0029V95.9349H334.346V94.0029H333.866ZM334.188 95.7093C333.848 95.5858 333.509 95.5722 333.179 95.678L333.326 96.1351C333.545 96.0646 333.775 96.07 334.024 96.1604L334.188 95.7093ZM333.188 95.6754C332.84 95.7728 332.562 95.9993 332.353 96.3287L332.758 96.5861C332.915 96.3386 333.102 96.1978 333.317 96.1376L333.188 95.6754ZM332.354 96.3265C332.136 96.6622 332.041 97.1096 332.041 97.642H332.521C332.521 97.158 332.609 96.8157 332.757 96.5883L332.354 96.3265ZM332.041 97.642C332.041 98.2007 332.122 98.6961 332.294 99.1224L332.739 98.9436C332.596 98.5873 332.521 98.1554 332.521 97.642H332.041ZM332.293 99.121C332.453 99.5264 332.662 99.8662 332.925 100.133L333.266 99.7954C333.058 99.5842 332.881 99.3033 332.74 98.945L332.293 99.121ZM332.927 100.135C333.183 100.387 333.46 100.571 333.759 100.68L333.923 100.229C333.699 100.147 333.479 100.005 333.264 99.7929L332.927 100.135ZM333.759 100.68C333.978 100.759 334.19 100.798 334.39 100.782L334.352 100.303C334.239 100.312 334.097 100.292 333.923 100.229L333.759 100.68ZM334.406 100.78C334.623 100.748 334.811 100.632 334.969 100.463L334.618 100.135C334.514 100.247 334.42 100.293 334.337 100.305L334.406 100.78ZM334.974 100.457C335.127 100.282 335.256 100.029 335.372 99.7171L334.922 99.5505C334.814 99.8402 334.709 100.031 334.612 100.141L334.974 100.457ZM335.372 99.7171C335.488 99.4027 335.602 98.9968 335.714 98.503L335.246 98.3964C335.136 98.8799 335.028 99.2634 334.922 99.5505L335.372 99.7171ZM335.714 98.5034C335.908 97.6602 336.137 97.0072 336.397 96.5353L335.977 96.3037C335.687 96.8295 335.445 97.53 335.247 98.396L335.714 98.5034ZM336.397 96.5353C336.654 96.0697 336.952 95.7968 337.281 95.6753L337.115 95.225C336.646 95.3983 336.27 95.7716 335.977 96.3037L336.397 96.5353ZM337.281 95.6753C337.608 95.5545 338.031 95.5694 338.569 95.765L338.733 95.3139C338.132 95.0957 337.586 95.0511 337.115 95.225L337.281 95.6753ZM338.569 95.765C339.003 95.9227 339.401 96.1649 339.766 96.4944L340.088 96.1384C339.68 95.7695 339.228 95.4938 338.733 95.3139L338.569 95.765ZM339.767 96.496C340.132 96.8192 340.45 97.2153 340.719 97.687L341.136 97.4487C340.843 96.9361 340.493 96.4979 340.086 96.1368L339.767 96.496ZM340.719 97.6866C340.983 98.1496 341.191 98.668 341.344 99.2431L341.808 99.1203C341.646 98.5092 341.422 97.9517 341.136 97.4491L340.719 97.6866ZM341.343 99.2416C341.488 99.8041 341.561 100.406 341.561 101.049H342.041C342.041 100.37 341.964 99.727 341.808 99.1218L341.343 99.2416ZM341.561 101.049C341.561 102.022 341.397 102.756 341.094 103.273L341.508 103.516C341.871 102.897 342.041 102.068 342.041 101.049H341.561ZM341.094 103.273C340.784 103.8 340.397 104.119 339.935 104.261L340.075 104.72C340.673 104.537 341.15 104.126 341.508 103.516L341.094 103.273ZM339.935 104.261C339.461 104.406 338.955 104.386 338.409 104.188L338.245 104.639C338.876 104.868 339.489 104.9 340.075 104.72L339.935 104.261ZM338.567 104.413V102.471H338.087V104.413H338.567ZM338.256 102.7C338.784 102.862 339.258 102.87 339.635 102.65L339.394 102.235C339.182 102.359 338.864 102.385 338.397 102.241L338.256 102.7ZM339.638 102.648C339.981 102.442 340.219 102.127 340.359 101.723L339.906 101.565C339.797 101.878 339.624 102.096 339.39 102.237L339.638 102.648ZM340.361 101.719C340.487 101.332 340.549 100.928 340.549 100.507H340.069C340.069 100.88 340.014 101.234 339.905 101.57L340.361 101.719ZM340.549 100.507C340.549 99.9591 340.482 99.4673 340.341 99.0356L339.885 99.1839C340.006 99.5575 340.069 99.9974 340.069 100.507H340.549ZM340.342 99.0367C340.203 98.6033 340.01 98.2335 339.757 97.9338L339.39 98.2434C339.595 98.4861 339.761 98.797 339.884 99.1828L340.342 99.0367ZM339.757 97.9338C339.504 97.6349 339.209 97.4189 338.87 97.2957L338.706 97.7469C338.956 97.8377 339.184 97.9999 339.39 98.2434L339.757 97.9338ZM350.907 67.7123L352.83 53.5523L352.354 53.4877L350.431 67.6477L350.907 67.7123ZM352.448 53.3279L350.525 54.7679L350.813 55.1521L352.736 53.7121L352.448 53.3279ZM350.825 54.7777L349.142 53.3377L348.83 53.7024L350.513 55.1424L350.825 54.7777ZM348.748 53.5483L350.431 67.7083L350.907 67.6517L349.225 53.4917L348.748 53.5483ZM350.909 67.68V47.76H350.429V67.68H350.909ZM352.352 54H352.592V53.52H352.352V54ZM352.111 54.24H352.592V53.76H352.111V54.24ZM351.631 54.48H352.592V54H351.631V54.48ZM351.39 54.72H352.592V54.24H351.39V54.72ZM351.15 54.96H352.592V54.48H351.15V54.96ZM350.669 55.2L352.592 55.2L352.592 54.72L350.669 54.72L350.669 55.2ZM350.669 66H351.15V65.52H350.669V66ZM350.669 66.24H350.909V65.76H350.669V66.24ZM350.669 66.48H350.909V66H350.669V66.48ZM350.669 66.72H350.909V66.24H350.669V66.72ZM350.669 66.96H350.909V66.48H350.669V66.96ZM350.669 67.2H350.909V66.72H350.669V67.2ZM350.669 67.44H350.909V66.96H350.669V67.44ZM350.669 67.68H350.909V67.2H350.669V67.68ZM349.227 54H349.467V53.52H349.227V54ZM349.227 54.24H349.707V53.76H349.227V54.24ZM349.227 54.48H349.948V54H349.227V54.48ZM349.227 54.72H350.188V54.24H349.227V54.72ZM349.227 54.96H350.429V54.48H349.227V54.96ZM349.227 55.2L350.669 55.2L350.669 54.72L349.227 54.72L349.227 55.2ZM350.431 74.3716L348.748 88.5316L349.225 88.5882L350.907 74.4282L350.431 74.3716ZM349.142 88.7423L350.825 87.3022L350.513 86.9375L348.83 88.3776L349.142 88.7423ZM350.525 87.312L352.448 88.752L352.736 88.3678L350.813 86.9278L350.525 87.312ZM352.83 88.5276L350.907 74.3676L350.431 74.4322L352.354 88.5922L352.83 88.5276ZM350.429 74.3999V94.3199H350.909V74.3999H350.429ZM349.227 87.3601L350.669 87.3599L350.669 86.8799L349.227 86.8801L349.227 87.3601ZM349.227 87.6001H350.429V87.1201H349.227V87.6001ZM349.227 87.8401H350.188V87.3601H349.227V87.8401ZM349.227 88.0801H349.948V87.6001H349.227V88.0801ZM349.227 88.3201H349.707V87.8401H349.227V88.3201ZM349.227 88.5601H349.467V88.0801H349.227V88.5601ZM350.669 74.8799H350.909V74.3999H350.669V74.8799ZM350.669 75.1199H350.909V74.6399H350.669V75.1199ZM350.669 75.3599H350.909V74.8799H350.669V75.3599ZM350.669 75.5999H350.909V75.1199H350.669V75.5999ZM350.669 75.8399H350.909V75.3599H350.669V75.8399ZM350.669 76.0799H350.909V75.5999H350.669V76.0799ZM350.669 76.3199H350.909V75.8399H350.669V76.3199ZM350.669 76.5599H351.15V76.0799H350.669V76.5599ZM350.669 87.3599L352.592 87.3599L352.592 86.8799L350.669 86.8799L350.669 87.3599ZM351.15 87.5999H352.592V87.1199H351.15V87.5999ZM351.39 87.8399H352.592V87.3599H351.39V87.8399ZM351.631 88.0799H352.592V87.5999H351.631V88.0799ZM352.111 88.3199H352.592V87.8399H352.111V88.3199ZM352.352 88.5599H352.592V88.0799H352.352V88.5599ZM350.429 67.68V74.3999H350.909V67.68H350.429ZM350.429 74.3999V113.04H350.909V74.3999H350.429ZM349.227 55.44L352.592 55.44L352.592 54.96L349.227 54.96L349.227 55.44ZM349.227 55.68H352.352V55.2H349.227V55.68ZM349.467 55.92H352.352V55.44H349.467V55.92ZM349.467 56.16H352.352V55.68H349.467V56.16ZM349.467 56.4H352.352V55.92H349.467V56.4ZM349.467 56.64H352.352V56.16H349.467V56.64ZM349.467 56.88L352.352 56.88L352.352 56.4L349.467 56.4L349.467 56.88ZM349.467 57.12L352.352 57.12L352.352 56.64L349.467 56.64L349.467 57.12ZM349.467 57.36H352.111V56.88H349.467V57.36ZM349.467 57.6H352.111V57.12H349.467V57.6ZM349.707 57.84H352.111V57.36H349.707V57.84ZM349.707 58.08H352.111V57.6H349.707V58.08ZM349.707 58.32H352.111V57.84H349.707V58.32ZM349.707 58.56H352.111V58.08H349.707V58.56ZM349.707 58.8H352.111V58.32H349.707V58.8ZM349.707 59.04L352.111 59.04L352.111 58.56L349.707 58.56L349.707 59.04ZM349.707 59.28L351.871 59.28L351.871 58.8L349.707 58.8L349.707 59.28ZM349.707 59.52H351.871V59.04H349.707V59.52ZM349.707 59.76H351.871V59.28H349.707V59.76ZM349.948 60H351.871V59.52H349.948V60ZM349.948 60.24H351.871V59.76H349.948V60.24ZM349.948 60.48H351.871V60H349.948V60.48ZM349.948 60.72L351.871 60.72L351.871 60.24L349.948 60.24L349.948 60.72ZM349.948 60.96L351.631 60.96L351.631 60.48L349.948 60.48L349.948 60.96ZM349.948 61.2L351.631 61.2L351.631 60.72L349.948 60.72L349.948 61.2ZM349.948 61.44L351.631 61.44L351.631 60.96L349.948 60.96L349.948 61.44ZM349.948 61.68H351.631V61.2H349.948V61.68ZM350.188 61.92H351.631V61.44H350.188V61.92ZM350.188 62.16H351.631V61.68H350.188V62.16ZM350.188 62.4H351.631V61.92H350.188V62.4ZM350.188 62.64H351.39V62.16H350.188V62.64ZM350.188 62.88L351.39 62.88L351.39 62.4L350.188 62.4L350.188 62.88ZM350.188 63.12L351.39 63.12L351.39 62.64L350.188 62.64L350.188 63.12ZM350.188 63.36L351.39 63.36L351.39 62.88L350.188 62.88L350.188 63.36ZM350.188 63.6L351.39 63.6L351.39 63.12L350.188 63.12L350.188 63.6ZM350.188 63.84L351.39 63.84L351.39 63.36L350.188 63.36L350.188 63.84ZM350.429 64.08L351.39 64.08L351.39 63.6L350.429 63.6L350.429 64.08ZM350.429 64.32L351.39 64.32L351.39 63.84L350.429 63.84L350.429 64.32ZM350.429 64.56L351.15 64.56L351.15 64.08L350.429 64.08L350.429 64.56ZM350.429 64.8L351.15 64.8L351.15 64.32L350.429 64.32L350.429 64.8ZM350.429 65.04H351.15V64.56H350.429V65.04ZM350.429 65.28H351.15V64.8H350.429V65.28ZM350.429 65.52H351.15V65.04H350.429V65.52ZM350.429 65.76H351.15V65.28H350.429V65.76ZM350.429 76.8001L351.15 76.7999L351.15 76.3199L350.428 76.3201L350.429 76.8001ZM350.429 77.0401L351.15 77.0399L351.15 76.5599L350.428 76.5601L350.429 77.0401ZM350.429 77.2801L351.15 77.2799L351.15 76.7999L350.428 76.8001L350.429 77.2801ZM350.429 77.5201L351.15 77.5199L351.15 77.0399L350.428 77.0401L350.429 77.5201ZM350.429 77.7601L351.15 77.7599L351.15 77.2799L350.428 77.2801L350.429 77.7601ZM350.429 78.0001L351.15 77.9999L351.15 77.5199L350.428 77.5201L350.429 78.0001ZM350.429 78.2401L351.39 78.2399L351.39 77.7599L350.429 77.7601L350.429 78.2401ZM350.429 78.4801L351.39 78.4799L351.39 77.9999L350.429 78.0001L350.429 78.4801ZM350.188 78.7201L351.39 78.7199L351.39 78.2399L350.188 78.2401L350.188 78.7201ZM350.188 78.9601L351.39 78.9599L351.39 78.4799L350.188 78.4801L350.188 78.9601ZM350.188 79.2001L351.39 79.1999L351.39 78.7199L350.188 78.7201L350.188 79.2001ZM350.188 79.4401L351.39 79.4399L351.39 78.9599L350.188 78.9601L350.188 79.4401ZM350.188 79.6801L351.39 79.6799L351.39 79.1999L350.188 79.2001L350.188 79.6801ZM350.188 79.9201L351.39 79.9199L351.39 79.4399L350.188 79.4401L350.188 79.9201ZM350.188 80.1601L351.631 80.1599L351.631 79.6799L350.188 79.6801L350.188 80.1601ZM350.188 80.4001L351.631 80.3999L351.631 79.9199L350.188 79.9201L350.188 80.4001ZM350.188 80.6401L351.631 80.6399L351.631 80.1599L350.188 80.1601L350.188 80.6401ZM349.948 80.8801L351.631 80.8799L351.631 80.3999L349.948 80.4001L349.948 80.8801ZM349.948 81.1201L351.631 81.1199L351.631 80.6399L349.948 80.6401L349.948 81.1201ZM349.948 81.3601L351.631 81.3599L351.631 80.8799L349.948 80.8801L349.948 81.3601ZM349.948 81.6001L351.631 81.5999L351.631 81.1199L349.948 81.1201L349.948 81.6001ZM349.948 81.8401L351.871 81.8399L351.871 81.3599L349.948 81.3601L349.948 81.8401ZM349.948 82.0801L351.871 82.0799L351.871 81.5999L349.948 81.6001L349.948 82.0801ZM349.948 82.3201L351.871 82.3199L351.871 81.8399L349.948 81.8401L349.948 82.3201ZM349.948 82.5601L351.871 82.5599L351.871 82.0799L349.948 82.0801L349.948 82.5601ZM349.707 82.8001L351.871 82.7999L351.871 82.3199L349.707 82.3201L349.707 82.8001ZM349.707 83.0401L351.871 83.0399L351.871 82.5599L349.707 82.5601L349.707 83.0401ZM349.707 83.2801L351.871 83.2799L351.871 82.7999L349.707 82.8001L349.707 83.2801ZM349.707 83.5201L352.111 83.5199L352.111 83.0399L349.707 83.0401L349.707 83.5201ZM349.707 83.7601L352.111 83.7599L352.111 83.2799L349.707 83.2801L349.707 83.7601ZM349.707 84.0001L352.111 83.9999L352.111 83.5199L349.707 83.5201L349.707 84.0001ZM349.707 84.2401L352.111 84.2399L352.111 83.7599L349.707 83.7601L349.707 84.2401ZM349.707 84.4801L352.111 84.4799L352.111 83.9999L349.707 84.0001L349.707 84.4801ZM349.707 84.7201L352.111 84.7199L352.111 84.2399L349.707 84.2401L349.707 84.7201ZM349.467 84.9601L352.111 84.9599L352.111 84.4799L349.467 84.4801L349.467 84.9601ZM349.467 85.2001L352.111 85.1999L352.111 84.7199L349.467 84.7201L349.467 85.2001ZM349.467 85.4401L352.352 85.4399L352.352 84.9599L349.467 84.9601L349.467 85.4401ZM349.467 85.6801L352.352 85.6799L352.352 85.1999L349.467 85.2001L349.467 85.6801ZM349.467 85.9201L352.352 85.9199L352.352 85.4399L349.467 85.4401L349.467 85.9201ZM349.467 86.1601L352.352 86.1599L352.352 85.6799L349.467 85.6801L349.467 86.1601ZM349.467 86.4001L352.352 86.3999L352.352 85.9199L349.467 85.9201L349.467 86.4001ZM349.467 86.6401L352.352 86.6399L352.352 86.1599L349.467 86.1601L349.467 86.6401ZM349.227 86.8801L352.352 86.8799L352.352 86.3999L349.227 86.4001L349.227 86.8801ZM349.227 87.1201L352.592 87.1199L352.592 86.6399L349.227 86.6401L349.227 87.1201Z" fill="white"/>
    </g>
    <!--    15 S1-->
    <g class="group">
    </g>
    <!--    16 S2-->
    <g class="group">
    </g>
    <!--    17 S3-->
    <g class="group">
    </g>
    <!--    18 S4-->
    <g class="group">
    </g>
    <!--    19 I-->
    <g class="group">
        <path d="M43.8623 264.201L58.9381 269.68V271.622L43.8623 266.144V264.201Z" fill="white"/>
        <path d="M79.9771 238.08C80.1097 238.08 80.2171 237.972 80.2171 237.84C80.2171 237.707 80.1097 237.6 79.9771 237.6V238.08ZM62.4279 237.6C62.2953 237.6 62.1879 237.707 62.1879 237.84C62.1879 237.972 62.2953 238.08 62.4279 238.08V237.6ZM79.9771 300.24C80.1097 300.24 80.2171 300.132 80.2171 300C80.2171 299.867 80.1097 299.76 79.9771 299.76V300.24ZM62.4279 299.76C62.2953 299.76 62.1879 299.867 62.1879 300C62.1879 300.132 62.2953 300.24 62.4279 300.24V299.76ZM43.8623 264.201L43.9443 263.976C43.8707 263.949 43.7887 263.96 43.7246 264.005C43.6605 264.05 43.6223 264.123 43.6223 264.201H43.8623ZM58.9381 269.68H59.1781C59.1781 269.579 59.1149 269.489 59.0201 269.454L58.9381 269.68ZM58.9381 271.622L58.8561 271.848C58.9297 271.875 59.0117 271.864 59.0758 271.819C59.1399 271.774 59.1781 271.701 59.1781 271.622H58.9381ZM43.8623 266.144H43.6223C43.6223 266.245 43.6855 266.335 43.7803 266.369L43.8623 266.144ZM68.1974 237.84L68.4357 237.812C68.4214 237.692 68.3202 237.601 68.1994 237.6C68.0786 237.599 67.9758 237.688 67.9596 237.808L68.1974 237.84ZM69.8802 252L69.7241 252.182C69.7992 252.246 69.9061 252.258 69.9933 252.212C70.0805 252.165 70.1302 252.07 70.1185 251.972L69.8802 252ZM68.1974 250.56L68.1974 250.32L68.1974 250.32L68.1974 250.56ZM66.2745 252L66.0367 251.968C66.0237 252.063 66.0695 252.158 66.1529 252.207C66.2363 252.256 66.341 252.25 66.4184 252.192L66.2745 252ZM68.1978 300L67.9599 300.032C67.9762 300.152 68.0789 300.241 68.1998 300.24C68.3206 300.239 68.4218 300.148 68.4361 300.028L68.1978 300ZM66.2745 285.84L66.4184 285.648C66.3409 285.59 66.2363 285.584 66.1529 285.633C66.0695 285.682 66.0237 285.776 66.0367 285.872L66.2745 285.84ZM68.1978 287.28L68.1977 287.52L68.1978 287.52L68.1978 287.28ZM69.8802 285.84L70.1185 285.868C70.1302 285.77 70.0805 285.675 69.9933 285.628C69.9061 285.582 69.7992 285.593 69.7241 285.658L69.8802 285.84ZM79.9771 237.6H62.4279V238.08H79.9771V237.6ZM79.9771 299.76H62.4279V300.24H79.9771V299.76ZM43.7803 264.427L58.8561 269.905L59.0201 269.454L43.9443 263.976L43.7803 264.427ZM58.6981 269.68V271.622H59.1781V269.68H58.6981ZM59.0201 271.397L43.9443 265.918L43.7803 266.369L58.8561 271.848L59.0201 271.397ZM44.1023 266.144V264.201H43.6223V266.144H44.1023ZM67.9591 237.868L69.6419 252.028L70.1185 251.972L68.4357 237.812L67.9591 237.868ZM70.0362 251.817L68.3534 250.377L68.0413 250.742L69.7241 252.182L70.0362 251.817ZM68.0535 250.368L66.1307 251.808L66.4184 252.192L68.3412 250.752L68.0535 250.368ZM66.5123 252.032L68.4352 237.872L67.9596 237.808L66.0367 251.968L66.5123 252.032ZM68.1974 238.32H68.4378V237.84H68.1974V238.32ZM68.1974 238.56H68.4378V238.08H68.1974V238.56ZM68.1974 238.8H68.4378V238.32H68.1974V238.8ZM68.1974 239.04H68.4378V238.56H68.1974V239.04ZM68.1974 239.28H68.4378V238.8H68.1974V239.28ZM68.1974 239.52H68.4378V239.04H68.1974V239.52ZM68.1974 239.76H68.4378V239.28H68.1974V239.76ZM68.1974 250.8L69.8802 250.8L69.8802 250.32L68.1974 250.32L68.1974 250.8ZM68.6782 251.04H69.8802V250.56H68.6782V251.04ZM68.9186 251.28H69.8802V250.8H68.9186V251.28ZM69.159 251.52H69.8802V251.04H69.159V251.52ZM69.3994 251.76H69.8802V251.28H69.3994V251.76ZM69.6398 252H69.8802V251.52H69.6398V252ZM66.5148 250.8L68.1974 250.8L68.1974 250.32L66.5148 250.32L66.5148 250.8ZM66.5148 251.04H67.9572V250.56H66.5148V251.04ZM66.5148 251.28H67.7168V250.8H66.5148V251.28ZM66.5148 251.52H67.236V251.04H66.5148V251.52ZM66.5148 251.76H66.9956V251.28H66.5148V251.76ZM66.5148 252H66.7552V251.52H66.5148V252ZM68.4356 299.968L66.5123 285.808L66.0367 285.872L67.9599 300.032L68.4356 299.968ZM66.1307 286.032L68.0539 287.472L68.3416 287.088L66.4184 285.648L66.1307 286.032ZM68.3538 287.462L70.0362 286.022L69.7241 285.658L68.0417 287.098L68.3538 287.462ZM69.6419 285.812L67.9594 299.972L68.4361 300.028L70.1185 285.868L69.6419 285.812ZM66.5148 286.32H66.7552V285.84H66.5148V286.32ZM66.5148 286.56H66.9956V286.08H66.5148V286.56ZM66.5148 286.8H67.236V286.32H66.5148V286.8ZM66.5148 287.04H67.7168V286.56H66.5148V287.04ZM66.5148 287.28H67.9572V286.8H66.5148V287.28ZM66.5148 287.52L68.1977 287.52L68.1978 287.04L66.5148 287.04L66.5148 287.52ZM69.6398 286.32H69.8802V285.84H69.6398V286.32ZM69.3994 286.56H69.8802V286.08H69.3994V286.56ZM69.159 286.8H69.8802V286.32H69.159V286.8ZM68.9186 287.04H69.8802V286.56H68.9186V287.04ZM68.6782 287.28H69.8802V286.8H68.6782V287.28ZM68.1978 287.52L69.8802 287.52L69.8802 287.04L68.1977 287.04L68.1978 287.52ZM68.1974 298.56H68.4378V298.08H68.1974V298.56ZM68.1974 298.8H68.4378V298.32H68.1974V298.8ZM68.1974 299.04H68.4378V298.56H68.1974V299.04ZM68.1974 299.28H68.4378V298.8H68.1974V299.28ZM68.1974 299.52H68.4378V299.04H68.1974V299.52ZM68.1974 299.76H68.4378V299.28H68.1974V299.76ZM68.1974 300H68.4378V299.52H68.1974V300ZM67.9574 237.84L67.9578 300L68.4378 300L68.4374 237.84L67.9574 237.84ZM67.9572 240L68.4378 240L68.4378 239.52L67.9571 239.52L67.9572 240ZM67.9572 240.24L68.6782 240.24L68.6782 239.76L67.9571 239.76L67.9572 240.24ZM67.9572 240.48L68.6782 240.48L68.6782 240L67.9571 240L67.9572 240.48ZM67.9572 240.72L68.6782 240.72L68.6782 240.24L67.9571 240.24L67.9572 240.72ZM67.9572 240.96L68.6782 240.96L68.6782 240.48L67.9571 240.48L67.9572 240.96ZM67.9572 241.2L68.6782 241.2L68.6782 240.72L67.9571 240.72L67.9572 241.2ZM67.9572 241.44L68.6782 241.44L68.6782 240.96L67.9571 240.96L67.9572 241.44ZM67.7168 241.68L68.6782 241.68L68.6782 241.2L67.7168 241.2L67.7168 241.68ZM67.7168 241.92L68.6782 241.92L68.6782 241.44L67.7168 241.44L67.7168 241.92ZM67.7168 242.16L68.9186 242.16L68.9186 241.68L67.7168 241.68L67.7168 242.16ZM67.7168 242.4L68.9186 242.4L68.9186 241.92L67.7168 241.92L67.7168 242.4ZM67.7168 242.64L68.9186 242.64L68.9186 242.16L67.7168 242.16L67.7168 242.64ZM67.7168 242.88L68.9186 242.88L68.9186 242.4L67.7168 242.4L67.7168 242.88ZM67.7168 243.12L68.9186 243.12L68.9186 242.64L67.7168 242.64L67.7168 243.12ZM67.7168 243.36L68.9186 243.36L68.9186 242.88L67.7168 242.88L67.7168 243.36ZM67.4764 243.6L68.9186 243.6L68.9186 243.12L67.4764 243.12L67.4764 243.6ZM67.4764 243.84L68.9186 243.84L68.9186 243.36L67.4764 243.36L67.4764 243.84ZM67.4764 244.08L68.9186 244.08L68.9186 243.6L67.4764 243.6L67.4764 244.08ZM67.4764 244.32L69.159 244.32L69.159 243.84L67.4764 243.84L67.4764 244.32ZM67.4764 244.56L69.159 244.56L69.159 244.08L67.4764 244.08L67.4764 244.56ZM67.4764 244.8L69.159 244.8L69.159 244.32L67.4764 244.32L67.4764 244.8ZM67.4764 245.04L69.159 245.04L69.159 244.56L67.4764 244.56L67.4764 245.04ZM67.236 245.28L69.159 245.28L69.159 244.8L67.236 244.8L67.236 245.28ZM67.236 245.52L69.159 245.52L69.159 245.04L67.236 245.04L67.236 245.52ZM67.236 245.76L69.159 245.76L69.159 245.28L67.236 245.28L67.236 245.76ZM67.236 246L69.159 246L69.159 245.52L67.236 245.52L67.236 246ZM67.236 246.24L69.3994 246.24L69.3994 245.76L67.236 245.76L67.236 246.24ZM67.236 246.48L69.3994 246.48L69.3994 246L67.236 246L67.236 246.48ZM67.236 246.72L69.3994 246.72L69.3994 246.24L67.236 246.24L67.236 246.72ZM66.9956 246.96L69.3994 246.96L69.3994 246.48L66.9956 246.48L66.9956 246.96ZM66.9956 247.2L69.3994 247.2L69.3994 246.72L66.9956 246.72L66.9956 247.2ZM66.9956 247.44L69.3994 247.44L69.3994 246.96L66.9956 246.96L66.9956 247.44ZM66.9956 247.68L69.3994 247.68L69.3994 247.2L66.9956 247.2L66.9956 247.68ZM66.9956 247.92L69.3994 247.92L69.3994 247.44L66.9956 247.44L66.9956 247.92ZM66.9956 248.16L69.3994 248.16L69.3994 247.68L66.9956 247.68L66.9956 248.16ZM66.9956 248.4L69.6398 248.4L69.6398 247.92L66.9956 247.92L66.9956 248.4ZM66.9956 248.64L69.6398 248.64L69.6398 248.16L66.9956 248.16L66.9956 248.64ZM66.7552 248.88L69.6398 248.88L69.6398 248.4L66.7552 248.4L66.7552 248.88ZM66.7552 249.12L69.6398 249.12L69.6398 248.64L66.7552 248.64L66.7552 249.12ZM66.7552 249.36L69.6398 249.36L69.6398 248.88L66.7552 248.88L66.7552 249.36ZM66.7552 249.6L69.6398 249.6L69.6398 249.12L66.7552 249.12L66.7552 249.6ZM66.7552 249.84L69.6398 249.84L69.6398 249.36L66.7552 249.36L66.7552 249.84ZM66.7552 250.08L69.6398 250.08L69.6398 249.6L66.7552 249.6L66.7552 250.08ZM66.7552 250.32L69.8802 250.32L69.8802 249.84L66.7552 249.84L66.7552 250.32ZM66.5148 250.56L69.8802 250.56L69.8802 250.08L66.5148 250.08L66.5148 250.56ZM66.5148 287.76H69.8802V287.28H66.5148V287.76ZM66.7552 288H69.8802V287.52H66.7552V288ZM66.7552 288.24H69.6398V287.76H66.7552V288.24ZM66.7552 288.48H69.6398V288H66.7552V288.48ZM66.7552 288.72L69.6398 288.72L69.6398 288.24L66.7552 288.24L66.7552 288.72ZM66.7552 288.96H69.6398V288.48H66.7552V288.96ZM66.7552 289.2L69.6398 289.2L69.6398 288.72L66.7552 288.72L66.7552 289.2ZM66.7552 289.44H69.6398V288.96H66.7552V289.44ZM66.9956 289.68L69.6398 289.68L69.6398 289.2L66.9956 289.2L66.9956 289.68ZM66.9956 289.92H69.6398V289.44H66.9956V289.92ZM66.9956 290.16L69.3994 290.16L69.3994 289.68L66.9956 289.68L66.9956 290.16ZM66.9956 290.4H69.3994V289.92H66.9956V290.4ZM66.9956 290.64L69.3994 290.64L69.3994 290.16L66.9956 290.16L66.9956 290.64ZM66.9956 290.88L69.3994 290.88L69.3994 290.4L66.9956 290.4L66.9956 290.88ZM66.9956 291.12H69.3994V290.64H66.9956V291.12ZM66.9956 291.36L69.3994 291.36L69.3994 290.88L66.9956 290.88L66.9956 291.36ZM67.236 291.6H69.3994V291.12H67.236V291.6ZM67.236 291.84L69.3994 291.84L69.3994 291.36L67.236 291.36L67.236 291.84ZM67.236 292.08H69.3994V291.6H67.236V292.08ZM67.236 292.32L69.159 292.32L69.159 291.84L67.236 291.84L67.236 292.32ZM67.236 292.56L69.159 292.56L69.159 292.08L67.236 292.08L67.236 292.56ZM67.236 292.8L69.159 292.8L69.159 292.32L67.236 292.32L67.236 292.8ZM67.236 293.04L69.159 293.04L69.159 292.56L67.236 292.56L67.236 293.04ZM67.4764 293.28L69.159 293.28L69.159 292.8L67.4764 292.8L67.4764 293.28ZM67.4764 293.52L69.159 293.52L69.159 293.04L67.4764 293.04L67.4764 293.52ZM67.4764 293.76L69.159 293.76L69.159 293.28L67.4764 293.28L67.4764 293.76ZM67.4764 294L69.159 294L69.159 293.52L67.4764 293.52L67.4764 294ZM67.4764 294.24L68.9186 294.24L68.9186 293.76L67.4764 293.76L67.4764 294.24ZM67.4764 294.48L68.9186 294.48L68.9186 294L67.4764 294L67.4764 294.48ZM67.4764 294.72L68.9186 294.72L68.9186 294.24L67.4764 294.24L67.4764 294.72ZM67.7168 294.96L68.9186 294.96L68.9186 294.48L67.7168 294.48L67.7168 294.96ZM67.7168 295.2L68.9186 295.2L68.9186 294.72L67.7168 294.72L67.7168 295.2ZM67.7168 295.44L68.9186 295.44L68.9186 294.96L67.7168 294.96L67.7168 295.44ZM67.7168 295.68L68.9186 295.68L68.9186 295.2L67.7168 295.2L67.7168 295.68ZM67.7168 295.92L68.9186 295.92L68.9186 295.44L67.7168 295.44L67.7168 295.92ZM67.7168 296.16L68.9186 296.16L68.9186 295.68L67.7168 295.68L67.7168 296.16ZM67.7168 296.4L68.6782 296.4L68.6782 295.92L67.7168 295.92L67.7168 296.4ZM67.7168 296.64L68.6782 296.64L68.6782 296.16L67.7168 296.16L67.7168 296.64ZM67.9572 296.88L68.6782 296.88L68.6782 296.4L67.9572 296.4L67.9572 296.88ZM67.9572 297.12L68.6782 297.12L68.6782 296.64L67.9572 296.64L67.9572 297.12ZM67.9572 297.36L68.6782 297.36L68.6782 296.88L67.9572 296.88L67.9572 297.36ZM67.9572 297.6L68.6782 297.6L68.6782 297.12L67.9572 297.12L67.9572 297.6ZM67.9572 297.84L68.6782 297.84L68.6782 297.36L67.9572 297.36L67.9572 297.84ZM67.9572 298.08L68.6782 298.08L68.6782 297.6L67.9572 297.6L67.9572 298.08ZM67.9572 298.32L68.4378 298.32L68.4378 297.84L67.9572 297.84L67.9572 298.32Z" fill="white"/>
        <path d="M281.478 28.8987L275.983 43.9686H274.041L279.535 28.8987H281.478Z" fill="white"/>
        <path d="M314.85 61.6801C314.85 61.8127 314.957 61.9201 315.09 61.9201C315.222 61.9201 315.33 61.8127 315.33 61.6801H314.85ZM315.33 47.5201C315.33 47.3876 315.222 47.2801 315.09 47.2801C314.957 47.2801 314.85 47.3876 314.85 47.5201H315.33ZM238.161 61.6801C238.161 61.8127 238.269 61.9201 238.401 61.9201C238.534 61.9201 238.641 61.8127 238.641 61.6801H238.161ZM238.641 47.5201C238.641 47.3876 238.534 47.2801 238.401 47.2801C238.269 47.2801 238.161 47.3876 238.161 47.5201H238.641ZM281.478 28.8987L281.703 28.9809C281.73 28.9073 281.719 28.8253 281.674 28.7611C281.63 28.6969 281.556 28.6587 281.478 28.6587V28.8987ZM275.983 43.9686V44.2086C276.084 44.2086 276.174 44.1455 276.209 44.0508L275.983 43.9686ZM274.041 43.9686L273.815 43.8864C273.788 43.9599 273.799 44.042 273.844 44.1062C273.889 44.1703 273.962 44.2086 274.041 44.2086V43.9686ZM279.535 28.8987V28.6587C279.435 28.6587 279.344 28.7217 279.31 28.8165L279.535 28.8987ZM315.089 53.0401L315.121 53.278C315.24 53.2619 315.329 53.1603 315.329 53.0401C315.329 52.92 315.24 52.8184 315.121 52.8023L315.089 53.0401ZM300.905 54.9601L300.713 54.816C300.655 54.8934 300.649 54.9981 300.698 55.0816C300.747 55.1651 300.842 55.211 300.937 55.198L300.905 54.9601ZM300.905 51.12L300.937 50.8822C300.842 50.8692 300.747 50.9151 300.698 50.9985C300.649 51.082 300.655 51.1867 300.713 51.2641L300.905 51.12ZM238.401 53.04L238.369 52.8021C238.25 52.8183 238.161 52.9199 238.161 53.04C238.161 53.1601 238.25 53.2617 238.369 53.2778L238.401 53.04ZM252.585 51.12L252.777 51.2641C252.835 51.1868 252.841 51.082 252.792 50.9985C252.743 50.9151 252.649 50.8692 252.553 50.8822L252.585 51.12ZM252.585 54.9601L252.553 55.198C252.649 55.211 252.743 55.1651 252.792 55.0816C252.841 54.9981 252.835 54.8934 252.777 54.816L252.585 54.9601ZM315.33 61.6801V47.5201H314.85V61.6801H315.33ZM238.641 61.6801V47.5201H238.161V61.6801H238.641ZM281.252 28.8165L275.758 43.8864L276.209 44.0508L281.703 28.9809L281.252 28.8165ZM275.983 43.7286H274.041V44.2086H275.983V43.7286ZM274.266 44.0508L279.761 28.9809L279.31 28.8165L273.815 43.8864L274.266 44.0508ZM279.535 29.1387H281.478V28.6587H279.535V29.1387ZM315.057 52.8023L300.873 54.7223L300.937 55.198L315.121 53.278L315.057 52.8023ZM301.097 55.1043L302.54 53.1843L302.156 52.896L300.713 54.816L301.097 55.1043ZM302.54 52.896L301.097 50.9758L300.713 51.2641L302.156 53.1843L302.54 52.896ZM300.873 51.3578L315.057 53.278L315.121 52.8023L300.937 50.8822L300.873 51.3578ZM302.348 53.2801H315.089V52.8001H302.348V53.2801ZM302.348 53.5201H313.407V53.0401H302.348V53.5201ZM302.108 53.7601H311.724V53.2801H302.108V53.7601ZM301.868 54.0001H309.801V53.5201H301.868V54.0001ZM301.627 54.2401H308.118V53.7601H301.627V54.2401ZM301.627 54.4801H306.435V54.0001H301.627V54.4801ZM301.387 54.7201H304.512V54.2401H301.387V54.7201ZM301.146 54.9601H302.829V54.4801H301.146V54.9601ZM301.146 51.6H302.829V51.12H301.146V51.6ZM301.387 51.84H304.512V51.36H301.387V51.84ZM301.627 52.08H306.435V51.6H301.627V52.08ZM301.627 52.32H308.118V51.84H301.627V52.32ZM301.868 52.56H309.801V52.08H301.868V52.56ZM302.108 52.8H311.724V52.32H302.108V52.8ZM302.348 53.04H313.407V52.56H302.348V53.04ZM238.434 53.2778L252.617 51.3578L252.553 50.8822L238.369 52.8021L238.434 53.2778ZM252.393 50.9758L250.951 52.8958L251.334 53.1841L252.777 51.2641L252.393 50.9758ZM250.951 53.1841L252.393 55.1043L252.777 54.816L251.334 52.8958L250.951 53.1841ZM252.617 54.7223L238.434 52.8021L238.369 53.2778L252.553 55.198L252.617 54.7223ZM250.902 51.6H252.585V51.12H250.902V51.6ZM249.219 51.84H252.344V51.36H249.219V51.84ZM247.296 52.08H252.104V51.6H247.296V52.08ZM245.613 52.32H251.863V51.84H245.613V52.32ZM243.93 52.56H251.863V52.08H243.93V52.56ZM242.007 52.8H251.623V52.32H242.007V52.8ZM240.324 53.04H251.383V52.56H240.324V53.04ZM238.401 53.28H251.143V52.8H238.401V53.28ZM240.325 53.5201H251.383V53.0401H240.325V53.5201ZM242.007 53.7601H251.623V53.2801H242.007V53.7601ZM243.931 54.0001H251.864V53.5201H243.931V54.0001ZM245.613 54.2401H251.864V53.7601H245.613V54.2401ZM247.296 54.4801H252.104V54.0001H247.296V54.4801ZM249.219 54.7201H252.345V54.2401H249.219V54.7201ZM250.902 54.9601H252.585V54.4801H250.902V54.9601ZM315.089 52.8001L238.401 52.8L238.401 53.28L315.089 53.2801L315.089 52.8001Z" fill="white"/>
    </g>
    <!--    20 I1-->
    <g class="group">
    </g>
    <!--    21 I2-->
    <g class="group">
    </g>
    <!--    22 H-->
    <g class="group">
    </g>
    <!--    23 H1-->
    <g class="group">
    </g>
    <!--    24 H2-->
    <g class="group">
    </g>
    <!--    25 h-->
    <g class="group">
    </g>
    <!--    26 h1-->
    <g class="group">
    </g>
    <!--    27 h2-->
    <g class="group">
    </g>
    <!--    28 R-->
    <g class="group">
    </g>
    <!--    29 Deg-->
    <g class="group">
    </g>
    <!--    29 DN-->
    <g class="group">
    </g>

</svg>
