<svg width="580" height="310" viewBox="0 0 580 310" fill="none" xmlns="http://www.w3.org/2000/svg">
<g clip-path="url(#clip0_10_1393)">
<path d="M124.578 209.56L126.498 192.92L124.578 209.56Z" stroke="white" stroke-width="2.24" stroke-miterlimit="10" stroke-linecap="round" stroke-linejoin="round"/>
<path d="M126.498 192.92L130.018 175.96L126.498 192.92Z" stroke="white" stroke-width="2.24" stroke-miterlimit="10" stroke-linecap="round" stroke-linejoin="round"/>
<path d="M130.018 175.96L134.498 159.64L130.018 175.96Z" stroke="white" stroke-width="2.24" stroke-miterlimit="10" stroke-linecap="round" stroke-linejoin="round"/>
<path d="M134.498 159.64L140.578 143.64L134.498 159.64Z" stroke="white" stroke-width="2.24" stroke-miterlimit="10" stroke-linecap="round" stroke-linejoin="round"/>
<path d="M140.578 143.64L147.298 127.96L140.578 143.64Z" stroke="white" stroke-width="2.24" stroke-miterlimit="10" stroke-linecap="round" stroke-linejoin="round"/>
<path d="M147.298 127.96L155.618 112.92L147.298 127.96Z" stroke="white" stroke-width="2.24" stroke-miterlimit="10" stroke-linecap="round" stroke-linejoin="round"/>
<path d="M155.618 112.92L164.898 98.8401L155.618 112.92Z" stroke="white" stroke-width="2.24" stroke-miterlimit="10" stroke-linecap="round" stroke-linejoin="round"/>
<path d="M164.898 98.8401L175.138 85.0801L164.898 98.8401Z" stroke="white" stroke-width="2.24" stroke-miterlimit="10" stroke-linecap="round" stroke-linejoin="round"/>
<path d="M175.138 85.08L186.658 72.28L175.138 85.08Z" stroke="white" stroke-width="2.24" stroke-miterlimit="10" stroke-linecap="round" stroke-linejoin="round"/>
<path d="M186.658 72.2801L198.818 60.4401L186.658 72.2801Z" stroke="white" stroke-width="2.24" stroke-miterlimit="10" stroke-linecap="round" stroke-linejoin="round"/>
<path d="M198.818 60.4401L211.938 49.5601L198.818 60.4401Z" stroke="white" stroke-width="2.24" stroke-miterlimit="10" stroke-linecap="round" stroke-linejoin="round"/>
<path d="M211.938 49.56L225.698 39.64L211.938 49.56Z" stroke="white" stroke-width="2.24" stroke-miterlimit="10" stroke-linecap="round" stroke-linejoin="round"/>
<path d="M225.698 39.6401L240.418 30.6801L225.698 39.6401Z" stroke="white" stroke-width="2.24" stroke-miterlimit="10" stroke-linecap="round" stroke-linejoin="round"/>
<path d="M240.418 30.68L255.458 23L240.418 30.68Z" stroke="white" stroke-width="2.24" stroke-miterlimit="10" stroke-linecap="round" stroke-linejoin="round"/>
<path d="M255.458 23L271.138 16.28L255.458 23Z" stroke="white" stroke-width="2.24" stroke-miterlimit="10" stroke-linecap="round" stroke-linejoin="round"/>
<path d="M271.138 16.2801L287.458 10.8401L271.138 16.2801Z" stroke="white" stroke-width="2.24" stroke-miterlimit="10" stroke-linecap="round" stroke-linejoin="round"/>
<path d="M287.458 10.8401L304.098 6.68005L287.458 10.8401Z" stroke="white" stroke-width="2.24" stroke-miterlimit="10" stroke-linecap="round" stroke-linejoin="round"/>
<path d="M304.098 6.68005L320.738 3.80005L304.098 6.68005Z" stroke="white" stroke-width="2.24" stroke-miterlimit="10" stroke-linecap="round" stroke-linejoin="round"/>
<path d="M320.738 3.80007L337.698 2.20007L320.738 3.80007Z" stroke="white" stroke-width="2.24" stroke-miterlimit="10" stroke-linecap="round" stroke-linejoin="round"/>
<path d="M337.698 2.2L354.978 1.88L337.698 2.2Z" stroke="white" stroke-width="2.24" stroke-miterlimit="10" stroke-linecap="round" stroke-linejoin="round"/>
<path d="M354.978 1.88L371.938 2.84L354.978 1.88Z" stroke="white" stroke-width="2.24" stroke-miterlimit="10" stroke-linecap="round" stroke-linejoin="round"/>
<path d="M371.938 2.84009L388.898 5.08009L371.938 2.84009Z" stroke="white" stroke-width="2.24" stroke-miterlimit="10" stroke-linecap="round" stroke-linejoin="round"/>
<path d="M388.898 5.08008L405.538 8.28008L388.898 5.08008Z" stroke="white" stroke-width="2.24" stroke-miterlimit="10" stroke-linecap="round" stroke-linejoin="round"/>
<path d="M405.538 8.28003L421.858 13.08L405.538 8.28003Z" stroke="white" stroke-width="2.24" stroke-miterlimit="10" stroke-linecap="round" stroke-linejoin="round"/>
<path d="M421.858 13.0801L437.858 19.1601L421.858 13.0801Z" stroke="white" stroke-width="2.24" stroke-miterlimit="10" stroke-linecap="round" stroke-linejoin="round"/>
<path d="M437.858 19.16L453.538 26.2L437.858 19.16Z" stroke="white" stroke-width="2.24" stroke-miterlimit="10" stroke-linecap="round" stroke-linejoin="round"/>
<path d="M453.538 26.2001L468.578 34.2001L453.538 26.2001Z" stroke="white" stroke-width="2.24" stroke-miterlimit="10" stroke-linecap="round" stroke-linejoin="round"/>
<path d="M468.578 34.2001L482.658 43.8001L468.578 34.2001Z" stroke="white" stroke-width="2.24" stroke-miterlimit="10" stroke-linecap="round" stroke-linejoin="round"/>
<path d="M482.658 43.8L496.418 54.04L482.658 43.8Z" stroke="white" stroke-width="2.24" stroke-miterlimit="10" stroke-linecap="round" stroke-linejoin="round"/>
<path d="M496.418 54.04L508.898 65.56L496.418 54.04Z" stroke="white" stroke-width="2.24" stroke-miterlimit="10" stroke-linecap="round" stroke-linejoin="round"/>
<path d="M508.898 65.5601L520.738 77.7201L508.898 65.5601Z" stroke="white" stroke-width="2.24" stroke-miterlimit="10" stroke-linecap="round" stroke-linejoin="round"/>
<path d="M520.738 77.72L531.618 90.84L520.738 77.72Z" stroke="white" stroke-width="2.24" stroke-miterlimit="10" stroke-linecap="round" stroke-linejoin="round"/>
<path d="M531.618 90.8401L541.538 104.6L531.618 90.8401Z" stroke="white" stroke-width="2.24" stroke-miterlimit="10" stroke-linecap="round" stroke-linejoin="round"/>
<path d="M541.538 104.6L550.498 119.32L541.538 104.6Z" stroke="white" stroke-width="2.24" stroke-miterlimit="10" stroke-linecap="round" stroke-linejoin="round"/>
<path d="M550.498 119.32L558.178 134.68L550.498 119.32Z" stroke="white" stroke-width="2.24" stroke-miterlimit="10" stroke-linecap="round" stroke-linejoin="round"/>
<path d="M558.178 134.68L564.578 150.36L558.178 134.68Z" stroke="white" stroke-width="2.24" stroke-miterlimit="10" stroke-linecap="round" stroke-linejoin="round"/>
<path d="M564.578 150.36L570.018 166.68L564.578 150.36Z" stroke="white" stroke-width="2.24" stroke-miterlimit="10" stroke-linecap="round" stroke-linejoin="round"/>
<path d="M570.018 166.68L574.178 183L570.018 166.68Z" stroke="white" stroke-width="2.24" stroke-miterlimit="10" stroke-linecap="round" stroke-linejoin="round"/>
<path d="M574.178 183L577.058 199.96L574.178 183Z" stroke="white" stroke-width="2.24" stroke-miterlimit="10" stroke-linecap="round" stroke-linejoin="round"/>
<path d="M577.058 199.96L578.018 209.56L577.058 199.96Z" stroke="white" stroke-width="2.24" stroke-miterlimit="10" stroke-linecap="round" stroke-linejoin="round"/>
<path d="M245.538 209.56L246.498 198.04L245.538 209.56Z" stroke="white" stroke-width="2.24" stroke-miterlimit="10" stroke-linecap="round" stroke-linejoin="round"/>
<path d="M246.498 198.04L248.738 186.84L246.498 198.04Z" stroke="white" stroke-width="2.24" stroke-miterlimit="10" stroke-linecap="round" stroke-linejoin="round"/>
<path d="M248.738 186.84L252.258 175.64L248.738 186.84Z" stroke="white" stroke-width="2.24" stroke-miterlimit="10" stroke-linecap="round" stroke-linejoin="round"/>
<path d="M252.258 175.64L257.058 165.08L252.258 175.64Z" stroke="white" stroke-width="2.24" stroke-miterlimit="10" stroke-linecap="round" stroke-linejoin="round"/>
<path d="M257.058 165.08L263.138 154.84L257.058 165.08Z" stroke="white" stroke-width="2.24" stroke-miterlimit="10" stroke-linecap="round" stroke-linejoin="round"/>
<path d="M263.138 154.84L269.858 145.56L263.138 154.84Z" stroke="white" stroke-width="2.24" stroke-miterlimit="10" stroke-linecap="round" stroke-linejoin="round"/>
<path d="M269.858 145.56L277.858 137.24L269.858 145.56Z" stroke="white" stroke-width="2.24" stroke-miterlimit="10" stroke-linecap="round" stroke-linejoin="round"/>
<path d="M277.858 137.24L286.818 129.56L277.858 137.24Z" stroke="white" stroke-width="2.24" stroke-miterlimit="10" stroke-linecap="round" stroke-linejoin="round"/>
<path d="M286.818 129.56L296.418 123.16L286.818 129.56Z" stroke="white" stroke-width="2.24" stroke-miterlimit="10" stroke-linecap="round" stroke-linejoin="round"/>
<path d="M296.418 123.16L306.658 117.4L296.418 123.16Z" stroke="white" stroke-width="2.24" stroke-miterlimit="10" stroke-linecap="round" stroke-linejoin="round"/>
<path d="M306.658 117.4L317.538 113.24L306.658 117.4Z" stroke="white" stroke-width="2.24" stroke-miterlimit="10" stroke-linecap="round" stroke-linejoin="round"/>
<path d="M317.538 113.24L328.738 110.04L317.538 113.24Z" stroke="white" stroke-width="2.24" stroke-miterlimit="10" stroke-linecap="round" stroke-linejoin="round"/>
<path d="M328.738 110.04L340.258 108.12L328.738 110.04Z" stroke="white" stroke-width="2.24" stroke-miterlimit="10" stroke-linecap="round" stroke-linejoin="round"/>
<path d="M340.258 108.12L351.778 107.8L340.258 108.12Z" stroke="white" stroke-width="2.24" stroke-miterlimit="10" stroke-linecap="round" stroke-linejoin="round"/>
<path d="M351.778 107.8L363.298 108.44L351.778 107.8Z" stroke="white" stroke-width="2.24" stroke-miterlimit="10" stroke-linecap="round" stroke-linejoin="round"/>
<path d="M363.298 108.44L374.818 110.36L363.298 108.44Z" stroke="white" stroke-width="2.24" stroke-miterlimit="10" stroke-linecap="round" stroke-linejoin="round"/>
<path d="M374.818 110.36L386.018 113.56L374.818 110.36Z" stroke="white" stroke-width="2.24" stroke-miterlimit="10" stroke-linecap="round" stroke-linejoin="round"/>
<path d="M386.018 113.56L396.898 118.04L386.018 113.56Z" stroke="white" stroke-width="2.24" stroke-miterlimit="10" stroke-linecap="round" stroke-linejoin="round"/>
<path d="M396.898 118.04L407.138 123.48L396.898 118.04Z" stroke="white" stroke-width="2.24" stroke-miterlimit="10" stroke-linecap="round" stroke-linejoin="round"/>
<path d="M407.138 123.48L416.418 130.2L407.138 123.48Z" stroke="white" stroke-width="2.24" stroke-miterlimit="10" stroke-linecap="round" stroke-linejoin="round"/>
<path d="M416.418 130.2L425.378 137.88L416.418 130.2Z" stroke="white" stroke-width="2.24" stroke-miterlimit="10" stroke-linecap="round" stroke-linejoin="round"/>
<path d="M425.378 137.88L433.058 146.52L425.378 137.88Z" stroke="white" stroke-width="2.24" stroke-miterlimit="10" stroke-linecap="round" stroke-linejoin="round"/>
<path d="M433.058 146.52L440.098 155.8L433.058 146.52Z" stroke="white" stroke-width="2.24" stroke-miterlimit="10" stroke-linecap="round" stroke-linejoin="round"/>
<path d="M440.098 155.8L445.858 166.04L440.098 155.8Z" stroke="white" stroke-width="2.24" stroke-miterlimit="10" stroke-linecap="round" stroke-linejoin="round"/>
<path d="M445.858 166.04L450.338 176.6L445.858 166.04Z" stroke="white" stroke-width="2.24" stroke-miterlimit="10" stroke-linecap="round" stroke-linejoin="round"/>
<path d="M450.338 176.6L453.858 187.8L450.338 176.6Z" stroke="white" stroke-width="2.24" stroke-miterlimit="10" stroke-linecap="round" stroke-linejoin="round"/>
<path d="M453.858 187.8L456.098 199.32L453.858 187.8Z" stroke="white" stroke-width="2.24" stroke-miterlimit="10" stroke-linecap="round" stroke-linejoin="round"/>
<path d="M456.098 199.32L457.058 209.56L456.098 199.32Z" stroke="white" stroke-width="2.24" stroke-miterlimit="10" stroke-linecap="round" stroke-linejoin="round"/>
<path d="M234.018 209.56L234.978 197.4L234.018 209.56Z" stroke="white" stroke-width="2.24" stroke-miterlimit="10" stroke-linecap="round" stroke-linejoin="round"/>
<path d="M234.978 197.4L237.538 185.56L234.978 197.4Z" stroke="white" stroke-width="2.24" stroke-miterlimit="10" stroke-linecap="round" stroke-linejoin="round"/>
<path d="M237.538 185.56L241.058 173.72L237.538 185.56Z" stroke="white" stroke-width="2.24" stroke-miterlimit="10" stroke-linecap="round" stroke-linejoin="round"/>
<path d="M241.058 173.72L245.858 162.52L241.058 173.72Z" stroke="white" stroke-width="2.24" stroke-miterlimit="10" stroke-linecap="round" stroke-linejoin="round"/>
<path d="M245.858 162.52L251.618 151.64L245.858 162.52Z" stroke="white" stroke-width="2.24" stroke-miterlimit="10" stroke-linecap="round" stroke-linejoin="round"/>
<path d="M251.618 151.64L258.658 141.72L251.618 151.64Z" stroke="white" stroke-width="2.24" stroke-miterlimit="10" stroke-linecap="round" stroke-linejoin="round"/>
<path d="M258.658 141.72L266.658 132.44L258.658 141.72Z" stroke="white" stroke-width="2.24" stroke-miterlimit="10" stroke-linecap="round" stroke-linejoin="round"/>
<path d="M266.658 132.44L275.618 124.12L266.658 132.44Z" stroke="white" stroke-width="2.24" stroke-miterlimit="10" stroke-linecap="round" stroke-linejoin="round"/>
<path d="M275.618 124.12L285.218 116.76L275.618 124.12Z" stroke="white" stroke-width="2.24" stroke-miterlimit="10" stroke-linecap="round" stroke-linejoin="round"/>
<path d="M285.218 116.76L295.778 110.36L285.218 116.76Z" stroke="white" stroke-width="2.24" stroke-miterlimit="10" stroke-linecap="round" stroke-linejoin="round"/>
<path d="M295.778 110.36L306.978 104.92L295.778 110.36Z" stroke="white" stroke-width="2.24" stroke-miterlimit="10" stroke-linecap="round" stroke-linejoin="round"/>
<path d="M306.978 104.92L318.498 101.08L306.978 104.92Z" stroke="white" stroke-width="2.24" stroke-miterlimit="10" stroke-linecap="round" stroke-linejoin="round"/>
<path d="M318.498 101.08L330.338 98.2001L318.498 101.08Z" stroke="white" stroke-width="2.24" stroke-miterlimit="10" stroke-linecap="round" stroke-linejoin="round"/>
<path d="M330.338 98.2001L342.498 96.6001L330.338 98.2001Z" stroke="white" stroke-width="2.24" stroke-miterlimit="10" stroke-linecap="round" stroke-linejoin="round"/>
<path d="M342.498 96.6L354.658 96.28L342.498 96.6Z" stroke="white" stroke-width="2.24" stroke-miterlimit="10" stroke-linecap="round" stroke-linejoin="round"/>
<path d="M354.658 96.28L366.818 97.24L354.658 96.28Z" stroke="white" stroke-width="2.24" stroke-miterlimit="10" stroke-linecap="round" stroke-linejoin="round"/>
<path d="M366.818 97.24L378.978 99.8L366.818 97.24Z" stroke="white" stroke-width="2.24" stroke-miterlimit="10" stroke-linecap="round" stroke-linejoin="round"/>
<path d="M378.978 99.8L390.818 103.32L378.978 99.8Z" stroke="white" stroke-width="2.24" stroke-miterlimit="10" stroke-linecap="round" stroke-linejoin="round"/>
<path d="M390.818 103.32L402.018 107.8L390.818 103.32Z" stroke="white" stroke-width="2.24" stroke-miterlimit="10" stroke-linecap="round" stroke-linejoin="round"/>
<path d="M402.018 107.8L412.578 113.88L402.018 107.8Z" stroke="white" stroke-width="2.24" stroke-miterlimit="10" stroke-linecap="round" stroke-linejoin="round"/>
<path d="M412.578 113.88L422.818 120.6L412.578 113.88Z" stroke="white" stroke-width="2.24" stroke-miterlimit="10" stroke-linecap="round" stroke-linejoin="round"/>
<path d="M422.818 120.6L432.098 128.6L422.818 120.6Z" stroke="white" stroke-width="2.24" stroke-miterlimit="10" stroke-linecap="round" stroke-linejoin="round"/>
<path d="M432.098 128.6L440.418 137.56L432.098 128.6Z" stroke="white" stroke-width="2.24" stroke-miterlimit="10" stroke-linecap="round" stroke-linejoin="round"/>
<path d="M440.418 137.56L448.098 147.16L440.418 137.56Z" stroke="white" stroke-width="2.24" stroke-miterlimit="10" stroke-linecap="round" stroke-linejoin="round"/>
<path d="M448.098 147.16L454.178 157.72L448.098 147.16Z" stroke="white" stroke-width="2.24" stroke-miterlimit="10" stroke-linecap="round" stroke-linejoin="round"/>
<path d="M454.178 157.72L459.618 168.92L454.178 157.72Z" stroke="white" stroke-width="2.24" stroke-miterlimit="10" stroke-linecap="round" stroke-linejoin="round"/>
<path d="M459.618 168.92L463.778 180.44L459.618 168.92Z" stroke="white" stroke-width="2.24" stroke-miterlimit="10" stroke-linecap="round" stroke-linejoin="round"/>
<path d="M463.778 180.44L466.658 192.28L463.778 180.44Z" stroke="white" stroke-width="2.24" stroke-miterlimit="10" stroke-linecap="round" stroke-linejoin="round"/>
<path d="M466.658 192.28L468.258 204.44L466.658 192.28Z" stroke="white" stroke-width="2.24" stroke-miterlimit="10" stroke-linecap="round" stroke-linejoin="round"/>
<path d="M468.258 204.44V209.56V204.44Z" stroke="white" stroke-width="2.24" stroke-miterlimit="10" stroke-linecap="round" stroke-linejoin="round"/>
<path d="M566.818 209.56L564.578 193.24L566.818 209.56Z" stroke="white" stroke-width="2.24" stroke-miterlimit="10" stroke-linecap="round" stroke-linejoin="round"/>
<path d="M564.578 193.24L561.058 176.92L564.578 193.24Z" stroke="white" stroke-width="2.24" stroke-miterlimit="10" stroke-linecap="round" stroke-linejoin="round"/>
<path d="M561.058 176.92L556.578 160.92L561.058 176.92Z" stroke="white" stroke-width="2.24" stroke-miterlimit="10" stroke-linecap="round" stroke-linejoin="round"/>
<path d="M556.578 160.92L550.498 145.56L556.578 160.92Z" stroke="white" stroke-width="2.24" stroke-miterlimit="10" stroke-linecap="round" stroke-linejoin="round"/>
<path d="M550.498 145.56L543.458 130.2L550.498 145.56Z" stroke="white" stroke-width="2.24" stroke-miterlimit="10" stroke-linecap="round" stroke-linejoin="round"/>
<path d="M543.458 130.2L535.458 115.8L543.458 130.2Z" stroke="white" stroke-width="2.24" stroke-miterlimit="10" stroke-linecap="round" stroke-linejoin="round"/>
<path d="M535.458 115.8L526.178 102.04L535.458 115.8Z" stroke="white" stroke-width="2.24" stroke-miterlimit="10" stroke-linecap="round" stroke-linejoin="round"/>
<path d="M526.178 102.04L515.618 88.92L526.178 102.04Z" stroke="white" stroke-width="2.24" stroke-miterlimit="10" stroke-linecap="round" stroke-linejoin="round"/>
<path d="M515.618 88.92L504.418 76.76L515.618 88.92Z" stroke="white" stroke-width="2.24" stroke-miterlimit="10" stroke-linecap="round" stroke-linejoin="round"/>
<path d="M504.418 76.7601L492.258 65.5601L504.418 76.7601Z" stroke="white" stroke-width="2.24" stroke-miterlimit="10" stroke-linecap="round" stroke-linejoin="round"/>
<path d="M492.258 65.56L479.138 55L492.258 65.56Z" stroke="white" stroke-width="2.24" stroke-miterlimit="10" stroke-linecap="round" stroke-linejoin="round"/>
<path d="M479.138 55L465.378 45.72L479.138 55Z" stroke="white" stroke-width="2.24" stroke-miterlimit="10" stroke-linecap="round" stroke-linejoin="round"/>
<path d="M465.378 45.72L450.978 37.4L465.378 45.72Z" stroke="white" stroke-width="2.24" stroke-miterlimit="10" stroke-linecap="round" stroke-linejoin="round"/>
<path d="M450.978 37.4L435.938 30.36L450.978 37.4Z" stroke="white" stroke-width="2.24" stroke-miterlimit="10" stroke-linecap="round" stroke-linejoin="round"/>
<path d="M435.938 30.3601L420.258 24.6001L435.938 30.3601Z" stroke="white" stroke-width="2.24" stroke-miterlimit="10" stroke-linecap="round" stroke-linejoin="round"/>
<path d="M420.258 24.6L404.258 19.8L420.258 24.6Z" stroke="white" stroke-width="2.24" stroke-miterlimit="10" stroke-linecap="round" stroke-linejoin="round"/>
<path d="M404.258 19.8L388.258 16.28L404.258 19.8Z" stroke="white" stroke-width="2.24" stroke-miterlimit="10" stroke-linecap="round" stroke-linejoin="round"/>
<path d="M388.258 16.28L371.618 14.04L388.258 16.28Z" stroke="white" stroke-width="2.24" stroke-miterlimit="10" stroke-linecap="round" stroke-linejoin="round"/>
<path d="M371.618 14.0401L354.978 13.0801L371.618 14.0401Z" stroke="white" stroke-width="2.24" stroke-miterlimit="10" stroke-linecap="round" stroke-linejoin="round"/>
<path d="M354.978 13.0801L338.338 13.7201L354.978 13.0801Z" stroke="white" stroke-width="2.24" stroke-miterlimit="10" stroke-linecap="round" stroke-linejoin="round"/>
<path d="M338.338 13.72L321.698 15.32L338.338 13.72Z" stroke="white" stroke-width="2.24" stroke-miterlimit="10" stroke-linecap="round" stroke-linejoin="round"/>
<path d="M321.698 15.3201L305.378 18.2001L321.698 15.3201Z" stroke="white" stroke-width="2.24" stroke-miterlimit="10" stroke-linecap="round" stroke-linejoin="round"/>
<path d="M305.378 18.2001L289.378 22.3601L305.378 18.2001Z" stroke="white" stroke-width="2.24" stroke-miterlimit="10" stroke-linecap="round" stroke-linejoin="round"/>
<path d="M289.378 22.36L273.698 27.48L289.378 22.36Z" stroke="white" stroke-width="2.24" stroke-miterlimit="10" stroke-linecap="round" stroke-linejoin="round"/>
<path d="M273.698 27.48L258.338 34.2L273.698 27.48Z" stroke="white" stroke-width="2.24" stroke-miterlimit="10" stroke-linecap="round" stroke-linejoin="round"/>
<path d="M258.338 34.2001L243.618 41.8801L258.338 34.2001Z" stroke="white" stroke-width="2.24" stroke-miterlimit="10" stroke-linecap="round" stroke-linejoin="round"/>
<path d="M243.618 41.88L229.538 50.84L243.618 41.88Z" stroke="white" stroke-width="2.24" stroke-miterlimit="10" stroke-linecap="round" stroke-linejoin="round"/>
<path d="M229.538 50.8401L216.098 60.4401L229.538 50.8401Z" stroke="white" stroke-width="2.24" stroke-miterlimit="10" stroke-linecap="round" stroke-linejoin="round"/>
<path d="M216.098 60.4401L203.618 71.3201L216.098 60.4401Z" stroke="white" stroke-width="2.24" stroke-miterlimit="10" stroke-linecap="round" stroke-linejoin="round"/>
<path d="M203.618 71.3201L191.778 83.1601L203.618 71.3201Z" stroke="white" stroke-width="2.24" stroke-miterlimit="10" stroke-linecap="round" stroke-linejoin="round"/>
<path d="M191.778 83.16L180.898 95.96L191.778 83.16Z" stroke="white" stroke-width="2.24" stroke-miterlimit="10" stroke-linecap="round" stroke-linejoin="round"/>
<path d="M180.898 95.9601L171.298 109.4L180.898 95.9601Z" stroke="white" stroke-width="2.24" stroke-miterlimit="10" stroke-linecap="round" stroke-linejoin="round"/>
<path d="M171.298 109.4L162.658 123.8L171.298 109.4Z" stroke="white" stroke-width="2.24" stroke-miterlimit="10" stroke-linecap="round" stroke-linejoin="round"/>
<path d="M162.658 123.8L154.978 138.52L162.658 123.8Z" stroke="white" stroke-width="2.24" stroke-miterlimit="10" stroke-linecap="round" stroke-linejoin="round"/>
<path d="M154.978 138.52L148.578 153.88L154.978 138.52Z" stroke="white" stroke-width="2.24" stroke-miterlimit="10" stroke-linecap="round" stroke-linejoin="round"/>
<path d="M148.578 153.88L143.458 169.56L148.578 153.88Z" stroke="white" stroke-width="2.24" stroke-miterlimit="10" stroke-linecap="round" stroke-linejoin="round"/>
<path d="M143.458 169.56L139.298 185.88L143.458 169.56Z" stroke="white" stroke-width="2.24" stroke-miterlimit="10" stroke-linecap="round" stroke-linejoin="round"/>
<path d="M139.298 185.88L136.738 202.2L139.298 185.88Z" stroke="white" stroke-width="2.24" stroke-miterlimit="10" stroke-linecap="round" stroke-linejoin="round"/>
<path d="M136.738 202.2L135.778 209.56L136.738 202.2Z" stroke="white" stroke-width="2.24" stroke-miterlimit="10" stroke-linecap="round" stroke-linejoin="round"/>
<path d="M124.578 209.56H245.538H124.578Z" stroke="white" stroke-width="2.24" stroke-miterlimit="10" stroke-linecap="round" stroke-linejoin="round"/>
<path d="M457.058 209.56H578.018H457.058Z" stroke="white" stroke-width="2.24" stroke-miterlimit="10" stroke-linecap="round" stroke-linejoin="round"/>
<path d="M573.858 209.56L577.698 206.04L573.858 209.56Z" stroke="white" stroke-width="0.64" stroke-miterlimit="10" stroke-linecap="round" stroke-linejoin="round"/>
<path d="M568.738 209.56L577.058 201.24L568.738 209.56Z" stroke="white" stroke-width="0.64" stroke-miterlimit="10" stroke-linecap="round" stroke-linejoin="round"/>
<path d="M566.498 206.68L576.418 196.44L566.498 206.68Z" stroke="white" stroke-width="0.64" stroke-miterlimit="10" stroke-linecap="round" stroke-linejoin="round"/>
<path d="M565.858 201.88L575.778 191.96L565.858 201.88Z" stroke="white" stroke-width="0.64" stroke-miterlimit="10" stroke-linecap="round" stroke-linejoin="round"/>
<path d="M565.218 197.08L574.818 187.48L565.218 197.08Z" stroke="white" stroke-width="0.64" stroke-miterlimit="10" stroke-linecap="round" stroke-linejoin="round"/>
<path d="M564.258 192.6L574.178 183L564.258 192.6Z" stroke="white" stroke-width="0.64" stroke-miterlimit="10" stroke-linecap="round" stroke-linejoin="round"/>
<path d="M563.618 188.12L573.218 178.52L563.618 188.12Z" stroke="white" stroke-width="0.64" stroke-miterlimit="10" stroke-linecap="round" stroke-linejoin="round"/>
<path d="M562.658 183.64L571.938 174.36L562.658 183.64Z" stroke="white" stroke-width="0.64" stroke-miterlimit="10" stroke-linecap="round" stroke-linejoin="round"/>
<path d="M561.698 179.16L570.978 169.88L561.698 179.16Z" stroke="white" stroke-width="0.64" stroke-miterlimit="10" stroke-linecap="round" stroke-linejoin="round"/>
<path d="M560.738 175L569.698 165.72L560.738 175Z" stroke="white" stroke-width="0.64" stroke-miterlimit="10" stroke-linecap="round" stroke-linejoin="round"/>
<path d="M559.458 170.84L568.418 161.88L559.458 170.84Z" stroke="white" stroke-width="0.64" stroke-miterlimit="10" stroke-linecap="round" stroke-linejoin="round"/>
<path d="M558.178 166.68L567.138 157.72L558.178 166.68Z" stroke="white" stroke-width="0.64" stroke-miterlimit="10" stroke-linecap="round" stroke-linejoin="round"/>
<path d="M556.898 162.52L565.858 153.56L556.898 162.52Z" stroke="white" stroke-width="0.64" stroke-miterlimit="10" stroke-linecap="round" stroke-linejoin="round"/>
<path d="M555.618 158.68L564.578 149.72L555.618 158.68Z" stroke="white" stroke-width="0.64" stroke-miterlimit="10" stroke-linecap="round" stroke-linejoin="round"/>
<path d="M554.338 154.52L562.978 145.88L554.338 154.52Z" stroke="white" stroke-width="0.64" stroke-miterlimit="10" stroke-linecap="round" stroke-linejoin="round"/>
<path d="M552.738 150.68L561.378 142.04L552.738 150.68Z" stroke="white" stroke-width="0.64" stroke-miterlimit="10" stroke-linecap="round" stroke-linejoin="round"/>
<path d="M551.138 146.84L559.778 138.52L551.138 146.84Z" stroke="white" stroke-width="0.64" stroke-miterlimit="10" stroke-linecap="round" stroke-linejoin="round"/>
<path d="M549.538 143.32L558.178 134.68L549.538 143.32Z" stroke="white" stroke-width="0.64" stroke-miterlimit="10" stroke-linecap="round" stroke-linejoin="round"/>
<path d="M547.938 139.48L556.578 131.16L547.938 139.48Z" stroke="white" stroke-width="0.64" stroke-miterlimit="10" stroke-linecap="round" stroke-linejoin="round"/>
<path d="M546.338 135.96L554.658 127.32L546.338 135.96Z" stroke="white" stroke-width="0.64" stroke-miterlimit="10" stroke-linecap="round" stroke-linejoin="round"/>
<path d="M466.978 209.56L468.258 208.6L466.978 209.56Z" stroke="white" stroke-width="0.64" stroke-miterlimit="10" stroke-linecap="round" stroke-linejoin="round"/>
<path d="M544.418 132.44L553.058 123.8L544.418 132.44Z" stroke="white" stroke-width="0.64" stroke-miterlimit="10" stroke-linecap="round" stroke-linejoin="round"/>
<path d="M542.818 128.92L551.138 120.28L542.818 128.92Z" stroke="white" stroke-width="0.64" stroke-miterlimit="10" stroke-linecap="round" stroke-linejoin="round"/>
<path d="M461.858 209.56L467.938 203.48L461.858 209.56Z" stroke="white" stroke-width="0.64" stroke-miterlimit="10" stroke-linecap="round" stroke-linejoin="round"/>
<path d="M457.058 209.24L467.618 198.68L457.058 209.24Z" stroke="white" stroke-width="0.64" stroke-miterlimit="10" stroke-linecap="round" stroke-linejoin="round"/>
<path d="M540.898 125.4L549.218 117.08L540.898 125.4Z" stroke="white" stroke-width="0.64" stroke-miterlimit="10" stroke-linecap="round" stroke-linejoin="round"/>
<path d="M538.978 121.88L547.298 113.56L538.978 121.88Z" stroke="white" stroke-width="0.64" stroke-miterlimit="10" stroke-linecap="round" stroke-linejoin="round"/>
<path d="M456.738 204.12L466.658 193.88L456.738 204.12Z" stroke="white" stroke-width="0.64" stroke-miterlimit="10" stroke-linecap="round" stroke-linejoin="round"/>
<path d="M456.098 199.32L466.018 189.4L456.098 199.32Z" stroke="white" stroke-width="0.64" stroke-miterlimit="10" stroke-linecap="round" stroke-linejoin="round"/>
<path d="M537.058 118.36L545.058 110.36L537.058 118.36Z" stroke="white" stroke-width="0.64" stroke-miterlimit="10" stroke-linecap="round" stroke-linejoin="round"/>
<path d="M534.818 115.16L543.138 106.84L534.818 115.16Z" stroke="white" stroke-width="0.64" stroke-miterlimit="10" stroke-linecap="round" stroke-linejoin="round"/>
<path d="M455.458 194.52L465.058 185.24L455.458 194.52Z" stroke="white" stroke-width="0.64" stroke-miterlimit="10" stroke-linecap="round" stroke-linejoin="round"/>
<path d="M454.498 190.36L463.778 181.08L454.498 190.36Z" stroke="white" stroke-width="0.64" stroke-miterlimit="10" stroke-linecap="round" stroke-linejoin="round"/>
<path d="M532.898 111.96L540.898 103.64L532.898 111.96Z" stroke="white" stroke-width="0.64" stroke-miterlimit="10" stroke-linecap="round" stroke-linejoin="round"/>
<path d="M530.658 108.76L538.978 100.44L530.658 108.76Z" stroke="white" stroke-width="0.64" stroke-miterlimit="10" stroke-linecap="round" stroke-linejoin="round"/>
<path d="M453.538 185.88L462.498 176.92L453.538 185.88Z" stroke="white" stroke-width="0.64" stroke-miterlimit="10" stroke-linecap="round" stroke-linejoin="round"/>
<path d="M452.258 181.72L461.218 172.76L452.258 181.72Z" stroke="white" stroke-width="0.64" stroke-miterlimit="10" stroke-linecap="round" stroke-linejoin="round"/>
<path d="M528.418 105.56L536.738 97.5601L528.418 105.56Z" stroke="white" stroke-width="0.64" stroke-miterlimit="10" stroke-linecap="round" stroke-linejoin="round"/>
<path d="M526.178 102.36L534.498 94.3601L526.178 102.36Z" stroke="white" stroke-width="0.64" stroke-miterlimit="10" stroke-linecap="round" stroke-linejoin="round"/>
<path d="M450.978 177.88L459.618 168.92L450.978 177.88Z" stroke="white" stroke-width="0.64" stroke-miterlimit="10" stroke-linecap="round" stroke-linejoin="round"/>
<path d="M449.378 174.04L458.018 165.4L449.378 174.04Z" stroke="white" stroke-width="0.64" stroke-miterlimit="10" stroke-linecap="round" stroke-linejoin="round"/>
<path d="M523.938 99.48L532.258 91.16L523.938 99.48Z" stroke="white" stroke-width="0.64" stroke-miterlimit="10" stroke-linecap="round" stroke-linejoin="round"/>
<path d="M521.698 96.28L529.698 88.28L521.698 96.28Z" stroke="white" stroke-width="0.64" stroke-miterlimit="10" stroke-linecap="round" stroke-linejoin="round"/>
<path d="M447.778 170.2L456.418 161.56L447.778 170.2Z" stroke="white" stroke-width="0.64" stroke-miterlimit="10" stroke-linecap="round" stroke-linejoin="round"/>
<path d="M446.178 166.68L454.498 158.04L446.178 166.68Z" stroke="white" stroke-width="0.64" stroke-miterlimit="10" stroke-linecap="round" stroke-linejoin="round"/>
<path d="M519.458 93.4L527.458 85.4L519.458 93.4Z" stroke="white" stroke-width="0.64" stroke-miterlimit="10" stroke-linecap="round" stroke-linejoin="round"/>
<path d="M516.898 90.52L524.898 82.52L516.898 90.52Z" stroke="white" stroke-width="0.64" stroke-miterlimit="10" stroke-linecap="round" stroke-linejoin="round"/>
<path d="M444.258 163.16L452.578 154.84L444.258 163.16Z" stroke="white" stroke-width="0.64" stroke-miterlimit="10" stroke-linecap="round" stroke-linejoin="round"/>
<path d="M442.338 159.64L450.658 151.32L442.338 159.64Z" stroke="white" stroke-width="0.64" stroke-miterlimit="10" stroke-linecap="round" stroke-linejoin="round"/>
<path d="M514.338 87.64L522.338 79.64L514.338 87.64Z" stroke="white" stroke-width="0.64" stroke-miterlimit="10" stroke-linecap="round" stroke-linejoin="round"/>
<path d="M512.098 84.76L520.098 76.76L512.098 84.76Z" stroke="white" stroke-width="0.64" stroke-miterlimit="10" stroke-linecap="round" stroke-linejoin="round"/>
<path d="M440.418 156.44L448.418 148.12L440.418 156.44Z" stroke="white" stroke-width="0.64" stroke-miterlimit="10" stroke-linecap="round" stroke-linejoin="round"/>
<path d="M438.178 153.24L446.178 144.92L438.178 153.24Z" stroke="white" stroke-width="0.64" stroke-miterlimit="10" stroke-linecap="round" stroke-linejoin="round"/>
<path d="M509.538 81.88L517.538 73.88L509.538 81.88Z" stroke="white" stroke-width="0.64" stroke-miterlimit="10" stroke-linecap="round" stroke-linejoin="round"/>
<path d="M506.658 79.3201L514.658 71.3201L506.658 79.3201Z" stroke="white" stroke-width="0.64" stroke-miterlimit="10" stroke-linecap="round" stroke-linejoin="round"/>
<path d="M435.938 150.04L443.938 142.04L435.938 150.04Z" stroke="white" stroke-width="0.64" stroke-miterlimit="10" stroke-linecap="round" stroke-linejoin="round"/>
<path d="M433.698 147.16L441.698 138.84L433.698 147.16Z" stroke="white" stroke-width="0.64" stroke-miterlimit="10" stroke-linecap="round" stroke-linejoin="round"/>
<path d="M504.098 76.4401L512.098 68.4401L504.098 76.4401Z" stroke="white" stroke-width="0.64" stroke-miterlimit="10" stroke-linecap="round" stroke-linejoin="round"/>
<path d="M501.538 73.88L509.538 65.88L501.538 73.88Z" stroke="white" stroke-width="0.64" stroke-miterlimit="10" stroke-linecap="round" stroke-linejoin="round"/>
<path d="M431.138 143.96L439.138 135.96L431.138 143.96Z" stroke="white" stroke-width="0.64" stroke-miterlimit="10" stroke-linecap="round" stroke-linejoin="round"/>
<path d="M428.578 141.4L436.578 133.4L428.578 141.4Z" stroke="white" stroke-width="0.64" stroke-miterlimit="10" stroke-linecap="round" stroke-linejoin="round"/>
<path d="M498.658 71.3201L506.658 63.3201L498.658 71.3201Z" stroke="white" stroke-width="0.64" stroke-miterlimit="10" stroke-linecap="round" stroke-linejoin="round"/>
<path d="M495.778 68.76L503.778 60.76L495.778 68.76Z" stroke="white" stroke-width="0.64" stroke-miterlimit="10" stroke-linecap="round" stroke-linejoin="round"/>
<path d="M426.018 138.52L434.018 130.52L426.018 138.52Z" stroke="white" stroke-width="0.64" stroke-miterlimit="10" stroke-linecap="round" stroke-linejoin="round"/>
<path d="M423.138 135.96L431.138 127.96L423.138 135.96Z" stroke="white" stroke-width="0.64" stroke-miterlimit="10" stroke-linecap="round" stroke-linejoin="round"/>
<path d="M493.218 66.2001L501.218 58.2001L493.218 66.2001Z" stroke="white" stroke-width="0.64" stroke-miterlimit="10" stroke-linecap="round" stroke-linejoin="round"/>
<path d="M490.338 63.64L498.338 55.64L490.338 63.64Z" stroke="white" stroke-width="0.64" stroke-miterlimit="10" stroke-linecap="round" stroke-linejoin="round"/>
<path d="M420.578 133.4L428.578 125.4L420.578 133.4Z" stroke="white" stroke-width="0.64" stroke-miterlimit="10" stroke-linecap="round" stroke-linejoin="round"/>
<path d="M417.698 130.84L425.698 122.84L417.698 130.84Z" stroke="white" stroke-width="0.64" stroke-miterlimit="10" stroke-linecap="round" stroke-linejoin="round"/>
<path d="M487.138 61.4001L495.458 53.0801L487.138 61.4001Z" stroke="white" stroke-width="0.64" stroke-miterlimit="10" stroke-linecap="round" stroke-linejoin="round"/>
<path d="M484.258 58.8401L492.258 50.8401L484.258 58.8401Z" stroke="white" stroke-width="0.64" stroke-miterlimit="10" stroke-linecap="round" stroke-linejoin="round"/>
<path d="M414.498 128.6L422.498 120.6L414.498 128.6Z" stroke="white" stroke-width="0.64" stroke-miterlimit="10" stroke-linecap="round" stroke-linejoin="round"/>
<path d="M411.298 126.36L419.618 118.36L411.298 126.36Z" stroke="white" stroke-width="0.64" stroke-miterlimit="10" stroke-linecap="round" stroke-linejoin="round"/>
<path d="M481.378 56.6L489.378 48.6L481.378 56.6Z" stroke="white" stroke-width="0.64" stroke-miterlimit="10" stroke-linecap="round" stroke-linejoin="round"/>
<path d="M478.178 54.36L486.178 46.36L478.178 54.36Z" stroke="white" stroke-width="0.64" stroke-miterlimit="10" stroke-linecap="round" stroke-linejoin="round"/>
<path d="M408.098 124.44L416.418 116.12L408.098 124.44Z" stroke="white" stroke-width="0.64" stroke-miterlimit="10" stroke-linecap="round" stroke-linejoin="round"/>
<path d="M404.898 122.2L413.218 113.88L404.898 122.2Z" stroke="white" stroke-width="0.64" stroke-miterlimit="10" stroke-linecap="round" stroke-linejoin="round"/>
<path d="M474.978 52.12L483.298 44.12L474.978 52.12Z" stroke="white" stroke-width="0.64" stroke-miterlimit="10" stroke-linecap="round" stroke-linejoin="round"/>
<path d="M471.778 49.88L480.098 41.88L471.778 49.88Z" stroke="white" stroke-width="0.64" stroke-miterlimit="10" stroke-linecap="round" stroke-linejoin="round"/>
<path d="M401.378 120.28L409.698 111.96L401.378 120.28Z" stroke="white" stroke-width="0.64" stroke-miterlimit="10" stroke-linecap="round" stroke-linejoin="round"/>
<path d="M397.858 118.68L406.498 110.04L397.858 118.68Z" stroke="white" stroke-width="0.64" stroke-miterlimit="10" stroke-linecap="round" stroke-linejoin="round"/>
<path d="M468.578 47.96L476.898 39.64L468.578 47.96Z" stroke="white" stroke-width="0.64" stroke-miterlimit="10" stroke-linecap="round" stroke-linejoin="round"/>
<path d="M465.378 45.72L473.698 37.4L465.378 45.72Z" stroke="white" stroke-width="0.64" stroke-miterlimit="10" stroke-linecap="round" stroke-linejoin="round"/>
<path d="M394.338 116.76L402.978 108.44L394.338 116.76Z" stroke="white" stroke-width="0.64" stroke-miterlimit="10" stroke-linecap="round" stroke-linejoin="round"/>
<path d="M390.498 115.16L399.138 106.52L390.498 115.16Z" stroke="white" stroke-width="0.64" stroke-miterlimit="10" stroke-linecap="round" stroke-linejoin="round"/>
<path d="M462.178 43.8L470.178 35.48L462.178 43.8Z" stroke="white" stroke-width="0.64" stroke-miterlimit="10" stroke-linecap="round" stroke-linejoin="round"/>
<path d="M458.658 41.8801L466.978 33.5601L458.658 41.8801Z" stroke="white" stroke-width="0.64" stroke-miterlimit="10" stroke-linecap="round" stroke-linejoin="round"/>
<path d="M386.658 113.88L395.298 104.92L386.658 113.88Z" stroke="white" stroke-width="0.64" stroke-miterlimit="10" stroke-linecap="round" stroke-linejoin="round"/>
<path d="M382.498 112.28L391.458 103.64L382.498 112.28Z" stroke="white" stroke-width="0.64" stroke-miterlimit="10" stroke-linecap="round" stroke-linejoin="round"/>
<path d="M455.138 39.96L463.458 31.64L455.138 39.96Z" stroke="white" stroke-width="0.64" stroke-miterlimit="10" stroke-linecap="round" stroke-linejoin="round"/>
<path d="M451.618 38.04L460.258 29.72L451.618 38.04Z" stroke="white" stroke-width="0.64" stroke-miterlimit="10" stroke-linecap="round" stroke-linejoin="round"/>
<path d="M378.658 111.32L387.618 102.04L378.658 111.32Z" stroke="white" stroke-width="0.64" stroke-miterlimit="10" stroke-linecap="round" stroke-linejoin="round"/>
<path d="M374.178 110.04L383.458 100.76L374.178 110.04Z" stroke="white" stroke-width="0.64" stroke-miterlimit="10" stroke-linecap="round" stroke-linejoin="round"/>
<path d="M448.098 36.12L456.738 27.8L448.098 36.12Z" stroke="white" stroke-width="0.64" stroke-miterlimit="10" stroke-linecap="round" stroke-linejoin="round"/>
<path d="M444.578 34.52L453.218 25.88L444.578 34.52Z" stroke="white" stroke-width="0.64" stroke-miterlimit="10" stroke-linecap="round" stroke-linejoin="round"/>
<path d="M369.698 109.4L379.298 99.8L369.698 109.4Z" stroke="white" stroke-width="0.64" stroke-miterlimit="10" stroke-linecap="round" stroke-linejoin="round"/>
<path d="M365.218 108.44L374.818 98.8401L365.218 108.44Z" stroke="white" stroke-width="0.64" stroke-miterlimit="10" stroke-linecap="round" stroke-linejoin="round"/>
<path d="M441.058 32.6L449.698 24.28L441.058 32.6Z" stroke="white" stroke-width="0.64" stroke-miterlimit="10" stroke-linecap="round" stroke-linejoin="round"/>
<path d="M437.218 31L445.858 22.36L437.218 31Z" stroke="white" stroke-width="0.64" stroke-miterlimit="10" stroke-linecap="round" stroke-linejoin="round"/>
<path d="M360.418 108.12L370.338 97.88L360.418 108.12Z" stroke="white" stroke-width="0.64" stroke-miterlimit="10" stroke-linecap="round" stroke-linejoin="round"/>
<path d="M355.298 107.8L365.858 97.24L355.298 107.8Z" stroke="white" stroke-width="0.64" stroke-miterlimit="10" stroke-linecap="round" stroke-linejoin="round"/>
<path d="M433.698 29.4L442.338 20.76L433.698 29.4Z" stroke="white" stroke-width="0.64" stroke-miterlimit="10" stroke-linecap="round" stroke-linejoin="round"/>
<path d="M429.858 27.8L438.498 19.16L429.858 27.8Z" stroke="white" stroke-width="0.64" stroke-miterlimit="10" stroke-linecap="round" stroke-linejoin="round"/>
<path d="M349.858 107.8L361.058 96.6001L349.858 107.8Z" stroke="white" stroke-width="0.64" stroke-miterlimit="10" stroke-linecap="round" stroke-linejoin="round"/>
<path d="M242.658 209.56L245.538 206.68L242.658 209.56Z" stroke="white" stroke-width="0.64" stroke-miterlimit="10" stroke-linecap="round" stroke-linejoin="round"/>
<path d="M344.418 107.8L355.938 96.28L344.418 107.8Z" stroke="white" stroke-width="0.64" stroke-miterlimit="10" stroke-linecap="round" stroke-linejoin="round"/>
<path d="M426.018 26.5201L434.658 17.5601L426.018 26.5201Z" stroke="white" stroke-width="0.64" stroke-miterlimit="10" stroke-linecap="round" stroke-linejoin="round"/>
<path d="M421.858 24.92L430.818 16.28L421.858 24.92Z" stroke="white" stroke-width="0.64" stroke-miterlimit="10" stroke-linecap="round" stroke-linejoin="round"/>
<path d="M338.658 108.44L350.498 96.28L338.658 108.44Z" stroke="white" stroke-width="0.64" stroke-miterlimit="10" stroke-linecap="round" stroke-linejoin="round"/>
<path d="M237.218 209.56L246.178 200.92L237.218 209.56Z" stroke="white" stroke-width="0.64" stroke-miterlimit="10" stroke-linecap="round" stroke-linejoin="round"/>
<path d="M234.018 207.32L247.138 194.52L234.018 207.32Z" stroke="white" stroke-width="0.64" stroke-miterlimit="10" stroke-linecap="round" stroke-linejoin="round"/>
<path d="M332.258 109.4L345.058 96.6001L332.258 109.4Z" stroke="white" stroke-width="0.64" stroke-miterlimit="10" stroke-linecap="round" stroke-linejoin="round"/>
<path d="M418.018 23.6401L426.978 14.6801L418.018 23.6401Z" stroke="white" stroke-width="0.64" stroke-miterlimit="10" stroke-linecap="round" stroke-linejoin="round"/>
<path d="M413.858 22.36L422.818 13.4L413.858 22.36Z" stroke="white" stroke-width="0.64" stroke-miterlimit="10" stroke-linecap="round" stroke-linejoin="round"/>
<path d="M325.538 111L339.298 96.92L325.538 111Z" stroke="white" stroke-width="0.64" stroke-miterlimit="10" stroke-linecap="round" stroke-linejoin="round"/>
<path d="M234.658 201.56L248.418 187.8L234.658 201.56Z" stroke="white" stroke-width="0.64" stroke-miterlimit="10" stroke-linecap="round" stroke-linejoin="round"/>
<path d="M235.298 195.48L250.658 180.12L235.298 195.48Z" stroke="white" stroke-width="0.64" stroke-miterlimit="10" stroke-linecap="round" stroke-linejoin="round"/>
<path d="M317.858 112.92L333.218 97.88L317.858 112.92Z" stroke="white" stroke-width="0.64" stroke-miterlimit="10" stroke-linecap="round" stroke-linejoin="round"/>
<path d="M409.698 21.08L418.978 12.12L409.698 21.08Z" stroke="white" stroke-width="0.64" stroke-miterlimit="10" stroke-linecap="round" stroke-linejoin="round"/>
<path d="M405.538 20.1201L414.818 10.8401L405.538 20.1201Z" stroke="white" stroke-width="0.64" stroke-miterlimit="10" stroke-linecap="round" stroke-linejoin="round"/>
<path d="M309.218 116.44L326.818 98.8401L309.218 116.44Z" stroke="white" stroke-width="0.64" stroke-miterlimit="10" stroke-linecap="round" stroke-linejoin="round"/>
<path d="M236.578 189.08L253.858 171.48L236.578 189.08Z" stroke="white" stroke-width="0.64" stroke-miterlimit="10" stroke-linecap="round" stroke-linejoin="round"/>
<path d="M238.498 182.04L259.298 160.92L238.498 182.04Z" stroke="white" stroke-width="0.64" stroke-miterlimit="10" stroke-linecap="round" stroke-linejoin="round"/>
<path d="M298.658 121.56L319.458 100.76L298.658 121.56Z" stroke="white" stroke-width="0.64" stroke-miterlimit="10" stroke-linecap="round" stroke-linejoin="round"/>
<path d="M401.378 19.1601L410.658 9.56006L401.378 19.1601Z" stroke="white" stroke-width="0.64" stroke-miterlimit="10" stroke-linecap="round" stroke-linejoin="round"/>
<path d="M396.898 18.2001L406.178 8.6001L396.898 18.2001Z" stroke="white" stroke-width="0.64" stroke-miterlimit="10" stroke-linecap="round" stroke-linejoin="round"/>
<path d="M240.738 174.04L311.778 103.32L240.738 174.04Z" stroke="white" stroke-width="0.64" stroke-miterlimit="10" stroke-linecap="round" stroke-linejoin="round"/>
<path d="M244.578 165.08L302.818 106.84L244.578 165.08Z" stroke="white" stroke-width="0.64" stroke-miterlimit="10" stroke-linecap="round" stroke-linejoin="round"/>
<path d="M392.418 17.24L402.018 7.64001L392.418 17.24Z" stroke="white" stroke-width="0.64" stroke-miterlimit="10" stroke-linecap="round" stroke-linejoin="round"/>
<path d="M387.938 16.2801L397.538 6.68005L387.938 16.2801Z" stroke="white" stroke-width="0.64" stroke-miterlimit="10" stroke-linecap="round" stroke-linejoin="round"/>
<path d="M250.338 153.88L291.618 112.6L250.338 153.88Z" stroke="white" stroke-width="0.64" stroke-miterlimit="10" stroke-linecap="round" stroke-linejoin="round"/>
<path d="M383.458 15.64L393.058 5.71997L383.458 15.64Z" stroke="white" stroke-width="0.64" stroke-miterlimit="10" stroke-linecap="round" stroke-linejoin="round"/>
<path d="M378.658 15.0001L388.578 5.08008L378.658 15.0001Z" stroke="white" stroke-width="0.64" stroke-miterlimit="10" stroke-linecap="round" stroke-linejoin="round"/>
<path d="M373.858 14.36L384.098 4.12L373.858 14.36Z" stroke="white" stroke-width="0.64" stroke-miterlimit="10" stroke-linecap="round" stroke-linejoin="round"/>
<path d="M369.058 14.04L379.298 3.47998L369.058 14.04Z" stroke="white" stroke-width="0.64" stroke-miterlimit="10" stroke-linecap="round" stroke-linejoin="round"/>
<path d="M363.938 13.4L374.498 3.16003L363.938 13.4Z" stroke="white" stroke-width="0.64" stroke-miterlimit="10" stroke-linecap="round" stroke-linejoin="round"/>
<path d="M358.818 13.4L369.698 2.52002L358.818 13.4Z" stroke="white" stroke-width="0.64" stroke-miterlimit="10" stroke-linecap="round" stroke-linejoin="round"/>
<path d="M353.698 13.0801L364.578 2.20007L353.698 13.0801Z" stroke="white" stroke-width="0.64" stroke-miterlimit="10" stroke-linecap="round" stroke-linejoin="round"/>
<path d="M348.258 13.08L359.458 1.88L348.258 13.08Z" stroke="white" stroke-width="0.64" stroke-miterlimit="10" stroke-linecap="round" stroke-linejoin="round"/>
<path d="M342.818 13.4L354.338 1.88L342.818 13.4Z" stroke="white" stroke-width="0.64" stroke-miterlimit="10" stroke-linecap="round" stroke-linejoin="round"/>
<path d="M337.058 13.72L348.898 1.88L337.058 13.72Z" stroke="white" stroke-width="0.64" stroke-miterlimit="10" stroke-linecap="round" stroke-linejoin="round"/>
<path d="M331.298 14.04L343.458 1.88L331.298 14.04Z" stroke="white" stroke-width="0.64" stroke-miterlimit="10" stroke-linecap="round" stroke-linejoin="round"/>
<path d="M325.218 14.6801L337.698 2.20007L325.218 14.6801Z" stroke="white" stroke-width="0.64" stroke-miterlimit="10" stroke-linecap="round" stroke-linejoin="round"/>
<path d="M130.338 209.56L136.418 203.48L130.338 209.56Z" stroke="white" stroke-width="0.64" stroke-miterlimit="10" stroke-linecap="round" stroke-linejoin="round"/>
<path d="M124.898 209.56L137.378 197.4L124.898 209.56Z" stroke="white" stroke-width="0.64" stroke-miterlimit="10" stroke-linecap="round" stroke-linejoin="round"/>
<path d="M319.138 15.64L331.938 2.52002L319.138 15.64Z" stroke="white" stroke-width="0.64" stroke-miterlimit="10" stroke-linecap="round" stroke-linejoin="round"/>
<path d="M312.738 16.6L326.178 3.16003L312.738 16.6Z" stroke="white" stroke-width="0.64" stroke-miterlimit="10" stroke-linecap="round" stroke-linejoin="round"/>
<path d="M124.898 204.44L138.338 191L124.898 204.44Z" stroke="white" stroke-width="0.64" stroke-miterlimit="10" stroke-linecap="round" stroke-linejoin="round"/>
<path d="M125.858 198.36L139.618 184.28L125.858 198.36Z" stroke="white" stroke-width="0.64" stroke-miterlimit="10" stroke-linecap="round" stroke-linejoin="round"/>
<path d="M306.018 17.88L320.098 4.12L306.018 17.88Z" stroke="white" stroke-width="0.64" stroke-miterlimit="10" stroke-linecap="round" stroke-linejoin="round"/>
<path d="M299.298 19.4801L313.698 5.08008L299.298 19.4801Z" stroke="white" stroke-width="0.64" stroke-miterlimit="10" stroke-linecap="round" stroke-linejoin="round"/>
<path d="M126.818 191.96L141.218 177.56L126.818 191.96Z" stroke="white" stroke-width="0.64" stroke-miterlimit="10" stroke-linecap="round" stroke-linejoin="round"/>
<path d="M127.778 185.56L143.138 170.2L127.778 185.56Z" stroke="white" stroke-width="0.64" stroke-miterlimit="10" stroke-linecap="round" stroke-linejoin="round"/>
<path d="M291.938 21.4L307.298 6.04004L291.938 21.4Z" stroke="white" stroke-width="0.64" stroke-miterlimit="10" stroke-linecap="round" stroke-linejoin="round"/>
<path d="M284.258 23.96L300.578 7.64001L284.258 23.96Z" stroke="white" stroke-width="0.64" stroke-miterlimit="10" stroke-linecap="round" stroke-linejoin="round"/>
<path d="M129.378 178.52L145.698 162.52L129.378 178.52Z" stroke="white" stroke-width="0.64" stroke-miterlimit="10" stroke-linecap="round" stroke-linejoin="round"/>
<path d="M130.978 171.48L148.258 154.2L130.978 171.48Z" stroke="white" stroke-width="0.64" stroke-miterlimit="10" stroke-linecap="round" stroke-linejoin="round"/>
<path d="M275.938 26.84L293.218 9.23999L275.938 26.84Z" stroke="white" stroke-width="0.64" stroke-miterlimit="10" stroke-linecap="round" stroke-linejoin="round"/>
<path d="M266.978 30.36L285.858 11.48L266.978 30.36Z" stroke="white" stroke-width="0.64" stroke-miterlimit="10" stroke-linecap="round" stroke-linejoin="round"/>
<path d="M133.218 164.12L151.778 145.56L133.218 164.12Z" stroke="white" stroke-width="0.64" stroke-miterlimit="10" stroke-linecap="round" stroke-linejoin="round"/>
<path d="M135.778 156.44L156.258 135.64L135.778 156.44Z" stroke="white" stroke-width="0.64" stroke-miterlimit="10" stroke-linecap="round" stroke-linejoin="round"/>
<path d="M257.378 34.52L278.178 14.04L257.378 34.52Z" stroke="white" stroke-width="0.64" stroke-miterlimit="10" stroke-linecap="round" stroke-linejoin="round"/>
<path d="M246.178 40.28L269.538 16.92L246.178 40.28Z" stroke="white" stroke-width="0.64" stroke-miterlimit="10" stroke-linecap="round" stroke-linejoin="round"/>
<path d="M138.658 147.8L162.018 124.44L138.658 147.8Z" stroke="white" stroke-width="0.64" stroke-miterlimit="10" stroke-linecap="round" stroke-linejoin="round"/>
<path d="M142.498 138.84L170.018 111L142.498 138.84Z" stroke="white" stroke-width="0.64" stroke-miterlimit="10" stroke-linecap="round" stroke-linejoin="round"/>
<path d="M232.738 48.6L260.578 20.76L232.738 48.6Z" stroke="white" stroke-width="0.64" stroke-miterlimit="10" stroke-linecap="round" stroke-linejoin="round"/>
<path d="M211.938 63.96L250.658 25.24L211.938 63.96Z" stroke="white" stroke-width="0.64" stroke-miterlimit="10" stroke-linecap="round" stroke-linejoin="round"/>
<path d="M146.978 128.92L185.698 90.2001L146.978 128.92Z" stroke="white" stroke-width="0.64" stroke-miterlimit="10" stroke-linecap="round" stroke-linejoin="round"/>
<path d="M153.058 117.72L239.458 31.3201L153.058 117.72Z" stroke="white" stroke-width="0.64" stroke-miterlimit="10" stroke-linecap="round" stroke-linejoin="round"/>
<path d="M161.378 103.96L225.698 39.64L161.378 103.96Z" stroke="white" stroke-width="0.64" stroke-miterlimit="10" stroke-linecap="round" stroke-linejoin="round"/>
<path d="M177.378 82.52L204.258 55.64L177.378 82.52Z" stroke="white" stroke-width="0.64" stroke-miterlimit="10" stroke-linecap="round" stroke-linejoin="round"/>
</g>
<defs>
<clipPath id="clip0_10_1393">
<rect width="579.218" height="310" fill="white"/>
</clipPath>
</defs>

    <!--    1 A-->
    <g class="group">
    </g>
    <!--    2 D-->
    <g class="group">
        <path d="M184.862 251.145H178.237L185.58 230.971H192.499C194.582 230.971 196.217 231.375 197.404 232.183C198.594 232.984 199.31 234.137 199.553 235.64C199.797 237.138 199.54 238.931 198.78 241.019C198.015 243.12 196.958 244.93 195.609 246.447C194.262 247.957 192.679 249.119 190.859 249.934C189.042 250.741 187.043 251.145 184.862 251.145ZM181.625 248.978H185.483C187.258 248.978 188.847 248.656 190.248 248.013C191.649 247.369 192.853 246.453 193.859 245.265C194.864 244.076 195.666 242.661 196.264 241.019C196.856 239.39 197.084 237.988 196.946 236.813C196.81 235.631 196.294 234.724 195.398 234.094C194.505 233.457 193.22 233.138 191.542 233.138H187.391L181.625 248.978Z" fill="white"/>
        <path d="M245.858 217.24C245.858 217.063 245.715 216.92 245.538 216.92C245.361 216.92 245.218 217.063 245.218 217.24H245.858ZM245.218 268.76C245.218 268.937 245.361 269.08 245.538 269.08C245.715 269.08 245.858 268.937 245.858 268.76H245.218ZM178.237 251.145L177.936 251.036C177.9 251.134 177.915 251.243 177.975 251.329C178.035 251.414 178.132 251.465 178.237 251.465V251.145ZM185.58 230.971V230.651C185.446 230.651 185.326 230.735 185.28 230.862L185.58 230.971ZM197.404 232.183L197.224 232.447L197.226 232.448L197.404 232.183ZM199.553 235.64L199.237 235.691L199.237 235.692L199.553 235.64ZM198.78 241.019L198.479 240.909L198.78 241.019ZM195.609 246.447L195.848 246.66L195.848 246.659L195.609 246.447ZM190.859 249.934L190.989 250.226L190.99 250.226L190.859 249.934ZM181.625 248.978L181.325 248.869C181.289 248.967 181.303 249.076 181.363 249.162C181.423 249.247 181.521 249.298 181.625 249.298V248.978ZM196.264 241.019L195.963 240.909L196.264 241.019ZM196.946 236.813L196.628 236.849L196.628 236.85L196.946 236.813ZM195.398 234.094L195.213 234.354L195.214 234.356L195.398 234.094ZM187.391 233.138V232.818C187.257 232.818 187.137 232.902 187.09 233.029L187.391 233.138ZM245.538 261.08L245.581 261.397C245.739 261.376 245.858 261.24 245.858 261.08C245.858 260.92 245.739 260.784 245.581 260.763L245.538 261.08ZM226.658 263.64L226.386 263.47C226.321 263.576 226.322 263.709 226.389 263.814C226.456 263.918 226.578 263.974 226.701 263.957L226.658 263.64ZM226.658 258.52L226.701 258.203C226.578 258.186 226.456 258.242 226.389 258.346C226.322 258.451 226.321 258.584 226.386 258.69L226.658 258.52ZM124.578 261.08L124.535 260.763C124.376 260.784 124.258 260.92 124.258 261.08C124.258 261.24 124.376 261.376 124.535 261.397L124.578 261.08ZM143.458 258.52L143.714 258.712C143.791 258.609 143.799 258.469 143.734 258.358C143.668 258.247 143.543 258.186 143.415 258.203L143.458 258.52ZM143.458 263.64L143.415 263.957C143.543 263.975 143.668 263.913 143.734 263.802C143.799 263.691 143.791 263.551 143.714 263.448L143.458 263.64ZM245.218 217.24V268.76H245.858V217.24H245.218ZM184.862 250.825H178.237V251.465H184.862V250.825ZM178.538 251.255L185.881 231.081L185.28 230.862L177.936 251.036L178.538 251.255ZM185.58 231.291H192.499V230.651H185.58V231.291ZM192.499 231.291C194.545 231.291 196.109 231.689 197.224 232.447L197.584 231.918C196.325 231.062 194.618 230.651 192.499 230.651V231.291ZM197.226 232.448C198.337 233.197 199.008 234.269 199.237 235.691L199.869 235.59C199.613 234.004 198.851 232.771 197.583 231.917L197.226 232.448ZM199.237 235.692C199.47 237.116 199.228 238.85 198.479 240.909L199.08 241.128C199.851 239.011 200.125 237.16 199.868 235.589L199.237 235.692ZM198.479 240.909C197.726 242.977 196.689 244.75 195.37 246.234L195.848 246.659C197.226 245.109 198.303 243.264 199.08 241.128L198.479 240.909ZM195.37 246.234C194.053 247.711 192.506 248.846 190.728 249.642L190.99 250.226C192.852 249.393 194.472 248.203 195.848 246.66L195.37 246.234ZM190.729 249.641C188.956 250.429 187.002 250.825 184.862 250.825V251.465C187.083 251.465 189.127 251.054 190.989 250.226L190.729 249.641ZM181.625 249.298H185.483V248.658H181.625V249.298ZM185.483 249.298C187.297 249.298 188.932 248.969 190.381 248.304L190.114 247.722C188.761 248.344 187.219 248.658 185.483 248.658V249.298ZM190.381 248.304C191.826 247.64 193.067 246.695 194.103 245.471L193.614 245.058C192.639 246.211 191.473 247.098 190.114 247.722L190.381 248.304ZM194.103 245.471C195.136 244.25 195.955 242.801 196.564 241.128L195.963 240.909C195.377 242.52 194.593 243.901 193.614 245.058L194.103 245.471ZM196.564 241.128C197.167 239.473 197.409 238.018 197.263 236.775L196.628 236.85C196.758 237.958 196.546 239.308 195.963 240.909L196.564 241.128ZM197.263 236.776C197.118 235.512 196.56 234.52 195.582 233.832L195.214 234.356C196.028 234.929 196.501 235.749 196.628 236.849L197.263 236.776ZM195.584 233.833C194.615 233.142 193.253 232.818 191.542 232.818V233.458C193.186 233.458 194.395 233.772 195.213 234.354L195.584 233.833ZM191.542 232.818H187.391V233.458H191.542V232.818ZM187.09 233.029L181.325 248.869L181.926 249.088L187.692 233.248L187.09 233.029ZM245.495 260.763L226.615 263.323L226.701 263.957L245.581 261.397L245.495 260.763ZM226.929 263.81L228.529 261.25L227.986 260.91L226.386 263.47L226.929 263.81ZM228.529 260.91L226.929 258.35L226.386 258.69L227.986 261.25L228.529 260.91ZM226.615 258.837L245.495 261.397L245.581 260.763L226.701 258.203L226.615 258.837ZM228.258 261.4H245.538V260.76H228.258V261.4ZM228.258 261.72H243.298V261.08H228.258V261.72ZM227.938 262.04H241.058V261.4H227.938V262.04ZM227.938 262.36H238.498V261.72H227.938V262.36ZM227.618 262.68H236.258V262.04H227.618V262.68ZM227.298 263H234.018V262.36H227.298V263ZM227.298 263.32H231.458V262.68H227.298V263.32ZM226.978 263.64H229.218V263H226.978V263.64ZM226.978 259.16H229.218V258.52H226.978V259.16ZM227.298 259.48H231.458V258.84H227.298V259.48ZM227.298 259.8H234.018V259.16H227.298V259.8ZM227.618 260.12H236.258V259.48H227.618V260.12ZM227.938 260.44H238.498V259.8H227.938V260.44ZM227.938 260.76H241.058V260.12H227.938V260.76ZM228.258 261.08H243.298V260.44H228.258V261.08ZM124.621 261.397L143.501 258.837L143.415 258.203L124.535 260.763L124.621 261.397ZM143.202 258.328L141.282 260.888L141.794 261.272L143.714 258.712L143.202 258.328ZM141.282 261.272L143.202 263.832L143.714 263.448L141.794 260.888L141.282 261.272ZM143.501 263.323L124.621 260.763L124.535 261.397L143.415 263.957L143.501 263.323ZM141.218 259.16H143.458V258.52H141.218V259.16ZM138.978 259.48H143.138V258.84H138.978V259.48ZM136.418 259.8H142.818V259.16H136.418V259.8ZM134.178 260.12H142.498V259.48H134.178V260.12ZM131.938 260.44H142.498V259.8H131.938V260.44ZM129.378 260.76H142.178V260.12H129.378V260.76ZM127.138 261.08H141.858V260.44H127.138V261.08ZM124.578 261.4H141.538V260.76H124.578V261.4ZM127.138 261.72H141.858V261.08H127.138V261.72ZM129.378 262.04H142.178V261.4H129.378V262.04ZM131.938 262.36H142.498V261.72H131.938V262.36ZM134.178 262.68H142.498V262.04H134.178V262.68ZM136.418 263H142.818V262.36H136.418V263ZM138.978 263.32H143.138V262.68H138.978V263.32ZM141.218 263.64H143.458V263H141.218V263.64ZM245.538 260.76L124.578 260.76L124.578 261.4L245.538 261.4L245.538 260.76Z" fill="white"/>
    </g>
    <!--    3 Dy-->
    <g class="group">
    </g>
    <!--    4 Dh-->
    <g class="group">
    </g>
    <!--    5 D1-->
    <g class="group">
    </g>
    <!--   6 D2-->
    <g class="group">
    </g>
    <!--   7 d-->
    <g class="group">
    </g>
    <!--    8 dH-->
    <g class="group">
    </g>
    <!--    9 d1-->
    <g class="group">
    </g>
    <!--    10 d2-->
    <g class="group">
    </g>
    <!--    11 L-->
    <g class="group">
        <path d="M345.786 291.546L353.129 271.372H355.729L349.175 289.379H359.154L358.365 291.546H345.786Z" fill="white"/>
        <path d="M124.898 217.24C124.898 217.063 124.755 216.92 124.578 216.92C124.401 216.92 124.258 217.063 124.258 217.24H124.898ZM124.258 268.76C124.258 268.937 124.401 269.08 124.578 269.08C124.755 269.08 124.898 268.937 124.898 268.76H124.258ZM124.258 309.08C124.258 309.257 124.401 309.4 124.578 309.4C124.755 309.4 124.898 309.257 124.898 309.08H124.258ZM578.338 217.24C578.338 217.063 578.195 216.92 578.018 216.92C577.841 216.92 577.698 217.063 577.698 217.24H578.338ZM577.698 309.08C577.698 309.257 577.841 309.4 578.018 309.4C578.195 309.4 578.338 309.257 578.338 309.08H577.698ZM345.786 291.546L345.485 291.437C345.45 291.535 345.464 291.644 345.524 291.73C345.584 291.815 345.682 291.866 345.786 291.866V291.546ZM353.129 271.372V271.052C352.995 271.052 352.875 271.136 352.829 271.262L353.129 271.372ZM355.729 271.372L356.03 271.481C356.066 271.383 356.051 271.274 355.991 271.188C355.931 271.103 355.834 271.052 355.729 271.052V271.372ZM349.175 289.379L348.874 289.269C348.838 289.367 348.853 289.477 348.912 289.562C348.972 289.648 349.07 289.699 349.175 289.699V289.379ZM359.154 289.379L359.455 289.488C359.491 289.39 359.476 289.281 359.416 289.195C359.357 289.11 359.259 289.059 359.154 289.059V289.379ZM358.365 291.546V291.866C358.5 291.866 358.62 291.782 358.666 291.655L358.365 291.546ZM124.578 301.4L124.54 301.082C124.38 301.101 124.259 301.236 124.258 301.397C124.257 301.558 124.375 301.695 124.535 301.717L124.578 301.4ZM143.458 299.16L143.701 299.368C143.787 299.268 143.802 299.126 143.74 299.009C143.678 298.893 143.551 298.827 143.42 298.842L143.458 299.16ZM143.458 303.96L143.415 304.277C143.543 304.294 143.668 304.233 143.734 304.122C143.799 304.011 143.791 303.871 143.714 303.768L143.458 303.96ZM578.018 301.4L578.061 301.717C578.22 301.695 578.339 301.558 578.338 301.397C578.336 301.236 578.215 301.101 578.055 301.082L578.018 301.4ZM559.138 303.96L558.882 303.768C558.804 303.871 558.796 304.011 558.862 304.122C558.927 304.233 559.053 304.294 559.181 304.277L559.138 303.96ZM559.138 299.16L559.175 298.842C559.044 298.827 558.917 298.893 558.855 299.009C558.793 299.126 558.809 299.268 558.895 299.368L559.138 299.16ZM124.258 217.24V268.76H124.898V217.24H124.258ZM124.258 217.24V309.08H124.898V217.24H124.258ZM577.698 217.24V309.08H578.338V217.24H577.698ZM346.087 291.655L353.43 271.481L352.829 271.262L345.485 291.437L346.087 291.655ZM353.129 271.692H355.729V271.052H353.129V271.692ZM355.428 271.262L348.874 289.269L349.475 289.488L356.03 271.481L355.428 271.262ZM349.175 289.699H359.154V289.059H349.175V289.699ZM358.854 289.269L358.065 291.437L358.666 291.655L359.455 289.488L358.854 289.269ZM358.365 291.226H345.786V291.866H358.365V291.226ZM124.616 301.718L143.496 299.478L143.42 298.842L124.54 301.082L124.616 301.718ZM143.215 298.952L141.295 301.192L141.781 301.608L143.701 299.368L143.215 298.952ZM141.282 301.592L143.202 304.152L143.714 303.768L141.794 301.208L141.282 301.592ZM143.501 303.643L124.621 301.083L124.535 301.717L143.415 304.277L143.501 303.643ZM140.898 299.8H143.458V299.16H140.898V299.8ZM138.338 300.12H143.138V299.48H138.338V300.12ZM135.458 300.44H142.818V299.8H135.458V300.44ZM132.898 300.76H142.498V300.12H132.898V300.76ZM130.018 301.08H142.178V300.44H130.018V301.08ZM127.458 301.4H141.858V300.76H127.458V301.4ZM124.578 301.72H141.538V301.08H124.578V301.72ZM127.138 302.04H141.858V301.4H127.138V302.04ZM129.378 302.36H142.178V301.72H129.378V302.36ZM131.938 302.68H142.498V302.04H131.938V302.68ZM134.178 303H142.498V302.36H134.178V303ZM136.418 303.32H142.818V302.68H136.418V303.32ZM138.978 303.64H143.138V303H138.978V303.64ZM141.218 303.96H143.458V303.32H141.218V303.96ZM577.975 301.083L559.095 303.643L559.181 304.277L578.061 301.717L577.975 301.083ZM559.394 304.152L561.314 301.592L560.802 301.208L558.882 303.768L559.394 304.152ZM561.301 301.192L559.381 298.952L558.895 299.368L560.815 301.608L561.301 301.192ZM559.1 299.478L577.98 301.718L578.055 301.082L559.175 298.842L559.1 299.478ZM561.058 301.72H578.018V301.08H561.058V301.72ZM561.058 302.04H575.778V301.4H561.058V302.04ZM560.738 302.36H573.538V301.72H560.738V302.36ZM560.418 302.68H570.978V302.04H560.418V302.68ZM560.098 303H568.738V302.36H560.098V303ZM560.098 303.32H566.498V302.68H560.098V303.32ZM559.778 303.64H563.938V303H559.778V303.64ZM559.458 303.96H561.698V303.32H559.458V303.96ZM559.458 299.8H562.018V299.16H559.458V299.8ZM559.778 300.12H564.578V299.48H559.778V300.12ZM560.098 300.44H567.458V299.8H560.098V300.44ZM560.418 300.76H570.018V300.12H560.418V300.76ZM560.738 301.08H572.898V300.44H560.738V301.08ZM561.058 301.4H575.458V300.76H561.058V301.4ZM124.578 301.72L578.018 301.72L578.018 301.08L124.578 301.08L124.578 301.72Z" fill="white"/>
    </g>
    <!--    12 L1-->
    <g class="group">
    </g>
    <!--    13 L2-->
    <g class="group">
    </g>
    <!--    14 S-->
    <g class="group">
        <path d="M514.884 236.015C515.121 235.017 514.893 234.242 514.199 233.69C513.506 233.138 512.509 232.863 511.209 232.863C510.259 232.863 509.374 233.007 508.556 233.296C507.745 233.585 507.049 233.982 506.466 234.488C505.891 234.994 505.486 235.568 505.252 236.212C505.056 236.75 505.023 237.213 505.155 237.601C505.296 237.982 505.536 238.3 505.876 238.556C506.219 238.806 506.598 239.013 507.013 239.177C507.431 239.334 507.821 239.462 508.184 239.561L510.163 240.113C510.672 240.251 511.225 240.441 511.821 240.684C512.425 240.927 512.965 241.259 513.441 241.679C513.926 242.093 514.256 242.625 514.432 243.275C514.608 243.925 514.523 244.723 514.179 245.668C513.782 246.759 513.12 247.744 512.192 248.624C511.27 249.504 510.135 250.203 508.786 250.722C507.444 251.241 505.948 251.5 504.299 251.5C502.762 251.5 501.515 251.267 500.56 250.801C499.611 250.334 498.967 249.684 498.628 248.85C498.296 248.016 498.288 247.047 498.606 245.944H501.29C501.082 246.706 501.125 247.336 501.419 247.836C501.722 248.328 502.196 248.696 502.841 248.939C503.496 249.175 504.25 249.293 505.102 249.293C506.095 249.293 507.041 249.142 507.94 248.84C508.843 248.532 509.623 248.105 510.283 247.56C510.945 247.008 511.41 246.365 511.678 245.629C511.922 244.959 511.921 244.414 511.675 243.994C511.43 243.573 511.03 243.232 510.476 242.969C509.922 242.707 509.303 242.477 508.62 242.28L506.236 241.571C504.724 241.117 503.632 240.471 502.959 239.63C502.287 238.789 502.198 237.689 502.693 236.33C503.104 235.2 503.787 234.215 504.743 233.375C505.709 232.528 506.828 231.871 508.102 231.405C509.385 230.932 510.712 230.695 512.082 230.695C513.465 230.695 514.611 230.929 515.517 231.395C516.426 231.854 517.049 232.485 517.387 233.286C517.731 234.087 517.735 234.997 517.4 236.015H514.884Z" fill="white"/>
        <path d="M468.578 217.24C468.578 217.063 468.435 216.92 468.258 216.92C468.081 216.92 467.938 217.063 467.938 217.24H468.578ZM467.938 268.76C467.938 268.937 468.081 269.08 468.258 269.08C468.435 269.08 468.578 268.937 468.578 268.76H467.938ZM457.378 217.24C457.378 217.063 457.235 216.92 457.058 216.92C456.881 216.92 456.738 217.063 456.738 217.24H457.378ZM456.738 268.76C456.738 268.937 456.881 269.08 457.058 269.08C457.235 269.08 457.378 268.937 457.378 268.76H456.738ZM521.378 261.4C521.554 261.4 521.698 261.257 521.698 261.08C521.698 260.903 521.554 260.76 521.378 260.76V261.4ZM514.884 236.015L514.572 235.941C514.55 236.036 514.572 236.136 514.633 236.213C514.693 236.29 514.786 236.335 514.884 236.335V236.015ZM514.199 233.69L514 233.94L514 233.94L514.199 233.69ZM508.556 233.296L508.45 232.994L508.449 232.995L508.556 233.296ZM506.466 234.488L506.256 234.246L506.255 234.248L506.466 234.488ZM505.252 236.212L505.552 236.321L505.252 236.212ZM505.155 237.601L504.852 237.704L504.855 237.712L505.155 237.601ZM505.876 238.556L505.684 238.812L505.688 238.815L505.876 238.556ZM507.013 239.177L506.896 239.474L506.9 239.476L507.013 239.177ZM508.184 239.561L508.27 239.253L508.268 239.252L508.184 239.561ZM510.163 240.113L510.077 240.421L510.08 240.421L510.163 240.113ZM511.821 240.684L511.701 240.98L511.702 240.981L511.821 240.684ZM513.441 241.679L513.229 241.919L513.233 241.922L513.441 241.679ZM514.432 243.275L514.741 243.191L514.741 243.191L514.432 243.275ZM514.179 245.668L514.48 245.778L514.179 245.668ZM512.192 248.624L511.971 248.391L511.971 248.392L512.192 248.624ZM508.786 250.722L508.671 250.423L508.671 250.423L508.786 250.722ZM500.56 250.801L500.419 251.088L500.419 251.088L500.56 250.801ZM498.628 248.85L498.331 248.969L498.332 248.971L498.628 248.85ZM498.606 245.944V245.624C498.463 245.624 498.338 245.719 498.299 245.856L498.606 245.944ZM501.29 245.944L501.598 246.028C501.625 245.932 501.604 245.829 501.544 245.75C501.483 245.671 501.389 245.624 501.29 245.624V245.944ZM501.419 247.836L501.143 247.998L501.146 248.003L501.419 247.836ZM502.841 248.939L502.729 249.238L502.733 249.24L502.841 248.939ZM507.94 248.84L508.042 249.144L508.044 249.143L507.94 248.84ZM510.283 247.56L510.487 247.806L510.488 247.806L510.283 247.56ZM511.678 245.629L511.978 245.738L511.678 245.629ZM511.675 243.994L511.952 243.832L511.952 243.832L511.675 243.994ZM510.476 242.969L510.339 243.258L510.339 243.258L510.476 242.969ZM508.62 242.28L508.528 242.586L508.531 242.587L508.62 242.28ZM506.236 241.571L506.144 241.877L506.145 241.877L506.236 241.571ZM502.959 239.63L502.709 239.83L502.709 239.83L502.959 239.63ZM502.693 236.33L502.392 236.221L502.392 236.221L502.693 236.33ZM504.743 233.375L504.532 233.134L504.532 233.134L504.743 233.375ZM508.102 231.405L508.212 231.705L508.213 231.705L508.102 231.405ZM515.517 231.395L515.371 231.679L515.373 231.68L515.517 231.395ZM517.387 233.286L517.092 233.41L517.093 233.412L517.387 233.286ZM517.4 236.015V236.335C517.538 236.335 517.66 236.246 517.704 236.115L517.4 236.015ZM487.138 263.64L487.095 263.957C487.218 263.974 487.339 263.918 487.407 263.814C487.474 263.709 487.475 263.576 487.409 263.47L487.138 263.64ZM487.138 258.52L487.409 258.69C487.475 258.584 487.474 258.451 487.407 258.346C487.339 258.242 487.218 258.186 487.095 258.203L487.138 258.52ZM494.818 261.4C494.995 261.4 495.138 261.257 495.138 261.08C495.138 260.903 494.995 260.76 494.818 260.76V261.4ZM438.178 258.52L438.221 258.203C438.093 258.186 437.967 258.247 437.902 258.358C437.836 258.469 437.844 258.609 437.922 258.712L438.178 258.52ZM438.178 263.64L437.922 263.448C437.844 263.551 437.836 263.691 437.902 263.802C437.967 263.913 438.093 263.975 438.221 263.957L438.178 263.64ZM430.498 260.76C430.321 260.76 430.178 260.903 430.178 261.08C430.178 261.257 430.321 261.4 430.498 261.4L430.498 260.76ZM467.938 217.24V268.76H468.578V217.24H467.938ZM456.738 217.24V268.76H457.378V217.24H456.738ZM515.195 236.089C515.323 235.55 515.331 235.048 515.198 234.595C515.063 234.138 514.792 233.752 514.399 233.44L514 233.94C514.301 234.179 514.49 234.457 514.584 234.775C514.678 235.097 514.682 235.481 514.572 235.941L515.195 236.089ZM514.399 233.44C513.627 232.826 512.549 232.543 511.209 232.543V233.183C512.469 233.183 513.384 233.451 514 233.94L514.399 233.44ZM511.209 232.543C510.226 232.543 509.305 232.692 508.45 232.994L508.663 233.598C509.444 233.322 510.291 233.183 511.209 233.183V232.543ZM508.449 232.995C507.605 233.295 506.872 233.712 506.256 234.246L506.676 234.73C507.225 234.253 507.886 233.875 508.664 233.597L508.449 232.995ZM506.255 234.248C505.644 234.784 505.206 235.403 504.951 236.102L505.552 236.321C505.766 235.734 506.137 235.203 506.677 234.728L506.255 234.248ZM504.951 236.102C504.74 236.682 504.689 237.224 504.852 237.704L505.458 237.498C505.358 237.202 505.371 236.818 505.552 236.321L504.951 236.102ZM504.855 237.712C505.018 238.153 505.297 238.521 505.684 238.812L506.069 238.301C505.775 238.079 505.574 237.81 505.455 237.49L504.855 237.712ZM505.688 238.815C506.053 239.081 506.456 239.301 506.896 239.474L507.131 238.879C506.739 238.724 506.384 238.53 506.065 238.298L505.688 238.815ZM506.9 239.476C507.326 239.637 507.726 239.768 508.1 239.87L508.268 239.252C507.917 239.157 507.536 239.032 507.126 238.877L506.9 239.476ZM508.098 239.869L510.077 240.421L510.249 239.804L508.27 239.253L508.098 239.869ZM510.08 240.421C510.574 240.555 511.114 240.741 511.701 240.98L511.942 240.388C511.336 240.141 510.771 239.946 510.247 239.804L510.08 240.421ZM511.702 240.981C512.272 241.211 512.781 241.523 513.229 241.919L513.652 241.439C513.148 240.994 512.577 240.643 511.941 240.387L511.702 240.981ZM513.233 241.922C513.666 242.292 513.963 242.767 514.123 243.358L514.741 243.191C514.549 242.482 514.185 241.893 513.648 241.435L513.233 241.922ZM514.123 243.358C514.275 243.92 514.211 244.646 513.879 245.559L514.48 245.778C514.836 244.799 514.94 243.929 514.741 243.191L514.123 243.358ZM513.879 245.559C513.5 246.598 512.867 247.542 511.971 248.391L512.412 248.856C513.372 247.945 514.065 246.919 514.48 245.778L513.879 245.559ZM511.971 248.392C511.084 249.239 509.986 249.917 508.671 250.423L508.901 251.02C510.284 250.488 511.457 249.768 512.413 248.855L511.971 248.392ZM508.671 250.423C507.371 250.926 505.915 251.18 504.299 251.18V251.82C505.982 251.82 507.518 251.555 508.901 251.02L508.671 250.423ZM504.299 251.18C502.79 251.18 501.597 250.951 500.7 250.513L500.419 251.088C501.434 251.583 502.733 251.82 504.299 251.82V251.18ZM500.701 250.513C499.81 250.075 499.229 249.479 498.924 248.73L498.332 248.971C498.706 249.89 499.413 250.593 500.419 251.088L500.701 250.513ZM498.925 248.732C498.626 247.98 498.61 247.087 498.914 246.033L498.299 245.856C497.967 247.008 497.966 248.052 498.331 248.969L498.925 248.732ZM498.606 246.264H501.29V245.624H498.606V246.264ZM500.981 245.86C500.759 246.674 500.792 247.401 501.143 247.998L501.695 247.673C501.459 247.272 501.405 246.738 501.598 246.028L500.981 245.86ZM501.146 248.003C501.493 248.567 502.03 248.975 502.729 249.238L502.954 248.639C502.362 248.416 501.95 248.089 501.691 247.668L501.146 248.003ZM502.733 249.24C503.429 249.491 504.221 249.613 505.102 249.613V248.973C504.279 248.973 503.563 248.859 502.95 248.638L502.733 249.24ZM505.102 249.613C506.128 249.613 507.108 249.457 508.042 249.144L507.839 248.537C506.973 248.828 506.062 248.973 505.102 248.973V249.613ZM508.044 249.143C508.978 248.823 509.794 248.379 510.487 247.806L510.079 247.313C509.453 247.831 508.707 248.24 507.837 248.538L508.044 249.143ZM510.488 247.806C511.189 247.221 511.689 246.532 511.978 245.738L511.377 245.52C511.131 246.197 510.701 246.795 510.078 247.314L510.488 247.806ZM511.978 245.738C512.239 245.022 512.264 244.367 511.952 243.832L511.399 244.155C511.577 244.461 511.604 244.896 511.377 245.52L511.978 245.738ZM511.952 243.832C511.666 243.344 511.21 242.963 510.613 242.68L510.339 243.258C510.85 243.501 511.194 243.803 511.399 244.155L511.952 243.832ZM510.613 242.68C510.041 242.409 509.406 242.173 508.708 241.972L508.531 242.587C509.2 242.78 509.802 243.004 510.339 243.258L510.613 242.68ZM508.711 241.973L506.327 241.264L506.145 241.877L508.529 242.586L508.711 241.973ZM506.328 241.264C504.85 240.821 503.826 240.201 503.209 239.43L502.709 239.83C503.437 240.74 504.597 241.414 506.144 241.877L506.328 241.264ZM503.209 239.43C502.63 238.706 502.522 237.734 502.993 236.439L502.392 236.221C501.874 237.644 501.944 238.873 502.709 239.83L503.209 239.43ZM502.993 236.439C503.385 235.363 504.036 234.422 504.955 233.615L504.532 233.134C503.538 234.008 502.823 235.038 502.392 236.221L502.993 236.439ZM504.954 233.615C505.888 232.796 506.973 232.159 508.212 231.705L507.992 231.104C506.683 231.583 505.529 232.26 504.532 233.134L504.954 233.615ZM508.213 231.705C509.461 231.245 510.75 231.015 512.082 231.015V230.375C510.674 230.375 509.31 230.618 507.991 231.104L508.213 231.705ZM512.082 231.015C513.432 231.015 514.523 231.243 515.371 231.679L515.663 231.11C514.698 230.614 513.499 230.375 512.082 230.375V231.015ZM515.373 231.68C516.226 232.112 516.789 232.691 517.092 233.41L517.681 233.162C517.31 232.279 516.626 231.597 515.662 231.109L515.373 231.68ZM517.093 233.412C517.399 234.126 517.413 234.953 517.096 235.915L517.704 236.115C518.058 235.041 518.062 234.048 517.681 233.16L517.093 233.412ZM517.4 235.695H514.884V236.335H517.4V235.695ZM468.215 261.397L487.095 263.957L487.181 263.323L468.301 260.763L468.215 261.397ZM487.409 263.47L485.809 260.91L485.266 261.25L486.866 263.81L487.409 263.47ZM485.809 261.25L487.409 258.69L486.866 258.35L485.266 260.91L485.809 261.25ZM487.095 258.203L468.215 260.763L468.301 261.397L487.181 258.837L487.095 258.203ZM468.258 261.4H494.818V260.76H468.258V261.4ZM468.258 261.4H485.538V260.76H468.258V261.4ZM470.818 261.72H485.858V261.08H470.818V261.72ZM473.058 262.04H486.178V261.4H473.058V262.04ZM475.618 262.36H486.178V261.72H475.618V262.36ZM477.858 262.68H486.498V262.04H477.858V262.68ZM480.098 263H486.818V262.36H480.098V263ZM482.658 263.32H486.818V262.68H482.658V263.32ZM484.898 263.64H487.138V263H484.898V263.64ZM484.898 259.16H487.138V258.52H484.898V259.16ZM482.658 259.48H486.818V258.84H482.658V259.48ZM480.098 259.8H486.818V259.16H480.098V259.8ZM477.858 260.12H486.498V259.48H477.858V260.12ZM475.618 260.44H486.178V259.8H475.618V260.44ZM473.058 260.76H486.178V260.12H473.058V260.76ZM470.818 261.08H485.858V260.44H470.818V261.08ZM457.101 260.763L438.221 258.203L438.135 258.837L457.015 261.397L457.101 260.763ZM437.922 258.712L439.842 261.272L440.354 260.888L438.434 258.328L437.922 258.712ZM439.842 260.888L437.922 263.448L438.434 263.832L440.354 261.272L439.842 260.888ZM438.221 263.957L457.101 261.397L457.015 260.763L438.135 263.323L438.221 263.957ZM457.058 260.76L430.498 260.76L430.498 261.4L457.058 261.4L457.058 260.76ZM438.498 259.16H440.738V258.52H438.498V259.16ZM438.818 259.48H442.978V258.84H438.818V259.48ZM439.138 259.8H445.538V259.16H439.138V259.8ZM439.138 260.12H447.778V259.48H439.138V260.12ZM439.458 260.44H450.018V259.8H439.458V260.44ZM439.778 260.76H452.578V260.12H439.778V260.76ZM440.098 261.08H454.818V260.44H440.098V261.08ZM440.098 261.4H457.058V260.76H440.098V261.4ZM440.098 261.72H454.818V261.08H440.098V261.72ZM439.778 262.04H452.578V261.4H439.778V262.04ZM439.458 262.36H450.018V261.72H439.458V262.36ZM439.138 262.68H447.778V262.04H439.138V262.68ZM439.138 263H445.538V262.36H439.138V263ZM438.818 263.32H442.978V262.68H438.818V263.32ZM438.498 263.64H440.738V263H438.498V263.64ZM468.258 260.76L457.058 260.76L457.058 261.4L468.258 261.4L468.258 260.76ZM468.258 261.4H521.378V260.76H468.258V261.4Z" fill="white"/>
    </g>
    <!--    15 S1-->
    <g class="group">
    </g>
    <!--    16 S2-->
    <g class="group">
    </g>
    <!--    17 S3-->
    <g class="group">
    </g>
    <!--    18 S4-->
    <g class="group">
    </g>
    <!--    19 I-->
    <g class="group">
    </g>
    <!--    20 I1-->
    <g class="group">
    </g>
    <!--    21 I2-->
    <g class="group">
    </g>
    <!--    22 H-->
    <g class="group">
        <path d="M27.2508 119.288L7.07666 111.944V99.0713L9.24381 99.8602V110.133L16.0605 112.615V103.306L18.2276 104.095V113.404L27.2508 116.688V119.288Z" fill="white"/>
        <path d="M101.858 217.56C102.035 217.56 102.178 217.417 102.178 217.24C102.178 217.063 102.035 216.92 101.858 216.92V217.56ZM29.5378 216.92C29.3611 216.92 29.2178 217.063 29.2178 217.24C29.2178 217.417 29.3611 217.56 29.5378 217.56V216.92ZM101.858 9.88006C102.035 9.88006 102.178 9.73679 102.178 9.56006C102.178 9.38333 102.035 9.24006 101.858 9.24006V9.88006ZM29.5378 9.24006C29.3611 9.24006 29.2178 9.38333 29.2178 9.56006C29.2178 9.73679 29.3611 9.88006 29.5378 9.88006V9.24006ZM27.2508 119.288L27.1414 119.588C27.2395 119.624 27.3488 119.61 27.4344 119.55C27.5199 119.49 27.5708 119.392 27.5708 119.288H27.2508ZM7.07666 111.944H6.75666C6.75666 112.079 6.8408 112.199 6.96721 112.245L7.07666 111.944ZM7.07666 99.0713L7.18611 98.7706C7.08801 98.7349 6.97864 98.7493 6.89312 98.8092C6.80759 98.8691 6.75666 98.9669 6.75666 99.0713H7.07666ZM9.24381 99.8602H9.56381C9.56381 99.7256 9.47967 99.6055 9.35326 99.5595L9.24381 99.8602ZM9.24381 110.133H8.92381C8.92381 110.268 9.00794 110.388 9.13435 110.434L9.24381 110.133ZM16.0605 112.615L15.951 112.915C16.0491 112.951 16.1585 112.937 16.244 112.877C16.3295 112.817 16.3805 112.719 16.3805 112.615H16.0605ZM16.0605 103.306L16.1699 103.005C16.0718 102.969 15.9624 102.984 15.8769 103.044C15.7914 103.104 15.7405 103.201 15.7405 103.306H16.0605ZM18.2276 104.095H18.5476C18.5476 103.96 18.4635 103.84 18.3371 103.794L18.2276 104.095ZM18.2276 113.404H17.9076C17.9076 113.538 17.9917 113.658 18.1182 113.704L18.2276 113.404ZM27.2508 116.688H27.5708C27.5708 116.553 27.4867 116.433 27.3603 116.387L27.2508 116.688ZM37.2178 217.24L36.9007 217.283C36.9222 217.442 37.0577 217.56 37.2178 217.56C37.3779 217.56 37.5134 217.442 37.5349 217.283L37.2178 217.24ZM34.6578 198.36L34.8498 198.104C34.7466 198.027 34.607 198.019 34.4958 198.084C34.3845 198.15 34.3234 198.275 34.3407 198.403L34.6578 198.36ZM37.2178 200.28L37.2178 200.6L37.2178 200.6L37.2178 200.28ZM39.7778 198.36L40.0949 198.403C40.1122 198.275 40.0511 198.15 39.9398 198.084C39.8286 198.019 39.689 198.027 39.5858 198.104L39.7778 198.36ZM37.2178 9.56006L37.5349 9.51706C37.5133 9.3584 37.3779 9.24006 37.2178 9.24006C37.0576 9.24006 36.9222 9.3584 36.9007 9.51706L37.2178 9.56006ZM39.7778 28.4401L39.5858 28.6961C39.689 28.7735 39.8286 28.7813 39.9398 28.716C40.0511 28.6507 40.1122 28.5249 40.0949 28.3971L39.7778 28.4401ZM34.6578 28.44L34.3407 28.397C34.3234 28.5249 34.3845 28.6506 34.4958 28.716C34.607 28.7813 34.7466 28.7734 34.8498 28.696L34.6578 28.44ZM101.858 216.92H29.5378V217.56H101.858V216.92ZM101.858 9.24006H29.5378V9.88006H101.858V9.24006ZM27.3603 118.987L7.18611 111.644L6.96721 112.245L27.1414 119.588L27.3603 118.987ZM7.39666 111.944V99.0713H6.75666V111.944H7.39666ZM6.96721 99.372L9.13435 100.161L9.35326 99.5595L7.18611 98.7706L6.96721 99.372ZM8.92381 99.8602V110.133H9.56381V99.8602H8.92381ZM9.13435 110.434L15.951 112.915L16.1699 112.314L9.35326 109.833L9.13435 110.434ZM16.3805 112.615V103.306H15.7405V112.615H16.3805ZM15.951 103.607L18.1182 104.395L18.3371 103.794L16.1699 103.005L15.951 103.607ZM17.9076 104.095V113.404H18.5476V104.095H17.9076ZM18.1182 113.704L27.1414 116.989L27.3603 116.387L18.3371 113.103L18.1182 113.704ZM26.9308 116.688V119.288H27.5708V116.688H26.9308ZM37.5349 217.197L34.9749 198.317L34.3407 198.403L36.9007 217.283L37.5349 217.197ZM34.4658 198.616L37.0258 200.536L37.4098 200.024L34.8498 198.104L34.4658 198.616ZM37.4098 200.536L39.9698 198.616L39.5858 198.104L37.0258 200.024L37.4098 200.536ZM39.4607 198.317L36.9007 217.197L37.5349 217.283L40.0949 198.403L39.4607 198.317ZM34.9778 199H35.2978V198.36H34.9778V199ZM34.9778 199.32H35.6178V198.68H34.9778V199.32ZM34.9778 199.64H35.9378V199H34.9778V199.64ZM34.9778 199.96H36.5778V199.32H34.9778V199.96ZM34.9778 200.28H36.8978V199.64H34.9778V200.28ZM34.9778 200.6L37.2178 200.6L37.2178 199.96L34.9778 199.96L34.9778 200.6ZM39.4578 199H39.7778V198.36H39.4578V199ZM39.1378 199.32H39.7778V198.68H39.1378V199.32ZM38.4978 199.64H39.7778V199H38.4978V199.64ZM38.1778 199.96H39.7778V199.32H38.1778V199.96ZM37.8578 200.28H39.7778V199.64H37.8578V200.28ZM37.2178 200.6L39.7778 200.6L39.7778 199.96L37.2178 199.96L37.2178 200.6ZM37.2178 215.32H37.5378V214.68H37.2178V215.32ZM37.2178 215.64H37.5378V215H37.2178V215.64ZM37.2178 215.96H37.5378V215.32H37.2178V215.96ZM37.2178 216.28H37.5378V215.64H37.2178V216.28ZM37.2178 216.6H37.5378V215.96H37.2178V216.6ZM37.2178 216.92H37.5378V216.28H37.2178V216.92ZM37.2178 217.24H37.5378V216.6H37.2178V217.24ZM36.9007 9.60305L39.4607 28.4831L40.0949 28.3971L37.5349 9.51706L36.9007 9.60305ZM39.9698 28.1841L37.4098 26.264L37.0258 26.776L39.5858 28.6961L39.9698 28.1841ZM37.0258 26.264L34.4658 28.184L34.8498 28.696L37.4098 26.776L37.0258 26.264ZM34.9749 28.483L37.5349 9.60305L36.9007 9.51706L34.3407 28.397L34.9749 28.483ZM37.2178 10.2H37.5378V9.56H37.2178V10.2ZM37.2178 10.52H37.5378V9.88H37.2178V10.52ZM37.2178 10.84H37.5378V10.2H37.2178V10.84ZM37.2178 11.16H37.5378V10.52H37.2178V11.16ZM37.2178 11.48H37.5378V10.84H37.2178V11.48ZM37.2178 11.8H37.5378V11.16H37.2178V11.8ZM37.2178 12.12H37.5378V11.48H37.2178V12.12ZM37.2178 26.84L39.7778 26.84L39.7778 26.2L37.2178 26.2L37.2178 26.84ZM37.8578 27.16H39.7778V26.52H37.8578V27.16ZM38.1778 27.48H39.7778V26.84H38.1778V27.48ZM38.4978 27.8H39.7778V27.16H38.4978V27.8ZM39.1378 28.12H39.7778V27.48H39.1378V28.12ZM39.4578 28.44H39.7778V27.8H39.4578V28.44ZM34.9778 26.84L37.2178 26.84L37.2178 26.2L34.9778 26.2L34.9778 26.84ZM34.9778 27.16H36.8978V26.52H34.9778V27.16ZM34.9778 27.48H36.5778V26.84H34.9778V27.48ZM34.9778 27.8H35.9378V27.16H34.9778V27.8ZM34.9778 28.12H35.6178V27.48H34.9778V28.12ZM34.9778 28.44H35.2978V27.8H34.9778V28.44ZM37.5378 217.24L37.5378 9.56006L36.8978 9.56006L36.8978 217.24L37.5378 217.24ZM34.9778 200.92H39.7778V200.28H34.9778V200.92ZM35.2978 201.24H39.4578V200.6H35.2978V201.24ZM35.2978 201.56H39.4578V200.92H35.2978V201.56ZM35.2978 201.88H39.4578V201.24H35.2978V201.88ZM35.2978 202.2H39.4578V201.56H35.2978V202.2ZM35.2978 202.52H39.4578V201.88H35.2978V202.52ZM35.2978 202.84H39.4578V202.2H35.2978V202.84ZM35.2978 203.16H39.4578V202.52H35.2978V203.16ZM35.6178 203.48H39.1378V202.84H35.6178V203.48ZM35.6178 203.8H39.1378V203.16H35.6178V203.8ZM35.6178 204.12H39.1378V203.48H35.6178V204.12ZM35.6178 204.44H39.1378V203.8H35.6178V204.44ZM35.6178 204.76H39.1378V204.12H35.6178V204.76ZM35.6178 205.08H39.1378V204.44H35.6178V205.08ZM35.6178 205.4H39.1378V204.76H35.6178V205.4ZM35.6178 205.72H39.1378V205.08H35.6178V205.72ZM35.9378 206.04H38.8178V205.4H35.9378V206.04ZM35.9378 206.36H38.8178V205.72H35.9378V206.36ZM35.9378 206.68H38.8178V206.04H35.9378V206.68ZM35.9378 207H38.8178V206.36H35.9378V207ZM35.9378 207.32H38.8178V206.68H35.9378V207.32ZM35.9378 207.64H38.8178V207H35.9378V207.64ZM35.9378 207.96H38.8178V207.32H35.9378V207.96ZM36.2578 208.28H38.4978V207.64H36.2578V208.28ZM36.2578 208.6H38.4978V207.96H36.2578V208.6ZM36.2578 208.92H38.4978V208.28H36.2578V208.92ZM36.2578 209.24H38.4978V208.6H36.2578V209.24ZM36.2578 209.56H38.4978V208.92H36.2578V209.56ZM36.2578 209.88H38.4978V209.24H36.2578V209.88ZM36.2578 210.2H38.4978V209.56H36.2578V210.2ZM36.5778 210.52H38.1778V209.88H36.5778V210.52ZM36.5778 210.84H38.1778V210.2H36.5778V210.84ZM36.5778 211.16H38.1778V210.52H36.5778V211.16ZM36.5778 211.48H38.1778V210.84H36.5778V211.48ZM36.5778 211.8H38.1778V211.16H36.5778V211.8ZM36.5778 212.12H38.1778V211.48H36.5778V212.12ZM36.5778 212.44H38.1778V211.8H36.5778V212.44ZM36.5778 212.76H38.1778V212.12H36.5778V212.76ZM36.8978 213.08H37.8578V212.44H36.8978V213.08ZM36.8978 213.4H37.8578V212.76H36.8978V213.4ZM36.8978 213.72H37.8578V213.08H36.8978V213.72ZM36.8978 214.04H37.8578V213.4H36.8978V214.04ZM36.8978 214.36H37.8578V213.72H36.8978V214.36ZM36.8978 214.68H37.8578V214.04H36.8978V214.68ZM36.8978 215H37.8578V214.36H36.8978V215ZM36.8978 12.44L37.8578 12.44L37.8578 11.8L36.8978 11.8L36.8978 12.44ZM36.8978 12.76L37.8578 12.76L37.8578 12.12L36.8978 12.12L36.8978 12.76ZM36.8978 13.08L37.8578 13.08L37.8578 12.44L36.8978 12.44L36.8978 13.08ZM36.8978 13.4L37.8578 13.4L37.8578 12.76L36.8978 12.76L36.8978 13.4ZM36.8978 13.72L37.8578 13.72L37.8578 13.08L36.8978 13.08L36.8978 13.72ZM36.8978 14.04L37.8578 14.04L37.8578 13.4L36.8978 13.4L36.8978 14.04ZM36.8978 14.36L37.8578 14.36L37.8578 13.72L36.8978 13.72L36.8978 14.36ZM36.5778 14.68L38.1778 14.68L38.1778 14.04L36.5778 14.04L36.5778 14.68ZM36.5778 15L38.1778 15L38.1778 14.36L36.5778 14.36L36.5778 15ZM36.5778 15.32L38.1778 15.32L38.1778 14.68L36.5778 14.68L36.5778 15.32ZM36.5778 15.64L38.1778 15.64L38.1778 15L36.5778 15L36.5778 15.64ZM36.5778 15.96L38.1778 15.96L38.1778 15.32L36.5778 15.32L36.5778 15.96ZM36.5778 16.28L38.1778 16.28L38.1778 15.64L36.5778 15.64L36.5778 16.28ZM36.5778 16.6L38.1778 16.6L38.1778 15.96L36.5778 15.96L36.5778 16.6ZM36.5778 16.92L38.1778 16.92L38.1778 16.28L36.5778 16.28L36.5778 16.92ZM36.2578 17.24L38.4978 17.24L38.4978 16.6L36.2578 16.6L36.2578 17.24ZM36.2578 17.56L38.4978 17.56L38.4978 16.92L36.2578 16.92L36.2578 17.56ZM36.2578 17.88L38.4978 17.88L38.4978 17.24L36.2578 17.24L36.2578 17.88ZM36.2578 18.2L38.4978 18.2L38.4978 17.56L36.2578 17.56L36.2578 18.2ZM36.2578 18.52L38.4978 18.52L38.4978 17.88L36.2578 17.88L36.2578 18.52ZM36.2578 18.84L38.4978 18.84L38.4978 18.2L36.2578 18.2L36.2578 18.84ZM36.2578 19.16L38.4978 19.16L38.4978 18.52L36.2578 18.52L36.2578 19.16ZM35.9378 19.48L38.8178 19.48L38.8178 18.84L35.9378 18.84L35.9378 19.48ZM35.9378 19.8L38.8178 19.8L38.8178 19.16L35.9378 19.16L35.9378 19.8ZM35.9378 20.12L38.8178 20.12L38.8178 19.48L35.9378 19.48L35.9378 20.12ZM35.9378 20.44L38.8178 20.44L38.8178 19.8L35.9378 19.8L35.9378 20.44ZM35.9378 20.76L38.8178 20.76L38.8178 20.12L35.9378 20.12L35.9378 20.76ZM35.9378 21.08L38.8178 21.08L38.8178 20.44L35.9378 20.44L35.9378 21.08ZM35.9378 21.4L38.8178 21.4L38.8178 20.76L35.9378 20.76L35.9378 21.4ZM35.6178 21.72L39.1378 21.72L39.1378 21.08L35.6178 21.08L35.6178 21.72ZM35.6178 22.04L39.1378 22.04L39.1378 21.4L35.6178 21.4L35.6178 22.04ZM35.6178 22.36L39.1378 22.36L39.1378 21.72L35.6178 21.72L35.6178 22.36ZM35.6178 22.68L39.1378 22.68L39.1378 22.04L35.6178 22.04L35.6178 22.68ZM35.6178 23L39.1378 23L39.1378 22.36L35.6178 22.36L35.6178 23ZM35.6178 23.32L39.1378 23.32L39.1378 22.68L35.6178 22.68L35.6178 23.32ZM35.6178 23.64L39.1378 23.64L39.1378 23L35.6178 23L35.6178 23.64ZM35.6178 23.96L39.1378 23.96L39.1378 23.32L35.6178 23.32L35.6178 23.96ZM35.2978 24.28L39.4578 24.28L39.4578 23.64L35.2978 23.64L35.2978 24.28ZM35.2978 24.6L39.4578 24.6L39.4578 23.96L35.2978 23.96L35.2978 24.6ZM35.2978 24.92L39.4578 24.92L39.4578 24.28L35.2978 24.28L35.2978 24.92ZM35.2978 25.24L39.4578 25.24L39.4578 24.6L35.2978 24.6L35.2978 25.24ZM35.2978 25.56L39.4578 25.56L39.4578 24.92L35.2978 24.92L35.2978 25.56ZM35.2978 25.88L39.4578 25.88L39.4578 25.24L35.2978 25.24L35.2978 25.88ZM35.2978 26.2L39.4578 26.2L39.4578 25.56L35.2978 25.56L35.2978 26.2ZM34.9778 26.52L39.7778 26.52L39.7778 25.88L34.9778 25.88L34.9778 26.52Z" fill="white"/>
    </g>
    <!--    23 H1-->
    <g class="group">
    </g>
    <!--    24 H2-->
    <g class="group">
    </g>
    <!--    25 h-->
    <g class="group">
    </g>
    <!--    26 h1-->
    <g class="group">
    </g>
    <!--    27 h2-->
    <g class="group">
    </g>
    <!--    28 R-->
    <g class="group">
    </g>
    <!--    29 Deg-->
    <g class="group">
    </g>
    <!--    29 DN-->
    <g class="group">
    </g>

</svg>
