<svg width="470" height="177" viewBox="0 0 470 177" fill="none" xmlns="http://www.w3.org/2000/svg">
<rect width="470" height="177" fill="none"/>
<path d="M42.3262 51.0798H173.585H42.3262Z" stroke="white" stroke-width="1.68" stroke-linecap="round" stroke-linejoin="round"/>
<path d="M42.3262 78.9199H173.585H42.3262Z" stroke="white" stroke-width="1.68" stroke-linecap="round" stroke-linejoin="round"/>
<path d="M232.483 75.3201L225.752 69.5601L232.483 75.3201Z" stroke="white" stroke-width="1.68" stroke-linecap="round" stroke-linejoin="round"/>
<path d="M225.752 69.56L218.54 64.28L225.752 69.56Z" stroke="white" stroke-width="1.68" stroke-linecap="round" stroke-linejoin="round"/>
<path d="M218.54 64.28L210.847 59.72L218.54 64.28Z" stroke="white" stroke-width="1.68" stroke-linecap="round" stroke-linejoin="round"/>
<path d="M210.846 59.7199L202.673 56.3599L210.846 59.7199Z" stroke="white" stroke-width="1.68" stroke-linecap="round" stroke-linejoin="round"/>
<path d="M202.673 56.36L194.019 53.48L202.673 56.36Z" stroke="white" stroke-width="1.68" stroke-linecap="round" stroke-linejoin="round"/>
<path d="M194.019 53.48L185.364 51.8L194.019 53.48Z" stroke="white" stroke-width="1.68" stroke-linecap="round" stroke-linejoin="round"/>
<path d="M185.365 51.7998L176.229 51.0798L185.365 51.7998Z" stroke="white" stroke-width="1.68" stroke-linecap="round" stroke-linejoin="round"/>
<path d="M176.229 51.0798H173.585H176.229Z" stroke="white" stroke-width="1.68" stroke-linecap="round" stroke-linejoin="round"/>
<path d="M212.77 95L207.241 90.2L212.77 95Z" stroke="white" stroke-width="1.68" stroke-linecap="round" stroke-linejoin="round"/>
<path d="M207.241 90.1999L201.23 86.1199L207.241 90.1999Z" stroke="white" stroke-width="1.68" stroke-linecap="round" stroke-linejoin="round"/>
<path d="M201.231 86.12L194.74 83L201.231 86.12Z" stroke="white" stroke-width="1.68" stroke-linecap="round" stroke-linejoin="round"/>
<path d="M194.74 82.9998L187.769 80.5999L194.74 82.9998Z" stroke="white" stroke-width="1.68" stroke-linecap="round" stroke-linejoin="round"/>
<path d="M187.769 80.5999L180.557 79.1599L187.769 80.5999Z" stroke="white" stroke-width="1.68" stroke-linecap="round" stroke-linejoin="round"/>
<path d="M180.557 79.1599L173.585 78.9199L180.557 79.1599Z" stroke="white" stroke-width="1.68" stroke-linecap="round" stroke-linejoin="round"/>
<path d="M232.483 75.3198L247.388 90.1998L232.483 75.3198Z" stroke="white" stroke-width="1.68" stroke-linecap="round" stroke-linejoin="round"/>
<path d="M212.771 95L227.675 109.88L212.771 95Z" stroke="white" stroke-width="1.68" stroke-linecap="round" stroke-linejoin="round"/>
<path d="M247.388 90.2L252.917 95.2399L247.388 90.2Z" stroke="white" stroke-width="1.68" stroke-linecap="round" stroke-linejoin="round"/>
<path d="M252.917 95.24L258.927 99.08L252.917 95.24Z" stroke="white" stroke-width="1.68" stroke-linecap="round" stroke-linejoin="round"/>
<path d="M258.927 99.0798L265.658 102.44L258.927 99.0798Z" stroke="white" stroke-width="1.68" stroke-linecap="round" stroke-linejoin="round"/>
<path d="M265.658 102.44L272.389 104.84L265.658 102.44Z" stroke="white" stroke-width="1.68" stroke-linecap="round" stroke-linejoin="round"/>
<path d="M272.39 104.84L279.602 106.04L272.39 104.84Z" stroke="white" stroke-width="1.68" stroke-linecap="round" stroke-linejoin="round"/>
<path d="M279.602 106.04L286.814 106.52L279.602 106.04Z" stroke="white" stroke-width="1.68" stroke-linecap="round" stroke-linejoin="round"/>
<path d="M227.675 109.88L234.406 115.88L227.675 109.88Z" stroke="white" stroke-width="1.68" stroke-linecap="round" stroke-linejoin="round"/>
<path d="M234.406 115.88L241.618 121.16L234.406 115.88Z" stroke="white" stroke-width="1.68" stroke-linecap="round" stroke-linejoin="round"/>
<path d="M241.618 121.16L249.551 125.48L241.618 121.16Z" stroke="white" stroke-width="1.68" stroke-linecap="round" stroke-linejoin="round"/>
<path d="M249.552 125.48L257.725 129.08L249.552 125.48Z" stroke="white" stroke-width="1.68" stroke-linecap="round" stroke-linejoin="round"/>
<path d="M257.726 129.08L266.14 131.72L257.726 129.08Z" stroke="white" stroke-width="1.68" stroke-linecap="round" stroke-linejoin="round"/>
<path d="M266.139 131.72L275.034 133.64L266.139 131.72Z" stroke="white" stroke-width="1.68" stroke-linecap="round" stroke-linejoin="round"/>
<path d="M275.034 133.64L283.929 134.36L275.034 133.64Z" stroke="white" stroke-width="1.68" stroke-linecap="round" stroke-linejoin="round"/>
<path d="M283.929 134.36H286.814H283.929Z" stroke="white" stroke-width="1.68" stroke-linecap="round" stroke-linejoin="round"/>
<path d="M286.813 106.52H418.072H286.813Z" stroke="white" stroke-width="1.68" stroke-linecap="round" stroke-linejoin="round"/>
<path d="M286.813 134.36H418.072H286.813Z" stroke="white" stroke-width="1.68" stroke-linecap="round" stroke-linejoin="round"/>
<path d="M37.7578 55.3999V74.3599V55.3999Z" stroke="white" stroke-width="1.68" stroke-linecap="round" stroke-linejoin="round"/>
<path d="M422.4 110.84V130.04V110.84Z" stroke="white" stroke-width="1.68" stroke-linecap="round" stroke-linejoin="round"/>
<path d="M39.4414 53.72H89.4448H39.4414Z" stroke="white" stroke-width="1.68" stroke-linecap="round" stroke-linejoin="round"/>
<path d="M39.4414 76.04H85.358H39.4414Z" stroke="white" stroke-width="1.68" stroke-linecap="round" stroke-linejoin="round"/>
<path d="M418.072 106.52V134.36V106.52Z" stroke="white" stroke-width="1.68" stroke-linecap="round" stroke-linejoin="round"/>
<path d="M367.348 130.04H422.4H367.348Z" stroke="white" stroke-width="0.72" stroke-linecap="round" stroke-linejoin="round"/>
<path d="M418.072 134.36L422.4 130.04L418.072 134.36Z" stroke="white" stroke-width="1.68" stroke-linecap="round" stroke-linejoin="round"/>
<path d="M418.072 134.36L415.188 130.04L418.072 134.36Z" stroke="white" stroke-width="0.96" stroke-linecap="round" stroke-linejoin="round"/>
<path d="M412.784 134.36L415.188 130.04L412.784 134.36Z" stroke="white" stroke-width="0.96" stroke-linecap="round" stroke-linejoin="round"/>
<path d="M412.784 134.36L410.14 130.04L412.784 134.36Z" stroke="white" stroke-width="0.96" stroke-linecap="round" stroke-linejoin="round"/>
<path d="M407.735 134.36L410.139 130.04L407.735 134.36Z" stroke="white" stroke-width="0.96" stroke-linecap="round" stroke-linejoin="round"/>
<path d="M407.735 134.36L405.091 130.04L407.735 134.36Z" stroke="white" stroke-width="0.96" stroke-linecap="round" stroke-linejoin="round"/>
<path d="M402.688 134.36L405.091 130.04L402.688 134.36Z" stroke="white" stroke-width="0.96" stroke-linecap="round" stroke-linejoin="round"/>
<path d="M402.687 134.36L400.043 130.04L402.687 134.36Z" stroke="white" stroke-width="0.96" stroke-linecap="round" stroke-linejoin="round"/>
<path d="M397.639 134.36L400.043 130.04L397.639 134.36Z" stroke="white" stroke-width="0.96" stroke-linecap="round" stroke-linejoin="round"/>
<path d="M397.639 134.36L394.994 130.04L397.639 134.36Z" stroke="white" stroke-width="0.96" stroke-linecap="round" stroke-linejoin="round"/>
<path d="M392.59 134.36L394.994 130.04L392.59 134.36Z" stroke="white" stroke-width="0.96" stroke-linecap="round" stroke-linejoin="round"/>
<path d="M392.591 134.36L390.187 130.04L392.591 134.36Z" stroke="white" stroke-width="0.96" stroke-linecap="round" stroke-linejoin="round"/>
<path d="M387.542 134.36L390.186 130.04L387.542 134.36Z" stroke="white" stroke-width="0.96" stroke-linecap="round" stroke-linejoin="round"/>
<path d="M387.542 134.36L385.138 130.04L387.542 134.36Z" stroke="white" stroke-width="0.96" stroke-linecap="round" stroke-linejoin="round"/>
<path d="M382.493 134.36L385.138 130.04L382.493 134.36Z" stroke="white" stroke-width="0.96" stroke-linecap="round" stroke-linejoin="round"/>
<path d="M382.494 134.36L380.09 130.04L382.494 134.36Z" stroke="white" stroke-width="0.96" stroke-linecap="round" stroke-linejoin="round"/>
<path d="M377.445 134.36L380.09 130.04L377.445 134.36Z" stroke="white" stroke-width="0.96" stroke-linecap="round" stroke-linejoin="round"/>
<path d="M377.445 134.36L375.041 130.04L377.445 134.36Z" stroke="white" stroke-width="0.96" stroke-linecap="round" stroke-linejoin="round"/>
<path d="M372.396 134.36L375.041 130.04L372.396 134.36Z" stroke="white" stroke-width="0.96" stroke-linecap="round" stroke-linejoin="round"/>
<path d="M372.396 134.36L369.992 130.04L372.396 134.36Z" stroke="white" stroke-width="0.96" stroke-linecap="round" stroke-linejoin="round"/>
<path d="M367.348 134.36L369.992 130.04L367.348 134.36Z" stroke="white" stroke-width="0.96" stroke-linecap="round" stroke-linejoin="round"/>
<path d="M367.348 110.84H422.4H367.348Z" stroke="white" stroke-width="0.72" stroke-linecap="round" stroke-linejoin="round"/>
<path d="M418.072 106.52L422.4 110.84L418.072 106.52Z" stroke="white" stroke-width="1.68" stroke-linecap="round" stroke-linejoin="round"/>
<path d="M418.072 106.52L415.188 110.84L418.072 106.52Z" stroke="white" stroke-width="0.96" stroke-linecap="round" stroke-linejoin="round"/>
<path d="M412.784 106.52L415.188 110.84L412.784 106.52Z" stroke="white" stroke-width="0.96" stroke-linecap="round" stroke-linejoin="round"/>
<path d="M412.784 106.52L410.14 110.84L412.784 106.52Z" stroke="white" stroke-width="0.96" stroke-linecap="round" stroke-linejoin="round"/>
<path d="M407.735 106.52L410.139 110.84L407.735 106.52Z" stroke="white" stroke-width="0.96" stroke-linecap="round" stroke-linejoin="round"/>
<path d="M407.735 106.52L405.091 110.84L407.735 106.52Z" stroke="white" stroke-width="0.96" stroke-linecap="round" stroke-linejoin="round"/>
<path d="M402.688 106.52L405.091 110.84L402.688 106.52Z" stroke="white" stroke-width="0.96" stroke-linecap="round" stroke-linejoin="round"/>
<path d="M402.687 106.52L400.043 110.84L402.687 106.52Z" stroke="white" stroke-width="0.96" stroke-linecap="round" stroke-linejoin="round"/>
<path d="M397.639 106.52L400.043 110.84L397.639 106.52Z" stroke="white" stroke-width="0.96" stroke-linecap="round" stroke-linejoin="round"/>
<path d="M397.639 106.52L394.994 110.84L397.639 106.52Z" stroke="white" stroke-width="0.96" stroke-linecap="round" stroke-linejoin="round"/>
<path d="M392.59 106.52L394.994 110.84L392.59 106.52Z" stroke="white" stroke-width="0.96" stroke-linecap="round" stroke-linejoin="round"/>
<path d="M392.591 106.52L390.187 110.84L392.591 106.52Z" stroke="white" stroke-width="0.96" stroke-linecap="round" stroke-linejoin="round"/>
<path d="M387.542 106.52L390.186 110.84L387.542 106.52Z" stroke="white" stroke-width="0.96" stroke-linecap="round" stroke-linejoin="round"/>
<path d="M387.542 106.52L385.138 110.84L387.542 106.52Z" stroke="white" stroke-width="0.96" stroke-linecap="round" stroke-linejoin="round"/>
<path d="M382.493 106.52L385.138 110.84L382.493 106.52Z" stroke="white" stroke-width="0.96" stroke-linecap="round" stroke-linejoin="round"/>
<path d="M382.494 106.52L380.09 110.84L382.494 106.52Z" stroke="white" stroke-width="0.96" stroke-linecap="round" stroke-linejoin="round"/>
<path d="M377.445 106.52L380.09 110.84L377.445 106.52Z" stroke="white" stroke-width="0.96" stroke-linecap="round" stroke-linejoin="round"/>
<path d="M377.445 106.52L375.041 110.84L377.445 106.52Z" stroke="white" stroke-width="0.96" stroke-linecap="round" stroke-linejoin="round"/>
<path d="M372.396 106.52L375.041 110.84L372.396 106.52Z" stroke="white" stroke-width="0.96" stroke-linecap="round" stroke-linejoin="round"/>
<path d="M372.396 106.52L369.992 110.84L372.396 106.52Z" stroke="white" stroke-width="0.96" stroke-linecap="round" stroke-linejoin="round"/>
<path d="M367.348 106.52L369.992 110.84L367.348 106.52Z" stroke="white" stroke-width="0.96" stroke-linecap="round" stroke-linejoin="round"/>
<path d="M78.8672 51.0798L83.9156 51.7998L78.8672 51.0798Z" stroke="white" stroke-width="0.48" stroke-linecap="round" stroke-linejoin="round"/>
<path d="M83.915 51.8L88.2422 53.2401L83.915 51.8Z" stroke="white" stroke-width="0.48" stroke-linecap="round" stroke-linejoin="round"/>
<path d="M88.2422 53.24L92.0886 55.4L88.2422 53.24Z" stroke="white" stroke-width="0.48" stroke-linecap="round" stroke-linejoin="round"/>
<path d="M92.0889 55.3999L94.4929 58.0399L92.0889 55.3999Z" stroke="white" stroke-width="0.48" stroke-linecap="round" stroke-linejoin="round"/>
<path d="M94.4932 58.04L96.176 60.92L94.4932 58.04Z" stroke="white" stroke-width="0.48" stroke-linecap="round" stroke-linejoin="round"/>
<path d="M96.1758 60.9199L96.897 63.7999L96.1758 60.9199Z" stroke="white" stroke-width="0.48" stroke-linecap="round" stroke-linejoin="round"/>
<path d="M96.896 63.8L96.416 66.2L96.896 63.8Z" stroke="white" stroke-width="0.48" stroke-linecap="round" stroke-linejoin="round"/>
<path d="M96.416 66.2L94.9736 68.36L96.416 66.2Z" stroke="white" stroke-width="0.48" stroke-linecap="round" stroke-linejoin="round"/>
<path d="M94.974 68.3599L93.0508 70.2799L94.974 68.3599Z" stroke="white" stroke-width="0.48" stroke-linecap="round" stroke-linejoin="round"/>
<path d="M93.0507 70.28L90.4062 71.96L93.0507 70.28Z" stroke="white" stroke-width="0.48" stroke-linecap="round" stroke-linejoin="round"/>
<path d="M90.4062 71.96L86.3193 74.36L90.4062 71.96Z" stroke="white" stroke-width="0.48" stroke-linecap="round" stroke-linejoin="round"/>
<path d="M86.3191 74.3599L86.0791 74.5999L86.3191 74.3599Z" stroke="white" stroke-width="0.48" stroke-linecap="round" stroke-linejoin="round"/>
<path d="M86.0779 74.5999L85.8379 74.8399L86.0779 74.5999Z" stroke="white" stroke-width="0.48" stroke-linecap="round" stroke-linejoin="round"/>
<path d="M85.8379 74.8398V75.0798V74.8398Z" stroke="white" stroke-width="0.48" stroke-linecap="round" stroke-linejoin="round"/>
<path d="M85.8377 75.0798H85.5977H85.8377Z" stroke="white" stroke-width="0.48" stroke-linecap="round" stroke-linejoin="round"/>
<path d="M85.5977 75.0798V75.3198V75.0798Z" stroke="white" stroke-width="0.48" stroke-linecap="round" stroke-linejoin="round"/>
<path d="M85.5974 75.3198L85.3574 75.5598L85.5974 75.3198Z" stroke="white" stroke-width="0.48" stroke-linecap="round" stroke-linejoin="round"/>
<path d="M85.3574 75.5601V75.8001V75.5601Z" stroke="white" stroke-width="0.48" stroke-linecap="round" stroke-linejoin="round"/>
<path d="M85.3574 75.8V76.04V75.8Z" stroke="white" stroke-width="0.48" stroke-linecap="round" stroke-linejoin="round"/>
<path d="M85.3574 76.04V76.28V76.04Z" stroke="white" stroke-width="0.48" stroke-linecap="round" stroke-linejoin="round"/>
<path d="M85.3574 76.28V76.52V76.28Z" stroke="white" stroke-width="0.48" stroke-linecap="round" stroke-linejoin="round"/>
<path d="M85.3574 76.52H85.5974H85.3574Z" stroke="white" stroke-width="0.48" stroke-linecap="round" stroke-linejoin="round"/>
<path d="M85.5977 76.52V76.76V76.52Z" stroke="white" stroke-width="0.48" stroke-linecap="round" stroke-linejoin="round"/>
<path d="M85.5977 76.76V77V76.76Z" stroke="white" stroke-width="0.48" stroke-linecap="round" stroke-linejoin="round"/>
<path d="M85.5977 77H85.8377H85.5977Z" stroke="white" stroke-width="0.48" stroke-linecap="round" stroke-linejoin="round"/>
<path d="M85.8379 77V77.24V77Z" stroke="white" stroke-width="0.48" stroke-linecap="round" stroke-linejoin="round"/>
<path d="M85.8379 77.24L86.0779 77.48L85.8379 77.24Z" stroke="white" stroke-width="0.48" stroke-linecap="round" stroke-linejoin="round"/>
<path d="M86.0791 77.48H86.3191H86.0791Z" stroke="white" stroke-width="0.48" stroke-linecap="round" stroke-linejoin="round"/>
<path d="M86.3193 77.48V77.72V77.48Z" stroke="white" stroke-width="0.48" stroke-linecap="round" stroke-linejoin="round"/>
<path d="M86.3193 77.72L86.7993 78.2L86.3193 77.72Z" stroke="white" stroke-width="0.48" stroke-linecap="round" stroke-linejoin="round"/>
<path d="M86.7998 78.2L87.7614 78.6799L86.7998 78.2Z" stroke="white" stroke-width="0.48" stroke-linecap="round" stroke-linejoin="round"/>
<path d="M87.7617 78.6799V78.9199V78.6799Z" stroke="white" stroke-width="0.48" stroke-linecap="round" stroke-linejoin="round"/>
<path d="M367.348 106.52V134.36V106.52Z" stroke="white" stroke-width="1.68" stroke-linecap="round" stroke-linejoin="round"/>
<path d="M113.004 74.3599H86.3193H113.004Z" stroke="white" stroke-width="0.72" stroke-linecap="round" stroke-linejoin="round"/>
<path d="M42.3254 78.9199L37.7578 74.3599L42.3254 78.9199Z" stroke="white" stroke-width="1.68" stroke-linecap="round" stroke-linejoin="round"/>
<path d="M87.7613 78.9198L85.5977 75.0798L87.7613 78.9198Z" stroke="white" stroke-width="0.96" stroke-linecap="round" stroke-linejoin="round"/>
<path d="M87.7617 78.9199L90.4061 74.3599L87.7617 78.9199Z" stroke="white" stroke-width="0.96" stroke-linecap="round" stroke-linejoin="round"/>
<path d="M92.8103 78.9199L90.4062 74.3599L92.8103 78.9199Z" stroke="white" stroke-width="0.96" stroke-linecap="round" stroke-linejoin="round"/>
<path d="M113.004 55.3999H91.8486H113.004Z" stroke="white" stroke-width="0.72" stroke-linecap="round" stroke-linejoin="round"/>
<path d="M42.3254 51.0798L37.7578 55.3998L42.3254 51.0798Z" stroke="white" stroke-width="1.68" stroke-linecap="round" stroke-linejoin="round"/>
<path d="M87.7614 51.0798L86.7998 52.5198L87.7614 51.0798Z" stroke="white" stroke-width="0.96" stroke-linecap="round" stroke-linejoin="round"/>
<path d="M87.7617 51.0798L89.4445 53.7198L87.7617 51.0798Z" stroke="white" stroke-width="0.96" stroke-linecap="round" stroke-linejoin="round"/>
<path d="M92.8099 51.0798L90.8867 54.6798L92.8099 51.0798Z" stroke="white" stroke-width="0.96" stroke-linecap="round" stroke-linejoin="round"/>
<path d="M92.8096 51.0798L95.454 55.3998L92.8096 51.0798Z" stroke="white" stroke-width="0.96" stroke-linecap="round" stroke-linejoin="round"/>
<path d="M97.8581 51.0798L95.4541 55.3998L97.8581 51.0798Z" stroke="white" stroke-width="0.96" stroke-linecap="round" stroke-linejoin="round"/>
<path d="M97.8584 51.0798L100.503 55.3998L97.8584 51.0798Z" stroke="white" stroke-width="0.96" stroke-linecap="round" stroke-linejoin="round"/>
<path d="M102.907 51.0798L100.503 55.3998L102.907 51.0798Z" stroke="white" stroke-width="0.96" stroke-linecap="round" stroke-linejoin="round"/>
<path d="M102.907 51.0798L105.311 55.3998L102.907 51.0798Z" stroke="white" stroke-width="0.96" stroke-linecap="round" stroke-linejoin="round"/>
<path d="M107.955 51.0798L105.311 55.3998L107.955 51.0798Z" stroke="white" stroke-width="0.96" stroke-linecap="round" stroke-linejoin="round"/>
<path d="M107.955 51.0798L110.359 55.3998L107.955 51.0798Z" stroke="white" stroke-width="0.96" stroke-linecap="round" stroke-linejoin="round"/>
<path d="M92.8096 78.9199L95.454 74.3599L92.8096 78.9199Z" stroke="white" stroke-width="0.96" stroke-linecap="round" stroke-linejoin="round"/>
<path d="M97.8581 78.9199L95.4541 74.3599L97.8581 78.9199Z" stroke="white" stroke-width="0.96" stroke-linecap="round" stroke-linejoin="round"/>
<path d="M97.8584 78.9199L100.503 74.3599L97.8584 78.9199Z" stroke="white" stroke-width="0.96" stroke-linecap="round" stroke-linejoin="round"/>
<path d="M102.907 78.9199L100.503 74.3599L102.907 78.9199Z" stroke="white" stroke-width="0.96" stroke-linecap="round" stroke-linejoin="round"/>
<path d="M102.907 78.9199L105.311 74.3599L102.907 78.9199Z" stroke="white" stroke-width="0.96" stroke-linecap="round" stroke-linejoin="round"/>
<path d="M107.955 78.9199L105.311 74.3599L107.955 78.9199Z" stroke="white" stroke-width="0.96" stroke-linecap="round" stroke-linejoin="round"/>
<path d="M107.955 78.9199L110.359 74.3599L107.955 78.9199Z" stroke="white" stroke-width="0.96" stroke-linecap="round" stroke-linejoin="round"/>
<path d="M113.004 51.0798L110.359 55.3998L113.004 51.0798Z" stroke="white" stroke-width="0.96" stroke-linecap="round" stroke-linejoin="round"/>
<path d="M113.004 51.0798V78.9198V51.0798Z" stroke="white" stroke-width="1.68" stroke-linecap="round" stroke-linejoin="round"/>
<path d="M113.004 78.9199L110.359 74.3599L113.004 78.9199Z" stroke="white" stroke-width="0.96" stroke-linecap="round" stroke-linejoin="round"/>
<path d="M35.1133 65H60.115H35.1133Z" stroke="white" stroke-width="0.48" stroke-linecap="round" stroke-linejoin="round"/>
<path d="M64.4424 65H68.5292H64.4424Z" stroke="white" stroke-width="0.48" stroke-linecap="round" stroke-linejoin="round"/>
<path d="M72.8564 65H97.8582H72.8564Z" stroke="white" stroke-width="0.48" stroke-linecap="round" stroke-linejoin="round"/>
<path d="M102.186 65H106.513H102.186Z" stroke="white" stroke-width="0.48" stroke-linecap="round" stroke-linejoin="round"/>
<path d="M110.6 65H135.601H110.6Z" stroke="white" stroke-width="0.48" stroke-linecap="round" stroke-linejoin="round"/>
<path d="M139.929 65H144.256H139.929Z" stroke="white" stroke-width="0.48" stroke-linecap="round" stroke-linejoin="round"/>
<path d="M148.583 65H173.585H148.583Z" stroke="white" stroke-width="0.48" stroke-linecap="round" stroke-linejoin="round"/>
<path d="M222.626 85.1599L216.616 79.8799L222.626 85.1599Z" stroke="white" stroke-width="0.48" stroke-linecap="round" stroke-linejoin="round"/>
<path d="M216.617 79.8798L209.886 75.0798L216.617 79.8798Z" stroke="white" stroke-width="0.48" stroke-linecap="round" stroke-linejoin="round"/>
<path d="M209.886 75.0799L205.799 72.9199L209.886 75.0799Z" stroke="white" stroke-width="0.48" stroke-linecap="round" stroke-linejoin="round"/>
<path d="M201.952 71.0001L198.105 69.5601L201.952 71.0001Z" stroke="white" stroke-width="0.48" stroke-linecap="round" stroke-linejoin="round"/>
<path d="M194.019 68.1199L187.047 66.2L194.019 68.1199Z" stroke="white" stroke-width="0.48" stroke-linecap="round" stroke-linejoin="round"/>
<path d="M187.047 66.2L179.114 65.24L187.047 66.2Z" stroke="white" stroke-width="0.48" stroke-linecap="round" stroke-linejoin="round"/>
<path d="M179.114 65.24L173.585 65L179.114 65.24Z" stroke="white" stroke-width="0.48" stroke-linecap="round" stroke-linejoin="round"/>
<path d="M222.627 85.1599L237.532 100.04L222.627 85.1599Z" stroke="white" stroke-width="0.48" stroke-linecap="round" stroke-linejoin="round"/>
<path d="M237.531 100.04L243.782 105.56L237.531 100.04Z" stroke="white" stroke-width="0.48" stroke-linecap="round" stroke-linejoin="round"/>
<path d="M243.782 105.56L250.513 110.12L243.782 105.56Z" stroke="white" stroke-width="0.48" stroke-linecap="round" stroke-linejoin="round"/>
<path d="M250.513 110.12L254.359 112.28L250.513 110.12Z" stroke="white" stroke-width="0.48" stroke-linecap="round" stroke-linejoin="round"/>
<path d="M258.206 114.44L262.293 115.88L258.206 114.44Z" stroke="white" stroke-width="0.48" stroke-linecap="round" stroke-linejoin="round"/>
<path d="M266.139 117.32L273.11 119.24L266.139 117.32Z" stroke="white" stroke-width="0.48" stroke-linecap="round" stroke-linejoin="round"/>
<path d="M273.11 119.24L281.284 120.2L273.11 119.24Z" stroke="white" stroke-width="0.48" stroke-linecap="round" stroke-linejoin="round"/>
<path d="M281.284 120.2L286.813 120.44L281.284 120.2Z" stroke="white" stroke-width="0.48" stroke-linecap="round" stroke-linejoin="round"/>
<path d="M286.813 120.44H311.815H286.813Z" stroke="white" stroke-width="0.48" stroke-linecap="round" stroke-linejoin="round"/>
<path d="M316.143 120.44H320.229H316.143Z" stroke="white" stroke-width="0.48" stroke-linecap="round" stroke-linejoin="round"/>
<path d="M324.557 120.44H349.558H324.557Z" stroke="white" stroke-width="0.48" stroke-linecap="round" stroke-linejoin="round"/>
<path d="M353.886 120.44H358.213H353.886Z" stroke="white" stroke-width="0.48" stroke-linecap="round" stroke-linejoin="round"/>
<path d="M362.3 120.44H387.542H362.3Z" stroke="white" stroke-width="0.48" stroke-linecap="round" stroke-linejoin="round"/>
<path d="M391.629 120.44H395.956H391.629Z" stroke="white" stroke-width="0.48" stroke-linecap="round" stroke-linejoin="round"/>
<path d="M400.283 120.44H425.285H400.283Z" stroke="white" stroke-width="0.48" stroke-linecap="round" stroke-linejoin="round"/>
<path d="M83.1943 78.92L85.3579 76.52L83.1943 78.92Z" stroke="white" stroke-width="0.48" stroke-linecap="round" stroke-linejoin="round"/>
<path d="M71.1738 78.92L73.8182 76.04L71.1738 78.92Z" stroke="white" stroke-width="0.48" stroke-linecap="round" stroke-linejoin="round"/>
<path d="M59.1543 78.92L61.7987 76.04L59.1543 78.92Z" stroke="white" stroke-width="0.48" stroke-linecap="round" stroke-linejoin="round"/>
<path d="M84.1553 53.72L85.5977 52.28L84.1553 53.72Z" stroke="white" stroke-width="0.48" stroke-linecap="round" stroke-linejoin="round"/>
<path d="M72.1357 53.7198L74.7802 51.0798L72.1357 53.7198Z" stroke="white" stroke-width="0.48" stroke-linecap="round" stroke-linejoin="round"/>
<path d="M46.8936 78.92L49.7784 76.04L46.8936 78.92Z" stroke="white" stroke-width="0.48" stroke-linecap="round" stroke-linejoin="round"/>
<path d="M59.875 53.7198L62.7598 51.0798L59.875 53.7198Z" stroke="white" stroke-width="0.48" stroke-linecap="round" stroke-linejoin="round"/>
<path d="M47.8545 53.7198L50.7393 51.0798L47.8545 53.7198Z" stroke="white" stroke-width="0.48" stroke-linecap="round" stroke-linejoin="round"/>

    <!--    1 A-->
    <g class="group">
    </g>
    <!--    2 D-->
    <g class="group">
    </g>
    <!--    3 Dy-->
    <g class="group">
    </g>
    <!--    4 Dh-->
    <g class="group">
    </g>
    <!--    5 D1-->
    <g class="group">
    </g>
    <!--   6 D2-->
    <g class="group">
    </g>
    <!--   7 d-->
    <g class="group">
        <path d="M451.795 116.937L438.78 112.207V110.265L453.856 115.743V117.518L451.795 116.937ZM448.664 123.401L448.458 123.326C447.646 123.031 446.91 122.66 446.249 122.21C445.582 121.752 445.009 121.241 444.532 120.678C444.054 120.107 443.688 119.504 443.432 118.869C443.171 118.223 443.04 117.563 443.04 116.888C443.04 116.178 443.158 115.601 443.393 115.157C443.622 114.705 443.959 114.375 444.404 114.167C444.843 113.951 445.373 113.847 445.994 113.857C446.616 113.867 447.319 113.973 448.104 114.175L449.007 114.503C449.786 114.863 450.486 115.267 451.108 115.716C451.729 116.157 452.259 116.646 452.698 117.181C453.136 117.709 453.473 118.284 453.709 118.906C453.938 119.525 454.052 120.194 454.052 120.911C454.052 121.572 453.918 122.129 453.65 122.581C453.382 123.027 453.005 123.36 452.521 123.581C452.037 123.795 451.468 123.891 450.813 123.869C450.152 123.838 449.436 123.682 448.664 123.401ZM448.458 121.384L448.664 121.459C449.194 121.651 449.691 121.776 450.156 121.834C450.62 121.884 451.029 121.852 451.383 121.737C451.736 121.621 452.014 121.413 452.217 121.11C452.413 120.806 452.511 120.392 452.511 119.87C452.511 119.23 452.384 118.658 452.128 118.154C451.873 117.644 451.536 117.187 451.118 116.784C450.699 116.382 450.244 116.021 449.753 115.704L447.388 114.844C447.028 114.797 446.681 114.793 446.347 114.832C446.007 114.861 445.706 114.954 445.445 115.109C445.176 115.255 444.964 115.481 444.807 115.786C444.65 116.084 444.571 116.477 444.571 116.964C444.571 117.493 444.676 117.987 444.885 118.446C445.088 118.896 445.369 119.308 445.729 119.682C446.082 120.054 446.495 120.385 446.966 120.675C447.43 120.955 447.928 121.191 448.458 121.384Z" fill="white"/>
        <path d="M425.285 106.28C425.153 106.28 425.045 106.387 425.045 106.52C425.045 106.653 425.153 106.76 425.285 106.76V106.28ZM468.798 106.76C468.93 106.76 469.038 106.653 469.038 106.52C469.038 106.387 468.93 106.28 468.798 106.28V106.76ZM425.285 134.12C425.153 134.12 425.045 134.227 425.045 134.36C425.045 134.492 425.153 134.6 425.285 134.6V134.12ZM468.798 134.6C468.93 134.6 469.038 134.492 469.038 134.36C469.038 134.227 468.93 134.12 468.798 134.12V134.6ZM451.795 116.937L451.713 117.162C451.718 117.164 451.724 117.166 451.73 117.167L451.795 116.937ZM438.78 112.207H438.54C438.54 112.308 438.603 112.398 438.698 112.433L438.78 112.207ZM438.78 110.265L438.862 110.039C438.789 110.012 438.707 110.023 438.642 110.068C438.578 110.113 438.54 110.186 438.54 110.265H438.78ZM453.856 115.743H454.096C454.096 115.642 454.033 115.552 453.938 115.518L453.856 115.743ZM453.856 117.518L453.791 117.749C453.863 117.77 453.941 117.755 454.001 117.71C454.061 117.664 454.096 117.594 454.096 117.518H453.856ZM448.664 123.401L448.746 123.176L448.746 123.176L448.664 123.401ZM448.458 123.326L448.376 123.552L448.376 123.552L448.458 123.326ZM446.249 122.21L446.113 122.408L446.114 122.409L446.249 122.21ZM444.532 120.678L444.348 120.832L444.349 120.833L444.532 120.678ZM443.432 118.869L443.655 118.779L443.655 118.778L443.432 118.869ZM443.393 115.157L443.605 115.27L443.607 115.266L443.393 115.157ZM444.404 114.167L444.506 114.385L444.51 114.382L444.404 114.167ZM448.104 114.175L448.186 113.95C448.179 113.947 448.172 113.945 448.164 113.943L448.104 114.175ZM449.007 114.503L449.108 114.285C449.102 114.283 449.096 114.28 449.089 114.278L449.007 114.503ZM451.108 115.716L450.967 115.91L450.969 115.911L451.108 115.716ZM452.698 117.181L452.512 117.333L452.513 117.334L452.698 117.181ZM453.709 118.906L453.934 118.823L453.933 118.821L453.709 118.906ZM453.65 122.581L453.855 122.705L453.856 122.704L453.65 122.581ZM452.521 123.581L452.618 123.801L452.621 123.799L452.521 123.581ZM450.813 123.869L450.802 124.109L450.805 124.109L450.813 123.869ZM448.458 121.384L448.54 121.158L448.54 121.158L448.458 121.384ZM448.664 121.459L448.582 121.684L448.582 121.684L448.664 121.459ZM450.156 121.834L450.126 122.072L450.13 122.072L450.156 121.834ZM452.217 121.11L452.416 121.244L452.419 121.24L452.217 121.11ZM452.128 118.154L451.914 118.262L451.914 118.263L452.128 118.154ZM449.753 115.704L449.884 115.502C449.868 115.493 449.852 115.484 449.835 115.478L449.753 115.704ZM447.388 114.844L447.47 114.619C447.453 114.613 447.436 114.609 447.419 114.606L447.388 114.844ZM446.347 114.832L446.368 115.071L446.375 115.07L446.347 114.832ZM445.445 115.109L445.559 115.32L445.567 115.316L445.445 115.109ZM444.807 115.786L445.019 115.898L445.02 115.896L444.807 115.786ZM444.885 118.446L445.104 118.347L445.103 118.346L444.885 118.446ZM445.729 119.682L445.903 119.517L445.902 119.516L445.729 119.682ZM446.966 120.675L446.84 120.879L446.842 120.88L446.966 120.675ZM464.951 92.3599L465.188 92.3922C465.201 92.2963 465.156 92.202 465.072 92.153C464.989 92.1039 464.884 92.1098 464.807 92.1677L464.951 92.3599ZM463.027 93.7999L463.027 94.0399L463.027 94.0399L463.027 93.7999ZM461.104 92.3599L461.248 92.1678C461.171 92.1098 461.066 92.1039 460.983 92.153C460.899 92.202 460.854 92.2963 460.867 92.3922L461.104 92.3599ZM463.267 86.8398C463.267 86.7073 463.16 86.5998 463.027 86.5998C462.895 86.5998 462.787 86.7073 462.787 86.8398H463.267ZM461.104 148.52L460.867 148.488C460.854 148.583 460.899 148.678 460.983 148.727C461.066 148.776 461.171 148.77 461.248 148.712L461.104 148.52ZM463.028 147.08L463.028 146.84L463.028 146.84L463.028 147.08ZM464.951 148.52L464.807 148.712C464.884 148.77 464.989 148.776 465.072 148.727C465.156 148.678 465.201 148.583 465.188 148.488L464.951 148.52ZM462.787 154.28C462.787 154.412 462.895 154.52 463.027 154.52C463.16 154.52 463.267 154.412 463.267 154.28L462.787 154.28ZM425.285 106.76H468.798V106.28H425.285V106.76ZM425.285 134.6H468.798V134.12H425.285V134.6ZM451.877 116.711L438.862 111.982L438.698 112.433L451.713 117.162L451.877 116.711ZM439.02 112.207V110.265H438.54V112.207H439.02ZM438.698 110.49L453.774 115.969L453.938 115.518L438.862 110.039L438.698 110.49ZM453.616 115.743V117.518H454.096V115.743H453.616ZM453.921 117.287L451.86 116.706L451.73 117.167L453.791 117.749L453.921 117.287ZM448.746 123.176L448.54 123.101L448.376 123.552L448.582 123.627L448.746 123.176ZM448.54 123.101C447.746 122.812 447.027 122.449 446.384 122.012L446.114 122.409C446.793 122.87 447.547 123.251 448.376 123.552L448.54 123.101ZM446.385 122.013C445.734 121.565 445.177 121.068 444.715 120.523L444.349 120.833C444.841 121.414 445.43 121.939 446.113 122.408L446.385 122.013ZM444.716 120.524C444.253 119.971 443.9 119.389 443.655 118.779L443.21 118.958C443.475 119.619 443.855 120.244 444.348 120.832L444.716 120.524ZM443.655 118.778C443.404 118.161 443.28 117.531 443.28 116.888H442.8C442.8 117.595 442.937 118.286 443.21 118.959L443.655 118.778ZM443.28 116.888C443.28 116.202 443.394 115.668 443.605 115.27L443.181 115.045C442.921 115.534 442.8 116.154 442.8 116.888H443.28ZM443.607 115.266C443.813 114.859 444.111 114.569 444.505 114.385L444.303 113.95C443.807 114.181 443.431 114.55 443.179 115.049L443.607 115.266ZM444.51 114.382C444.907 114.187 445.397 114.088 445.99 114.097L445.998 113.617C445.348 113.607 444.778 113.715 444.298 113.952L444.51 114.382ZM445.99 114.097C446.588 114.107 447.272 114.209 448.045 114.408L448.164 113.943C447.366 113.738 446.643 113.628 445.998 113.617L445.99 114.097ZM448.022 114.401L448.925 114.729L449.089 114.278L448.186 113.95L448.022 114.401ZM448.907 114.721C449.673 115.075 450.36 115.472 450.967 115.91L451.248 115.521C450.613 115.062 449.899 114.651 449.108 114.285L448.907 114.721ZM450.969 115.911C451.575 116.342 452.089 116.816 452.512 117.333L452.883 117.029C452.43 116.476 451.884 115.973 451.247 115.52L450.969 115.911ZM452.513 117.334C452.935 117.843 453.258 118.395 453.484 118.991L453.933 118.821C453.688 118.174 453.337 117.576 452.882 117.028L452.513 117.334ZM453.484 118.989C453.702 119.58 453.812 120.219 453.812 120.911H454.292C454.292 120.168 454.173 119.471 453.934 118.823L453.484 118.989ZM453.812 120.911C453.812 121.54 453.685 122.052 453.443 122.459L453.856 122.704C454.151 122.206 454.292 121.604 454.292 120.911H453.812ZM453.444 122.458C453.202 122.861 452.863 123.161 452.421 123.363L452.621 123.799C453.148 123.559 453.562 123.193 453.855 122.705L453.444 122.458ZM452.424 123.362C451.98 123.558 451.448 123.65 450.821 123.629L450.805 124.109C451.487 124.132 452.094 124.032 452.618 123.801L452.424 123.362ZM450.825 123.629C450.193 123.599 449.5 123.45 448.746 123.176L448.582 123.627C449.371 123.914 450.112 124.076 450.802 124.109L450.825 123.629ZM448.376 121.609L448.582 121.684L448.746 121.233L448.54 121.158L448.376 121.609ZM448.582 121.684C449.126 121.882 449.641 122.012 450.126 122.072L450.185 121.596C449.742 121.541 449.262 121.421 448.746 121.233L448.582 121.684ZM450.13 122.072C450.62 122.126 451.064 122.093 451.457 121.965L451.308 121.508C450.994 121.611 450.621 121.643 450.182 121.595L450.13 122.072ZM451.457 121.965C451.86 121.833 452.183 121.592 452.416 121.244L452.018 120.977C451.845 121.233 451.612 121.409 451.308 121.508L451.457 121.965ZM452.419 121.24C452.649 120.883 452.751 120.419 452.751 119.87H452.271C452.271 120.366 452.178 120.728 452.015 120.98L452.419 121.24ZM452.751 119.87C452.751 119.197 452.617 118.587 452.343 118.046L451.914 118.263C452.15 118.728 452.271 119.262 452.271 119.87H452.751ZM452.343 118.047C452.076 117.512 451.722 117.033 451.284 116.611L450.951 116.957C451.351 117.342 451.671 117.776 451.914 118.262L452.343 118.047ZM451.284 116.611C450.854 116.198 450.387 115.828 449.884 115.502L449.623 115.905C450.101 116.215 450.544 116.565 450.951 116.957L451.284 116.611ZM449.835 115.478L447.47 114.619L447.306 115.07L449.671 115.929L449.835 115.478ZM447.419 114.606C447.041 114.557 446.675 114.552 446.32 114.593L446.375 115.07C446.688 115.034 447.015 115.037 447.357 115.082L447.419 114.606ZM446.327 114.593C445.955 114.625 445.618 114.727 445.322 114.903L445.567 115.316C445.794 115.181 446.06 115.098 446.368 115.071L446.327 114.593ZM445.33 114.898C445.014 115.07 444.769 115.334 444.593 115.676L445.02 115.896C445.158 115.628 445.338 115.44 445.559 115.32L445.33 114.898ZM444.594 115.674C444.413 116.018 444.331 116.454 444.331 116.964H444.811C444.811 116.499 444.886 116.149 445.019 115.898L444.594 115.674ZM444.331 116.964C444.331 117.526 444.442 118.054 444.667 118.546L445.103 118.346C444.909 117.92 444.811 117.46 444.811 116.964H444.331ZM444.666 118.545C444.881 119.021 445.178 119.455 445.556 119.849L445.902 119.516C445.56 119.16 445.295 118.771 445.104 118.347L444.666 118.545ZM445.555 119.848C445.924 120.236 446.353 120.58 446.84 120.879L447.091 120.47C446.637 120.191 446.241 119.873 445.903 119.517L445.555 119.848ZM446.842 120.88C447.32 121.169 447.832 121.412 448.376 121.609L448.54 121.158C448.024 120.971 447.541 120.741 447.09 120.469L446.842 120.88ZM463.265 106.552L465.188 92.3922L464.713 92.3276L462.79 106.488L463.265 106.552ZM464.807 92.1677L462.883 93.6078L463.171 93.992L465.094 92.552L464.807 92.1677ZM463.171 93.6078L461.248 92.1678L460.961 92.552L462.883 93.992L463.171 93.6078ZM460.867 92.3922L462.79 106.552L463.265 106.488L461.342 92.3276L460.867 92.3922ZM463.267 106.52V86.8398H462.787V106.52H463.267ZM464.71 92.8399H464.951V92.3599H464.71V92.8399ZM464.47 93.0799H464.951V92.5999H464.47V93.0799ZM463.989 93.3199H464.951V92.8399H463.989V93.3199ZM463.749 93.5599H464.951V93.0799H463.749V93.5599ZM463.508 93.7999H464.951V93.3199H463.508V93.7999ZM463.027 94.0399L464.951 94.0399L464.95 93.5599L463.027 93.5599L463.027 94.0399ZM463.027 105.08H463.268V104.6H463.027V105.08ZM463.027 105.32H463.268V104.84H463.027V105.32ZM463.027 105.56H463.268V105.08H463.027V105.56ZM463.027 105.8H463.268V105.32H463.027V105.8ZM463.027 106.04H463.268V105.56H463.027V106.04ZM463.027 106.28H463.268V105.8H463.027V106.28ZM463.027 106.52H463.268V106.04H463.027V106.52ZM461.345 92.8399H461.585V92.3599H461.345V92.8399ZM461.345 93.0799H461.826V92.5999H461.345V93.0799ZM461.345 93.3199H462.066V92.8399H461.345V93.3199ZM461.345 93.5599H462.547V93.0799H461.345V93.5599ZM461.345 93.7999H462.787V93.3199H461.345V93.7999ZM461.345 94.0399L463.027 94.0399L463.027 93.5599L461.345 93.5599L461.345 94.0399ZM462.79 134.328L460.867 148.488L461.342 148.552L463.266 134.392L462.79 134.328ZM461.248 148.712L463.172 147.272L462.884 146.888L460.961 148.328L461.248 148.712ZM462.884 147.272L464.807 148.712L465.094 148.328L463.172 146.888L462.884 147.272ZM465.188 148.488L463.266 134.328L462.79 134.392L464.713 148.552L465.188 148.488ZM462.788 134.36L462.787 154.28L463.267 154.28L463.268 134.36L462.788 134.36ZM461.345 147.32L463.028 147.32L463.028 146.84L461.345 146.84L461.345 147.32ZM461.345 147.56H462.787V147.08H461.345V147.56ZM461.345 147.8H462.547V147.32H461.345V147.8ZM461.345 148.04H462.066V147.56H461.345V148.04ZM461.345 148.28H461.826V147.8H461.345V148.28ZM461.345 148.52H461.585V148.04H461.345V148.52ZM463.027 134.84H463.268V134.36H463.027V134.84ZM463.027 135.08H463.268V134.6H463.027V135.08ZM463.027 135.32H463.268V134.84H463.027V135.32ZM463.027 135.56H463.268V135.08H463.027V135.56ZM463.027 135.8H463.268V135.32H463.027V135.8ZM463.027 136.04H463.268V135.56H463.027V136.04ZM463.027 136.28H463.268V135.8H463.027V136.28ZM463.028 147.32L464.95 147.32L464.951 146.84L463.028 146.84L463.028 147.32ZM463.508 147.56H464.951V147.08H463.508V147.56ZM463.749 147.8H464.951V147.32H463.749V147.8ZM463.989 148.04H464.951V147.56H463.989V148.04ZM464.47 148.28H464.951V147.8H464.47V148.28ZM464.71 148.52H464.951V148.04H464.71V148.52ZM462.787 106.52L462.788 134.36L463.268 134.36L463.267 106.52L462.787 106.52ZM461.345 94.2799L464.951 94.2799L464.951 93.7999L461.345 93.7999L461.345 94.2799ZM461.585 94.5199L464.71 94.5199L464.71 94.0399L461.585 94.0399L461.585 94.5199ZM461.585 94.7599L464.71 94.7599L464.71 94.2799L461.585 94.2799L461.585 94.7599ZM461.585 94.9999L464.71 94.9999L464.71 94.5199L461.585 94.5199L461.585 94.9999ZM461.585 95.2399L464.71 95.2399L464.71 94.7599L461.585 94.7599L461.585 95.2399ZM461.585 95.4799L464.71 95.4799L464.71 94.9999L461.585 94.9999L461.585 95.4799ZM461.585 95.7199L464.71 95.7199L464.71 95.2399L461.585 95.2399L461.585 95.7199ZM461.585 95.9599L464.71 95.9599L464.71 95.4799L461.585 95.4799L461.585 95.9599ZM461.826 96.1999L464.47 96.1999L464.47 95.7199L461.826 95.7199L461.826 96.1999ZM461.826 96.4399L464.47 96.4399L464.47 95.9599L461.826 95.9599L461.826 96.4399ZM461.826 96.6799L464.47 96.6799L464.47 96.1999L461.826 96.1999L461.826 96.6799ZM461.826 96.9199L464.47 96.9199L464.47 96.4399L461.826 96.4399L461.826 96.9199ZM461.826 97.1599L464.47 97.1599L464.47 96.6799L461.826 96.6799L461.826 97.1599ZM461.826 97.3999L464.47 97.3999L464.47 96.9199L461.826 96.9199L461.826 97.3999ZM461.826 97.6399L464.47 97.6399L464.47 97.1599L461.826 97.1599L461.826 97.6399ZM461.826 97.8799L464.47 97.8799L464.47 97.3999L461.826 97.3999L461.826 97.8799ZM462.066 98.1199L464.229 98.1199L464.229 97.6399L462.066 97.6399L462.066 98.1199ZM462.066 98.3599L464.229 98.3599L464.229 97.8799L462.066 97.8799L462.066 98.3599ZM462.066 98.5999L464.229 98.5999L464.229 98.1199L462.066 98.1199L462.066 98.5999ZM462.066 98.8399L464.229 98.8399L464.229 98.3599L462.066 98.3599L462.066 98.8399ZM462.066 99.0799L464.229 99.0799L464.229 98.5999L462.066 98.5999L462.066 99.0799ZM462.066 99.3199L464.229 99.3199L464.229 98.8399L462.066 98.8399L462.066 99.3199ZM462.066 99.5599L464.229 99.5598L464.229 99.0798L462.066 99.0799L462.066 99.5599ZM462.306 99.7999L463.989 99.7998L463.989 99.3198L462.306 99.3199L462.306 99.7999ZM462.306 100.04L463.989 100.04L463.989 99.5598L462.306 99.5599L462.306 100.04ZM462.306 100.28L463.989 100.28L463.989 99.7998L462.306 99.7999L462.306 100.28ZM462.306 100.52L463.989 100.52L463.989 100.04L462.306 100.04L462.306 100.52ZM462.306 100.76L463.989 100.76L463.989 100.28L462.306 100.28L462.306 100.76ZM462.306 101L463.989 101L463.989 100.52L462.306 100.52L462.306 101ZM462.306 101.24L463.989 101.24L463.989 100.76L462.306 100.76L462.306 101.24ZM462.547 101.48L463.749 101.48L463.749 101L462.547 101L462.547 101.48ZM462.547 101.72L463.749 101.72L463.749 101.24L462.547 101.24L462.547 101.72ZM462.547 101.96L463.749 101.96L463.749 101.48L462.547 101.48L462.547 101.96ZM462.547 102.2L463.749 102.2L463.749 101.72L462.547 101.72L462.547 102.2ZM462.547 102.44L463.749 102.44L463.749 101.96L462.547 101.96L462.547 102.44ZM462.547 102.68L463.749 102.68L463.749 102.2L462.547 102.2L462.547 102.68ZM462.547 102.92L463.749 102.92L463.749 102.44L462.547 102.44L462.547 102.92ZM462.547 103.16L463.749 103.16L463.749 102.68L462.547 102.68L462.547 103.16ZM462.787 103.4L463.508 103.4L463.508 102.92L462.787 102.92L462.787 103.4ZM462.787 103.64L463.508 103.64L463.508 103.16L462.787 103.16L462.787 103.64ZM462.787 103.88L463.508 103.88L463.508 103.4L462.787 103.4L462.787 103.88ZM462.787 104.12L463.508 104.12L463.508 103.64L462.787 103.64L462.787 104.12ZM462.787 104.36L463.508 104.36L463.508 103.88L462.787 103.88L462.787 104.36ZM462.787 104.6L463.508 104.6L463.508 104.12L462.787 104.12L462.787 104.6ZM462.787 104.84L463.508 104.84L463.508 104.36L462.787 104.36L462.787 104.84ZM462.787 136.52L463.508 136.52L463.508 136.04L462.787 136.04L462.787 136.52ZM462.787 136.76L463.508 136.76L463.508 136.28L462.787 136.28L462.787 136.76ZM462.787 137L463.508 137L463.508 136.52L462.787 136.52L462.787 137ZM462.787 137.24L463.508 137.24L463.508 136.76L462.787 136.76L462.787 137.24ZM462.787 137.48L463.508 137.48L463.508 137L462.787 137L462.787 137.48ZM462.787 137.72L463.508 137.72L463.508 137.24L462.787 137.24L462.787 137.72ZM462.787 137.96L463.508 137.96L463.508 137.48L462.787 137.48L462.787 137.96ZM462.547 138.2L463.749 138.2L463.748 137.72L462.547 137.72L462.547 138.2ZM462.547 138.44L463.749 138.44L463.748 137.96L462.547 137.96L462.547 138.44ZM462.547 138.68L463.749 138.68L463.748 138.2L462.547 138.2L462.547 138.68ZM462.547 138.92L463.749 138.92L463.748 138.44L462.547 138.44L462.547 138.92ZM462.547 139.16L463.749 139.16L463.748 138.68L462.547 138.68L462.547 139.16ZM462.547 139.4L463.749 139.4L463.748 138.92L462.547 138.92L462.547 139.4ZM462.547 139.64L463.749 139.64L463.748 139.16L462.547 139.16L462.547 139.64ZM462.547 139.88L463.749 139.88L463.748 139.4L462.547 139.4L462.547 139.88ZM462.306 140.12L463.989 140.12L463.989 139.64L462.306 139.64L462.306 140.12ZM462.306 140.36L463.989 140.36L463.989 139.88L462.306 139.88L462.306 140.36ZM462.306 140.6L463.989 140.6L463.989 140.12L462.306 140.12L462.306 140.6ZM462.306 140.84L463.989 140.84L463.989 140.36L462.306 140.36L462.306 140.84ZM462.306 141.08L463.989 141.08L463.989 140.6L462.306 140.6L462.306 141.08ZM462.306 141.32L463.989 141.32L463.989 140.84L462.306 140.84L462.306 141.32ZM462.306 141.56L463.989 141.56L463.989 141.08L462.306 141.08L462.306 141.56ZM462.066 141.8L464.229 141.8L464.229 141.32L462.066 141.32L462.066 141.8ZM462.066 142.04L464.229 142.04L464.229 141.56L462.066 141.56L462.066 142.04ZM462.066 142.28L464.229 142.28L464.229 141.8L462.066 141.8L462.066 142.28ZM462.066 142.52L464.229 142.52L464.229 142.04L462.066 142.04L462.066 142.52ZM462.066 142.76L464.229 142.76L464.229 142.28L462.066 142.28L462.066 142.76ZM462.066 143L464.229 143L464.229 142.52L462.066 142.52L462.066 143ZM462.066 143.24L464.229 143.24L464.229 142.76L462.066 142.76L462.066 143.24ZM461.826 143.48L464.47 143.48L464.47 143L461.826 143L461.826 143.48ZM461.826 143.72L464.47 143.72L464.47 143.24L461.826 143.24L461.826 143.72ZM461.826 143.96L464.47 143.96L464.47 143.48L461.826 143.48L461.826 143.96ZM461.826 144.2L464.47 144.2L464.47 143.72L461.826 143.72L461.826 144.2ZM461.826 144.44L464.47 144.44L464.47 143.96L461.826 143.96L461.826 144.44ZM461.826 144.68L464.47 144.68L464.47 144.2L461.826 144.2L461.826 144.68ZM461.826 144.92L464.47 144.92L464.47 144.44L461.826 144.44L461.826 144.92ZM461.826 145.16L464.47 145.16L464.47 144.68L461.826 144.68L461.826 145.16ZM461.585 145.4L464.71 145.4L464.71 144.92L461.585 144.92L461.585 145.4ZM461.585 145.64L464.71 145.64L464.71 145.16L461.585 145.16L461.585 145.64ZM461.585 145.88L464.71 145.88L464.71 145.4L461.585 145.4L461.585 145.88ZM461.585 146.12L464.71 146.12L464.71 145.64L461.585 145.64L461.585 146.12ZM461.585 146.36L464.71 146.36L464.71 145.88L461.585 145.88L461.585 146.36ZM461.585 146.6L464.71 146.6L464.71 146.12L461.585 146.12L461.585 146.6ZM461.585 146.84L464.71 146.84L464.71 146.36L461.585 146.36L461.585 146.84ZM461.345 147.08L464.951 147.08L464.95 146.6L461.345 146.6L461.345 147.08Z" fill="white"/>

    </g>
    <!--    8 dH-->
    <g class="group">
    </g>
    <!--    9 d1-->
    <g class="group">
    </g>
    <!--    10 d2-->
    <g class="group">
    </g>
    <!--    11 L-->
    <g class="group">
        <path d="M111.791 107.796L111.23 109.336H103.627L104.189 107.796H111.791ZM109.233 95.0514L104.024 109.336H102.009L107.217 95.0514H109.233Z" fill="white"/>
        <path d="M173.825 85.1599C173.825 85.0274 173.718 84.9199 173.585 84.9199C173.452 84.9199 173.345 85.0274 173.345 85.1599H173.825ZM173.345 124.04C173.345 124.172 173.452 124.28 173.585 124.28C173.718 124.28 173.825 124.172 173.825 124.04H173.345ZM37.9978 85.1599C37.9978 85.0274 37.8904 84.9199 37.7578 84.9199C37.6253 84.9199 37.5178 85.0274 37.5178 85.1599H37.9978ZM37.5178 124.04C37.5178 124.172 37.6253 124.28 37.7578 124.28C37.8904 124.28 37.9978 124.172 37.9978 124.04H37.5178ZM111.791 107.796L112.017 107.878C112.044 107.805 112.033 107.723 111.988 107.658C111.943 107.594 111.87 107.556 111.791 107.556V107.796ZM111.23 109.336V109.576C111.331 109.576 111.421 109.513 111.455 109.419L111.23 109.336ZM103.627 109.336L103.402 109.254C103.375 109.328 103.386 109.41 103.431 109.474C103.476 109.538 103.549 109.576 103.627 109.576V109.336ZM104.189 107.796V107.556C104.088 107.556 103.998 107.619 103.963 107.714L104.189 107.796ZM109.233 95.0514L109.458 95.1336C109.485 95.06 109.474 94.978 109.429 94.9138C109.384 94.8496 109.311 94.8114 109.233 94.8114V95.0514ZM104.024 109.336V109.576C104.125 109.576 104.215 109.513 104.25 109.419L104.024 109.336ZM102.009 109.336L101.783 109.254C101.756 109.328 101.767 109.41 101.812 109.474C101.857 109.538 101.93 109.576 102.009 109.576V109.336ZM107.217 95.0514V94.8114C107.116 94.8114 107.026 94.8744 106.992 94.9692L107.217 95.0514ZM173.585 118.52L173.617 118.758C173.736 118.742 173.825 118.64 173.825 118.52C173.825 118.4 173.736 118.298 173.617 118.282L173.585 118.52ZM159.401 120.44L159.209 120.296C159.151 120.373 159.145 120.478 159.194 120.561C159.243 120.645 159.338 120.691 159.434 120.678L159.401 120.44ZM159.401 116.6L159.434 116.362C159.338 116.349 159.243 116.395 159.194 116.478C159.145 116.562 159.151 116.667 159.209 116.744L159.401 116.6ZM37.7578 118.52L37.7261 118.282C37.6069 118.298 37.5178 118.4 37.5178 118.52C37.5178 118.64 37.6069 118.742 37.7261 118.758L37.7578 118.52ZM52.1819 116.6L52.3738 116.744C52.4319 116.667 52.4378 116.562 52.389 116.479C52.3402 116.395 52.246 116.349 52.1502 116.362L52.1819 116.6ZM52.1826 120.44L52.151 120.678C52.2468 120.691 52.341 120.645 52.3898 120.561C52.4386 120.478 52.4326 120.373 52.3745 120.296L52.1826 120.44ZM173.345 85.1599V124.04H173.825V85.1599H173.345ZM37.5178 85.1599V124.04H37.9978V85.1599H37.5178ZM111.566 107.714L111.004 109.254L111.455 109.419L112.017 107.878L111.566 107.714ZM111.23 109.096H103.627V109.576H111.23V109.096ZM103.853 109.419L104.414 107.878L103.963 107.714L103.402 109.254L103.853 109.419ZM104.189 108.036H111.791V107.556H104.189V108.036ZM109.007 94.9692L103.799 109.254L104.25 109.419L109.458 95.1336L109.007 94.9692ZM104.024 109.096H102.009V109.576H104.024V109.096ZM102.234 109.419L107.442 95.1336L106.992 94.9692L101.783 109.254L102.234 109.419ZM107.217 95.2914H109.233V94.8114H107.217V95.2914ZM173.553 118.282L159.369 120.202L159.434 120.678L173.617 118.758L173.553 118.282ZM159.593 120.584L161.036 118.664L160.652 118.376L159.209 120.296L159.593 120.584ZM161.036 118.376L159.593 116.456L159.209 116.744L160.652 118.664L161.036 118.376ZM159.369 116.838L173.553 118.758L173.617 118.282L159.434 116.362L159.369 116.838ZM160.844 118.76H173.585V118.28H160.844V118.76ZM160.844 119H171.902V118.52H160.844V119ZM160.603 119.24H170.219V118.76H160.603V119.24ZM160.363 119.48H168.296V119H160.363V119.48ZM160.122 119.72H166.613V119.24H160.122V119.72ZM160.122 119.96H164.93V119.48H160.122V119.96ZM159.882 120.2H163.007V119.72H159.882V120.2ZM159.642 120.44H161.324V119.96H159.642V120.44ZM159.642 117.08H161.324V116.6H159.642V117.08ZM159.882 117.32H163.007V116.84H159.882V117.32ZM160.122 117.56H164.93V117.08H160.122V117.56ZM160.122 117.8H166.613V117.32H160.122V117.8ZM160.363 118.04H168.296V117.56H160.363V118.04ZM160.603 118.28H170.219V117.8H160.603V118.28ZM160.844 118.52H171.902V118.04H160.844V118.52ZM37.7895 118.758L52.2136 116.838L52.1502 116.362L37.7261 118.282L37.7895 118.758ZM51.99 116.456L50.5483 118.376L50.9322 118.664L52.3738 116.744L51.99 116.456ZM50.5483 118.664L51.9908 120.584L52.3745 120.296L50.9321 118.376L50.5483 118.664ZM52.2143 120.202L37.7895 118.282L37.7261 118.758L52.151 120.678L52.2143 120.202ZM50.4997 117.08H52.1825V116.6H50.4997V117.08ZM48.5765 117.32H51.9421V116.84H48.5765V117.32ZM46.8937 117.56H51.7017V117.08H46.8937V117.56ZM44.9705 117.8H51.4613V117.32H44.9705V117.8ZM43.2877 118.04H51.4613V117.56H43.2877V118.04ZM41.3644 118.28H51.2209V117.8H41.3644V118.28ZM39.6816 118.52H50.9805V118.04H39.6816V118.52ZM37.7578 118.76H50.7402V118.28H37.7578V118.76ZM39.681 119H50.9799V118.52H39.681V119ZM41.3638 119.24H51.2203V118.76H41.3638V119.24ZM43.287 119.48H51.4607V119H43.287V119.48ZM44.9698 119.72H51.4607V119.24H44.9698V119.72ZM46.8931 119.96H51.7011V119.48H46.8931V119.96ZM48.5759 120.2H51.9415V119.72H48.5759V120.2ZM50.4991 120.44H52.1819V119.96H50.4991V120.44ZM173.585 118.28L37.7578 118.28L37.7578 118.76L173.585 118.76L173.585 118.28Z" fill="white"/>
        <path d="M360.705 160.127L360.144 161.668H352.541L353.103 160.127H360.705ZM358.147 147.383L352.938 161.668H350.923L356.131 147.383H358.147Z" fill="white"/>
        <path d="M287.053 140.6C287.053 140.467 286.946 140.36 286.813 140.36C286.681 140.36 286.573 140.467 286.573 140.6H287.053ZM286.573 176.36C286.573 176.492 286.681 176.6 286.813 176.6C286.946 176.6 287.053 176.492 287.053 176.36H286.573ZM422.64 140.6C422.64 140.467 422.533 140.36 422.4 140.36C422.268 140.36 422.16 140.467 422.16 140.6H422.64ZM422.16 176.36C422.16 176.492 422.268 176.6 422.4 176.6C422.533 176.6 422.64 176.492 422.64 176.36H422.16ZM360.705 160.127L360.931 160.21C360.958 160.136 360.947 160.054 360.902 159.99C360.857 159.926 360.784 159.887 360.705 159.887V160.127ZM360.144 161.668V161.908C360.245 161.908 360.335 161.845 360.369 161.75L360.144 161.668ZM352.541 161.668L352.316 161.585C352.289 161.659 352.3 161.741 352.345 161.805C352.39 161.869 352.463 161.908 352.541 161.908V161.668ZM353.103 160.127V159.887C353.002 159.887 352.912 159.95 352.877 160.045L353.103 160.127ZM358.147 147.383L358.372 147.465C358.399 147.391 358.388 147.309 358.343 147.245C358.298 147.181 358.225 147.143 358.147 147.143V147.383ZM352.938 161.668V161.908C353.039 161.908 353.129 161.845 353.164 161.75L352.938 161.668ZM350.923 161.668L350.697 161.585C350.67 161.659 350.681 161.741 350.726 161.805C350.771 161.869 350.844 161.908 350.923 161.908V161.668ZM356.131 147.383V147.143C356.03 147.143 355.94 147.206 355.906 147.3L356.131 147.383ZM286.813 170.84L286.781 170.602C286.662 170.618 286.573 170.72 286.573 170.84C286.573 170.96 286.662 171.062 286.781 171.078L286.813 170.84ZM300.997 168.92L301.189 169.064C301.247 168.987 301.253 168.882 301.204 168.798C301.155 168.715 301.061 168.669 300.965 168.682L300.997 168.92ZM300.997 172.76L300.965 172.998C301.061 173.011 301.155 172.965 301.204 172.881C301.253 172.798 301.247 172.693 301.189 172.616L300.997 172.76ZM422.4 170.84L422.432 171.078C422.551 171.062 422.64 170.96 422.64 170.84C422.64 170.72 422.551 170.618 422.432 170.602L422.4 170.84ZM408.216 172.76L408.024 172.616C407.966 172.693 407.96 172.798 408.009 172.881C408.058 172.965 408.152 173.011 408.248 172.998L408.216 172.76ZM408.216 168.92L408.248 168.682C408.152 168.669 408.058 168.715 408.009 168.798C407.96 168.882 407.966 168.987 408.024 169.064L408.216 168.92ZM286.573 140.6V176.36H287.053V140.6H286.573ZM422.16 140.6V176.36H422.64V140.6H422.16ZM360.48 160.045L359.918 161.585L360.369 161.75L360.931 160.21L360.48 160.045ZM360.144 161.428H352.541V161.908H360.144V161.428ZM352.767 161.75L353.328 160.21L352.877 160.045L352.316 161.585L352.767 161.75ZM353.103 160.367H360.705V159.887H353.103V160.367ZM357.921 147.3L352.713 161.585L353.164 161.75L358.372 147.465L357.921 147.3ZM352.938 161.428H350.923V161.908H352.938V161.428ZM351.148 161.75L356.357 147.465L355.906 147.3L350.697 161.585L351.148 161.75ZM356.131 147.623H358.147V147.143H356.131V147.623ZM286.846 171.078L301.029 169.158L300.965 168.682L286.781 170.602L286.846 171.078ZM300.805 168.776L299.363 170.696L299.747 170.984L301.189 169.064L300.805 168.776ZM299.363 170.984L300.805 172.904L301.189 172.616L299.747 170.696L299.363 170.984ZM301.029 172.522L286.846 170.602L286.781 171.078L300.965 172.998L301.029 172.522ZM299.315 169.4H300.998V168.92H299.315V169.4ZM297.632 169.64H300.757V169.16H297.632V169.64ZM295.709 169.88H300.517V169.4H295.709V169.88ZM294.026 170.12H300.277V169.64H294.026V170.12ZM292.343 170.36H300.277V169.88H292.343V170.36ZM290.42 170.6H300.036V170.12H290.42V170.6ZM288.737 170.84H299.796V170.36H288.737V170.84ZM286.813 171.08H299.555V170.6H286.813V171.08ZM288.737 171.32H299.795V170.84H288.737V171.32ZM290.419 171.56H300.036V171.08H290.419V171.56ZM292.343 171.8H300.276V171.32H292.343V171.8ZM294.026 172.04H300.276V171.56H294.026V172.04ZM295.708 172.28H300.516V171.8H295.708V172.28ZM297.632 172.52H300.757V172.04H297.632V172.52ZM299.314 172.76H300.997V172.28H299.314V172.76ZM422.367 170.602L408.184 172.522L408.248 172.998L422.432 171.078L422.367 170.602ZM408.408 172.904L409.85 170.984L409.466 170.696L408.024 172.616L408.408 172.904ZM409.85 170.696L408.408 168.776L408.024 169.064L409.466 170.984L409.85 170.696ZM408.184 169.158L422.367 171.078L422.432 170.602L408.248 168.682L408.184 169.158ZM409.658 171.08H422.4V170.6H409.658V171.08ZM409.659 171.32H420.717V170.84H409.659V171.32ZM409.419 171.56H419.035V171.08H409.419V171.56ZM409.178 171.8H417.111V171.32H409.178V171.8ZM408.938 172.04H415.429V171.56H408.938V172.04ZM408.938 172.28H413.746V171.8H408.938V172.28ZM408.697 172.52H411.823V172.04H408.697V172.52ZM408.457 172.76H410.14V172.28H408.457V172.76ZM408.457 169.4H410.14V168.92H408.457V169.4ZM408.697 169.64H411.823V169.16H408.697V169.64ZM408.938 169.88H413.746V169.4H408.938V169.88ZM408.938 170.12H415.429V169.64H408.938V170.12ZM409.178 170.36H417.111V169.88H409.178V170.36ZM409.419 170.6H419.035V170.12H409.419V170.6ZM409.659 170.84H420.717V170.36H409.659V170.84ZM286.813 171.08L422.4 171.08L422.4 170.6L286.813 170.6L286.813 171.08Z" fill="white"/>
    </g>
    <!--    12 L1-->
    <g class="group">
    </g>
    <!--    13 L2-->
    <g class="group">
    </g>
    <!--    14 S-->
    <g class="group">
        <path d="M9.09001 76.8936C8.82828 76.7985 8.58618 76.7732 8.36371 76.8177C8.13469 76.8528 7.92858 77.025 7.74536 77.3344C7.55561 77.6344 7.39202 78.1319 7.25462 78.8269C7.13029 79.4083 6.98307 79.9222 6.81294 80.3686C6.64282 80.8081 6.4367 81.1613 6.1946 81.4284C5.9525 81.6885 5.66786 81.8531 5.3407 81.9222C5.01353 81.9913 4.63075 81.9462 4.19235 81.7869C3.77358 81.6347 3.37771 81.3934 3.00474 81.0629C2.63177 80.7255 2.30133 80.3234 2.01343 79.8568C1.72552 79.3832 1.49978 78.8591 1.33619 78.2844C1.17261 77.7098 1.09082 77.1057 1.09082 76.4722C1.09082 75.5671 1.24132 74.849 1.54231 74.3179C1.8433 73.7868 2.24571 73.4422 2.74955 73.2842C3.24684 73.1238 3.79975 73.1541 4.40828 73.3752V75.3072C4.11383 75.2002 3.82919 75.1907 3.55438 75.2788C3.27301 75.3576 3.04073 75.5412 2.85751 75.8297C2.6743 76.1112 2.58269 76.5061 2.58269 77.0143C2.58269 77.5504 2.66121 78.0141 2.81825 78.4053C2.96875 78.7872 3.16178 79.0975 3.39734 79.3363C3.63289 79.5681 3.88154 79.7315 4.14327 79.8267C4.33957 79.898 4.51624 79.9274 4.67328 79.9148C4.82378 79.8929 4.96446 79.8118 5.09532 79.6714C5.21965 79.5286 5.33743 79.3068 5.44866 79.0061C5.5599 78.7054 5.67113 78.3107 5.78237 77.822C5.97867 76.9674 6.21423 76.2907 6.48905 75.7918C6.76387 75.2929 7.10085 74.9698 7.49999 74.8225C7.89913 74.6751 8.38334 74.7049 8.9526 74.9117C9.41718 75.0806 9.84249 75.3396 10.2285 75.6887C10.6146 76.0309 10.9483 76.448 11.2297 76.9402C11.5045 77.4229 11.7204 77.9609 11.8775 78.554C12.028 79.1378 12.1032 79.7604 12.1032 80.4218C12.1032 81.4174 11.9364 82.1991 11.6026 82.7671C11.2689 83.335 10.8371 83.7003 10.3071 83.8627C9.77706 84.0252 9.21761 83.9994 8.62871 83.7854V81.843C9.126 81.9959 9.52187 81.9866 9.81632 81.8151C10.1042 81.6412 10.3103 81.375 10.4347 81.0164C10.5524 80.6554 10.6113 80.2765 10.6113 79.8797C10.6113 79.3505 10.5459 78.8847 10.415 78.4821C10.2842 78.0725 10.1042 77.7321 9.87521 77.4609C9.64619 77.1897 9.38446 77.0006 9.09001 76.8936Z" fill="white"/>
        <path d="M35.1135 51.3198C35.246 51.3198 35.3535 51.2124 35.3535 51.0798C35.3535 50.9473 35.246 50.8398 35.1135 50.8398V51.3198ZM15.4006 50.8398C15.268 50.8398 15.1606 50.9473 15.1606 51.0798C15.1606 51.2124 15.268 51.3198 15.4006 51.3198V50.8398ZM35.1135 53.96C35.246 53.96 35.3535 53.8525 35.3535 53.72C35.3535 53.5874 35.246 53.48 35.1135 53.48V53.96ZM15.4006 53.48C15.268 53.48 15.1606 53.5874 15.1606 53.72C15.1606 53.8525 15.268 53.96 15.4006 53.96V53.48ZM20.9311 92.3599C20.9311 92.4924 21.0385 92.5999 21.1711 92.5999C21.3036 92.5999 21.4111 92.4924 21.4111 92.3599H20.9311ZM9.09001 76.8936L9.00804 77.1192L9.00804 77.1192L9.09001 76.8936ZM8.36371 76.8177L8.40013 77.0551L8.41075 77.053L8.36371 76.8177ZM7.74536 77.3344L7.94829 77.4627L7.95187 77.4567L7.74536 77.3344ZM7.25462 78.8269L7.48934 78.8771L7.49006 78.8735L7.25462 78.8269ZM6.81294 80.3686L7.03676 80.4553L7.03721 80.4541L6.81294 80.3686ZM6.1946 81.4284L6.3703 81.5919L6.37242 81.5896L6.1946 81.4284ZM4.19235 81.7869L4.27432 81.5613L4.19235 81.7869ZM3.00474 81.0629L2.84371 81.2409L2.84558 81.2425L3.00474 81.0629ZM2.01343 79.8568L1.80834 79.9815L1.80917 79.9828L2.01343 79.8568ZM2.74955 73.2842L2.82138 73.5132L2.82323 73.5126L2.74955 73.2842ZM4.40828 73.3752H4.64828C4.64828 73.2743 4.58512 73.1842 4.49025 73.1497L4.40828 73.3752ZM4.40828 75.3072L4.32631 75.5328C4.39988 75.5595 4.48187 75.5487 4.54599 75.5037C4.6101 75.4588 4.64828 75.3855 4.64828 75.3072H4.40828ZM3.55438 75.2788L3.61912 75.5101L3.62764 75.5074L3.55438 75.2788ZM2.85751 75.8297L3.05868 75.9606L3.06011 75.9584L2.85751 75.8297ZM2.81825 78.4053L3.04155 78.3173L3.04098 78.3159L2.81825 78.4053ZM3.39734 79.3363L3.22647 79.5049L3.229 79.5074L3.39734 79.3363ZM4.14327 79.8267L4.0613 80.0522L4.0613 80.0522L4.14327 79.8267ZM4.67328 79.9148L4.6924 80.1541C4.69756 80.1537 4.70271 80.1531 4.70783 80.1523L4.67328 79.9148ZM5.09532 79.6714L5.271 79.8351L5.27633 79.829L5.09532 79.6714ZM5.78237 77.822L5.54846 77.7683L5.54836 77.7687L5.78237 77.822ZM8.9526 74.9117L9.03457 74.6862L9.03457 74.6862L8.9526 74.9117ZM10.2285 75.6887L10.0676 75.8667L10.0694 75.8683L10.2285 75.6887ZM11.2297 76.9402L11.4382 76.8214L11.438 76.821L11.2297 76.9402ZM11.8775 78.554L12.1099 78.4941L12.1095 78.4926L11.8775 78.554ZM8.62871 83.7854H8.38871C8.38871 83.8863 8.45187 83.9765 8.54674 84.011L8.62871 83.7854ZM8.62871 81.843L8.69923 81.6136C8.62644 81.5912 8.54735 81.6047 8.4861 81.65C8.42485 81.6952 8.38871 81.7669 8.38871 81.843H8.62871ZM9.81632 81.8151L9.93711 82.0225L9.94038 82.0205L9.81632 81.8151ZM10.4347 81.0164L10.6615 81.095L10.6628 81.0908L10.4347 81.0164ZM10.415 78.4821L10.1864 78.5551L10.1868 78.5563L10.415 78.4821ZM22.8539 36.9199L23.0922 36.9482C23.1039 36.8501 23.0542 36.7548 22.967 36.7082C22.8798 36.6617 22.773 36.6733 22.6979 36.7376L22.8539 36.9199ZM21.1711 38.3599L21.1711 38.5999L21.1711 38.5999L21.1711 38.3599ZM19.2473 36.9199L19.3911 36.7278C19.3136 36.6698 19.209 36.664 19.1256 36.713C19.0422 36.7621 18.9964 36.8564 19.0094 36.9522L19.2473 36.9199ZM21.4111 31.1599C21.4111 31.0274 21.3036 30.9199 21.1711 30.9199C21.0385 30.9199 20.9311 31.0274 20.9311 31.1599H21.4111ZM19.2473 67.88L19.0094 67.8477C18.9969 67.9399 19.0388 68.031 19.1169 68.0815C19.1951 68.132 19.2954 68.1328 19.3743 68.0836L19.2473 67.88ZM22.8539 67.8799L22.7146 68.0754C22.7919 68.1305 22.8945 68.1348 22.9762 68.0864C23.058 68.038 23.1034 67.9459 23.0922 67.8516L22.8539 67.8799ZM20.9311 73.64C20.9311 73.7725 21.0385 73.88 21.1711 73.88C21.3036 73.88 21.4111 73.7725 21.4111 73.64H20.9311ZM35.1135 50.8398H15.4006V51.3198H35.1135V50.8398ZM35.1135 53.48H15.4006V53.96H35.1135V53.48ZM9.17198 76.6681C8.87833 76.5613 8.59106 76.5275 8.31666 76.5823L8.41075 77.053C8.5813 77.0189 8.77823 77.0357 9.00804 77.1192L9.17198 76.6681ZM8.32732 76.5804C7.99547 76.6313 7.73836 76.8752 7.53886 77.2121L7.95187 77.4567C8.11879 77.1748 8.27391 77.0742 8.4001 77.0549L8.32732 76.5804ZM7.54253 77.2061C7.32798 77.5453 7.15777 78.0794 7.01917 78.7804L7.49006 78.8735C7.62628 78.1845 7.78323 77.7235 7.9482 77.4627L7.54253 77.2061ZM7.01992 78.7768C6.89757 79.3489 6.75352 79.8506 6.58868 80.2832L7.03721 80.4541C7.21261 79.9939 7.36301 79.4678 7.48931 78.8771L7.01992 78.7768ZM6.58913 80.282C6.42654 80.702 6.23407 81.0275 6.01678 81.2672L6.37242 81.5896C6.63933 81.2951 6.85909 80.9142 7.03675 80.4553L6.58913 80.282ZM6.01892 81.2649C5.80827 81.4912 5.56679 81.6292 5.29111 81.6874L5.39028 82.157C5.76893 82.0771 6.09673 81.8858 6.37028 81.5919L6.01892 81.2649ZM5.29111 81.6874C5.02187 81.7442 4.68653 81.7111 4.27432 81.5613L4.11038 82.0124C4.57497 82.1813 5.0052 82.2384 5.39028 82.157L5.29111 81.6874ZM4.27432 81.5613C3.88711 81.4206 3.51693 81.1961 3.1639 80.8833L2.84558 81.2425C3.23849 81.5907 3.66004 81.8488 4.11038 82.0124L4.27432 81.5613ZM3.16575 80.8849C2.81101 80.564 2.49476 80.1799 2.21768 79.7308L1.80917 79.9828C2.1079 80.467 2.45252 80.887 2.84372 81.2409L3.16575 80.8849ZM2.21851 79.7321C1.94263 79.2783 1.72516 78.7742 1.56702 78.2187L1.10537 78.3502C1.27439 78.9439 1.50842 79.4881 1.80835 79.9815L2.21851 79.7321ZM1.56702 78.2187C1.40988 77.6667 1.33082 77.0848 1.33082 76.4722H0.85082C0.85082 77.1266 0.935342 77.7529 1.10537 78.3502L1.56702 78.2187ZM1.33082 76.4722C1.33082 75.59 1.47811 74.918 1.75111 74.4363L1.33351 74.1996C1.00453 74.7801 0.85082 75.5442 0.85082 76.4722H1.33082ZM1.75111 74.4363C2.02713 73.9492 2.3846 73.6502 2.82138 73.5132L2.67772 73.0552C2.10682 73.2343 1.65947 73.6244 1.33351 74.1996L1.75111 74.4363ZM2.82323 73.5126C3.25861 73.3721 3.75565 73.3934 4.32631 73.6008L4.49025 73.1497C3.84384 72.9148 3.23507 72.8754 2.67586 73.0558L2.82323 73.5126ZM4.16828 73.3752V75.3072H4.64828V73.3752H4.16828ZM4.49025 75.0816C4.15036 74.9581 3.81099 74.9445 3.48111 75.0503L3.62764 75.5074C3.84739 75.4369 4.0773 75.4423 4.32631 75.5328L4.49025 75.0816ZM3.48968 75.0477C3.14178 75.1451 2.86416 75.3716 2.65492 75.701L3.06011 75.9584C3.21729 75.7109 3.40424 75.5701 3.61907 75.51L3.48968 75.0477ZM2.65636 75.6988C2.43791 76.0345 2.34269 76.4819 2.34269 77.0143H2.82269C2.82269 76.5303 2.91069 76.188 3.05867 75.9606L2.65636 75.6988ZM2.34269 77.0143C2.34269 77.573 2.42444 78.0685 2.59553 78.4947L3.04098 78.3159C2.89799 77.9596 2.82269 77.5277 2.82269 77.0143H2.34269ZM2.59497 78.4933C2.75474 78.8987 2.96371 79.2385 3.22649 79.5048L3.56818 79.1677C3.35984 78.9566 3.18276 78.6757 3.04154 78.3173L2.59497 78.4933ZM3.229 79.5074C3.48458 79.7589 3.76173 79.9434 4.0613 80.0522L4.22524 79.6011C4.00135 79.5197 3.78121 79.3773 3.56567 79.1652L3.229 79.5074ZM4.0613 80.0522C4.2799 80.1317 4.49183 80.1701 4.6924 80.1541L4.65416 79.6756C4.54065 79.6847 4.39924 79.6643 4.22524 79.6011L4.0613 80.0522ZM4.70783 80.1523C4.92524 80.1207 5.11276 80.0047 5.2709 79.835L4.91975 79.5077C4.81616 79.6189 4.72231 79.6652 4.63873 79.6773L4.70783 80.1523ZM5.27633 79.829C5.42849 79.6542 5.55844 79.4011 5.67376 79.0894L5.22357 78.9228C5.11641 79.2125 5.01081 79.4029 4.91432 79.5138L5.27633 79.829ZM5.67376 79.0894C5.79004 78.775 5.90397 78.3692 6.01639 77.8753L5.54836 77.7687C5.4383 78.2522 5.32976 78.6358 5.22357 78.9228L5.67376 79.0894ZM6.01628 77.8757C6.20997 77.0325 6.43932 76.3795 6.69926 75.9076L6.27884 75.676C5.98914 76.2019 5.74737 76.9023 5.54846 77.7683L6.01628 77.8757ZM6.69926 75.9076C6.95576 75.442 7.25412 75.1691 7.58311 75.0476L7.41687 74.5973C6.94758 74.7706 6.57197 75.1439 6.27884 75.676L6.69926 75.9076ZM7.58311 75.0476C7.91036 74.9268 8.33247 74.9417 8.87063 75.1373L9.03457 74.6862C8.43421 74.468 7.8879 74.4234 7.41687 74.5973L7.58311 75.0476ZM8.87063 75.1373C9.30451 75.295 9.70328 75.5373 10.0676 75.8667L10.3895 75.5107C9.9817 75.1419 9.52984 74.8662 9.03457 74.6862L8.87063 75.1373ZM10.0694 75.8683C10.434 76.1915 10.7517 76.5876 11.0213 77.0593L11.438 76.821C11.145 76.3084 10.7952 75.8703 10.3877 75.5091L10.0694 75.8683ZM11.0211 77.0589C11.2847 77.5219 11.4932 78.0403 11.6455 78.6154L12.1095 78.4926C11.9477 77.8815 11.7243 77.324 11.4382 76.8214L11.0211 77.0589ZM11.6451 78.6139C11.79 79.1764 11.8632 79.7787 11.8632 80.4218H12.3432C12.3432 79.7421 12.2659 79.0993 12.1099 78.4941L11.6451 78.6139ZM11.8632 80.4218C11.8632 81.3948 11.6994 82.1286 11.3957 82.6455L11.8096 82.8887C12.1733 82.2696 12.3432 81.4399 12.3432 80.4218H11.8632ZM11.3957 82.6455C11.0864 83.172 10.6988 83.4916 10.2367 83.6333L10.3774 84.0922C10.9754 83.9089 11.4515 83.4981 11.8096 82.8887L11.3957 82.6455ZM10.2367 83.6333C9.76297 83.7785 9.25727 83.7585 8.71068 83.5598L8.54674 84.011C9.17795 84.2403 9.79115 84.2719 10.3774 84.0922L10.2367 83.6333ZM8.86871 83.7854V81.843H8.38871V83.7854H8.86871ZM8.55819 82.0724C9.086 82.2347 9.56016 82.242 9.9371 82.0225L9.69554 81.6077C9.48358 81.7311 9.166 81.7571 8.69923 81.6136L8.55819 82.0724ZM9.94038 82.0205C10.2825 81.814 10.5212 81.4994 10.6614 81.095L10.2079 80.9378C10.0994 81.2507 9.926 81.4685 9.69226 81.6097L9.94038 82.0205ZM10.6628 81.0908C10.7888 80.7047 10.8513 80.3006 10.8513 79.8797H10.3713C10.3713 80.2524 10.3161 80.6061 10.2065 80.942L10.6628 81.0908ZM10.8513 79.8797C10.8513 79.3314 10.7836 78.8396 10.6433 78.4079L10.1868 78.5563C10.3082 78.9298 10.3713 79.3697 10.3713 79.8797H10.8513ZM10.6436 78.409C10.5052 77.9757 10.3117 77.6058 10.0586 77.3061L9.69184 77.6158C9.89676 77.8584 10.0632 78.1693 10.1864 78.5551L10.6436 78.409ZM10.0586 77.3061C9.80618 77.0072 9.51084 76.7912 9.17198 76.6681L9.00804 77.1192C9.25809 77.2101 9.48621 77.3723 9.69184 77.6158L10.0586 77.3061ZM21.4094 51.1082L23.0922 36.9482L22.6156 36.8916L20.9328 51.0516L21.4094 51.1082ZM22.6979 36.7376L21.0151 38.1776L21.3271 38.5423L23.0099 37.1023L22.6979 36.7376ZM21.3149 38.1678L19.3911 36.7278L19.1034 37.1121L21.0273 38.5521L21.3149 38.1678ZM19.0094 36.9522L20.9333 51.1122L21.4089 51.0476L19.4851 36.8876L19.0094 36.9522ZM21.4111 51.0799V31.1599H20.9311V51.0799H21.4111ZM22.6135 37.3999H22.8539V36.9199H22.6135V37.3999ZM22.3731 37.6399H22.8539V37.1599H22.3731V37.6399ZM22.1327 37.8799H22.8539V37.3999H22.1327V37.8799ZM21.8923 38.1199H22.8539V37.6399H21.8923V38.1199ZM21.6519 38.3599H22.8539V37.8799H21.6519V38.3599ZM21.1711 38.5999L22.8539 38.5999L22.8539 38.1199L21.1711 38.1199L21.1711 38.5999ZM21.1711 49.6399H21.4115V49.1599H21.1711V49.6399ZM21.1711 49.8799H21.4115V49.3999H21.1711V49.8799ZM21.1711 50.1199H21.4115V49.6399H21.1711V50.1199ZM21.1711 50.3599H21.4115V49.8799H21.1711V50.3599ZM21.1711 50.5999H21.4115V50.1199H21.1711V50.5999ZM21.1711 50.8399H21.4115V50.3599H21.1711V50.8399ZM21.1711 51.0799H21.4115V50.5999H21.1711V51.0799ZM19.4875 37.3999H19.7279V36.9199H19.4875V37.3999ZM19.4875 37.6399H19.9683V37.1599H19.4875V37.6399ZM19.4875 37.8799H20.2087V37.3999H19.4875V37.8799ZM19.4875 38.1199H20.6895V37.6399H19.4875V38.1199ZM19.4875 38.3599H20.9299V37.8799H19.4875V38.3599ZM19.4875 38.5999L21.1711 38.5999L21.1711 38.1199L19.4875 38.1199L19.4875 38.5999ZM20.9333 53.6877L19.0094 67.8477L19.4851 67.9123L21.4089 53.7523L20.9333 53.6877ZM19.3743 68.0836L21.2975 66.8835L21.0434 66.4763L19.1202 67.6764L19.3743 68.0836ZM21.0312 66.8754L22.7146 68.0754L22.9932 67.6845L21.3098 66.4845L21.0312 66.8754ZM23.0922 67.8516L21.4094 53.6916L20.9328 53.7483L22.6156 67.9083L23.0922 67.8516ZM20.9311 53.72V73.64H21.4111V53.72H20.9311ZM19.4875 66.9199L21.1705 66.9199L21.1705 66.4399L19.4875 66.4399L19.4875 66.9199ZM19.4875 67.1599H20.9299V66.6799H19.4875V67.1599ZM19.4875 67.3999H20.4491V66.9199H19.4875V67.3999ZM19.4875 67.6399H20.2087V67.1599H19.4875V67.6399ZM19.4875 67.8799H19.7279V67.3999H19.4875V67.8799ZM21.1711 54.2H21.4115V53.72H21.1711V54.2ZM21.1711 54.44H21.4115V53.96H21.1711V54.44ZM21.1711 54.68H21.4115V54.2H21.1711V54.68ZM21.1711 54.92H21.4115V54.44H21.1711V54.92ZM21.1711 55.16H21.4115V54.68H21.1711V55.16ZM21.1711 55.4H21.4115V54.92H21.1711V55.4ZM21.1711 55.64H21.4115V55.16H21.1711V55.64ZM21.1705 66.9199L22.8539 66.92L22.8539 66.44L21.1705 66.4399L21.1705 66.9199ZM21.6519 67.16H22.8539V66.68H21.6519V67.16ZM21.8923 67.4H22.8539V66.92H21.8923V67.4ZM22.3731 67.64H22.8539V67.16H22.3731V67.64ZM22.6135 67.88H22.8539V67.4H22.6135V67.88ZM20.9311 51.0799V53.72H21.4111V51.0799H20.9311ZM20.9311 53.72V92.3599H21.4111V53.72H20.9311ZM19.4875 38.8399L22.8539 38.8399L22.8539 38.3599L19.4875 38.3599L19.4875 38.8399ZM19.7279 39.0799L22.8539 39.0799L22.8539 38.5999L19.7279 38.5999L19.7279 39.0799ZM19.7279 39.3199L22.6135 39.3199L22.6135 38.8399L19.7279 38.8399L19.7279 39.3199ZM19.7279 39.5599L22.6135 39.5599L22.6135 39.0799L19.7279 39.0799L19.7279 39.5599ZM19.7279 39.7999L22.6135 39.7999L22.6135 39.3199L19.7279 39.3199L19.7279 39.7999ZM19.7279 40.0399L22.6135 40.0399L22.6135 39.5599L19.7279 39.5599L19.7279 40.0399ZM19.7279 40.2799L22.6135 40.2799L22.6135 39.7999L19.7279 39.7999L19.7279 40.2799ZM19.7279 40.5199L22.6135 40.5199L22.6135 40.0399L19.7279 40.0399L19.7279 40.5199ZM19.9683 40.7599L22.6135 40.7599L22.6135 40.2799L19.9683 40.2799L19.9683 40.7599ZM19.9683 40.9999L22.6135 40.9999L22.6135 40.5199L19.9683 40.5199L19.9683 40.9999ZM19.9683 41.2399L22.3731 41.2399L22.3731 40.7599L19.9683 40.7599L19.9683 41.2399ZM19.9683 41.4799L22.3731 41.4799L22.3731 40.9999L19.9683 40.9999L19.9683 41.4799ZM19.9683 41.7199L22.3731 41.7199L22.3731 41.2399L19.9683 41.2399L19.9683 41.7199ZM19.9683 41.9599L22.3731 41.9599L22.3731 41.4799L19.9683 41.4799L19.9683 41.9599ZM19.9683 42.1999L22.3731 42.1999L22.3731 41.7199L19.9683 41.7199L19.9683 42.1999ZM19.9683 42.4399L22.3731 42.4399L22.3731 41.9599L19.9683 41.9599L19.9683 42.4399ZM20.2087 42.6799L22.3731 42.6799L22.3731 42.1999L20.2087 42.1999L20.2087 42.6799ZM20.2087 42.9199L22.3731 42.9199L22.3731 42.4399L20.2087 42.4399L20.2087 42.9199ZM20.2087 43.1599L22.3731 43.1599L22.3731 42.6799L20.2087 42.6799L20.2087 43.1599ZM20.2087 43.3999L22.1327 43.3999L22.1327 42.9199L20.2087 42.9199L20.2087 43.3999ZM20.2087 43.6399L22.1327 43.6399L22.1327 43.1599L20.2087 43.1599L20.2087 43.6399ZM20.2087 43.8799L22.1327 43.8799L22.1327 43.3999L20.2087 43.3999L20.2087 43.8799ZM20.2087 44.1199L22.1327 44.1199L22.1327 43.6399L20.2087 43.6399L20.2087 44.1199ZM20.4491 44.3599L22.1327 44.3599L22.1327 43.8799L20.4491 43.8799L20.4491 44.3599ZM20.4491 44.5999L22.1327 44.5999L22.1327 44.1199L20.4491 44.1199L20.4491 44.5999ZM20.4491 44.8399L22.1327 44.8399L22.1327 44.3599L20.4491 44.3599L20.4491 44.8399ZM20.4491 45.0799L22.1327 45.0799L22.1327 44.5999L20.4491 44.5999L20.4491 45.0799ZM20.4491 45.3199L21.8923 45.3199L21.8923 44.8399L20.4491 44.8399L20.4491 45.3199ZM20.4491 45.5599L21.8923 45.5599L21.8923 45.0799L20.4491 45.0799L20.4491 45.5599ZM20.4491 45.7999L21.8923 45.7999L21.8923 45.3199L20.4491 45.3199L20.4491 45.7999ZM20.6895 46.0399L21.8923 46.0399L21.8923 45.5599L20.6895 45.5599L20.6895 46.0399ZM20.6895 46.2799L21.8923 46.2799L21.8923 45.7999L20.6895 45.7999L20.6895 46.2799ZM20.6895 46.5199L21.8923 46.5199L21.8923 46.0399L20.6895 46.0399L20.6895 46.5199ZM20.6895 46.7599L21.8923 46.7599L21.8923 46.2799L20.6895 46.2799L20.6895 46.7599ZM20.6895 46.9999L21.8923 46.9999L21.8923 46.5199L20.6895 46.5199L20.6895 46.9999ZM20.6895 47.2399L21.8923 47.2399L21.8923 46.7599L20.6895 46.7599L20.6895 47.2399ZM20.6895 47.4799L21.6519 47.4799L21.6519 46.9999L20.6895 46.9999L20.6895 47.4799ZM20.6895 47.7199L21.6519 47.7199L21.6519 47.2399L20.6895 47.2399L20.6895 47.7199ZM20.9299 47.9599L21.6519 47.9599L21.6519 47.4799L20.9299 47.4799L20.9299 47.9599ZM20.9299 48.1999L21.6519 48.1999L21.6519 47.7199L20.9299 47.7199L20.9299 48.1999ZM20.9299 48.4399L21.6519 48.4399L21.6519 47.9599L20.9299 47.9599L20.9299 48.4399ZM20.9299 48.6799L21.6519 48.6799L21.6519 48.1999L20.9299 48.1999L20.9299 48.6799ZM20.9299 48.9199L21.6519 48.9199L21.6519 48.4399L20.9299 48.4399L20.9299 48.9199ZM20.9299 49.1599L21.6519 49.1599L21.6519 48.6799L20.9299 48.6799L20.9299 49.1599ZM20.9299 49.3999L21.4115 49.3999L21.4115 48.9199L20.9299 48.9199L20.9299 49.3999ZM20.9299 55.8799L21.4115 55.88L21.4115 55.4L20.9299 55.3999L20.9299 55.8799ZM20.9299 56.1199L21.6519 56.12L21.6519 55.64L20.9299 55.6399L20.9299 56.1199ZM20.9299 56.3599L21.6519 56.36L21.6519 55.88L20.9299 55.8799L20.9299 56.3599ZM20.9299 56.5999L21.6519 56.6L21.6519 56.12L20.9299 56.1199L20.9299 56.5999ZM20.9299 56.8399L21.6519 56.84L21.6519 56.36L20.9299 56.3599L20.9299 56.8399ZM20.9299 57.0799L21.6519 57.08L21.6519 56.6L20.9299 56.5999L20.9299 57.0799ZM20.9299 57.3199L21.6519 57.32L21.6519 56.84L20.9299 56.8399L20.9299 57.3199ZM20.6895 57.5599L21.6519 57.56L21.6519 57.08L20.6895 57.0799L20.6895 57.5599ZM20.6895 57.7999L21.6519 57.8L21.6519 57.32L20.6895 57.3199L20.6895 57.7999ZM20.6895 58.0399L21.8923 58.04L21.8923 57.56L20.6895 57.5599L20.6895 58.0399ZM20.6895 58.2799L21.8923 58.28L21.8923 57.8L20.6895 57.7999L20.6895 58.2799ZM20.6895 58.5199L21.8923 58.52L21.8923 58.04L20.6895 58.0399L20.6895 58.5199ZM20.6895 58.7599L21.8923 58.76L21.8923 58.28L20.6895 58.2799L20.6895 58.7599ZM20.6895 58.9999L21.8923 59L21.8923 58.52L20.6895 58.5199L20.6895 58.9999ZM20.6895 59.2399L21.8923 59.24L21.8923 58.76L20.6895 58.7599L20.6895 59.2399ZM20.4491 59.4799L21.8923 59.48L21.8923 59L20.4491 58.9999L20.4491 59.4799ZM20.4491 59.7199L21.8923 59.72L21.8923 59.24L20.4491 59.2399L20.4491 59.7199ZM20.4491 59.9599L21.8923 59.96L21.8923 59.48L20.4491 59.4799L20.4491 59.9599ZM20.4491 60.1999L22.1327 60.2L22.1327 59.72L20.4491 59.7199L20.4491 60.1999ZM20.4491 60.4399L22.1327 60.44L22.1327 59.96L20.4491 59.9599L20.4491 60.4399ZM20.4491 60.6799L22.1327 60.68L22.1327 60.2L20.4491 60.1999L20.4491 60.6799ZM20.4491 60.9199L22.1327 60.92L22.1327 60.44L20.4491 60.4399L20.4491 60.9199ZM20.2087 61.1599L22.1327 61.16L22.1327 60.68L20.2087 60.6799L20.2087 61.1599ZM20.2087 61.3999L22.1327 61.4L22.1327 60.92L20.2087 60.9199L20.2087 61.3999ZM20.2087 61.6399L22.1327 61.64L22.1327 61.16L20.2087 61.1599L20.2087 61.6399ZM20.2087 61.8799L22.1327 61.88L22.1327 61.4L20.2087 61.3999L20.2087 61.8799ZM20.2087 62.1199L22.3731 62.12L22.3731 61.64L20.2087 61.6399L20.2087 62.1199ZM20.2087 62.3599L22.3731 62.36L22.3731 61.88L20.2087 61.8799L20.2087 62.3599ZM20.2087 62.5999L22.3731 62.6L22.3731 62.12L20.2087 62.1199L20.2087 62.5999ZM19.9683 62.8399L22.3731 62.84L22.3731 62.36L19.9683 62.3599L19.9683 62.8399ZM19.9683 63.0799L22.3731 63.08L22.3731 62.6L19.9683 62.5999L19.9683 63.0799ZM19.9683 63.3199L22.3731 63.32L22.3731 62.84L19.9683 62.8399L19.9683 63.3199ZM19.9683 63.5599L22.3731 63.56L22.3731 63.08L19.9683 63.0799L19.9683 63.5599ZM19.9683 63.7999L22.3731 63.8L22.3731 63.32L19.9683 63.3199L19.9683 63.7999ZM19.9683 64.0399L22.3731 64.04L22.3731 63.56L19.9683 63.5599L19.9683 64.0399ZM19.9683 64.2799L22.6135 64.28L22.6135 63.8L19.9683 63.7999L19.9683 64.2799ZM19.9683 64.5199L22.6135 64.52L22.6135 64.04L19.9683 64.0399L19.9683 64.5199ZM19.7279 64.7599L22.6135 64.76L22.6135 64.28L19.7279 64.2799L19.7279 64.7599ZM19.7279 64.9999L22.6135 65L22.6135 64.52L19.7279 64.5199L19.7279 64.9999ZM19.7279 65.2399L22.6135 65.24L22.6135 64.76L19.7279 64.7599L19.7279 65.2399ZM19.7279 65.4799L22.6135 65.48L22.6135 65L19.7279 64.9999L19.7279 65.4799ZM19.7279 65.7199L22.6135 65.72L22.6135 65.24L19.7279 65.2399L19.7279 65.7199ZM19.7279 65.9599L22.6135 65.96L22.6135 65.48L19.7279 65.4799L19.7279 65.9599ZM19.7279 66.1999L22.8539 66.2L22.8539 65.72L19.7279 65.7199L19.7279 66.1999ZM19.4875 66.4399L22.8539 66.44L22.8539 65.96L19.4875 65.9599L19.4875 66.4399ZM19.4875 66.6799L22.8539 66.68L22.8539 66.2L19.4875 66.1999L19.4875 66.6799Z" fill="white"/>
    </g>
    <!--    15 S1-->
    <g class="group">
    </g>
    <!--    16 S2-->
    <g class="group">
    </g>
    <!--    17 S3-->
    <g class="group">
    </g>
    <!--    18 S4-->
    <g class="group">
    </g>
    <!--    19 I-->
    <g class="group">
    </g>
    <!--    20 I1-->
    <g class="group">
        <path d="M78.0735 0.581543L72.5789 15.6514H70.6365L76.1311 0.581543H78.0735Z" fill="white"/>
        <path d="M81.3739 11.5238L77.9121 21.0183H76.6351L79.5506 13.0219L76.6542 13.9039L77.0491 12.8208L81.1737 11.5238H81.3739Z" fill="white"/>
        <path d="M37.5178 47.4801C37.5178 47.6127 37.6253 47.7201 37.7578 47.7201C37.8904 47.7201 37.9978 47.6127 37.9978 47.4801H37.5178ZM37.9978 22.5201C37.9978 22.3876 37.8904 22.2801 37.7578 22.2801C37.6253 22.2801 37.5178 22.3876 37.5178 22.5201H37.9978ZM112.764 47.4801C112.764 47.6127 112.871 47.7201 113.004 47.7201C113.136 47.7201 113.244 47.6127 113.244 47.4801H112.764ZM113.244 22.5201C113.244 22.3876 113.136 22.2801 113.004 22.2801C112.871 22.2801 112.764 22.3876 112.764 22.5201H113.244ZM78.0735 0.581543L78.299 0.663755C78.3258 0.590166 78.315 0.508115 78.2701 0.44394C78.2252 0.379765 78.1518 0.341543 78.0735 0.341543V0.581543ZM72.5789 15.6514V15.8914C72.6797 15.8914 72.7698 15.8284 72.8044 15.7336L72.5789 15.6514ZM70.6365 15.6514L70.411 15.5692C70.3842 15.6428 70.395 15.7249 70.4399 15.789C70.4848 15.8532 70.5582 15.8914 70.6365 15.8914V15.6514ZM76.1311 0.581543V0.341543C76.0303 0.341543 75.9402 0.404586 75.9056 0.499331L76.1311 0.581543ZM81.3739 11.5238L81.5994 11.606C81.6262 11.5324 81.6154 11.4504 81.5705 11.3862C81.5256 11.322 81.4522 11.2838 81.3739 11.2838V11.5238ZM77.9121 21.0183V21.2583C78.013 21.2583 78.103 21.1952 78.1376 21.1005L77.9121 21.0183ZM76.6351 21.0183L76.4096 20.9361C76.3828 21.0097 76.3935 21.0917 76.4384 21.1559C76.4833 21.2201 76.5567 21.2583 76.6351 21.2583V21.0183ZM79.5506 13.0219L79.7761 13.1041C79.8073 13.0186 79.7874 12.9229 79.7248 12.8568C79.6623 12.7908 79.5677 12.7658 79.4807 12.7923L79.5506 13.0219ZM76.6542 13.9039L76.4288 13.8217C76.3976 13.9072 76.4174 14.0029 76.48 14.069C76.5426 14.135 76.6371 14.16 76.7242 14.1335L76.6542 13.9039ZM77.0491 12.8208L76.9771 12.5919C76.9059 12.6143 76.8492 12.6685 76.8236 12.7386L77.0491 12.8208ZM81.1737 11.5238V11.2838C81.1493 11.2838 81.125 11.2875 81.1017 11.2948L81.1737 11.5238ZM37.7578 28.28L37.7261 28.0421C37.6069 28.0579 37.5178 28.1597 37.5178 28.28C37.5178 28.4003 37.6069 28.502 37.7261 28.5179L37.7578 28.28ZM52.1819 26.36L52.3738 26.5041C52.4319 26.4268 52.4378 26.3222 52.389 26.2387C52.3402 26.1553 52.246 26.1093 52.1502 26.1221L52.1819 26.36ZM52.1826 30.2001L52.151 30.438C52.2468 30.4508 52.341 30.4048 52.3898 30.3213C52.4386 30.2379 52.4326 30.1333 52.3745 30.056L52.1826 30.2001ZM113.004 28.2801L113.036 28.518C113.155 28.5019 113.244 28.4002 113.244 28.2801C113.244 28.16 113.155 28.0584 113.036 28.0423L113.004 28.2801ZM98.8203 30.2001L98.6284 30.056C98.5703 30.1334 98.5643 30.2381 98.6133 30.3216C98.6623 30.4051 98.7566 30.451 98.8525 30.438L98.8203 30.2001ZM98.8203 26.36L98.8525 26.1221C98.7566 26.1092 98.6623 26.1551 98.6133 26.2385C98.5643 26.322 98.5703 26.4267 98.6284 26.5041L98.8203 26.36ZM37.9978 47.4801V22.5201H37.5178V47.4801H37.9978ZM113.244 47.4801V22.5201H112.764V47.4801H113.244ZM77.848 0.499331L72.3534 15.5692L72.8044 15.7336L78.299 0.663755L77.848 0.499331ZM72.5789 15.4114H70.6365V15.8914H72.5789V15.4114ZM70.862 15.7336L76.3566 0.663755L75.9056 0.499331L70.411 15.5692L70.862 15.7336ZM76.1311 0.821543H78.0735V0.341543H76.1311V0.821543ZM81.1484 11.4416L77.6866 20.9361L78.1376 21.1005L81.5994 11.606L81.1484 11.4416ZM77.9121 20.7783H76.6351V21.2583H77.9121V20.7783ZM76.8605 21.1005L79.7761 13.1041L79.3251 12.9397L76.4096 20.9361L76.8605 21.1005ZM79.4807 12.7923L76.5843 13.6743L76.7242 14.1335L79.6205 13.2515L79.4807 12.7923ZM76.8797 13.9861L77.2746 12.9031L76.8236 12.7386L76.4288 13.8217L76.8797 13.9861ZM77.1211 13.0498L81.2457 11.7527L81.1017 11.2948L76.9771 12.5919L77.1211 13.0498ZM81.1737 11.7638H81.3739V11.2838H81.1737V11.7638ZM37.7895 28.5179L52.2136 26.5979L52.1502 26.1221L37.7261 28.0421L37.7895 28.5179ZM51.99 26.2159L50.5483 28.1359L50.9322 28.4241L52.3738 26.5041L51.99 26.2159ZM50.5483 28.4241L51.9908 30.3443L52.3745 30.056L50.9321 28.1358L50.5483 28.4241ZM52.2143 29.9622L37.7895 28.0421L37.7261 28.5179L52.151 30.438L52.2143 29.9622ZM50.4997 26.84H52.1825V26.36H50.4997V26.84ZM48.5765 27.08H51.9421V26.6H48.5765V27.08ZM46.8937 27.32H51.7017V26.84H46.8937V27.32ZM44.9705 27.56H51.4613V27.08H44.9705V27.56ZM43.2877 27.8H51.4613V27.32H43.2877V27.8ZM41.3644 28.04H51.2209V27.56H41.3644V28.04ZM39.6816 28.28H50.9805V27.8H39.6816V28.28ZM37.7578 28.52H50.7402V28.04H37.7578V28.52ZM39.681 28.7601H50.9799V28.2801H39.681V28.7601ZM41.3638 29.0001H51.2203V28.5201H41.3638V29.0001ZM43.287 29.2401H51.4607V28.7601H43.287V29.2401ZM44.9698 29.4801H51.4607V29.0001H44.9698V29.4801ZM46.8931 29.7201H51.7011V29.2401H46.8931V29.7201ZM48.5759 29.9601H51.9415V29.4801H48.5759V29.9601ZM50.4991 30.2001H52.1819V29.7201H50.4991V30.2001ZM112.972 28.0423L98.7881 29.9623L98.8525 30.438L113.036 28.518L112.972 28.0423ZM99.0122 30.3443L100.455 28.4243L100.071 28.136L98.6284 30.056L99.0122 30.3443ZM100.455 28.136L99.0122 26.2158L98.6284 26.5041L100.071 28.4243L100.455 28.136ZM98.7881 26.5978L112.972 28.518L113.036 28.0423L98.8525 26.1221L98.7881 26.5978ZM100.263 28.5201H113.004V28.0401H100.263V28.5201ZM100.263 28.7601H111.321V28.2801H100.263V28.7601ZM100.022 29.0001H109.638V28.5201H100.022V29.0001ZM99.7817 29.2401H107.715V28.7601H99.7817V29.2401ZM99.5413 29.4801H106.032V29.0001H99.5413V29.4801ZM99.5413 29.7201H104.349V29.2401H99.5413V29.7201ZM99.3009 29.9601H102.426V29.4801H99.3009V29.9601ZM99.0605 30.2001H100.743V29.7201H99.0605V30.2001ZM99.0605 26.84H100.743V26.36H99.0605V26.84ZM99.3009 27.08H102.426V26.6H99.3009V27.08ZM99.5413 27.32H104.349V26.84H99.5413V27.32ZM99.5413 27.56H106.032V27.08H99.5413V27.56ZM99.7817 27.8H107.715V27.32H99.7817V27.8ZM100.022 28.04H109.638V27.56H100.022V28.04ZM100.263 28.28H111.321V27.8H100.263V28.28ZM37.7578 28.52L113.004 28.5201L113.004 28.0401L37.7578 28.04L37.7578 28.52Z" fill="white"/>
    </g>
    <!--    21 I2-->
    <g class="group">
        <path d="M396.592 59.6973L391.097 74.7672H389.155L394.65 59.6973H396.592Z" fill="white"/>
        <path d="M399.179 79.1485L398.819 80.1343H392.241L392.555 79.2717L397.103 75.828C397.663 75.4043 398.107 75.0454 398.435 74.7514C398.769 74.4531 399.022 74.1872 399.195 73.9538C399.374 73.716 399.508 73.4738 399.598 73.2274C399.711 72.9161 399.745 72.6351 399.698 72.3843C399.658 72.1292 399.534 71.926 399.327 71.7747C399.12 71.6234 398.83 71.5477 398.457 71.5477C398.011 71.5477 397.608 71.6298 397.249 71.7941C396.896 71.9541 396.593 72.1789 396.34 72.4686C396.087 72.7583 395.892 73.0912 395.755 73.4674H394.478C394.672 72.9356 394.974 72.4492 395.383 72.0082C395.792 71.5672 396.288 71.2169 396.87 70.9575C397.454 70.6938 398.103 70.5619 398.816 70.5619C399.451 70.5619 399.956 70.6679 400.33 70.8797C400.705 71.0872 400.943 71.3812 401.043 71.7617C401.15 72.1379 401.111 72.5789 400.927 73.0847C400.826 73.3614 400.673 73.6425 400.468 73.9278C400.269 74.2088 400.03 74.4899 399.753 74.7709C399.48 75.0519 399.179 75.3286 398.85 75.601C398.525 75.8734 398.186 76.1415 397.832 76.4052L394.139 79.1485H399.179Z" fill="white"/>
        <path d="M367.108 102.68C367.108 102.813 367.215 102.92 367.348 102.92C367.48 102.92 367.588 102.813 367.588 102.68H367.108ZM367.588 81.8002C367.588 81.6676 367.48 81.5602 367.348 81.5602C367.215 81.5602 367.108 81.6676 367.108 81.8002H367.588ZM422.16 102.68C422.16 102.813 422.268 102.92 422.4 102.92C422.533 102.92 422.64 102.813 422.64 102.68H422.16ZM422.64 81.8002C422.64 81.6676 422.533 81.5602 422.4 81.5602C422.268 81.5602 422.16 81.6676 422.16 81.8002H422.64ZM396.592 59.6973L396.818 59.7795C396.844 59.7059 396.834 59.6238 396.789 59.5597C396.744 59.4955 396.67 59.4573 396.592 59.4573V59.6973ZM391.097 74.7672V75.0072C391.198 75.0072 391.288 74.9441 391.323 74.8494L391.097 74.7672ZM389.155 74.7672L388.93 74.6849C388.903 74.7585 388.914 74.8406 388.958 74.9048C389.003 74.9689 389.077 75.0072 389.155 75.0072V74.7672ZM394.65 59.6973V59.4573C394.549 59.4573 394.459 59.5203 394.424 59.6151L394.65 59.6973ZM399.179 79.1485L399.404 79.2307C399.431 79.1571 399.42 79.0751 399.375 79.0109C399.33 78.9467 399.257 78.9085 399.179 78.9085V79.1485ZM398.819 80.1343V80.3743C398.92 80.3743 399.01 80.3112 399.045 80.2165L398.819 80.1343ZM392.241 80.1343L392.015 80.052C391.988 80.1256 391.999 80.2077 392.044 80.2719C392.089 80.336 392.162 80.3743 392.241 80.3743V80.1343ZM392.555 79.2717L392.41 79.0804C392.373 79.1082 392.345 79.1461 392.33 79.1895L392.555 79.2717ZM397.103 75.828L397.248 76.0194L397.248 76.0193L397.103 75.828ZM398.435 74.7514L398.275 74.5724L398.275 74.5727L398.435 74.7514ZM399.195 73.9538L399.003 73.8095L399.002 73.8111L399.195 73.9538ZM399.598 73.2274L399.823 73.3096L399.823 73.3096L399.598 73.2274ZM399.698 72.3843L399.461 72.4219L399.462 72.4282L399.698 72.3843ZM397.249 71.7941L397.348 72.0127L397.349 72.0124L397.249 71.7941ZM395.755 73.4674V73.7074C395.856 73.7074 395.946 73.6443 395.981 73.5496L395.755 73.4674ZM394.478 73.4674L394.253 73.3851C394.226 73.4587 394.237 73.5408 394.281 73.605C394.326 73.6691 394.4 73.7074 394.478 73.7074V73.4674ZM396.87 70.9575L396.968 71.1768L396.969 71.1763L396.87 70.9575ZM400.33 70.8797L400.211 71.0885L400.213 71.0897L400.33 70.8797ZM401.043 71.7617L400.811 71.8231L400.813 71.8272L401.043 71.7617ZM400.927 73.0847L401.152 73.1669L400.927 73.0847ZM400.468 73.9278L400.273 73.7876L400.272 73.7891L400.468 73.9278ZM399.753 74.7709L399.582 74.6023L399.581 74.6038L399.753 74.7709ZM398.85 75.601L398.697 75.4161L398.696 75.4171L398.85 75.601ZM397.832 76.4052L397.975 76.5979L397.975 76.5976L397.832 76.4052ZM394.139 79.1485L393.996 78.9558C393.913 79.0176 393.879 79.1256 393.912 79.2239C393.944 79.3221 394.036 79.3885 394.139 79.3885V79.1485ZM367.348 87.32L367.315 87.0822C367.196 87.0983 367.108 87.1999 367.108 87.32C367.108 87.4401 367.196 87.5417 367.315 87.5578L367.348 87.32ZM381.531 85.4L381.735 85.5273C381.784 85.4484 381.783 85.3481 381.733 85.2699C381.682 85.1917 381.591 85.1497 381.499 85.1622L381.531 85.4ZM381.532 89.2399L381.5 89.4778C381.592 89.4902 381.683 89.4483 381.734 89.37C381.784 89.2918 381.785 89.1915 381.736 89.1126L381.532 89.2399ZM422.4 87.3199L422.432 87.5578C422.551 87.5417 422.64 87.44 422.64 87.3199C422.64 87.1998 422.551 87.0982 422.432 87.0821L422.4 87.3199ZM408.216 89.2399L408.024 89.0958C407.966 89.1732 407.96 89.2779 408.009 89.3614C408.058 89.4448 408.152 89.4907 408.248 89.4778L408.216 89.2399ZM408.216 85.4L408.248 85.1622C408.152 85.1492 408.058 85.1951 408.009 85.2786C407.96 85.3621 407.966 85.4668 408.024 85.5442L408.216 85.4ZM367.588 102.68V81.8002H367.108V102.68H367.588ZM422.64 102.68V81.8002H422.16V102.68H422.64ZM396.367 59.6151L390.872 74.6849L391.323 74.8494L396.818 59.7795L396.367 59.6151ZM391.097 74.5272H389.155V75.0072H391.097V74.5272ZM389.381 74.8494L394.875 59.7795L394.424 59.6151L388.93 74.6849L389.381 74.8494ZM394.65 59.9373H396.592V59.4573H394.65V59.9373ZM398.953 79.0663L398.594 80.052L399.045 80.2165L399.404 79.2307L398.953 79.0663ZM398.819 79.8943H392.241V80.3743H398.819V79.8943ZM392.466 80.2165L392.781 79.3539L392.33 79.1895L392.015 80.052L392.466 80.2165ZM392.7 79.4631L397.248 76.0194L396.959 75.6367L392.41 79.0804L392.7 79.4631ZM397.248 76.0193C397.81 75.5937 398.26 75.2304 398.595 74.9302L398.275 74.5727C397.953 74.8605 397.515 75.2149 396.958 75.6367L397.248 76.0193ZM398.595 74.9305C398.935 74.6264 399.202 74.3482 399.388 74.0964L399.002 73.8111C398.843 74.0262 398.603 74.2798 398.275 74.5724L398.595 74.9305ZM399.387 74.098C399.578 73.8438 399.724 73.581 399.823 73.3096L399.372 73.1452C399.292 73.3667 399.17 73.5882 399.003 73.8095L399.387 74.098ZM399.823 73.3096C399.947 72.9698 399.991 72.6442 399.934 72.3404L399.462 72.4282C399.499 72.6259 399.475 72.8624 399.372 73.1452L399.823 73.3096ZM399.935 72.3467C399.885 72.0295 399.727 71.7699 399.468 71.5809L399.185 71.9685C399.341 72.0821 399.431 72.229 399.461 72.4219L399.935 72.3467ZM399.468 71.5809C399.205 71.3887 398.858 71.3077 398.457 71.3077V71.7877C398.801 71.7877 399.034 71.858 399.185 71.9685L399.468 71.5809ZM398.457 71.3077C397.981 71.3077 397.543 71.3955 397.149 71.5759L397.349 72.0124C397.672 71.8642 398.04 71.7877 398.457 71.7877V71.3077ZM397.15 71.5756C396.766 71.7496 396.435 71.995 396.159 72.3108L396.521 72.6264C396.751 72.3628 397.026 72.1586 397.348 72.0127L397.15 71.5756ZM396.159 72.3108C395.886 72.6236 395.677 72.9824 395.53 73.3851L395.981 73.5496C396.108 73.2 396.288 72.893 396.521 72.6264L396.159 72.3108ZM395.755 73.2274H394.478V73.7074H395.755V73.2274ZM394.704 73.5496C394.886 73.0497 395.17 72.5905 395.559 72.1714L395.207 71.8449C394.777 72.3078 394.458 72.8214 394.253 73.3851L394.704 73.5496ZM395.559 72.1714C395.945 71.7556 396.414 71.4238 396.968 71.1768L396.773 70.7383C396.163 71.0101 395.64 71.3787 395.207 71.8449L395.559 72.1714ZM396.969 71.1763C397.519 70.9281 398.133 70.8019 398.816 70.8019V70.3219C398.073 70.3219 397.39 70.4595 396.772 70.7388L396.969 71.1763ZM398.816 70.8019C399.428 70.8019 399.887 70.9046 400.211 71.0885L400.448 70.6709C400.025 70.4311 399.474 70.3219 398.816 70.3219V70.8019ZM400.213 71.0897C400.537 71.2687 400.729 71.5119 400.811 71.8231L401.275 71.7004C401.157 71.2506 400.873 70.9057 400.446 70.6697L400.213 71.0897ZM400.813 71.8272C400.901 72.1395 400.875 72.5266 400.701 73.0025L401.152 73.1669C401.348 72.6311 401.399 72.1362 401.274 71.6962L400.813 71.8272ZM400.701 73.0025C400.609 73.2551 400.468 73.5168 400.273 73.7877L400.662 74.068C400.878 73.7681 401.043 73.4678 401.152 73.1669L400.701 73.0025ZM400.272 73.7891C400.081 74.0581 399.852 74.3292 399.582 74.6023L399.924 74.9395C400.209 74.6505 400.456 74.3596 400.663 74.0666L400.272 73.7891ZM399.581 74.6038C399.315 74.878 399.02 75.1488 398.697 75.4161L399.003 75.786C399.338 75.5085 399.646 75.2259 399.925 74.938L399.581 74.6038ZM398.696 75.4171C398.374 75.6864 398.039 75.9517 397.688 76.2128L397.975 76.5976C398.333 76.3313 398.676 76.0604 399.004 75.7849L398.696 75.4171ZM397.689 76.2126L393.996 78.9558L394.282 79.3411L397.975 76.5978L397.689 76.2126ZM394.139 79.3885H399.179V78.9085H394.139V79.3885ZM367.38 87.5578L381.564 85.6378L381.499 85.1622L367.315 87.0822L367.38 87.5578ZM381.328 85.2727L380.127 87.1927L380.534 87.4473L381.735 85.5273L381.328 85.2727ZM380.127 87.4474L381.329 89.3673L381.736 89.1126L380.533 87.1927L380.127 87.4474ZM381.564 89.0021L367.38 87.0822L367.315 87.5578L381.5 89.4778L381.564 89.0021ZM379.849 85.88H381.532V85.4H379.849V85.88ZM378.166 86.12H381.292V85.64H378.166V86.12ZM376.243 86.36H381.292V85.88H376.243V86.36ZM374.56 86.6H381.051V86.12H374.56V86.6ZM372.877 86.84H380.811V86.36H372.877V86.84ZM370.954 87.08H380.811V86.6H370.954V87.08ZM369.271 87.32H380.57V86.84H369.271V87.32ZM367.348 87.56H380.33V87.08H367.348V87.56ZM369.271 87.7999H380.57V87.3199H369.271V87.7999ZM370.954 88.0399H380.81V87.5599H370.954V88.0399ZM372.877 88.2799H380.81V87.7999H372.877V88.2799ZM374.56 88.5199H381.051V88.0399H374.56V88.5199ZM376.242 88.7599H381.291V88.2799H376.242V88.7599ZM378.166 88.9999H381.291V88.5199H378.166V88.9999ZM379.849 89.2399H381.531V88.7599H379.849V89.2399ZM422.367 87.0821L408.184 89.0021L408.248 89.4778L422.432 87.5578L422.367 87.0821ZM408.408 89.3841L409.85 87.4641L409.466 87.1758L408.024 89.0958L408.408 89.3841ZM409.85 87.1758L408.408 85.2559L408.024 85.5442L409.466 87.4641L409.85 87.1758ZM408.184 85.6378L422.367 87.5578L422.432 87.0821L408.248 85.1622L408.184 85.6378ZM409.658 87.5599H422.4V87.0799H409.658V87.5599ZM409.659 87.7999H420.717V87.3199H409.659V87.7999ZM409.419 88.0399H419.035V87.5599H409.419V88.0399ZM409.178 88.2799H417.111V87.7999H409.178V88.2799ZM408.938 88.5199H415.429V88.0399H408.938V88.5199ZM408.938 88.7599H413.746V88.2799H408.938V88.7599ZM408.697 88.9999H411.823V88.5199H408.697V88.9999ZM408.457 89.2399H410.14V88.7599H408.457V89.2399ZM408.457 85.88H410.14V85.4H408.457V85.88ZM408.697 86.12H411.823V85.64H408.697V86.12ZM408.938 86.36H413.746V85.88H408.938V86.36ZM408.938 86.6H415.429V86.12H408.938V86.6ZM409.178 86.84H417.111V86.36H409.178V86.84ZM409.419 87.08H419.035V86.6H409.419V87.08ZM409.659 87.32H420.717V86.84H409.659V87.32ZM367.348 87.56L422.4 87.5599L422.4 87.0799L367.348 87.08L367.348 87.56Z" fill="white"/>
    </g>
    <!--    22 H-->
    <g class="group">
    </g>
    <!--    23 H1-->
    <g class="group">
    </g>
    <!--    24 H2-->
    <g class="group">
    </g>
    <!--    25 h-->
    <g class="group">
    </g>
    <!--    26 h1-->
    <g class="group">
    </g>
    <!--    27 h2-->
    <g class="group">
    </g>
    <!--    28 R-->
    <g class="group">
    </g>
    <!--    29 Deg-->
    <g class="group">
    </g>
    <!--    29 DN-->
    <g class="group">
    </g>

</svg>
