<svg width="456" height="165" viewBox="0 0 456 165" fill="none" xmlns="http://www.w3.org/2000/svg">
<rect width="456" height="165" fill="none"/>
<path d="M34.3262 39.52H170.153H34.3262Z" stroke="white" stroke-width="1.68" stroke-linecap="round" stroke-linejoin="round"/>
<path d="M34.3262 67.3599H170.153H34.3262Z" stroke="white" stroke-width="1.68" stroke-linecap="round" stroke-linejoin="round"/>
<path d="M229.051 64L222.319 58L229.051 64Z" stroke="white" stroke-width="1.68" stroke-linecap="round" stroke-linejoin="round"/>
<path d="M222.319 58L215.107 52.72L222.319 58Z" stroke="white" stroke-width="1.68" stroke-linecap="round" stroke-linejoin="round"/>
<path d="M215.108 52.7199L207.415 48.3999L215.108 52.7199Z" stroke="white" stroke-width="1.68" stroke-linecap="round" stroke-linejoin="round"/>
<path d="M207.415 48.4L199.241 44.8L207.415 48.4Z" stroke="white" stroke-width="1.68" stroke-linecap="round" stroke-linejoin="round"/>
<path d="M199.241 44.7999L190.587 42.1599L199.241 44.7999Z" stroke="white" stroke-width="1.68" stroke-linecap="round" stroke-linejoin="round"/>
<path d="M190.586 42.16L181.691 40.48L190.586 42.16Z" stroke="white" stroke-width="1.68" stroke-linecap="round" stroke-linejoin="round"/>
<path d="M181.692 40.48L172.797 39.76L181.692 40.48Z" stroke="white" stroke-width="1.68" stroke-linecap="round" stroke-linejoin="round"/>
<path d="M172.797 39.76L170.152 39.52L172.797 39.76Z" stroke="white" stroke-width="1.68" stroke-linecap="round" stroke-linejoin="round"/>
<path d="M209.338 83.6799L203.809 78.8799L209.338 83.6799Z" stroke="white" stroke-width="1.68" stroke-linecap="round" stroke-linejoin="round"/>
<path d="M203.809 78.8801L197.799 74.8L203.809 78.8801Z" stroke="white" stroke-width="1.68" stroke-linecap="round" stroke-linejoin="round"/>
<path d="M197.798 74.7999L191.308 71.6799L197.798 74.7999Z" stroke="white" stroke-width="1.68" stroke-linecap="round" stroke-linejoin="round"/>
<path d="M191.308 71.68L184.336 69.28L191.308 71.68Z" stroke="white" stroke-width="1.68" stroke-linecap="round" stroke-linejoin="round"/>
<path d="M184.336 69.2798L177.124 67.8398L184.336 69.2798Z" stroke="white" stroke-width="1.68" stroke-linecap="round" stroke-linejoin="round"/>
<path d="M177.124 67.8399L170.152 67.3599L177.124 67.8399Z" stroke="white" stroke-width="1.68" stroke-linecap="round" stroke-linejoin="round"/>
<path d="M229.051 64L243.956 78.88L229.051 64Z" stroke="white" stroke-width="1.68" stroke-linecap="round" stroke-linejoin="round"/>
<path d="M209.338 83.6799L224.243 98.5599L209.338 83.6799Z" stroke="white" stroke-width="1.68" stroke-linecap="round" stroke-linejoin="round"/>
<path d="M243.955 78.8799L249.484 83.6799L243.955 78.8799Z" stroke="white" stroke-width="1.68" stroke-linecap="round" stroke-linejoin="round"/>
<path d="M249.484 83.6799L255.494 87.7599L249.484 83.6799Z" stroke="white" stroke-width="1.68" stroke-linecap="round" stroke-linejoin="round"/>
<path d="M255.495 87.76L262.226 90.88L255.495 87.76Z" stroke="white" stroke-width="1.68" stroke-linecap="round" stroke-linejoin="round"/>
<path d="M262.226 90.8799L268.957 93.2799L262.226 90.8799Z" stroke="white" stroke-width="1.68" stroke-linecap="round" stroke-linejoin="round"/>
<path d="M268.957 93.28L276.169 94.72L268.957 93.28Z" stroke="white" stroke-width="1.68" stroke-linecap="round" stroke-linejoin="round"/>
<path d="M276.169 94.72L283.381 95.2L276.169 94.72Z" stroke="white" stroke-width="1.68" stroke-linecap="round" stroke-linejoin="round"/>
<path d="M224.242 98.5601L230.973 104.56L224.242 98.5601Z" stroke="white" stroke-width="1.68" stroke-linecap="round" stroke-linejoin="round"/>
<path d="M230.974 104.56L238.186 109.84L230.974 104.56Z" stroke="white" stroke-width="1.68" stroke-linecap="round" stroke-linejoin="round"/>
<path d="M238.186 109.84L246.119 114.16L238.186 109.84Z" stroke="white" stroke-width="1.68" stroke-linecap="round" stroke-linejoin="round"/>
<path d="M246.119 114.16L254.293 117.76L246.119 114.16Z" stroke="white" stroke-width="1.68" stroke-linecap="round" stroke-linejoin="round"/>
<path d="M254.293 117.76L262.707 120.4L254.293 117.76Z" stroke="white" stroke-width="1.68" stroke-linecap="round" stroke-linejoin="round"/>
<path d="M262.707 120.4L271.602 122.08L262.707 120.4Z" stroke="white" stroke-width="1.68" stroke-linecap="round" stroke-linejoin="round"/>
<path d="M271.602 122.08L280.496 122.8L271.602 122.08Z" stroke="white" stroke-width="1.68" stroke-linecap="round" stroke-linejoin="round"/>
<path d="M280.496 122.8L283.381 123.04L280.496 122.8Z" stroke="white" stroke-width="1.68" stroke-linecap="round" stroke-linejoin="round"/>
<path d="M283.381 95.2H414.64H283.381Z" stroke="white" stroke-width="1.68" stroke-linecap="round" stroke-linejoin="round"/>
<path d="M283.381 123.04H414.64H283.381Z" stroke="white" stroke-width="1.68" stroke-linecap="round" stroke-linejoin="round"/>
<path d="M34.3262 39.52V67.36V39.52Z" stroke="white" stroke-width="1.68" stroke-linecap="round" stroke-linejoin="round"/>
<path d="M418.968 99.52V118.72V99.52Z" stroke="white" stroke-width="1.68" stroke-linecap="round" stroke-linejoin="round"/>
<path d="M34.3262 42.3999H86.0124H34.3262Z" stroke="white" stroke-width="1.68" stroke-linecap="round" stroke-linejoin="round"/>
<path d="M34.3262 64.72H81.9256H34.3262Z" stroke="white" stroke-width="1.68" stroke-linecap="round" stroke-linejoin="round"/>
<path d="M414.641 95.2V123.04V95.2Z" stroke="white" stroke-width="1.68" stroke-linecap="round" stroke-linejoin="round"/>
<path d="M363.916 118.72H418.968H363.916Z" stroke="white" stroke-width="0.72" stroke-linecap="round" stroke-linejoin="round"/>
<path d="M414.641 123.04L418.968 118.72L414.641 123.04Z" stroke="white" stroke-width="1.68" stroke-linecap="round" stroke-linejoin="round"/>
<path d="M414.641 123.04L411.756 118.72L414.641 123.04Z" stroke="white" stroke-width="0.96" stroke-linecap="round" stroke-linejoin="round"/>
<path d="M409.352 123.04L411.756 118.72L409.352 123.04Z" stroke="white" stroke-width="0.96" stroke-linecap="round" stroke-linejoin="round"/>
<path d="M409.351 123.04L406.707 118.72L409.351 123.04Z" stroke="white" stroke-width="0.96" stroke-linecap="round" stroke-linejoin="round"/>
<path d="M404.303 123.04L406.707 118.72L404.303 123.04Z" stroke="white" stroke-width="0.96" stroke-linecap="round" stroke-linejoin="round"/>
<path d="M404.303 123.04L401.658 118.72L404.303 123.04Z" stroke="white" stroke-width="0.96" stroke-linecap="round" stroke-linejoin="round"/>
<path d="M399.255 123.04L401.659 118.72L399.255 123.04Z" stroke="white" stroke-width="0.96" stroke-linecap="round" stroke-linejoin="round"/>
<path d="M399.255 123.04L396.61 118.72L399.255 123.04Z" stroke="white" stroke-width="0.96" stroke-linecap="round" stroke-linejoin="round"/>
<path d="M394.206 123.04L396.61 118.72L394.206 123.04Z" stroke="white" stroke-width="0.96" stroke-linecap="round" stroke-linejoin="round"/>
<path d="M394.206 123.04L391.562 118.72L394.206 123.04Z" stroke="white" stroke-width="0.96" stroke-linecap="round" stroke-linejoin="round"/>
<path d="M389.158 123.04L391.562 118.72L389.158 123.04Z" stroke="white" stroke-width="0.96" stroke-linecap="round" stroke-linejoin="round"/>
<path d="M389.158 123.04L386.514 118.72L389.158 123.04Z" stroke="white" stroke-width="0.96" stroke-linecap="round" stroke-linejoin="round"/>
<path d="M384.109 123.04L386.513 118.72L384.109 123.04Z" stroke="white" stroke-width="0.96" stroke-linecap="round" stroke-linejoin="round"/>
<path d="M384.109 123.04L381.705 118.72L384.109 123.04Z" stroke="white" stroke-width="0.96" stroke-linecap="round" stroke-linejoin="round"/>
<path d="M379.061 123.04L381.705 118.72L379.061 123.04Z" stroke="white" stroke-width="0.96" stroke-linecap="round" stroke-linejoin="round"/>
<path d="M379.061 123.04L376.657 118.72L379.061 123.04Z" stroke="white" stroke-width="0.96" stroke-linecap="round" stroke-linejoin="round"/>
<path d="M374.013 123.04L376.657 118.72L374.013 123.04Z" stroke="white" stroke-width="0.96" stroke-linecap="round" stroke-linejoin="round"/>
<path d="M374.012 123.04L371.608 118.72L374.012 123.04Z" stroke="white" stroke-width="0.96" stroke-linecap="round" stroke-linejoin="round"/>
<path d="M368.964 123.04L371.608 118.72L368.964 123.04Z" stroke="white" stroke-width="0.96" stroke-linecap="round" stroke-linejoin="round"/>
<path d="M368.965 123.04L366.561 118.72L368.965 123.04Z" stroke="white" stroke-width="0.96" stroke-linecap="round" stroke-linejoin="round"/>
<path d="M363.916 123.04L366.56 118.72L363.916 123.04Z" stroke="white" stroke-width="0.96" stroke-linecap="round" stroke-linejoin="round"/>
<path d="M363.916 99.52H418.968H363.916Z" stroke="white" stroke-width="0.72" stroke-linecap="round" stroke-linejoin="round"/>
<path d="M414.641 95.2L418.968 99.5199L414.641 95.2Z" stroke="white" stroke-width="1.68" stroke-linecap="round" stroke-linejoin="round"/>
<path d="M414.641 95.2L411.756 99.5199L414.641 95.2Z" stroke="white" stroke-width="0.96" stroke-linecap="round" stroke-linejoin="round"/>
<path d="M409.352 95.2L411.756 99.5199L409.352 95.2Z" stroke="white" stroke-width="0.96" stroke-linecap="round" stroke-linejoin="round"/>
<path d="M409.351 95.2L406.707 99.5199L409.351 95.2Z" stroke="white" stroke-width="0.96" stroke-linecap="round" stroke-linejoin="round"/>
<path d="M404.303 95.2L406.707 99.5199L404.303 95.2Z" stroke="white" stroke-width="0.96" stroke-linecap="round" stroke-linejoin="round"/>
<path d="M404.303 95.2L401.658 99.5199L404.303 95.2Z" stroke="white" stroke-width="0.96" stroke-linecap="round" stroke-linejoin="round"/>
<path d="M399.255 95.2L401.659 99.5199L399.255 95.2Z" stroke="white" stroke-width="0.96" stroke-linecap="round" stroke-linejoin="round"/>
<path d="M399.255 95.2L396.61 99.5199L399.255 95.2Z" stroke="white" stroke-width="0.96" stroke-linecap="round" stroke-linejoin="round"/>
<path d="M394.206 95.2L396.61 99.5199L394.206 95.2Z" stroke="white" stroke-width="0.96" stroke-linecap="round" stroke-linejoin="round"/>
<path d="M394.206 95.2L391.562 99.5199L394.206 95.2Z" stroke="white" stroke-width="0.96" stroke-linecap="round" stroke-linejoin="round"/>
<path d="M389.158 95.2L391.562 99.5199L389.158 95.2Z" stroke="white" stroke-width="0.96" stroke-linecap="round" stroke-linejoin="round"/>
<path d="M389.158 95.2L386.514 99.5199L389.158 95.2Z" stroke="white" stroke-width="0.96" stroke-linecap="round" stroke-linejoin="round"/>
<path d="M384.109 95.2L386.513 99.5199L384.109 95.2Z" stroke="white" stroke-width="0.96" stroke-linecap="round" stroke-linejoin="round"/>
<path d="M384.109 95.2L381.705 99.5199L384.109 95.2Z" stroke="white" stroke-width="0.96" stroke-linecap="round" stroke-linejoin="round"/>
<path d="M379.061 95.2L381.705 99.5199L379.061 95.2Z" stroke="white" stroke-width="0.96" stroke-linecap="round" stroke-linejoin="round"/>
<path d="M379.061 95.2L376.657 99.5199L379.061 95.2Z" stroke="white" stroke-width="0.96" stroke-linecap="round" stroke-linejoin="round"/>
<path d="M374.013 95.2L376.657 99.5199L374.013 95.2Z" stroke="white" stroke-width="0.96" stroke-linecap="round" stroke-linejoin="round"/>
<path d="M374.012 95.2L371.608 99.5199L374.012 95.2Z" stroke="white" stroke-width="0.96" stroke-linecap="round" stroke-linejoin="round"/>
<path d="M368.964 95.2L371.608 99.5199L368.964 95.2Z" stroke="white" stroke-width="0.96" stroke-linecap="round" stroke-linejoin="round"/>
<path d="M368.965 95.2L366.561 99.5199L368.965 95.2Z" stroke="white" stroke-width="0.96" stroke-linecap="round" stroke-linejoin="round"/>
<path d="M363.916 95.2L366.56 99.5199L363.916 95.2Z" stroke="white" stroke-width="0.96" stroke-linecap="round" stroke-linejoin="round"/>
<path d="M75.4346 39.52L80.483 40.24L75.4346 39.52Z" stroke="white" stroke-width="0.48" stroke-linecap="round" stroke-linejoin="round"/>
<path d="M80.4824 40.24L84.8096 41.92L80.4824 40.24Z" stroke="white" stroke-width="0.48" stroke-linecap="round" stroke-linejoin="round"/>
<path d="M84.8096 41.9199L88.656 44.0799L84.8096 41.9199Z" stroke="white" stroke-width="0.48" stroke-linecap="round" stroke-linejoin="round"/>
<path d="M88.6562 44.0798L91.0603 46.7198L88.6562 44.0798Z" stroke="white" stroke-width="0.48" stroke-linecap="round" stroke-linejoin="round"/>
<path d="M91.0605 46.72L92.7433 49.6L91.0605 46.72Z" stroke="white" stroke-width="0.48" stroke-linecap="round" stroke-linejoin="round"/>
<path d="M92.7432 49.5999L93.2232 52.2399L92.7432 49.5999Z" stroke="white" stroke-width="0.48" stroke-linecap="round" stroke-linejoin="round"/>
<path d="M93.2234 52.24L92.9834 54.88L93.2234 52.24Z" stroke="white" stroke-width="0.48" stroke-linecap="round" stroke-linejoin="round"/>
<path d="M92.9834 54.8799L91.541 57.0399L92.9834 54.8799Z" stroke="white" stroke-width="0.48" stroke-linecap="round" stroke-linejoin="round"/>
<path d="M91.5414 57.04L89.6182 58.96L91.5414 57.04Z" stroke="white" stroke-width="0.48" stroke-linecap="round" stroke-linejoin="round"/>
<path d="M89.618 58.96L86.9736 60.4L89.618 58.96Z" stroke="white" stroke-width="0.48" stroke-linecap="round" stroke-linejoin="round"/>
<path d="M86.9735 60.3999L82.8867 63.0399L86.9735 60.3999Z" stroke="white" stroke-width="0.48" stroke-linecap="round" stroke-linejoin="round"/>
<path d="M82.8862 63.04L82.4062 63.28L82.8862 63.04Z" stroke="white" stroke-width="0.48" stroke-linecap="round" stroke-linejoin="round"/>
<path d="M82.4062 63.28V63.52V63.28Z" stroke="white" stroke-width="0.48" stroke-linecap="round" stroke-linejoin="round"/>
<path d="M82.406 63.52L82.166 63.76L82.406 63.52Z" stroke="white" stroke-width="0.48" stroke-linecap="round" stroke-linejoin="round"/>
<path d="M82.166 63.76V64V63.76Z" stroke="white" stroke-width="0.48" stroke-linecap="round" stroke-linejoin="round"/>
<path d="M82.1648 64H81.9248H82.1648Z" stroke="white" stroke-width="0.48" stroke-linecap="round" stroke-linejoin="round"/>
<path d="M81.9248 64V64.24V64Z" stroke="white" stroke-width="0.48" stroke-linecap="round" stroke-linejoin="round"/>
<path d="M81.9248 64.24V64.48V64.24Z" stroke="white" stroke-width="0.48" stroke-linecap="round" stroke-linejoin="round"/>
<path d="M81.9248 64.48V64.72V64.48Z" stroke="white" stroke-width="0.48" stroke-linecap="round" stroke-linejoin="round"/>
<path d="M81.9248 64.72V64.96V64.72Z" stroke="white" stroke-width="0.48" stroke-linecap="round" stroke-linejoin="round"/>
<path d="M81.9248 64.96V65.2V64.96Z" stroke="white" stroke-width="0.48" stroke-linecap="round" stroke-linejoin="round"/>
<path d="M81.9248 65.2H82.1648H81.9248Z" stroke="white" stroke-width="0.48" stroke-linecap="round" stroke-linejoin="round"/>
<path d="M82.166 65.2V65.44V65.2Z" stroke="white" stroke-width="0.48" stroke-linecap="round" stroke-linejoin="round"/>
<path d="M82.166 65.4399V65.6799V65.4399Z" stroke="white" stroke-width="0.48" stroke-linecap="round" stroke-linejoin="round"/>
<path d="M82.166 65.6799H82.406H82.166Z" stroke="white" stroke-width="0.48" stroke-linecap="round" stroke-linejoin="round"/>
<path d="M82.4062 65.6799V65.9199V65.6799Z" stroke="white" stroke-width="0.48" stroke-linecap="round" stroke-linejoin="round"/>
<path d="M82.4062 65.9199H82.6462H82.4062Z" stroke="white" stroke-width="0.48" stroke-linecap="round" stroke-linejoin="round"/>
<path d="M82.6465 65.9199V66.1599V65.9199Z" stroke="white" stroke-width="0.48" stroke-linecap="round" stroke-linejoin="round"/>
<path d="M82.6465 66.1599L82.8865 66.3999L82.6465 66.1599Z" stroke="white" stroke-width="0.48" stroke-linecap="round" stroke-linejoin="round"/>
<path d="M82.8867 66.3999L83.3667 66.6399L82.8867 66.3999Z" stroke="white" stroke-width="0.48" stroke-linecap="round" stroke-linejoin="round"/>
<path d="M83.3672 66.6399L84.3288 67.3599L83.3672 66.6399Z" stroke="white" stroke-width="0.48" stroke-linecap="round" stroke-linejoin="round"/>
<path d="M363.916 95.2V123.04V95.2Z" stroke="white" stroke-width="1.68" stroke-linecap="round" stroke-linejoin="round"/>
<path d="M31.6816 53.4399H56.6833H31.6816Z" stroke="white" stroke-width="0.48" stroke-linecap="round" stroke-linejoin="round"/>
<path d="M60.7695 53.4399H65.0968H60.7695Z" stroke="white" stroke-width="0.48" stroke-linecap="round" stroke-linejoin="round"/>
<path d="M69.4238 53.4399H94.4255H69.4238Z" stroke="white" stroke-width="0.48" stroke-linecap="round" stroke-linejoin="round"/>
<path d="M98.7529 53.4399H102.84H98.7529Z" stroke="white" stroke-width="0.48" stroke-linecap="round" stroke-linejoin="round"/>
<path d="M107.167 53.4399H132.169H107.167Z" stroke="white" stroke-width="0.48" stroke-linecap="round" stroke-linejoin="round"/>
<path d="M136.496 53.4399H140.823H136.496Z" stroke="white" stroke-width="0.48" stroke-linecap="round" stroke-linejoin="round"/>
<path d="M144.91 53.4399H170.152H144.91Z" stroke="white" stroke-width="0.48" stroke-linecap="round" stroke-linejoin="round"/>
<path d="M219.195 73.8398L213.185 68.3198L219.195 73.8398Z" stroke="white" stroke-width="0.48" stroke-linecap="round" stroke-linejoin="round"/>
<path d="M213.184 68.32L206.453 63.76L213.184 68.32Z" stroke="white" stroke-width="0.48" stroke-linecap="round" stroke-linejoin="round"/>
<path d="M206.453 63.7599L202.366 61.5999L206.453 63.7599Z" stroke="white" stroke-width="0.48" stroke-linecap="round" stroke-linejoin="round"/>
<path d="M198.519 59.68L194.673 58L198.519 59.68Z" stroke="white" stroke-width="0.48" stroke-linecap="round" stroke-linejoin="round"/>
<path d="M190.587 56.5599L183.615 54.8799L190.587 56.5599Z" stroke="white" stroke-width="0.48" stroke-linecap="round" stroke-linejoin="round"/>
<path d="M183.615 54.8799L175.682 53.6799L183.615 54.8799Z" stroke="white" stroke-width="0.48" stroke-linecap="round" stroke-linejoin="round"/>
<path d="M175.682 53.6799L170.152 53.4399L175.682 53.6799Z" stroke="white" stroke-width="0.48" stroke-linecap="round" stroke-linejoin="round"/>
<path d="M234.099 88.72L240.349 94.24L234.099 88.72Z" stroke="white" stroke-width="0.48" stroke-linecap="round" stroke-linejoin="round"/>
<path d="M240.35 94.24L246.84 98.8L240.35 94.24Z" stroke="white" stroke-width="0.48" stroke-linecap="round" stroke-linejoin="round"/>
<path d="M246.84 98.8L250.927 100.96L246.84 98.8Z" stroke="white" stroke-width="0.48" stroke-linecap="round" stroke-linejoin="round"/>
<path d="M254.773 102.88L258.86 104.56L254.773 102.88Z" stroke="white" stroke-width="0.48" stroke-linecap="round" stroke-linejoin="round"/>
<path d="M262.707 106L269.679 107.68L262.707 106Z" stroke="white" stroke-width="0.48" stroke-linecap="round" stroke-linejoin="round"/>
<path d="M269.679 107.68L277.852 108.88L269.679 107.68Z" stroke="white" stroke-width="0.48" stroke-linecap="round" stroke-linejoin="round"/>
<path d="M277.853 108.88L283.382 109.12L277.853 108.88Z" stroke="white" stroke-width="0.48" stroke-linecap="round" stroke-linejoin="round"/>
<path d="M283.381 109.12H308.383H283.381Z" stroke="white" stroke-width="0.48" stroke-linecap="round" stroke-linejoin="round"/>
<path d="M312.71 109.12H316.797H312.71Z" stroke="white" stroke-width="0.48" stroke-linecap="round" stroke-linejoin="round"/>
<path d="M321.124 109.12H346.126H321.124Z" stroke="white" stroke-width="0.48" stroke-linecap="round" stroke-linejoin="round"/>
<path d="M350.453 109.12H354.78H350.453Z" stroke="white" stroke-width="0.48" stroke-linecap="round" stroke-linejoin="round"/>
<path d="M358.867 109.12H383.869H358.867Z" stroke="white" stroke-width="0.48" stroke-linecap="round" stroke-linejoin="round"/>
<path d="M388.196 109.12H392.523H388.196Z" stroke="white" stroke-width="0.48" stroke-linecap="round" stroke-linejoin="round"/>
<path d="M396.851 109.12H421.852H396.851Z" stroke="white" stroke-width="0.48" stroke-linecap="round" stroke-linejoin="round"/>
<path d="M219.194 73.8398L234.099 88.7198L219.194 73.8398Z" stroke="white" stroke-width="0.48" stroke-linecap="round" stroke-linejoin="round"/>
<path d="M79.5215 67.36L81.9255 64.96L79.5215 67.36Z" stroke="white" stroke-width="0.48" stroke-linecap="round" stroke-linejoin="round"/>
<path d="M67.501 67.36L70.3858 64.72L67.501 67.36Z" stroke="white" stroke-width="0.48" stroke-linecap="round" stroke-linejoin="round"/>
<path d="M55.4814 67.36L58.3663 64.72L55.4814 67.36Z" stroke="white" stroke-width="0.48" stroke-linecap="round" stroke-linejoin="round"/>
<path d="M80.4824 42.3999L81.6844 41.2L80.4824 42.3999Z" stroke="white" stroke-width="0.48" stroke-linecap="round" stroke-linejoin="round"/>
<path d="M68.4629 42.4L71.3477 39.52L68.4629 42.4Z" stroke="white" stroke-width="0.48" stroke-linecap="round" stroke-linejoin="round"/>
<path d="M43.4609 67.36L46.1054 64.72L43.4609 67.36Z" stroke="white" stroke-width="0.48" stroke-linecap="round" stroke-linejoin="round"/>
<path d="M56.4424 42.4L59.3272 39.52L56.4424 42.4Z" stroke="white" stroke-width="0.48" stroke-linecap="round" stroke-linejoin="round"/>
<path d="M44.4229 42.4L47.0673 39.52L44.4229 42.4Z" stroke="white" stroke-width="0.48" stroke-linecap="round" stroke-linejoin="round"/>
<path d="M34.3262 40.24L35.0474 39.52L34.3262 40.24Z" stroke="white" stroke-width="0.48" stroke-linecap="round" stroke-linejoin="round"/>
<path d="M448.056 137.2L449.979 135.76L448.056 137.2Z" stroke="white" stroke-width="0.48" stroke-linecap="round" stroke-linejoin="round"/>
<path d="M449.979 135.76L451.662 137.2L449.979 135.76Z" stroke="white" stroke-width="0.48" stroke-linecap="round" stroke-linejoin="round"/>

    <!--    1 A-->
    <g class="group">
    </g>
    <!--    2 D-->
    <g class="group">
    </g>
    <!--    3 Dy-->
    <g class="group">
    </g>
    <!--    4 Dh-->
    <g class="group">
    </g>
    <!--    5 D1-->
    <g class="group">
    </g>
    <!--   6 D2-->
    <g class="group">
    </g>
    <!--   7 d-->
    <g class="group">
        <path d="M438.668 105.528L425.653 100.799V98.8565L440.729 104.335V106.11L438.668 105.528ZM435.537 111.993L435.331 111.918C434.519 111.623 433.783 111.251 433.122 110.802C432.455 110.344 431.882 109.833 431.405 109.27C430.927 108.699 430.561 108.096 430.305 107.46C430.044 106.815 429.913 106.155 429.913 105.48C429.913 104.77 430.031 104.193 430.266 103.749C430.495 103.296 430.832 102.966 431.277 102.759C431.716 102.542 432.246 102.439 432.867 102.449C433.489 102.459 434.192 102.565 434.977 102.767L435.88 103.095C436.659 103.455 437.359 103.859 437.981 104.307C438.602 104.749 439.132 105.238 439.571 105.773C440.009 106.301 440.346 106.876 440.582 107.498C440.811 108.117 440.925 108.785 440.925 109.502C440.925 110.164 440.791 110.721 440.523 111.173C440.255 111.619 439.878 111.952 439.394 112.173C438.91 112.387 438.341 112.483 437.686 112.461C437.025 112.429 436.309 112.274 435.537 111.993ZM435.331 109.976L435.537 110.051C436.067 110.243 436.564 110.368 437.029 110.426C437.493 110.476 437.902 110.444 438.256 110.328C438.609 110.213 438.887 110.004 439.09 109.702C439.286 109.398 439.384 108.984 439.384 108.462C439.384 107.822 439.257 107.25 439.002 106.746C438.746 106.236 438.409 105.779 437.991 105.376C437.572 104.973 437.117 104.613 436.626 104.296L434.261 103.436C433.901 103.389 433.554 103.385 433.221 103.423C432.88 103.453 432.579 103.546 432.318 103.701C432.049 103.847 431.837 104.073 431.68 104.378C431.523 104.676 431.444 105.068 431.444 105.556C431.444 106.085 431.549 106.579 431.758 107.038C431.961 107.488 432.242 107.9 432.602 108.274C432.956 108.646 433.368 108.977 433.839 109.266C434.303 109.547 434.801 109.783 435.331 109.976Z" fill="white"/>
        <path d="M423.055 94.96C422.922 94.96 422.815 95.0674 422.815 95.2C422.815 95.3325 422.922 95.44 423.055 95.44V94.96ZM455.509 95.44C455.641 95.44 455.749 95.3325 455.749 95.2C455.749 95.0674 455.641 94.96 455.509 94.96V95.44ZM423.055 122.8C422.922 122.8 422.815 122.907 422.815 123.04C422.815 123.173 422.922 123.28 423.055 123.28V122.8ZM455.509 123.28C455.641 123.28 455.749 123.173 455.749 123.04C455.749 122.907 455.641 122.8 455.509 122.8V123.28ZM438.668 105.528L438.586 105.754C438.591 105.756 438.597 105.758 438.603 105.759L438.668 105.528ZM425.653 100.799H425.413C425.413 100.9 425.476 100.99 425.571 101.024L425.653 100.799ZM425.653 98.8565L425.735 98.6309C425.662 98.6042 425.58 98.615 425.515 98.6599C425.451 98.7048 425.413 98.7782 425.413 98.8565H425.653ZM440.729 104.335H440.969C440.969 104.234 440.906 104.144 440.811 104.109L440.729 104.335ZM440.729 106.11L440.664 106.341C440.736 106.362 440.814 106.347 440.874 106.302C440.934 106.256 440.969 106.185 440.969 106.11H440.729ZM435.537 111.993L435.455 112.219L435.455 112.219L435.537 111.993ZM435.331 111.918L435.413 111.693L435.413 111.693L435.331 111.918ZM433.122 110.802L432.987 111L432.988 111.001L433.122 110.802ZM431.405 109.27L431.221 109.424L431.222 109.425L431.405 109.27ZM430.305 107.46L430.528 107.371L430.528 107.37L430.305 107.46ZM430.266 103.749L430.478 103.862L430.48 103.858L430.266 103.749ZM431.277 102.759L431.379 102.977L431.383 102.974L431.277 102.759ZM434.977 102.767L435.059 102.541C435.052 102.539 435.045 102.536 435.037 102.535L434.977 102.767ZM435.88 103.095L435.981 102.877C435.975 102.874 435.969 102.872 435.962 102.87L435.88 103.095ZM437.981 104.307L437.84 104.502L437.842 104.503L437.981 104.307ZM439.571 105.773L439.385 105.925L439.386 105.926L439.571 105.773ZM440.582 107.498L440.807 107.415L440.806 107.413L440.582 107.498ZM440.523 111.173L440.728 111.297L440.729 111.296L440.523 111.173ZM439.394 112.173L439.491 112.392L439.494 112.391L439.394 112.173ZM437.686 112.461L437.675 112.701L437.678 112.701L437.686 112.461ZM435.331 109.976L435.413 109.75L435.413 109.75L435.331 109.976ZM435.537 110.051L435.455 110.276L435.455 110.276L435.537 110.051ZM437.029 110.426L436.999 110.664L437.003 110.664L437.029 110.426ZM439.09 109.702L439.289 109.836L439.292 109.832L439.09 109.702ZM439.002 106.746L438.787 106.853L438.787 106.855L439.002 106.746ZM436.626 104.296L436.757 104.094C436.742 104.084 436.725 104.076 436.708 104.07L436.626 104.296ZM434.261 103.436L434.343 103.21C434.326 103.205 434.309 103.2 434.292 103.198L434.261 103.436ZM433.221 103.423L433.241 103.663L433.248 103.662L433.221 103.423ZM432.318 103.701L432.432 103.912L432.44 103.907L432.318 103.701ZM431.68 104.378L431.892 104.49L431.893 104.488L431.68 104.378ZM431.758 107.038L431.977 106.939L431.976 106.938L431.758 107.038ZM432.602 108.274L432.776 108.109L432.775 108.108L432.602 108.274ZM433.839 109.266L433.713 109.471L433.715 109.472L433.839 109.266ZM451.662 81.04L451.901 81.0684C451.912 80.9702 451.863 80.8749 451.775 80.8284C451.688 80.7818 451.581 80.7934 451.506 80.8577L451.662 81.04ZM449.979 82.48L449.979 82.72L449.979 82.72L449.979 82.48ZM448.056 81.04L448.199 80.8479C448.122 80.7899 448.017 80.7841 447.934 80.8332C447.851 80.8822 447.805 80.9765 447.818 81.0723L448.056 81.04ZM450.219 75.28C450.219 75.1475 450.112 75.04 449.979 75.04C449.847 75.04 449.739 75.1475 449.739 75.28H450.219ZM447.818 137.168C447.8 137.299 447.892 137.42 448.023 137.438C448.155 137.456 448.276 137.364 448.293 137.232L447.818 137.168ZM451.424 137.228C451.44 137.36 451.559 137.454 451.691 137.438C451.822 137.423 451.916 137.303 451.901 137.172L451.424 137.228ZM449.739 142.72C449.739 142.853 449.847 142.96 449.979 142.96C450.112 142.96 450.219 142.853 450.219 142.72L449.739 142.72ZM423.055 95.44H455.509V94.96H423.055V95.44ZM423.055 123.28H455.509V122.8H423.055V123.28ZM438.75 105.303L425.735 100.573L425.571 101.024L438.586 105.754L438.75 105.303ZM425.893 100.799V98.8565H425.413V100.799H425.893ZM425.571 99.0821L440.647 104.56L440.811 104.109L425.735 98.6309L425.571 99.0821ZM440.489 104.335V106.11H440.969V104.335H440.489ZM440.794 105.879L438.733 105.297L438.603 105.759L440.664 106.341L440.794 105.879ZM435.619 111.767L435.413 111.693L435.249 112.144L435.455 112.219L435.619 111.767ZM435.413 111.693C434.619 111.404 433.9 111.041 433.257 110.604L432.988 111.001C433.666 111.462 434.42 111.843 435.249 112.144L435.413 111.693ZM433.258 110.604C432.607 110.157 432.05 109.66 431.588 109.114L431.222 109.425C431.714 110.006 432.303 110.531 432.987 111L433.258 110.604ZM431.589 109.115C431.126 108.563 430.773 107.981 430.528 107.371L430.083 107.55C430.348 108.211 430.728 108.836 431.221 109.424L431.589 109.115ZM430.528 107.37C430.277 106.753 430.153 106.123 430.153 105.48H429.673C429.673 106.187 429.81 106.878 430.083 107.551L430.528 107.37ZM430.153 105.48C430.153 104.794 430.267 104.259 430.478 103.862L430.054 103.637C429.794 104.126 429.673 104.746 429.673 105.48H430.153ZM430.48 103.858C430.686 103.451 430.984 103.16 431.379 102.977L431.176 102.541C430.68 102.772 430.304 103.142 430.052 103.641L430.48 103.858ZM431.383 102.974C431.78 102.778 432.27 102.68 432.863 102.689L432.871 102.209C432.221 102.199 431.652 102.306 431.171 102.544L431.383 102.974ZM432.863 102.689C433.461 102.699 434.146 102.801 434.918 102.999L435.037 102.535C434.239 102.329 433.516 102.22 432.871 102.209L432.863 102.689ZM434.895 102.993L435.798 103.321L435.962 102.87L435.059 102.541L434.895 102.993ZM435.78 103.313C436.546 103.667 437.233 104.063 437.84 104.502L438.121 104.113C437.486 103.654 436.772 103.242 435.981 102.877L435.78 103.313ZM437.842 104.503C438.448 104.934 438.962 105.408 439.385 105.925L439.756 105.621C439.303 105.067 438.757 104.565 438.12 104.112L437.842 104.503ZM439.386 105.926C439.808 106.435 440.131 106.987 440.357 107.583L440.806 107.413C440.561 106.766 440.21 106.168 439.756 105.62L439.386 105.926ZM440.357 107.581C440.575 108.172 440.685 108.811 440.685 109.502H441.165C441.165 108.759 441.047 108.063 440.807 107.415L440.357 107.581ZM440.685 109.502C440.685 110.132 440.558 110.644 440.316 111.051L440.729 111.296C441.025 110.798 441.165 110.196 441.165 109.502H440.685ZM440.317 111.049C440.075 111.452 439.736 111.753 439.295 111.955L439.494 112.391C440.021 112.151 440.435 111.785 440.728 111.297L440.317 111.049ZM439.297 111.953C438.853 112.15 438.321 112.242 437.694 112.221L437.678 112.701C438.36 112.724 438.967 112.624 439.491 112.392L439.297 111.953ZM437.698 112.221C437.066 112.191 436.373 112.042 435.619 111.767L435.455 112.219C436.244 112.505 436.985 112.668 437.675 112.701L437.698 112.221ZM435.249 110.201L435.455 110.276L435.619 109.825L435.413 109.75L435.249 110.201ZM435.455 110.276C435.999 110.474 436.514 110.604 436.999 110.664L437.058 110.187C436.615 110.133 436.135 110.013 435.619 109.825L435.455 110.276ZM437.003 110.664C437.493 110.717 437.937 110.685 438.33 110.557L438.181 110.1C437.867 110.203 437.494 110.235 437.055 110.187L437.003 110.664ZM438.33 110.557C438.733 110.425 439.056 110.184 439.289 109.836L438.891 109.568C438.718 109.825 438.485 110.001 438.181 110.1L438.33 110.557ZM439.292 109.832C439.522 109.475 439.624 109.011 439.624 108.462H439.144C439.144 108.957 439.051 109.32 438.888 109.572L439.292 109.832ZM439.624 108.462C439.624 107.789 439.49 107.179 439.216 106.638L438.787 106.855C439.023 107.32 439.144 107.854 439.144 108.462H439.624ZM439.216 106.639C438.949 106.103 438.595 105.625 438.157 105.203L437.824 105.549C438.224 105.933 438.544 106.368 438.787 106.853L439.216 106.639ZM438.157 105.203C437.727 104.79 437.26 104.42 436.757 104.094L436.496 104.497C436.974 104.806 437.417 105.157 437.824 105.549L438.157 105.203ZM436.708 104.07L434.343 103.21L434.179 103.662L436.544 104.521L436.708 104.07ZM434.292 103.198C433.914 103.148 433.548 103.144 433.193 103.185L433.248 103.662C433.561 103.625 433.888 103.629 434.23 103.674L434.292 103.198ZM433.2 103.184C432.828 103.217 432.491 103.319 432.195 103.495L432.44 103.907C432.667 103.772 432.933 103.689 433.241 103.663L433.2 103.184ZM432.203 103.49C431.887 103.662 431.642 103.926 431.466 104.268L431.893 104.488C432.031 104.22 432.211 104.032 432.432 103.912L432.203 103.49ZM431.467 104.266C431.286 104.61 431.204 105.046 431.204 105.556H431.684C431.684 105.091 431.759 104.741 431.892 104.49L431.467 104.266ZM431.204 105.556C431.204 106.117 431.315 106.646 431.54 107.137L431.976 106.938C431.782 106.512 431.684 106.052 431.684 105.556H431.204ZM431.539 107.137C431.754 107.613 432.051 108.047 432.429 108.44L432.775 108.108C432.433 107.752 432.168 107.363 431.977 106.939L431.539 107.137ZM432.428 108.439C432.797 108.828 433.226 109.171 433.713 109.471L433.965 109.062C433.51 108.783 433.114 108.465 432.776 108.109L432.428 108.439ZM433.715 109.472C434.193 109.761 434.705 110.004 435.249 110.201L435.413 109.75C434.897 109.563 434.414 109.333 433.963 109.061L433.715 109.472ZM450.218 95.2284L451.901 81.0684L451.424 81.0117L449.741 95.1717L450.218 95.2284ZM451.506 80.8577L449.823 82.2977L450.136 82.6624L451.818 81.2224L451.506 80.8577ZM450.123 82.2879L448.199 80.8479L447.912 81.2322L449.836 82.6722L450.123 82.2879ZM447.818 81.0723L449.742 95.2324L450.217 95.1677L448.293 81.0077L447.818 81.0723ZM450.219 95.2V75.28H449.739V95.2H450.219ZM451.422 81.52H451.662V81.04H451.422V81.52ZM451.181 81.76H451.662V81.28H451.181V81.76ZM450.941 82H451.662V81.52H450.941V82ZM450.701 82.24H451.662V81.76H450.701V82.24ZM450.46 82.48H451.662V82H450.46V82.48ZM449.979 82.72L451.662 82.72L451.662 82.24L449.979 82.24L449.979 82.72ZM449.979 93.76H450.22V93.28H449.979V93.76ZM449.979 94H450.22V93.52H449.979V94ZM449.979 94.24H450.22V93.76H449.979V94.24ZM449.979 94.48H450.22V94H449.979V94.48ZM449.979 94.72H450.22V94.24H449.979V94.72ZM449.979 94.96H450.22V94.48H449.979V94.96ZM449.979 95.2H450.22V94.72H449.979V95.2ZM448.297 81.52H448.537V81.04H448.297V81.52ZM448.297 81.76H448.778V81.28H448.297V81.76ZM448.297 82H449.018V81.52H448.297V82ZM448.297 82.24H449.499V81.76H448.297V82.24ZM448.297 82.48H449.739V82H448.297V82.48ZM448.297 82.72L449.979 82.72L449.979 82.24L448.297 82.24L448.297 82.72ZM449.741 123.008L447.818 137.168L448.293 137.232L450.217 123.072L449.741 123.008ZM451.901 137.172L450.217 123.012L449.741 123.068L451.424 137.228L451.901 137.172ZM449.739 123.04L449.739 142.72L450.219 142.72L450.219 123.04L449.739 123.04ZM448.297 136.24H449.739V135.76H448.297V136.24ZM448.297 136.48H449.499V136H448.297V136.48ZM448.297 136.72H449.018V136.24H448.297V136.72ZM448.297 136.96H448.778V136.48H448.297V136.96ZM448.297 137.2H448.537V136.72H448.297V137.2ZM449.979 123.52H450.22V123.04H449.979V123.52ZM449.979 123.76H450.22V123.28H449.979V123.76ZM449.979 124H450.22V123.52H449.979V124ZM449.979 124.24H450.22V123.76H449.979V124.24ZM449.979 124.48H450.22V124H449.979V124.48ZM449.979 124.72H450.22V124.24H449.979V124.72ZM449.979 124.96H450.22V124.48H449.979V124.96ZM450.46 136.24H451.662V135.76H450.46V136.24ZM450.701 136.48H451.662V136H450.701V136.48ZM450.941 136.72H451.662V136.24H450.941V136.72ZM451.181 136.96H451.662V136.48H451.181V136.96ZM451.422 137.2H451.662V136.72H451.422V137.2ZM449.739 95.2L449.739 123.04L450.219 123.04L450.219 95.2L449.739 95.2ZM448.297 82.96L451.662 82.96L451.662 82.48L448.297 82.48L448.297 82.96ZM448.537 83.2L451.662 83.2L451.662 82.72L448.537 82.72L448.537 83.2ZM448.537 83.44L451.422 83.44L451.422 82.96L448.537 82.96L448.537 83.44ZM448.537 83.68L451.422 83.68L451.422 83.2L448.537 83.2L448.537 83.68ZM448.537 83.92L451.422 83.92L451.422 83.44L448.537 83.44L448.537 83.92ZM448.537 84.16L451.422 84.16L451.422 83.68L448.537 83.68L448.537 84.16ZM448.537 84.4L451.422 84.4L451.422 83.92L448.537 83.92L448.537 84.4ZM448.537 84.64L451.422 84.64L451.422 84.16L448.537 84.16L448.537 84.64ZM448.778 84.88L451.422 84.88L451.422 84.4L448.778 84.4L448.778 84.88ZM448.778 85.12L451.422 85.12L451.422 84.64L448.778 84.64L448.778 85.12ZM448.778 85.36L451.181 85.36L451.181 84.88L448.778 84.88L448.778 85.36ZM448.778 85.6L451.181 85.6L451.181 85.12L448.778 85.12L448.778 85.6ZM448.778 85.84L451.181 85.84L451.181 85.36L448.778 85.36L448.778 85.84ZM448.778 86.08L451.181 86.08L451.181 85.6L448.778 85.6L448.778 86.08ZM448.778 86.32L451.181 86.32L451.181 85.84L448.778 85.84L448.778 86.32ZM448.778 86.56L451.181 86.56L451.181 86.08L448.778 86.08L448.778 86.56ZM449.018 86.8L451.181 86.8L451.181 86.32L449.018 86.32L449.018 86.8ZM449.018 87.04L451.181 87.04L451.181 86.56L449.018 86.56L449.018 87.04ZM449.018 87.28L451.181 87.28L451.181 86.8L449.018 86.8L449.018 87.28ZM449.018 87.52L450.941 87.52L450.941 87.04L449.018 87.04L449.018 87.52ZM449.018 87.76L450.941 87.76L450.941 87.28L449.018 87.28L449.018 87.76ZM449.018 88L450.941 88L450.941 87.52L449.018 87.52L449.018 88ZM449.018 88.24L450.941 88.24L450.941 87.76L449.018 87.76L449.018 88.24ZM449.258 88.48L450.941 88.48L450.941 88L449.258 88L449.258 88.48ZM449.258 88.72L450.941 88.72L450.941 88.24L449.258 88.24L449.258 88.72ZM449.258 88.96L450.941 88.96L450.941 88.48L449.258 88.48L449.258 88.96ZM449.258 89.2L450.941 89.2L450.941 88.72L449.258 88.72L449.258 89.2ZM449.258 89.44L450.701 89.44L450.701 88.96L449.258 88.96L449.258 89.44ZM449.258 89.68L450.701 89.68L450.701 89.2L449.258 89.2L449.258 89.68ZM449.258 89.92L450.701 89.92L450.701 89.44L449.258 89.44L449.258 89.92ZM449.499 90.16L450.701 90.16L450.701 89.68L449.499 89.68L449.499 90.16ZM449.499 90.4L450.701 90.4L450.701 89.92L449.499 89.92L449.499 90.4ZM449.499 90.64L450.701 90.64L450.701 90.16L449.499 90.16L449.499 90.64ZM449.499 90.88L450.701 90.88L450.701 90.4L449.499 90.4L449.499 90.88ZM449.499 91.12L450.701 91.12L450.701 90.64L449.499 90.64L449.499 91.12ZM449.499 91.36L450.701 91.36L450.701 90.88L449.499 90.88L449.499 91.36ZM449.499 91.6L450.46 91.6L450.46 91.12L449.499 91.12L449.499 91.6ZM449.499 91.84L450.46 91.84L450.46 91.36L449.499 91.36L449.499 91.84ZM449.739 92.08L450.46 92.08L450.46 91.6L449.739 91.6L449.739 92.08ZM449.739 92.32L450.46 92.32L450.46 91.84L449.739 91.84L449.739 92.32ZM449.739 92.56L450.46 92.56L450.46 92.08L449.739 92.08L449.739 92.56ZM449.739 92.8L450.46 92.8L450.46 92.32L449.739 92.32L449.739 92.8ZM449.739 93.04L450.46 93.04L450.46 92.56L449.739 92.56L449.739 93.04ZM449.739 93.28L450.46 93.28L450.46 92.8L449.739 92.8L449.739 93.28ZM449.739 93.52L450.22 93.52L450.22 93.04L449.739 93.04L449.739 93.52ZM449.739 125.2L450.22 125.2L450.22 124.72L449.739 124.72L449.739 125.2ZM449.739 125.44L450.46 125.44L450.46 124.96L449.739 124.96L449.739 125.44ZM449.739 125.68L450.46 125.68L450.46 125.2L449.739 125.2L449.739 125.68ZM449.739 125.92L450.46 125.92L450.46 125.44L449.739 125.44L449.739 125.92ZM449.739 126.16L450.46 126.16L450.46 125.68L449.739 125.68L449.739 126.16ZM449.739 126.4L450.46 126.4L450.46 125.92L449.739 125.92L449.739 126.4ZM449.739 126.64L450.46 126.64L450.46 126.16L449.739 126.16L449.739 126.64ZM449.499 126.88L450.46 126.88L450.46 126.4L449.499 126.4L449.499 126.88ZM449.499 127.12L450.46 127.12L450.46 126.64L449.499 126.64L449.499 127.12ZM449.499 127.36L450.701 127.36L450.701 126.88L449.499 126.88L449.499 127.36ZM449.499 127.6L450.701 127.6L450.701 127.12L449.499 127.12L449.499 127.6ZM449.499 127.84L450.701 127.84L450.701 127.36L449.499 127.36L449.499 127.84ZM449.499 128.08L450.701 128.08L450.701 127.6L449.499 127.6L449.499 128.08ZM449.499 128.32L450.701 128.32L450.701 127.84L449.499 127.84L449.499 128.32ZM449.499 128.56L450.701 128.56L450.701 128.08L449.499 128.08L449.499 128.56ZM449.258 128.8L450.701 128.8L450.701 128.32L449.258 128.32L449.258 128.8ZM449.258 129.04L450.701 129.04L450.701 128.56L449.258 128.56L449.258 129.04ZM449.258 129.28L450.701 129.28L450.701 128.8L449.258 128.8L449.258 129.28ZM449.258 129.52L450.941 129.52L450.941 129.04L449.258 129.04L449.258 129.52ZM449.258 129.76L450.941 129.76L450.941 129.28L449.258 129.28L449.258 129.76ZM449.258 130L450.941 130L450.941 129.52L449.258 129.52L449.258 130ZM449.258 130.24L450.941 130.24L450.941 129.76L449.258 129.76L449.258 130.24ZM449.018 130.48L450.941 130.48L450.941 130L449.018 130L449.018 130.48ZM449.018 130.72L450.941 130.72L450.941 130.24L449.018 130.24L449.018 130.72ZM449.018 130.96L450.941 130.96L450.941 130.48L449.018 130.48L449.018 130.96ZM449.018 131.2L450.941 131.2L450.941 130.72L449.018 130.72L449.018 131.2ZM449.018 131.44L451.181 131.44L451.181 130.96L449.018 130.96L449.018 131.44ZM449.018 131.68L451.181 131.68L451.181 131.2L449.018 131.2L449.018 131.68ZM449.018 131.92L451.181 131.92L451.181 131.44L449.018 131.44L449.018 131.92ZM448.778 132.16L451.181 132.16L451.181 131.68L448.778 131.68L448.778 132.16ZM448.778 132.4L451.181 132.4L451.181 131.92L448.778 131.92L448.778 132.4ZM448.778 132.64L451.181 132.64L451.181 132.16L448.778 132.16L448.778 132.64ZM448.778 132.88L451.181 132.88L451.181 132.4L448.778 132.4L448.778 132.88ZM448.778 133.12L451.181 133.12L451.181 132.64L448.778 132.64L448.778 133.12ZM448.778 133.36L451.181 133.36L451.181 132.88L448.778 132.88L448.778 133.36ZM448.778 133.6L451.422 133.6L451.422 133.12L448.778 133.12L448.778 133.6ZM448.778 133.84L451.422 133.84L451.422 133.36L448.778 133.36L448.778 133.84ZM448.537 134.08L451.422 134.08L451.422 133.6L448.537 133.6L448.537 134.08ZM448.537 134.32L451.422 134.32L451.422 133.84L448.537 133.84L448.537 134.32ZM448.537 134.56L451.422 134.56L451.422 134.08L448.537 134.08L448.537 134.56ZM448.537 134.8L451.422 134.8L451.422 134.32L448.537 134.32L448.537 134.8ZM448.537 135.04L451.422 135.04L451.422 134.56L448.537 134.56L448.537 135.04ZM448.537 135.28L451.422 135.28L451.422 134.8L448.537 134.8L448.537 135.28ZM448.537 135.52L451.662 135.52L451.662 135.04L448.537 135.04L448.537 135.52ZM448.297 135.76L451.662 135.76L451.662 135.28L448.297 135.28L448.297 135.76ZM448.297 136L451.662 136L451.662 135.52L448.297 135.52L448.297 136Z" fill="white"/>
    </g>
    <!--    8 dH-->
    <g class="group">
    </g>
    <!--    9 d1-->
    <g class="group">
    </g>
    <!--    10 d2-->
    <g class="group">
    </g>
    <!--    11 L-->
    <g class="group">
        <path d="M357.245 147.48L356.684 149.02H349.081L349.643 147.48H357.245ZM354.687 134.735L349.478 149.02H347.463L352.671 134.735H354.687Z" fill="white"/>
        <path d="M283.621 128.32C283.621 128.187 283.513 128.08 283.381 128.08C283.248 128.08 283.141 128.187 283.141 128.32H283.621ZM283.141 163.84C283.141 163.972 283.248 164.08 283.381 164.08C283.513 164.08 283.621 163.972 283.621 163.84H283.141ZM419.208 128.32C419.208 128.187 419.1 128.08 418.968 128.08C418.835 128.08 418.728 128.187 418.728 128.32H419.208ZM418.728 163.84C418.728 163.972 418.835 164.08 418.968 164.08C419.1 164.08 419.208 163.972 419.208 163.84H418.728ZM357.245 147.48L357.471 147.562C357.498 147.489 357.487 147.407 357.442 147.343C357.397 147.278 357.324 147.24 357.245 147.24V147.48ZM356.684 149.02V149.26C356.785 149.26 356.875 149.197 356.909 149.103L356.684 149.02ZM349.081 149.02L348.856 148.938C348.829 149.012 348.84 149.094 348.885 149.158C348.93 149.222 349.003 149.26 349.081 149.26V149.02ZM349.643 147.48V147.24C349.542 147.24 349.452 147.303 349.417 147.398L349.643 147.48ZM354.687 134.735L354.912 134.818C354.939 134.744 354.928 134.662 354.883 134.598C354.838 134.534 354.765 134.495 354.687 134.495V134.735ZM349.478 149.02V149.26C349.579 149.26 349.669 149.197 349.704 149.103L349.478 149.02ZM347.463 149.02L347.237 148.938C347.21 149.012 347.221 149.094 347.266 149.158C347.311 149.222 347.384 149.26 347.463 149.26V149.02ZM352.671 134.735V134.495C352.57 134.495 352.48 134.559 352.446 134.653L352.671 134.735ZM283.381 158.08L283.353 157.842C283.233 157.856 283.142 157.957 283.141 158.078C283.14 158.199 283.229 158.302 283.349 158.318L283.381 158.08ZM297.565 156.4L297.747 156.556C297.811 156.481 297.823 156.374 297.776 156.287C297.73 156.2 297.635 156.15 297.536 156.162L297.565 156.4ZM297.565 160L297.533 160.238C297.629 160.251 297.724 160.205 297.772 160.121C297.821 160.038 297.815 159.933 297.757 159.856L297.565 160ZM418.968 158.08L419 158.318C419.12 158.301 419.209 158.199 419.208 158.078C419.207 157.957 419.116 157.856 418.996 157.841L418.968 158.08ZM404.784 160L404.592 159.856C404.534 159.933 404.528 160.038 404.577 160.121C404.626 160.205 404.72 160.251 404.816 160.238L404.784 160ZM404.784 156.4L404.812 156.162C404.714 156.15 404.619 156.2 404.572 156.287C404.526 156.374 404.538 156.481 404.602 156.556L404.784 156.4ZM283.141 128.32V163.84H283.621V128.32H283.141ZM418.728 128.32V163.84H419.208V128.32H418.728ZM357.02 147.398L356.458 148.938L356.909 149.103L357.471 147.562L357.02 147.398ZM356.684 148.78H349.081V149.26H356.684V148.78ZM349.307 149.103L349.868 147.562L349.417 147.398L348.856 148.938L349.307 149.103ZM349.643 147.72H357.245V147.24H349.643V147.72ZM354.461 134.653L349.253 148.938L349.704 149.103L354.912 134.818L354.461 134.653ZM349.478 148.78H347.463V149.26H349.478V148.78ZM347.688 149.103L352.897 134.818L352.446 134.653L347.237 148.938L347.688 149.103ZM352.671 134.975H354.687V134.495H352.671V134.975ZM283.409 158.318L297.593 156.638L297.536 156.162L283.353 157.842L283.409 158.318ZM297.382 156.244L295.941 157.924L296.305 158.236L297.747 156.556L297.382 156.244ZM295.931 158.224L297.374 160.144L297.757 159.856L296.315 157.936L295.931 158.224ZM297.598 159.762L283.413 157.842L283.349 158.318L297.533 160.238L297.598 159.762ZM295.642 156.88H297.565V156.4H295.642V156.88ZM293.719 157.12H297.325V156.64H293.719V157.12ZM291.555 157.36H297.084V156.88H291.555V157.36ZM289.632 157.6H296.844V157.12H289.632V157.6ZM287.468 157.84H296.603V157.36H287.468V157.84ZM285.545 158.08H296.363V157.6H285.545V158.08ZM283.381 158.32H296.123V157.84H283.381V158.32ZM285.304 158.56H296.363V158.08H285.304V158.56ZM286.987 158.8H296.603V158.32H286.987V158.8ZM288.91 159.04H296.843V158.56H288.91V159.04ZM290.593 159.28H296.843V158.8H290.593V159.28ZM292.276 159.52H297.084V159.04H292.276V159.52ZM294.199 159.76H297.324V159.28H294.199V159.76ZM295.882 160H297.565V159.52H295.882V160ZM418.936 157.842L404.752 159.762L404.816 160.238L419 158.318L418.936 157.842ZM404.976 160.144L406.419 158.224L406.035 157.936L404.592 159.856L404.976 160.144ZM406.409 157.923L404.966 156.244L404.602 156.556L406.045 158.236L406.409 157.923ZM404.756 156.638L418.94 158.318L418.996 157.841L404.812 156.162L404.756 156.638ZM406.227 158.32H418.968V157.84H406.227V158.32ZM406.226 158.56H417.285V158.08H406.226V158.56ZM405.986 158.8H415.602V158.32H405.986V158.8ZM405.746 159.04H413.679V158.56H405.746V159.04ZM405.505 159.28H411.996V158.8H405.505V159.28ZM405.505 159.52H410.313V159.04H405.505V159.52ZM405.265 159.76H408.39V159.28H405.265V159.76ZM405.024 160H406.707V159.52H405.024V160ZM405.024 156.88H406.948V156.4H405.024V156.88ZM405.265 157.12H408.871V156.64H405.265V157.12ZM405.505 157.36H411.034V156.88H405.505V157.36ZM405.746 157.6H412.958V157.12H405.746V157.6ZM405.986 157.84H415.121V157.36H405.986V157.84ZM406.226 158.08H417.044V157.6H406.226V158.08ZM283.381 158.32L418.968 158.32L418.968 157.84L283.381 157.84L283.381 158.32Z" fill="white"/>
        <path d="M108.332 87.8838L107.771 89.4242H100.168L100.73 87.8838H108.332ZM105.774 75.1392L100.565 89.4242H98.5496L103.758 75.1392H105.774Z" fill="white"/>
        <path d="M170.392 77.6798C170.392 77.5473 170.285 77.4398 170.152 77.4398C170.02 77.4398 169.912 77.5473 169.912 77.6798H170.392ZM169.912 104.32C169.912 104.452 170.02 104.56 170.152 104.56C170.285 104.56 170.392 104.452 170.392 104.32H169.912ZM34.5662 77.6798C34.5662 77.5473 34.4587 77.4398 34.3262 77.4398C34.1936 77.4398 34.0862 77.5473 34.0862 77.6798H34.5662ZM34.0862 104.32C34.0862 104.452 34.1936 104.56 34.3262 104.56C34.4587 104.56 34.5662 104.452 34.5662 104.32H34.0862ZM108.332 87.8838L108.558 87.966C108.585 87.8924 108.574 87.8104 108.529 87.7462C108.484 87.682 108.411 87.6438 108.332 87.6438V87.8838ZM107.771 89.4242V89.6642C107.872 89.6642 107.962 89.6011 107.996 89.5064L107.771 89.4242ZM100.168 89.4242L99.9428 89.3419C99.9159 89.4155 99.9267 89.4976 99.9716 89.5618C100.017 89.6259 100.09 89.6642 100.168 89.6642V89.4242ZM100.73 87.8838V87.6438C100.629 87.6438 100.539 87.7069 100.504 87.8016L100.73 87.8838ZM105.774 75.1392L105.999 75.2214C106.026 75.1478 106.015 75.0657 105.97 75.0016C105.925 74.9374 105.852 74.8992 105.774 74.8992V75.1392ZM100.565 89.4242V89.6642C100.666 89.6642 100.756 89.6011 100.791 89.5064L100.565 89.4242ZM98.5496 89.4242L98.3241 89.3419C98.2973 89.4155 98.3081 89.4976 98.353 89.5618C98.3979 89.6259 98.4713 89.6642 98.5496 89.6642V89.4242ZM103.758 75.1392V74.8992C103.657 74.8992 103.567 74.9622 103.533 75.0569L103.758 75.1392ZM170.153 98.5599L170.184 98.7978C170.303 98.782 170.393 98.6803 170.393 98.5599C170.393 98.4396 170.303 98.3379 170.184 98.322L170.153 98.5599ZM155.729 100.48L155.537 100.336C155.479 100.413 155.473 100.518 155.521 100.601C155.57 100.685 155.664 100.731 155.76 100.718L155.729 100.48ZM155.729 96.6398L155.76 96.4019C155.664 96.3891 155.57 96.4351 155.521 96.5186C155.473 96.602 155.479 96.7066 155.537 96.7839L155.729 96.6398ZM34.3262 98.5598L34.294 98.3219C34.175 98.3381 34.0862 98.4397 34.0862 98.5598C34.0862 98.6799 34.175 98.7815 34.294 98.7976L34.3262 98.5598ZM48.5098 96.6398L48.7133 96.7671C48.7627 96.6882 48.762 96.5879 48.7115 96.5097C48.661 96.4314 48.5699 96.3895 48.4776 96.4019L48.5098 96.6398ZM48.5096 100.48L48.4774 100.718C48.5697 100.73 48.6608 100.688 48.7113 100.61C48.7618 100.532 48.7624 100.431 48.7131 100.353L48.5096 100.48ZM169.912 77.6798V104.32H170.392V77.6798H169.912ZM34.0862 77.6798V104.32H34.5662V77.6798H34.0862ZM108.107 87.8016L107.545 89.3419L107.996 89.5064L108.558 87.966L108.107 87.8016ZM107.771 89.1842H100.168V89.6642H107.771V89.1842ZM100.394 89.5064L100.955 87.966L100.504 87.8016L99.9428 89.3419L100.394 89.5064ZM100.73 88.1238H108.332V87.6438H100.73V88.1238ZM105.548 75.0569L100.34 89.3419L100.791 89.5064L105.999 75.2214L105.548 75.0569ZM100.565 89.1842H98.5496V89.6642H100.565V89.1842ZM98.7751 89.5064L103.984 75.2214L103.533 75.0569L98.3241 89.3419L98.7751 89.5064ZM103.758 75.3792H105.774V74.8992H103.758V75.3792ZM170.121 98.322L155.697 100.242L155.76 100.718L170.184 98.7978L170.121 98.322ZM155.92 100.624L157.363 98.7041L156.979 98.4158L155.537 100.336L155.92 100.624ZM157.363 98.4158L155.92 96.4956L155.537 96.7839L156.979 98.7041L157.363 98.4158ZM155.697 96.8777L170.121 98.7978L170.184 98.322L155.76 96.4019L155.697 96.8777ZM157.171 98.7999H170.153V98.3199H157.171V98.7999ZM157.171 99.0399H168.47V98.5599H157.171V99.0399ZM156.93 99.2799H166.546V98.7999H156.93V99.2799ZM156.69 99.5199H164.864V99.0399H156.69V99.5199ZM156.45 99.7599H162.94V99.2799H156.45V99.7599ZM156.45 99.9999H161.258V99.5199H156.45V99.9999ZM156.209 100.24H159.334V99.7599H156.209V100.24ZM155.969 100.48H157.652V99.9999H155.969V100.48ZM155.969 97.1198H157.652V96.6398H155.969V97.1198ZM156.209 97.3598H159.334V96.8798H156.209V97.3598ZM156.45 97.5998H161.258V97.1198H156.45V97.5998ZM156.45 97.8398H162.94V97.3598H156.45V97.8398ZM156.69 98.0798H164.864V97.5998H156.69V98.0798ZM156.93 98.3198H166.546V97.8398H156.93V98.3198ZM157.171 98.5598H168.47V98.0798H157.171V98.5598ZM34.3584 98.7976L48.542 96.8776L48.4776 96.4019L34.294 98.3219L34.3584 98.7976ZM48.3064 96.5124L47.1042 98.4324L47.511 98.6871L48.7133 96.7671L48.3064 96.5124ZM47.1042 98.6871L48.3062 100.607L48.7131 100.353L47.511 98.4324L47.1042 98.6871ZM48.5418 100.242L34.3584 98.3219L34.294 98.7976L48.4774 100.718L48.5418 100.242ZM46.8267 97.1198H48.5095V96.6398H46.8267V97.1198ZM45.1439 97.3598H48.2691V96.8798H45.1439V97.3598ZM43.2207 97.5998H48.2691V97.1198H43.2207V97.5998ZM41.5378 97.8398H48.0287V97.3598H41.5378V97.8398ZM39.855 98.0798H47.7883V97.5998H39.855V98.0798ZM37.9318 98.3198H47.7883V97.8398H37.9318V98.3198ZM36.249 98.5598H47.5479V98.0798H36.249V98.5598ZM34.3262 98.7998H47.3076V98.3198H34.3262V98.7998ZM36.2494 99.0399H47.5482V98.5599H36.2494V99.0399ZM37.9322 99.2799H47.7886V98.7999H37.9322V99.2799ZM39.8554 99.5199H47.7886V99.0399H39.8554V99.5199ZM41.5382 99.7599H48.029V99.2799H41.5382V99.7599ZM43.221 99.9999H48.2694V99.5199H43.221V99.9999ZM45.1442 100.24H48.2694V99.7599H45.1442V100.24ZM46.827 100.48H48.5098V99.9999H46.827V100.48ZM170.153 98.3199L34.3262 98.3198L34.3262 98.7998L170.153 98.7999L170.153 98.3199Z" fill="white"/>
    </g>
    <!--    12 L1-->
    <g class="group">
    </g>
    <!--    13 L2-->
    <g class="group">
    </g>
    <!--    14 S-->
    <g class="group">
        <path d="M9.07243 9.99396C8.8107 9.89885 8.5686 9.87353 8.34613 9.918C8.11711 9.95313 7.911 10.1254 7.72779 10.4347C7.53803 10.7348 7.37445 11.2323 7.23704 11.9273C7.11271 12.5087 6.96549 13.0226 6.79536 13.469C6.62524 13.9084 6.41912 14.2617 6.17702 14.5288C5.93492 14.7889 5.65028 14.9535 5.32312 15.0226C4.99595 15.0916 4.61317 15.0465 4.17477 14.8872C3.756 14.735 3.36013 14.4937 2.98716 14.1632C2.61419 13.8258 2.28375 13.4238 1.99585 12.9571C1.70794 12.4835 1.4822 11.9594 1.31862 11.3848C1.15503 10.8102 1.07324 10.2061 1.07324 9.57253C1.07324 8.66748 1.22374 7.94939 1.52473 7.41827C1.82572 6.88715 2.22814 6.54257 2.73197 6.38452C3.22926 6.2241 3.78217 6.25445 4.3907 6.47559V8.40753C4.09625 8.30053 3.81162 8.29108 3.5368 8.37918C3.25543 8.45795 3.02315 8.64157 2.83993 8.93006C2.65672 9.21157 2.56512 9.60645 2.56512 10.1147C2.56512 10.6507 2.64364 11.1144 2.80068 11.5056C2.95117 11.8875 3.1442 12.1979 3.37976 12.4366C3.61532 12.6684 3.86396 12.8319 4.12569 12.927C4.32199 12.9983 4.49866 13.0277 4.6557 13.0152C4.8062 12.9933 4.94688 12.9121 5.07775 12.7717C5.20207 12.6289 5.31985 12.4072 5.43108 12.1064C5.54232 11.8057 5.65356 11.411 5.76479 10.9223C5.96109 10.0677 6.19665 9.39101 6.47147 8.89215C6.74629 8.39329 7.08327 8.07018 7.48241 7.92282C7.88155 7.77547 8.36576 7.80522 8.93503 8.01209C9.3996 8.18091 9.82491 8.4399 10.211 8.78905C10.597 9.13123 10.9307 9.54838 11.2121 10.0405C11.4869 10.5233 11.7028 11.0612 11.8599 11.6544C12.0104 12.2382 12.0856 12.8608 12.0856 13.5221C12.0856 14.5177 11.9188 15.2995 11.5851 15.8674C11.2514 16.4354 10.8195 16.8006 10.2895 16.9631C9.75948 17.1255 9.20003 17.0997 8.61113 16.8857V14.9434C9.10842 15.0962 9.50429 15.0869 9.79874 14.9154C10.0866 14.7416 10.2928 14.4754 10.4171 14.1167C10.5349 13.7557 10.5938 13.3768 10.5938 12.98C10.5938 12.4509 10.5283 11.985 10.3975 11.5824C10.2666 11.1728 10.0866 10.8325 9.85763 10.5613C9.62862 10.2901 9.36688 10.101 9.07243 9.99396Z" fill="white"/>
        <path d="M30.7199 39.76C30.8524 39.76 30.9599 39.6526 30.9599 39.52C30.9599 39.3875 30.8524 39.28 30.7199 39.28V39.76ZM15.3342 39.28C15.2016 39.28 15.0942 39.3875 15.0942 39.52C15.0942 39.6526 15.2016 39.76 15.3342 39.76V39.28ZM30.7199 42.6399C30.8524 42.6399 30.9599 42.5325 30.9599 42.3999C30.9599 42.2674 30.8524 42.1599 30.7199 42.1599V42.6399ZM15.3342 42.1599C15.2016 42.1599 15.0942 42.2674 15.0942 42.3999C15.0942 42.5325 15.2016 42.6399 15.3342 42.6399V42.1599ZM21.3437 1.11987C21.3437 0.987325 21.2363 0.879873 21.1037 0.879873C20.9712 0.879873 20.8637 0.987325 20.8637 1.11987H21.3437ZM9.07243 9.99396L8.99046 10.2195L8.99046 10.2195L9.07243 9.99396ZM8.34613 9.918L8.38255 10.1555L8.39317 10.1533L8.34613 9.918ZM7.72779 10.4347L7.93071 10.5631L7.93429 10.557L7.72779 10.4347ZM7.23704 11.9273L7.47176 11.9775L7.47248 11.9738L7.23704 11.9273ZM6.79536 13.469L7.01918 13.5556L7.01963 13.5544L6.79536 13.469ZM6.17702 14.5288L6.35272 14.6923L6.35484 14.6899L6.17702 14.5288ZM4.17477 14.8872L4.25674 14.6616L4.17477 14.8872ZM2.98716 14.1632L2.82614 14.3412L2.828 14.3429L2.98716 14.1632ZM1.99585 12.9571L1.79076 13.0818L1.7916 13.0832L1.99585 12.9571ZM2.73197 6.38452L2.80381 6.61352L2.80565 6.61293L2.73197 6.38452ZM4.3907 6.47559H4.6307C4.6307 6.37465 4.56754 6.28449 4.47267 6.25002L4.3907 6.47559ZM4.3907 8.40753L4.30873 8.6331C4.3823 8.65983 4.46429 8.64901 4.52841 8.60409C4.59252 8.55917 4.6307 8.48581 4.6307 8.40753H4.3907ZM3.5368 8.37918L3.60154 8.61046L3.61007 8.60773L3.5368 8.37918ZM2.83993 8.93006L3.0411 9.06097L3.04253 9.05872L2.83993 8.93006ZM2.80068 11.5056L3.02397 11.4176L3.0234 11.4162L2.80068 11.5056ZM3.37976 12.4366L3.20889 12.6052L3.21142 12.6077L3.37976 12.4366ZM4.12569 12.927L4.04372 13.1526L4.04372 13.1526L4.12569 12.927ZM4.6557 13.0152L4.67483 13.2544C4.67998 13.254 4.68513 13.2534 4.69025 13.2527L4.6557 13.0152ZM5.07775 12.7717L5.25342 12.9354L5.25875 12.9293L5.07775 12.7717ZM5.76479 10.9223L5.53088 10.8686L5.53078 10.8691L5.76479 10.9223ZM8.93503 8.01209L9.017 7.78652L9.01699 7.78652L8.93503 8.01209ZM10.211 8.78905L10.05 8.96706L10.0518 8.96865L10.211 8.78905ZM11.2121 10.0405L11.4207 9.92177L11.4204 9.92137L11.2121 10.0405ZM11.8599 11.6544L12.0923 11.5945L12.0919 11.5929L11.8599 11.6544ZM8.61113 16.8857H8.37113C8.37113 16.9867 8.43429 17.0768 8.52916 17.1113L8.61113 16.8857ZM8.61113 14.9434L8.68165 14.714C8.60886 14.6916 8.52977 14.7051 8.46852 14.7503C8.40727 14.7956 8.37113 14.8672 8.37113 14.9434H8.61113ZM9.79874 14.9154L9.91954 15.1229L9.9228 15.1209L9.79874 14.9154ZM10.4171 14.1167L10.6439 14.1954L10.6452 14.1912L10.4171 14.1167ZM10.3975 11.5824L10.1688 11.6555L10.1692 11.6566L10.3975 11.5824ZM23.0269 25.3599L23.2647 25.3922C23.2778 25.2963 23.232 25.202 23.1486 25.153C23.0652 25.1039 22.9605 25.1098 22.8831 25.1677L23.0269 25.3599ZM21.1037 26.7999L21.1037 27.0399L21.1037 27.0399L21.1037 26.7999ZM19.1809 25.3599L19.3247 25.1678C19.2473 25.1098 19.1426 25.1039 19.0592 25.153C18.9758 25.202 18.93 25.2963 18.943 25.3922L19.1809 25.3599ZM21.3437 19.8398C21.3437 19.7073 21.2363 19.5998 21.1037 19.5998C20.9712 19.5998 20.8637 19.7073 20.8637 19.8398H21.3437ZM19.1809 56.5599L18.943 56.5276C18.93 56.6235 18.9758 56.7178 19.0592 56.7668C19.1426 56.8158 19.2473 56.81 19.3247 56.752L19.1809 56.5599ZM23.0269 56.5599L22.8831 56.752C22.9605 56.81 23.0652 56.8158 23.1486 56.7668C23.232 56.7177 23.2778 56.6234 23.2647 56.5276L23.0269 56.5599ZM20.8637 62.3199C20.8637 62.4524 20.9712 62.5599 21.1037 62.5599C21.2363 62.5599 21.3437 62.4525 21.3437 62.3199L20.8637 62.3199ZM30.7199 39.28H15.3342V39.76H30.7199V39.28ZM30.7199 42.1599H15.3342V42.6399H30.7199V42.1599ZM9.1544 9.7684C8.86075 9.66168 8.57348 9.62781 8.29908 9.68266L8.39317 10.1533C8.56372 10.1193 8.76065 10.136 8.99046 10.2195L9.1544 9.7684ZM8.30974 9.68078C7.97789 9.73168 7.72078 9.97558 7.52128 10.3125L7.93429 10.557C8.10121 10.2752 8.25633 10.1746 8.38252 10.1552L8.30974 9.68078ZM7.52495 10.3065C7.3104 10.6457 7.14019 11.1797 7.00159 11.8807L7.47248 11.9738C7.60871 11.2848 7.76566 10.8239 7.93062 10.563L7.52495 10.3065ZM7.00234 11.8771C6.88 12.4493 6.73595 12.951 6.5711 13.3835L7.01963 13.5544C7.19503 13.0942 7.34543 12.5681 7.47173 11.9775L7.00234 11.8771ZM6.57155 13.3823C6.40896 13.8023 6.21649 14.1279 5.9992 14.3676L6.35484 14.6899C6.62176 14.3955 6.84152 14.0145 7.01918 13.5556L6.57155 13.3823ZM6.00134 14.3652C5.79069 14.5916 5.54921 14.7295 5.27354 14.7877L5.3727 15.2574C5.75136 15.1774 6.07915 14.9862 6.3527 14.6923L6.00134 14.3652ZM5.27354 14.7877C5.00429 14.8446 4.66895 14.8114 4.25674 14.6616L4.0928 15.1128C4.55739 15.2816 4.98762 15.3387 5.3727 15.2574L5.27354 14.7877ZM4.25674 14.6616C3.86953 14.5209 3.49935 14.2964 3.14632 13.9836L2.828 14.3429C3.22091 14.691 3.64247 14.9491 4.0928 15.1128L4.25674 14.6616ZM3.14817 13.9853C2.79344 13.6643 2.47718 13.2802 2.2001 12.8311L1.7916 13.0832C2.09033 13.5673 2.43495 13.9873 2.82614 14.3412L3.14817 13.9853ZM2.20093 12.8325C1.92505 12.3786 1.70759 11.8746 1.54945 11.3191L1.08779 11.4505C1.25681 12.0442 1.49084 12.5884 1.79077 13.0818L2.20093 12.8325ZM1.54945 11.3191C1.3923 10.7671 1.31324 10.1852 1.31324 9.57253H0.833242C0.833242 10.227 0.917763 10.8532 1.08779 11.4505L1.54945 11.3191ZM1.31324 9.57253C1.31324 8.69037 1.46053 8.01833 1.73353 7.5366L1.31593 7.29994C0.986947 7.88045 0.833242 8.64458 0.833242 9.57253H1.31324ZM1.73353 7.5366C2.00955 7.04954 2.36703 6.75053 2.8038 6.61352L2.66014 6.15552C2.08924 6.3346 1.64189 6.72476 1.31593 7.29994L1.73353 7.5366ZM2.80565 6.61293C3.24104 6.47248 3.73808 6.49378 4.30873 6.70115L4.47267 6.25002C3.82627 6.01512 3.21749 5.97572 2.65829 6.15611L2.80565 6.61293ZM4.1507 6.47559V8.40753H4.6307V6.47559H4.1507ZM4.47267 8.18196C4.13278 8.05845 3.79342 8.04488 3.46353 8.15064L3.61007 8.60773C3.82982 8.53728 4.05972 8.54261 4.30873 8.6331L4.47267 8.18196ZM3.4721 8.14807C3.12421 8.24546 2.84658 8.47192 2.63734 8.80139L3.04253 9.05872C3.19971 8.81123 3.38666 8.67044 3.6015 8.6103L3.4721 8.14807ZM2.63878 8.79914C2.42033 9.13481 2.32512 9.58221 2.32512 10.1147H2.80512C2.80512 9.63068 2.89311 9.28834 3.04109 9.06097L2.63878 8.79914ZM2.32512 10.1147C2.32512 10.6734 2.40686 11.1688 2.57795 11.595L3.0234 11.4162C2.88041 11.06 2.80512 10.6281 2.80512 10.1147H2.32512ZM2.57739 11.5936C2.73716 11.9991 2.94613 12.3388 3.20891 12.6052L3.55061 12.2681C3.34226 12.0569 3.16518 11.776 3.02396 11.4176L2.57739 11.5936ZM3.21142 12.6077C3.467 12.8592 3.74415 13.0437 4.04372 13.1526L4.20766 12.7014C3.98378 12.6201 3.76363 12.4777 3.54809 12.2656L3.21142 12.6077ZM4.04372 13.1526C4.26232 13.232 4.47425 13.2704 4.67483 13.2544L4.63658 12.7759C4.52307 12.785 4.38166 12.7647 4.20766 12.7014L4.04372 13.1526ZM4.69025 13.2527C4.90766 13.221 5.09518 13.105 5.25332 12.9353L4.90217 12.6081C4.79858 12.7192 4.70474 12.7655 4.62115 12.7777L4.69025 13.2527ZM5.25875 12.9293C5.41091 12.7545 5.54086 12.5015 5.65618 12.1897L5.20599 12.0232C5.09883 12.3129 4.99323 12.5033 4.89674 12.6141L5.25875 12.9293ZM5.65618 12.1897C5.77246 11.8754 5.88639 11.4695 5.99881 10.9756L5.53078 10.8691C5.42073 11.3526 5.31218 11.7361 5.20599 12.0232L5.65618 12.1897ZM5.9987 10.9761C6.19239 10.1328 6.42174 9.47981 6.68168 9.00795L6.26126 8.77634C5.97156 9.30221 5.72979 10.0027 5.53088 10.8686L5.9987 10.9761ZM6.68168 9.00795C6.93818 8.54234 7.23654 8.26943 7.56553 8.14797L7.39929 7.69768C6.93 7.87093 6.5544 8.24423 6.26126 8.77634L6.68168 9.00795ZM7.56553 8.14797C7.89278 8.02715 8.31489 8.04209 8.85306 8.23766L9.01699 7.78652C8.41663 7.56835 7.87032 7.52378 7.39929 7.69768L7.56553 8.14797ZM8.85306 8.23766C9.28693 8.39533 9.68571 8.63759 10.05 8.96705L10.372 8.61105C9.96412 8.2422 9.51227 7.9665 9.017 7.78652L8.85306 8.23766ZM10.0518 8.96865C10.4164 9.29186 10.7341 9.68798 11.0037 10.1596L11.4204 9.92137C11.1274 9.40879 10.7776 8.9706 10.3702 8.60944L10.0518 8.96865ZM11.0035 10.1592C11.2671 10.6222 11.4756 11.1406 11.6279 11.7158L12.0919 11.5929C11.9301 10.9818 11.7067 10.4243 11.4207 9.92177L11.0035 10.1592ZM11.6275 11.7143C11.7725 12.2767 11.8456 12.879 11.8456 13.5221H12.3256C12.3256 12.8425 12.2483 12.1996 12.0923 11.5945L11.6275 11.7143ZM11.8456 13.5221C11.8456 14.4952 11.6818 15.2289 11.3781 15.7458L11.792 15.989C12.1557 15.37 12.3256 14.5402 12.3256 13.5221H11.8456ZM11.3781 15.7458C11.0688 16.2724 10.6812 16.592 10.2192 16.7336L10.3598 17.1925C10.9578 17.0092 11.4339 16.5984 11.792 15.989L11.3781 15.7458ZM10.2192 16.7336C9.74539 16.8788 9.23969 16.8588 8.6931 16.6602L8.52916 17.1113C9.16037 17.3407 9.77357 17.3722 10.3598 17.1925L10.2192 16.7336ZM8.85113 16.8857V14.9434H8.37113V16.8857H8.85113ZM8.54061 15.1728C9.06842 15.335 9.54258 15.3424 9.91952 15.1228L9.67796 14.708C9.46601 14.8315 9.14842 14.8574 8.68165 14.714L8.54061 15.1728ZM9.9228 15.1209C10.2649 14.9143 10.5037 14.5997 10.6438 14.1953L10.1903 14.0381C10.0819 14.351 9.90842 14.5688 9.67468 14.71L9.9228 15.1209ZM10.6452 14.1912C10.7712 13.8051 10.8338 13.401 10.8338 12.98H10.3538C10.3538 13.3527 10.2985 13.7064 10.1889 14.0423L10.6452 14.1912ZM10.8338 12.98C10.8338 12.4317 10.766 11.9399 10.6257 11.5082L10.1692 11.6566C10.2906 12.0301 10.3538 12.4701 10.3538 12.98H10.8338ZM10.6261 11.5094C10.4876 11.076 10.2941 10.7061 10.041 10.4064L9.67427 10.7161C9.87918 10.9588 10.0456 11.2697 10.1688 11.6555L10.6261 11.5094ZM10.041 10.4064C9.7886 10.1075 9.49326 9.89153 9.1544 9.7684L8.99046 10.2195C9.24051 10.3104 9.46863 10.4726 9.67427 10.7161L10.041 10.4064ZM21.3415 39.5522L23.2647 25.3922L22.7891 25.3276L20.8659 39.4876L21.3415 39.5522ZM22.8831 25.1677L20.9599 26.6078L21.2476 26.992L23.1708 25.552L22.8831 25.1677ZM21.2476 26.6078L19.3247 25.1678L19.037 25.552L20.9598 26.992L21.2476 26.6078ZM18.943 25.3922L20.8659 39.5522L21.3415 39.4876L19.4187 25.3276L18.943 25.3922ZM21.3437 39.5199V19.8398H20.8637V39.5199H21.3437ZM22.7865 25.8399H23.0269V25.3599H22.7865V25.8399ZM22.5461 26.0799H23.0269V25.5999H22.5461V26.0799ZM22.0653 26.3199H23.0269V25.8399H22.0653V26.3199ZM21.8249 26.5599H23.0269V26.0799H21.8249V26.5599ZM21.5845 26.7999H23.0269V26.3199H21.5845V26.7999ZM21.1037 27.0399L23.0269 27.0399L23.0269 26.5599L21.1037 26.5599L21.1037 27.0399ZM21.1037 38.0798H21.3441V37.5998H21.1037V38.0798ZM21.1037 38.3198H21.3441V37.8398H21.1037V38.3198ZM21.1037 38.5598H21.3441V38.0798H21.1037V38.5598ZM21.1037 38.7998H21.3441V38.3198H21.1037V38.7998ZM21.1037 39.0398H21.3441V38.5598H21.1037V39.0398ZM21.1037 39.2798H21.3441V38.7998H21.1037V39.2798ZM21.1037 39.5198H21.3441V39.0398H21.1037V39.5198ZM19.4211 25.8399H19.6615V25.3599H19.4211V25.8399ZM19.4211 26.0799H19.9019V25.5999H19.4211V26.0799ZM19.4211 26.3199H20.1423V25.8399H19.4211V26.3199ZM19.4211 26.5599H20.6231V26.0799H19.4211V26.5599ZM19.4211 26.7999H20.8635V26.3199H19.4211V26.7999ZM19.4211 27.0399L21.1037 27.0399L21.1037 26.5599L19.4211 26.5599L19.4211 27.0399ZM20.8662 42.3676L18.943 56.5276L19.4187 56.5922L21.3419 42.4322L20.8662 42.3676ZM19.3247 56.752L21.2479 55.312L20.9602 54.9278L19.037 56.3678L19.3247 56.752ZM20.9602 55.312L22.8831 56.752L23.1708 56.3678L21.2479 54.9278L20.9602 55.312ZM23.2647 56.5276L21.3419 42.3676L20.8662 42.4322L22.7891 56.5922L23.2647 56.5276ZM20.8641 42.3999L20.8637 62.3199L21.3437 62.3199L21.3441 42.3999L20.8641 42.3999ZM19.4211 55.3598L21.1041 55.3599L21.1041 54.8799L19.4211 54.8798L19.4211 55.3598ZM19.4211 55.5998H20.8635V55.1198H19.4211V55.5998ZM19.4211 55.8398H20.6231V55.3598H19.4211V55.8398ZM19.4211 56.0798H20.1423V55.5998H19.4211V56.0798ZM19.4211 56.3198H19.9019V55.8398H19.4211V56.3198ZM19.4211 56.5598H19.6615V56.0798H19.4211V56.5598ZM21.1037 42.8799H21.3441V42.3999H21.1037V42.8799ZM21.1037 43.1199H21.3441V42.6399H21.1037V43.1199ZM21.1037 43.3599H21.3441V42.8799H21.1037V43.3599ZM21.1037 43.5999H21.3441V43.1199H21.1037V43.5999ZM21.1037 43.8399H21.3441V43.3599H21.1037V43.8399ZM21.1037 44.0799H21.3441V43.5999H21.1037V44.0799ZM21.1037 44.3199H21.3441V43.8399H21.1037V44.3199ZM21.1041 55.3599L23.0269 55.3599L23.0269 54.8799L21.1041 54.8799L21.1041 55.3599ZM21.5845 55.5999H23.0269V55.1199H21.5845V55.5999ZM21.8249 55.8399H23.0269V55.3599H21.8249V55.8399ZM22.0653 56.0799H23.0269V55.5999H22.0653V56.0799ZM22.5461 56.3199H23.0269V55.8399H22.5461V56.3199ZM22.7865 56.5599H23.0269V56.0799H22.7865V56.5599ZM20.8637 39.5199L20.8641 42.3999L21.3441 42.3999L21.3437 39.5198L20.8637 39.5199ZM21.3437 39.5199V1.11987H20.8637V39.5199H21.3437ZM19.4211 27.2799L23.0269 27.2799L23.0269 26.7999L19.4211 26.7999L19.4211 27.2799ZM19.6615 27.5199L22.7865 27.5199L22.7865 27.0399L19.6615 27.0399L19.6615 27.5199ZM19.6615 27.7599L22.7865 27.7599L22.7865 27.2799L19.6615 27.2799L19.6615 27.7599ZM19.6615 27.9999L22.7865 27.9999L22.7865 27.5199L19.6615 27.5199L19.6615 27.9999ZM19.6615 28.2399H22.7865V27.7599H19.6615V28.2399ZM19.6615 28.4799H22.7865V27.9999H19.6615V28.4799ZM19.6615 28.7199H22.7865V28.2399H19.6615V28.7199ZM19.6615 28.9599L22.7865 28.9599L22.7865 28.4799L19.6615 28.4799L19.6615 28.9599ZM19.9019 29.1999L22.5461 29.1999L22.5461 28.7199L19.9019 28.7199L19.9019 29.1999ZM19.9019 29.4399L22.5461 29.4399L22.5461 28.9599L19.9019 28.9599L19.9019 29.4399ZM19.9019 29.6799L22.5461 29.6799L22.5461 29.1999L19.9019 29.1999L19.9019 29.6799ZM19.9019 29.9199L22.5461 29.9199L22.5461 29.4399L19.9019 29.4399L19.9019 29.9199ZM19.9019 30.1599L22.5461 30.1599L22.5461 29.6799L19.9019 29.6799L19.9019 30.1599ZM19.9019 30.3999L22.5461 30.3999L22.5461 29.9199L19.9019 29.9199L19.9019 30.3999ZM19.9019 30.6399L22.5461 30.6399L22.5461 30.1599L19.9019 30.1599L19.9019 30.6399ZM19.9019 30.8799L22.5461 30.8799L22.5461 30.3999L19.9019 30.3999L19.9019 30.8799ZM20.1423 31.1199L22.3057 31.1199L22.3057 30.6399L20.1423 30.6399L20.1423 31.1199ZM20.1423 31.3599L22.3057 31.3599L22.3057 30.8799L20.1423 30.8799L20.1423 31.3599ZM20.1423 31.5999L22.3057 31.5998L22.3057 31.1198L20.1423 31.1199L20.1423 31.5999ZM20.1423 31.8399L22.3057 31.8398L22.3057 31.3598L20.1423 31.3599L20.1423 31.8399ZM20.1423 32.0799L22.3057 32.0798L22.3057 31.5998L20.1423 31.5999L20.1423 32.0799ZM20.1423 32.3199L22.3057 32.3198L22.3057 31.8398L20.1423 31.8399L20.1423 32.3199ZM20.1423 32.5599L22.3057 32.5599L22.3057 32.0799L20.1423 32.0799L20.1423 32.5599ZM20.3827 32.7999L22.0653 32.7999L22.0653 32.3199L20.3827 32.3199L20.3827 32.7999ZM20.3827 33.0399L22.0653 33.0399L22.0653 32.5599L20.3827 32.5599L20.3827 33.0399ZM20.3827 33.2799L22.0653 33.2799L22.0653 32.7999L20.3827 32.7999L20.3827 33.2799ZM20.3827 33.5199L22.0653 33.5199L22.0653 33.0399L20.3827 33.0399L20.3827 33.5199ZM20.3827 33.7599L22.0653 33.7598L22.0653 33.2798L20.3827 33.2799L20.3827 33.7599ZM20.3827 33.9999L22.0653 33.9998L22.0653 33.5198L20.3827 33.5199L20.3827 33.9999ZM20.3827 34.2399L22.0653 34.2398L22.0653 33.7598L20.3827 33.7599L20.3827 34.2399ZM20.6231 34.4799L21.8249 34.4798L21.8249 33.9998L20.6231 33.9999L20.6231 34.4799ZM20.6231 34.7199L21.8249 34.7199L21.8249 34.2399L20.6231 34.2399L20.6231 34.7199ZM20.6231 34.9599L21.8249 34.9598L21.8249 34.4798L20.6231 34.4799L20.6231 34.9599ZM20.6231 35.1999L21.8249 35.1999L21.8249 34.7199L20.6231 34.7199L20.6231 35.1999ZM20.6231 35.4399L21.8249 35.4398L21.8249 34.9598L20.6231 34.9599L20.6231 35.4399ZM20.6231 35.6799L21.8249 35.6798L21.8249 35.1998L20.6231 35.1999L20.6231 35.6799ZM20.6231 35.9199L21.8249 35.9198L21.8249 35.4398L20.6231 35.4399L20.6231 35.9199ZM20.6231 36.1599L21.8249 36.1598L21.8249 35.6798L20.6231 35.6799L20.6231 36.1599ZM20.8635 36.3999L21.5845 36.3998L21.5845 35.9198L20.8635 35.9199L20.8635 36.3999ZM20.8635 36.6399L21.5845 36.6398L21.5845 36.1598L20.8635 36.1599L20.8635 36.6399ZM20.8635 36.8799L21.5845 36.8798L21.5845 36.3998L20.8635 36.3999L20.8635 36.8799ZM20.8635 37.1199L21.5845 37.1198L21.5845 36.6398L20.8635 36.6399L20.8635 37.1199ZM20.8635 37.3599L21.5845 37.3598L21.5845 36.8798L20.8635 36.8799L20.8635 37.3599ZM20.8635 37.5999L21.5845 37.5998L21.5845 37.1198L20.8635 37.1199L20.8635 37.5999ZM20.8635 37.8399L21.5845 37.8398L21.5845 37.3598L20.8635 37.3599L20.8635 37.8399ZM20.8635 44.5598L21.5845 44.5599L21.5845 44.0799L20.8635 44.0798L20.8635 44.5598ZM20.8635 44.7998L21.5845 44.7999L21.5845 44.3199L20.8635 44.3198L20.8635 44.7998ZM20.8635 45.0398L21.5845 45.0399L21.5845 44.5599L20.8635 44.5598L20.8635 45.0398ZM20.8635 45.2798L21.5845 45.2799L21.5845 44.7999L20.8635 44.7998L20.8635 45.2798ZM20.8635 45.5198L21.5845 45.5199L21.5845 45.0399L20.8635 45.0398L20.8635 45.5198ZM20.8635 45.7598L21.5845 45.7599L21.5845 45.2799L20.8635 45.2798L20.8635 45.7598ZM20.8635 45.9998L21.5845 45.9999L21.5845 45.5199L20.8635 45.5198L20.8635 45.9998ZM20.6231 46.2398L21.8249 46.2399L21.8249 45.7599L20.6231 45.7598L20.6231 46.2398ZM20.6231 46.4798L21.8249 46.4799L21.8249 45.9999L20.6231 45.9998L20.6231 46.4798ZM20.6231 46.7198L21.8249 46.7199L21.8249 46.2399L20.6231 46.2398L20.6231 46.7198ZM20.6231 46.9598L21.8249 46.9599L21.8249 46.4799L20.6231 46.4798L20.6231 46.9598ZM20.6231 47.1998L21.8249 47.1999L21.8249 46.7199L20.6231 46.7198L20.6231 47.1998ZM20.6231 47.4398L21.8249 47.4399L21.8249 46.9599L20.6231 46.9598L20.6231 47.4398ZM20.6231 47.6798L21.8249 47.6799L21.8249 47.1999L20.6231 47.1998L20.6231 47.6798ZM20.6231 47.9198L21.8249 47.9199L21.8249 47.4399L20.6231 47.4398L20.6231 47.9198ZM20.3827 48.1598L22.0653 48.1599L22.0653 47.6799L20.3827 47.6798L20.3827 48.1598ZM20.3827 48.3998L22.0653 48.3999L22.0653 47.9199L20.3827 47.9198L20.3827 48.3998ZM20.3827 48.6398L22.0653 48.6399L22.0653 48.1599L20.3827 48.1598L20.3827 48.6398ZM20.3827 48.8798L22.0653 48.8799L22.0653 48.3999L20.3827 48.3998L20.3827 48.8798ZM20.3827 49.1198L22.0653 49.1199L22.0653 48.6399L20.3827 48.6398L20.3827 49.1198ZM20.3827 49.3598L22.0653 49.3599L22.0653 48.8799L20.3827 48.8798L20.3827 49.3598ZM20.3827 49.5998L22.0653 49.5999L22.0653 49.1199L20.3827 49.1198L20.3827 49.5998ZM20.1423 49.8398L22.3057 49.8399L22.3057 49.3599L20.1423 49.3598L20.1423 49.8398ZM20.1423 50.0798L22.3057 50.0799L22.3057 49.5999L20.1423 49.5998L20.1423 50.0798ZM20.1423 50.3198L22.3057 50.3199L22.3057 49.8399L20.1423 49.8398L20.1423 50.3198ZM20.1423 50.5598L22.3057 50.5599L22.3057 50.0799L20.1423 50.0798L20.1423 50.5598ZM20.1423 50.7998L22.3057 50.7999L22.3057 50.3199L20.1423 50.3198L20.1423 50.7998ZM20.1423 51.0398L22.3057 51.0399L22.3057 50.5599L20.1423 50.5598L20.1423 51.0398ZM20.1423 51.2798L22.3057 51.2799L22.3057 50.7999L20.1423 50.7998L20.1423 51.2798ZM19.9019 51.5198L22.5461 51.5199L22.5461 51.0399L19.9019 51.0398L19.9019 51.5198ZM19.9019 51.7598L22.5461 51.7599L22.5461 51.2799L19.9019 51.2798L19.9019 51.7598ZM19.9019 51.9998L22.5461 51.9999L22.5461 51.5199L19.9019 51.5198L19.9019 51.9998ZM19.9019 52.2398L22.5461 52.2399L22.5461 51.7599L19.9019 51.7598L19.9019 52.2398ZM19.9019 52.4798L22.5461 52.4799L22.5461 51.9999L19.9019 51.9998L19.9019 52.4798ZM19.9019 52.7198L22.5461 52.7199L22.5461 52.2399L19.9019 52.2398L19.9019 52.7198ZM19.9019 52.9598L22.5461 52.9599L22.5461 52.4799L19.9019 52.4798L19.9019 52.9598ZM19.9019 53.1998L22.5461 53.1999L22.5461 52.7199L19.9019 52.7198L19.9019 53.1998ZM19.6615 53.4398L22.7865 53.4399L22.7865 52.9599L19.6615 52.9598L19.6615 53.4398ZM19.6615 53.6798L22.7865 53.6799L22.7865 53.1999L19.6615 53.1998L19.6615 53.6798ZM19.6615 53.9198L22.7865 53.9199L22.7865 53.4399L19.6615 53.4398L19.6615 53.9198ZM19.6615 54.1598L22.7865 54.1599L22.7865 53.6799L19.6615 53.6798L19.6615 54.1598ZM19.6615 54.3998L22.7865 54.3999L22.7865 53.9199L19.6615 53.9198L19.6615 54.3998ZM19.6615 54.6398L22.7865 54.6399L22.7865 54.1599L19.6615 54.1598L19.6615 54.6398ZM19.6615 54.8798L22.7865 54.8799L22.7865 54.3999L19.6615 54.3998L19.6615 54.8798ZM19.4211 55.1198L23.0269 55.1199L23.0269 54.6399L19.4211 54.6398L19.4211 55.1198Z" fill="white"/>
    </g>
    <!--    15 S1-->
    <g class="group">
    </g>
    <!--    16 S2-->
    <g class="group">
    </g>
    <!--    17 S3-->
    <g class="group">
    </g>
    <!--    18 S4-->
    <g class="group">
    </g>
    <!--    19 I-->
    <g class="group">
        <path d="M396.223 53.4006L390.728 68.4705H388.786L394.281 53.4006H396.223Z" fill="white"/>
        <path d="M363.676 90.64C363.676 90.7726 363.783 90.88 363.916 90.88C364.049 90.88 364.156 90.7726 364.156 90.64H363.676ZM364.156 71.92C364.156 71.7875 364.049 71.68 363.916 71.68C363.783 71.68 363.676 71.7875 363.676 71.92H364.156ZM418.728 90.64C418.728 90.7726 418.835 90.88 418.968 90.88C419.1 90.88 419.208 90.7726 419.208 90.64H418.728ZM419.208 71.92C419.208 71.7875 419.1 71.68 418.968 71.68C418.835 71.68 418.728 71.7875 418.728 71.92H419.208ZM396.223 53.4006L396.448 53.4828C396.475 53.4093 396.464 53.3272 396.42 53.263C396.375 53.1989 396.301 53.1606 396.223 53.1606V53.4006ZM390.728 68.4705V68.7105C390.829 68.7105 390.919 68.6475 390.954 68.5527L390.728 68.4705ZM388.786 68.4705L388.56 68.3883C388.534 68.4619 388.544 68.5439 388.589 68.6081C388.634 68.6723 388.708 68.7105 388.786 68.7105V68.4705ZM394.281 53.4006V53.1606C394.18 53.1606 394.09 53.2237 394.055 53.3184L394.281 53.4006ZM363.916 77.6801L363.884 77.4423C363.764 77.4585 363.675 77.5613 363.676 77.6821C363.677 77.803 363.768 77.9042 363.888 77.9185L363.916 77.6801ZM378.1 75.7601L378.292 75.9043C378.35 75.8269 378.356 75.7222 378.307 75.6387C378.258 75.5552 378.163 75.5093 378.067 75.5223L378.1 75.7601ZM378.1 79.36L378.071 79.5984C378.17 79.61 378.265 79.5602 378.311 79.4729C378.358 79.3856 378.346 79.2787 378.282 79.2037L378.1 79.36ZM418.968 77.68L418.996 77.9184C419.116 77.9042 419.207 77.8029 419.208 77.682C419.209 77.5612 419.12 77.4584 419 77.4422L418.968 77.68ZM404.784 79.36L404.602 79.2037C404.538 79.2787 404.526 79.3856 404.572 79.4729C404.619 79.5602 404.714 79.61 404.812 79.5984L404.784 79.36ZM404.784 75.7601L404.816 75.5223C404.72 75.5093 404.626 75.5552 404.577 75.6387C404.528 75.7222 404.534 75.8269 404.592 75.9043L404.784 75.7601ZM364.156 90.64V71.92H363.676V90.64H364.156ZM419.208 90.64V71.92H418.728V90.64H419.208ZM395.997 53.3184L390.503 68.3883L390.954 68.5527L396.448 53.4828L395.997 53.3184ZM390.728 68.2305H388.786V68.7105H390.728V68.2305ZM389.011 68.5527L394.506 53.4828L394.055 53.3184L388.56 68.3883L389.011 68.5527ZM394.281 53.6406H396.223V53.1606H394.281V53.6406ZM363.948 77.9179L378.132 75.9979L378.067 75.5223L363.884 77.4423L363.948 77.9179ZM377.908 75.616L376.465 77.536L376.849 77.8243L378.292 75.9043L377.908 75.616ZM376.475 77.8365L377.918 79.5164L378.282 79.2037L376.839 77.5238L376.475 77.8365ZM378.128 79.1217L363.944 77.4418L363.888 77.9185L378.071 79.5984L378.128 79.1217ZM376.416 76.2401H378.099V75.7601H376.416V76.2401ZM374.734 76.4801H377.859V76.0001H374.734V76.4801ZM372.81 76.7201H377.619V76.2401H372.81V76.7201ZM371.128 76.9601H377.378V76.4801H371.128V76.9601ZM369.445 77.2001H377.378V76.7201H369.445V77.2001ZM367.522 77.4401H377.138V76.9601H367.522V77.4401ZM365.839 77.6801H376.897V77.2001H365.839V77.6801ZM363.916 77.9201H376.657V77.4401H363.916V77.9201ZM366.08 78.16H376.898V77.68H366.08V78.16ZM368.003 78.4H377.138V77.92H368.003V78.4ZM370.166 78.64H377.378V78.16H370.166V78.64ZM372.09 78.88H377.619V78.4H372.09V78.88ZM374.253 79.12H377.859V78.64H374.253V79.12ZM376.176 79.36H378.1V78.88H376.176V79.36ZM418.94 77.4417L404.756 79.1217L404.812 79.5984L418.996 77.9184L418.94 77.4417ZM404.966 79.5164L406.409 77.8364L406.045 77.5237L404.602 79.2037L404.966 79.5164ZM406.419 77.5359L404.976 75.616L404.592 75.9043L406.035 77.8242L406.419 77.5359ZM404.752 75.9979L418.936 77.9179L419 77.4422L404.816 75.5223L404.752 75.9979ZM406.227 77.92H418.968V77.44H406.227V77.92ZM406.226 78.16H417.044V77.68H406.226V78.16ZM405.986 78.4H415.121V77.92H405.986V78.4ZM405.746 78.64H412.958V78.16H405.746V78.64ZM405.505 78.88H411.034V78.4H405.505V78.88ZM405.265 79.12H408.871V78.64H405.265V79.12ZM405.024 79.36H406.948V78.88H405.024V79.36ZM405.024 76.2401H406.707V75.7601H405.024V76.2401ZM405.265 76.4801H408.39V76.0001H405.265V76.4801ZM405.505 76.7201H410.313V76.2401H405.505V76.7201ZM405.505 76.9601H411.996V76.4801H405.505V76.9601ZM405.746 77.2001H413.679V76.7201H405.746V77.2001ZM405.986 77.4401H415.602V76.9601H405.986V77.4401ZM406.226 77.6801H417.285V77.2001H406.226V77.6801ZM363.916 77.9201L418.968 77.92L418.968 77.44L363.916 77.4401L363.916 77.9201Z" fill="white"/>
    </g>
    <!--    20 I1-->
    <g class="group">
    </g>
    <!--    21 I2-->
    <g class="group">
    </g>
    <!--    22 H-->
    <g class="group">
    </g>
    <!--    23 H1-->
    <g class="group">
    </g>
    <!--    24 H2-->
    <g class="group">
    </g>
    <!--    25 h-->
    <g class="group">
    </g>
    <!--    26 h1-->
    <g class="group">
    </g>
    <!--    27 h2-->
    <g class="group">
    </g>
    <!--    28 R-->
    <g class="group">
    </g>
    <!--    29 Deg-->
    <g class="group">
    </g>
    <!--    29 DN-->
    <g class="group">
    </g>

</svg>
