<svg width="325" height="332" viewBox="0 0 325 332" fill="none" xmlns="http://www.w3.org/2000/svg">
<rect width="325" height="332" fill="none"/>
<path d="M280.791 69H167.321H280.791Z" stroke="white" stroke-width="1.68" stroke-linecap="round" stroke-linejoin="round"/>
<path d="M167.321 69L156.743 69.48L167.321 69Z" stroke="white" stroke-width="1.68" stroke-linecap="round" stroke-linejoin="round"/>
<path d="M156.744 69.48L146.406 70.92L156.744 69.48Z" stroke="white" stroke-width="1.68" stroke-linecap="round" stroke-linejoin="round"/>
<path d="M146.406 70.9199L136.31 73.3199L146.406 70.9199Z" stroke="white" stroke-width="1.68" stroke-linecap="round" stroke-linejoin="round"/>
<path d="M136.31 73.3198L126.453 76.6798L136.31 73.3198Z" stroke="white" stroke-width="1.68" stroke-linecap="round" stroke-linejoin="round"/>
<path d="M126.453 76.6799L116.837 80.7599L126.453 76.6799Z" stroke="white" stroke-width="1.68" stroke-linecap="round" stroke-linejoin="round"/>
<path d="M116.836 80.76L107.701 86.04L116.836 80.76Z" stroke="white" stroke-width="1.68" stroke-linecap="round" stroke-linejoin="round"/>
<path d="M107.701 86.04L99.0469 91.8L107.701 86.04Z" stroke="white" stroke-width="1.68" stroke-linecap="round" stroke-linejoin="round"/>
<path d="M99.0477 91.8L90.874 98.52L99.0477 91.8Z" stroke="white" stroke-width="1.68" stroke-linecap="round" stroke-linejoin="round"/>
<path d="M90.8731 98.52L83.6611 105.72L90.8731 98.52Z" stroke="white" stroke-width="1.68" stroke-linecap="round" stroke-linejoin="round"/>
<path d="M83.6619 105.72L76.9307 113.88L83.6619 105.72Z" stroke="white" stroke-width="1.68" stroke-linecap="round" stroke-linejoin="round"/>
<path d="M76.9299 113.88L70.9199 122.28L76.9299 113.88Z" stroke="white" stroke-width="1.68" stroke-linecap="round" stroke-linejoin="round"/>
<path d="M70.9205 122.28L65.8721 131.4L70.9205 122.28Z" stroke="white" stroke-width="1.68" stroke-linecap="round" stroke-linejoin="round"/>
<path d="M65.8721 131.4L61.5449 141L65.8721 131.4Z" stroke="white" stroke-width="1.68" stroke-linecap="round" stroke-linejoin="round"/>
<path d="M61.5443 141L58.1787 150.84L61.5443 141Z" stroke="white" stroke-width="1.68" stroke-linecap="round" stroke-linejoin="round"/>
<path d="M58.1794 150.84L55.7754 160.92L58.1794 150.84Z" stroke="white" stroke-width="1.68" stroke-linecap="round" stroke-linejoin="round"/>
<path d="M55.7746 160.92L54.0918 171.24L55.7746 160.92Z" stroke="white" stroke-width="1.68" stroke-linecap="round" stroke-linejoin="round"/>
<path d="M54.0913 171.24L53.6113 181.8L54.0913 171.24Z" stroke="white" stroke-width="1.68" stroke-linecap="round" stroke-linejoin="round"/>
<path d="M53.6113 181.8V182.52V181.8Z" stroke="white" stroke-width="1.68" stroke-linecap="round" stroke-linejoin="round"/>
<path d="M53.6113 182.52V295.8V182.52Z" stroke="white" stroke-width="1.68" stroke-linecap="round" stroke-linejoin="round"/>
<path d="M53.6113 295.8H99.0471H53.6113Z" stroke="white" stroke-width="1.68" stroke-linecap="round" stroke-linejoin="round"/>
<path d="M280.79 69V114.36V69Z" stroke="white" stroke-width="1.68" stroke-linecap="round" stroke-linejoin="round"/>
<path d="M280.791 114.36H155.782H280.791Z" stroke="white" stroke-width="1.68" stroke-linecap="round" stroke-linejoin="round"/>
<path d="M99.0469 171V295.8V171Z" stroke="white" stroke-width="1.68" stroke-linecap="round" stroke-linejoin="round"/>
<path d="M155.782 114.36L148.57 114.84L155.782 114.36Z" stroke="white" stroke-width="1.68" stroke-linecap="round" stroke-linejoin="round"/>
<path d="M148.569 114.84L141.357 116.28L148.569 114.84Z" stroke="white" stroke-width="1.68" stroke-linecap="round" stroke-linejoin="round"/>
<path d="M141.358 116.28L134.146 118.68L141.358 116.28Z" stroke="white" stroke-width="1.68" stroke-linecap="round" stroke-linejoin="round"/>
<path d="M134.146 118.68L127.655 122.04L134.146 118.68Z" stroke="white" stroke-width="1.68" stroke-linecap="round" stroke-linejoin="round"/>
<path d="M127.655 122.04L121.404 126.12L127.655 122.04Z" stroke="white" stroke-width="1.68" stroke-linecap="round" stroke-linejoin="round"/>
<path d="M121.404 126.12L115.875 130.92L121.404 126.12Z" stroke="white" stroke-width="1.68" stroke-linecap="round" stroke-linejoin="round"/>
<path d="M115.875 130.92L111.067 136.44L115.875 130.92Z" stroke="white" stroke-width="1.68" stroke-linecap="round" stroke-linejoin="round"/>
<path d="M111.067 136.44L106.74 142.44L111.067 136.44Z" stroke="white" stroke-width="1.68" stroke-linecap="round" stroke-linejoin="round"/>
<path d="M106.74 142.44L103.615 149.16L106.74 142.44Z" stroke="white" stroke-width="1.68" stroke-linecap="round" stroke-linejoin="round"/>
<path d="M103.615 149.16L101.211 156.12L103.615 149.16Z" stroke="white" stroke-width="1.68" stroke-linecap="round" stroke-linejoin="round"/>
<path d="M101.211 156.12L99.5283 163.32L101.211 156.12Z" stroke="white" stroke-width="1.68" stroke-linecap="round" stroke-linejoin="round"/>
<path d="M99.5269 163.32L99.0469 170.52L99.5269 163.32Z" stroke="white" stroke-width="1.68" stroke-linecap="round" stroke-linejoin="round"/>
<path d="M99.0469 170.52V171V170.52Z" stroke="white" stroke-width="1.68" stroke-linecap="round" stroke-linejoin="round"/>
<path d="M92.3164 261.96V295.8V261.96Z" stroke="white" stroke-width="1.68" stroke-linecap="round" stroke-linejoin="round"/>
<path d="M242.807 73.3198H285.117H242.807Z" stroke="white" stroke-width="0.72" stroke-linecap="round" stroke-linejoin="round"/>
<path d="M242.807 110.04H285.117H242.807Z" stroke="white" stroke-width="0.72" stroke-linecap="round" stroke-linejoin="round"/>
<path d="M285.117 110.04V73.3198V110.04Z" stroke="white" stroke-width="1.68" stroke-linecap="round" stroke-linejoin="round"/>
<path d="M280.79 69L285.117 73.32L280.79 69Z" stroke="white" stroke-width="1.68" stroke-linecap="round" stroke-linejoin="round"/>
<path d="M280.79 114.36L285.117 110.04L280.79 114.36Z" stroke="white" stroke-width="1.68" stroke-linecap="round" stroke-linejoin="round"/>
<path d="M242.807 114.36V69V114.36Z" stroke="white" stroke-width="1.68" stroke-linecap="round" stroke-linejoin="round"/>
<path d="M99.0469 280.44L96.1621 269.64L99.0469 280.44Z" stroke="white" stroke-width="0.48" stroke-linecap="round" stroke-linejoin="round"/>
<path d="M96.162 269.64L93.5176 263.88L96.162 269.64Z" stroke="white" stroke-width="0.48" stroke-linecap="round" stroke-linejoin="round"/>
<path d="M93.5184 263.88L90.874 260.52L93.5184 263.88Z" stroke="white" stroke-width="0.48" stroke-linecap="round" stroke-linejoin="round"/>
<path d="M90.8737 260.52L88.4697 258.36L90.8737 260.52Z" stroke="white" stroke-width="0.48" stroke-linecap="round" stroke-linejoin="round"/>
<path d="M88.4691 258.36L85.1035 256.68L88.4691 258.36Z" stroke="white" stroke-width="0.48" stroke-linecap="round" stroke-linejoin="round"/>
<path d="M85.1039 256.68L81.7383 255.72L85.1039 256.68Z" stroke="white" stroke-width="0.48" stroke-linecap="round" stroke-linejoin="round"/>
<path d="M81.738 255.72L76.4492 254.04L81.738 255.72Z" stroke="white" stroke-width="0.48" stroke-linecap="round" stroke-linejoin="round"/>
<path d="M76.4493 254.04L73.5645 252.12L76.4493 254.04Z" stroke="white" stroke-width="0.48" stroke-linecap="round" stroke-linejoin="round"/>
<path d="M73.5648 252.12L71.6416 249.72L73.5648 252.12Z" stroke="white" stroke-width="0.48" stroke-linecap="round" stroke-linejoin="round"/>
<path d="M71.6418 249.72L69.959 246.6L71.6418 249.72Z" stroke="white" stroke-width="0.48" stroke-linecap="round" stroke-linejoin="round"/>
<path d="M69.9585 246.6L67.7949 241.8L69.9585 246.6Z" stroke="white" stroke-width="0.48" stroke-linecap="round" stroke-linejoin="round"/>
<path d="M67.7954 241.8L67.0742 240.6L67.7954 241.8Z" stroke="white" stroke-width="0.48" stroke-linecap="round" stroke-linejoin="round"/>
<path d="M67.073 240.6L66.833 240.36L67.073 240.6Z" stroke="white" stroke-width="0.48" stroke-linecap="round" stroke-linejoin="round"/>
<path d="M66.833 240.36V240.12V240.36Z" stroke="white" stroke-width="0.48" stroke-linecap="round" stroke-linejoin="round"/>
<path d="M66.8328 240.12L66.5928 239.88L66.8328 240.12Z" stroke="white" stroke-width="0.48" stroke-linecap="round" stroke-linejoin="round"/>
<path d="M66.5925 239.88H66.3525H66.5925Z" stroke="white" stroke-width="0.48" stroke-linecap="round" stroke-linejoin="round"/>
<path d="M66.3525 239.88V239.64V239.88Z" stroke="white" stroke-width="0.48" stroke-linecap="round" stroke-linejoin="round"/>
<path d="M66.3523 239.64H66.1123H66.3523Z" stroke="white" stroke-width="0.48" stroke-linecap="round" stroke-linejoin="round"/>
<path d="M66.1123 239.64V239.4V239.64Z" stroke="white" stroke-width="0.48" stroke-linecap="round" stroke-linejoin="round"/>
<path d="M66.1121 239.4H65.8721H66.1121Z" stroke="white" stroke-width="0.48" stroke-linecap="round" stroke-linejoin="round"/>
<path d="M65.8718 239.4H65.6318H65.8718Z" stroke="white" stroke-width="0.48" stroke-linecap="round" stroke-linejoin="round"/>
<path d="M65.6318 239.4V239.16V239.4Z" stroke="white" stroke-width="0.48" stroke-linecap="round" stroke-linejoin="round"/>
<path d="M65.6306 239.16H65.3906H65.6306Z" stroke="white" stroke-width="0.48" stroke-linecap="round" stroke-linejoin="round"/>
<path d="M65.3904 239.16H65.1504H65.3904Z" stroke="white" stroke-width="0.48" stroke-linecap="round" stroke-linejoin="round"/>
<path d="M65.1502 239.16H64.9102H65.1502Z" stroke="white" stroke-width="0.48" stroke-linecap="round" stroke-linejoin="round"/>
<path d="M64.9099 239.16H64.6699H64.9099Z" stroke="white" stroke-width="0.48" stroke-linecap="round" stroke-linejoin="round"/>
<path d="M64.6699 239.16V239.4V239.16Z" stroke="white" stroke-width="0.48" stroke-linecap="round" stroke-linejoin="round"/>
<path d="M64.6697 239.4H64.4297H64.6697Z" stroke="white" stroke-width="0.48" stroke-linecap="round" stroke-linejoin="round"/>
<path d="M64.4295 239.4H64.1895H64.4295Z" stroke="white" stroke-width="0.48" stroke-linecap="round" stroke-linejoin="round"/>
<path d="M64.1882 239.4L63.9482 239.64L64.1882 239.4Z" stroke="white" stroke-width="0.48" stroke-linecap="round" stroke-linejoin="round"/>
<path d="M63.948 239.64H63.708H63.948Z" stroke="white" stroke-width="0.48" stroke-linecap="round" stroke-linejoin="round"/>
<path d="M63.708 239.64V239.88V239.64Z" stroke="white" stroke-width="0.48" stroke-linecap="round" stroke-linejoin="round"/>
<path d="M63.7078 239.88H63.4678H63.7078Z" stroke="white" stroke-width="0.48" stroke-linecap="round" stroke-linejoin="round"/>
<path d="M63.4675 239.88L63.2275 240.12L63.4675 239.88Z" stroke="white" stroke-width="0.48" stroke-linecap="round" stroke-linejoin="round"/>
<path d="M63.2273 240.12L62.9873 240.36L63.2273 240.12Z" stroke="white" stroke-width="0.48" stroke-linecap="round" stroke-linejoin="round"/>
<path d="M62.9873 240.36V240.6V240.36Z" stroke="white" stroke-width="0.48" stroke-linecap="round" stroke-linejoin="round"/>
<path d="M62.9871 240.6H62.7471H62.9871Z" stroke="white" stroke-width="0.48" stroke-linecap="round" stroke-linejoin="round"/>
<path d="M62.7459 240.6L62.5059 240.84L62.7459 240.6Z" stroke="white" stroke-width="0.48" stroke-linecap="round" stroke-linejoin="round"/>
<path d="M62.5056 240.84L62.2656 241.08L62.5056 240.84Z" stroke="white" stroke-width="0.48" stroke-linecap="round" stroke-linejoin="round"/>
<path d="M62.2652 241.08L61.7852 242.04L62.2652 241.08Z" stroke="white" stroke-width="0.48" stroke-linecap="round" stroke-linejoin="round"/>
<path d="M61.7848 242.04L60.8232 243.48L61.7848 242.04Z" stroke="white" stroke-width="0.48" stroke-linecap="round" stroke-linejoin="round"/>
<path d="M60.8236 243.48L58.9004 246.84L60.8236 243.48Z" stroke="white" stroke-width="0.48" stroke-linecap="round" stroke-linejoin="round"/>
<path d="M58.9003 246.84L56.2559 252.6L58.9003 246.84Z" stroke="white" stroke-width="0.48" stroke-linecap="round" stroke-linejoin="round"/>
<path d="M56.2557 252.6L53.6113 258.6L56.2557 252.6Z" stroke="white" stroke-width="0.48" stroke-linecap="round" stroke-linejoin="round"/>
<path d="M60.3428 243.96V295.8V243.96Z" stroke="white" stroke-width="1.68" stroke-linecap="round" stroke-linejoin="round"/>
<path d="M155.782 91.8L146.887 93L155.782 91.8Z" stroke="white" stroke-width="0.48" stroke-linecap="round" stroke-linejoin="round"/>
<path d="M146.887 93L137.992 94.92L146.887 93Z" stroke="white" stroke-width="0.48" stroke-linecap="round" stroke-linejoin="round"/>
<path d="M137.992 94.9199L135.348 95.8799L137.992 94.9199Z" stroke="white" stroke-width="0.48" stroke-linecap="round" stroke-linejoin="round"/>
<path d="M131.261 97.3198L129.338 98.0398L131.261 97.3198Z" stroke="white" stroke-width="0.48" stroke-linecap="round" stroke-linejoin="round"/>
<path d="M129.338 98.04L127.415 99L129.338 98.04Z" stroke="white" stroke-width="0.48" stroke-linecap="round" stroke-linejoin="round"/>
<path d="M123.568 100.68L121.164 101.88L123.568 100.68Z" stroke="white" stroke-width="0.48" stroke-linecap="round" stroke-linejoin="round"/>
<path d="M121.165 101.88L113.472 106.68L121.165 101.88Z" stroke="white" stroke-width="0.48" stroke-linecap="round" stroke-linejoin="round"/>
<path d="M113.471 106.68L106.259 112.2L113.471 106.68Z" stroke="white" stroke-width="0.48" stroke-linecap="round" stroke-linejoin="round"/>
<path d="M106.259 112.2L106.019 112.44L106.259 112.2Z" stroke="white" stroke-width="0.48" stroke-linecap="round" stroke-linejoin="round"/>
<path d="M102.894 115.32L99.7686 118.2L102.894 115.32Z" stroke="white" stroke-width="0.48" stroke-linecap="round" stroke-linejoin="round"/>
<path d="M97.1244 121.32L93.7588 125.16L97.1244 121.32Z" stroke="white" stroke-width="0.48" stroke-linecap="round" stroke-linejoin="round"/>
<path d="M93.7584 125.16L88.71 132.84L93.7584 125.16Z" stroke="white" stroke-width="0.48" stroke-linecap="round" stroke-linejoin="round"/>
<path d="M88.7103 132.84L85.3447 138.84L88.7103 132.84Z" stroke="white" stroke-width="0.48" stroke-linecap="round" stroke-linejoin="round"/>
<path d="M83.4209 142.68L81.9785 146.52L83.4209 142.68Z" stroke="white" stroke-width="0.48" stroke-linecap="round" stroke-linejoin="round"/>
<path d="M80.5367 150.6L78.373 157.8L80.5367 150.6Z" stroke="white" stroke-width="0.48" stroke-linecap="round" stroke-linejoin="round"/>
<path d="M78.3723 157.8L76.6895 166.68L78.3723 157.8Z" stroke="white" stroke-width="0.48" stroke-linecap="round" stroke-linejoin="round"/>
<path d="M76.6892 166.68L76.4492 171L76.6892 166.68Z" stroke="white" stroke-width="0.48" stroke-linecap="round" stroke-linejoin="round"/>
<path d="M76.4492 171V194.28V171Z" stroke="white" stroke-width="0.48" stroke-linecap="round" stroke-linejoin="round"/>
<path d="M76.4492 198.6V203.16V198.6Z" stroke="white" stroke-width="0.48" stroke-linecap="round" stroke-linejoin="round"/>
<path d="M76.4492 207.48V230.52V207.48Z" stroke="white" stroke-width="0.48" stroke-linecap="round" stroke-linejoin="round"/>
<path d="M76.4492 234.84V239.4V234.84Z" stroke="white" stroke-width="0.48" stroke-linecap="round" stroke-linejoin="round"/>
<path d="M76.4492 243.72V266.76V243.72Z" stroke="white" stroke-width="0.48" stroke-linecap="round" stroke-linejoin="round"/>
<path d="M76.4492 271.08V275.64V271.08Z" stroke="white" stroke-width="0.48" stroke-linecap="round" stroke-linejoin="round"/>
<path d="M76.4492 279.96V303.24V279.96Z" stroke="white" stroke-width="0.48" stroke-linecap="round" stroke-linejoin="round"/>
<path d="M155.782 91.8H179.582H155.782Z" stroke="white" stroke-width="0.48" stroke-linecap="round" stroke-linejoin="round"/>
<path d="M183.668 91.8H188.476H183.668Z" stroke="white" stroke-width="0.48" stroke-linecap="round" stroke-linejoin="round"/>
<path d="M192.804 91.8H216.363H192.804Z" stroke="white" stroke-width="0.48" stroke-linecap="round" stroke-linejoin="round"/>
<path d="M220.69 91.8H225.498H220.69Z" stroke="white" stroke-width="0.48" stroke-linecap="round" stroke-linejoin="round"/>
<path d="M229.585 91.8H253.385H229.585Z" stroke="white" stroke-width="0.48" stroke-linecap="round" stroke-linejoin="round"/>
<path d="M257.472 91.8H262.28H257.472Z" stroke="white" stroke-width="0.48" stroke-linecap="round" stroke-linejoin="round"/>
<path d="M266.606 91.8H290.166H266.606Z" stroke="white" stroke-width="0.48" stroke-linecap="round" stroke-linejoin="round"/>
<path d="M280.79 69L277.905 73.32L280.79 69Z" stroke="white" stroke-width="0.96" stroke-linecap="round" stroke-linejoin="round"/>
<path d="M275.502 69L277.906 73.32L275.502 69Z" stroke="white" stroke-width="0.96" stroke-linecap="round" stroke-linejoin="round"/>
<path d="M275.502 69L272.857 73.32L275.502 69Z" stroke="white" stroke-width="0.96" stroke-linecap="round" stroke-linejoin="round"/>
<path d="M270.453 69L272.857 73.32L270.453 69Z" stroke="white" stroke-width="0.96" stroke-linecap="round" stroke-linejoin="round"/>
<path d="M270.453 69L267.809 73.32L270.453 69Z" stroke="white" stroke-width="0.96" stroke-linecap="round" stroke-linejoin="round"/>
<path d="M265.404 69L267.808 73.32L265.404 69Z" stroke="white" stroke-width="0.96" stroke-linecap="round" stroke-linejoin="round"/>
<path d="M265.405 69L262.761 73.32L265.405 69Z" stroke="white" stroke-width="0.96" stroke-linecap="round" stroke-linejoin="round"/>
<path d="M260.356 69L262.76 73.32L260.356 69Z" stroke="white" stroke-width="0.96" stroke-linecap="round" stroke-linejoin="round"/>
<path d="M260.356 69L257.952 73.32L260.356 69Z" stroke="white" stroke-width="0.96" stroke-linecap="round" stroke-linejoin="round"/>
<path d="M255.308 69L257.952 73.32L255.308 69Z" stroke="white" stroke-width="0.96" stroke-linecap="round" stroke-linejoin="round"/>
<path d="M255.308 69L252.904 73.32L255.308 69Z" stroke="white" stroke-width="0.96" stroke-linecap="round" stroke-linejoin="round"/>
<path d="M250.26 69L252.904 73.32L250.26 69Z" stroke="white" stroke-width="0.96" stroke-linecap="round" stroke-linejoin="round"/>
<path d="M250.259 69L247.855 73.32L250.259 69Z" stroke="white" stroke-width="0.96" stroke-linecap="round" stroke-linejoin="round"/>
<path d="M245.211 69L247.855 73.32L245.211 69Z" stroke="white" stroke-width="0.96" stroke-linecap="round" stroke-linejoin="round"/>
<path d="M245.211 69L242.807 73.32L245.211 69Z" stroke="white" stroke-width="0.96" stroke-linecap="round" stroke-linejoin="round"/>
<path d="M280.79 114.36L277.905 110.04L280.79 114.36Z" stroke="white" stroke-width="0.96" stroke-linecap="round" stroke-linejoin="round"/>
<path d="M275.502 114.36L277.906 110.04L275.502 114.36Z" stroke="white" stroke-width="0.96" stroke-linecap="round" stroke-linejoin="round"/>
<path d="M275.502 114.36L272.857 110.04L275.502 114.36Z" stroke="white" stroke-width="0.96" stroke-linecap="round" stroke-linejoin="round"/>
<path d="M270.453 114.36L272.857 110.04L270.453 114.36Z" stroke="white" stroke-width="0.96" stroke-linecap="round" stroke-linejoin="round"/>
<path d="M270.453 114.36L267.809 110.04L270.453 114.36Z" stroke="white" stroke-width="0.96" stroke-linecap="round" stroke-linejoin="round"/>
<path d="M265.404 114.36L267.808 110.04L265.404 114.36Z" stroke="white" stroke-width="0.96" stroke-linecap="round" stroke-linejoin="round"/>
<path d="M265.405 114.36L262.761 110.04L265.405 114.36Z" stroke="white" stroke-width="0.96" stroke-linecap="round" stroke-linejoin="round"/>
<path d="M260.356 114.36L262.76 110.04L260.356 114.36Z" stroke="white" stroke-width="0.96" stroke-linecap="round" stroke-linejoin="round"/>
<path d="M260.356 114.36L257.952 110.04L260.356 114.36Z" stroke="white" stroke-width="0.96" stroke-linecap="round" stroke-linejoin="round"/>
<path d="M255.308 114.36L257.952 110.04L255.308 114.36Z" stroke="white" stroke-width="0.96" stroke-linecap="round" stroke-linejoin="round"/>
<path d="M255.308 114.36L252.904 110.04L255.308 114.36Z" stroke="white" stroke-width="0.96" stroke-linecap="round" stroke-linejoin="round"/>
<path d="M250.26 114.36L252.904 110.04L250.26 114.36Z" stroke="white" stroke-width="0.96" stroke-linecap="round" stroke-linejoin="round"/>
<path d="M250.259 114.36L247.855 110.04L250.259 114.36Z" stroke="white" stroke-width="0.96" stroke-linecap="round" stroke-linejoin="round"/>
<path d="M245.211 114.36L247.855 110.04L245.211 114.36Z" stroke="white" stroke-width="0.96" stroke-linecap="round" stroke-linejoin="round"/>
<path d="M245.211 114.36L242.807 110.04L245.211 114.36Z" stroke="white" stroke-width="0.96" stroke-linecap="round" stroke-linejoin="round"/>
<path d="M94.96 295.8L99.0468 291.72L94.96 295.8Z" stroke="white" stroke-width="0.48" stroke-linecap="round" stroke-linejoin="round"/>
<path d="M92.3164 286.44L99.0476 279.72L92.3164 286.44Z" stroke="white" stroke-width="0.48" stroke-linecap="round" stroke-linejoin="round"/>
<path d="M92.3164 274.44L96.1628 270.36L92.3164 274.44Z" stroke="white" stroke-width="0.48" stroke-linecap="round" stroke-linejoin="round"/>
<path d="M92.3164 262.44V262.2V262.44Z" stroke="white" stroke-width="0.48" stroke-linecap="round" stroke-linejoin="round"/>
<path d="M58.6602 295.8L60.3429 294.12L58.6602 295.8Z" stroke="white" stroke-width="0.48" stroke-linecap="round" stroke-linejoin="round"/>
<path d="M53.6113 288.84L60.3425 282.12L53.6113 288.84Z" stroke="white" stroke-width="0.48" stroke-linecap="round" stroke-linejoin="round"/>
<path d="M53.6113 276.84L60.3425 270.12L53.6113 276.84Z" stroke="white" stroke-width="0.48" stroke-linecap="round" stroke-linejoin="round"/>
<path d="M53.6113 264.84L60.3425 258.12L53.6113 264.84Z" stroke="white" stroke-width="0.48" stroke-linecap="round" stroke-linejoin="round"/>
<path d="M58.1787 248.28L60.3423 246.12L58.1787 248.28Z" stroke="white" stroke-width="0.48" stroke-linecap="round" stroke-linejoin="round"/>

    <!--    1 A-->
    <g class="group">
    </g>
    <!--    2 D-->
    <g class="group">
    </g>
    <!--    3 Dy-->
    <g class="group">
    </g>
    <!--    4 Dh-->
    <g class="group">
    </g>
    <!--    5 D1-->
    <g class="group">
    </g>
    <!--   6 D2-->
    <g class="group">
    </g>
    <!--   7 d-->
    <g class="group">
        <path d="M306.967 88.2068L293.952 83.4773V81.535L309.028 87.0134V88.7887L306.967 88.2068ZM303.836 94.6714L303.63 94.5965C302.818 94.3017 302.082 93.9298 301.421 93.4808C300.754 93.0224 300.181 92.5115 299.704 91.948C299.226 91.3776 298.86 90.7746 298.604 90.1388C298.343 89.4937 298.212 88.8335 298.212 88.1582C298.212 87.448 298.33 86.8712 298.565 86.4277C298.794 85.9749 299.131 85.6448 299.576 85.4375C300.014 85.2209 300.544 85.1176 301.166 85.1277C301.788 85.1377 302.491 85.2437 303.276 85.4455L304.179 85.7736C304.958 86.1331 305.658 86.5372 306.28 86.9859C306.901 87.4276 307.431 87.9161 307.87 88.4514C308.308 88.9797 308.645 89.5546 308.881 90.1763C309.11 90.7956 309.224 91.4638 309.224 92.1809C309.224 92.8423 309.09 93.3992 308.822 93.8517C308.553 94.2972 308.177 94.6305 307.693 94.8513C307.209 95.0652 306.64 95.1612 305.985 95.1393C305.324 95.108 304.608 94.952 303.836 94.6714ZM303.63 92.6542L303.836 92.7291C304.366 92.9217 304.863 93.0467 305.328 93.1041C305.792 93.1546 306.201 93.1222 306.554 93.0069C306.908 92.8916 307.186 92.6829 307.389 92.3807C307.585 92.0761 307.683 91.6627 307.683 91.1405C307.683 90.5 307.556 89.928 307.3 89.4245C307.045 88.9141 306.708 88.4575 306.289 88.0547C305.871 87.6518 305.416 87.2917 304.925 86.9741L302.56 86.1145C302.2 86.0673 301.853 86.0631 301.519 86.1019C301.179 86.1315 300.878 86.224 300.616 86.3795C300.348 86.5257 300.135 86.7512 299.978 87.0562C299.821 87.3542 299.743 87.7469 299.743 88.2342C299.743 88.7633 299.848 89.2574 300.057 89.7163C300.26 90.166 300.541 90.5781 300.901 90.9525C301.254 91.3246 301.667 91.6554 302.138 91.9449C302.602 92.2252 303.1 92.4616 303.63 92.6542Z" fill="white"/>
        <path d="M293.051 68.76C292.918 68.76 292.811 68.8675 292.811 69C292.811 69.1325 292.918 69.24 293.051 69.24V68.76ZM323.822 69.24C323.955 69.24 324.062 69.1325 324.062 69C324.062 68.8675 323.955 68.76 323.822 68.76V69.24ZM293.051 114.12C292.918 114.12 292.811 114.227 292.811 114.36C292.811 114.492 292.918 114.6 293.051 114.6V114.12ZM323.822 114.6C323.955 114.6 324.062 114.492 324.062 114.36C324.062 114.227 323.955 114.12 323.822 114.12V114.6ZM306.967 88.2068L306.885 88.4323C306.89 88.4343 306.896 88.4361 306.901 88.4377L306.967 88.2068ZM293.952 83.4773H293.712C293.712 83.5783 293.775 83.6684 293.87 83.7029L293.952 83.4773ZM293.952 81.535L294.034 81.3094C293.96 81.2827 293.878 81.2935 293.814 81.3384C293.75 81.3833 293.712 81.4567 293.712 81.535H293.952ZM309.028 87.0134H309.268C309.268 86.9124 309.205 86.8223 309.11 86.7878L309.028 87.0134ZM309.028 88.7887L308.963 89.0197C309.035 89.0401 309.113 89.0254 309.173 88.9801C309.233 88.9347 309.268 88.8639 309.268 88.7887H309.028ZM303.836 94.6714L303.754 94.897L303.754 94.897L303.836 94.6714ZM303.63 94.5965L303.712 94.371L303.712 94.371L303.63 94.5965ZM301.421 93.4808L301.285 93.6786L301.286 93.6793L301.421 93.4808ZM299.704 91.948L299.52 92.1021L299.521 92.1032L299.704 91.948ZM298.604 90.1388L298.827 90.0494L298.827 90.0486L298.604 90.1388ZM298.565 86.4277L298.777 86.5403L298.779 86.536L298.565 86.4277ZM299.576 85.4375L299.677 85.6551L299.682 85.6527L299.576 85.4375ZM303.276 85.4455L303.358 85.2199C303.351 85.2172 303.343 85.2149 303.336 85.213L303.276 85.4455ZM304.179 85.7736L304.28 85.5557C304.274 85.5529 304.268 85.5503 304.261 85.548L304.179 85.7736ZM306.28 86.9859L306.139 87.1805L306.141 87.1815L306.28 86.9859ZM307.87 88.4514L307.684 88.6034L307.685 88.6046L307.87 88.4514ZM308.881 90.1763L309.106 90.0931L309.105 90.0913L308.881 90.1763ZM308.822 93.8517L309.027 93.9755L309.028 93.9741L308.822 93.8517ZM307.693 94.8513L307.79 95.0709L307.793 95.0697L307.693 94.8513ZM305.985 95.1393L305.974 95.379L305.977 95.3791L305.985 95.1393ZM303.63 92.6542L303.548 92.8797L303.548 92.8797L303.63 92.6542ZM303.836 92.7291L303.918 92.5035L303.918 92.5035L303.836 92.7291ZM305.328 93.1041L305.298 93.3423L305.302 93.3427L305.328 93.1041ZM307.389 92.3807L307.588 92.5144L307.59 92.5107L307.389 92.3807ZM307.3 89.4245L307.086 89.5319L307.086 89.533L307.3 89.4245ZM304.925 86.9741L305.056 86.7726C305.04 86.7628 305.024 86.7547 305.007 86.7485L304.925 86.9741ZM302.56 86.1145L302.642 85.8889C302.625 85.883 302.608 85.8788 302.591 85.8766L302.56 86.1145ZM301.519 86.1019L301.54 86.3411L301.547 86.3403L301.519 86.1019ZM300.616 86.3795L300.731 86.5904L300.739 86.5858L300.616 86.3795ZM299.978 87.0562L300.191 87.1681L300.192 87.1661L299.978 87.0562ZM300.057 89.7163L300.276 89.6177L300.275 89.6167L300.057 89.7163ZM300.901 90.9525L301.075 90.7872L301.074 90.7862L300.901 90.9525ZM302.138 91.9449L302.012 92.1494L302.014 92.1504L302.138 91.9449ZM318.293 69L318.531 68.9717C318.517 68.8517 318.416 68.761 318.295 68.76C318.174 68.759 318.071 68.848 318.055 68.9677L318.293 69ZM319.976 83.16L319.82 83.3424C319.895 83.4066 320.002 83.4183 320.089 83.3717C320.176 83.3251 320.226 83.2298 320.214 83.1317L319.976 83.16ZM316.37 83.16L316.132 83.1277C316.119 83.2235 316.165 83.3178 316.248 83.3669C316.332 83.4159 316.437 83.4101 316.514 83.3521L316.37 83.16ZM318.293 114.36L318.055 114.392C318.072 114.512 318.174 114.601 318.295 114.6C318.416 114.599 318.517 114.508 318.532 114.388L318.293 114.36ZM316.37 100.2L316.514 100.008C316.437 99.9499 316.332 99.944 316.248 99.9931C316.165 100.042 316.119 100.136 316.132 100.232L316.37 100.2ZM318.293 101.64L318.293 101.88L318.293 101.88L318.293 101.64ZM319.976 100.2L320.214 100.228C320.226 100.13 320.176 100.035 320.089 99.9883C320.002 99.9417 319.895 99.9533 319.82 100.018L319.976 100.2ZM293.051 69.24H323.822V68.76H293.051V69.24ZM293.051 114.6H323.822V114.12H293.051V114.6ZM307.049 87.9812L294.034 83.2518L293.87 83.7029L306.885 88.4323L307.049 87.9812ZM294.192 83.4773V81.535H293.712V83.4773H294.192ZM293.87 81.7605L308.946 87.239L309.11 86.7878L294.034 81.3094L293.87 81.7605ZM308.788 87.0134V88.7887H309.268V87.0134H308.788ZM309.093 88.5577L307.032 87.9758L306.901 88.4377L308.963 89.0197L309.093 88.5577ZM303.918 94.4459L303.712 94.371L303.548 94.8221L303.754 94.897L303.918 94.4459ZM303.712 94.371C302.917 94.0824 302.199 93.7192 301.556 93.2822L301.286 93.6793C301.965 94.1403 302.719 94.521 303.548 94.8221L303.712 94.371ZM301.557 93.2829C300.906 92.8355 300.349 92.3386 299.887 91.7929L299.521 92.1032C300.013 92.6844 300.602 93.2093 301.285 93.6786L301.557 93.2829ZM299.888 91.794C299.425 91.2413 299.072 90.6598 298.827 90.0494L298.382 90.2282C298.647 90.8893 299.027 91.514 299.52 92.1021L299.888 91.794ZM298.827 90.0486C298.576 89.4312 298.452 88.8016 298.452 88.1582H297.972C297.972 88.8654 298.109 89.5562 298.382 90.229L298.827 90.0486ZM298.452 88.1582C298.452 87.472 298.566 86.9378 298.777 86.5403L298.353 86.3151C298.093 86.8047 297.972 87.4241 297.972 88.1582H298.452ZM298.779 86.536C298.985 86.1295 299.283 85.8388 299.677 85.6551L299.475 85.22C298.979 85.4508 298.603 85.8203 298.351 86.3194L298.779 86.536ZM299.682 85.6527C300.078 85.4569 300.569 85.358 301.162 85.3676L301.17 84.8877C300.52 84.8772 299.95 84.9848 299.47 85.2223L299.682 85.6527ZM301.162 85.3676C301.76 85.3773 302.444 85.4795 303.217 85.6779L303.336 85.213C302.538 85.0079 301.815 84.8981 301.17 84.8877L301.162 85.3676ZM303.194 85.671L304.097 85.9992L304.261 85.548L303.358 85.2199L303.194 85.671ZM304.079 85.9915C304.845 86.3453 305.531 86.7419 306.139 87.1805L306.42 86.7913C305.785 86.3326 305.071 85.921 304.28 85.5557L304.079 85.9915ZM306.141 87.1815C306.747 87.6121 307.26 88.0863 307.684 88.6034L308.055 88.2993C307.602 87.7459 307.056 87.2431 306.419 86.7903L306.141 87.1815ZM307.685 88.6046C308.107 89.1132 308.43 89.6653 308.656 90.2613L309.105 90.0913C308.86 89.444 308.509 88.8461 308.054 88.2981L307.685 88.6046ZM308.655 90.2596C308.874 90.85 308.984 91.4898 308.984 92.1809H309.464C309.464 91.4378 309.345 90.7412 309.106 90.0931L308.655 90.2596ZM308.984 92.1809C308.984 92.8101 308.857 93.3223 308.615 93.7293L309.028 93.9741C309.323 93.4761 309.464 92.8744 309.464 92.1809H308.984ZM308.616 93.7279C308.373 94.1309 308.035 94.4317 307.593 94.633L307.793 95.0697C308.32 94.8292 308.733 94.4636 309.027 93.9755L308.616 93.7279ZM307.596 94.6318C307.152 94.8281 306.62 94.9204 305.993 94.8994L305.977 95.3791C306.659 95.402 307.266 95.3024 307.79 95.0709L307.596 94.6318ZM305.997 94.8995C305.365 94.8696 304.672 94.7201 303.918 94.4459L303.754 94.897C304.543 95.1839 305.284 95.3463 305.974 95.379L305.997 94.8995ZM303.548 92.8797L303.754 92.9546L303.918 92.5035L303.712 92.4286L303.548 92.8797ZM303.754 92.9546C304.297 93.1522 304.812 93.2823 305.298 93.3423L305.357 92.8659C304.914 92.8111 304.434 92.6911 303.918 92.5035L303.754 92.9546ZM305.302 93.3427C305.792 93.3959 306.236 93.3632 306.629 93.2351L306.48 92.7787C306.166 92.8811 305.793 92.9132 305.353 92.8655L305.302 93.3427ZM306.629 93.2351C307.032 93.1036 307.355 92.8622 307.588 92.5144L307.189 92.2469C307.017 92.5036 306.784 92.6797 306.48 92.7787L306.629 93.2351ZM307.59 92.5107C307.82 92.1538 307.923 91.6895 307.923 91.1405H307.443C307.443 91.6359 307.35 91.9983 307.187 92.2507L307.59 92.5107ZM307.923 91.1405C307.923 90.4674 307.789 89.8574 307.514 89.316L307.086 89.533C307.322 89.9986 307.443 90.5326 307.443 91.1405H307.923ZM307.515 89.3172C307.247 88.7818 306.894 88.3031 306.456 87.8817L306.123 88.2276C306.522 88.6118 306.843 89.0463 307.086 89.5319L307.515 89.3172ZM306.456 87.8817C306.026 87.4682 305.559 87.0984 305.056 86.7726L304.795 87.1756C305.273 87.4849 305.715 87.8355 306.123 88.2276L306.456 87.8817ZM305.007 86.7485L302.642 85.8889L302.478 86.3401L304.843 87.1996L305.007 86.7485ZM302.591 85.8766C302.213 85.827 301.846 85.8222 301.492 85.8636L301.547 86.3403C301.86 86.3039 302.187 86.3076 302.529 86.3525L302.591 85.8766ZM301.499 85.8628C301.127 85.8951 300.79 85.9971 300.494 86.1732L300.739 86.5858C300.966 86.4509 301.231 86.3678 301.54 86.341L301.499 85.8628ZM300.502 86.1688C300.186 86.3407 299.941 86.6041 299.765 86.9463L300.192 87.1661C300.33 86.8984 300.51 86.7107 300.731 86.5902L300.502 86.1688ZM299.766 86.9443C299.585 87.2888 299.503 87.7241 299.503 88.2342H299.983C299.983 87.7696 300.058 87.4196 300.191 87.1681L299.766 86.9443ZM299.503 88.2342C299.503 88.796 299.614 89.3242 299.839 89.816L300.275 89.6167C300.081 89.1905 299.983 88.7306 299.983 88.2342H299.503ZM299.838 89.815C300.053 90.291 300.35 90.7257 300.728 91.1188L301.074 90.7862C300.732 90.4305 300.467 90.041 300.276 89.6177L299.838 89.815ZM300.727 91.1178C301.096 91.5061 301.525 91.8498 302.012 92.1494L302.263 91.7405C301.809 91.461 301.413 91.1431 301.075 90.7872L300.727 91.1178ZM302.014 92.1504C302.492 92.439 303.004 92.682 303.548 92.8797L303.712 92.4286C303.196 92.2411 302.712 92.0113 302.262 91.7394L302.014 92.1504ZM318.055 69.0283L319.737 83.1883L320.214 83.1317L318.531 68.9717L318.055 69.0283ZM320.132 82.9777L318.449 81.5376L318.137 81.9023L319.82 83.3424L320.132 82.9777ZM318.149 81.5279L316.226 82.9679L316.514 83.3521L318.437 81.9121L318.149 81.5279ZM316.608 83.1923L318.531 69.0323L318.055 68.9677L316.132 83.1277L316.608 83.1923ZM318.293 69.48H318.533V69H318.293V69.48ZM318.293 69.72H318.533V69.24H318.293V69.72ZM318.293 69.96H318.533V69.48H318.293V69.96ZM318.293 70.2H318.533V69.72H318.293V70.2ZM318.293 70.44H318.533V69.96H318.293V70.44ZM318.293 70.68H318.533V70.2H318.293V70.68ZM318.293 70.92H318.533V70.44H318.293V70.92ZM318.293 81.96L319.976 81.96L319.976 81.48L318.293 81.48L318.293 81.96ZM318.774 82.2H319.976V81.72H318.774V82.2ZM319.014 82.44H319.976V81.96H319.014V82.44ZM319.255 82.68H319.976V82.2H319.255V82.68ZM319.495 82.92H319.976V82.44H319.495V82.92ZM319.735 83.16H319.976V82.68H319.735V83.16ZM316.61 81.9599L318.293 81.96L318.293 81.48L316.61 81.4799L316.61 81.9599ZM316.61 82.1999H318.053V81.7199H316.61V82.1999ZM316.61 82.4399H317.812V81.9599H316.61V82.4399ZM316.61 82.6799H317.332V82.1999H316.61V82.6799ZM316.61 82.9199H317.091V82.4399H316.61V82.9199ZM316.61 83.1599H316.851V82.6799H316.61V83.1599ZM318.531 114.328L316.608 100.168L316.132 100.232L318.055 114.392L318.531 114.328ZM316.226 100.392L318.149 101.832L318.437 101.448L316.514 100.008L316.226 100.392ZM318.449 101.822L320.132 100.382L319.82 100.018L318.137 101.458L318.449 101.822ZM319.737 100.172L318.055 114.332L318.532 114.388L320.214 100.228L319.737 100.172ZM316.61 100.68H316.851V100.2H316.61V100.68ZM316.61 100.92H317.091V100.44H316.61V100.92ZM316.61 101.16H317.332V100.68H316.61V101.16ZM316.61 101.4H317.812V100.92H316.61V101.4ZM316.61 101.64H318.053V101.16H316.61V101.64ZM316.61 101.88L318.293 101.88L318.293 101.4L316.61 101.4L316.61 101.88ZM319.735 100.68H319.976V100.2H319.735V100.68ZM319.495 100.92H319.976V100.44H319.495V100.92ZM319.255 101.16H319.976V100.68H319.255V101.16ZM319.014 101.4H319.976V100.92H319.014V101.4ZM318.774 101.64H319.976V101.16H318.774V101.64ZM318.293 101.88L319.976 101.88L319.976 101.4L318.293 101.4L318.293 101.88ZM318.293 112.92H318.533V112.44H318.293V112.92ZM318.293 113.16H318.533V112.68H318.293V113.16ZM318.293 113.4H318.533V112.92H318.293V113.4ZM318.293 113.64H318.533V113.16H318.293V113.64ZM318.293 113.88H318.533V113.4H318.293V113.88ZM318.293 114.12H318.533V113.64H318.293V114.12ZM318.293 114.36H318.533V113.88H318.293V114.36ZM318.053 69L318.053 114.36L318.533 114.36L318.533 69L318.053 69ZM318.053 71.1599L318.533 71.16L318.533 70.68L318.053 70.6799L318.053 71.1599ZM318.053 71.3999L318.774 71.4L318.774 70.92L318.053 70.9199L318.053 71.3999ZM318.053 71.6399L318.774 71.64L318.774 71.16L318.053 71.1599L318.053 71.6399ZM318.053 71.8799L318.774 71.88L318.774 71.4L318.053 71.3999L318.053 71.8799ZM318.053 72.1199L318.774 72.12L318.774 71.64L318.053 71.6399L318.053 72.1199ZM318.053 72.3599L318.774 72.36L318.774 71.88L318.053 71.8799L318.053 72.3599ZM318.053 72.5999L318.774 72.6L318.774 72.12L318.053 72.1199L318.053 72.5999ZM317.812 72.8399L318.774 72.84L318.774 72.36L317.812 72.3599L317.812 72.8399ZM317.812 73.0799L318.774 73.08L318.774 72.6L317.812 72.5999L317.812 73.0799ZM317.812 73.3199L319.014 73.32L319.014 72.84L317.812 72.8399L317.812 73.3199ZM317.812 73.5599L319.014 73.56L319.014 73.08L317.812 73.0799L317.812 73.5599ZM317.812 73.7999L319.014 73.8L319.014 73.32L317.812 73.3199L317.812 73.7999ZM317.812 74.0399L319.014 74.04L319.014 73.56L317.812 73.5599L317.812 74.0399ZM317.812 74.2799L319.014 74.28L319.014 73.8L317.812 73.7999L317.812 74.2799ZM317.812 74.5199L319.014 74.52L319.014 74.04L317.812 74.0399L317.812 74.5199ZM317.572 74.7599L319.014 74.76L319.014 74.28L317.572 74.2799L317.572 74.7599ZM317.572 74.9999L319.014 75L319.014 74.52L317.572 74.5199L317.572 74.9999ZM317.572 75.2399L319.014 75.24L319.014 74.76L317.572 74.7599L317.572 75.2399ZM317.572 75.4799L319.255 75.48L319.255 75L317.572 74.9999L317.572 75.4799ZM317.572 75.7199L319.255 75.72L319.255 75.24L317.572 75.2399L317.572 75.7199ZM317.572 75.9599L319.255 75.96L319.255 75.48L317.572 75.4799L317.572 75.9599ZM317.572 76.1999L319.255 76.2L319.255 75.72L317.572 75.7199L317.572 76.1999ZM317.332 76.4399L319.255 76.44L319.255 75.96L317.332 75.9599L317.332 76.4399ZM317.332 76.6799L319.255 76.68L319.255 76.2L317.332 76.1999L317.332 76.6799ZM317.332 76.9199L319.255 76.92L319.255 76.44L317.332 76.4399L317.332 76.9199ZM317.332 77.1599L319.255 77.16L319.255 76.68L317.332 76.6799L317.332 77.1599ZM317.332 77.3999L319.495 77.4L319.495 76.92L317.332 76.9199L317.332 77.3999ZM317.332 77.6399L319.495 77.64L319.495 77.16L317.332 77.1599L317.332 77.6399ZM317.332 77.8799L319.495 77.88L319.495 77.4L317.332 77.3999L317.332 77.8799ZM317.091 78.1199L319.495 78.12L319.495 77.64L317.091 77.6399L317.091 78.1199ZM317.091 78.3599L319.495 78.36L319.495 77.88L317.091 77.8799L317.091 78.3599ZM317.091 78.5999L319.495 78.6L319.495 78.12L317.091 78.1199L317.091 78.5999ZM317.091 78.8399L319.495 78.84L319.495 78.36L317.091 78.3599L317.091 78.8399ZM317.091 79.0799L319.495 79.08L319.495 78.6L317.091 78.5999L317.091 79.0799ZM317.091 79.3199L319.495 79.32L319.495 78.84L317.091 78.8399L317.091 79.3199ZM317.091 79.5599L319.735 79.56L319.735 79.08L317.091 79.0799L317.091 79.5599ZM317.091 79.7999L319.735 79.8L319.735 79.32L317.091 79.3199L317.091 79.7999ZM316.851 80.0399L319.735 80.04L319.735 79.56L316.851 79.5599L316.851 80.0399ZM316.851 80.2799L319.735 80.28L319.735 79.8L316.851 79.7999L316.851 80.2799ZM316.851 80.5199L319.735 80.52L319.735 80.04L316.851 80.0399L316.851 80.5199ZM316.851 80.7599L319.735 80.76L319.735 80.28L316.851 80.2799L316.851 80.7599ZM316.851 80.9999L319.735 81L319.735 80.52L316.851 80.5199L316.851 80.9999ZM316.851 81.2399L319.735 81.24L319.735 80.76L316.851 80.7599L316.851 81.2399ZM316.851 81.4799L319.976 81.48L319.976 81L316.851 80.9999L316.851 81.4799ZM316.61 81.7199L319.976 81.72L319.976 81.24L316.61 81.2399L316.61 81.7199ZM316.61 102.12H319.976V101.64H316.61V102.12ZM316.851 102.36H319.976V101.88H316.851V102.36ZM316.851 102.6H319.735V102.12H316.851V102.6ZM316.851 102.84H319.735V102.36H316.851V102.84ZM316.851 103.08L319.735 103.08L319.735 102.6L316.851 102.6L316.851 103.08ZM316.851 103.32H319.735V102.84H316.851V103.32ZM316.851 103.56L319.735 103.56L319.735 103.08L316.851 103.08L316.851 103.56ZM316.851 103.8H319.735V103.32H316.851V103.8ZM317.091 104.04L319.735 104.04L319.735 103.56L317.091 103.56L317.091 104.04ZM317.091 104.28H319.735V103.8H317.091V104.28ZM317.091 104.52L319.495 104.52L319.495 104.04L317.091 104.04L317.091 104.52ZM317.091 104.76H319.495V104.28H317.091V104.76ZM317.091 105L319.495 105L319.495 104.52L317.091 104.52L317.091 105ZM317.091 105.24L319.495 105.24L319.495 104.76L317.091 104.76L317.091 105.24ZM317.091 105.48H319.495V105H317.091V105.48ZM317.091 105.72L319.495 105.72L319.495 105.24L317.091 105.24L317.091 105.72ZM317.332 105.96H319.495V105.48H317.332V105.96ZM317.332 106.2L319.495 106.2L319.495 105.72L317.332 105.72L317.332 106.2ZM317.332 106.44H319.495V105.96H317.332V106.44ZM317.332 106.68L319.255 106.68L319.255 106.2L317.332 106.2L317.332 106.68ZM317.332 106.92L319.255 106.92L319.255 106.44L317.332 106.44L317.332 106.92ZM317.332 107.16L319.255 107.16L319.255 106.68L317.332 106.68L317.332 107.16ZM317.332 107.4L319.255 107.4L319.255 106.92L317.332 106.92L317.332 107.4ZM317.572 107.64L319.255 107.64L319.255 107.16L317.572 107.16L317.572 107.64ZM317.572 107.88L319.255 107.88L319.255 107.4L317.572 107.4L317.572 107.88ZM317.572 108.12L319.255 108.12L319.255 107.64L317.572 107.64L317.572 108.12ZM317.572 108.36L319.255 108.36L319.255 107.88L317.572 107.88L317.572 108.36ZM317.572 108.6L319.014 108.6L319.014 108.12L317.572 108.12L317.572 108.6ZM317.572 108.84L319.014 108.84L319.014 108.36L317.572 108.36L317.572 108.84ZM317.572 109.08L319.014 109.08L319.014 108.6L317.572 108.6L317.572 109.08ZM317.812 109.32L319.014 109.32L319.014 108.84L317.812 108.84L317.812 109.32ZM317.812 109.56L319.014 109.56L319.014 109.08L317.812 109.08L317.812 109.56ZM317.812 109.8L319.014 109.8L319.014 109.32L317.812 109.32L317.812 109.8ZM317.812 110.04L319.014 110.04L319.014 109.56L317.812 109.56L317.812 110.04ZM317.812 110.28L319.014 110.28L319.014 109.8L317.812 109.8L317.812 110.28ZM317.812 110.52L319.014 110.52L319.014 110.04L317.812 110.04L317.812 110.52ZM317.812 110.76L318.774 110.76L318.774 110.28L317.812 110.28L317.812 110.76ZM317.812 111L318.774 111L318.774 110.52L317.812 110.52L317.812 111ZM318.053 111.24L318.774 111.24L318.774 110.76L318.053 110.76L318.053 111.24ZM318.053 111.48L318.774 111.48L318.774 111L318.053 111L318.053 111.48ZM318.053 111.72L318.774 111.72L318.774 111.24L318.053 111.24L318.053 111.72ZM318.053 111.96L318.774 111.96L318.774 111.48L318.053 111.48L318.053 111.96ZM318.053 112.2L318.774 112.2L318.774 111.72L318.053 111.72L318.053 112.2ZM318.053 112.44L318.774 112.44L318.774 111.96L318.053 111.96L318.053 112.44ZM318.053 112.68L318.533 112.68L318.533 112.2L318.053 112.2L318.053 112.68Z" fill="white"/>
    </g>
    <!--    8 dH-->
    <g class="group">
    </g>
    <!--    9 d1-->
    <g class="group">
    </g>
    <!--    10 d2-->
    <g class="group">
    </g>
    <!--    11 L-->
    <g class="group">
        <path d="M13.3307 187.676L14.8716 188.236V195.839L13.3307 195.279V187.676ZM0.581055 190.249L14.8716 195.442V197.458L0.581055 192.264V190.249Z" fill="white"/>
        <path d="M76.4492 92.04C76.5817 92.04 76.6892 91.9326 76.6892 91.8C76.6892 91.6675 76.5817 91.56 76.4492 91.56V92.04ZM44.2359 296.04C44.3684 296.04 44.4759 295.932 44.4759 295.8C44.4759 295.667 44.3684 295.56 44.2359 295.56V296.04ZM18.2725 295.56C18.14 295.56 18.0325 295.667 18.0325 295.8C18.0325 295.932 18.14 296.04 18.2725 296.04V295.56ZM18.2725 91.56C18.14 91.56 18.0325 91.6675 18.0325 91.8C18.0325 91.9326 18.14 92.04 18.2725 92.04V91.56ZM13.3307 187.676L13.4127 187.451C13.3391 187.424 13.2571 187.435 13.193 187.48C13.1289 187.525 13.0907 187.598 13.0907 187.676H13.3307ZM14.8716 188.236H15.1116C15.1116 188.136 15.0485 188.045 14.9536 188.011L14.8716 188.236ZM14.8716 195.839L14.7897 196.064C14.8632 196.091 14.9452 196.08 15.0093 196.035C15.0735 195.991 15.1116 195.917 15.1116 195.839H14.8716ZM13.3307 195.279H13.0907C13.0907 195.38 13.1538 195.47 13.2487 195.505L13.3307 195.279ZM0.581055 190.249L0.663024 190.023C0.58945 189.997 0.50746 190.008 0.443346 190.052C0.379233 190.097 0.341055 190.171 0.341055 190.249H0.581055ZM14.8716 195.442H15.1116C15.1116 195.341 15.0485 195.251 14.9536 195.217L14.8716 195.442ZM14.8716 197.458L14.7897 197.683C14.8632 197.71 14.9452 197.699 15.0093 197.654C15.0735 197.609 15.1116 197.536 15.1116 197.458H14.8716ZM0.581055 192.264H0.341055C0.341055 192.365 0.404214 192.456 0.499085 192.49L0.581055 192.264ZM24.0424 295.8L23.8046 295.832C23.8208 295.951 23.9224 296.04 24.0424 296.04C24.1625 296.04 24.2641 295.951 24.2803 295.832L24.0424 295.8ZM22.1192 281.64L22.2631 281.448C22.1856 281.39 22.081 281.384 21.9976 281.433C21.9142 281.482 21.8684 281.576 21.8814 281.672L22.1192 281.64ZM24.0424 283.08L24.0424 283.32L24.0424 283.32L24.0424 283.08ZM25.9653 281.64L26.2031 281.672C26.2161 281.576 26.1703 281.482 26.0869 281.433C26.0035 281.384 25.8988 281.39 25.8214 281.448L25.9653 281.64ZM24.0421 91.8L24.2799 91.7677C24.2637 91.6488 24.1621 91.56 24.0421 91.56C23.922 91.5601 23.8204 91.6488 23.8043 91.7678L24.0421 91.8ZM25.9653 105.96L25.8214 106.152C25.8988 106.21 26.0035 106.216 26.0869 106.167C26.1703 106.118 26.2161 106.024 26.2031 105.928L25.9653 105.96ZM22.1192 105.96L21.8814 105.928C21.8684 106.024 21.9142 106.118 21.9976 106.167C22.081 106.216 22.1857 106.21 22.2631 106.152L22.1192 105.96ZM44.2359 295.56H18.2725V296.04H44.2359V295.56ZM13.2487 187.902L14.7897 188.462L14.9536 188.011L13.4127 187.451L13.2487 187.902ZM14.6316 188.236V195.839H15.1116V188.236H14.6316ZM14.9536 195.613L13.4127 195.053L13.2487 195.505L14.7897 196.064L14.9536 195.613ZM13.5707 195.279V187.676H13.0907V195.279H13.5707ZM0.499085 190.475L14.7897 195.668L14.9536 195.217L0.663024 190.023L0.499085 190.475ZM14.6316 195.442V197.458H15.1116V195.442H14.6316ZM14.9536 197.232L0.663024 192.039L0.499085 192.49L14.7897 197.683L14.9536 197.232ZM0.821055 192.264V190.249H0.341055V192.264H0.821055ZM24.2803 295.768L22.357 281.608L21.8814 281.672L23.8046 295.832L24.2803 295.768ZM21.9754 281.832L23.8986 283.272L24.1863 282.888L22.2631 281.448L21.9754 281.832ZM24.1863 283.272L26.1091 281.832L25.8214 281.448L23.8986 282.888L24.1863 283.272ZM25.7274 281.608L23.8046 295.768L24.2803 295.832L26.2031 281.672L25.7274 281.608ZM22.3595 282.12H22.5999V281.64H22.3595V282.12ZM22.3595 282.36H22.8403V281.88H22.3595V282.36ZM22.3595 282.6H23.0807V282.12H22.3595V282.6ZM22.3595 282.84H23.5615V282.36H22.3595V282.84ZM22.3595 283.08H23.8019V282.6H22.3595V283.08ZM22.3595 283.32L24.0424 283.32L24.0424 282.84L22.3595 282.84L22.3595 283.32ZM25.7249 282.12H25.9653V281.64H25.7249V282.12ZM25.4845 282.36H25.9653V281.88H25.4845V282.36ZM25.0037 282.6H25.9653V282.12H25.0037V282.6ZM24.7633 282.84H25.9653V282.36H24.7633V282.84ZM24.5229 283.08H25.9653V282.6H24.5229V283.08ZM24.0424 283.32L25.9653 283.32L25.9653 282.84L24.0424 282.84L24.0424 283.32ZM24.0421 294.36H24.2825V293.88H24.0421V294.36ZM24.0421 294.6H24.2825V294.12H24.0421V294.6ZM24.0421 294.84H24.2825V294.36H24.0421V294.84ZM24.0421 295.08H24.2825V294.6H24.0421V295.08ZM24.0421 295.32H24.2825V294.84H24.0421V295.32ZM24.0421 295.56H24.2825V295.08H24.0421V295.56ZM24.0421 295.8H24.2825V295.32H24.0421V295.8ZM23.8043 91.8323L25.7274 105.992L26.2031 105.928L24.2799 91.7677L23.8043 91.8323ZM26.1091 105.768L24.1859 104.328L23.8982 104.712L25.8214 106.152L26.1091 105.768ZM23.8982 104.328L21.9754 105.768L22.2631 106.152L24.1859 104.712L23.8982 104.328ZM22.357 105.992L24.2799 91.8323L23.8043 91.7678L21.8814 105.928L22.357 105.992ZM24.0421 92.28H24.2825V91.8H24.0421V92.28ZM24.0421 92.52H24.2825V92.04H24.0421V92.52ZM24.0421 92.76H24.2825V92.28H24.0421V92.76ZM24.0421 93H24.2825V92.52H24.0421V93ZM24.0421 93.24H24.2825V92.76H24.0421V93.24ZM24.0421 93.48H24.2825V93H24.0421V93.48ZM24.0421 93.72H24.2825V93.24H24.0421V93.72ZM24.0421 104.76L25.9653 104.76L25.9653 104.28L24.0421 104.28L24.0421 104.76ZM24.5229 105H25.9653V104.52H24.5229V105ZM24.7633 105.24H25.9653V104.76H24.7633V105.24ZM25.0037 105.48H25.9653V105H25.0037V105.48ZM25.4845 105.72H25.9653V105.24H25.4845V105.72ZM25.7249 105.96H25.9653V105.48H25.7249V105.96ZM22.3594 104.76L24.0421 104.76L24.0421 104.28L22.3595 104.28L22.3594 104.76ZM22.3595 105H23.8019V104.52H22.3595V105ZM22.3595 105.24H23.5615V104.76H22.3595V105.24ZM22.3595 105.48H23.0807V105H22.3595V105.48ZM22.3595 105.72H22.8403V105.24H22.3595V105.72ZM22.3595 105.96H22.5999V105.48H22.3595V105.96ZM24.2824 295.8L24.2821 91.8L23.8021 91.8L23.8024 295.8L24.2824 295.8ZM18.2725 92.04H76.4492V91.56H18.2725V92.04ZM22.3595 283.56H25.9653V283.08H22.3595V283.56ZM22.5999 283.8H25.7249V283.32H22.5999V283.8ZM22.5999 284.04H25.7249V283.56H22.5999V284.04ZM22.5999 284.28H25.7249V283.8H22.5999V284.28ZM22.5999 284.52H25.7249V284.04H22.5999V284.52ZM22.5999 284.76H25.7249V284.28H22.5999V284.76ZM22.5999 285H25.7249V284.52H22.5999V285ZM22.5999 285.24H25.7249V284.76H22.5999V285.24ZM22.8403 285.48H25.4845V285H22.8403V285.48ZM22.8403 285.72L25.4845 285.72L25.4845 285.24L22.8403 285.24L22.8403 285.72ZM22.8403 285.96H25.4845V285.48H22.8403V285.96ZM22.8403 286.2H25.4845V285.72H22.8403V286.2ZM22.8403 286.44L25.4845 286.44L25.4845 285.96L22.8403 285.96L22.8403 286.44ZM22.8403 286.68H25.4845V286.2H22.8403V286.68ZM22.8403 286.92H25.4845V286.44H22.8403V286.92ZM22.8403 287.16H25.4845V286.68H22.8403V287.16ZM23.0807 287.4H25.2441V286.92H23.0807V287.4ZM23.0807 287.64H25.2441V287.16H23.0807V287.64ZM23.0807 287.88H25.2441V287.4H23.0807V287.88ZM23.0807 288.12H25.2441V287.64H23.0807V288.12ZM23.0807 288.36L25.2441 288.36L25.2441 287.88L23.0807 287.88L23.0807 288.36ZM23.0807 288.6H25.2441V288.12H23.0807V288.6ZM23.0807 288.84H25.2441V288.36H23.0807V288.84ZM23.3211 289.08L25.0037 289.08L25.0037 288.6L23.3211 288.6L23.3211 289.08ZM23.3211 289.32H25.0037V288.84H23.3211V289.32ZM23.3211 289.56H25.0037V289.08H23.3211V289.56ZM23.3211 289.8H25.0037V289.32H23.3211V289.8ZM23.3211 290.04H25.0037V289.56H23.3211V290.04ZM23.3211 290.28L25.0037 290.28L25.0037 289.8L23.3211 289.8L23.3211 290.28ZM23.3211 290.52H25.0037V290.04H23.3211V290.52ZM23.5615 290.76H24.7633V290.28H23.5615V290.76ZM23.5615 291L24.7633 291L24.7633 290.52L23.5615 290.52L23.5615 291ZM23.5615 291.24H24.7633V290.76H23.5615V291.24ZM23.5615 291.48H24.7633V291H23.5615V291.48ZM23.5615 291.72L24.7633 291.72L24.7633 291.24L23.5615 291.24L23.5615 291.72ZM23.5615 291.96H24.7633V291.48H23.5615V291.96ZM23.5615 292.2H24.7633V291.72H23.5615V292.2ZM23.5615 292.44L24.7633 292.44L24.7633 291.96L23.5615 291.96L23.5615 292.44ZM23.8019 292.68H24.5229V292.2H23.8019V292.68ZM23.8019 292.92L24.5229 292.92L24.5229 292.44L23.8018 292.44L23.8019 292.92ZM23.8019 293.16H24.5229V292.68H23.8019V293.16ZM23.8019 293.4H24.5229V292.92H23.8019V293.4ZM23.8019 293.64L24.5229 293.64L24.5229 293.16L23.8018 293.16L23.8019 293.64ZM23.8019 293.88H24.5229V293.4H23.8019V293.88ZM23.8019 294.12H24.5229V293.64H23.8019V294.12ZM23.8018 93.96L24.5228 93.96L24.5229 93.48L23.8019 93.48L23.8018 93.96ZM23.8018 94.2L24.5228 94.2L24.5229 93.72L23.8019 93.72L23.8018 94.2ZM23.8018 94.44L24.5228 94.44L24.5229 93.96L23.8019 93.96L23.8018 94.44ZM23.8018 94.68L24.5228 94.68L24.5229 94.2L23.8019 94.2L23.8018 94.68ZM23.8018 94.92L24.5228 94.92L24.5229 94.44L23.8019 94.44L23.8018 94.92ZM23.8018 95.16L24.5228 95.16L24.5229 94.68L23.8019 94.68L23.8018 95.16ZM23.8018 95.4L24.5228 95.4L24.5229 94.92L23.8019 94.92L23.8018 95.4ZM23.5614 95.64L24.7633 95.64L24.7633 95.16L23.5615 95.16L23.5614 95.64ZM23.5614 95.88L24.7633 95.88L24.7633 95.4L23.5615 95.4L23.5614 95.88ZM23.5614 96.12L24.7633 96.12L24.7633 95.64L23.5615 95.64L23.5614 96.12ZM23.5614 96.36L24.7633 96.36L24.7633 95.88L23.5615 95.88L23.5614 96.36ZM23.5614 96.6L24.7633 96.6L24.7633 96.12L23.5615 96.12L23.5614 96.6ZM23.5614 96.84L24.7633 96.84L24.7633 96.36L23.5615 96.36L23.5614 96.84ZM23.5614 97.08L24.7633 97.08L24.7633 96.6L23.5615 96.6L23.5614 97.08ZM23.5614 97.32L24.7633 97.32L24.7633 96.84L23.5615 96.84L23.5614 97.32ZM23.321 97.56L25.0037 97.56L25.0037 97.08L23.3211 97.08L23.321 97.56ZM23.321 97.8L25.0037 97.8L25.0037 97.32L23.3211 97.32L23.321 97.8ZM23.321 98.04L25.0037 98.04L25.0037 97.56L23.3211 97.56L23.321 98.04ZM23.321 98.28L25.0037 98.28L25.0037 97.8L23.3211 97.8L23.321 98.28ZM23.321 98.52L25.0037 98.52L25.0037 98.04L23.3211 98.04L23.321 98.52ZM23.321 98.76L25.0037 98.76L25.0037 98.28L23.3211 98.28L23.321 98.76ZM23.321 99L25.0037 99L25.0037 98.52L23.3211 98.52L23.321 99ZM23.0806 99.24L25.2441 99.24L25.2441 98.76L23.0807 98.76L23.0806 99.24ZM23.0806 99.48L25.2441 99.48L25.2441 99L23.0807 99L23.0806 99.48ZM23.0806 99.72L25.2441 99.72L25.2441 99.24L23.0807 99.24L23.0806 99.72ZM23.0806 99.96L25.2441 99.96L25.2441 99.48L23.0807 99.48L23.0806 99.96ZM23.0806 100.2L25.2441 100.2L25.2441 99.72L23.0807 99.72L23.0806 100.2ZM23.0806 100.44L25.2441 100.44L25.2441 99.96L23.0807 99.96L23.0806 100.44ZM23.0806 100.68L25.2441 100.68L25.2441 100.2L23.0807 100.2L23.0806 100.68ZM22.8402 100.92L25.4845 100.92L25.4845 100.44L22.8403 100.44L22.8402 100.92ZM22.8402 101.16L25.4845 101.16L25.4845 100.68L22.8403 100.68L22.8402 101.16ZM22.8402 101.4L25.4845 101.4L25.4845 100.92L22.8403 100.92L22.8402 101.4ZM22.8402 101.64L25.4845 101.64L25.4845 101.16L22.8403 101.16L22.8402 101.64ZM22.8402 101.88L25.4845 101.88L25.4845 101.4L22.8403 101.4L22.8402 101.88ZM22.8402 102.12L25.4845 102.12L25.4845 101.64L22.8403 101.64L22.8402 102.12ZM22.8402 102.36L25.4845 102.36L25.4845 101.88L22.8403 101.88L22.8402 102.36ZM22.8402 102.6L25.4845 102.6L25.4845 102.12L22.8403 102.12L22.8402 102.6ZM22.5998 102.84L25.7249 102.84L25.7249 102.36L22.5999 102.36L22.5998 102.84ZM22.5998 103.08L25.7249 103.08L25.7249 102.6L22.5999 102.6L22.5998 103.08ZM22.5998 103.32L25.7249 103.32L25.7249 102.84L22.5999 102.84L22.5998 103.32ZM22.5998 103.56L25.7249 103.56L25.7249 103.08L22.5999 103.08L22.5998 103.56ZM22.5998 103.8L25.7249 103.8L25.7249 103.32L22.5999 103.32L22.5998 103.8ZM22.5998 104.04L25.7249 104.04L25.7249 103.56L22.5999 103.56L22.5998 104.04ZM22.5998 104.28L25.7249 104.28L25.7249 103.8L22.5999 103.8L22.5998 104.28ZM22.3594 104.52L25.9653 104.52L25.9653 104.04L22.3595 104.04L22.3594 104.52Z" fill="white"/>
        <path d="M186.856 13.461L186.294 15.0013H178.692L179.253 13.461H186.856ZM184.297 0.716309L179.089 15.0013H177.073L182.281 0.716309H184.297Z" fill="white"/>
        <path d="M76.2092 85.3197C76.2092 85.4523 76.3167 85.5597 76.4492 85.5597C76.5818 85.5597 76.6892 85.4523 76.6892 85.3197H76.2092ZM284.877 43.0798C284.877 43.2123 284.985 43.3198 285.117 43.3198C285.25 43.3198 285.357 43.2123 285.357 43.0798H284.877ZM285.357 18.3597C285.357 18.2272 285.25 18.1197 285.117 18.1197C284.985 18.1197 284.877 18.2272 284.877 18.3597H285.357ZM76.6892 18.3597C76.6892 18.2272 76.5818 18.1197 76.4492 18.1197C76.3167 18.1197 76.2092 18.2272 76.2092 18.3597H76.6892ZM186.856 13.461L187.081 13.5432C187.108 13.4696 187.097 13.3875 187.052 13.3234C187.007 13.2592 186.934 13.221 186.856 13.221V13.461ZM186.294 15.0013V15.2413C186.395 15.2413 186.485 15.1783 186.52 15.0835L186.294 15.0013ZM178.692 15.0013L178.466 14.9191C178.439 14.9927 178.45 15.0747 178.495 15.1389C178.54 15.2031 178.613 15.2413 178.692 15.2413V15.0013ZM179.253 13.461V13.221C179.152 13.221 179.062 13.284 179.028 13.3787L179.253 13.461ZM184.297 0.716309L184.522 0.798521C184.549 0.724932 184.539 0.64288 184.494 0.578706C184.449 0.514531 184.375 0.476309 184.297 0.476309V0.716309ZM179.089 15.0013V15.2413C179.189 15.2413 179.279 15.1783 179.314 15.0835L179.089 15.0013ZM177.073 15.0013L176.848 14.9191C176.821 14.9927 176.831 15.0747 176.876 15.1389C176.921 15.2031 176.995 15.2413 177.073 15.2413V15.0013ZM182.281 0.716309V0.476309C182.181 0.476309 182.091 0.539352 182.056 0.634097L182.281 0.716309ZM285.117 24.1198L285.149 24.3576C285.268 24.3415 285.357 24.2399 285.357 24.1198C285.357 23.9997 285.268 23.898 285.149 23.8819L285.117 24.1198ZM270.934 26.0398L270.742 25.8956C270.684 25.973 270.678 26.0777 270.727 26.1612C270.776 26.2447 270.87 26.2906 270.966 26.2776L270.934 26.0398ZM270.934 22.1998L270.966 21.962C270.87 21.949 270.776 21.9949 270.727 22.0784C270.678 22.1619 270.684 22.2666 270.742 22.344L270.934 22.1998ZM76.4492 24.1198L76.417 23.882C76.298 23.8981 76.2092 23.9997 76.2092 24.1198C76.2092 24.2399 76.298 24.3416 76.417 24.3577L76.4492 24.1198ZM90.6329 22.1998L90.8248 22.344C90.8829 22.2666 90.8889 22.1619 90.8399 22.0784C90.7909 21.9949 90.6966 21.949 90.6007 21.962L90.6329 22.1998ZM90.6328 26.0398L90.6006 26.2776C90.6965 26.2906 90.7909 26.2447 90.8398 26.1612C90.8888 26.0777 90.8828 25.973 90.8247 25.8956L90.6328 26.0398ZM285.357 43.0798V18.3597H284.877V43.0798H285.357ZM186.63 13.3787L186.069 14.9191L186.52 15.0835L187.081 13.5432L186.63 13.3787ZM186.294 14.7613H178.692V15.2413H186.294V14.7613ZM178.917 15.0835L179.479 13.5432L179.028 13.3787L178.466 14.9191L178.917 15.0835ZM179.253 13.701H186.856V13.221H179.253V13.701ZM184.071 0.634097L178.863 14.9191L179.314 15.0835L184.522 0.798521L184.071 0.634097ZM179.089 14.7613H177.073V15.2413H179.089V14.7613ZM177.299 15.0835L182.507 0.79852L182.056 0.634097L176.848 14.9191L177.299 15.0835ZM182.281 0.956309H184.297V0.476309H182.281V0.956309ZM285.085 23.8819L270.901 25.8019L270.966 26.2776L285.149 24.3576L285.085 23.8819ZM271.125 26.1839L272.568 24.2639L272.184 23.9756L270.742 25.8956L271.125 26.1839ZM272.568 23.9756L271.125 22.0557L270.742 22.344L272.184 24.2639L272.568 23.9756ZM270.901 22.4377L285.085 24.3576L285.149 23.8819L270.966 21.962L270.901 22.4377ZM272.376 24.3598H285.117V23.8798H272.376V24.3598ZM272.377 24.5998H283.435V24.1198H272.377V24.5998ZM272.136 24.8398H281.752V24.3598H272.136V24.8398ZM271.896 25.0798H279.829V24.5998H271.896V25.0798ZM271.656 25.3198H278.146V24.8398H271.656V25.3198ZM271.656 25.5598H276.464V25.0798H271.656V25.5598ZM271.415 25.7998H274.54V25.3198H271.415V25.7998ZM271.175 26.0398H272.858V25.5598H271.175V26.0398ZM271.175 22.6798H272.858V22.1998H271.175V22.6798ZM271.415 22.9198H274.54V22.4398H271.415V22.9198ZM271.656 23.1598H276.464V22.6798H271.656V23.1598ZM271.656 23.3998H278.146V22.9198H271.656V23.3998ZM271.896 23.6398H279.829V23.1598H271.896V23.6398ZM272.136 23.8798H281.752V23.3998H272.136V23.8798ZM272.377 24.1198H283.435V23.6398H272.377V24.1198ZM76.4814 24.3577L90.6651 22.4377L90.6007 21.962L76.417 23.882L76.4814 24.3577ZM90.441 22.0557L88.9985 23.9757L89.3823 24.264L90.8248 22.344L90.441 22.0557ZM88.9985 24.264L90.4409 26.1839L90.8247 25.8956L89.3823 23.9757L88.9985 24.264ZM90.665 25.8019L76.4814 23.882L76.417 24.3577L90.6006 26.2776L90.665 25.8019ZM88.9507 22.6798H90.6335V22.1998H88.9507V22.6798ZM87.2679 22.9198H90.3931V22.4398H87.2679V22.9198ZM85.3447 23.1598H90.1527V22.6798H85.3447V23.1598ZM83.6619 23.3998H89.9123V22.9198H83.6619V23.3998ZM81.9791 23.6398H89.9123V23.1598H81.9791V23.6398ZM80.0559 23.8798H89.6719V23.3998H80.0559V23.8798ZM78.373 24.1198H89.4315V23.6398H78.373V24.1198ZM76.4492 24.3598H89.1904V23.8798H76.4492V24.3598ZM78.3724 24.5998H89.4309V24.1198H78.3724V24.5998ZM80.0552 24.8398H89.6713V24.3598H80.0552V24.8398ZM81.9784 25.0798H89.9117V24.5998H81.9784V25.0798ZM83.6613 25.3198H89.9117V24.8398H83.6613V25.3198ZM85.3441 25.5598H90.1521V25.0798H85.3441V25.5598ZM87.2673 25.7998H90.3925V25.3198H87.2673V25.7998ZM88.9501 26.0398H90.6329V25.5598H88.9501V26.0398ZM285.117 23.8798L76.4492 23.8798L76.4492 24.3598L285.117 24.3598L285.117 23.8798ZM76.2092 18.3597V85.3197H76.6892V18.3597H76.2092Z" fill="white"/>
    </g>
    <!--    12 L1-->
    <g class="group">
    </g>
    <!--    13 L2-->
    <g class="group">
    </g>
    <!--    14 S-->
    <g class="group">
        <path d="M90.0963 313.608C90.1917 313.347 90.2173 313.105 90.173 312.882C90.1382 312.654 89.9661 312.447 89.657 312.264C89.3571 312.075 88.8598 311.911 88.165 311.774C87.5837 311.65 87.07 311.502 86.6237 311.332C86.1845 311.162 85.8314 310.956 85.5646 310.714C85.3048 310.472 85.1405 310.188 85.0717 309.861C85.003 309.534 85.0485 309.151 85.2083 308.713C85.3609 308.294 85.6027 307.898 85.9336 307.526C86.2714 307.153 86.6738 306.822 87.1407 306.535C87.6146 306.247 88.139 306.021 88.7138 305.858C89.2886 305.694 89.8928 305.612 90.5263 305.612C91.4314 305.612 92.1493 305.763 92.6801 306.064C93.2109 306.365 93.5551 306.767 93.7126 307.27C93.8724 307.768 93.8415 308.32 93.6197 308.929H91.6878C91.7951 308.634 91.8048 308.35 91.717 308.075C91.6386 307.794 91.4552 307.562 91.1669 307.378C90.8856 307.195 90.4908 307.104 89.9826 307.104C89.4465 307.104 88.9828 307.182 88.5914 307.339C88.2093 307.49 87.8988 307.683 87.6598 307.918C87.4277 308.153 87.264 308.402 87.1686 308.664C87.097 308.86 87.0675 309.036 87.0798 309.193C87.1016 309.344 87.1826 309.485 87.3229 309.615C87.4655 309.74 87.6871 309.857 87.9877 309.969C88.2883 310.08 88.6829 310.191 89.1715 310.302C90.0259 310.498 90.7024 310.734 91.2009 311.009C91.6995 311.283 92.0222 311.62 92.1692 312.019C92.3161 312.418 92.2858 312.902 92.0783 313.471C91.909 313.936 91.6496 314.361 91.3 314.747C90.9574 315.132 90.5399 315.466 90.0475 315.747C89.5644 316.022 89.0262 316.238 88.4329 316.395C87.849 316.545 87.2263 316.62 86.5649 316.62C85.5693 316.62 84.7878 316.454 84.2202 316.12C83.6525 315.787 83.2878 315.355 83.1259 314.825C82.964 314.295 82.9904 313.736 83.205 313.147H85.1474C84.994 313.644 85.0029 314.04 85.174 314.335C85.3476 314.622 85.6136 314.828 85.9721 314.953C86.333 315.07 86.7118 315.129 87.1086 315.129C87.6377 315.129 88.1037 315.064 88.5064 314.933C88.9162 314.802 89.2567 314.622 89.5282 314.393C89.7996 314.164 89.989 313.903 90.0963 313.608Z" fill="white"/>
        <path d="M53.8513 302.28C53.8513 302.147 53.7439 302.04 53.6113 302.04C53.4788 302.04 53.3713 302.147 53.3713 302.28H53.8513ZM53.3713 331.32C53.3713 331.453 53.4788 331.56 53.6113 331.56C53.7439 331.56 53.8513 331.453 53.8513 331.32H53.3713ZM60.5828 302.28C60.5828 302.147 60.4753 302.04 60.3428 302.04C60.2102 302.04 60.1028 302.147 60.1028 302.28H60.5828ZM60.1028 331.32C60.1028 331.453 60.2102 331.56 60.3428 331.56C60.4753 331.56 60.5828 331.453 60.5828 331.32H60.1028ZM99.0473 325.8C99.1799 325.8 99.2873 325.693 99.2873 325.56C99.2873 325.428 99.1799 325.32 99.0473 325.32V325.8ZM90.0963 313.608L90.3218 313.691L90.3218 313.691L90.0963 313.608ZM90.173 312.882L89.9355 312.919L89.9377 312.929L90.173 312.882ZM89.657 312.264L89.5286 312.467L89.5346 312.471L89.657 312.264ZM88.165 311.774L88.1148 312.009L88.1184 312.009L88.165 311.774ZM86.6237 311.332L86.5371 311.556L86.5383 311.557L86.6237 311.332ZM85.5646 310.714L85.401 310.89L85.4034 310.892L85.5646 310.714ZM85.2083 308.713L85.4338 308.795L85.4338 308.795L85.2083 308.713ZM85.9336 307.526L85.7557 307.364L85.7541 307.366L85.9336 307.526ZM87.1407 306.535L87.0162 306.33L87.0148 306.33L87.1407 306.535ZM93.7126 307.27L93.4835 307.342L93.4841 307.344L93.7126 307.27ZM93.6197 308.929V309.169C93.7206 309.169 93.8106 309.106 93.8452 309.011L93.6197 308.929ZM91.6878 308.929L91.4623 308.846C91.4355 308.92 91.4462 309.002 91.4911 309.066C91.536 309.13 91.6094 309.169 91.6878 309.169V308.929ZM91.717 308.075L91.4857 308.14L91.4884 308.148L91.717 308.075ZM91.1669 307.378L91.036 307.58L91.0382 307.581L91.1669 307.378ZM88.5914 307.339L88.6793 307.562L88.6807 307.562L88.5914 307.339ZM87.6598 307.918L87.4913 307.747L87.4888 307.75L87.6598 307.918ZM87.1686 308.664L87.3941 308.746L87.1686 308.664ZM87.0798 309.193L86.8406 309.212C86.841 309.218 86.8416 309.223 86.8423 309.228L87.0798 309.193ZM87.3229 309.615L87.1591 309.791L87.1652 309.796L87.3229 309.615ZM89.1715 310.302L89.2252 310.068L89.2247 310.068L89.1715 310.302ZM92.0783 313.471L92.3038 313.553L92.0783 313.471ZM91.3 314.747L91.1221 314.585L91.1205 314.587L91.3 314.747ZM90.0475 315.747L90.1661 315.956L90.1665 315.956L90.0475 315.747ZM88.4329 316.395L88.4928 316.627L88.4943 316.627L88.4329 316.395ZM83.205 313.147V312.907C83.1042 312.907 83.0141 312.97 82.9795 313.065L83.205 313.147ZM85.1474 313.147L85.3767 313.218C85.3992 313.145 85.3858 313.066 85.3405 313.005C85.2953 312.944 85.2236 312.907 85.1474 312.907V313.147ZM85.174 314.335L84.9666 314.455L84.9685 314.458L85.174 314.335ZM85.9721 314.953L85.8935 315.179L85.8977 315.181L85.9721 314.953ZM88.5064 314.933L88.4334 314.704L88.4323 314.705L88.5064 314.933ZM39.4277 323.64L39.4599 323.402C39.364 323.389 39.2697 323.435 39.2207 323.518C39.1718 323.602 39.1777 323.707 39.2359 323.784L39.4277 323.64ZM39.4277 327.48L39.2358 327.336C39.1777 327.413 39.1718 327.518 39.2207 327.601C39.2697 327.685 39.364 327.731 39.4599 327.718L39.4277 327.48ZM33.6582 325.32C33.5257 325.32 33.4182 325.428 33.4182 325.56C33.4182 325.693 33.5257 325.8 33.6582 325.8L33.6582 325.32ZM74.7669 327.48L74.7352 327.718C74.831 327.731 74.9252 327.685 74.974 327.601C75.0228 327.518 75.0168 327.413 74.9587 327.336L74.7669 327.48ZM74.7666 323.64L74.9585 323.784C75.0166 323.707 75.0226 323.602 74.9738 323.519C74.9249 323.435 74.8308 323.389 74.7349 323.402L74.7666 323.64ZM80.2961 325.8C80.4286 325.8 80.5361 325.693 80.5361 325.56C80.5361 325.428 80.4286 325.32 80.2961 325.32V325.8ZM53.3713 302.28V331.32H53.8513V302.28H53.3713ZM60.1028 302.28V331.32H60.5828V302.28H60.1028ZM90.3218 313.691C90.4288 313.397 90.463 313.11 90.4084 312.836L89.9377 312.929C89.9716 313.1 89.9546 313.297 89.8708 313.526L90.3218 313.691ZM90.4103 312.846C90.3597 312.514 90.116 312.257 89.7793 312.058L89.5346 312.471C89.8163 312.638 89.9166 312.793 89.9358 312.919L90.4103 312.846ZM89.7853 312.062C89.4462 311.847 88.9123 311.677 88.2115 311.538L88.1184 312.009C88.8073 312.145 89.268 312.302 89.5287 312.467L89.7853 312.062ZM88.2151 311.539C87.6431 311.417 87.1416 311.273 86.7092 311.108L86.5383 311.557C86.9983 311.732 87.5243 311.882 88.1148 312.008L88.2151 311.539ZM86.7104 311.108C86.2906 310.946 85.9653 310.754 85.7259 310.536L85.4034 310.892C85.6976 311.159 86.0784 311.379 86.5371 311.556L86.7104 311.108ZM85.7282 310.539C85.5022 310.328 85.3645 310.087 85.3066 309.811L84.8369 309.91C84.9164 310.289 85.1074 310.616 85.4011 310.89L85.7282 310.539ZM85.3066 309.811C85.2501 309.542 85.2835 309.207 85.4338 308.795L84.9828 308.631C84.8135 309.095 84.756 309.525 84.8369 309.91L85.3066 309.811ZM85.4338 308.795C85.5749 308.408 85.7999 308.038 86.1131 307.685L85.7541 307.366C85.4055 307.759 85.147 308.18 84.9828 308.631L85.4338 308.795ZM86.1114 307.687C86.4327 307.332 86.8172 307.016 87.2667 306.739L87.0148 306.33C86.5303 306.629 86.11 306.973 85.7557 307.364L86.1114 307.687ZM87.2653 306.74C87.7195 306.464 88.2238 306.247 88.7795 306.089L88.6481 305.627C88.0542 305.796 87.5098 306.03 87.0162 306.33L87.2653 306.74ZM88.7795 306.089C89.3317 305.931 89.9137 305.852 90.5263 305.852V305.372C89.8719 305.372 89.2456 305.457 88.6481 305.627L88.7795 306.089ZM90.5263 305.852C91.4085 305.852 92.0804 306 92.5618 306.273L92.7985 305.855C92.2182 305.526 91.4542 305.372 90.5263 305.372V305.852ZM92.5618 306.273C93.0485 306.548 93.347 306.906 93.4835 307.342L93.9416 307.199C93.7631 306.628 93.3733 306.181 92.7985 305.855L92.5618 306.273ZM93.4841 307.344C93.624 307.779 93.6022 308.276 93.3942 308.846L93.8452 309.011C94.0808 308.365 94.1209 307.756 93.941 307.197L93.4841 307.344ZM93.6197 308.689H91.6878V309.169H93.6197V308.689ZM91.9133 309.011C92.0371 308.671 92.0511 308.332 91.9456 308.002L91.4884 308.148C91.5586 308.368 91.5531 308.597 91.4623 308.846L91.9133 309.011ZM91.9482 308.011C91.8512 307.663 91.6249 307.385 91.2956 307.176L91.0382 307.581C91.2855 307.738 91.426 307.925 91.4859 308.139L91.9482 308.011ZM91.2978 307.177C90.9623 306.959 90.515 306.864 89.9826 306.864V307.344C90.4666 307.344 90.8088 307.432 91.036 307.58L91.2978 307.177ZM89.9826 306.864C89.4239 306.864 88.9284 306.945 88.502 307.116L88.6807 307.562C89.0372 307.419 89.4692 307.344 89.9826 307.344V306.864ZM88.5034 307.116C88.0978 307.276 87.7579 307.484 87.4913 307.747L87.8282 308.089C88.0396 307.881 88.3208 307.704 88.6793 307.562L88.5034 307.116ZM87.4888 307.75C87.2371 308.005 87.0523 308.282 86.9431 308.581L87.3941 308.746C87.4757 308.522 87.6183 308.302 87.8307 308.086L87.4888 307.75ZM86.9431 308.581C86.8634 308.8 86.8248 309.012 86.8406 309.212L87.3191 309.175C87.3102 309.061 87.3306 308.92 87.3941 308.746L86.9431 308.581ZM86.8423 309.228C86.8737 309.445 86.9896 309.633 87.1592 309.791L87.4865 309.44C87.3756 309.336 87.3294 309.243 87.3174 309.159L86.8423 309.228ZM87.1652 309.796C87.3399 309.948 87.5929 310.078 87.9045 310.194L88.071 309.743C87.7814 309.636 87.5912 309.531 87.4805 309.434L87.1652 309.796ZM87.9045 310.194C88.2187 310.31 88.6244 310.424 89.1182 310.536L89.2247 310.068C88.7414 309.958 88.358 309.85 88.071 309.743L87.9045 310.194ZM89.1178 310.536C89.9608 310.73 90.6135 310.959 91.0851 311.219L91.3167 310.798C90.7912 310.509 90.0909 310.267 89.2252 310.068L89.1178 310.536ZM91.0851 311.219C91.5504 311.475 91.8229 311.773 91.9439 312.102L92.3944 311.936C92.2216 311.467 91.8486 311.091 91.3167 310.798L91.0851 311.219ZM91.9439 312.102C92.0644 312.429 92.049 312.851 91.8529 313.389L92.3038 313.553C92.5226 312.953 92.5678 312.407 92.3944 311.936L91.9439 312.102ZM91.8529 313.389C91.6947 313.823 91.452 314.221 91.1221 314.585L91.4779 314.908C91.8471 314.5 92.1233 314.048 92.3038 313.553L91.8529 313.389ZM91.1205 314.587C90.7969 314.952 90.4004 315.269 89.9284 315.539L90.1665 315.956C90.6794 315.663 91.1179 315.313 91.4795 314.906L91.1205 314.587ZM89.9288 315.539C89.4655 315.802 88.9469 316.011 88.3715 316.163L88.4943 316.627C89.1056 316.465 89.6633 316.242 90.1661 315.956L89.9288 315.539ZM88.373 316.162C87.8104 316.307 87.208 316.38 86.5649 316.38V316.86C87.2446 316.86 87.8875 316.783 88.4928 316.627L88.373 316.162ZM86.5649 316.38C85.5919 316.38 84.8583 316.217 84.3418 315.913L84.0986 316.327C84.7172 316.691 85.5468 316.86 86.5649 316.86V316.38ZM84.3418 315.913C83.8156 315.604 83.4965 315.217 83.3554 314.755L82.8964 314.895C83.0791 315.493 83.4895 315.969 84.0986 316.327L84.3418 315.913ZM83.3554 314.755C83.2107 314.281 83.2313 313.776 83.4305 313.23L82.9795 313.065C82.7495 313.696 82.7173 314.309 82.8964 314.895L83.3554 314.755ZM83.205 313.387H85.1474V312.907H83.205V313.387ZM84.9181 313.077C84.7553 313.604 84.7474 314.078 84.9666 314.455L85.3815 314.214C85.2584 314.002 85.2327 313.685 85.3767 313.218L84.9181 313.077ZM84.9685 314.458C85.1748 314.8 85.4892 315.039 85.8935 315.179L86.0507 314.726C85.738 314.617 85.5204 314.444 85.3796 314.211L84.9685 314.458ZM85.8977 315.181C86.2836 315.307 86.6877 315.369 87.1086 315.369V314.889C86.7359 314.889 86.3823 314.834 86.0465 314.724L85.8977 315.181ZM87.1086 315.369C87.6569 315.369 88.1488 315.301 88.5806 315.161L88.4323 314.705C88.0586 314.826 87.6186 314.889 87.1086 314.889V315.369ZM88.5794 315.162C89.0129 315.023 89.3829 314.83 89.6829 314.577L89.3734 314.21C89.1305 314.415 88.8194 314.581 88.4334 314.704L88.5794 315.162ZM89.6829 314.577C89.982 314.325 90.1983 314.029 90.3218 313.691L89.8708 313.526C89.7797 313.776 89.6172 314.004 89.3734 314.21L89.6829 314.577ZM53.6436 325.322L39.4599 323.402L39.3955 323.878L53.5792 325.798L53.6436 325.322ZM39.2359 323.784L40.6782 325.704L41.062 325.416L39.6196 323.496L39.2359 323.784ZM40.6782 325.416L39.2358 327.336L39.6196 327.624L41.062 325.704L40.6782 325.416ZM39.4599 327.718L53.6436 325.798L53.5792 325.322L39.3955 327.242L39.4599 327.718ZM53.6114 325.32L33.6582 325.32L33.6582 325.8L53.6114 325.8L53.6114 325.32ZM39.668 324.12H41.3508V323.64H39.668V324.12ZM39.9084 324.36H43.0336V323.88H39.9084V324.36ZM40.1488 324.6H44.9568V324.12H40.1488V324.6ZM40.1488 324.84H46.6396V324.36H40.1488V324.84ZM40.3892 325.08H48.3224V324.6H40.3892V325.08ZM40.6296 325.32H50.2456V324.84H40.6296V325.32ZM40.87 325.56H51.9284V325.08H40.87V325.56ZM40.8701 325.8H53.6114V325.32H40.8701V325.8ZM40.87 326.04H51.9284V325.56H40.87V326.04ZM40.6296 326.28H50.2456V325.8H40.6296V326.28ZM40.3892 326.52H48.3224V326.04H40.3892V326.52ZM40.1488 326.76H46.6396V326.28H40.1488V326.76ZM40.1488 327H44.9568V326.52H40.1488V327ZM39.9084 327.24H43.0336V326.76H39.9084V327.24ZM39.668 327.48H41.3508V327H39.668V327.48ZM60.3111 325.798L74.7352 327.718L74.7985 327.242L60.3744 325.322L60.3111 325.798ZM74.9587 327.336L73.5161 325.416L73.1323 325.704L74.575 327.624L74.9587 327.336ZM73.5161 325.704L74.9585 323.784L74.5747 323.496L73.1323 325.416L73.5161 325.704ZM74.7349 323.402L60.3111 325.322L60.3744 325.798L74.7983 323.878L74.7349 323.402ZM60.3428 325.8H80.2961V325.32H60.3428V325.8ZM60.3428 325.8H73.3242V325.32H60.3428V325.8ZM62.266 326.04H73.5649V325.56H62.266V326.04ZM63.9488 326.28H73.8053V325.8H63.9488V326.28ZM65.872 326.52H74.0457V326.04H65.872V326.52ZM67.5548 326.76H74.0457V326.28H67.5548V326.76ZM69.478 327H74.2861V326.52H69.478V327ZM71.1608 327.24H74.5265V326.76H71.1608V327.24ZM73.084 327.48H74.7669V327H73.084V327.48ZM73.0837 324.12H74.7665V323.64H73.0837V324.12ZM71.1605 324.36H74.5261V323.88H71.1605V324.36ZM69.4777 324.6H74.2857V324.12H69.4777V324.6ZM67.5545 324.84H74.0453V324.36H67.5545V324.84ZM65.8716 325.08H74.0453V324.6H65.8716V325.08ZM63.9484 325.32H73.8049V324.84H63.9484V325.32ZM62.2656 325.56H73.5645V325.08H62.2656V325.56ZM53.6114 325.8L60.3428 325.8L60.3428 325.32L53.6114 325.32L53.6114 325.8ZM60.3428 325.8H99.0473V325.32H60.3428V325.8Z" fill="white"/>
    </g>
    <!--    15 S1-->
    <g class="group">
    </g>
    <!--    16 S2-->
    <g class="group">
    </g>
    <!--    17 S3-->
    <g class="group">
    </g>
    <!--    18 S4-->
    <g class="group">
    </g>
    <!--    19 I-->
    <g class="group">
        <path d="M268.698 30.8528L263.203 45.9227H261.261L266.755 30.8528H268.698Z" fill="white"/>
        <path d="M284.877 63.2399C284.877 63.3725 284.985 63.4799 285.117 63.4799C285.25 63.4799 285.357 63.3725 285.357 63.2399H284.877ZM285.357 49.3199C285.357 49.1874 285.25 49.0799 285.117 49.0799C284.985 49.0799 284.877 49.1874 284.877 49.3199H285.357ZM242.567 63.2399C242.567 63.3725 242.674 63.4799 242.807 63.4799C242.939 63.4799 243.047 63.3725 243.047 63.2399H242.567ZM243.047 49.3199C243.047 49.1874 242.939 49.0799 242.807 49.0799C242.674 49.0799 242.567 49.1874 242.567 49.3199H243.047ZM268.698 30.8528L268.923 30.935C268.95 30.8614 268.939 30.7794 268.894 30.7152C268.849 30.651 268.776 30.6128 268.698 30.6128V30.8528ZM263.203 45.9227V46.1627C263.304 46.1627 263.394 46.0996 263.428 46.0049L263.203 45.9227ZM261.261 45.9227L261.035 45.8405C261.008 45.914 261.019 45.9961 261.064 46.0603C261.109 46.1244 261.182 46.1627 261.261 46.1627V45.9227ZM266.755 30.8528V30.6128C266.654 30.6128 266.564 30.6758 266.53 30.7706L266.755 30.8528ZM285.117 55.0799L285.149 55.3178C285.268 55.3017 285.357 55.2 285.357 55.0799C285.357 54.9598 285.268 54.8582 285.149 54.8421L285.117 55.0799ZM270.934 56.9999L270.742 56.8558C270.684 56.9332 270.678 57.0379 270.727 57.1214C270.776 57.2049 270.87 57.2508 270.966 57.2378L270.934 56.9999ZM270.934 53.16L270.966 52.9222C270.87 52.9092 270.776 52.9551 270.727 53.0386C270.678 53.1221 270.684 53.2268 270.742 53.3042L270.934 53.16ZM242.807 55.08L242.774 54.8422C242.655 54.8583 242.567 54.9599 242.567 55.08C242.567 55.2001 242.655 55.3017 242.774 55.3179L242.807 55.08ZM256.99 53.16L257.182 53.3041C257.24 53.2267 257.246 53.122 257.197 53.0386C257.148 52.9551 257.054 52.9092 256.958 52.9222L256.99 53.16ZM256.991 56.9999L256.959 57.2378C257.055 57.2508 257.149 57.2049 257.198 57.1214C257.247 57.0379 257.241 56.9332 257.183 56.8558L256.991 56.9999ZM285.357 63.2399V49.3199H284.877V63.2399H285.357ZM243.047 63.2399V49.3199H242.567V63.2399H243.047ZM268.472 30.7706L262.977 45.8405L263.428 46.0049L268.923 30.935L268.472 30.7706ZM263.203 45.6827H261.261V46.1627H263.203V45.6827ZM261.486 46.0049L266.981 30.935L266.53 30.7706L261.035 45.8405L261.486 46.0049ZM266.755 31.0928H268.698V30.6128H266.755V31.0928ZM285.085 54.8421L270.901 56.7621L270.966 57.2378L285.149 55.3178L285.085 54.8421ZM271.125 57.1441L272.568 55.2241L272.184 54.9358L270.742 56.8558L271.125 57.1441ZM272.568 54.9358L271.125 53.0159L270.742 53.3042L272.184 55.2241L272.568 54.9358ZM270.901 53.3979L285.085 55.3178L285.149 54.8421L270.966 52.9222L270.901 53.3979ZM272.376 55.3199H285.117V54.8399H272.376V55.3199ZM272.377 55.5599H283.435V55.0799H272.377V55.5599ZM272.136 55.7999H281.752V55.3199H272.136V55.7999ZM271.896 56.0399H279.829V55.5599H271.896V56.0399ZM271.656 56.2799H278.146V55.7999H271.656V56.2799ZM271.656 56.5199H276.464V56.0399H271.656V56.5199ZM271.415 56.7599H274.54V56.2799H271.415V56.7599ZM271.175 56.9999H272.858V56.5199H271.175V56.9999ZM271.175 53.64H272.858V53.16H271.175V53.64ZM271.415 53.88H274.54V53.4H271.415V53.88ZM271.656 54.12H276.464V53.64H271.656V54.12ZM271.656 54.36H278.146V53.88H271.656V54.36ZM271.896 54.6H279.829V54.12H271.896V54.6ZM272.136 54.84H281.752V54.36H272.136V54.84ZM272.377 55.08H283.435V54.6H272.377V55.08ZM242.839 55.3178L257.022 53.3979L256.958 52.9222L242.774 54.8422L242.839 55.3178ZM256.798 53.0159L255.357 54.9359L255.741 55.2241L257.182 53.3041L256.798 53.0159ZM255.357 55.2242L256.799 57.1441L257.183 56.8558L255.741 54.9359L255.357 55.2242ZM257.023 56.7621L242.839 54.8422L242.774 55.3179L256.959 57.2378L257.023 56.7621ZM255.308 53.64H256.991V53.16H255.308V53.64ZM253.625 53.88H256.751V53.4H253.625V53.88ZM251.702 54.12H256.51V53.64H251.702V54.12ZM250.019 54.36H256.27V53.88H250.019V54.36ZM248.336 54.6H256.27V54.12H248.336V54.6ZM246.413 54.84H256.029V54.36H246.413V54.84ZM244.73 55.08H255.789V54.6H244.73V55.08ZM242.807 55.32H255.549V54.84H242.807V55.32ZM244.73 55.5599H255.788V55.0799H244.73V55.5599ZM246.413 55.7999H256.029V55.3199H246.413V55.7999ZM248.336 56.0399H256.269V55.5599H248.336V56.0399ZM250.019 56.2799H256.269V55.7999H250.019V56.2799ZM251.701 56.5199H256.509V56.0399H251.701V56.5199ZM253.625 56.7599H256.75V56.2799H253.625V56.7599ZM255.307 56.9999H256.99V56.5199H255.307V56.9999ZM285.117 54.8399L242.807 54.84L242.807 55.32L285.117 55.3199L285.117 54.8399Z" fill="white"/>
    </g>
    <!--    20 I1-->
    <g class="group">
    </g>
    <!--    21 I2-->
    <g class="group">
    </g>
    <!--    22 H-->
    <g class="group">
    </g>
    <!--    23 H1-->
    <g class="group">
    </g>
    <!--    24 H2-->
    <g class="group">
    </g>
    <!--    25 h-->
    <g class="group">
    </g>
    <!--    26 h1-->
    <g class="group">
    </g>
    <!--    27 h2-->
    <g class="group">
    </g>
    <!--    28 R-->
    <g class="group">
    </g>
    <!--    29 Deg-->
    <g class="group">
    </g>
    <!--    29 DN-->
    <g class="group">
    </g>

</svg>
