<svg width="430" height="327" viewBox="0 0 430 327" fill="none" xmlns="http://www.w3.org/2000/svg">
<path d="M386.226 73.36H172.029H386.226Z" stroke="white" stroke-width="1.68" stroke-linecap="round" stroke-linejoin="round"/>
<path d="M172.029 73.36L161.691 73.84L172.029 73.36Z" stroke="white" stroke-width="1.68" stroke-linecap="round" stroke-linejoin="round"/>
<path d="M161.692 73.84L151.354 75.28L161.692 73.84Z" stroke="white" stroke-width="1.68" stroke-linecap="round" stroke-linejoin="round"/>
<path d="M151.354 75.2799L141.257 77.4399L151.354 75.2799Z" stroke="white" stroke-width="1.68" stroke-linecap="round" stroke-linejoin="round"/>
<path d="M141.258 77.4399L131.161 80.7999L141.258 77.4399Z" stroke="white" stroke-width="1.68" stroke-linecap="round" stroke-linejoin="round"/>
<path d="M131.161 80.7999L121.785 85.1199L131.161 80.7999Z" stroke="white" stroke-width="1.68" stroke-linecap="round" stroke-linejoin="round"/>
<path d="M121.785 85.1199L112.65 90.1599L121.785 85.1199Z" stroke="white" stroke-width="1.68" stroke-linecap="round" stroke-linejoin="round"/>
<path d="M112.65 90.1599L103.995 95.9199L112.65 90.1599Z" stroke="white" stroke-width="1.68" stroke-linecap="round" stroke-linejoin="round"/>
<path d="M103.995 95.9199L95.8218 102.64L103.995 95.9199Z" stroke="white" stroke-width="1.68" stroke-linecap="round" stroke-linejoin="round"/>
<path d="M95.8216 102.64L88.3691 110.08L95.8216 102.64Z" stroke="white" stroke-width="1.68" stroke-linecap="round" stroke-linejoin="round"/>
<path d="M88.3694 110.08L81.6382 118L88.3694 110.08Z" stroke="white" stroke-width="1.68" stroke-linecap="round" stroke-linejoin="round"/>
<path d="M81.6383 118L75.8687 126.64L81.6383 118Z" stroke="white" stroke-width="1.68" stroke-linecap="round" stroke-linejoin="round"/>
<path d="M75.8684 126.64L70.5796 135.52L75.8684 126.64Z" stroke="white" stroke-width="1.68" stroke-linecap="round" stroke-linejoin="round"/>
<path d="M70.5795 135.52L66.4927 145.12L70.5795 135.52Z" stroke="white" stroke-width="1.68" stroke-linecap="round" stroke-linejoin="round"/>
<path d="M66.4926 145.12L63.127 154.96L66.4926 145.12Z" stroke="white" stroke-width="1.68" stroke-linecap="round" stroke-linejoin="round"/>
<path d="M63.1273 154.96L60.4829 165.28L63.1273 154.96Z" stroke="white" stroke-width="1.68" stroke-linecap="round" stroke-linejoin="round"/>
<path d="M60.4829 165.28L59.0405 175.6L60.4829 165.28Z" stroke="white" stroke-width="1.68" stroke-linecap="round" stroke-linejoin="round"/>
<path d="M59.0396 175.6L58.5596 185.92L59.0396 175.6Z" stroke="white" stroke-width="1.68" stroke-linecap="round" stroke-linejoin="round"/>
<path d="M58.5596 185.92V186.64V185.92Z" stroke="white" stroke-width="1.68" stroke-linecap="round" stroke-linejoin="round"/>
<path d="M58.5596 186.64V299.92V186.64Z" stroke="white" stroke-width="1.68" stroke-linecap="round" stroke-linejoin="round"/>
<path d="M58.5596 299.92H103.995H58.5596Z" stroke="white" stroke-width="1.68" stroke-linecap="round" stroke-linejoin="round"/>
<path d="M386.226 73.36V118.72V73.36Z" stroke="white" stroke-width="1.68" stroke-linecap="round" stroke-linejoin="round"/>
<path d="M386.226 118.72H160.73H386.226Z" stroke="white" stroke-width="1.68" stroke-linecap="round" stroke-linejoin="round"/>
<path d="M103.995 175.36V299.92V175.36Z" stroke="white" stroke-width="1.68" stroke-linecap="round" stroke-linejoin="round"/>
<path d="M160.73 118.72L153.277 119.2L160.73 118.72Z" stroke="white" stroke-width="1.68" stroke-linecap="round" stroke-linejoin="round"/>
<path d="M153.277 119.2L146.065 120.4L153.277 119.2Z" stroke="white" stroke-width="1.68" stroke-linecap="round" stroke-linejoin="round"/>
<path d="M146.065 120.4L139.094 122.8L146.065 120.4Z" stroke="white" stroke-width="1.68" stroke-linecap="round" stroke-linejoin="round"/>
<path d="M139.094 122.8L132.603 126.16L139.094 122.8Z" stroke="white" stroke-width="1.68" stroke-linecap="round" stroke-linejoin="round"/>
<path d="M132.603 126.16L126.353 130.24L132.603 126.16Z" stroke="white" stroke-width="1.68" stroke-linecap="round" stroke-linejoin="round"/>
<path d="M126.352 130.24L120.823 135.04L126.352 130.24Z" stroke="white" stroke-width="1.68" stroke-linecap="round" stroke-linejoin="round"/>
<path d="M120.823 135.04L115.775 140.56L120.823 135.04Z" stroke="white" stroke-width="1.68" stroke-linecap="round" stroke-linejoin="round"/>
<path d="M115.775 140.56L111.688 146.56L115.775 140.56Z" stroke="white" stroke-width="1.68" stroke-linecap="round" stroke-linejoin="round"/>
<path d="M111.688 146.56L108.323 153.28L111.688 146.56Z" stroke="white" stroke-width="1.68" stroke-linecap="round" stroke-linejoin="round"/>
<path d="M108.322 153.28L105.918 160.24L108.322 153.28Z" stroke="white" stroke-width="1.68" stroke-linecap="round" stroke-linejoin="round"/>
<path d="M105.918 160.24L104.476 167.44L105.918 160.24Z" stroke="white" stroke-width="1.68" stroke-linecap="round" stroke-linejoin="round"/>
<path d="M104.475 167.44L103.995 174.88L104.475 167.44Z" stroke="white" stroke-width="1.68" stroke-linecap="round" stroke-linejoin="round"/>
<path d="M103.995 174.88V175.36V174.88Z" stroke="white" stroke-width="1.68" stroke-linecap="round" stroke-linejoin="round"/>
<path d="M97.2642 266.08V299.92V266.08Z" stroke="white" stroke-width="1.68" stroke-linecap="round" stroke-linejoin="round"/>
<path d="M307.855 77.6799H390.553H307.855Z" stroke="white" stroke-width="0.72" stroke-linecap="round" stroke-linejoin="round"/>
<path d="M307.855 114.16H390.553H307.855Z" stroke="white" stroke-width="0.72" stroke-linecap="round" stroke-linejoin="round"/>
<path d="M390.554 114.16V77.6799V114.16Z" stroke="white" stroke-width="1.68" stroke-linecap="round" stroke-linejoin="round"/>
<path d="M386.226 73.36L390.553 77.68L386.226 73.36Z" stroke="white" stroke-width="1.68" stroke-linecap="round" stroke-linejoin="round"/>
<path d="M386.226 118.72L390.553 114.16L386.226 118.72Z" stroke="white" stroke-width="1.68" stroke-linecap="round" stroke-linejoin="round"/>
<path d="M307.855 118.72V73.36V118.72Z" stroke="white" stroke-width="1.68" stroke-linecap="round" stroke-linejoin="round"/>
<path d="M103.995 284.56L100.87 273.76L103.995 284.56Z" stroke="white" stroke-width="0.48" stroke-linecap="round" stroke-linejoin="round"/>
<path d="M100.87 273.76L98.4663 268.24L100.87 273.76Z" stroke="white" stroke-width="0.48" stroke-linecap="round" stroke-linejoin="round"/>
<path d="M98.4662 268.24L95.8218 264.64L98.4662 268.24Z" stroke="white" stroke-width="0.48" stroke-linecap="round" stroke-linejoin="round"/>
<path d="M95.822 264.64L93.418 262.48L95.822 264.64Z" stroke="white" stroke-width="0.48" stroke-linecap="round" stroke-linejoin="round"/>
<path d="M93.4179 262.48L90.0522 261.04L93.4179 262.48Z" stroke="white" stroke-width="0.48" stroke-linecap="round" stroke-linejoin="round"/>
<path d="M90.0521 261.04L86.6865 259.84L90.0521 261.04Z" stroke="white" stroke-width="0.48" stroke-linecap="round" stroke-linejoin="round"/>
<path d="M86.6863 259.84L81.3975 258.16L86.6863 259.84Z" stroke="white" stroke-width="0.48" stroke-linecap="round" stroke-linejoin="round"/>
<path d="M81.3975 258.16L78.5127 256.24L81.3975 258.16Z" stroke="white" stroke-width="0.48" stroke-linecap="round" stroke-linejoin="round"/>
<path d="M78.5127 256.24L76.3491 253.84L78.5127 256.24Z" stroke="white" stroke-width="0.48" stroke-linecap="round" stroke-linejoin="round"/>
<path d="M76.3493 253.84L74.6665 250.72L76.3493 253.84Z" stroke="white" stroke-width="0.48" stroke-linecap="round" stroke-linejoin="round"/>
<path d="M74.6664 250.72L72.7432 246.16L74.6664 250.72Z" stroke="white" stroke-width="0.48" stroke-linecap="round" stroke-linejoin="round"/>
<path d="M72.7433 246.16L71.7817 244.72L72.7433 246.16Z" stroke="white" stroke-width="0.48" stroke-linecap="round" stroke-linejoin="round"/>
<path d="M71.7817 244.72V244.48V244.72Z" stroke="white" stroke-width="0.48" stroke-linecap="round" stroke-linejoin="round"/>
<path d="M71.781 244.48H71.541H71.781Z" stroke="white" stroke-width="0.48" stroke-linecap="round" stroke-linejoin="round"/>
<path d="M71.541 244.48V244.24V244.48Z" stroke="white" stroke-width="0.48" stroke-linecap="round" stroke-linejoin="round"/>
<path d="M71.541 244.24V244V244.24Z" stroke="white" stroke-width="0.48" stroke-linecap="round" stroke-linejoin="round"/>
<path d="M71.5408 244H71.3008H71.5408Z" stroke="white" stroke-width="0.48" stroke-linecap="round" stroke-linejoin="round"/>
<path d="M71.3008 244V243.76V244Z" stroke="white" stroke-width="0.48" stroke-linecap="round" stroke-linejoin="round"/>
<path d="M71.3005 243.76H71.0605H71.3005Z" stroke="white" stroke-width="0.48" stroke-linecap="round" stroke-linejoin="round"/>
<path d="M71.0598 243.76H70.8198H71.0598Z" stroke="white" stroke-width="0.48" stroke-linecap="round" stroke-linejoin="round"/>
<path d="M70.8198 243.76V243.52V243.76Z" stroke="white" stroke-width="0.48" stroke-linecap="round" stroke-linejoin="round"/>
<path d="M70.8196 243.52H70.5796H70.8196Z" stroke="white" stroke-width="0.48" stroke-linecap="round" stroke-linejoin="round"/>
<path d="M70.5794 243.52H70.3394H70.5794Z" stroke="white" stroke-width="0.48" stroke-linecap="round" stroke-linejoin="round"/>
<path d="M70.3394 243.52V243.28V243.52Z" stroke="white" stroke-width="0.48" stroke-linecap="round" stroke-linejoin="round"/>
<path d="M70.3386 243.28H70.0986H70.3386Z" stroke="white" stroke-width="0.48" stroke-linecap="round" stroke-linejoin="round"/>
<path d="M70.0984 243.28H69.8584H70.0984Z" stroke="white" stroke-width="0.48" stroke-linecap="round" stroke-linejoin="round"/>
<path d="M69.8582 243.28L69.6182 243.52L69.8582 243.28Z" stroke="white" stroke-width="0.48" stroke-linecap="round" stroke-linejoin="round"/>
<path d="M69.6174 243.52H69.3774H69.6174Z" stroke="white" stroke-width="0.48" stroke-linecap="round" stroke-linejoin="round"/>
<path d="M69.3772 243.52H69.1372H69.3772Z" stroke="white" stroke-width="0.48" stroke-linecap="round" stroke-linejoin="round"/>
<path d="M69.1372 243.52V243.76V243.52Z" stroke="white" stroke-width="0.48" stroke-linecap="round" stroke-linejoin="round"/>
<path d="M69.137 243.76H68.897H69.137Z" stroke="white" stroke-width="0.48" stroke-linecap="round" stroke-linejoin="round"/>
<path d="M68.8962 243.76H68.6562H68.8962Z" stroke="white" stroke-width="0.48" stroke-linecap="round" stroke-linejoin="round"/>
<path d="M68.6562 243.76V244V243.76Z" stroke="white" stroke-width="0.48" stroke-linecap="round" stroke-linejoin="round"/>
<path d="M68.656 244H68.416H68.656Z" stroke="white" stroke-width="0.48" stroke-linecap="round" stroke-linejoin="round"/>
<path d="M68.416 244V244.24V244Z" stroke="white" stroke-width="0.48" stroke-linecap="round" stroke-linejoin="round"/>
<path d="M68.4158 244.24H68.1758H68.4158Z" stroke="white" stroke-width="0.48" stroke-linecap="round" stroke-linejoin="round"/>
<path d="M68.1758 244.24V244.48V244.24Z" stroke="white" stroke-width="0.48" stroke-linecap="round" stroke-linejoin="round"/>
<path d="M68.1751 244.48H67.9351H68.1751Z" stroke="white" stroke-width="0.48" stroke-linecap="round" stroke-linejoin="round"/>
<path d="M67.9348 244.48L67.6948 244.72L67.9348 244.48Z" stroke="white" stroke-width="0.48" stroke-linecap="round" stroke-linejoin="round"/>
<path d="M67.6946 244.72L67.4546 244.96L67.6946 244.72Z" stroke="white" stroke-width="0.48" stroke-linecap="round" stroke-linejoin="round"/>
<path d="M67.4539 244.96L67.2139 245.44L67.4539 244.96Z" stroke="white" stroke-width="0.48" stroke-linecap="round" stroke-linejoin="round"/>
<path d="M67.2134 245.44L66.7334 246.16L67.2134 245.44Z" stroke="white" stroke-width="0.48" stroke-linecap="round" stroke-linejoin="round"/>
<path d="M66.7333 246.16L65.5312 247.6L66.7333 246.16Z" stroke="white" stroke-width="0.48" stroke-linecap="round" stroke-linejoin="round"/>
<path d="M65.5309 247.6L63.8481 250.96L65.5309 247.6Z" stroke="white" stroke-width="0.48" stroke-linecap="round" stroke-linejoin="round"/>
<path d="M63.8485 250.96L61.2041 256.72L63.8485 250.96Z" stroke="white" stroke-width="0.48" stroke-linecap="round" stroke-linejoin="round"/>
<path d="M61.204 256.72L58.5596 262.72L61.204 256.72Z" stroke="white" stroke-width="0.48" stroke-linecap="round" stroke-linejoin="round"/>
<path d="M65.291 248.08V299.92V248.08Z" stroke="white" stroke-width="1.68" stroke-linecap="round" stroke-linejoin="round"/>
<path d="M160.73 95.9199L151.835 97.1199L160.73 95.9199Z" stroke="white" stroke-width="0.48" stroke-linecap="round" stroke-linejoin="round"/>
<path d="M151.835 97.1199L142.94 99.0399L151.835 97.1199Z" stroke="white" stroke-width="0.48" stroke-linecap="round" stroke-linejoin="round"/>
<path d="M142.94 99.0399L140.056 99.9999L142.94 99.0399Z" stroke="white" stroke-width="0.48" stroke-linecap="round" stroke-linejoin="round"/>
<path d="M136.209 101.44L134.286 102.16L136.209 101.44Z" stroke="white" stroke-width="0.48" stroke-linecap="round" stroke-linejoin="round"/>
<path d="M134.286 102.16L132.122 103.12L134.286 102.16Z" stroke="white" stroke-width="0.48" stroke-linecap="round" stroke-linejoin="round"/>
<path d="M128.276 105.04L126.112 106L128.276 105.04Z" stroke="white" stroke-width="0.48" stroke-linecap="round" stroke-linejoin="round"/>
<path d="M126.112 106L118.419 110.8L126.112 106Z" stroke="white" stroke-width="0.48" stroke-linecap="round" stroke-linejoin="round"/>
<path d="M118.42 110.8L111.208 116.32L118.42 110.8Z" stroke="white" stroke-width="0.48" stroke-linecap="round" stroke-linejoin="round"/>
<path d="M111.207 116.32L110.967 116.56L111.207 116.32Z" stroke="white" stroke-width="0.48" stroke-linecap="round" stroke-linejoin="round"/>
<path d="M107.842 119.44L104.717 122.32L107.842 119.44Z" stroke="white" stroke-width="0.48" stroke-linecap="round" stroke-linejoin="round"/>
<path d="M101.832 125.68L98.7065 129.52L101.832 125.68Z" stroke="white" stroke-width="0.48" stroke-linecap="round" stroke-linejoin="round"/>
<path d="M98.7068 129.52L93.418 136.96L98.7068 129.52Z" stroke="white" stroke-width="0.48" stroke-linecap="round" stroke-linejoin="round"/>
<path d="M93.4177 136.96L90.2925 142.96L93.4177 136.96Z" stroke="white" stroke-width="0.48" stroke-linecap="round" stroke-linejoin="round"/>
<path d="M88.3692 146.8L86.9268 150.88L88.3692 146.8Z" stroke="white" stroke-width="0.48" stroke-linecap="round" stroke-linejoin="round"/>
<path d="M85.244 154.72L83.3208 161.92L85.244 154.72Z" stroke="white" stroke-width="0.48" stroke-linecap="round" stroke-linejoin="round"/>
<path d="M83.321 161.92L81.6382 171.04L83.321 161.92Z" stroke="white" stroke-width="0.48" stroke-linecap="round" stroke-linejoin="round"/>
<path d="M81.6372 171.04L81.1572 175.36L81.6372 171.04Z" stroke="white" stroke-width="0.48" stroke-linecap="round" stroke-linejoin="round"/>
<path d="M81.1572 175.36V198.64V175.36Z" stroke="white" stroke-width="0.48" stroke-linecap="round" stroke-linejoin="round"/>
<path d="M81.1572 202.96V207.28V202.96Z" stroke="white" stroke-width="0.48" stroke-linecap="round" stroke-linejoin="round"/>
<path d="M81.1572 211.6V234.88V211.6Z" stroke="white" stroke-width="0.48" stroke-linecap="round" stroke-linejoin="round"/>
<path d="M81.1572 239.2V243.52V239.2Z" stroke="white" stroke-width="0.48" stroke-linecap="round" stroke-linejoin="round"/>
<path d="M81.1572 247.6V271.12V247.6Z" stroke="white" stroke-width="0.48" stroke-linecap="round" stroke-linejoin="round"/>
<path d="M81.1572 275.44V279.76V275.44Z" stroke="white" stroke-width="0.48" stroke-linecap="round" stroke-linejoin="round"/>
<path d="M81.1572 283.84V307.36V283.84Z" stroke="white" stroke-width="0.48" stroke-linecap="round" stroke-linejoin="round"/>
<path d="M160.73 95.9199H197.992H160.73Z" stroke="white" stroke-width="0.48" stroke-linecap="round" stroke-linejoin="round"/>
<path d="M202.319 95.9199H206.647H202.319Z" stroke="white" stroke-width="0.48" stroke-linecap="round" stroke-linejoin="round"/>
<path d="M210.974 95.9199H248.236H210.974Z" stroke="white" stroke-width="0.48" stroke-linecap="round" stroke-linejoin="round"/>
<path d="M252.563 95.9199H256.65H252.563Z" stroke="white" stroke-width="0.48" stroke-linecap="round" stroke-linejoin="round"/>
<path d="M260.977 95.9199H298.239H260.977Z" stroke="white" stroke-width="0.48" stroke-linecap="round" stroke-linejoin="round"/>
<path d="M302.567 95.9199H306.894H302.567Z" stroke="white" stroke-width="0.48" stroke-linecap="round" stroke-linejoin="round"/>
<path d="M310.981 95.9199H348.484H310.981Z" stroke="white" stroke-width="0.48" stroke-linecap="round" stroke-linejoin="round"/>
<path d="M352.57 95.9199H356.898H352.57Z" stroke="white" stroke-width="0.48" stroke-linecap="round" stroke-linejoin="round"/>
<path d="M361.225 95.9199H398.487H361.225Z" stroke="white" stroke-width="0.48" stroke-linecap="round" stroke-linejoin="round"/>
<path d="M386.226 73.36L383.341 77.68L386.226 73.36Z" stroke="white" stroke-width="0.96" stroke-linecap="round" stroke-linejoin="round"/>
<path d="M380.938 73.36L383.341 77.68L380.938 73.36Z" stroke="white" stroke-width="0.96" stroke-linecap="round" stroke-linejoin="round"/>
<path d="M380.937 73.36L378.293 77.68L380.937 73.36Z" stroke="white" stroke-width="0.96" stroke-linecap="round" stroke-linejoin="round"/>
<path d="M375.889 73.36L378.293 77.68L375.889 73.36Z" stroke="white" stroke-width="0.96" stroke-linecap="round" stroke-linejoin="round"/>
<path d="M375.889 73.36L373.245 77.68L375.889 73.36Z" stroke="white" stroke-width="0.96" stroke-linecap="round" stroke-linejoin="round"/>
<path d="M370.841 73.36L373.245 77.68L370.841 73.36Z" stroke="white" stroke-width="0.96" stroke-linecap="round" stroke-linejoin="round"/>
<path d="M370.841 73.36L368.437 77.68L370.841 73.36Z" stroke="white" stroke-width="0.96" stroke-linecap="round" stroke-linejoin="round"/>
<path d="M365.792 73.36L368.436 77.68L365.792 73.36Z" stroke="white" stroke-width="0.96" stroke-linecap="round" stroke-linejoin="round"/>
<path d="M365.792 73.36L363.388 77.68L365.792 73.36Z" stroke="white" stroke-width="0.96" stroke-linecap="round" stroke-linejoin="round"/>
<path d="M360.744 73.36L363.388 77.68L360.744 73.36Z" stroke="white" stroke-width="0.96" stroke-linecap="round" stroke-linejoin="round"/>
<path d="M360.744 73.36L358.34 77.68L360.744 73.36Z" stroke="white" stroke-width="0.96" stroke-linecap="round" stroke-linejoin="round"/>
<path d="M355.695 73.36L358.34 77.68L355.695 73.36Z" stroke="white" stroke-width="0.96" stroke-linecap="round" stroke-linejoin="round"/>
<path d="M355.696 73.36L353.292 77.68L355.696 73.36Z" stroke="white" stroke-width="0.96" stroke-linecap="round" stroke-linejoin="round"/>
<path d="M350.647 73.36L353.291 77.68L350.647 73.36Z" stroke="white" stroke-width="0.96" stroke-linecap="round" stroke-linejoin="round"/>
<path d="M350.647 73.36L348.243 77.68L350.647 73.36Z" stroke="white" stroke-width="0.96" stroke-linecap="round" stroke-linejoin="round"/>
<path d="M386.226 118.72L383.341 114.16L386.226 118.72Z" stroke="white" stroke-width="0.96" stroke-linecap="round" stroke-linejoin="round"/>
<path d="M380.938 118.72L383.341 114.16L380.938 118.72Z" stroke="white" stroke-width="0.96" stroke-linecap="round" stroke-linejoin="round"/>
<path d="M380.937 118.72L378.293 114.16L380.937 118.72Z" stroke="white" stroke-width="0.96" stroke-linecap="round" stroke-linejoin="round"/>
<path d="M375.889 118.72L378.293 114.16L375.889 118.72Z" stroke="white" stroke-width="0.96" stroke-linecap="round" stroke-linejoin="round"/>
<path d="M375.889 118.72L373.245 114.16L375.889 118.72Z" stroke="white" stroke-width="0.96" stroke-linecap="round" stroke-linejoin="round"/>
<path d="M370.841 118.72L373.245 114.16L370.841 118.72Z" stroke="white" stroke-width="0.96" stroke-linecap="round" stroke-linejoin="round"/>
<path d="M370.841 118.72L368.437 114.16L370.841 118.72Z" stroke="white" stroke-width="0.96" stroke-linecap="round" stroke-linejoin="round"/>
<path d="M365.792 118.72L368.436 114.16L365.792 118.72Z" stroke="white" stroke-width="0.96" stroke-linecap="round" stroke-linejoin="round"/>
<path d="M365.792 118.72L363.388 114.16L365.792 118.72Z" stroke="white" stroke-width="0.96" stroke-linecap="round" stroke-linejoin="round"/>
<path d="M360.744 118.72L363.388 114.16L360.744 118.72Z" stroke="white" stroke-width="0.96" stroke-linecap="round" stroke-linejoin="round"/>
<path d="M360.744 118.72L358.34 114.16L360.744 118.72Z" stroke="white" stroke-width="0.96" stroke-linecap="round" stroke-linejoin="round"/>
<path d="M355.695 118.72L358.34 114.16L355.695 118.72Z" stroke="white" stroke-width="0.96" stroke-linecap="round" stroke-linejoin="round"/>
<path d="M355.696 118.72L353.292 114.16L355.696 118.72Z" stroke="white" stroke-width="0.96" stroke-linecap="round" stroke-linejoin="round"/>
<path d="M350.647 118.72L353.291 114.16L350.647 118.72Z" stroke="white" stroke-width="0.96" stroke-linecap="round" stroke-linejoin="round"/>
<path d="M350.647 118.72L348.243 114.16L350.647 118.72Z" stroke="white" stroke-width="0.96" stroke-linecap="round" stroke-linejoin="round"/>
<path d="M345.599 73.36L348.243 77.68L345.599 73.36Z" stroke="white" stroke-width="0.96" stroke-linecap="round" stroke-linejoin="round"/>
<path d="M345.598 73.36L343.194 77.68L345.598 73.36Z" stroke="white" stroke-width="0.96" stroke-linecap="round" stroke-linejoin="round"/>
<path d="M340.791 73.36L343.195 77.68L340.791 73.36Z" stroke="white" stroke-width="0.96" stroke-linecap="round" stroke-linejoin="round"/>
<path d="M340.79 73.36L338.146 77.68L340.79 73.36Z" stroke="white" stroke-width="0.96" stroke-linecap="round" stroke-linejoin="round"/>
<path d="M335.742 73.36L338.146 77.68L335.742 73.36Z" stroke="white" stroke-width="0.96" stroke-linecap="round" stroke-linejoin="round"/>
<path d="M335.742 73.36L333.098 77.68L335.742 73.36Z" stroke="white" stroke-width="0.96" stroke-linecap="round" stroke-linejoin="round"/>
<path d="M330.693 73.36L333.097 77.68L330.693 73.36Z" stroke="white" stroke-width="0.96" stroke-linecap="round" stroke-linejoin="round"/>
<path d="M330.694 73.36L328.049 77.68L330.694 73.36Z" stroke="white" stroke-width="0.96" stroke-linecap="round" stroke-linejoin="round"/>
<path d="M325.645 73.36L328.049 77.68L325.645 73.36Z" stroke="white" stroke-width="0.96" stroke-linecap="round" stroke-linejoin="round"/>
<path d="M325.645 73.36L323.001 77.68L325.645 73.36Z" stroke="white" stroke-width="0.96" stroke-linecap="round" stroke-linejoin="round"/>
<path d="M320.597 73.36L323.001 77.68L320.597 73.36Z" stroke="white" stroke-width="0.96" stroke-linecap="round" stroke-linejoin="round"/>
<path d="M320.597 73.36L317.952 77.68L320.597 73.36Z" stroke="white" stroke-width="0.96" stroke-linecap="round" stroke-linejoin="round"/>
<path d="M345.599 118.72L348.243 114.16L345.599 118.72Z" stroke="white" stroke-width="0.96" stroke-linecap="round" stroke-linejoin="round"/>
<path d="M345.598 118.72L343.194 114.16L345.598 118.72Z" stroke="white" stroke-width="0.96" stroke-linecap="round" stroke-linejoin="round"/>
<path d="M340.791 118.72L343.195 114.16L340.791 118.72Z" stroke="white" stroke-width="0.96" stroke-linecap="round" stroke-linejoin="round"/>
<path d="M340.79 118.72L338.146 114.16L340.79 118.72Z" stroke="white" stroke-width="0.96" stroke-linecap="round" stroke-linejoin="round"/>
<path d="M335.742 118.72L338.146 114.16L335.742 118.72Z" stroke="white" stroke-width="0.96" stroke-linecap="round" stroke-linejoin="round"/>
<path d="M335.742 118.72L333.098 114.16L335.742 118.72Z" stroke="white" stroke-width="0.96" stroke-linecap="round" stroke-linejoin="round"/>
<path d="M330.693 118.72L333.097 114.16L330.693 118.72Z" stroke="white" stroke-width="0.96" stroke-linecap="round" stroke-linejoin="round"/>
<path d="M330.694 118.72L328.049 114.16L330.694 118.72Z" stroke="white" stroke-width="0.96" stroke-linecap="round" stroke-linejoin="round"/>
<path d="M325.645 118.72L328.049 114.16L325.645 118.72Z" stroke="white" stroke-width="0.96" stroke-linecap="round" stroke-linejoin="round"/>
<path d="M325.645 118.72L323.001 114.16L325.645 118.72Z" stroke="white" stroke-width="0.96" stroke-linecap="round" stroke-linejoin="round"/>
<path d="M320.597 118.72L323.001 114.16L320.597 118.72Z" stroke="white" stroke-width="0.96" stroke-linecap="round" stroke-linejoin="round"/>
<path d="M320.597 118.72L317.952 114.16L320.597 118.72Z" stroke="white" stroke-width="0.96" stroke-linecap="round" stroke-linejoin="round"/>
<path d="M315.548 118.72L317.952 114.16L315.548 118.72Z" stroke="white" stroke-width="0.96" stroke-linecap="round" stroke-linejoin="round"/>
<path d="M315.548 118.72L312.904 114.16L315.548 118.72Z" stroke="white" stroke-width="0.96" stroke-linecap="round" stroke-linejoin="round"/>
<path d="M310.5 118.72L312.904 114.16L310.5 118.72Z" stroke="white" stroke-width="0.96" stroke-linecap="round" stroke-linejoin="round"/>
<path d="M310.5 118.72L308.096 114.16L310.5 118.72Z" stroke="white" stroke-width="0.96" stroke-linecap="round" stroke-linejoin="round"/>
<path d="M315.548 73.36L317.952 77.68L315.548 73.36Z" stroke="white" stroke-width="0.96" stroke-linecap="round" stroke-linejoin="round"/>
<path d="M315.548 73.36L312.904 77.68L315.548 73.36Z" stroke="white" stroke-width="0.96" stroke-linecap="round" stroke-linejoin="round"/>
<path d="M310.5 73.36L312.904 77.68L310.5 73.36Z" stroke="white" stroke-width="0.96" stroke-linecap="round" stroke-linejoin="round"/>
<path d="M310.5 73.36L308.096 77.68L310.5 73.36Z" stroke="white" stroke-width="0.96" stroke-linecap="round" stroke-linejoin="round"/>
<path d="M103.515 299.92L103.995 299.68L103.515 299.92Z" stroke="white" stroke-width="0.48" stroke-linecap="round" stroke-linejoin="round"/>
<path d="M97.2642 294.4L103.995 287.68L97.2642 294.4Z" stroke="white" stroke-width="0.48" stroke-linecap="round" stroke-linejoin="round"/>
<path d="M97.2642 282.4L102.072 277.36L97.2642 282.4Z" stroke="white" stroke-width="0.48" stroke-linecap="round" stroke-linejoin="round"/>
<path d="M97.2642 270.4L98.7066 268.96L97.2642 270.4Z" stroke="white" stroke-width="0.48" stroke-linecap="round" stroke-linejoin="round"/>
<path d="M58.5596 296.8L65.2908 290.08L58.5596 296.8Z" stroke="white" stroke-width="0.48" stroke-linecap="round" stroke-linejoin="round"/>
<path d="M58.5596 284.8L65.2908 278.08L58.5596 284.8Z" stroke="white" stroke-width="0.48" stroke-linecap="round" stroke-linejoin="round"/>
<path d="M58.5596 272.8L65.2908 266.08L58.5596 272.8Z" stroke="white" stroke-width="0.48" stroke-linecap="round" stroke-linejoin="round"/>
<path d="M60.002 259.36L65.2908 253.84L60.002 259.36Z" stroke="white" stroke-width="0.48" stroke-linecap="round" stroke-linejoin="round"/>

    <!--    1 A-->
    <g class="group">
    </g>
    <!--    2 D-->
    <g class="group">
    </g>
    <!--    3 Dy-->
    <g class="group">
    </g>
    <!--    4 Dh-->
    <g class="group">
    </g>
    <!--    5 D1-->
    <g class="group">
    </g>
    <!--   6 D2-->
    <g class="group">
    </g>
    <!--   7 d-->
    <g class="group">
        <path d="M412.001 92.3872L398.986 87.6578V85.7154L414.062 91.1938V92.9691L412.001 92.3872ZM408.87 98.8519L408.664 98.777C407.852 98.4821 407.116 98.1102 406.455 97.6612C405.788 97.2028 405.215 96.6919 404.738 96.1285C404.26 95.5581 403.894 94.955 403.638 94.3192C403.377 93.6741 403.246 93.0139 403.246 92.3386C403.246 91.6285 403.364 91.0517 403.599 90.6081C403.828 90.1553 404.165 89.8252 404.61 89.6179C405.049 89.4013 405.579 89.298 406.2 89.3081C406.822 89.3182 407.525 89.4241 408.31 89.6259L409.213 89.954C409.992 90.3136 410.692 90.7177 411.314 91.1663C411.935 91.608 412.465 92.0965 412.904 92.6318C413.342 93.1601 413.679 93.7351 413.915 94.3567C414.144 94.976 414.258 95.6442 414.258 96.3613C414.258 97.0227 414.124 97.5796 413.856 98.0321C413.588 98.4777 413.211 98.8109 412.727 99.0317C412.243 99.2457 411.674 99.3416 411.019 99.3197C410.358 99.2884 409.642 99.1324 408.87 98.8519ZM408.664 96.8346L408.87 96.9095C409.4 97.1021 409.897 97.2271 410.362 97.2845C410.826 97.335 411.235 97.3026 411.589 97.1873C411.942 97.0721 412.22 96.8633 412.423 96.5611C412.619 96.2565 412.717 95.8431 412.717 95.3209C412.717 94.6804 412.59 94.1085 412.335 93.605C412.079 93.0945 411.742 92.6379 411.324 92.2351C410.905 91.8323 410.45 91.4721 409.959 91.1545L407.594 90.2949C407.234 90.2477 406.887 90.2435 406.554 90.2824C406.213 90.3119 405.912 90.4044 405.651 90.5599C405.382 90.7061 405.17 90.9317 405.013 91.2366C404.856 91.5346 404.777 91.9273 404.777 92.4146C404.777 92.9437 404.882 93.4378 405.091 93.8968C405.294 94.3464 405.575 94.7585 405.935 95.1329C406.289 95.505 406.701 95.8358 407.172 96.1254C407.636 96.4056 408.134 96.642 408.664 96.8346Z" fill="white"/>
        <path d="M398.487 73.12C398.354 73.12 398.247 73.2274 398.247 73.36C398.247 73.4925 398.354 73.6 398.487 73.6V73.12ZM429.018 73.6C429.15 73.6 429.258 73.4925 429.258 73.36C429.258 73.2274 429.15 73.12 429.018 73.12V73.6ZM398.487 118.48C398.354 118.48 398.247 118.587 398.247 118.72C398.247 118.853 398.354 118.96 398.487 118.96V118.48ZM429.018 118.96C429.15 118.96 429.258 118.853 429.258 118.72C429.258 118.587 429.15 118.48 429.018 118.48V118.96ZM412.001 92.3872L411.919 92.6128C411.924 92.6148 411.93 92.6166 411.936 92.6182L412.001 92.3872ZM398.986 87.6578H398.746C398.746 87.7587 398.809 87.8489 398.904 87.8833L398.986 87.6578ZM398.986 85.7154L399.068 85.4898C398.995 85.4631 398.913 85.4739 398.849 85.5188C398.784 85.5637 398.746 85.6371 398.746 85.7154H398.986ZM414.062 91.1938H414.302C414.302 91.0929 414.239 91.0027 414.144 90.9682L414.062 91.1938ZM414.062 92.9691L413.997 93.2001C414.069 93.2205 414.147 93.2058 414.207 93.1605C414.267 93.1151 414.302 93.0443 414.302 92.9691H414.062ZM408.87 98.8519L408.788 99.0774L408.788 99.0774L408.87 98.8519ZM408.664 98.777L408.746 98.5514L408.746 98.5514L408.664 98.777ZM406.455 97.6612L406.32 97.859L406.321 97.8597L406.455 97.6612ZM404.738 96.1285L404.554 96.2826L404.555 96.2837L404.738 96.1285ZM403.638 94.3192L403.861 94.2298L403.861 94.229L403.638 94.3192ZM403.599 90.6081L403.811 90.7207L403.813 90.7165L403.599 90.6081ZM404.61 89.6179L404.712 89.8355L404.717 89.8331L404.61 89.6179ZM408.31 89.6259L408.392 89.4003C408.385 89.3977 408.378 89.3954 408.37 89.3934L408.31 89.6259ZM409.213 89.954L409.314 89.7361C409.308 89.7333 409.302 89.7307 409.295 89.7284L409.213 89.954ZM411.314 91.1663L411.173 91.3609L411.175 91.362L411.314 91.1663ZM412.904 92.6318L412.718 92.7839L412.719 92.785L412.904 92.6318ZM413.915 94.3567L414.14 94.2735L414.139 94.2717L413.915 94.3567ZM413.856 98.0321L414.061 98.1559L414.062 98.1545L413.856 98.0321ZM412.727 99.0317L412.824 99.2513L412.827 99.2501L412.727 99.0317ZM411.019 99.3197L411.008 99.5594L411.011 99.5595L411.019 99.3197ZM408.664 96.8346L408.582 97.0601L408.582 97.0601L408.664 96.8346ZM408.87 96.9095L408.952 96.6839L408.952 96.6839L408.87 96.9095ZM410.362 97.2845L410.332 97.5227L410.336 97.5231L410.362 97.2845ZM412.423 96.5611L412.622 96.6949L412.625 96.6911L412.423 96.5611ZM412.335 93.605L412.12 93.7123L412.12 93.7135L412.335 93.605ZM409.959 91.1545L410.09 90.953C410.075 90.9432 410.058 90.9351 410.041 90.9289L409.959 91.1545ZM407.594 90.2949L407.676 90.0694C407.659 90.0634 407.642 90.0592 407.625 90.057L407.594 90.2949ZM406.554 90.2824L406.574 90.5216L406.581 90.5208L406.554 90.2824ZM405.651 90.5599L405.765 90.7708L405.773 90.7662L405.651 90.5599ZM405.013 91.2366L405.225 91.3485L405.226 91.3465L405.013 91.2366ZM405.091 93.8968L405.31 93.7981L405.309 93.7972L405.091 93.8968ZM405.935 95.1329L406.109 94.9677L406.108 94.9666L405.935 95.1329ZM407.172 96.1254L407.046 96.3298L407.048 96.3309L407.172 96.1254ZM423.248 73.36L423.486 73.3277C423.47 73.2087 423.368 73.12 423.248 73.12C423.128 73.12 423.026 73.2087 423.01 73.3277L423.248 73.36ZM425.171 87.52L425.027 87.7121C425.105 87.7701 425.209 87.7759 425.293 87.7269C425.376 87.6778 425.422 87.5835 425.409 87.4877L425.171 87.52ZM421.325 87.52L421.087 87.4877C421.074 87.5835 421.12 87.6778 421.203 87.7268C421.286 87.7759 421.391 87.7701 421.469 87.7121L421.325 87.52ZM423.248 118.72L423.01 118.752C423.026 118.871 423.128 118.96 423.248 118.96C423.368 118.96 423.47 118.871 423.486 118.752L423.248 118.72ZM421.325 104.32L421.469 104.128C421.391 104.07 421.287 104.064 421.203 104.113C421.12 104.162 421.074 104.256 421.087 104.352L421.325 104.32ZM423.248 105.76L423.248 106L423.248 106L423.248 105.76ZM425.171 104.32L425.409 104.352C425.422 104.256 425.376 104.162 425.293 104.113C425.209 104.064 425.105 104.07 425.027 104.128L425.171 104.32ZM398.487 73.6H429.018V73.12H398.487V73.6ZM398.487 118.96H429.018V118.48H398.487V118.96ZM412.083 92.1616L399.068 87.4322L398.904 87.8833L411.919 92.6128L412.083 92.1616ZM399.226 87.6578V85.7154H398.746V87.6578H399.226ZM398.904 85.9409L413.98 91.4194L414.144 90.9682L399.068 85.4898L398.904 85.9409ZM413.822 91.1938V92.9691H414.302V91.1938H413.822ZM414.127 92.7381L412.066 92.1562L411.936 92.6182L413.997 93.2001L414.127 92.7381ZM408.952 98.6263L408.746 98.5514L408.582 99.0025L408.788 99.0774L408.952 98.6263ZM408.746 98.5514C407.952 98.2628 407.233 97.8996 406.59 97.4627L406.321 97.8597C406.999 98.3207 407.753 98.7014 408.582 99.0025L408.746 98.5514ZM406.591 97.4633C405.94 97.0159 405.383 96.519 404.921 95.9733L404.555 96.2837C405.047 96.8648 405.636 97.3897 406.32 97.859L406.591 97.4633ZM404.922 95.9744C404.459 95.4217 404.106 94.8402 403.861 94.2298L403.416 94.4086C403.681 95.0698 404.061 95.6944 404.554 96.2826L404.922 95.9744ZM403.861 94.229C403.61 93.6116 403.486 92.982 403.486 92.3386H403.006C403.006 93.0458 403.143 93.7366 403.416 94.4094L403.861 94.229ZM403.486 92.3386C403.486 91.6524 403.6 91.1182 403.811 90.7207L403.387 90.4956C403.127 90.9851 403.006 91.6045 403.006 92.3386H403.486ZM403.813 90.7165C404.019 90.3099 404.317 90.0192 404.712 89.8355L404.509 89.4004C404.013 89.6312 403.637 90.0007 403.385 90.4998L403.813 90.7165ZM404.717 89.8331C405.113 89.6373 405.603 89.5384 406.196 89.5481L406.204 89.0681C405.554 89.0576 404.985 89.1652 404.504 89.4028L404.717 89.8331ZM406.196 89.5481C406.794 89.5577 407.479 89.6599 408.251 89.8583L408.37 89.3934C407.572 89.1883 406.849 89.0786 406.204 89.0681L406.196 89.5481ZM408.228 89.8514L409.131 90.1796L409.295 89.7284L408.392 89.4003L408.228 89.8514ZM409.113 90.1719C409.879 90.5257 410.566 90.9223 411.173 91.3609L411.454 90.9717C410.819 90.513 410.105 90.1014 409.314 89.7361L409.113 90.1719ZM411.175 91.362C411.781 91.7925 412.295 92.2667 412.718 92.7839L413.089 92.4797C412.636 91.9263 412.09 91.4235 411.453 90.9707L411.175 91.362ZM412.719 92.785C413.141 93.2936 413.464 93.8457 413.69 94.4418L414.139 94.2717C413.894 93.6244 413.543 93.0265 413.089 92.4785L412.719 92.785ZM413.69 94.44C413.908 95.0304 414.018 95.6702 414.018 96.3613H414.498C414.498 95.6182 414.38 94.9216 414.14 94.2735L413.69 94.44ZM414.018 96.3613C414.018 96.9906 413.891 97.5027 413.649 97.9097L414.062 98.1545C414.358 97.6566 414.498 97.0548 414.498 96.3613H414.018ZM413.65 97.9083C413.408 98.3114 413.069 98.6121 412.628 98.8134L412.827 99.2501C413.354 99.0096 413.768 98.644 414.061 98.1559L413.65 97.9083ZM412.63 98.8122C412.186 99.0085 411.654 99.1008 411.027 99.0798L411.011 99.5595C411.693 99.5824 412.3 99.4828 412.824 99.2513L412.63 98.8122ZM411.031 99.0799C410.399 99.05 409.707 98.9005 408.952 98.6263L408.788 99.0774C409.577 99.3644 410.318 99.5267 411.008 99.5594L411.031 99.0799ZM408.582 97.0601L408.788 97.135L408.952 96.6839L408.746 96.609L408.582 97.0601ZM408.788 97.135C409.332 97.3326 409.847 97.4627 410.332 97.5227L410.391 97.0463C409.948 96.9915 409.468 96.8716 408.952 96.6839L408.788 97.135ZM410.336 97.5231C410.826 97.5764 411.27 97.5437 411.663 97.4155L411.514 96.9592C411.2 97.0615 410.827 97.0936 410.388 97.0459L410.336 97.5231ZM411.663 97.4155C412.066 97.284 412.389 97.0426 412.622 96.6948L412.224 96.4273C412.051 96.684 411.818 96.8602 411.514 96.9592L411.663 97.4155ZM412.625 96.6911C412.855 96.3342 412.957 95.8699 412.957 95.3209H412.477C412.477 95.8163 412.384 96.1788 412.221 96.4311L412.625 96.6911ZM412.957 95.3209C412.957 94.6479 412.823 94.0379 412.549 93.4965L412.12 93.7135C412.356 94.179 412.477 94.713 412.477 95.3209H412.957ZM412.549 93.4976C412.282 92.9623 411.928 92.4835 411.49 92.0621L411.157 92.408C411.557 92.7922 411.877 93.2268 412.12 93.7123L412.549 93.4976ZM411.49 92.0621C411.06 91.6486 410.593 91.2789 410.09 90.953L409.829 91.356C410.307 91.6653 410.75 92.0159 411.157 92.408L411.49 92.0621ZM410.041 90.9289L407.676 90.0694L407.512 90.5205L409.877 91.3801L410.041 90.9289ZM407.625 90.057C407.247 90.0074 406.881 90.0027 406.526 90.044L406.581 90.5208C406.894 90.4844 407.221 90.488 407.563 90.5329L407.625 90.057ZM406.533 90.0433C406.161 90.0755 405.824 90.1775 405.528 90.3536L405.773 90.7662C406 90.6313 406.266 90.5482 406.574 90.5215L406.533 90.0433ZM405.536 90.3492C405.22 90.5211 404.975 90.7845 404.799 91.1267L405.226 91.3465C405.364 91.0788 405.544 90.8911 405.765 90.7707L405.536 90.3492ZM404.8 91.1247C404.619 91.4692 404.537 91.9045 404.537 92.4146H405.017C405.017 91.95 405.092 91.6 405.225 91.3485L404.8 91.1247ZM404.537 92.4146C404.537 92.9764 404.648 93.5046 404.873 93.9964L405.309 93.7972C405.115 93.371 405.017 92.9111 405.017 92.4146H404.537ZM404.872 93.9955C405.087 94.4714 405.384 94.9061 405.762 95.2992L406.108 94.9666C405.766 94.6109 405.501 94.2215 405.31 93.7981L404.872 93.9955ZM405.761 95.2982C406.13 95.6865 406.559 96.0302 407.046 96.3298L407.298 95.9209C406.843 95.6414 406.447 95.3235 406.109 94.9677L405.761 95.2982ZM407.048 96.3309C407.526 96.6194 408.038 96.8624 408.582 97.0601L408.746 96.609C408.23 96.4215 407.747 96.1917 407.296 95.9198L407.048 96.3309ZM423.01 73.3923L424.933 87.5523L425.409 87.4877L423.486 73.3277L423.01 73.3923ZM425.315 87.3279L423.392 85.8878L423.104 86.2721L425.027 87.7121L425.315 87.3279ZM423.104 85.8878L421.181 87.3278L421.469 87.7121L423.392 86.2721L423.104 85.8878ZM421.563 87.5523L423.486 73.3923L423.01 73.3277L421.087 87.4877L421.563 87.5523ZM423.248 73.84H423.488V73.36H423.248V73.84ZM423.248 74.08H423.488V73.6H423.248V74.08ZM423.248 74.32H423.488V73.84H423.248V74.32ZM423.248 74.56H423.488V74.08H423.248V74.56ZM423.248 74.8H423.488V74.32H423.248V74.8ZM423.248 75.04H423.488V74.56H423.248V75.04ZM423.248 75.28H423.488V74.8H423.248V75.28ZM423.248 86.32L425.171 86.32L425.171 85.84L423.248 85.84L423.248 86.32ZM423.729 86.56H425.171V86.08H423.729V86.56ZM423.969 86.8H425.171V86.32H423.969V86.8ZM424.21 87.04H425.171V86.56H424.21V87.04ZM424.69 87.28H425.171V86.8H424.69V87.28ZM424.931 87.52H425.171V87.04H424.931V87.52ZM421.565 86.3199L423.248 86.32L423.248 85.84L421.565 85.8399L421.565 86.3199ZM421.565 86.5599H423.008V86.0799H421.565V86.5599ZM421.565 86.7999H422.767V86.3199H421.565V86.7999ZM421.565 87.0399H422.287V86.5599H421.565V87.0399ZM421.565 87.2799H422.046V86.7999H421.565V87.2799ZM421.565 87.5199H421.806V87.0399H421.565V87.5199ZM423.486 118.688L421.563 104.288L421.087 104.352L423.01 118.752L423.486 118.688ZM421.181 104.512L423.104 105.952L423.392 105.568L421.469 104.128L421.181 104.512ZM423.392 105.952L425.315 104.512L425.027 104.128L423.104 105.568L423.392 105.952ZM424.933 104.288L423.01 118.688L423.486 118.752L425.409 104.352L424.933 104.288ZM421.565 104.8H421.806V104.32H421.565V104.8ZM421.565 105.04H422.046V104.56H421.565V105.04ZM421.565 105.28H422.287V104.8H421.565V105.28ZM421.565 105.52H422.767V105.04H421.565V105.52ZM421.565 105.76H423.008V105.28H421.565V105.76ZM421.565 106L423.248 106L423.248 105.52L421.565 105.52L421.565 106ZM424.931 104.8H425.171V104.32H424.931V104.8ZM424.69 105.04H425.171V104.56H424.69V105.04ZM424.21 105.28H425.171V104.8H424.21V105.28ZM423.969 105.52H425.171V105.04H423.969V105.52ZM423.729 105.76H425.171V105.28H423.729V105.76ZM423.248 106L425.171 106L425.171 105.52L423.248 105.52L423.248 106ZM423.248 117.28H423.488V116.8H423.248V117.28ZM423.248 117.52H423.488V117.04H423.248V117.52ZM423.248 117.76H423.488V117.28H423.248V117.76ZM423.248 118H423.488V117.52H423.248V118ZM423.248 118.24H423.488V117.76H423.248V118.24ZM423.248 118.48H423.488V118H423.248V118.48ZM423.248 118.72H423.488V118.24H423.248V118.72ZM423.008 73.36L423.008 118.72L423.488 118.72L423.488 73.36L423.008 73.36ZM423.008 75.5199L423.729 75.52L423.729 75.04L423.008 75.0399L423.008 75.5199ZM423.008 75.7599L423.729 75.76L423.729 75.28L423.008 75.2799L423.008 75.7599ZM423.008 75.9999L423.729 76L423.729 75.52L423.008 75.5199L423.008 75.9999ZM423.008 76.2399L423.729 76.24L423.729 75.76L423.008 75.7599L423.008 76.2399ZM423.008 76.4799L423.729 76.48L423.729 76L423.008 75.9999L423.008 76.4799ZM423.008 76.7199L423.729 76.72L423.729 76.24L423.008 76.2399L423.008 76.7199ZM423.008 76.9599L423.729 76.96L423.729 76.48L423.008 76.4799L423.008 76.9599ZM422.767 77.1999L423.969 77.2L423.969 76.72L422.767 76.7199L422.767 77.1999ZM422.767 77.4399L423.969 77.44L423.969 76.96L422.767 76.9599L422.767 77.4399ZM422.767 77.6799L423.969 77.68L423.969 77.2L422.767 77.1999L422.767 77.6799ZM422.767 77.9199L423.969 77.92L423.969 77.44L422.767 77.4399L422.767 77.9199ZM422.767 78.1599L423.969 78.16L423.969 77.68L422.767 77.6799L422.767 78.1599ZM422.767 78.3999L423.969 78.4L423.969 77.92L422.767 77.9199L422.767 78.3999ZM422.767 78.6399L423.969 78.64L423.969 78.16L422.767 78.1599L422.767 78.6399ZM422.767 78.8799L423.969 78.88L423.969 78.4L422.767 78.3999L422.767 78.8799ZM422.527 79.1199L424.21 79.12L424.21 78.64L422.527 78.6399L422.527 79.1199ZM422.527 79.3599L424.21 79.36L424.21 78.88L422.527 78.8799L422.527 79.3599ZM422.527 79.5999L424.21 79.6L424.21 79.12L422.527 79.1199L422.527 79.5999ZM422.527 79.8399L424.21 79.84L424.21 79.36L422.527 79.3599L422.527 79.8399ZM422.527 80.0799L424.21 80.08L424.21 79.6L422.527 79.5999L422.527 80.0799ZM422.527 80.3199L424.21 80.32L424.21 79.84L422.527 79.8399L422.527 80.3199ZM422.527 80.5599L424.21 80.56L424.21 80.08L422.527 80.0799L422.527 80.5599ZM422.287 80.7999L424.45 80.8L424.45 80.32L422.287 80.3199L422.287 80.7999ZM422.287 81.0399L424.45 81.04L424.45 80.56L422.287 80.5599L422.287 81.0399ZM422.287 81.2799L424.45 81.28L424.45 80.8L422.287 80.7999L422.287 81.2799ZM422.287 81.5199L424.45 81.52L424.45 81.04L422.287 81.0399L422.287 81.5199ZM422.287 81.7599L424.45 81.76L424.45 81.28L422.287 81.2799L422.287 81.7599ZM422.287 81.9999L424.45 82L424.45 81.52L422.287 81.5199L422.287 81.9999ZM422.287 82.2399L424.45 82.24L424.45 81.76L422.287 81.7599L422.287 82.2399ZM422.046 82.4799L424.69 82.48L424.69 82L422.046 81.9999L422.046 82.4799ZM422.046 82.7199L424.69 82.72L424.69 82.24L422.046 82.2399L422.046 82.7199ZM422.046 82.9599L424.69 82.96L424.69 82.48L422.046 82.4799L422.046 82.9599ZM422.046 83.1999L424.69 83.2L424.69 82.72L422.046 82.7199L422.046 83.1999ZM422.046 83.4399L424.69 83.44L424.69 82.96L422.046 82.9599L422.046 83.4399ZM422.046 83.6799L424.69 83.68L424.69 83.2L422.046 83.1999L422.046 83.6799ZM422.046 83.9199L424.69 83.92L424.69 83.44L422.046 83.4399L422.046 83.9199ZM422.046 84.1599L424.69 84.16L424.69 83.68L422.046 83.6799L422.046 84.1599ZM421.806 84.3999L424.931 84.4L424.931 83.92L421.806 83.9199L421.806 84.3999ZM421.806 84.6399L424.931 84.64L424.931 84.16L421.806 84.1599L421.806 84.6399ZM421.806 84.8799L424.931 84.88L424.931 84.4L421.806 84.3999L421.806 84.8799ZM421.806 85.1199L424.931 85.12L424.931 84.64L421.806 84.6399L421.806 85.1199ZM421.806 85.3599L424.931 85.36L424.931 84.88L421.806 84.8799L421.806 85.3599ZM421.806 85.5999L424.931 85.6L424.931 85.12L421.806 85.1199L421.806 85.5999ZM421.806 85.8399L424.931 85.84L424.931 85.36L421.806 85.3599L421.806 85.8399ZM421.565 86.0799L425.171 86.08L425.171 85.6L421.565 85.5999L421.565 86.0799ZM421.565 106.24H425.171V105.76H421.565V106.24ZM421.806 106.48H424.931V106H421.806V106.48ZM421.806 106.72H424.931V106.24H421.806V106.72ZM421.806 106.96H424.931V106.48H421.806V106.96ZM421.806 107.2L424.931 107.2L424.931 106.72L421.806 106.72L421.806 107.2ZM421.806 107.44H424.931V106.96H421.806V107.44ZM421.806 107.68L424.931 107.68L424.931 107.2L421.806 107.2L421.806 107.68ZM421.806 107.92H424.931V107.44H421.806V107.92ZM421.806 108.16L424.69 108.16L424.69 107.68L421.806 107.68L421.806 108.16ZM422.046 108.4H424.69V107.92H422.046V108.4ZM422.046 108.64L424.69 108.64L424.69 108.16L422.046 108.16L422.046 108.64ZM422.046 108.88H424.69V108.4H422.046V108.88ZM422.046 109.12L424.69 109.12L424.69 108.64L422.046 108.64L422.046 109.12ZM422.046 109.36H424.69V108.88H422.046V109.36ZM422.046 109.6L424.69 109.6L424.69 109.12L422.046 109.12L422.046 109.6ZM422.046 109.84L424.69 109.84L424.69 109.36L422.046 109.36L422.046 109.84ZM422.287 110.08L424.45 110.08L424.45 109.6L422.287 109.6L422.287 110.08ZM422.287 110.32L424.45 110.32L424.45 109.84L422.287 109.84L422.287 110.32ZM422.287 110.56L424.45 110.56L424.45 110.08L422.287 110.08L422.287 110.56ZM422.287 110.8L424.45 110.8L424.45 110.32L422.287 110.32L422.287 110.8ZM422.287 111.04L424.45 111.04L424.45 110.56L422.287 110.56L422.287 111.04ZM422.287 111.28L424.45 111.28L424.45 110.8L422.287 110.8L422.287 111.28ZM422.287 111.52L424.45 111.52L424.45 111.04L422.287 111.04L422.287 111.52ZM422.287 111.76L424.21 111.76L424.21 111.28L422.287 111.28L422.287 111.76ZM422.527 112L424.21 112L424.21 111.52L422.527 111.52L422.527 112ZM422.527 112.24L424.21 112.24L424.21 111.76L422.527 111.76L422.527 112.24ZM422.527 112.48L424.21 112.48L424.21 112L422.527 112L422.527 112.48ZM422.527 112.72L424.21 112.72L424.21 112.24L422.527 112.24L422.527 112.72ZM422.527 112.96L424.21 112.96L424.21 112.48L422.527 112.48L422.527 112.96ZM422.527 113.2L424.21 113.2L424.21 112.72L422.527 112.72L422.527 113.2ZM422.527 113.44L424.21 113.44L424.21 112.96L422.527 112.96L422.527 113.44ZM422.767 113.68L423.969 113.68L423.969 113.2L422.767 113.2L422.767 113.68ZM422.767 113.92L423.969 113.92L423.969 113.44L422.767 113.44L422.767 113.92ZM422.767 114.16L423.969 114.16L423.969 113.68L422.767 113.68L422.767 114.16ZM422.767 114.4L423.969 114.4L423.969 113.92L422.767 113.92L422.767 114.4ZM422.767 114.64L423.969 114.64L423.969 114.16L422.767 114.16L422.767 114.64ZM422.767 114.88L423.969 114.88L423.969 114.4L422.767 114.4L422.767 114.88ZM422.767 115.12L423.969 115.12L423.969 114.64L422.767 114.64L422.767 115.12ZM422.767 115.36L423.729 115.36L423.729 114.88L422.767 114.88L422.767 115.36ZM423.008 115.6L423.729 115.6L423.729 115.12L423.008 115.12L423.008 115.6ZM423.008 115.84L423.729 115.84L423.729 115.36L423.008 115.36L423.008 115.84ZM423.008 116.08L423.729 116.08L423.729 115.6L423.008 115.6L423.008 116.08ZM423.008 116.32L423.729 116.32L423.729 115.84L423.008 115.84L423.008 116.32ZM423.008 116.56L423.729 116.56L423.729 116.08L423.008 116.08L423.008 116.56ZM423.008 116.8L423.729 116.8L423.729 116.32L423.008 116.32L423.008 116.8ZM423.008 117.04L423.729 117.04L423.729 116.56L423.008 116.56L423.008 117.04Z" fill="white"/>
    </g>
    <!--    8 dH-->
    <g class="group">
    </g>
    <!--    9 d1-->
    <g class="group">
    </g>
    <!--    10 d2-->
    <g class="group">
    </g>
    <!--    11 L-->
    <g class="group">
    </g>
    <!--    12 L1-->
    <g class="group">
        <path d="M13.7618 193.942L15.3028 194.502V202.105L13.7618 201.545V193.942ZM1.01221 196.515L15.3028 201.708V203.723L1.01221 198.53V196.515Z" fill="white"/>
        <path d="M11.1889 185.876L20.6871 189.328V190.605L12.6876 187.698L13.5699 190.593L12.4865 190.2L11.1889 186.076V185.876Z" fill="white"/>
        <path d="M75.6281 96.1599C75.7607 96.1599 75.8681 96.0525 75.8681 95.9199C75.8681 95.7874 75.7607 95.6799 75.6281 95.6799V96.1599ZM50.1454 300.16C50.2779 300.16 50.3854 300.052 50.3854 299.92C50.3854 299.787 50.2779 299.68 50.1454 299.68V300.16ZM22.2589 299.68C22.1263 299.68 22.0189 299.787 22.0189 299.92C22.0189 300.052 22.1263 300.16 22.2589 300.16V299.68ZM22.2589 95.6799C22.1263 95.6799 22.0189 95.7874 22.0189 95.9199C22.0189 96.0525 22.1263 96.1599 22.2589 96.1599V95.6799ZM13.7618 193.942L13.8438 193.717C13.7702 193.69 13.6882 193.701 13.6241 193.746C13.56 193.79 13.5218 193.864 13.5218 193.942H13.7618ZM15.3028 194.502H15.5428C15.5428 194.401 15.4796 194.311 15.3848 194.277L15.3028 194.502ZM15.3028 202.105L15.2208 202.33C15.2944 202.357 15.3764 202.346 15.4405 202.301C15.5046 202.256 15.5428 202.183 15.5428 202.105H15.3028ZM13.7618 201.545H13.5218C13.5218 201.646 13.585 201.736 13.6799 201.77L13.7618 201.545ZM1.01221 196.515L1.09418 196.289C1.0206 196.262 0.938612 196.273 0.874499 196.318C0.810385 196.363 0.772207 196.436 0.772207 196.515H1.01221ZM15.3028 201.708H15.5428C15.5428 201.607 15.4796 201.517 15.3848 201.482L15.3028 201.708ZM15.3028 203.723L15.2208 203.949C15.2944 203.975 15.3764 203.965 15.4405 203.92C15.5046 203.875 15.5428 203.801 15.5428 203.723H15.3028ZM1.01221 198.53H0.772207C0.772207 198.631 0.835367 198.721 0.930237 198.756L1.01221 198.53ZM11.1889 185.876L11.2708 185.651C11.1973 185.624 11.1153 185.635 11.0512 185.68C10.9871 185.725 10.9489 185.798 10.9489 185.876H11.1889ZM20.6871 189.328H20.9271C20.9271 189.227 20.8639 189.137 20.7691 189.102L20.6871 189.328ZM20.6871 190.605L20.6051 190.83C20.6787 190.857 20.7607 190.846 20.8248 190.801C20.8889 190.757 20.9271 190.683 20.9271 190.605H20.6871ZM12.6876 187.698L12.7695 187.472C12.6841 187.441 12.5884 187.461 12.5224 187.524C12.4564 187.586 12.4315 187.681 12.458 187.768L12.6876 187.698ZM13.5699 190.593L13.488 190.819C13.5734 190.85 13.6691 190.83 13.7351 190.767C13.8011 190.705 13.826 190.61 13.7995 190.523L13.5699 190.593ZM12.4865 190.2L12.2575 190.272C12.2799 190.343 12.3343 190.4 12.4045 190.425L12.4865 190.2ZM11.1889 186.076H10.9489C10.9489 186.101 10.9526 186.125 10.9599 186.148L11.1889 186.076ZM28.0287 299.92L27.7909 299.952C27.8072 300.072 27.9099 300.161 28.0308 300.16C28.1516 300.159 28.2528 300.068 28.2671 299.948L28.0287 299.92ZM26.1055 285.76L26.2494 285.568C26.172 285.51 26.0673 285.504 25.9839 285.553C25.9005 285.602 25.8547 285.696 25.8677 285.792L26.1055 285.76ZM28.0287 287.2L28.0287 287.44L28.0288 287.44L28.0287 287.2ZM29.7117 285.76L29.95 285.788C29.9617 285.69 29.912 285.595 29.8248 285.548C29.7376 285.502 29.6308 285.513 29.5557 285.578L29.7117 285.76ZM28.0289 95.9199L28.2672 95.8916C28.253 95.7716 28.1517 95.6809 28.0309 95.6799C27.9101 95.6789 27.8073 95.7679 27.7911 95.8876L28.0289 95.9199ZM29.7117 110.08L29.5557 110.262C29.6308 110.327 29.7376 110.338 29.8248 110.292C29.912 110.245 29.9617 110.15 29.95 110.052L29.7117 110.08ZM28.0289 108.64L28.0289 108.4L28.0289 108.4L28.0289 108.64ZM26.1055 110.08L25.8677 110.048C25.8547 110.143 25.9005 110.238 25.9839 110.287C26.0673 110.336 26.172 110.33 26.2494 110.272L26.1055 110.08ZM50.1454 299.68H22.2589V300.16H50.1454V299.68ZM13.6799 194.168L15.2208 194.728L15.3848 194.277L13.8438 193.717L13.6799 194.168ZM15.0628 194.502V202.105H15.5428V194.502H15.0628ZM15.3848 201.879L13.8438 201.319L13.6799 201.77L15.2208 202.33L15.3848 201.879ZM14.0018 201.545V193.942H13.5218V201.545H14.0018ZM0.930237 196.74L15.2208 201.933L15.3848 201.482L1.09418 196.289L0.930237 196.74ZM15.0628 201.708V203.723H15.5428V201.708H15.0628ZM15.3848 203.498L1.09418 198.305L0.930237 198.756L15.2208 203.949L15.3848 203.498ZM1.25221 198.53V196.515H0.772207V198.53H1.25221ZM11.1069 186.102L20.6051 189.553L20.7691 189.102L11.2708 185.651L11.1069 186.102ZM20.4471 189.328V190.605H20.9271V189.328H20.4471ZM20.7691 190.379L12.7695 187.472L12.6056 187.923L20.6051 190.83L20.7691 190.379ZM12.458 187.768L13.3403 190.663L13.7995 190.523L12.9172 187.628L12.458 187.768ZM13.6519 190.368L12.5684 189.974L12.4045 190.425L13.488 190.819L13.6519 190.368ZM12.7154 190.128L11.4178 186.004L10.9599 186.148L12.2575 190.272L12.7154 190.128ZM11.4289 186.076V185.876H10.9489V186.076H11.4289ZM28.2666 299.888L26.3434 285.728L25.8677 285.792L27.7909 299.952L28.2666 299.888ZM25.9617 285.952L27.8849 287.392L28.1726 287.008L26.2494 285.568L25.9617 285.952ZM28.1848 287.382L29.8677 285.942L29.5557 285.578L27.8727 287.018L28.1848 287.382ZM29.4734 285.732L27.7904 299.892L28.2671 299.948L29.95 285.788L29.4734 285.732ZM26.3458 286.24H26.5862V285.76H26.3458V286.24ZM26.3458 286.48H26.8266V286H26.3458V286.48ZM26.3458 286.72H27.067V286.24H26.3458V286.72ZM26.3458 286.96H27.5478V286.48H26.3458V286.96ZM26.3458 287.2H27.7882V286.72H26.3458V287.2ZM26.3458 287.44L28.0287 287.44L28.0288 286.96L26.3458 286.96L26.3458 287.44ZM29.4713 286.24H29.7117V285.76H29.4713V286.24ZM29.2309 286.48H29.7117V286H29.2309V286.48ZM28.9905 286.72H29.7117V286.24H28.9905V286.72ZM28.7501 286.96H29.7117V286.48H28.7501V286.96ZM28.5097 287.2H29.7117V286.72H28.5097V287.2ZM28.0288 287.44L29.7117 287.44L29.7117 286.96L28.0287 286.96L28.0288 287.44ZM28.0289 298.48H28.2693V298H28.0289V298.48ZM28.0289 298.72H28.2693V298.24H28.0289V298.72ZM28.0289 298.96H28.2693V298.48H28.0289V298.96ZM28.0289 299.2H28.2693V298.72H28.0289V299.2ZM28.0289 299.44H28.2693V298.96H28.0289V299.44ZM28.0289 299.68H28.2693V299.2H28.0289V299.68ZM28.0289 299.92H28.2693V299.44H28.0289V299.92ZM27.7906 95.9482L29.4734 110.108L29.95 110.052L28.2672 95.8916L27.7906 95.9482ZM29.8677 109.898L28.1849 108.458L27.8728 108.822L29.5557 110.262L29.8677 109.898ZM27.885 108.448L25.9617 109.888L26.2494 110.272L28.1727 108.832L27.885 108.448ZM26.3434 110.112L28.2667 95.9522L27.7911 95.8876L25.8677 110.048L26.3434 110.112ZM28.0289 96.3999H28.2693V95.9199H28.0289V96.3999ZM28.0289 96.6399H28.2693V96.1599H28.0289V96.6399ZM28.0289 96.8799H28.2693V96.3999H28.0289V96.8799ZM28.0289 97.1199H28.2693V96.6399H28.0289V97.1199ZM28.0289 97.3599H28.2693V96.8799H28.0289V97.3599ZM28.0289 97.5999H28.2693V97.1199H28.0289V97.5999ZM28.0289 97.8399H28.2693V97.3599H28.0289V97.8399ZM28.0289 108.88L29.7117 108.88L29.7117 108.4L28.0289 108.4L28.0289 108.88ZM28.5097 109.12H29.7117V108.64H28.5097V109.12ZM28.7501 109.36H29.7117V108.88H28.7501V109.36ZM28.9905 109.6H29.7117V109.12H28.9905V109.6ZM29.2309 109.84H29.7117V109.36H29.2309V109.84ZM29.4713 110.08H29.7117V109.6H29.4713V110.08ZM26.3458 108.88L28.0289 108.88L28.0289 108.4L26.3458 108.4L26.3458 108.88ZM26.3458 109.12H27.7882V108.64H26.3458V109.12ZM26.3458 109.36H27.5478V108.88H26.3458V109.36ZM26.3458 109.6H27.067V109.12H26.3458V109.6ZM26.3458 109.84H26.8266V109.36H26.3458V109.84ZM26.3458 110.08H26.5862V109.6H26.3458V110.08ZM28.2687 299.92L28.2689 95.9199L27.7889 95.9199L27.7887 299.92L28.2687 299.92ZM22.2589 96.1599H75.6281V95.6799H22.2589V96.1599ZM26.3458 287.68H29.7117V287.2H26.3458V287.68ZM26.5862 287.92H29.7117V287.44H26.5862V287.92ZM26.5862 288.16H29.4713V287.68H26.5862V288.16ZM26.5862 288.4H29.4713V287.92H26.5862V288.4ZM26.5862 288.64H29.4713V288.16H26.5862V288.64ZM26.5862 288.88H29.4713V288.4H26.5862V288.88ZM26.5862 289.12H29.4713V288.64H26.5862V289.12ZM26.5862 289.36H29.4713V288.88H26.5862V289.36ZM26.8266 289.6H29.4713V289.12H26.8266V289.6ZM26.8266 289.84L29.4713 289.84L29.4713 289.36L26.8266 289.36L26.8266 289.84ZM26.8266 290.08H29.2309V289.6H26.8266V290.08ZM26.8266 290.32H29.2309V289.84H26.8266V290.32ZM26.8266 290.56L29.2309 290.56L29.2309 290.08L26.8266 290.08L26.8266 290.56ZM26.8266 290.8H29.2309V290.32H26.8266V290.8ZM26.8266 291.04H29.2309V290.56H26.8266V291.04ZM26.8266 291.28H29.2309V290.8H26.8266V291.28ZM27.067 291.52H29.2309V291.04H27.067V291.52ZM27.067 291.76H29.2309V291.28H27.067V291.76ZM27.067 292H29.2309V291.52H27.067V292ZM27.067 292.24H28.9905V291.76H27.067V292.24ZM27.067 292.48L28.9905 292.48L28.9905 292L27.067 292L27.067 292.48ZM27.067 292.72H28.9905V292.24H27.067V292.72ZM27.067 292.96H28.9905V292.48H27.067V292.96ZM27.3074 293.2L28.9905 293.2L28.9905 292.72L27.3074 292.72L27.3074 293.2ZM27.3074 293.44H28.9905V292.96H27.3074V293.44ZM27.3074 293.68H28.9905V293.2H27.3074V293.68ZM27.3074 293.92H28.9905V293.44H27.3074V293.92ZM27.3074 294.16H28.7501V293.68H27.3074V294.16ZM27.3074 294.4L28.7501 294.4L28.7501 293.92L27.3074 293.92L27.3074 294.4ZM27.3074 294.64H28.7501V294.16H27.3074V294.64ZM27.5478 294.88H28.7501V294.4H27.5478V294.88ZM27.5478 295.12L28.7501 295.12L28.7501 294.64L27.5478 294.64L27.5478 295.12ZM27.5478 295.36H28.7501V294.88H27.5478V295.36ZM27.5478 295.6H28.7501V295.12H27.5478V295.6ZM27.5478 295.84L28.7501 295.84L28.7501 295.36L27.5478 295.36L27.5478 295.84ZM27.5478 296.08H28.7501V295.6H27.5478V296.08ZM27.5478 296.32H28.5097V295.84H27.5478V296.32ZM27.5478 296.56L28.5097 296.56L28.5097 296.08L27.5478 296.08L27.5478 296.56ZM27.7882 296.8H28.5097V296.32H27.7882V296.8ZM27.7882 297.04L28.5097 297.04L28.5097 296.56L27.7882 296.56L27.7882 297.04ZM27.7882 297.28H28.5097V296.8H27.7882V297.28ZM27.7882 297.52H28.5097V297.04H27.7882V297.52ZM27.7882 297.76L28.5097 297.76L28.5097 297.28L27.7882 297.28L27.7882 297.76ZM27.7882 298H28.5097V297.52H27.7882V298ZM27.7882 298.24H28.2693V297.76H27.7882V298.24ZM27.7882 98.08L28.2693 98.0799L28.2693 97.5999L27.7882 97.6L27.7882 98.08ZM27.7882 98.32L28.5097 98.3199L28.5097 97.8399L27.7882 97.84L27.7882 98.32ZM27.7882 98.56L28.5097 98.5599L28.5097 98.0799L27.7882 98.08L27.7882 98.56ZM27.7882 98.8L28.5097 98.7999L28.5097 98.3199L27.7882 98.32L27.7882 98.8ZM27.7882 99.04L28.5097 99.0399L28.5097 98.5599L27.7882 98.56L27.7882 99.04ZM27.7882 99.28L28.5097 99.2799L28.5097 98.7999L27.7882 98.8L27.7882 99.28ZM27.7882 99.52L28.5097 99.5199L28.5097 99.0399L27.7882 99.04L27.7882 99.52ZM27.5478 99.76L28.5097 99.7599L28.5097 99.2799L27.5478 99.28L27.5478 99.76ZM27.5478 100L28.5097 99.9999L28.5097 99.5199L27.5478 99.52L27.5478 100ZM27.5478 100.24L28.7501 100.24L28.7501 99.7599L27.5478 99.76L27.5478 100.24ZM27.5478 100.48L28.7501 100.48L28.7501 99.9999L27.5478 100L27.5478 100.48ZM27.5478 100.72L28.7501 100.72L28.7501 100.24L27.5478 100.24L27.5478 100.72ZM27.5478 100.96L28.7501 100.96L28.7501 100.48L27.5478 100.48L27.5478 100.96ZM27.5478 101.2L28.7501 101.2L28.7501 100.72L27.5478 100.72L27.5478 101.2ZM27.5478 101.44L28.7501 101.44L28.7501 100.96L27.5478 100.96L27.5478 101.44ZM27.3074 101.68L28.7501 101.68L28.7501 101.2L27.3074 101.2L27.3074 101.68ZM27.3074 101.92L28.7501 101.92L28.7501 101.44L27.3074 101.44L27.3074 101.92ZM27.3074 102.16L28.7501 102.16L28.7501 101.68L27.3074 101.68L27.3074 102.16ZM27.3074 102.4L28.9905 102.4L28.9905 101.92L27.3074 101.92L27.3074 102.4ZM27.3074 102.64L28.9905 102.64L28.9905 102.16L27.3074 102.16L27.3074 102.64ZM27.3074 102.88L28.9905 102.88L28.9905 102.4L27.3074 102.4L27.3074 102.88ZM27.3074 103.12L28.9905 103.12L28.9905 102.64L27.3074 102.64L27.3074 103.12ZM27.067 103.36L28.9905 103.36L28.9905 102.88L27.067 102.88L27.067 103.36ZM27.067 103.6L28.9905 103.6L28.9905 103.12L27.067 103.12L27.067 103.6ZM27.067 103.84L28.9905 103.84L28.9905 103.36L27.067 103.36L27.067 103.84ZM27.067 104.08L28.9905 104.08L28.9905 103.6L27.067 103.6L27.067 104.08ZM27.067 104.32L29.2309 104.32L29.2309 103.84L27.067 103.84L27.067 104.32ZM27.067 104.56L29.2309 104.56L29.2309 104.08L27.067 104.08L27.067 104.56ZM27.067 104.8L29.2309 104.8L29.2309 104.32L27.067 104.32L27.067 104.8ZM26.8266 105.04L29.2309 105.04L29.2309 104.56L26.8266 104.56L26.8266 105.04ZM26.8266 105.28L29.2309 105.28L29.2309 104.8L26.8266 104.8L26.8266 105.28ZM26.8266 105.52L29.2309 105.52L29.2309 105.04L26.8266 105.04L26.8266 105.52ZM26.8266 105.76L29.2309 105.76L29.2309 105.28L26.8266 105.28L26.8266 105.76ZM26.8266 106L29.2309 106L29.2309 105.52L26.8266 105.52L26.8266 106ZM26.8266 106.24L29.2309 106.24L29.2309 105.76L26.8266 105.76L26.8266 106.24ZM26.8266 106.48L29.4713 106.48L29.4713 106L26.8266 106L26.8266 106.48ZM26.8266 106.72L29.4713 106.72L29.4713 106.24L26.8266 106.24L26.8266 106.72ZM26.5862 106.96L29.4713 106.96L29.4713 106.48L26.5862 106.48L26.5862 106.96ZM26.5862 107.2L29.4713 107.2L29.4713 106.72L26.5862 106.72L26.5862 107.2ZM26.5862 107.44L29.4713 107.44L29.4713 106.96L26.5862 106.96L26.5862 107.44ZM26.5862 107.68L29.4713 107.68L29.4713 107.2L26.5862 107.2L26.5862 107.68ZM26.5862 107.92L29.4713 107.92L29.4713 107.44L26.5862 107.44L26.5862 107.92ZM26.5862 108.16L29.4713 108.16L29.4713 107.68L26.5862 107.68L26.5862 108.16ZM26.5862 108.4L29.7117 108.4L29.7117 107.92L26.5862 107.92L26.5862 108.4ZM26.3458 108.64L29.7117 108.64L29.7117 108.16L26.3458 108.16L26.3458 108.64Z" fill="white"/>
    </g>
    <!--    13 L2-->
    <g class="group">
        <path d="M238.941 13.8808L238.38 15.4211H230.777L231.339 13.8808H238.941ZM236.382 1.13611L231.174 15.4211H229.159L234.367 1.13611H236.382Z" fill="white"/>
        <path d="M247.19 19.8024L246.83 20.7882H240.252L240.566 19.9257L245.115 16.482C245.674 16.0583 246.118 15.6994 246.446 15.4054C246.78 15.1071 247.034 14.8412 247.206 14.6077C247.385 14.3699 247.519 14.1278 247.609 13.8813C247.723 13.5701 247.756 13.289 247.709 13.0383C247.669 12.7832 247.545 12.58 247.338 12.4286C247.131 12.2773 246.841 12.2016 246.468 12.2016C246.022 12.2016 245.619 12.2838 245.26 12.4481C244.907 12.6081 244.604 12.8329 244.351 13.1226C244.099 13.4122 243.904 13.7452 243.766 14.1213H242.489C242.683 13.5895 242.985 13.1031 243.394 12.6621C243.803 12.2211 244.299 11.8709 244.882 11.6115C245.466 11.3477 246.114 11.2159 246.828 11.2159C247.463 11.2159 247.967 11.3218 248.341 11.5337C248.716 11.7412 248.954 12.0352 249.055 12.4157C249.161 12.7918 249.123 13.2328 248.938 13.7387C248.837 14.0154 248.684 14.2964 248.479 14.5818C248.28 14.8628 248.042 15.1438 247.764 15.4249C247.491 15.7059 247.19 15.9826 246.861 16.255C246.536 16.5274 246.197 16.7954 245.843 17.0592L242.151 19.8024H247.19Z" fill="white"/>
        <path d="M80.9172 89.4399C80.9172 89.5724 81.0247 89.6799 81.1572 89.6799C81.2898 89.6799 81.3972 89.5724 81.3972 89.4399H80.9172ZM390.314 39.76C390.314 39.8925 390.421 40 390.554 40C390.686 40 390.794 39.8925 390.794 39.76H390.314ZM390.794 22.24C390.794 22.1074 390.686 22 390.554 22C390.421 22 390.314 22.1074 390.314 22.24H390.794ZM81.3972 22.24C81.3972 22.1074 81.2898 22 81.1572 22C81.0247 22 80.9172 22.1074 80.9172 22.24H81.3972ZM238.941 13.8808L239.167 13.963C239.194 13.8894 239.183 13.8073 239.138 13.7432C239.093 13.679 239.02 13.6408 238.941 13.6408V13.8808ZM238.38 15.4211V15.6611C238.48 15.6611 238.571 15.5981 238.605 15.5033L238.38 15.4211ZM230.777 15.4211L230.552 15.3389C230.525 15.4125 230.536 15.4945 230.581 15.5587C230.625 15.6229 230.699 15.6611 230.777 15.6611V15.4211ZM231.339 13.8808V13.6408C231.238 13.6408 231.148 13.7038 231.113 13.7986L231.339 13.8808ZM236.382 1.13611L236.608 1.21832C236.635 1.14473 236.624 1.06268 236.579 0.998505C236.534 0.934331 236.461 0.896108 236.382 0.896108V1.13611ZM231.174 15.4211V15.6611C231.275 15.6611 231.365 15.5981 231.399 15.5033L231.174 15.4211ZM229.159 15.4211L228.933 15.3389C228.906 15.4125 228.917 15.4945 228.962 15.5587C229.007 15.6229 229.08 15.6611 229.159 15.6611V15.4211ZM234.367 1.13611V0.896108C234.266 0.896108 234.176 0.959152 234.141 1.0539L234.367 1.13611ZM247.19 19.8024L247.415 19.8847C247.442 19.8111 247.431 19.729 247.386 19.6648C247.341 19.6007 247.268 19.5624 247.19 19.5624V19.8024ZM246.83 20.7882V21.0282C246.931 21.0282 247.021 20.9652 247.056 20.8704L246.83 20.7882ZM240.252 20.7882L240.026 20.706C239.999 20.7796 240.01 20.8616 240.055 20.9258C240.1 20.99 240.173 21.0282 240.252 21.0282V20.7882ZM240.566 19.9257L240.421 19.7343C240.385 19.7622 240.357 19.8001 240.341 19.8434L240.566 19.9257ZM245.115 16.482L245.259 16.6733L245.26 16.6733L245.115 16.482ZM246.446 15.4054L246.286 15.2263L246.286 15.2267L246.446 15.4054ZM247.206 14.6077L247.014 14.4635L247.013 14.465L247.206 14.6077ZM247.609 13.8813L247.835 13.9636L247.835 13.9636L247.609 13.8813ZM247.709 13.0383L247.472 13.0759L247.473 13.0821L247.709 13.0383ZM245.26 12.4481L245.359 12.6667L245.36 12.6663L245.26 12.4481ZM243.766 14.1213V14.3613C243.867 14.3613 243.957 14.2983 243.992 14.2035L243.766 14.1213ZM242.489 14.1213L242.264 14.0391C242.237 14.1127 242.248 14.1947 242.293 14.2589C242.338 14.3231 242.411 14.3613 242.489 14.3613V14.1213ZM244.882 11.6115L244.979 11.8307L244.98 11.8302L244.882 11.6115ZM248.341 11.5337L248.222 11.7425L248.225 11.7437L248.341 11.5337ZM249.055 12.4157L248.823 12.477L248.824 12.4812L249.055 12.4157ZM248.938 13.7387L248.713 13.6565L248.938 13.7387ZM248.479 14.5818L248.284 14.4416L248.283 14.443L248.479 14.5818ZM247.764 15.4249L247.593 15.2563L247.592 15.2577L247.764 15.4249ZM246.861 16.255L246.708 16.07L246.707 16.0711L246.861 16.255ZM245.843 17.0592L245.986 17.2518L245.986 17.2516L245.843 17.0592ZM242.151 19.8024L242.007 19.6098C241.924 19.6715 241.89 19.7796 241.923 19.8778C241.955 19.9761 242.047 20.0424 242.151 20.0424V19.8024ZM390.553 28L390.585 28.2378C390.704 28.2217 390.793 28.1201 390.793 28C390.793 27.8799 390.704 27.7783 390.585 27.7622L390.553 28ZM376.37 29.92L376.178 29.7759C376.12 29.8532 376.114 29.958 376.163 30.0414C376.212 30.1249 376.306 30.1708 376.402 30.1578L376.37 29.92ZM376.37 26.08L376.402 25.8421C376.306 25.8291 376.212 25.875 376.163 25.9585C376.114 26.042 376.12 26.1467 376.178 26.2241L376.37 26.08ZM81.1572 28L81.125 27.7621C81.006 27.7782 80.9172 27.8799 80.9172 28C80.9172 28.1201 81.006 28.2217 81.125 28.2378L81.1572 28ZM95.3409 26.08L95.5443 26.2073C95.5937 26.1284 95.593 26.0281 95.5426 25.9499C95.4921 25.8716 95.401 25.8296 95.3087 25.8421L95.3409 26.08ZM95.3407 29.92L95.3085 30.1578C95.4007 30.1703 95.4919 30.1283 95.5423 30.0501C95.5928 29.9719 95.5935 29.8716 95.5441 29.7927L95.3407 29.92ZM390.794 39.76V22.24H390.314V39.76H390.794ZM238.716 13.7986L238.154 15.3389L238.605 15.5033L239.167 13.963L238.716 13.7986ZM238.38 15.1811H230.777V15.6611H238.38V15.1811ZM231.003 15.5033L231.564 13.963L231.113 13.7986L230.552 15.3389L231.003 15.5033ZM231.339 14.1208H238.941V13.6408H231.339V14.1208ZM236.157 1.0539L230.949 15.3389L231.399 15.5033L236.608 1.21832L236.157 1.0539ZM231.174 15.1811H229.159V15.6611H231.174V15.1811ZM229.384 15.5033L234.592 1.21832L234.141 1.0539L228.933 15.3389L229.384 15.5033ZM234.367 1.37611H236.382V0.896108H234.367V1.37611ZM246.964 19.7202L246.605 20.706L247.056 20.8704L247.415 19.8847L246.964 19.7202ZM246.83 20.5482H240.252V21.0282H246.83V20.5482ZM240.477 20.8704L240.792 20.0079L240.341 19.8434L240.026 20.706L240.477 20.8704ZM240.711 20.117L245.259 16.6733L244.97 16.2906L240.421 19.7343L240.711 20.117ZM245.26 16.6733C245.822 16.2476 246.271 15.8843 246.606 15.5841L246.286 15.2267C245.965 15.5145 245.527 15.8689 244.97 16.2906L245.26 16.6733ZM246.606 15.5845C246.946 15.2804 247.213 15.0022 247.399 14.7504L247.013 14.465C246.854 14.6802 246.614 14.9338 246.286 15.2263L246.606 15.5845ZM247.398 14.7519C247.589 14.4977 247.736 14.235 247.835 13.9636L247.384 13.7991C247.303 14.0206 247.181 14.2421 247.014 14.4635L247.398 14.7519ZM247.835 13.9636C247.958 13.6237 248.002 13.2982 247.945 12.9944L247.473 13.0821C247.51 13.2799 247.487 13.5164 247.384 13.7991L247.835 13.9636ZM247.946 13.0007C247.896 12.6834 247.738 12.4239 247.48 12.2348L247.196 12.6224C247.352 12.7361 247.442 12.8829 247.472 13.0758L247.946 13.0007ZM247.48 12.2348C247.217 12.0426 246.87 11.9616 246.468 11.9616V12.4416C246.812 12.4416 247.045 12.512 247.196 12.6224L247.48 12.2348ZM246.468 11.9616C245.992 11.9616 245.554 12.0495 245.16 12.2299L245.36 12.6663C245.684 12.5181 246.052 12.4416 246.468 12.4416V11.9616ZM245.161 12.2295C244.777 12.4035 244.446 12.649 244.171 12.9647L244.532 13.2804C244.762 13.0168 245.037 12.8126 245.359 12.6667L245.161 12.2295ZM244.171 12.9647C243.898 13.2776 243.688 13.6364 243.541 14.0391L243.992 14.2035C244.119 13.8539 244.3 13.5469 244.532 13.2804L244.171 12.9647ZM243.766 13.8813H242.489V14.3613H243.766V13.8813ZM242.715 14.2035C242.897 13.7036 243.181 13.2444 243.57 12.8254L243.218 12.4988C242.789 12.9618 242.469 13.4754 242.264 14.0391L242.715 14.2035ZM243.57 12.8254C243.956 12.4095 244.425 12.0777 244.979 11.8307L244.784 11.3922C244.174 11.664 243.651 12.0327 243.218 12.4988L243.57 12.8254ZM244.98 11.8302C245.53 11.582 246.144 11.4559 246.828 11.4559V10.9759C246.084 10.9759 245.401 11.1135 244.783 11.3928L244.98 11.8302ZM246.828 11.4559C247.44 11.4559 247.898 11.5585 248.222 11.7425L248.459 11.3249C248.036 11.0851 247.486 10.9759 246.828 10.9759V11.4559ZM248.225 11.7437C248.548 11.9227 248.74 12.1659 248.823 12.477L249.287 12.3543C249.168 11.9045 248.884 11.5597 248.457 11.3236L248.225 11.7437ZM248.824 12.4812C248.912 12.7935 248.886 13.1806 248.713 13.6565L249.164 13.8209C249.359 13.2851 249.41 12.7902 249.286 12.3501L248.824 12.4812ZM248.713 13.6565C248.621 13.909 248.479 14.1707 248.284 14.4416L248.674 14.7219C248.889 14.4221 249.054 14.1217 249.164 13.8209L248.713 13.6565ZM248.283 14.443C248.092 14.712 247.863 14.9832 247.593 15.2563L247.935 15.5934C248.22 15.3045 248.467 15.0135 248.675 14.7205L248.283 14.443ZM247.592 15.2577C247.326 15.5319 247.031 15.8027 246.708 16.07L247.014 16.4399C247.349 16.1625 247.657 15.8799 247.936 15.592L247.592 15.2577ZM246.707 16.0711C246.386 16.3404 246.05 16.6056 245.7 16.8667L245.986 17.2516C246.344 16.9852 246.687 16.7143 247.015 16.4389L246.707 16.0711ZM245.7 16.8665L242.007 19.6098L242.294 19.9951L245.986 17.2518L245.7 16.8665ZM242.151 20.0424H247.19V19.5624H242.151V20.0424ZM390.521 27.7622L376.337 29.6822L376.402 30.1578L390.585 28.2378L390.521 27.7622ZM376.562 30.0642L378.004 28.1442L377.62 27.8559L376.178 29.7759L376.562 30.0642ZM378.004 27.8559L376.562 25.9358L376.178 26.2241L377.62 28.1442L378.004 27.8559ZM376.337 26.3178L390.521 28.2378L390.585 27.7622L376.402 25.8421L376.337 26.3178ZM377.812 28.24H390.553V27.76H377.812V28.24ZM377.812 28.48H388.871V28H377.812V28.48ZM377.572 28.72H387.188V28.24H377.572V28.72ZM377.332 28.96H385.265V28.48H377.332V28.96ZM377.091 29.2H383.582V28.72H377.091V29.2ZM377.091 29.44H381.899V28.96H377.091V29.44ZM376.851 29.68H379.976V29.2H376.851V29.68ZM376.61 29.92H378.293V29.44H376.61V29.92ZM376.61 26.56H378.293V26.08H376.61V26.56ZM376.851 26.8H379.976V26.32H376.851V26.8ZM377.091 27.04H381.899V26.56H377.091V27.04ZM377.091 27.28H383.582V26.8H377.091V27.28ZM377.332 27.5199H385.265V27.0399H377.332V27.5199ZM377.572 27.7599H387.188V27.2799H377.572V27.7599ZM377.812 27.9999H388.871V27.5199H377.812V27.9999ZM81.1894 28.2378L95.3731 26.3178L95.3087 25.8421L81.125 27.7621L81.1894 28.2378ZM95.1375 25.9526L93.9353 27.8726L94.3421 28.1273L95.5443 26.2073L95.1375 25.9526ZM93.9352 28.1273L95.1373 30.0474L95.5441 29.7927L94.3421 27.8726L93.9352 28.1273ZM95.3729 29.6822L81.1894 27.7621L81.125 28.2378L95.3085 30.1578L95.3729 29.6822ZM93.6582 26.56H95.341V26.08H93.6582V26.56ZM91.9754 26.8H95.1006V26.32H91.9754V26.8ZM90.0522 27.04H95.1006V26.56H90.0522V27.04ZM88.3694 27.28H94.8602V26.8H88.3694V27.28ZM86.6866 27.5199H94.6198V27.0399H86.6866V27.5199ZM84.7634 27.7599H94.6198V27.2799H84.7634V27.7599ZM83.0806 27.9999H94.3794V27.5199H83.0806V27.9999ZM81.1572 28.24H94.1387V27.76H81.1572V28.24ZM83.0804 28.48H94.3793V28H83.0804V28.48ZM84.7632 28.72H94.6197V28.24H84.7632V28.72ZM86.6865 28.96H94.6197V28.48H86.6865V28.96ZM88.3693 29.2H94.8601V28.72H88.3693V29.2ZM90.0521 29.44H95.1005V28.96H90.0521V29.44ZM91.9753 29.68H95.1005V29.2H91.9753V29.68ZM93.6581 29.92H95.3409V29.44H93.6581V29.92ZM390.553 27.76L81.1572 27.76L81.1572 28.24L390.553 28.24L390.553 27.76ZM80.9172 22.24V89.4399H81.3972V22.24H80.9172Z" fill="white"/>
    </g>
    <!--    14 S-->
    <g class="group">
        <path d="M133.599 308.56C133.694 308.298 133.72 308.056 133.675 307.834C133.641 307.605 133.469 307.399 133.159 307.216C132.86 307.026 132.362 306.862 131.667 306.725C131.086 306.601 130.572 306.454 130.126 306.283C129.687 306.113 129.334 305.907 129.067 305.665C128.807 305.423 128.643 305.139 128.574 304.812C128.505 304.485 128.551 304.102 128.711 303.664C128.863 303.245 129.105 302.85 129.436 302.477C129.774 302.104 130.176 301.774 130.643 301.486C131.117 301.198 131.641 300.972 132.216 300.809C132.791 300.645 133.395 300.564 134.029 300.564C134.934 300.564 135.652 300.714 136.183 301.015C136.713 301.316 137.057 301.718 137.215 302.222C137.375 302.719 137.344 303.271 137.122 303.88H135.19C135.298 303.585 135.307 303.301 135.219 303.026C135.141 302.745 134.958 302.513 134.669 302.33C134.388 302.146 133.993 302.055 133.485 302.055C132.949 302.055 132.485 302.133 132.094 302.29C131.712 302.441 131.401 302.634 131.162 302.869C130.93 303.105 130.766 303.353 130.671 303.615C130.599 303.811 130.57 303.988 130.582 304.145C130.604 304.295 130.685 304.436 130.825 304.567C130.968 304.691 131.19 304.809 131.49 304.92C131.791 305.031 132.185 305.142 132.674 305.253C133.528 305.45 134.205 305.685 134.703 305.96C135.202 306.234 135.525 306.571 135.672 306.97C135.819 307.369 135.788 307.853 135.581 308.422C135.411 308.887 135.152 309.312 134.802 309.698C134.46 310.084 134.042 310.417 133.55 310.698C133.067 310.973 132.529 311.189 131.935 311.346C131.351 311.496 130.729 311.572 130.067 311.572C129.072 311.572 128.29 311.405 127.723 311.071C127.155 310.738 126.79 310.306 126.628 309.776C126.466 309.246 126.493 308.687 126.707 308.099H128.65C128.496 308.596 128.505 308.991 128.676 309.286C128.85 309.573 129.116 309.78 129.475 309.904C129.835 310.022 130.214 310.08 130.611 310.08C131.14 310.08 131.606 310.015 132.009 309.884C132.419 309.753 132.759 309.573 133.031 309.345C133.302 309.116 133.491 308.854 133.599 308.56Z" fill="white"/>
        <path d="M82.8398 318.64L82.8715 318.402C82.7757 318.389 82.6815 318.435 82.6327 318.519C82.5839 318.602 82.5899 318.707 82.648 318.784L82.8398 318.64ZM82.8398 322.48L82.648 322.336C82.5899 322.413 82.5839 322.518 82.6327 322.601C82.6815 322.685 82.7757 322.731 82.8715 322.718L82.8398 322.48ZM97.5042 307.36C97.5042 307.227 97.3967 307.12 97.2642 307.12C97.1316 307.12 97.0242 307.227 97.0242 307.36H97.5042ZM97.0242 326.08C97.0242 326.212 97.1316 326.32 97.2642 326.32C97.3967 326.32 97.5042 326.212 97.5042 326.08H97.0242ZM104.235 307.36C104.235 307.227 104.128 307.12 103.995 307.12C103.863 307.12 103.755 307.227 103.755 307.36H104.235ZM103.755 326.08C103.755 326.212 103.863 326.32 103.995 326.32C104.128 326.32 104.235 326.212 104.235 326.08H103.755ZM142.46 320.8C142.592 320.8 142.7 320.692 142.7 320.56C142.7 320.427 142.592 320.32 142.46 320.32V320.8ZM133.599 308.56L133.824 308.642L133.824 308.642L133.599 308.56ZM133.675 307.834L133.438 307.87L133.44 307.88L133.675 307.834ZM133.159 307.216L133.031 307.418L133.037 307.422L133.159 307.216ZM131.667 306.725L131.617 306.96L131.621 306.96L131.667 306.725ZM130.126 306.283L130.04 306.507L130.041 306.508L130.126 306.283ZM129.067 305.665L128.903 305.841L128.906 305.843L129.067 305.665ZM128.711 303.664L128.936 303.746L128.936 303.746L128.711 303.664ZM129.436 302.477L129.258 302.316L129.256 302.317L129.436 302.477ZM130.643 301.486L130.519 301.281L130.517 301.282L130.643 301.486ZM137.215 302.222L136.986 302.293L136.987 302.295L137.215 302.222ZM137.122 303.88V304.12C137.223 304.12 137.313 304.057 137.348 303.962L137.122 303.88ZM135.19 303.88L134.965 303.798C134.938 303.871 134.949 303.953 134.994 304.017C135.038 304.082 135.112 304.12 135.19 304.12V303.88ZM135.219 303.026L134.988 303.091L134.991 303.099L135.219 303.026ZM134.669 302.33L134.538 302.531L134.541 302.532L134.669 302.33ZM132.094 302.29L132.182 302.514L132.183 302.513L132.094 302.29ZM131.162 302.869L130.994 302.698L130.991 302.701L131.162 302.869ZM130.671 303.615L130.897 303.697L130.671 303.615ZM130.582 304.145L130.343 304.164C130.343 304.169 130.344 304.174 130.345 304.179L130.582 304.145ZM130.825 304.567L130.662 304.742L130.668 304.748L130.825 304.567ZM132.674 305.253L132.728 305.019L132.727 305.019L132.674 305.253ZM135.581 308.422L135.806 308.505L135.581 308.422ZM134.802 309.698L134.625 309.537L134.623 309.538L134.802 309.698ZM133.55 310.698L133.669 310.907L133.669 310.907L133.55 310.698ZM131.935 311.346L131.995 311.578L131.997 311.578L131.935 311.346ZM126.707 308.099V307.859C126.607 307.859 126.517 307.922 126.482 308.016L126.707 308.099ZM128.65 308.099L128.879 308.169C128.902 308.097 128.888 308.017 128.843 307.956C128.798 307.895 128.726 307.859 128.65 307.859V308.099ZM128.676 309.286L128.469 309.406L128.471 309.41L128.676 309.286ZM129.475 309.904L129.396 310.131L129.4 310.132L129.475 309.904ZM132.009 309.884L131.936 309.656L131.935 309.656L132.009 309.884ZM77.311 320.32C77.1785 320.32 77.071 320.427 77.071 320.56C77.071 320.692 77.1785 320.8 77.311 320.8L77.311 320.32ZM118.179 322.48L118.147 322.718C118.242 322.731 118.337 322.685 118.386 322.601C118.435 322.518 118.429 322.413 118.371 322.336L118.179 322.48ZM118.179 318.64L118.371 318.784C118.429 318.707 118.435 318.602 118.386 318.518C118.337 318.435 118.243 318.389 118.147 318.402L118.179 318.64ZM123.948 320.8C124.081 320.8 124.188 320.692 124.188 320.56C124.188 320.427 124.081 320.32 123.948 320.32V320.8ZM82.648 318.784L84.0904 320.704L84.4741 320.416L83.0317 318.496L82.648 318.784ZM84.0904 320.416L82.648 322.336L83.0317 322.624L84.4741 320.704L84.0904 320.416ZM97.0242 307.36V326.08H97.5042V307.36H97.0242ZM103.755 307.36V326.08H104.235V307.36H103.755ZM133.824 308.642C133.931 308.348 133.965 308.061 133.911 307.787L133.44 307.88C133.474 308.051 133.457 308.248 133.373 308.477L133.824 308.642ZM133.913 307.797C133.862 307.466 133.618 307.208 133.282 307.009L133.037 307.422C133.319 307.589 133.419 307.744 133.438 307.87L133.913 307.797ZM133.288 307.013C132.949 306.798 132.415 306.628 131.714 306.49L131.621 306.96C132.31 307.097 132.77 307.253 133.031 307.418L133.288 307.013ZM131.718 306.49C131.146 306.368 130.644 306.224 130.212 306.059L130.041 306.508C130.501 306.683 131.027 306.833 131.617 306.96L131.718 306.49ZM130.213 306.06C129.793 305.897 129.468 305.705 129.228 305.488L128.906 305.843C129.2 306.11 129.581 306.33 130.04 306.507L130.213 306.06ZM129.231 305.49C129.005 305.279 128.867 305.038 128.809 304.762L128.339 304.861C128.419 305.24 128.61 305.568 128.904 305.841L129.231 305.49ZM128.809 304.762C128.752 304.493 128.786 304.158 128.936 303.746L128.485 303.582C128.316 304.046 128.258 304.476 128.339 304.861L128.809 304.762ZM128.936 303.746C129.077 303.359 129.302 302.989 129.616 302.636L129.256 302.317C128.908 302.71 128.649 303.132 128.485 303.582L128.936 303.746ZM129.614 302.638C129.935 302.283 130.32 301.967 130.769 301.69L130.517 301.282C130.033 301.58 129.612 301.925 129.258 302.316L129.614 302.638ZM130.768 301.691C131.222 301.415 131.726 301.198 132.282 301.04L132.151 300.578C131.557 300.747 131.012 300.981 130.519 301.281L130.768 301.691ZM132.282 301.04C132.834 300.883 133.416 300.804 134.029 300.804V300.324C133.374 300.324 132.748 300.408 132.151 300.578L132.282 301.04ZM134.029 300.804C134.911 300.804 135.583 300.951 136.064 301.224L136.301 300.806C135.721 300.477 134.957 300.324 134.029 300.324V300.804ZM136.064 301.224C136.551 301.5 136.849 301.857 136.986 302.293L137.444 302.15C137.266 301.579 136.876 301.132 136.301 300.806L136.064 301.224ZM136.987 302.295C137.126 302.73 137.105 303.227 136.897 303.798L137.348 303.962C137.583 303.316 137.623 302.707 137.443 302.148L136.987 302.295ZM137.122 303.64H135.19V304.12H137.122V303.64ZM135.416 303.962C135.54 303.622 135.554 303.283 135.448 302.953L134.991 303.099C135.061 303.319 135.055 303.549 134.965 303.798L135.416 303.962ZM135.451 302.962C135.354 302.614 135.127 302.336 134.798 302.127L134.541 302.532C134.788 302.689 134.928 302.876 134.988 303.091L135.451 302.962ZM134.8 302.128C134.465 301.91 134.017 301.815 133.485 301.815V302.295C133.969 302.295 134.311 302.383 134.538 302.531L134.8 302.128ZM133.485 301.815C132.926 301.815 132.431 301.897 132.004 302.068L132.183 302.513C132.54 302.37 132.972 302.295 133.485 302.295V301.815ZM132.006 302.067C131.6 302.227 131.26 302.436 130.994 302.698L131.331 303.04C131.542 302.832 131.823 302.655 132.182 302.514L132.006 302.067ZM130.991 302.701C130.74 302.956 130.555 303.233 130.446 303.533L130.897 303.697C130.978 303.473 131.121 303.253 131.333 303.038L130.991 302.701ZM130.446 303.533C130.366 303.751 130.327 303.963 130.343 304.164L130.822 304.126C130.813 304.012 130.833 303.871 130.897 303.697L130.446 303.533ZM130.345 304.179C130.376 304.396 130.492 304.584 130.662 304.742L130.989 304.391C130.878 304.288 130.832 304.194 130.82 304.11L130.345 304.179ZM130.668 304.748C130.842 304.9 131.095 305.03 131.407 305.145L131.573 304.695C131.284 304.588 131.094 304.482 130.983 304.386L130.668 304.748ZM131.407 305.145C131.721 305.261 132.127 305.375 132.621 305.487L132.727 305.019C132.244 304.909 131.86 304.801 131.573 304.695L131.407 305.145ZM132.62 305.487C133.463 305.681 134.116 305.91 134.588 306.17L134.819 305.75C134.294 305.46 133.593 305.218 132.728 305.019L132.62 305.487ZM134.588 306.17C135.053 306.426 135.325 306.724 135.446 307.053L135.897 306.887C135.724 306.418 135.351 306.043 134.819 305.75L134.588 306.17ZM135.446 307.053C135.567 307.38 135.551 307.802 135.355 308.34L135.806 308.505C136.025 307.904 136.07 307.358 135.897 306.887L135.446 307.053ZM135.355 308.34C135.197 308.774 134.954 309.172 134.625 309.537L134.98 309.859C135.35 309.451 135.626 309 135.806 308.505L135.355 308.34ZM134.623 309.538C134.299 309.903 133.903 310.221 133.431 310.49L133.669 310.907C134.182 310.614 134.62 310.264 134.982 309.857L134.623 309.538ZM133.431 310.49C132.968 310.753 132.449 310.962 131.874 311.114L131.997 311.578C132.608 311.416 133.166 311.193 133.669 310.907L133.431 310.49ZM131.875 311.114C131.313 311.259 130.71 311.332 130.067 311.332V311.812C130.747 311.812 131.39 311.734 131.995 311.578L131.875 311.114ZM130.067 311.332C129.094 311.332 128.361 311.168 127.844 310.864L127.601 311.278C128.22 311.642 129.049 311.812 130.067 311.812V311.332ZM127.844 310.864C127.318 310.555 126.999 310.168 126.858 309.706L126.399 309.846C126.582 310.444 126.992 310.92 127.601 311.278L127.844 310.864ZM126.858 309.706C126.713 309.233 126.734 308.727 126.933 308.181L126.482 308.016C126.252 308.647 126.22 309.26 126.399 309.846L126.858 309.706ZM126.707 308.339H128.65V307.859H126.707V308.339ZM128.421 308.028C128.258 308.555 128.25 309.029 128.469 309.406L128.884 309.165C128.761 308.953 128.735 308.636 128.879 308.169L128.421 308.028ZM128.471 309.41C128.677 309.752 128.992 309.99 129.396 310.131L129.553 309.677C129.24 309.569 129.023 309.395 128.882 309.162L128.471 309.41ZM129.4 310.132C129.786 310.258 130.19 310.32 130.611 310.32V309.84C130.238 309.84 129.885 309.785 129.549 309.676L129.4 310.132ZM130.611 310.32C131.159 310.32 131.651 310.253 132.083 310.112L131.935 309.656C131.561 309.777 131.121 309.84 130.611 309.84V310.32ZM132.082 310.113C132.515 309.974 132.885 309.781 133.185 309.528L132.876 309.161C132.633 309.366 132.322 309.532 131.936 309.656L132.082 310.113ZM133.185 309.528C133.484 309.276 133.701 308.981 133.824 308.642L133.373 308.477C133.282 308.727 133.12 308.955 132.876 309.161L133.185 309.528ZM97.2956 320.322L82.8715 318.402L82.8082 318.878L97.2322 320.798L97.2956 320.322ZM82.8715 322.718L97.2956 320.798L97.2322 320.322L82.8082 322.242L82.8715 322.718ZM97.2639 320.32L77.311 320.32L77.311 320.8L97.2639 320.8L97.2639 320.32ZM83.0806 319.12H84.7634V318.64H83.0806V319.12ZM83.321 319.36H86.4462V318.88H83.321V319.36ZM83.5614 319.6H88.3694V319.12H83.5614V319.6ZM83.5614 319.84H90.0522V319.36H83.5614V319.84ZM83.8018 320.08H91.9754V319.6H83.8018V320.08ZM84.0422 320.32H93.6582V319.84H84.0422V320.32ZM84.2826 320.56H95.5814V320.08H84.2826V320.56ZM84.2823 320.8L97.2639 320.8L97.2639 320.32L84.2823 320.32L84.2823 320.8ZM84.2826 321.04H95.5814V320.56H84.2826V321.04ZM84.0422 321.28H93.6582V320.8H84.0422V321.28ZM83.8018 321.52H91.9754V321.04H83.8018V321.52ZM83.5614 321.76H90.0522V321.28H83.5614V321.76ZM83.5614 322H88.3694V321.52H83.5614V322ZM83.321 322.24H86.4462V321.76H83.321V322.24ZM83.0806 322.48H84.7634V322H83.0806V322.48ZM103.963 320.798L118.147 322.718L118.211 322.242L104.027 320.322L103.963 320.798ZM118.371 322.336L116.929 320.416L116.545 320.704L117.987 322.624L118.371 322.336ZM116.929 320.704L118.371 318.784L117.987 318.496L116.545 320.416L116.929 320.704ZM118.147 318.402L103.963 320.322L104.027 320.798L118.211 318.878L118.147 318.402ZM103.995 320.8H123.948V320.32H103.995V320.8ZM103.995 320.8H116.737V320.32H103.995V320.8ZM105.918 321.04H116.977V320.56H105.918V321.04ZM107.601 321.28H117.217V320.8H107.601V321.28ZM109.524 321.52H117.458V321.04H109.524V321.52ZM111.207 321.76H117.458V321.28H111.207V321.76ZM112.89 322H117.698V321.52H112.89V322ZM114.813 322.24H117.938V321.76H114.813V322.24ZM116.496 322.48H118.179V322H116.496V322.48ZM116.496 319.12H118.179V318.64H116.496V319.12ZM114.813 319.36H117.939V318.88H114.813V319.36ZM112.89 319.6H117.698V319.12H112.89V319.6ZM111.207 319.84H117.458V319.36H111.207V319.84ZM109.524 320.08H117.458V319.6H109.524V320.08ZM107.601 320.32H117.217V319.84H107.601V320.32ZM105.918 320.56H116.977V320.08H105.918V320.56ZM97.2639 320.8L103.995 320.8L103.995 320.32L97.2639 320.32L97.2639 320.8ZM103.995 320.8H142.46V320.32H103.995V320.8Z" fill="white"/>
    </g>
    <!--    15 S1-->
    <g class="group">
    </g>
    <!--    16 S2-->
    <g class="group">
    </g>
    <!--    17 S3-->
    <g class="group">
    </g>
    <!--    18 S4-->
    <g class="group">
    </g>
    <!--    19 I-->
    <g class="group">
        <path d="M353.995 33.8198L348.5 48.8897H346.558L352.053 33.8198H353.995Z" fill="white"/>
        <path d="M390.314 65.92C390.314 66.0525 390.421 66.16 390.554 66.16C390.686 66.16 390.794 66.0525 390.794 65.92H390.314ZM390.794 52.24C390.794 52.1074 390.686 52 390.554 52C390.421 52 390.314 52.1074 390.314 52.24H390.794ZM307.615 65.92C307.615 66.0525 307.723 66.16 307.855 66.16C307.988 66.16 308.095 66.0525 308.095 65.92H307.615ZM308.095 52.24C308.095 52.1074 307.988 52 307.855 52C307.723 52 307.615 52.1074 307.615 52.24H308.095ZM353.995 33.8198L354.22 33.902C354.247 33.8284 354.236 33.7464 354.192 33.6822C354.147 33.618 354.073 33.5798 353.995 33.5798V33.8198ZM348.5 48.8897V49.1297C348.601 49.1297 348.691 49.0667 348.726 48.9719L348.5 48.8897ZM346.558 48.8897L346.332 48.8075C346.306 48.8811 346.316 48.9631 346.361 49.0273C346.406 49.0915 346.48 49.1297 346.558 49.1297V48.8897ZM352.053 33.8198V33.5798C351.952 33.5798 351.862 33.6429 351.827 33.7376L352.053 33.8198ZM390.553 58L390.585 58.2378C390.704 58.2217 390.793 58.1201 390.793 58C390.793 57.8799 390.704 57.7783 390.585 57.7622L390.553 58ZM376.37 59.92L376.178 59.7758C376.12 59.8532 376.114 59.9579 376.163 60.0414C376.212 60.1249 376.306 60.1708 376.402 60.1578L376.37 59.92ZM376.37 56.0799L376.402 55.8421C376.306 55.8291 376.212 55.875 376.163 55.9585C376.114 56.042 376.12 56.1467 376.178 56.2241L376.37 56.0799ZM307.855 57.9999L307.823 57.7621C307.704 57.7782 307.615 57.8798 307.615 57.9999C307.615 58.12 307.704 58.2217 307.823 58.2378L307.855 57.9999ZM322.039 56.0799L322.231 56.2241C322.289 56.1467 322.295 56.042 322.246 55.9585C322.197 55.875 322.103 55.8291 322.007 55.8421L322.039 56.0799ZM322.039 59.92L322.007 60.1578C322.103 60.1708 322.197 60.1249 322.246 60.0414C322.295 59.9579 322.289 59.8532 322.231 59.7758L322.039 59.92ZM390.794 65.92V52.24H390.314V65.92H390.794ZM308.095 65.92V52.24H307.615V65.92H308.095ZM353.769 33.7376L348.275 48.8075L348.726 48.9719L354.22 33.902L353.769 33.7376ZM348.5 48.6497H346.558V49.1297H348.5V48.6497ZM346.783 48.9719L352.278 33.902L351.827 33.7376L346.332 48.8075L346.783 48.9719ZM352.053 34.0598H353.995V33.5798H352.053V34.0598ZM390.521 57.7622L376.337 59.6822L376.402 60.1578L390.585 58.2378L390.521 57.7622ZM376.562 60.0641L378.004 58.1441L377.62 57.8558L376.178 59.7758L376.562 60.0641ZM378.004 57.8558L376.562 55.9358L376.178 56.2241L377.62 58.1441L378.004 57.8558ZM376.337 56.3178L390.521 58.2378L390.585 57.7622L376.402 55.8421L376.337 56.3178ZM377.812 58.24H390.553V57.76H377.812V58.24ZM377.812 58.48H388.871V58H377.812V58.48ZM377.572 58.72H387.188V58.24H377.572V58.72ZM377.332 58.96H385.265V58.48H377.332V58.96ZM377.091 59.2H383.582V58.72H377.091V59.2ZM377.091 59.44H381.899V58.96H377.091V59.44ZM376.851 59.68H379.976V59.2H376.851V59.68ZM376.61 59.92H378.293V59.44H376.61V59.92ZM376.61 56.5599H378.293V56.0799H376.61V56.5599ZM376.851 56.7999H379.976V56.3199H376.851V56.7999ZM377.091 57.0399H381.899V56.5599H377.091V57.0399ZM377.091 57.2799H383.582V56.7999H377.091V57.2799ZM377.332 57.5199H385.265V57.0399H377.332V57.5199ZM377.572 57.7599H387.188V57.2799H377.572V57.7599ZM377.812 57.9999H388.871V57.5199H377.812V57.9999ZM307.888 58.2378L322.071 56.3178L322.007 55.8421L307.823 57.7621L307.888 58.2378ZM321.847 55.9358L320.405 57.8558L320.789 58.1441L322.231 56.2241L321.847 55.9358ZM320.405 58.1441L321.847 60.0641L322.231 59.7758L320.789 57.8558L320.405 58.1441ZM322.071 59.6822L307.888 57.7621L307.823 58.2378L322.007 60.1578L322.071 59.6822ZM320.356 56.5599H322.039V56.0799H320.356V56.5599ZM318.674 56.7999H321.799V56.3199H318.674V56.7999ZM316.75 57.0399H321.558V56.5599H316.75V57.0399ZM315.068 57.2799H321.318V56.7999H315.068V57.2799ZM313.385 57.5199H321.318V57.0399H313.385V57.5199ZM311.462 57.7599H321.078V57.2799H311.462V57.7599ZM309.779 57.9999H320.837V57.5199H309.779V57.9999ZM307.855 58.2399H320.597V57.7599H307.855V58.2399ZM309.779 58.48H320.837V58H309.779V58.48ZM311.461 58.72H321.078V58.24H311.461V58.72ZM313.385 58.96H321.318V58.48H313.385V58.96ZM315.067 59.2H321.318V58.72H315.067V59.2ZM316.75 59.44H321.558V58.96H316.75V59.44ZM318.674 59.68H321.799V59.2H318.674V59.68ZM320.356 59.92H322.039V59.44H320.356V59.92ZM390.553 57.76L307.855 57.7599L307.855 58.2399L390.553 58.24L390.553 57.76Z" fill="white"/>
    </g>
    <!--    20 I1-->
    <g class="group">
    </g>
    <!--    21 I2-->
    <g class="group">
    </g>
    <!--    22 H-->
    <g class="group">
    </g>
    <!--    23 H1-->
    <g class="group">
    </g>
    <!--    24 H2-->
    <g class="group">
    </g>
    <!--    25 h-->
    <g class="group">
    </g>
    <!--    26 h1-->
    <g class="group">
    </g>
    <!--    27 h2-->
    <g class="group">
    </g>
    <!--    28 R-->
    <g class="group">
    </g>
    <!--    29 Deg-->
    <g class="group">
    </g>
    <!--    29 DN-->
    <g class="group">
    </g>

</svg>
