<svg width="433" height="348" viewBox="0 0 433 348" fill="none" xmlns="http://www.w3.org/2000/svg">
<rect width="433" height="348" fill="none"/>
<path d="M71.2539 340.04V198.28V340.04Z" stroke="white" stroke-width="2.24" stroke-miterlimit="10" stroke-linecap="round" stroke-linejoin="round"/>
<path d="M71.2539 198.28L71.8939 184.84L71.2539 198.28Z" stroke="white" stroke-width="2.24" stroke-miterlimit="10" stroke-linecap="round" stroke-linejoin="round"/>
<path d="M71.8945 184.84L73.8169 171.72L71.8945 184.84Z" stroke="white" stroke-width="2.24" stroke-miterlimit="10" stroke-linecap="round" stroke-linejoin="round"/>
<path d="M73.8174 171.72L77.0214 158.6L73.8174 171.72Z" stroke="white" stroke-width="2.24" stroke-miterlimit="10" stroke-linecap="round" stroke-linejoin="round"/>
<path d="M77.0215 158.6L81.1867 145.8L77.0215 158.6Z" stroke="white" stroke-width="2.24" stroke-miterlimit="10" stroke-linecap="round" stroke-linejoin="round"/>
<path d="M81.1865 145.8L86.9537 133.64L81.1865 145.8Z" stroke="white" stroke-width="2.24" stroke-miterlimit="10" stroke-linecap="round" stroke-linejoin="round"/>
<path d="M86.9531 133.64L93.6815 121.8L86.9531 133.64Z" stroke="white" stroke-width="2.24" stroke-miterlimit="10" stroke-linecap="round" stroke-linejoin="round"/>
<path d="M93.6816 121.8L101.371 110.92L93.6816 121.8Z" stroke="white" stroke-width="2.24" stroke-miterlimit="10" stroke-linecap="round" stroke-linejoin="round"/>
<path d="M101.371 110.92L110.342 100.68L101.371 110.92Z" stroke="white" stroke-width="2.24" stroke-miterlimit="10" stroke-linecap="round" stroke-linejoin="round"/>
<path d="M110.343 100.68L119.955 91.4001L110.343 100.68Z" stroke="white" stroke-width="2.24" stroke-miterlimit="10" stroke-linecap="round" stroke-linejoin="round"/>
<path d="M119.955 91.4001L130.528 83.0801L119.955 91.4001Z" stroke="white" stroke-width="2.24" stroke-miterlimit="10" stroke-linecap="round" stroke-linejoin="round"/>
<path d="M130.528 83.0802L141.742 75.7202L130.528 83.0802Z" stroke="white" stroke-width="2.24" stroke-miterlimit="10" stroke-linecap="round" stroke-linejoin="round"/>
<path d="M141.742 75.7201L153.917 69.6401L141.742 75.7201Z" stroke="white" stroke-width="2.24" stroke-miterlimit="10" stroke-linecap="round" stroke-linejoin="round"/>
<path d="M153.917 69.6403L166.413 64.5203L153.917 69.6403Z" stroke="white" stroke-width="2.24" stroke-miterlimit="10" stroke-linecap="round" stroke-linejoin="round"/>
<path d="M166.413 64.5202L179.229 60.6802L166.413 64.5202Z" stroke="white" stroke-width="2.24" stroke-miterlimit="10" stroke-linecap="round" stroke-linejoin="round"/>
<path d="M179.229 60.6801L192.365 58.1201L179.229 60.6801Z" stroke="white" stroke-width="2.24" stroke-miterlimit="10" stroke-linecap="round" stroke-linejoin="round"/>
<path d="M192.365 58.1201L205.822 56.8401L192.365 58.1201Z" stroke="white" stroke-width="2.24" stroke-miterlimit="10" stroke-linecap="round" stroke-linejoin="round"/>
<path d="M205.822 56.8401H213.191H205.822Z" stroke="white" stroke-width="2.24" stroke-miterlimit="10" stroke-linecap="round" stroke-linejoin="round"/>
<path d="M213.191 56.8401H354.809H213.191Z" stroke="white" stroke-width="2.24" stroke-miterlimit="10" stroke-linecap="round" stroke-linejoin="round"/>
<path d="M354.809 56.8401V113.48V56.8401Z" stroke="white" stroke-width="2.24" stroke-miterlimit="10" stroke-linecap="round" stroke-linejoin="round"/>
<path d="M71.2539 340.04H127.965H71.2539Z" stroke="white" stroke-width="2.24" stroke-miterlimit="10" stroke-linecap="round" stroke-linejoin="round"/>
<path d="M79.584 340.04V198.28V340.04Z" stroke="white" stroke-width="2.24" stroke-miterlimit="10" stroke-linecap="round" stroke-linejoin="round"/>
<path d="M79.584 198.28L80.224 185.48L79.584 198.28Z" stroke="white" stroke-width="2.24" stroke-miterlimit="10" stroke-linecap="round" stroke-linejoin="round"/>
<path d="M80.2246 185.48L82.147 172.36L80.2246 185.48Z" stroke="white" stroke-width="2.24" stroke-miterlimit="10" stroke-linecap="round" stroke-linejoin="round"/>
<path d="M82.1475 172.36L85.3515 159.88L82.1475 172.36Z" stroke="white" stroke-width="2.24" stroke-miterlimit="10" stroke-linecap="round" stroke-linejoin="round"/>
<path d="M85.3516 159.88L89.8372 147.4L85.3516 159.88Z" stroke="white" stroke-width="2.24" stroke-miterlimit="10" stroke-linecap="round" stroke-linejoin="round"/>
<path d="M89.8369 147.4L95.2837 135.56L89.8369 147.4Z" stroke="white" stroke-width="2.24" stroke-miterlimit="10" stroke-linecap="round" stroke-linejoin="round"/>
<path d="M95.2842 135.56L102.013 124.36L95.2842 135.56Z" stroke="white" stroke-width="2.24" stroke-miterlimit="10" stroke-linecap="round" stroke-linejoin="round"/>
<path d="M102.013 124.36L109.702 114.12L102.013 124.36Z" stroke="white" stroke-width="2.24" stroke-miterlimit="10" stroke-linecap="round" stroke-linejoin="round"/>
<path d="M109.702 114.12L118.673 104.2L109.702 114.12Z" stroke="white" stroke-width="2.24" stroke-miterlimit="10" stroke-linecap="round" stroke-linejoin="round"/>
<path d="M118.673 104.2L128.285 95.5601L118.673 104.2Z" stroke="white" stroke-width="2.24" stroke-miterlimit="10" stroke-linecap="round" stroke-linejoin="round"/>
<path d="M128.285 95.5601L138.858 87.8801L128.285 95.5601Z" stroke="white" stroke-width="2.24" stroke-miterlimit="10" stroke-linecap="round" stroke-linejoin="round"/>
<path d="M138.858 87.8802L150.072 81.1602L138.858 87.8802Z" stroke="white" stroke-width="2.24" stroke-miterlimit="10" stroke-linecap="round" stroke-linejoin="round"/>
<path d="M150.072 81.1601L161.927 75.4001L150.072 81.1601Z" stroke="white" stroke-width="2.24" stroke-miterlimit="10" stroke-linecap="round" stroke-linejoin="round"/>
<path d="M161.928 75.4002L174.103 70.9202L161.928 75.4002Z" stroke="white" stroke-width="2.24" stroke-miterlimit="10" stroke-linecap="round" stroke-linejoin="round"/>
<path d="M174.103 70.9202L186.598 67.7202L174.103 70.9202Z" stroke="white" stroke-width="2.24" stroke-miterlimit="10" stroke-linecap="round" stroke-linejoin="round"/>
<path d="M186.599 67.72L199.735 65.8L186.599 67.72Z" stroke="white" stroke-width="2.24" stroke-miterlimit="10" stroke-linecap="round" stroke-linejoin="round"/>
<path d="M199.734 65.8002L212.871 65.1602L199.734 65.8002Z" stroke="white" stroke-width="2.24" stroke-miterlimit="10" stroke-linecap="round" stroke-linejoin="round"/>
<path d="M212.871 65.1602H213.191H212.871Z" stroke="white" stroke-width="2.24" stroke-miterlimit="10" stroke-linecap="round" stroke-linejoin="round"/>
<path d="M213.191 65.1602H354.809H213.191Z" stroke="white" stroke-width="2.24" stroke-miterlimit="10" stroke-linecap="round" stroke-linejoin="round"/>
<path d="M127.965 340.04V184.2V340.04Z" stroke="white" stroke-width="2.24" stroke-miterlimit="10" stroke-linecap="round" stroke-linejoin="round"/>
<path d="M198.773 113.48H354.809H198.773Z" stroke="white" stroke-width="2.24" stroke-miterlimit="10" stroke-linecap="round" stroke-linejoin="round"/>
<path d="M198.773 113.48L189.481 114.12L198.773 113.48Z" stroke="white" stroke-width="2.24" stroke-miterlimit="10" stroke-linecap="round" stroke-linejoin="round"/>
<path d="M189.482 114.12L179.87 116.04L189.482 114.12Z" stroke="white" stroke-width="2.24" stroke-miterlimit="10" stroke-linecap="round" stroke-linejoin="round"/>
<path d="M179.87 116.04L170.898 119.24L179.87 116.04Z" stroke="white" stroke-width="2.24" stroke-miterlimit="10" stroke-linecap="round" stroke-linejoin="round"/>
<path d="M170.899 119.24L162.568 123.4L170.899 119.24Z" stroke="white" stroke-width="2.24" stroke-miterlimit="10" stroke-linecap="round" stroke-linejoin="round"/>
<path d="M162.569 123.4L154.559 128.84L162.569 123.4Z" stroke="white" stroke-width="2.24" stroke-miterlimit="10" stroke-linecap="round" stroke-linejoin="round"/>
<path d="M154.558 128.84L147.509 135.24L154.558 128.84Z" stroke="white" stroke-width="2.24" stroke-miterlimit="10" stroke-linecap="round" stroke-linejoin="round"/>
<path d="M147.509 135.24L141.422 142.6L147.509 135.24Z" stroke="white" stroke-width="2.24" stroke-miterlimit="10" stroke-linecap="round" stroke-linejoin="round"/>
<path d="M141.421 142.6L136.295 150.6L141.421 142.6Z" stroke="white" stroke-width="2.24" stroke-miterlimit="10" stroke-linecap="round" stroke-linejoin="round"/>
<path d="M136.295 150.6L132.45 159.24L136.295 150.6Z" stroke="white" stroke-width="2.24" stroke-miterlimit="10" stroke-linecap="round" stroke-linejoin="round"/>
<path d="M132.45 159.24L129.566 168.2L132.45 159.24Z" stroke="white" stroke-width="2.24" stroke-miterlimit="10" stroke-linecap="round" stroke-linejoin="round"/>
<path d="M129.567 168.2L128.285 177.8L129.567 168.2Z" stroke="white" stroke-width="2.24" stroke-miterlimit="10" stroke-linecap="round" stroke-linejoin="round"/>
<path d="M128.285 177.8L127.965 184.2L128.285 177.8Z" stroke="white" stroke-width="2.24" stroke-miterlimit="10" stroke-linecap="round" stroke-linejoin="round"/>
<path d="M198.773 104.84H354.809H198.773Z" stroke="white" stroke-width="2.24" stroke-miterlimit="10" stroke-linecap="round" stroke-linejoin="round"/>
<path d="M198.773 104.84L188.841 105.48L198.773 104.84Z" stroke="white" stroke-width="2.24" stroke-miterlimit="10" stroke-linecap="round" stroke-linejoin="round"/>
<path d="M188.841 105.48L178.908 107.4L188.841 105.48Z" stroke="white" stroke-width="2.24" stroke-miterlimit="10" stroke-linecap="round" stroke-linejoin="round"/>
<path d="M178.909 107.4L169.297 110.6L178.909 107.4Z" stroke="white" stroke-width="2.24" stroke-miterlimit="10" stroke-linecap="round" stroke-linejoin="round"/>
<path d="M169.296 110.6L160.325 114.76L169.296 110.6Z" stroke="white" stroke-width="2.24" stroke-miterlimit="10" stroke-linecap="round" stroke-linejoin="round"/>
<path d="M160.326 114.76L151.675 120.52L160.326 114.76Z" stroke="white" stroke-width="2.24" stroke-miterlimit="10" stroke-linecap="round" stroke-linejoin="round"/>
<path d="M151.674 120.52L143.984 126.92L151.674 120.52Z" stroke="white" stroke-width="2.24" stroke-miterlimit="10" stroke-linecap="round" stroke-linejoin="round"/>
<path d="M143.985 126.92L137.257 134.28L143.985 126.92Z" stroke="white" stroke-width="2.24" stroke-miterlimit="10" stroke-linecap="round" stroke-linejoin="round"/>
<path d="M137.257 134.28L131.169 142.6L137.257 134.28Z" stroke="white" stroke-width="2.24" stroke-miterlimit="10" stroke-linecap="round" stroke-linejoin="round"/>
<path d="M131.169 142.6L126.684 151.24L131.169 142.6Z" stroke="white" stroke-width="2.24" stroke-miterlimit="10" stroke-linecap="round" stroke-linejoin="round"/>
<path d="M126.683 151.24L122.838 160.84L126.683 151.24Z" stroke="white" stroke-width="2.24" stroke-miterlimit="10" stroke-linecap="round" stroke-linejoin="round"/>
<path d="M122.839 160.84L120.596 170.44L122.839 160.84Z" stroke="white" stroke-width="2.24" stroke-miterlimit="10" stroke-linecap="round" stroke-linejoin="round"/>
<path d="M120.596 170.44L119.314 180.68L120.596 170.44Z" stroke="white" stroke-width="2.24" stroke-miterlimit="10" stroke-linecap="round" stroke-linejoin="round"/>
<path d="M119.314 180.68V184.2V180.68Z" stroke="white" stroke-width="2.24" stroke-miterlimit="10" stroke-linecap="round" stroke-linejoin="round"/>
<path d="M119.314 340.04V184.2V340.04Z" stroke="white" stroke-width="2.24" stroke-miterlimit="10" stroke-linecap="round" stroke-linejoin="round"/>
<path d="M360.896 85.0002H320.205H360.896Z" stroke="white" stroke-width="0.64" stroke-miterlimit="10" stroke-linecap="round" stroke-linejoin="round"/>
<path d="M314.758 85.0002H308.991H314.758Z" stroke="white" stroke-width="0.64" stroke-miterlimit="10" stroke-linecap="round" stroke-linejoin="round"/>
<path d="M303.224 85.0002H262.854H303.224Z" stroke="white" stroke-width="0.64" stroke-miterlimit="10" stroke-linecap="round" stroke-linejoin="round"/>
<path d="M257.086 85.0002H251.64H257.086Z" stroke="white" stroke-width="0.64" stroke-miterlimit="10" stroke-linecap="round" stroke-linejoin="round"/>
<path d="M245.872 85.0002H205.502H245.872Z" stroke="white" stroke-width="0.64" stroke-miterlimit="10" stroke-linecap="round" stroke-linejoin="round"/>
<path d="M99.4492 347.08V308.36V347.08Z" stroke="white" stroke-width="0.64" stroke-miterlimit="10" stroke-linecap="round" stroke-linejoin="round"/>
<path d="M99.4492 302.6V296.84V302.6Z" stroke="white" stroke-width="0.64" stroke-miterlimit="10" stroke-linecap="round" stroke-linejoin="round"/>
<path d="M99.4492 291.08V252.68V291.08Z" stroke="white" stroke-width="0.64" stroke-miterlimit="10" stroke-linecap="round" stroke-linejoin="round"/>
<path d="M99.4492 246.92V241.16V246.92Z" stroke="white" stroke-width="0.64" stroke-miterlimit="10" stroke-linecap="round" stroke-linejoin="round"/>
<path d="M99.4492 235.4V197V235.4Z" stroke="white" stroke-width="0.64" stroke-miterlimit="10" stroke-linecap="round" stroke-linejoin="round"/>
<path d="M205.502 85.0002L193.647 85.6402L205.502 85.0002Z" stroke="white" stroke-width="0.64" stroke-miterlimit="10" stroke-linecap="round" stroke-linejoin="round"/>
<path d="M193.647 85.6401L182.112 87.8801L193.647 85.6401Z" stroke="white" stroke-width="0.64" stroke-miterlimit="10" stroke-linecap="round" stroke-linejoin="round"/>
<path d="M182.112 87.8801L175.704 89.8001L182.112 87.8801Z" stroke="white" stroke-width="0.64" stroke-miterlimit="10" stroke-linecap="round" stroke-linejoin="round"/>
<path d="M170.257 91.4001L164.811 93.3201L170.257 91.4001Z" stroke="white" stroke-width="0.64" stroke-miterlimit="10" stroke-linecap="round" stroke-linejoin="round"/>
<path d="M159.684 95.5601L149.752 101L159.684 95.5601Z" stroke="white" stroke-width="0.64" stroke-miterlimit="10" stroke-linecap="round" stroke-linejoin="round"/>
<path d="M149.752 101L140.14 107.72L149.752 101Z" stroke="white" stroke-width="0.64" stroke-miterlimit="10" stroke-linecap="round" stroke-linejoin="round"/>
<path d="M140.14 107.72L134.693 112.52L140.14 107.72Z" stroke="white" stroke-width="0.64" stroke-miterlimit="10" stroke-linecap="round" stroke-linejoin="round"/>
<path d="M130.528 116.36L126.684 120.52L130.528 116.36Z" stroke="white" stroke-width="0.64" stroke-miterlimit="10" stroke-linecap="round" stroke-linejoin="round"/>
<path d="M122.839 125L116.751 133.32L122.839 125Z" stroke="white" stroke-width="0.64" stroke-miterlimit="10" stroke-linecap="round" stroke-linejoin="round"/>
<path d="M116.751 133.32L110.983 143.56L116.751 133.32Z" stroke="white" stroke-width="0.64" stroke-miterlimit="10" stroke-linecap="round" stroke-linejoin="round"/>
<path d="M110.983 143.56L107.779 150.92L110.983 143.56Z" stroke="white" stroke-width="0.64" stroke-miterlimit="10" stroke-linecap="round" stroke-linejoin="round"/>
<path d="M105.537 156.04L103.935 161.48L105.537 156.04Z" stroke="white" stroke-width="0.64" stroke-miterlimit="10" stroke-linecap="round" stroke-linejoin="round"/>
<path d="M102.333 166.92L100.41 176.84L102.333 166.92Z" stroke="white" stroke-width="0.64" stroke-miterlimit="10" stroke-linecap="round" stroke-linejoin="round"/>
<path d="M100.41 176.84L99.4492 188.36L100.41 176.84Z" stroke="white" stroke-width="0.64" stroke-miterlimit="10" stroke-linecap="round" stroke-linejoin="round"/>
<path d="M99.4492 188.36V197V188.36Z" stroke="white" stroke-width="0.64" stroke-miterlimit="10" stroke-linecap="round" stroke-linejoin="round"/>
<path d="M123.8 340.04L127.965 336.2L123.8 340.04Z" stroke="white" stroke-width="0.64" stroke-miterlimit="10" stroke-linecap="round" stroke-linejoin="round"/>
<path d="M350.964 113.48L354.809 109.32L350.964 113.48Z" stroke="white" stroke-width="0.64" stroke-miterlimit="10" stroke-linecap="round" stroke-linejoin="round"/>
<path d="M334.943 113.48L343.274 104.84L334.943 113.48Z" stroke="white" stroke-width="0.64" stroke-miterlimit="10" stroke-linecap="round" stroke-linejoin="round"/>
<path d="M119.314 328.52L127.965 319.88L119.314 328.52Z" stroke="white" stroke-width="0.64" stroke-miterlimit="10" stroke-linecap="round" stroke-linejoin="round"/>
<path d="M119.314 312.52L127.965 303.88L119.314 312.52Z" stroke="white" stroke-width="0.64" stroke-miterlimit="10" stroke-linecap="round" stroke-linejoin="round"/>
<path d="M318.604 113.48L327.254 104.84L318.604 113.48Z" stroke="white" stroke-width="0.64" stroke-miterlimit="10" stroke-linecap="round" stroke-linejoin="round"/>
<path d="M350.964 65.1601L354.809 61.3201L350.964 65.1601Z" stroke="white" stroke-width="0.64" stroke-miterlimit="10" stroke-linecap="round" stroke-linejoin="round"/>
<path d="M302.583 113.48L311.234 104.84L302.583 113.48Z" stroke="white" stroke-width="0.64" stroke-miterlimit="10" stroke-linecap="round" stroke-linejoin="round"/>
<path d="M119.314 296.52L127.965 287.88L119.314 296.52Z" stroke="white" stroke-width="0.64" stroke-miterlimit="10" stroke-linecap="round" stroke-linejoin="round"/>
<path d="M75.7393 340.04L79.584 336.2L75.7393 340.04Z" stroke="white" stroke-width="0.64" stroke-miterlimit="10" stroke-linecap="round" stroke-linejoin="round"/>
<path d="M71.2539 328.52L79.5843 320.2L71.2539 328.52Z" stroke="white" stroke-width="0.64" stroke-miterlimit="10" stroke-linecap="round" stroke-linejoin="round"/>
<path d="M119.314 280.52L127.965 271.88L119.314 280.52Z" stroke="white" stroke-width="0.64" stroke-miterlimit="10" stroke-linecap="round" stroke-linejoin="round"/>
<path d="M286.563 113.48L295.214 104.84L286.563 113.48Z" stroke="white" stroke-width="0.64" stroke-miterlimit="10" stroke-linecap="round" stroke-linejoin="round"/>
<path d="M334.943 65.1601L343.274 56.8401L334.943 65.1601Z" stroke="white" stroke-width="0.64" stroke-miterlimit="10" stroke-linecap="round" stroke-linejoin="round"/>
<path d="M318.924 65.1601L327.254 56.8401L318.924 65.1601Z" stroke="white" stroke-width="0.64" stroke-miterlimit="10" stroke-linecap="round" stroke-linejoin="round"/>
<path d="M270.543 113.48L279.194 104.84L270.543 113.48Z" stroke="white" stroke-width="0.64" stroke-miterlimit="10" stroke-linecap="round" stroke-linejoin="round"/>
<path d="M119.314 264.52L127.965 255.88L119.314 264.52Z" stroke="white" stroke-width="0.64" stroke-miterlimit="10" stroke-linecap="round" stroke-linejoin="round"/>
<path d="M71.2539 312.52L79.5843 304.2L71.2539 312.52Z" stroke="white" stroke-width="0.64" stroke-miterlimit="10" stroke-linecap="round" stroke-linejoin="round"/>
<path d="M71.2539 296.52L79.5843 288.2L71.2539 296.52Z" stroke="white" stroke-width="0.64" stroke-miterlimit="10" stroke-linecap="round" stroke-linejoin="round"/>
<path d="M119.314 248.52L127.965 239.88L119.314 248.52Z" stroke="white" stroke-width="0.64" stroke-miterlimit="10" stroke-linecap="round" stroke-linejoin="round"/>
<path d="M254.523 113.48L263.174 104.84L254.523 113.48Z" stroke="white" stroke-width="0.64" stroke-miterlimit="10" stroke-linecap="round" stroke-linejoin="round"/>
<path d="M302.904 65.1601L311.235 56.8401L302.904 65.1601Z" stroke="white" stroke-width="0.64" stroke-miterlimit="10" stroke-linecap="round" stroke-linejoin="round"/>
<path d="M286.563 65.1601L295.214 56.8401L286.563 65.1601Z" stroke="white" stroke-width="0.64" stroke-miterlimit="10" stroke-linecap="round" stroke-linejoin="round"/>
<path d="M238.503 113.48L246.833 104.84L238.503 113.48Z" stroke="white" stroke-width="0.64" stroke-miterlimit="10" stroke-linecap="round" stroke-linejoin="round"/>
<path d="M119.314 232.2L127.965 223.88L119.314 232.2Z" stroke="white" stroke-width="0.64" stroke-miterlimit="10" stroke-linecap="round" stroke-linejoin="round"/>
<path d="M71.2539 280.52L79.5843 271.88L71.2539 280.52Z" stroke="white" stroke-width="0.64" stroke-miterlimit="10" stroke-linecap="round" stroke-linejoin="round"/>
<path d="M71.2539 264.52L79.5843 255.88L71.2539 264.52Z" stroke="white" stroke-width="0.64" stroke-miterlimit="10" stroke-linecap="round" stroke-linejoin="round"/>
<path d="M119.314 216.2L127.965 207.88L119.314 216.2Z" stroke="white" stroke-width="0.64" stroke-miterlimit="10" stroke-linecap="round" stroke-linejoin="round"/>
<path d="M222.483 113.48L230.814 104.84L222.483 113.48Z" stroke="white" stroke-width="0.64" stroke-miterlimit="10" stroke-linecap="round" stroke-linejoin="round"/>
<path d="M270.543 65.1601L279.194 56.8401L270.543 65.1601Z" stroke="white" stroke-width="0.64" stroke-miterlimit="10" stroke-linecap="round" stroke-linejoin="round"/>
<path d="M254.523 65.1601L263.174 56.8401L254.523 65.1601Z" stroke="white" stroke-width="0.64" stroke-miterlimit="10" stroke-linecap="round" stroke-linejoin="round"/>
<path d="M206.463 113.48L214.793 104.84L206.463 113.48Z" stroke="white" stroke-width="0.64" stroke-miterlimit="10" stroke-linecap="round" stroke-linejoin="round"/>
<path d="M119.314 200.2L127.965 191.88L119.314 200.2Z" stroke="white" stroke-width="0.64" stroke-miterlimit="10" stroke-linecap="round" stroke-linejoin="round"/>
<path d="M71.2539 248.52L79.5843 239.88L71.2539 248.52Z" stroke="white" stroke-width="0.64" stroke-miterlimit="10" stroke-linecap="round" stroke-linejoin="round"/>
<path d="M71.2539 232.52L79.5843 223.88L71.2539 232.52Z" stroke="white" stroke-width="0.64" stroke-miterlimit="10" stroke-linecap="round" stroke-linejoin="round"/>
<path d="M119.314 184.2L128.606 175.24L119.314 184.2Z" stroke="white" stroke-width="0.64" stroke-miterlimit="10" stroke-linecap="round" stroke-linejoin="round"/>
<path d="M189.802 114.12L198.773 104.84L189.802 114.12Z" stroke="white" stroke-width="0.64" stroke-miterlimit="10" stroke-linecap="round" stroke-linejoin="round"/>
<path d="M238.503 65.1601L247.154 56.8401L238.503 65.1601Z" stroke="white" stroke-width="0.64" stroke-miterlimit="10" stroke-linecap="round" stroke-linejoin="round"/>
<path d="M222.483 65.1601L231.134 56.8401L222.483 65.1601Z" stroke="white" stroke-width="0.64" stroke-miterlimit="10" stroke-linecap="round" stroke-linejoin="round"/>
<path d="M166.413 121.16L180.511 107.08L166.413 121.16Z" stroke="white" stroke-width="0.64" stroke-miterlimit="10" stroke-linecap="round" stroke-linejoin="round"/>
<path d="M121.557 165.96L135.654 151.88L121.557 165.96Z" stroke="white" stroke-width="0.64" stroke-miterlimit="10" stroke-linecap="round" stroke-linejoin="round"/>
<path d="M71.2539 216.52L79.5843 207.88L71.2539 216.52Z" stroke="white" stroke-width="0.64" stroke-miterlimit="10" stroke-linecap="round" stroke-linejoin="round"/>
<path d="M71.2539 200.2L79.9047 191.56L71.2539 200.2Z" stroke="white" stroke-width="0.64" stroke-miterlimit="10" stroke-linecap="round" stroke-linejoin="round"/>
<path d="M136.615 134.92L149.431 122.12L136.615 134.92Z" stroke="white" stroke-width="0.64" stroke-miterlimit="10" stroke-linecap="round" stroke-linejoin="round"/>
<path d="M206.143 65.4801L214.793 56.8401L206.143 65.4801Z" stroke="white" stroke-width="0.64" stroke-miterlimit="10" stroke-linecap="round" stroke-linejoin="round"/>
<path d="M187.88 67.7202L198.133 57.4802L187.88 67.7202Z" stroke="white" stroke-width="0.64" stroke-miterlimit="10" stroke-linecap="round" stroke-linejoin="round"/>
<path d="M71.8945 183.56L82.1473 173.32L71.8945 183.56Z" stroke="white" stroke-width="0.64" stroke-miterlimit="10" stroke-linecap="round" stroke-linejoin="round"/>
<path d="M75.4189 164.04L88.235 150.92L75.4189 164.04Z" stroke="white" stroke-width="0.64" stroke-miterlimit="10" stroke-linecap="round" stroke-linejoin="round"/>
<path d="M165.452 73.8002L178.589 61.0002L165.452 73.8002Z" stroke="white" stroke-width="0.64" stroke-miterlimit="10" stroke-linecap="round" stroke-linejoin="round"/>
<path d="M125.722 97.8001L153.917 69.6401L125.722 97.8001Z" stroke="white" stroke-width="0.64" stroke-miterlimit="10" stroke-linecap="round" stroke-linejoin="round"/>
<path d="M84.0703 139.4L112.266 111.24L84.0703 139.4Z" stroke="white" stroke-width="0.64" stroke-miterlimit="10" stroke-linecap="round" stroke-linejoin="round"/>

    <!--    1 A-->
    <g class="group">
    </g>
    <!--    2 D-->
    <g class="group">
        <path d="M412.14 85.4722V89.705L410.086 88.9303V84.7253C410.086 83.2772 409.802 81.9674 409.235 80.7958C408.659 79.6211 407.857 78.6053 406.827 77.7483C405.789 76.8789 404.576 76.1921 403.189 75.6878L402.025 75.2644C400.934 74.868 399.966 74.6552 399.12 74.626C398.265 74.5937 397.545 74.7405 396.96 75.0664C396.367 75.3891 395.918 75.8848 395.613 76.5535C395.307 77.213 395.154 78.044 395.154 79.0465V83.6135L393.087 82.8619V78.2948C393.087 76.9674 393.296 75.8322 393.715 74.8891C394.125 73.9428 394.723 73.2178 395.508 72.7143C396.284 72.1982 397.226 71.9281 398.334 71.9039C399.434 71.8765 400.672 72.1134 402.051 72.6145L403.189 73.0284C404.568 73.5295 405.811 74.1949 406.919 75.0247C408.018 75.8513 408.956 76.8096 409.732 77.8994C410.509 78.98 411.106 80.1626 411.525 81.4473C411.935 82.7196 412.14 84.0612 412.14 85.4722ZM393.087 81.3442L412.14 88.2709V90.9582L393.087 84.0315V81.3442Z" fill="white"/>
        <path d="M395.82 56.5201C395.643 56.5201 395.5 56.6634 395.5 56.8401C395.5 57.0168 395.643 57.1601 395.82 57.1601V56.5201ZM432.666 57.1601C432.843 57.1601 432.986 57.0168 432.986 56.8401C432.986 56.6634 432.843 56.5201 432.666 56.5201V57.1601ZM395.82 113.16C395.643 113.16 395.5 113.303 395.5 113.48C395.5 113.657 395.643 113.8 395.82 113.8V113.16ZM432.666 113.8C432.843 113.8 432.986 113.657 432.986 113.48C432.986 113.303 432.843 113.16 432.666 113.16V113.8ZM412.14 89.705L412.027 90.0044C412.125 90.0415 412.236 90.028 412.322 89.9682C412.409 89.9084 412.46 89.8101 412.46 89.705H412.14ZM410.086 88.9303H409.766C409.766 89.0634 409.848 89.1827 409.973 89.2297L410.086 88.9303ZM409.235 80.7958L409.523 80.6564L409.522 80.655L409.235 80.7958ZM406.827 77.7483L406.622 77.9937L406.622 77.9943L406.827 77.7483ZM403.189 75.6878L403.08 75.9886L403.08 75.9886L403.189 75.6878ZM402.025 75.2644L402.134 74.9637L402.134 74.9637L402.025 75.2644ZM399.12 74.626L399.107 74.9458L399.109 74.9458L399.12 74.626ZM396.96 75.0664L397.113 75.3475L397.116 75.3458L396.96 75.0664ZM395.613 76.5535L395.903 76.688L395.904 76.6865L395.613 76.5535ZM395.154 83.6135L395.045 83.9143C395.143 83.95 395.253 83.9355 395.338 83.8756C395.424 83.8158 395.474 83.7179 395.474 83.6135H395.154ZM393.087 82.8619H392.767C392.767 82.9965 392.851 83.1167 392.978 83.1626L393.087 82.8619ZM393.715 74.8891L394.008 75.0189L394.009 75.0163L393.715 74.8891ZM395.508 72.7143L395.681 72.9837L395.685 72.9808L395.508 72.7143ZM398.334 71.9039L398.341 72.2238L398.342 72.2238L398.334 71.9039ZM402.051 72.6145L401.941 72.9152L401.941 72.9152L402.051 72.6145ZM403.189 73.0284L403.299 72.7276L403.299 72.7276L403.189 73.0284ZM406.919 75.0247L407.111 74.7689L407.111 74.7686L406.919 75.0247ZM409.732 77.8994L409.472 78.0851L409.472 78.0861L409.732 77.8994ZM411.525 81.4473L411.83 81.3492L411.829 81.3482L411.525 81.4473ZM393.087 81.3442L393.196 81.0434C393.098 81.0078 392.989 81.0222 392.903 81.0821C392.818 81.142 392.767 81.2398 392.767 81.3442H393.087ZM412.14 88.2709H412.46C412.46 88.1363 412.376 88.0161 412.249 87.9701L412.14 88.2709ZM412.14 90.9582L412.031 91.2589C412.129 91.2946 412.238 91.2802 412.324 91.2203C412.409 91.1604 412.46 91.0626 412.46 90.9582H412.14ZM393.087 84.0315H392.767C392.767 84.1661 392.851 84.2863 392.978 84.3322L393.087 84.0315ZM424.976 56.8401L425.293 56.797C425.272 56.6384 425.136 56.5201 424.976 56.5201C424.816 56.5201 424.681 56.6384 424.659 56.797L424.976 56.8401ZM427.539 75.7201L427.348 75.9762C427.451 76.0535 427.59 76.0613 427.702 75.9959C427.813 75.9306 427.874 75.8048 427.857 75.677L427.539 75.7201ZM424.976 73.8L424.976 73.48L424.976 73.48L424.976 73.8ZM422.413 75.72L422.096 75.677C422.078 75.8048 422.139 75.9305 422.251 75.9959C422.362 76.0613 422.501 76.0535 422.605 75.9762L422.413 75.72ZM424.976 113.48L424.659 113.523C424.68 113.682 424.816 113.8 424.976 113.8C425.136 113.8 425.272 113.682 425.293 113.523L424.976 113.48ZM422.413 94.6001L422.605 94.344C422.501 94.2667 422.362 94.2589 422.251 94.3242C422.139 94.3896 422.078 94.5153 422.096 94.6431L422.413 94.6001ZM427.539 94.6001L427.857 94.6432C427.874 94.5153 427.813 94.3896 427.702 94.3242C427.59 94.2589 427.451 94.2666 427.348 94.344L427.539 94.6001ZM395.82 57.1601H432.666V56.5201H395.82V57.1601ZM395.82 113.8H432.666V113.16H395.82V113.8ZM411.82 85.4722V89.705H412.46V85.4722H411.82ZM412.253 89.4056L410.199 88.6309L409.973 89.2297L412.027 90.0044L412.253 89.4056ZM410.406 88.9303V84.7253H409.766V88.9303H410.406ZM410.406 84.7253C410.406 83.2344 410.113 81.8761 409.523 80.6564L408.947 80.9352C409.491 82.0586 409.766 83.32 409.766 84.7253H410.406ZM409.522 80.655C408.926 79.4388 408.095 78.3875 407.032 77.5024L406.622 77.9943C407.618 78.8231 408.392 79.8034 408.948 80.9366L409.522 80.655ZM407.033 77.503C405.963 76.6076 404.718 75.9029 403.299 75.3871L403.08 75.9886C404.435 76.4813 405.615 77.1503 406.622 77.9937L407.033 77.503ZM403.299 75.3871L402.134 74.9637L401.915 75.5652L403.08 75.9886L403.299 75.3871ZM402.134 74.9637C401.023 74.5597 400.02 74.3369 399.131 74.3062L399.109 74.9458C399.911 74.9735 400.846 75.1763 401.915 75.5652L402.134 74.9637ZM399.132 74.3062C398.234 74.2723 397.453 74.4255 396.805 74.7869L397.116 75.3458C397.637 75.0554 398.295 74.9151 399.107 74.9458L399.132 74.3062ZM396.807 74.7853C396.148 75.1441 395.653 75.6948 395.321 76.4206L395.904 76.6865C396.183 76.0749 396.586 75.6341 397.113 75.3475L396.807 74.7853ZM395.322 76.4191C394.991 77.1335 394.834 78.0141 394.834 79.0465H395.474C395.474 78.0739 395.623 77.2925 395.903 76.688L395.322 76.4191ZM394.834 79.0465V83.6135H395.474V79.0465H394.834ZM395.264 83.3128L393.196 82.5611L392.978 83.1626L395.045 83.9143L395.264 83.3128ZM393.407 82.8619V78.2948H392.767V82.8619H393.407ZM393.407 78.2948C393.407 76.9999 393.611 75.9112 394.008 75.0189L393.423 74.7592C392.981 75.7531 392.767 76.935 392.767 78.2948H393.407ZM394.009 75.0163C394.396 74.1219 394.955 73.4493 395.681 72.9836L395.335 72.4449C394.491 72.9864 393.854 73.7636 393.421 74.7618L394.009 75.0163ZM395.685 72.9808C396.402 72.5042 397.282 72.247 398.341 72.2238L398.327 71.584C397.17 71.6093 396.166 71.8923 395.331 72.4478L395.685 72.9808ZM398.342 72.2238C399.391 72.1977 400.589 72.4235 401.941 72.9152L402.16 72.3137C400.756 71.8033 399.476 71.5553 398.326 71.584L398.342 72.2238ZM401.941 72.9152L403.08 73.3291L403.299 72.7276L402.16 72.3137L401.941 72.9152ZM403.08 73.3291C404.431 73.8201 405.646 74.471 406.727 75.2808L407.111 74.7686C405.976 73.9189 404.705 73.2388 403.299 72.7276L403.08 73.3291ZM406.726 75.2805C407.8 76.0879 408.715 77.0227 409.472 78.0851L409.993 77.7137C409.197 76.5964 408.236 75.6147 407.111 74.7689L406.726 75.2805ZM409.472 78.0861C410.229 79.1396 410.812 80.2926 411.221 81.5465L411.829 81.3482C411.401 80.0327 410.788 78.8204 409.992 77.7127L409.472 78.0861ZM411.22 81.5455C411.62 82.7843 411.82 84.0927 411.82 85.4722H412.46C412.46 84.0297 412.25 82.6549 411.83 81.3492L411.22 81.5455ZM392.978 81.6449L412.031 88.5716L412.249 87.9701L393.196 81.0434L392.978 81.6449ZM411.82 88.2709V90.9582H412.46V88.2709H411.82ZM412.249 90.6574L393.196 83.7308L392.978 84.3322L412.031 91.2589L412.249 90.6574ZM393.407 84.0315V81.3442H392.767V84.0315H393.407ZM424.659 56.8831L427.222 75.7631L427.857 75.677L425.293 56.797L424.659 56.8831ZM427.731 75.464L425.168 73.5439L424.784 74.0562L427.348 75.9762L427.731 75.464ZM424.784 73.5439L422.221 75.4639L422.605 75.9762L425.168 74.0562L424.784 73.5439ZM422.73 75.7631L425.293 56.8831L424.659 56.797L422.096 75.677L422.73 75.7631ZM424.976 57.4802H425.297V56.8402H424.976V57.4802ZM424.976 57.8002H425.297V57.1602H424.976V57.8002ZM424.976 58.1202H425.297V57.4802H424.976V58.1202ZM424.976 58.4402H425.297V57.8002H424.976V58.4402ZM424.976 58.7602H425.297V58.1202H424.976V58.7602ZM424.976 59.0802H425.297V58.4402H424.976V59.0802ZM424.976 59.4002H425.297V58.7602H424.976V59.4002ZM424.976 74.12L427.539 74.1201L427.539 73.4801L424.976 73.48L424.976 74.12ZM425.617 74.4401H427.539V73.8001H425.617V74.4401ZM425.937 74.7601H427.539V74.1201H425.937V74.7601ZM426.258 75.0801H427.539V74.4401H426.258V75.0801ZM426.899 75.4001H427.539V74.7601H426.899V75.4001ZM427.219 75.7201H427.539V75.0801H427.219V75.7201ZM422.733 74.1201L424.976 74.12L424.976 73.48L422.733 73.4801L422.733 74.1201ZM422.733 74.4401H424.655V73.8001H422.733V74.4401ZM422.733 74.7601H424.335V74.1201H422.733V74.7601ZM422.733 75.0801H423.694V74.4401H422.733V75.0801ZM422.733 75.4001H423.374V74.7601H422.733V75.4001ZM422.733 75.7201H423.053V75.0801H422.733V75.7201ZM425.293 113.437L422.73 94.557L422.096 94.6431L424.659 113.523L425.293 113.437ZM422.221 94.8562L424.784 96.7762L425.168 96.264L422.605 94.344L422.221 94.8562ZM425.168 96.7762L427.731 94.8562L427.348 94.344L424.784 96.264L425.168 96.7762ZM427.222 94.557L424.659 113.437L425.293 113.523L427.857 94.6432L427.222 94.557ZM422.733 95.2402H423.053V94.6002H422.733V95.2402ZM422.733 95.5602H423.374V94.9202H422.733V95.5602ZM422.733 95.8802H423.694V95.2402H422.733V95.8802ZM422.733 96.2002H424.335V95.5602H422.733V96.2002ZM422.733 96.5202H424.655V95.8802H422.733V96.5202ZM422.733 96.8402L424.976 96.8401L424.976 96.2001L422.733 96.2002L422.733 96.8402ZM427.219 95.2402H427.539V94.6002H427.219V95.2402ZM426.899 95.5602H427.539V94.9202H426.899V95.5602ZM426.258 95.8802H427.539V95.2402H426.258V95.8802ZM425.937 96.2002H427.539V95.5602H425.937V96.2002ZM425.617 96.5202H427.539V95.8802H425.617V96.5202ZM424.976 96.8401L427.539 96.8402L427.539 96.2002L424.976 96.2001L424.976 96.8401ZM424.976 111.56H425.297V110.92H424.976V111.56ZM424.976 111.88H425.297V111.24H424.976V111.88ZM424.976 112.2H425.297V111.56H424.976V112.2ZM424.976 112.52H425.297V111.88H424.976V112.52ZM424.976 112.84H425.297V112.2H424.976V112.84ZM424.976 113.16H425.297V112.52H424.976V113.16ZM424.976 113.48H425.297V112.84H424.976V113.48ZM424.656 56.8401L424.656 113.48L425.296 113.48L425.296 56.8401L424.656 56.8401ZM424.655 59.7201L425.617 59.7202L425.617 59.0802L424.655 59.0801L424.655 59.7201ZM424.655 60.0401L425.617 60.0402L425.617 59.4002L424.655 59.4001L424.655 60.0401ZM424.655 60.3601L425.617 60.3602L425.617 59.7202L424.655 59.7201L424.655 60.3601ZM424.655 60.6801L425.617 60.6802L425.617 60.0402L424.655 60.0401L424.655 60.6801ZM424.655 61.0001L425.617 61.0002L425.617 60.3602L424.655 60.3601L424.655 61.0001ZM424.655 61.3201L425.617 61.3202L425.617 60.6802L424.655 60.6801L424.655 61.3201ZM424.655 61.6401L425.617 61.6402L425.617 61.0002L424.655 61.0001L424.655 61.6401ZM424.335 61.9601L425.937 61.9602L425.937 61.3202L424.335 61.3201L424.335 61.9601ZM424.335 62.2801L425.937 62.2802L425.937 61.6402L424.335 61.6401L424.335 62.2801ZM424.335 62.6001L425.937 62.6002L425.937 61.9602L424.335 61.9601L424.335 62.6001ZM424.335 62.9201L425.937 62.9202L425.937 62.2802L424.335 62.2801L424.335 62.9201ZM424.335 63.2401L425.937 63.2402L425.937 62.6002L424.335 62.6001L424.335 63.2401ZM424.335 63.5601L425.937 63.5602L425.937 62.9202L424.335 62.9201L424.335 63.5601ZM424.335 63.8801L425.937 63.8802L425.937 63.2402L424.335 63.2401L424.335 63.8801ZM424.335 64.2001L425.937 64.2002L425.937 63.5602L424.335 63.5601L424.335 64.2001ZM424.015 64.5201L426.258 64.5202L426.258 63.8802L424.015 63.8801L424.015 64.5201ZM424.015 64.8401L426.258 64.8402L426.258 64.2002L424.015 64.2001L424.015 64.8401ZM424.015 65.1601L426.258 65.1602L426.258 64.5202L424.015 64.5201L424.015 65.1601ZM424.015 65.4801L426.258 65.4802L426.258 64.8402L424.015 64.8401L424.015 65.4801ZM424.015 65.8001L426.258 65.8002L426.258 65.1602L424.015 65.1601L424.015 65.8001ZM424.015 66.1201L426.258 66.1202L426.258 65.4802L424.015 65.4801L424.015 66.1201ZM424.015 66.4401L426.258 66.4402L426.258 65.8002L424.015 65.8001L424.015 66.4401ZM423.694 66.7601L426.578 66.7602L426.578 66.1202L423.694 66.1201L423.694 66.7601ZM423.694 67.0801L426.578 67.0802L426.578 66.4402L423.694 66.4401L423.694 67.0801ZM423.694 67.4001L426.578 67.4002L426.578 66.7602L423.694 66.7601L423.694 67.4001ZM423.694 67.7201L426.578 67.7202L426.578 67.0802L423.694 67.0801L423.694 67.7201ZM423.694 68.0401L426.578 68.0401L426.578 67.4002L423.694 67.4001L423.694 68.0401ZM423.694 68.3601L426.578 68.3601L426.578 67.7201L423.694 67.7201L423.694 68.3601ZM423.694 68.6801L426.578 68.6801L426.578 68.0401L423.694 68.0401L423.694 68.6801ZM423.374 69.0001L426.899 69.0001L426.899 68.3601L423.374 68.3601L423.374 69.0001ZM423.374 69.3201L426.899 69.3201L426.899 68.6801L423.374 68.6801L423.374 69.3201ZM423.374 69.6401L426.899 69.6401L426.899 69.0001L423.374 69.0001L423.374 69.6401ZM423.374 69.9601L426.899 69.9601L426.899 69.3201L423.374 69.3201L423.374 69.9601ZM423.374 70.2801L426.899 70.2801L426.899 69.6401L423.374 69.6401L423.374 70.2801ZM423.374 70.6001L426.899 70.6001L426.899 69.9601L423.374 69.9601L423.374 70.6001ZM423.374 70.9201L426.899 70.9201L426.899 70.2801L423.374 70.2801L423.374 70.9201ZM423.374 71.2401L426.899 71.2401L426.899 70.6001L423.374 70.6001L423.374 71.2401ZM423.053 71.5601L427.219 71.5601L427.219 70.9201L423.053 70.9201L423.053 71.5601ZM423.053 71.8801L427.219 71.8801L427.219 71.2401L423.053 71.2401L423.053 71.8801ZM423.053 72.2001L427.219 72.2001L427.219 71.5601L423.053 71.5601L423.053 72.2001ZM423.053 72.5201L427.219 72.5201L427.219 71.8801L423.053 71.8801L423.053 72.5201ZM423.053 72.8401L427.219 72.8401L427.219 72.2001L423.053 72.2001L423.053 72.8401ZM423.053 73.1601H427.219V72.5201H423.053V73.1601ZM423.053 73.4801H427.219V72.8401H423.053V73.4801ZM422.733 73.8001H427.539V73.1601H422.733V73.8001ZM422.733 97.1602H427.539V96.5202H422.733V97.1602ZM423.053 97.4802L427.219 97.4802L427.219 96.8402L423.053 96.8402L423.053 97.4802ZM423.053 97.8002L427.219 97.8002L427.219 97.1602L423.053 97.1602L423.053 97.8002ZM423.053 98.1202L427.219 98.1202L427.219 97.4802L423.053 97.4802L423.053 98.1202ZM423.053 98.4402L427.219 98.4402L427.219 97.8002L423.053 97.8002L423.053 98.4402ZM423.053 98.7602L427.219 98.7602L427.219 98.1202L423.053 98.1202L423.053 98.7602ZM423.053 99.0802L427.219 99.0802L427.219 98.4402L423.053 98.4402L423.053 99.0802ZM423.053 99.4002L427.219 99.4002L427.219 98.7602L423.053 98.7602L423.053 99.4002ZM423.374 99.7202L426.899 99.7202L426.899 99.0802L423.374 99.0802L423.374 99.7202ZM423.374 100.04L426.899 100.04L426.899 99.4002L423.374 99.4002L423.374 100.04ZM423.374 100.36L426.899 100.36L426.899 99.7202L423.374 99.7202L423.374 100.36ZM423.374 100.68H426.899V100.04H423.374V100.68ZM423.374 101H426.899V100.36H423.374V101ZM423.374 101.32H426.899V100.68H423.374V101.32ZM423.374 101.64L426.899 101.64L426.899 101L423.374 101L423.374 101.64ZM423.374 101.96L426.899 101.96L426.899 101.32L423.374 101.32L423.374 101.96ZM423.694 102.28L426.578 102.28L426.578 101.64L423.694 101.64L423.694 102.28ZM423.694 102.6L426.578 102.6L426.578 101.96L423.694 101.96L423.694 102.6ZM423.694 102.92L426.578 102.92L426.578 102.28L423.694 102.28L423.694 102.92ZM423.694 103.24L426.578 103.24L426.578 102.6L423.694 102.6L423.694 103.24ZM423.694 103.56L426.578 103.56L426.578 102.92L423.694 102.92L423.694 103.56ZM423.694 103.88L426.578 103.88L426.578 103.24L423.694 103.24L423.694 103.88ZM423.694 104.2L426.578 104.2L426.578 103.56L423.694 103.56L423.694 104.2ZM424.015 104.52L426.258 104.52L426.258 103.88L424.015 103.88L424.015 104.52ZM424.015 104.84L426.258 104.84L426.258 104.2L424.015 104.2L424.015 104.84ZM424.015 105.16L426.258 105.16L426.258 104.52L424.015 104.52L424.015 105.16ZM424.015 105.48L426.258 105.48L426.258 104.84L424.015 104.84L424.015 105.48ZM424.015 105.8L426.258 105.8L426.258 105.16L424.015 105.16L424.015 105.8ZM424.015 106.12L426.258 106.12L426.258 105.48L424.015 105.48L424.015 106.12ZM424.015 106.44L426.258 106.44L426.258 105.8L424.015 105.8L424.015 106.44ZM424.335 106.76L425.937 106.76L425.937 106.12L424.335 106.12L424.335 106.76ZM424.335 107.08L425.937 107.08L425.937 106.44L424.335 106.44L424.335 107.08ZM424.335 107.4L425.937 107.4L425.937 106.76L424.335 106.76L424.335 107.4ZM424.335 107.72L425.937 107.72L425.937 107.08L424.335 107.08L424.335 107.72ZM424.335 108.04L425.937 108.04L425.937 107.4L424.335 107.4L424.335 108.04ZM424.335 108.36L425.937 108.36L425.937 107.72L424.335 107.72L424.335 108.36ZM424.335 108.68L425.937 108.68L425.937 108.04L424.335 108.04L424.335 108.68ZM424.335 109L425.937 109L425.937 108.36L424.335 108.36L424.335 109ZM424.655 109.32L425.617 109.32L425.617 108.68L424.655 108.68L424.655 109.32ZM424.655 109.64L425.617 109.64L425.617 109L424.655 109L424.655 109.64ZM424.655 109.96L425.617 109.96L425.617 109.32L424.655 109.32L424.655 109.96ZM424.655 110.28L425.617 110.28L425.617 109.64L424.655 109.64L424.655 110.28ZM424.655 110.6L425.617 110.6L425.617 109.96L424.655 109.96L424.655 110.6ZM424.655 110.92L425.617 110.92L425.617 110.28L424.655 110.28L424.655 110.92ZM424.655 111.24L425.617 111.24L425.617 110.6L424.655 110.6L424.655 111.24Z" fill="white"/>
    </g>
    <!--    3 Dy-->
    <g class="group">
    </g>
    <!--    4 Dh-->
    <g class="group">
    </g>
    <!--    5 D1-->
    <g class="group">
    </g>
    <!--   6 D2-->
    <g class="group">
    </g>
    <!--   7 d-->
    <g class="group">
    </g>
    <!--    8 dH-->
    <g class="group">
    </g>
    <!--    9 d1-->
    <g class="group">
    </g>
    <!--    10 d2-->
    <g class="group">
    </g>
    <!--    11 L-->
    <g class="group">
        <path d="M235.602 17.4429L234.853 19.4968H224.717L225.465 17.4429H235.602ZM232.188 0.449219L225.246 19.4968H222.559L229.501 0.449219H232.188Z" fill="white"/>
        <path d="M99.1292 78.2802C99.1292 78.457 99.2725 78.6002 99.4492 78.6002C99.6259 78.6002 99.7692 78.457 99.7692 78.2802H99.1292ZM354.489 48.2001C354.489 48.3768 354.632 48.5201 354.809 48.5201C354.985 48.5201 355.129 48.3768 355.129 48.2001H354.489ZM355.129 24.8401C355.129 24.6634 354.985 24.5201 354.809 24.5201C354.632 24.5201 354.489 24.6634 354.489 24.8401H355.129ZM99.7692 24.8401C99.7692 24.6634 99.6259 24.5201 99.4492 24.5201C99.2725 24.5201 99.1292 24.6634 99.1292 24.8401H99.7692ZM235.602 17.4429L235.903 17.5525C235.938 17.4544 235.924 17.345 235.864 17.2594C235.804 17.1739 235.706 17.1229 235.602 17.1229V17.4429ZM234.853 19.4968V19.8168C234.988 19.8168 235.108 19.7327 235.154 19.6064L234.853 19.4968ZM224.717 19.4968L224.416 19.3872C224.38 19.4854 224.395 19.5948 224.455 19.6803C224.514 19.7659 224.612 19.8168 224.717 19.8168V19.4968ZM225.465 17.4429V17.1229C225.331 17.1229 225.211 17.207 225.165 17.3334L225.465 17.4429ZM232.188 0.449219L232.489 0.558794C232.524 0.460678 232.51 0.351287 232.45 0.265731C232.39 0.180175 232.292 0.129219 232.188 0.129219V0.449219ZM225.246 19.4968V19.8168C225.38 19.8168 225.5 19.7327 225.547 19.6064L225.246 19.4968ZM222.559 19.4968L222.258 19.3872C222.222 19.4854 222.236 19.5948 222.296 19.6803C222.356 19.7659 222.454 19.8168 222.559 19.8168V19.4968ZM229.501 0.449219V0.129219C229.366 0.129219 229.246 0.213296 229.2 0.339643L229.501 0.449219ZM354.809 32.2002L354.852 32.5173C355.012 32.4957 355.13 32.3587 355.129 32.1976C355.128 32.0364 355.007 31.9014 354.847 31.8824L354.809 32.2002ZM335.905 34.7602L335.649 34.5681C335.572 34.6712 335.564 34.8109 335.629 34.9222C335.695 35.0335 335.82 35.0946 335.948 35.0773L335.905 34.7602ZM335.905 29.9602L335.943 29.6425C335.812 29.6269 335.685 29.6933 335.623 29.8097C335.561 29.9261 335.577 30.0686 335.662 30.1686L335.905 29.9602ZM99.4492 32.2002L99.4116 31.8824C99.2515 31.9014 99.1306 32.0364 99.1292 32.1976C99.1279 32.3587 99.2466 32.4957 99.4063 32.5173L99.4492 32.2002ZM118.353 29.9602L118.596 30.1686C118.682 30.0686 118.697 29.9261 118.635 29.8097C118.573 29.6933 118.446 29.6269 118.315 29.6425L118.353 29.9602ZM118.353 34.7602L118.31 35.0773C118.438 35.0946 118.564 35.0335 118.629 34.9222C118.694 34.8109 118.686 34.6713 118.609 34.5681L118.353 34.7602ZM355.129 48.2001V24.8401H354.489V48.2001H355.129ZM235.301 17.3334L234.553 19.3872L235.154 19.6064L235.903 17.5525L235.301 17.3334ZM234.853 19.1768H224.717V19.8168H234.853V19.1768ZM225.017 19.6064L225.766 17.5525L225.165 17.3334L224.416 19.3872L225.017 19.6064ZM225.465 17.7629H235.602V17.1229H225.465V17.7629ZM231.887 0.339643L224.945 19.3872L225.547 19.6064L232.489 0.558794L231.887 0.339643ZM225.246 19.1768H222.559V19.8168H225.246V19.1768ZM222.859 19.6064L229.801 0.558794L229.2 0.339643L222.258 19.3872L222.859 19.6064ZM229.501 0.769219H232.188V0.129219H229.501V0.769219ZM354.766 31.8831L335.862 34.4431L335.948 35.0773L354.852 32.5173L354.766 31.8831ZM336.161 34.9524L338.084 32.3924L337.572 32.0081L335.649 34.5681L336.161 34.9524ZM338.071 31.9918L336.148 29.7518L335.662 30.1686L337.585 32.4086L338.071 31.9918ZM335.868 30.278L354.771 32.518L354.847 31.8824L335.943 29.6425L335.868 30.278ZM337.828 32.5202H354.809V31.8802H337.828V32.5202ZM337.828 32.8402H352.566V32.2002H337.828V32.8402ZM337.507 33.1602H350.323V32.5202H337.507V33.1602ZM337.187 33.4802H347.76V32.8402H337.187V33.4802ZM336.866 33.8002H345.517V33.1602H336.866V33.8002ZM336.866 34.1202H343.274V33.4802H336.866V34.1202ZM336.546 34.4402H340.711V33.8002H336.546V34.4402ZM336.226 34.7602H338.468V34.1202H336.226V34.7602ZM336.226 30.6003H338.789V29.9603H336.226V30.6003ZM336.546 30.9203H341.352V30.2803H336.546V30.9203ZM336.866 31.2403H344.236V30.6003H336.866V31.2403ZM337.187 31.5603H346.799V30.9203H337.187V31.5603ZM337.507 31.8803H349.682V31.2403H337.507V31.8803ZM337.828 32.2003H352.246V31.5603H337.828V32.2003ZM99.4869 32.518L118.391 30.278L118.315 29.6425L99.4116 31.8824L99.4869 32.518ZM118.11 29.7518L116.188 31.9918L116.674 32.4086L118.596 30.1686L118.11 29.7518ZM116.175 32.3924L118.097 34.9524L118.609 34.5681L116.687 32.0081L116.175 32.3924ZM118.396 34.4431L99.4922 31.8831L99.4063 32.5173L118.31 35.0773L118.396 34.4431ZM115.79 30.6003H118.353V29.9603H115.79V30.6003ZM113.227 30.9203H118.033V30.2803H113.227V30.9203ZM110.343 31.2403H117.712V30.6003H110.343V31.2403ZM107.78 31.5603H117.392V30.9203H107.78V31.5603ZM104.896 31.8803H117.071V31.2403H104.896V31.8803ZM102.333 32.2003H116.751V31.5603H102.333V32.2003ZM99.4492 32.5202H116.431V31.8802H99.4492V32.5202ZM102.012 32.8402H116.751V32.2002H102.012V32.8402ZM104.255 33.1602H117.071V32.5202H104.255V33.1602ZM106.818 33.4802H117.392V32.8402H106.818V33.4802ZM109.061 33.8002H117.392V33.1602H109.061V33.8002ZM111.304 34.1202H117.712V33.4802H111.304V34.1202ZM113.867 34.4402H118.032V33.8002H113.867V34.4402ZM116.11 34.7602H118.353V34.1202H116.11V34.7602ZM354.809 31.8802H99.4492V32.5202H354.809V31.8802ZM99.1292 24.8401V78.2802H99.7692V24.8401H99.1292Z" fill="white"/>
        <path d="M17.4713 204.226L19.5258 204.972V215.109L17.4713 214.362V204.226ZM0.472656 207.653L19.5258 214.58V217.267L0.472656 210.341V207.653Z" fill="white"/>
        <path d="M99.4485 85.3202C99.6252 85.3202 99.7685 85.177 99.7685 85.0002C99.7685 84.8235 99.6252 84.6802 99.4485 84.6802V85.3202ZM24.7956 84.6802C24.6188 84.6802 24.4756 84.8235 24.4756 85.0002C24.4756 85.177 24.6188 85.3202 24.7956 85.3202V84.6802ZM61.9621 340.36C62.1388 340.36 62.2821 340.217 62.2821 340.04C62.2821 339.863 62.1388 339.72 61.9621 339.72V340.36ZM24.7956 339.72C24.6188 339.72 24.4756 339.863 24.4756 340.04C24.4756 340.217 24.6188 340.36 24.7956 340.36V339.72ZM17.4713 204.226L17.5807 203.925C17.4826 203.889 17.3732 203.904 17.2878 203.963C17.2023 204.023 17.1513 204.121 17.1513 204.226H17.4713ZM19.5258 204.972H19.8458C19.8458 204.838 19.7617 204.718 19.6352 204.672L19.5258 204.972ZM19.5258 215.109L19.4165 215.41C19.5146 215.445 19.6239 215.431 19.7094 215.371C19.7949 215.311 19.8458 215.213 19.8458 215.109H19.5258ZM17.4713 214.362H17.1513C17.1513 214.497 17.2355 214.617 17.362 214.663L17.4713 214.362ZM0.472656 207.653L0.58199 207.353C0.483888 207.317 0.374557 207.331 0.289063 207.391C0.203568 207.451 0.152656 207.549 0.152656 207.653H0.472656ZM19.5258 214.58H19.8458C19.8458 214.445 19.7617 214.325 19.6352 214.279L19.5258 214.58ZM19.5258 217.267L19.4165 217.568C19.5146 217.604 19.6239 217.589 19.7094 217.529C19.7949 217.469 19.8458 217.372 19.8458 217.267H19.5258ZM0.472656 210.341H0.152656C0.152656 210.475 0.23685 210.595 0.363323 210.641L0.472656 210.341ZM32.485 85.0002L32.8028 84.9625C32.7838 84.8025 32.6488 84.6816 32.4877 84.6803C32.3266 84.6789 32.1896 84.7975 32.1679 84.9572L32.485 85.0002ZM34.7278 103.88L34.5197 104.123C34.6198 104.209 34.7623 104.225 34.8786 104.163C34.9948 104.1 35.0611 103.973 35.0456 103.842L34.7278 103.88ZM29.9215 103.88L29.6045 103.837C29.5871 103.965 29.6482 104.091 29.7594 104.156C29.8706 104.221 30.0101 104.214 30.1134 104.136L29.9215 103.88ZM32.4848 340.04L32.1677 340.083C32.1893 340.243 32.3263 340.361 32.4874 340.36C32.6485 340.359 32.7835 340.238 32.8025 340.078L32.4848 340.04ZM29.9215 321.16L30.1134 320.904C30.0102 320.827 29.8706 320.819 29.7594 320.884C29.6482 320.95 29.5871 321.075 29.6045 321.203L29.9215 321.16ZM34.7278 321.16L35.0456 321.198C35.0611 321.067 34.9948 320.94 34.8786 320.878C34.7623 320.816 34.6199 320.831 34.5197 320.917L34.7278 321.16ZM61.9621 339.72H24.7956V340.36H61.9621V339.72ZM17.362 204.526L19.4165 205.273L19.6352 204.672L17.5807 203.925L17.362 204.526ZM19.2058 204.972V215.109H19.8458V204.972H19.2058ZM19.6352 214.808L17.5807 214.061L17.362 214.663L19.4165 215.41L19.6352 214.808ZM17.7913 214.362V204.226H17.1513V214.362H17.7913ZM0.363323 207.954L19.4165 214.881L19.6352 214.279L0.58199 207.353L0.363323 207.954ZM19.2058 214.58V217.267H19.8458V214.58H19.2058ZM19.6352 216.966L0.581989 210.04L0.363323 210.641L19.4165 217.568L19.6352 216.966ZM0.792656 210.341V207.653H0.152656V210.341H0.792656ZM32.1673 85.038L34.4101 103.918L35.0456 103.842L32.8028 84.9625L32.1673 85.038ZM34.9359 103.637L32.6931 101.717L32.2769 102.203L34.5197 104.123L34.9359 103.637ZM32.2932 101.704L29.7297 103.624L30.1134 104.136L32.6769 102.216L32.2932 101.704ZM30.2386 103.923L32.8021 85.0433L32.1679 84.9572L29.6045 103.837L30.2386 103.923ZM32.485 85.6401H32.8054V85.0001H32.485V85.6401ZM32.485 85.9601H32.8054V85.3201H32.485V85.9601ZM32.485 86.2801H32.8054V85.6401H32.485V86.2801ZM32.485 86.6001H32.8054V85.9601H32.485V86.6001ZM32.485 86.9201H32.8054V86.2801H32.485V86.9201ZM32.485 87.2401H32.8054V86.6001H32.485V87.2401ZM32.485 87.5601H32.8054V86.9201H32.485V87.5601ZM32.485 102.28L34.7278 102.28L34.7278 101.64L32.485 101.64L32.485 102.28ZM33.1258 102.6H34.7278V101.96H33.1258V102.6ZM33.4462 102.92H34.7278V102.28H33.4462V102.92ZM33.7666 103.24H34.7278V102.6H33.7666V103.24ZM34.087 103.56H34.7278V102.92H34.087V103.56ZM34.4074 103.88H34.7278V103.24H34.4074V103.88ZM30.2418 102.28L32.485 102.28L32.485 101.64L30.2419 101.64L30.2418 102.28ZM30.2419 102.6H32.1643V101.96H30.2419V102.6ZM30.2419 102.92H31.8439V102.28H30.2419V102.92ZM30.2419 103.24H31.2031V102.6H30.2419V103.24ZM30.2419 103.56H30.8827V102.92H30.2419V103.56ZM30.2419 103.88H30.5623V103.24H30.2419V103.88ZM32.8019 339.997L30.2386 321.117L29.6045 321.203L32.1677 340.083L32.8019 339.997ZM29.7297 321.416L32.2929 323.336L32.6766 322.824L30.1134 320.904L29.7297 321.416ZM32.6929 323.323L34.9359 321.403L34.5197 320.917L32.2767 322.837L32.6929 323.323ZM34.4101 321.122L32.167 340.002L32.8025 340.078L35.0456 321.198L34.4101 321.122ZM30.2419 321.8H30.5623V321.16H30.2419V321.8ZM30.2419 322.12H30.8827V321.48H30.2419V322.12ZM30.2419 322.44H31.2031V321.8H30.2419V322.44ZM30.2419 322.76H31.8439V322.12H30.2419V322.76ZM30.2419 323.08H32.1643V322.44H30.2419V323.08ZM30.2419 323.4L32.4848 323.4L32.4848 322.76L30.2418 322.76L30.2419 323.4ZM34.4074 321.8H34.7278V321.16H34.4074V321.8ZM34.087 322.12H34.7278V321.48H34.087V322.12ZM33.7666 322.44H34.7278V321.8H33.7666V322.44ZM33.4462 322.76H34.7278V322.12H33.4462V322.76ZM33.1258 323.08H34.7278V322.44H33.1258V323.08ZM32.4848 323.4L34.7278 323.4L34.7278 322.76L32.4848 322.76L32.4848 323.4ZM32.485 338.12H32.8054V337.48H32.485V338.12ZM32.485 338.44H32.8054V337.8H32.485V338.44ZM32.485 338.76H32.8054V338.12H32.485V338.76ZM32.485 339.08H32.8054V338.44H32.485V339.08ZM32.485 339.4H32.8054V338.76H32.485V339.4ZM32.485 339.72H32.8054V339.08H32.485V339.72ZM32.485 340.04H32.8054V339.4H32.485V340.04ZM32.165 85.0002L32.1648 340.04L32.8048 340.04L32.805 85.0002L32.165 85.0002ZM24.7956 85.3202H99.4485V84.6802H24.7956V85.3202ZM32.1643 87.8801L32.8054 87.8801L32.8054 87.2401L32.1643 87.2401L32.1643 87.8801ZM32.1643 88.2001L33.1258 88.2001L33.1258 87.5601L32.1643 87.5601L32.1643 88.2001ZM32.1643 88.5201L33.1258 88.5201L33.1258 87.8801L32.1643 87.8801L32.1643 88.5201ZM32.1643 88.8401L33.1258 88.8401L33.1258 88.2001L32.1643 88.2001L32.1643 88.8401ZM32.1643 89.1601L33.1258 89.1601L33.1258 88.5201L32.1643 88.5201L32.1643 89.1601ZM32.1643 89.4801L33.1258 89.4801L33.1258 88.8401L32.1643 88.8401L32.1643 89.4801ZM32.1643 89.8001L33.1258 89.8001L33.1258 89.1601L32.1643 89.1601L32.1643 89.8001ZM31.8439 90.1201L33.1258 90.1201L33.1258 89.4801L31.8439 89.4801L31.8439 90.1201ZM31.8439 90.4401L33.1258 90.4401L33.1258 89.8001L31.8439 89.8001L31.8439 90.4401ZM31.8439 90.7601L33.4462 90.7601L33.4462 90.1201L31.8439 90.1201L31.8439 90.7601ZM31.8439 91.0801L33.4462 91.0801L33.4462 90.4401L31.8439 90.4401L31.8439 91.0801ZM31.8439 91.4001L33.4462 91.4001L33.4462 90.7601L31.8439 90.7601L31.8439 91.4001ZM31.8439 91.7201L33.4462 91.7201L33.4462 91.0801L31.8439 91.0801L31.8439 91.7201ZM31.8439 92.0401L33.4462 92.0401L33.4462 91.4001L31.8439 91.4001L31.8439 92.0401ZM31.8439 92.3601L33.4462 92.3601L33.4462 91.7201L31.8439 91.7201L31.8439 92.3601ZM31.5235 92.6801L33.4462 92.6801L33.4462 92.0401L31.5235 92.0401L31.5235 92.6801ZM31.5235 93.0001L33.4462 93.0001L33.4462 92.3601L31.5235 92.3601L31.5235 93.0001ZM31.5235 93.3201L33.4462 93.3201L33.4462 92.6801L31.5235 92.6801L31.5235 93.3201ZM31.5235 93.6401L33.7666 93.6401L33.7666 93.0001L31.5235 93.0001L31.5235 93.6401ZM31.5235 93.9601L33.7666 93.9601L33.7666 93.3201L31.5235 93.3201L31.5235 93.9601ZM31.5235 94.2801L33.7666 94.2801L33.7666 93.6401L31.5235 93.6401L31.5235 94.2801ZM31.5235 94.6001L33.7666 94.6001L33.7666 93.9601L31.5235 93.9601L31.5235 94.6001ZM31.2031 94.9201L33.7666 94.9201L33.7666 94.2801L31.2031 94.2801L31.2031 94.9201ZM31.2031 95.2401L33.7666 95.2401L33.7666 94.6001L31.2031 94.6001L31.2031 95.2401ZM31.2031 95.5601L33.7666 95.5601L33.7666 94.9201L31.2031 94.9201L31.2031 95.5601ZM31.2031 95.8801L33.7666 95.8801L33.7666 95.2401L31.2031 95.2401L31.2031 95.8801ZM31.2031 96.2001L34.087 96.2001L34.087 95.5601L31.2031 95.5601L31.2031 96.2001ZM31.2031 96.5201L34.087 96.5201L34.087 95.8801L31.2031 95.8801L31.2031 96.5201ZM31.2031 96.8401L34.087 96.8401L34.087 96.2001L31.2031 96.2001L31.2031 96.8401ZM30.8827 97.1601L34.087 97.1601L34.087 96.5201L30.8827 96.5201L30.8827 97.1601ZM30.8827 97.4801L34.087 97.4801L34.087 96.8401L30.8827 96.8401L30.8827 97.4801ZM30.8827 97.8001L34.087 97.8001L34.087 97.1601L30.8827 97.1601L30.8827 97.8001ZM30.8827 98.1201L34.087 98.1201L34.087 97.4801L30.8827 97.4801L30.8827 98.1201ZM30.8827 98.4401L34.087 98.4401L34.087 97.8001L30.8827 97.8001L30.8827 98.4401ZM30.8827 98.7601L34.087 98.7601L34.087 98.1201L30.8827 98.1201L30.8827 98.7601ZM30.8827 99.0801L34.4074 99.0801L34.4074 98.4401L30.8827 98.4401L30.8827 99.0801ZM30.8827 99.4001L34.4074 99.4001L34.4074 98.7601L30.8827 98.7601L30.8827 99.4001ZM30.5623 99.7201L34.4074 99.7201L34.4074 99.0801L30.5623 99.0801L30.5623 99.7201ZM30.5623 100.04L34.4074 100.04L34.4074 99.4001L30.5623 99.4001L30.5623 100.04ZM30.5623 100.36L34.4074 100.36L34.4074 99.7201L30.5623 99.7201L30.5623 100.36ZM30.5623 100.68L34.4074 100.68L34.4074 100.04L30.5623 100.04L30.5623 100.68ZM30.5623 101L34.4074 101L34.4074 100.36L30.5623 100.36L30.5623 101ZM30.5623 101.32L34.4074 101.32L34.4074 100.68L30.5623 100.68L30.5623 101.32ZM30.5623 101.64H34.7278V101H30.5623V101.64ZM30.2419 101.96H34.7278V101.32H30.2419V101.96ZM30.2419 323.72H34.7278V323.08H30.2419V323.72ZM30.5623 324.04H34.7278V323.4H30.5623V324.04ZM30.5623 324.36H34.4074V323.72H30.5623V324.36ZM30.5623 324.68H34.4074V324.04H30.5623V324.68ZM30.5623 325H34.4074V324.36H30.5623V325ZM30.5623 325.32H34.4074V324.68H30.5623V325.32ZM30.5623 325.64L34.4074 325.64L34.4074 325L30.5623 325L30.5623 325.64ZM30.5623 325.96H34.4074V325.32H30.5623V325.96ZM30.8827 326.28L34.4074 326.28L34.4074 325.64L30.8827 325.64L30.8827 326.28ZM30.8827 326.6H34.4074V325.96H30.8827V326.6ZM30.8827 326.92L34.087 326.92L34.087 326.28L30.8827 326.28L30.8827 326.92ZM30.8827 327.24H34.087V326.6H30.8827V327.24ZM30.8827 327.56L34.087 327.56L34.087 326.92L30.8827 326.92L30.8827 327.56ZM30.8827 327.88H34.087V327.24H30.8827V327.88ZM30.8827 328.2L34.087 328.2L34.087 327.56L30.8827 327.56L30.8827 328.2ZM30.8827 328.52H34.087V327.88H30.8827V328.52ZM31.2031 328.84L34.087 328.84L34.087 328.2L31.2031 328.2L31.2031 328.84ZM31.2031 329.16H34.087V328.52H31.2031V329.16ZM31.2031 329.48L34.087 329.48L34.087 328.84L31.2031 328.84L31.2031 329.48ZM31.2031 329.8L33.7666 329.8L33.7666 329.16L31.2031 329.16L31.2031 329.8ZM31.2031 330.12H33.7666V329.48H31.2031V330.12ZM31.2031 330.44L33.7666 330.44L33.7666 329.8L31.2031 329.8L31.2031 330.44ZM31.2031 330.76H33.7666V330.12H31.2031V330.76ZM31.5235 331.08L33.7666 331.08L33.7666 330.44L31.5235 330.44L31.5235 331.08ZM31.5235 331.4H33.7666V330.76H31.5235V331.4ZM31.5235 331.72L33.7666 331.72L33.7666 331.08L31.5235 331.08L31.5235 331.72ZM31.5235 332.04H33.7666V331.4H31.5235V332.04ZM31.5235 332.36L33.4462 332.36L33.4462 331.72L31.5235 331.72L31.5235 332.36ZM31.5235 332.68H33.4462V332.04H31.5235V332.68ZM31.5235 333L33.4462 333L33.4462 332.36L31.5235 332.36L31.5235 333ZM31.8439 333.32L33.4462 333.32L33.4462 332.68L31.8439 332.68L31.8439 333.32ZM31.8439 333.64L33.4462 333.64L33.4462 333L31.8439 333L31.8439 333.64ZM31.8439 333.96L33.4462 333.96L33.4462 333.32L31.8439 333.32L31.8439 333.96ZM31.8439 334.28L33.4462 334.28L33.4462 333.64L31.8439 333.64L31.8439 334.28ZM31.8439 334.6L33.4462 334.6L33.4462 333.96L31.8439 333.96L31.8439 334.6ZM31.8439 334.92L33.4462 334.92L33.4462 334.28L31.8439 334.28L31.8439 334.92ZM31.8439 335.24L33.1258 335.24L33.1258 334.6L31.8439 334.6L31.8439 335.24ZM31.8439 335.56L33.1258 335.56L33.1258 334.92L31.8439 334.92L31.8439 335.56ZM32.1643 335.88L33.1258 335.88L33.1258 335.24L32.1643 335.24L32.1643 335.88ZM32.1643 336.2L33.1258 336.2L33.1258 335.56L32.1643 335.56L32.1643 336.2ZM32.1643 336.52L33.1258 336.52L33.1258 335.88L32.1643 335.88L32.1643 336.52ZM32.1643 336.84L33.1258 336.84L33.1258 336.2L32.1643 336.2L32.1643 336.84ZM32.1643 337.16L33.1258 337.16L33.1258 336.52L32.1643 336.52L32.1643 337.16ZM32.1643 337.48L33.1258 337.48L33.1258 336.84L32.1643 336.84L32.1643 337.48ZM32.1643 337.8L32.8054 337.8L32.8054 337.16L32.1643 337.16L32.1643 337.8Z" fill="white"/>
    </g>
    <!--    12 L1-->
    <g class="group">
    </g>
    <!--    13 L2-->
    <g class="group">
    </g>
    <!--    14 S-->
    <g class="group">
        <path d="M363.949 143.934C363.6 143.807 363.278 143.774 362.981 143.833C362.676 143.88 362.401 144.109 362.156 144.522C361.903 144.922 361.685 145.585 361.502 146.512C361.336 147.287 361.14 147.972 360.913 148.567C360.686 149.153 360.412 149.624 360.089 149.98C359.766 150.327 359.387 150.546 358.95 150.638C358.514 150.73 358.004 150.67 357.419 150.458C356.861 150.255 356.333 149.933 355.836 149.492C355.339 149.042 354.898 148.506 354.514 147.884C354.13 147.252 353.829 146.554 353.611 145.787C353.393 145.021 353.284 144.216 353.284 143.371C353.284 142.164 353.485 141.207 353.886 140.499C354.287 139.791 354.824 139.331 355.496 139.121C356.159 138.907 356.896 138.947 357.707 139.242V141.818C357.315 141.675 356.935 141.663 356.569 141.78C356.194 141.885 355.884 142.13 355.64 142.515C355.395 142.89 355.273 143.416 355.273 144.094C355.273 144.809 355.378 145.427 355.587 145.949C355.788 146.458 356.045 146.872 356.359 147.19C356.673 147.499 357.005 147.717 357.354 147.844C357.616 147.939 357.851 147.978 358.061 147.962C358.261 147.933 358.449 147.824 358.623 147.637C358.789 147.447 358.946 147.151 359.094 146.75C359.243 146.349 359.391 145.823 359.539 145.172C359.801 144.032 360.115 143.13 360.481 142.465C360.848 141.8 361.297 141.369 361.829 141.172C362.361 140.976 363.007 141.016 363.766 141.292C364.385 141.517 364.953 141.862 365.467 142.328C365.982 142.784 366.427 143.34 366.802 143.997C367.168 144.64 367.456 145.358 367.666 146.149C367.866 146.927 367.967 147.757 367.967 148.639C367.967 149.966 367.744 151.009 367.299 151.766C366.854 152.523 366.279 153.01 365.572 153.227C364.865 153.443 364.119 153.409 363.334 153.123V150.533C363.997 150.737 364.525 150.725 364.918 150.496C365.301 150.265 365.576 149.91 365.742 149.432C365.899 148.95 365.978 148.445 365.978 147.916C365.978 147.21 365.89 146.589 365.716 146.052C365.541 145.506 365.301 145.052 364.996 144.691C364.691 144.329 364.342 144.077 363.949 143.934Z" fill="white"/>
        <path d="M366.664 104.52C366.487 104.52 366.344 104.663 366.344 104.84C366.344 105.017 366.487 105.16 366.664 105.16V104.52ZM388.131 105.16C388.308 105.16 388.451 105.017 388.451 104.84C388.451 104.663 388.308 104.52 388.131 104.52V105.16ZM366.664 113.16C366.487 113.16 366.344 113.303 366.344 113.48C366.344 113.657 366.487 113.8 366.664 113.8V113.16ZM388.131 113.8C388.308 113.8 388.451 113.657 388.451 113.48C388.451 113.303 388.308 113.16 388.131 113.16V113.8ZM380.12 164.68C380.12 164.857 380.264 165 380.44 165C380.617 165 380.76 164.857 380.76 164.68H380.12ZM363.949 143.934L363.84 144.235L363.949 143.934ZM362.981 143.833L363.029 144.149C363.034 144.148 363.039 144.148 363.044 144.147L362.981 143.833ZM362.156 144.522L362.427 144.693L362.432 144.685L362.156 144.522ZM361.502 146.512L361.815 146.579L361.816 146.574L361.502 146.512ZM360.913 148.567L361.212 148.683L361.212 148.681L360.913 148.567ZM360.089 149.98L360.323 150.198L360.326 150.195L360.089 149.98ZM357.419 150.458L357.529 150.157L357.529 150.157L357.419 150.458ZM355.836 149.492L355.621 149.73L355.624 149.732L355.836 149.492ZM354.514 147.884L354.241 148.05L354.242 148.052L354.514 147.884ZM355.496 139.121L355.591 139.426L355.594 139.425L355.496 139.121ZM357.707 139.242H358.027C358.027 139.108 357.943 138.987 357.817 138.942L357.707 139.242ZM357.707 141.818L357.598 142.119C357.696 142.155 357.805 142.14 357.891 142.08C357.976 142.02 358.027 141.923 358.027 141.818H357.707ZM356.569 141.78L356.655 142.089L356.666 142.085L356.569 141.78ZM355.64 142.515L355.908 142.689L355.91 142.686L355.64 142.515ZM355.587 145.949L355.885 145.831L355.884 145.83L355.587 145.949ZM356.359 147.19L356.132 147.415L356.135 147.418L356.359 147.19ZM357.354 147.844L357.245 148.145L357.354 147.844ZM358.061 147.962L358.086 148.281C358.093 148.28 358.1 148.279 358.107 148.278L358.061 147.962ZM358.623 147.637L358.857 147.856L358.865 147.847L358.623 147.637ZM359.539 145.172L359.227 145.1L359.227 145.1L359.539 145.172ZM363.766 141.292L363.657 141.592L363.766 141.292ZM365.467 142.328L365.253 142.565L365.255 142.567L365.467 142.328ZM366.802 143.997L367.08 143.838L367.08 143.838L366.802 143.997ZM367.666 146.149L367.976 146.069L367.975 146.067L367.666 146.149ZM363.334 153.123H363.014C363.014 153.258 363.098 153.378 363.225 153.424L363.334 153.123ZM363.334 150.533L363.428 150.228C363.331 150.198 363.226 150.216 363.144 150.276C363.062 150.336 363.014 150.432 363.014 150.533H363.334ZM364.918 150.496L365.079 150.773L365.083 150.77L364.918 150.496ZM365.742 149.432L366.044 149.536L366.046 149.531L365.742 149.432ZM365.716 146.052L365.411 146.15L365.412 146.151L365.716 146.052ZM383.004 85.9602L383.321 86.0033C383.338 85.8754 383.277 85.7497 383.166 85.6843C383.055 85.619 382.915 85.6268 382.812 85.7041L383.004 85.9602ZM378.198 85.9602L378.406 85.7171C378.306 85.6314 378.164 85.6158 378.048 85.6779C377.931 85.74 377.865 85.867 377.881 85.9979L378.198 85.9602ZM380.76 78.2803C380.76 78.1035 380.617 77.9603 380.44 77.9603C380.264 77.9603 380.12 78.1035 380.12 78.2803H380.76ZM378.198 132.36L377.881 132.322C377.865 132.453 377.931 132.58 378.048 132.643C378.164 132.705 378.306 132.689 378.406 132.603L378.198 132.36ZM383.004 132.36L382.812 132.616C382.915 132.694 383.055 132.701 383.166 132.636C383.277 132.571 383.338 132.445 383.321 132.317L383.004 132.36ZM380.12 139.72C380.12 139.897 380.264 140.04 380.44 140.04C380.617 140.04 380.76 139.897 380.76 139.72H380.12ZM366.664 105.16H388.131V104.52H366.664V105.16ZM366.664 113.8H388.131V113.16H366.664V113.8ZM364.059 143.634C363.667 143.491 363.284 143.446 362.918 143.519L363.044 144.147C363.271 144.101 363.534 144.124 363.84 144.235L364.059 143.634ZM362.932 143.517C362.49 143.584 362.147 143.91 361.881 144.359L362.432 144.685C362.654 144.309 362.861 144.175 363.029 144.149L362.932 143.517ZM361.886 144.351C361.6 144.803 361.373 145.515 361.188 146.45L361.816 146.574C361.998 145.655 362.207 145.041 362.427 144.693L361.886 144.351ZM361.189 146.445C361.026 147.208 360.834 147.877 360.614 148.453L361.212 148.681C361.446 148.068 361.647 147.366 361.815 146.579L361.189 146.445ZM360.615 148.452C360.398 149.012 360.142 149.446 359.852 149.765L360.326 150.195C360.682 149.802 360.975 149.295 361.212 148.683L360.615 148.452ZM359.855 149.762C359.574 150.064 359.252 150.248 358.884 150.325L359.016 150.951C359.521 150.845 359.958 150.59 360.323 150.198L359.855 149.762ZM358.884 150.325C358.525 150.401 358.078 150.357 357.529 150.157L357.31 150.758C357.929 150.984 358.503 151.06 359.016 150.951L358.884 150.325ZM357.529 150.157C357.012 149.969 356.519 149.67 356.048 149.253L355.624 149.732C356.148 150.196 356.71 150.54 357.31 150.758L357.529 150.157ZM356.051 149.255C355.578 148.827 355.156 148.315 354.787 147.716L354.242 148.052C354.64 148.698 355.1 149.258 355.621 149.729L356.051 149.255ZM354.788 147.718C354.42 147.113 354.13 146.44 353.919 145.7L353.304 145.875C353.529 146.667 353.841 147.392 354.241 148.05L354.788 147.718ZM353.919 145.7C353.71 144.964 353.604 144.188 353.604 143.371H352.964C352.964 144.243 353.077 145.079 353.304 145.875L353.919 145.7ZM353.604 143.371C353.604 142.195 353.801 141.299 354.165 140.656L353.608 140.341C353.169 141.115 352.964 142.134 352.964 143.371H353.604ZM354.165 140.656C354.533 140.007 355.009 139.608 355.591 139.426L355.4 138.815C354.639 139.054 354.042 139.574 353.608 140.341L354.165 140.656ZM355.594 139.425C356.174 139.238 356.837 139.266 357.598 139.543L357.817 138.942C356.955 138.628 356.143 138.576 355.397 138.816L355.594 139.425ZM357.387 139.242V141.818H358.027V139.242H357.387ZM357.817 141.517C357.363 141.353 356.911 141.335 356.471 141.475L356.666 142.085C356.959 141.991 357.266 141.998 357.598 142.119L357.817 141.517ZM356.483 141.472C356.019 141.602 355.649 141.904 355.37 142.343L355.91 142.686C356.119 142.356 356.369 142.169 356.655 142.088L356.483 141.472ZM355.371 142.34C355.08 142.788 354.953 143.384 354.953 144.094H355.593C355.593 143.449 355.711 142.992 355.908 142.689L355.371 142.34ZM354.953 144.094C354.953 144.839 355.062 145.5 355.29 146.068L355.884 145.83C355.694 145.354 355.593 144.779 355.593 144.094H354.953ZM355.29 146.066C355.503 146.607 355.781 147.06 356.132 147.415L356.587 146.965C356.309 146.684 356.073 146.309 355.885 145.831L355.29 146.066ZM356.135 147.418C356.476 147.754 356.845 148 357.245 148.145L357.463 147.543C357.165 147.435 356.871 147.245 356.584 146.962L356.135 147.418ZM357.245 148.145C357.536 148.251 357.819 148.302 358.086 148.281L358.035 147.643C357.884 147.655 357.695 147.628 357.463 147.543L357.245 148.145ZM358.107 148.278C358.396 148.236 358.646 148.082 358.857 147.855L358.389 147.419C358.251 147.567 358.126 147.629 358.015 147.645L358.107 148.278ZM358.865 147.847C359.067 147.614 359.241 147.277 359.394 146.861L358.794 146.639C358.651 147.025 358.511 147.279 358.382 147.427L358.865 147.847ZM359.394 146.861C359.55 146.442 359.701 145.901 359.851 145.243L359.227 145.1C359.081 145.745 358.936 146.256 358.794 146.639L359.394 146.861ZM359.851 145.243C360.109 144.119 360.415 143.248 360.762 142.619L360.201 142.31C359.815 143.011 359.493 143.945 359.227 145.1L359.851 145.243ZM360.762 142.619C361.104 141.998 361.502 141.635 361.94 141.473L361.719 140.872C361.093 141.103 360.592 141.601 360.201 142.31L360.762 142.619ZM361.94 141.473C362.376 141.312 362.939 141.332 363.657 141.592L363.875 140.991C363.075 140.7 362.347 140.64 361.719 140.872L361.94 141.473ZM363.657 141.592C364.235 141.803 364.767 142.126 365.253 142.565L365.682 142.091C365.138 141.599 364.536 141.231 363.875 140.991L363.657 141.592ZM365.255 142.567C365.741 142.998 366.165 143.527 366.524 144.155L367.08 143.838C366.689 143.154 366.223 142.57 365.68 142.088L365.255 142.567ZM366.524 144.155C366.875 144.772 367.153 145.464 367.356 146.231L367.975 146.067C367.759 145.252 367.462 144.509 367.08 143.838L366.524 144.155ZM367.356 146.228C367.549 146.978 367.647 147.782 367.647 148.639H368.287C368.287 147.733 368.184 146.876 367.976 146.069L367.356 146.228ZM367.647 148.639C367.647 149.936 367.428 150.915 367.023 151.604L367.575 151.928C368.06 151.103 368.287 149.996 368.287 148.639H367.647ZM367.023 151.604C366.611 152.306 366.094 152.732 365.478 152.921L365.666 153.533C366.463 153.288 367.098 152.741 367.575 151.928L367.023 151.604ZM365.478 152.921C364.847 153.114 364.172 153.087 363.444 152.822L363.225 153.424C364.066 153.73 364.884 153.772 365.666 153.533L365.478 152.921ZM363.654 153.123V150.533H363.014V153.123H363.654ZM363.24 150.839C363.944 151.056 364.576 151.066 365.079 150.773L364.757 150.22C364.474 150.384 364.051 150.419 363.428 150.228L363.24 150.839ZM365.083 150.77C365.539 150.495 365.857 150.075 366.044 149.536L365.44 149.327C365.295 149.744 365.064 150.034 364.752 150.222L365.083 150.77ZM366.046 149.531C366.214 149.016 366.298 148.477 366.298 147.916H365.658C365.658 148.413 365.584 148.884 365.438 149.332L366.046 149.531ZM366.298 147.916C366.298 147.185 366.207 146.529 366.02 145.954L365.412 146.151C365.573 146.649 365.658 147.236 365.658 147.916H366.298ZM366.021 145.955C365.836 145.377 365.578 144.884 365.241 144.484L364.752 144.897C365.025 145.221 365.247 145.635 365.411 146.15L366.021 145.955ZM365.241 144.484C364.904 144.086 364.51 143.798 364.059 143.634L363.84 144.235C364.173 144.356 364.477 144.573 364.752 144.897L365.241 144.484ZM380.758 104.883L383.321 86.0033L382.687 85.9172L380.123 104.797L380.758 104.883ZM382.812 85.7041L380.249 87.6241L380.632 88.1363L383.195 86.2163L382.812 85.7041ZM380.649 87.6371L378.406 85.7171L377.99 86.2033L380.232 88.1233L380.649 87.6371ZM377.881 85.9979L380.123 104.878L380.758 104.802L378.516 85.9225L377.881 85.9979ZM380.76 104.84V78.2803H380.12V104.84H380.76ZM382.683 86.6003H383.004V85.9603H382.683V86.6003ZM382.363 86.9203H383.004V86.2803H382.363V86.9203ZM381.722 87.2403H383.004V86.6003H381.722V87.2403ZM381.402 87.5603H383.004V86.9203H381.402V87.5603ZM381.081 87.8803H383.004V87.2403H381.081V87.8803ZM380.44 88.2002L383.004 88.2003L383.004 87.5603L380.44 87.5602L380.44 88.2002ZM380.44 102.6H381.081V101.96H380.44V102.6ZM380.44 102.92H380.761V102.28H380.44V102.92ZM380.44 103.24H380.761V102.6H380.44V103.24ZM380.44 103.56H380.761V102.92H380.44V103.56ZM380.44 103.88H380.761V103.24H380.44V103.88ZM380.44 104.2H380.761V103.56H380.44V104.2ZM380.44 104.52H380.761V103.88H380.44V104.52ZM380.44 104.84H380.761V104.2H380.44V104.84ZM378.519 86.6003H378.839V85.9603H378.519V86.6003ZM378.519 86.9203H379.159V86.2803H378.519V86.9203ZM378.519 87.2403H379.48V86.6003H378.519V87.2403ZM378.519 87.5603H379.8V86.9203H378.519V87.5603ZM378.519 87.8803H380.121V87.2403H378.519V87.8803ZM378.519 88.2003L380.44 88.2002L380.44 87.5602L378.519 87.5603L378.519 88.2003ZM380.123 113.442L377.881 132.322L378.516 132.398L380.758 113.518L380.123 113.442ZM378.406 132.603L380.649 130.683L380.233 130.197L377.99 132.117L378.406 132.603ZM380.249 130.696L382.812 132.616L383.196 132.104L380.633 130.184L380.249 130.696ZM383.321 132.317L380.758 113.437L380.123 113.523L382.687 132.403L383.321 132.317ZM380.12 113.48V139.72H380.76V113.48H380.12ZM378.519 130.76L380.441 130.76L380.441 130.12L378.519 130.12L378.519 130.76ZM378.519 131.08H380.121V130.44H378.519V131.08ZM378.519 131.4H379.8V130.76H378.519V131.4ZM378.519 131.72H379.48V131.08H378.519V131.72ZM378.519 132.04H379.159V131.4H378.519V132.04ZM378.519 132.36H378.839V131.72H378.519V132.36ZM380.44 114.12H380.761V113.48H380.44V114.12ZM380.44 114.44H380.761V113.8H380.44V114.44ZM380.44 114.76H380.761V114.12H380.44V114.76ZM380.44 115.08H380.761V114.44H380.44V115.08ZM380.44 115.4H380.761V114.76H380.44V115.4ZM380.44 115.72H380.761V115.08H380.44V115.72ZM380.44 116.04H380.761V115.4H380.44V116.04ZM380.44 116.36H381.081V115.72H380.44V116.36ZM380.441 130.76L383.004 130.76L383.004 130.12L380.441 130.12L380.441 130.76ZM381.081 131.08H383.004V130.44H381.081V131.08ZM381.402 131.4H383.004V130.76H381.402V131.4ZM381.722 131.72H383.004V131.08H381.722V131.72ZM382.363 132.04H383.004V131.4H382.363V132.04ZM382.683 132.36H383.004V131.72H382.683V132.36ZM380.12 104.84V113.48H380.76V104.84H380.12ZM380.12 113.48V164.68H380.76V113.48H380.12ZM378.519 88.5203H383.004V87.8803H378.519V88.5203ZM378.519 88.8403H382.683V88.2003H378.519V88.8403ZM378.839 89.1603H382.683V88.5203H378.839V89.1603ZM378.839 89.4803H382.683V88.8403H378.839V89.4803ZM378.839 89.8003L382.683 89.8003L382.683 89.1603L378.839 89.1603L378.839 89.8003ZM378.839 90.1203L382.683 90.1203L382.683 89.4803L378.839 89.4803L378.839 90.1203ZM378.839 90.4403H382.683V89.8003H378.839V90.4403ZM378.839 90.7603H382.683V90.1203H378.839V90.7603ZM378.839 91.0803H382.363V90.4403H378.839V91.0803ZM378.839 91.4003H382.363V90.7603H378.839V91.4003ZM379.159 91.7203H382.363V91.0803H379.159V91.7203ZM379.159 92.0403L382.363 92.0403L382.363 91.4003L379.159 91.4003L379.159 92.0403ZM379.159 92.3603L382.363 92.3603L382.363 91.7203L379.159 91.7203L379.159 92.3603ZM379.159 92.6803L382.363 92.6803L382.363 92.0403L379.159 92.0403L379.159 92.6803ZM379.159 93.0003L382.363 93.0003L382.363 92.3603L379.159 92.3603L379.159 93.0003ZM379.159 93.3203H382.363V92.6803H379.159V93.3203ZM379.159 93.6403H382.042V93.0003H379.159V93.6403ZM379.159 93.9603L382.042 93.9603L382.042 93.3203L379.159 93.3203L379.159 93.9603ZM379.159 94.2803L382.042 94.2803L382.042 93.6403L379.159 93.6403L379.159 94.2803ZM379.48 94.6003L382.042 94.6003L382.042 93.9603L379.48 93.9603L379.48 94.6003ZM379.48 94.9203H382.042V94.2803H379.48V94.9203ZM379.48 95.2403H382.042V94.6003H379.48V95.2403ZM379.48 95.5603H382.042V94.9203H379.48V95.5603ZM379.48 95.8803H381.722V95.2403H379.48V95.8803ZM379.48 96.2003H381.722V95.5603H379.48V96.2003ZM379.48 96.5203H381.722V95.8803H379.48V96.5203ZM379.48 96.8403H381.722V96.2003H379.48V96.8403ZM379.8 97.1603L381.722 97.1603L381.722 96.5203L379.8 96.5203L379.8 97.1603ZM379.8 97.4803L381.722 97.4803L381.722 96.8403L379.8 96.8403L379.8 97.4803ZM379.8 97.8003L381.722 97.8003L381.722 97.1603L379.8 97.1603L379.8 97.8003ZM379.8 98.1203L381.402 98.1203L381.402 97.4803L379.8 97.4803L379.8 98.1203ZM379.8 98.4403L381.402 98.4403L381.402 97.8003L379.8 97.8003L379.8 98.4403ZM379.8 98.7603L381.402 98.7603L381.402 98.1203L379.8 98.1203L379.8 98.7603ZM379.8 99.0803L381.402 99.0803L381.402 98.4403L379.8 98.4403L379.8 99.0803ZM379.8 99.4003L381.402 99.4003L381.402 98.7603L379.8 98.7603L379.8 99.4003ZM379.8 99.7203H381.402V99.0803H379.8V99.7203ZM380.121 100.04H381.402V99.4003H380.121V100.04ZM380.121 100.36H381.402V99.7203H380.121V100.36ZM380.121 100.68H381.081V100.04H380.121V100.68ZM380.121 101L381.081 101L381.081 100.36L380.121 100.36L380.121 101ZM380.121 101.32L381.081 101.32L381.081 100.68L380.121 100.68L380.121 101.32ZM380.121 101.64L381.081 101.64L381.081 101L380.121 101L380.121 101.64ZM380.121 101.96L381.081 101.96L381.081 101.32L380.121 101.32L380.121 101.96ZM380.121 102.28L381.081 102.28L381.081 101.64L380.121 101.64L380.121 102.28ZM380.121 116.68L381.081 116.68L381.081 116.04L380.121 116.04L380.121 116.68ZM380.121 117L381.081 117L381.081 116.36L380.121 116.36L380.121 117ZM380.121 117.32L381.081 117.32L381.081 116.68L380.121 116.68L380.121 117.32ZM380.121 117.64L381.081 117.64L381.081 117L380.121 117L380.121 117.64ZM380.121 117.96L381.081 117.96L381.081 117.32L380.121 117.32L380.121 117.96ZM380.121 118.28L381.081 118.28L381.081 117.64L380.121 117.64L380.121 118.28ZM380.121 118.6L381.402 118.6L381.402 117.96L380.121 117.96L380.121 118.6ZM380.121 118.92L381.402 118.92L381.402 118.28L380.121 118.28L380.121 118.92ZM379.8 119.24L381.402 119.24L381.402 118.6L379.8 118.6L379.8 119.24ZM379.8 119.56L381.402 119.56L381.402 118.92L379.8 118.92L379.8 119.56ZM379.8 119.88L381.402 119.88L381.402 119.24L379.8 119.24L379.8 119.88ZM379.8 120.2L381.402 120.2L381.402 119.56L379.8 119.56L379.8 120.2ZM379.8 120.52L381.402 120.52L381.402 119.88L379.8 119.88L379.8 120.52ZM379.8 120.84L381.402 120.84L381.402 120.2L379.8 120.2L379.8 120.84ZM379.8 121.16L381.722 121.16L381.722 120.52L379.8 120.52L379.8 121.16ZM379.8 121.48L381.722 121.48L381.722 120.84L379.8 120.84L379.8 121.48ZM379.8 121.8L381.722 121.8L381.722 121.16L379.8 121.16L379.8 121.8ZM379.48 122.12L381.722 122.12L381.722 121.48L379.48 121.48L379.48 122.12ZM379.48 122.44L381.722 122.44L381.722 121.8L379.48 121.8L379.48 122.44ZM379.48 122.76L381.722 122.76L381.722 122.12L379.48 122.12L379.48 122.76ZM379.48 123.08L381.722 123.08L381.722 122.44L379.48 122.44L379.48 123.08ZM379.48 123.4L382.042 123.4L382.042 122.76L379.48 122.76L379.48 123.4ZM379.48 123.72L382.042 123.72L382.042 123.08L379.48 123.08L379.48 123.72ZM379.48 124.04L382.042 124.04L382.042 123.4L379.48 123.4L379.48 124.04ZM379.48 124.36L382.042 124.36L382.042 123.72L379.48 123.72L379.48 124.36ZM379.159 124.68L382.042 124.68L382.042 124.04L379.159 124.04L379.159 124.68ZM379.159 125L382.042 125L382.042 124.36L379.159 124.36L379.159 125ZM379.159 125.32L382.042 125.32L382.042 124.68L379.159 124.68L379.159 125.32ZM379.159 125.64L382.363 125.64L382.363 125L379.159 125L379.159 125.64ZM379.159 125.96L382.363 125.96L382.363 125.32L379.159 125.32L379.159 125.96ZM379.159 126.28L382.363 126.28L382.363 125.64L379.159 125.64L379.159 126.28ZM379.159 126.6L382.363 126.6L382.363 125.96L379.159 125.96L379.159 126.6ZM379.159 126.92L382.363 126.92L382.363 126.28L379.159 126.28L379.159 126.92ZM379.159 127.24L382.363 127.24L382.363 126.6L379.159 126.6L379.159 127.24ZM378.839 127.56L382.363 127.56L382.363 126.92L378.839 126.92L378.839 127.56ZM378.839 127.88L382.363 127.88L382.363 127.24L378.839 127.24L378.839 127.88ZM378.839 128.2L382.683 128.2L382.683 127.56L378.839 127.56L378.839 128.2ZM378.839 128.52L382.683 128.52L382.683 127.88L378.839 127.88L378.839 128.52ZM378.839 128.84L382.683 128.84L382.683 128.2L378.839 128.2L378.839 128.84ZM378.839 129.16L382.683 129.16L382.683 128.52L378.839 128.52L378.839 129.16ZM378.839 129.48L382.683 129.48L382.683 128.84L378.839 128.84L378.839 129.48ZM378.839 129.8L382.683 129.8L382.683 129.16L378.839 129.16L378.839 129.8ZM378.519 130.12L382.683 130.12L382.683 129.48L378.519 129.48L378.519 130.12ZM378.519 130.44L383.004 130.44L383.004 129.8L378.519 129.8L378.519 130.44Z" fill="white"/>
    </g>
    <!--    15 S1-->
    <g class="group">
    </g>
    <!--    16 S2-->
    <g class="group">
    </g>
    <!--    17 S3-->
    <g class="group">
    </g>
    <!--    18 S4-->
    <g class="group">
    </g>
    <!--    19 I-->
    <g class="group">
    </g>
    <!--    20 I1-->
    <g class="group">
    </g>
    <!--    21 I2-->
    <g class="group">
    </g>
    <!--    22 H-->
    <g class="group">
    </g>
    <!--    23 H1-->
    <g class="group">
    </g>
    <!--    24 H2-->
    <g class="group">
    </g>
    <!--    25 h-->
    <g class="group">
    </g>
    <!--    26 h1-->
    <g class="group">
    </g>
    <!--    27 h2-->
    <g class="group">
    </g>
    <!--    28 R-->
    <g class="group">
    </g>
    <!--    29 Deg-->
    <g class="group">
    </g>
    <!--    29 DN-->
    <g class="group">
    </g>

</svg>
