<svg width="513" height="327" viewBox="0 0 513 327" fill="none" xmlns="http://www.w3.org/2000/svg">
<path d="M310.68 56.92V246.04V56.92Z" stroke="white" stroke-width="2.24" stroke-miterlimit="10" stroke-linecap="round" stroke-linejoin="round"/>
<path d="M310.68 56.92V64.6V56.92Z" stroke="white" stroke-width="2.24" stroke-miterlimit="10" stroke-linecap="round" stroke-linejoin="round"/>
<path d="M310.68 64.6001H393.88H310.68Z" stroke="white" stroke-width="0.96" stroke-miterlimit="10" stroke-linecap="round" stroke-linejoin="round"/>
<path d="M393.88 64.6L386.52 56.92L393.88 64.6Z" stroke="white" stroke-width="2.24" stroke-miterlimit="10" stroke-linecap="round" stroke-linejoin="round"/>
<path d="M386.52 56.92V246.04V56.92Z" stroke="white" stroke-width="2.24" stroke-miterlimit="10" stroke-linecap="round" stroke-linejoin="round"/>
<path d="M310.68 64.6L318.36 56.92L310.68 64.6Z" stroke="white" stroke-width="1.28" stroke-miterlimit="10" stroke-linecap="round" stroke-linejoin="round"/>
<path d="M326.04 64.6L318.36 56.92L326.04 64.6Z" stroke="white" stroke-width="1.28" stroke-miterlimit="10" stroke-linecap="round" stroke-linejoin="round"/>
<path d="M326.04 64.6L333.4 56.92L326.04 64.6Z" stroke="white" stroke-width="1.28" stroke-miterlimit="10" stroke-linecap="round" stroke-linejoin="round"/>
<path d="M341.08 64.6L333.4 56.92L341.08 64.6Z" stroke="white" stroke-width="1.28" stroke-miterlimit="10" stroke-linecap="round" stroke-linejoin="round"/>
<path d="M341.08 64.6L348.76 56.92L341.08 64.6Z" stroke="white" stroke-width="1.28" stroke-miterlimit="10" stroke-linecap="round" stroke-linejoin="round"/>
<path d="M356.12 64.6L348.76 56.92L356.12 64.6Z" stroke="white" stroke-width="1.28" stroke-miterlimit="10" stroke-linecap="round" stroke-linejoin="round"/>
<path d="M356.12 64.6L363.8 56.92L356.12 64.6Z" stroke="white" stroke-width="1.28" stroke-miterlimit="10" stroke-linecap="round" stroke-linejoin="round"/>
<path d="M371.16 64.6L363.8 56.92L371.16 64.6Z" stroke="white" stroke-width="1.28" stroke-miterlimit="10" stroke-linecap="round" stroke-linejoin="round"/>
<path d="M371.16 64.6L378.84 56.92L371.16 64.6Z" stroke="white" stroke-width="1.28" stroke-miterlimit="10" stroke-linecap="round" stroke-linejoin="round"/>
<path d="M386.52 64.6L378.84 56.92L386.52 64.6Z" stroke="white" stroke-width="1.28" stroke-miterlimit="10" stroke-linecap="round" stroke-linejoin="round"/>
<path d="M310.68 238.36H393.88H310.68Z" stroke="white" stroke-width="0.96" stroke-miterlimit="10" stroke-linecap="round" stroke-linejoin="round"/>
<path d="M393.88 238.36L386.52 246.04L393.88 238.36Z" stroke="white" stroke-width="2.24" stroke-miterlimit="10" stroke-linecap="round" stroke-linejoin="round"/>
<path d="M310.68 238.36L318.36 246.04L310.68 238.36Z" stroke="white" stroke-width="1.28" stroke-miterlimit="10" stroke-linecap="round" stroke-linejoin="round"/>
<path d="M326.04 238.36L318.36 246.04L326.04 238.36Z" stroke="white" stroke-width="1.28" stroke-miterlimit="10" stroke-linecap="round" stroke-linejoin="round"/>
<path d="M326.04 238.36L333.4 246.04L326.04 238.36Z" stroke="white" stroke-width="1.28" stroke-miterlimit="10" stroke-linecap="round" stroke-linejoin="round"/>
<path d="M341.08 238.36L333.4 246.04L341.08 238.36Z" stroke="white" stroke-width="1.28" stroke-miterlimit="10" stroke-linecap="round" stroke-linejoin="round"/>
<path d="M341.08 238.36L348.76 246.04L341.08 238.36Z" stroke="white" stroke-width="1.28" stroke-miterlimit="10" stroke-linecap="round" stroke-linejoin="round"/>
<path d="M356.12 238.36L348.76 246.04L356.12 238.36Z" stroke="white" stroke-width="1.28" stroke-miterlimit="10" stroke-linecap="round" stroke-linejoin="round"/>
<path d="M356.12 238.36L363.8 246.04L356.12 238.36Z" stroke="white" stroke-width="1.28" stroke-miterlimit="10" stroke-linecap="round" stroke-linejoin="round"/>
<path d="M371.16 238.36L363.8 246.04L371.16 238.36Z" stroke="white" stroke-width="1.28" stroke-miterlimit="10" stroke-linecap="round" stroke-linejoin="round"/>
<path d="M371.16 238.36L378.84 246.04L371.16 238.36Z" stroke="white" stroke-width="1.28" stroke-miterlimit="10" stroke-linecap="round" stroke-linejoin="round"/>
<path d="M386.52 238.36L378.84 246.04L386.52 238.36Z" stroke="white" stroke-width="1.28" stroke-miterlimit="10" stroke-linecap="round" stroke-linejoin="round"/>
<path d="M393.88 238.36V64.6001V238.36Z" stroke="white" stroke-width="2.24" stroke-miterlimit="10" stroke-linecap="round" stroke-linejoin="round"/>
<path d="M386.52 56.92H99.16H386.52Z" stroke="white" stroke-width="2.24" stroke-miterlimit="10" stroke-linecap="round" stroke-linejoin="round"/>
<path d="M91.48 64.6L99.16 56.92L91.48 64.6Z" stroke="white" stroke-width="2.24" stroke-miterlimit="10" stroke-linecap="round" stroke-linejoin="round"/>
<path d="M91.48 238.36L99.16 246.04L91.48 238.36Z" stroke="white" stroke-width="2.24" stroke-miterlimit="10" stroke-linecap="round" stroke-linejoin="round"/>
<path d="M91.48 64.6001V238.36V64.6001Z" stroke="white" stroke-width="2.24" stroke-miterlimit="10" stroke-linecap="round" stroke-linejoin="round"/>
<path d="M91.48 109.72L96.6 107.8L91.48 109.72Z" stroke="white" stroke-width="0.64" stroke-miterlimit="10" stroke-linecap="round" stroke-linejoin="round"/>
<path d="M96.6 107.8L101.08 106.52L96.6 107.8Z" stroke="white" stroke-width="0.64" stroke-miterlimit="10" stroke-linecap="round" stroke-linejoin="round"/>
<path d="M101.08 106.52L106.2 105.88L101.08 106.52Z" stroke="white" stroke-width="0.64" stroke-miterlimit="10" stroke-linecap="round" stroke-linejoin="round"/>
<path d="M106.2 105.88L108.76 105.56L106.2 105.88Z" stroke="white" stroke-width="0.64" stroke-miterlimit="10" stroke-linecap="round" stroke-linejoin="round"/>
<path d="M108.76 105.56H110.36H108.76Z" stroke="white" stroke-width="0.64" stroke-miterlimit="10" stroke-linecap="round" stroke-linejoin="round"/>
<path d="M110.36 105.56H111.64H110.36Z" stroke="white" stroke-width="0.64" stroke-miterlimit="10" stroke-linecap="round" stroke-linejoin="round"/>
<path d="M111.64 105.56H113.24H111.64Z" stroke="white" stroke-width="0.64" stroke-miterlimit="10" stroke-linecap="round" stroke-linejoin="round"/>
<path d="M113.24 105.56H115.16H113.24Z" stroke="white" stroke-width="0.64" stroke-miterlimit="10" stroke-linecap="round" stroke-linejoin="round"/>
<path d="M115.16 105.56H118.36H115.16Z" stroke="white" stroke-width="0.64" stroke-miterlimit="10" stroke-linecap="round" stroke-linejoin="round"/>
<path d="M118.36 105.56L123.48 105.24L118.36 105.56Z" stroke="white" stroke-width="0.64" stroke-miterlimit="10" stroke-linecap="round" stroke-linejoin="round"/>
<path d="M123.48 105.24L128.6 104.6L123.48 105.24Z" stroke="white" stroke-width="0.64" stroke-miterlimit="10" stroke-linecap="round" stroke-linejoin="round"/>
<path d="M128.6 104.6H129.56H128.6Z" stroke="white" stroke-width="0.64" stroke-miterlimit="10" stroke-linecap="round" stroke-linejoin="round"/>
<path d="M129.56 104.6L131.16 104.28L129.56 104.6Z" stroke="white" stroke-width="0.64" stroke-miterlimit="10" stroke-linecap="round" stroke-linejoin="round"/>
<path d="M131.16 104.28L135 103.64L131.16 104.28Z" stroke="white" stroke-width="0.64" stroke-miterlimit="10" stroke-linecap="round" stroke-linejoin="round"/>
<path d="M135 103.64L142.36 101.72L135 103.64Z" stroke="white" stroke-width="0.64" stroke-miterlimit="10" stroke-linecap="round" stroke-linejoin="round"/>
<path d="M142.36 101.72L146.84 100.44L142.36 101.72Z" stroke="white" stroke-width="0.64" stroke-miterlimit="10" stroke-linecap="round" stroke-linejoin="round"/>
<path d="M146.84 100.44L150.04 99.48L146.84 100.44Z" stroke="white" stroke-width="0.64" stroke-miterlimit="10" stroke-linecap="round" stroke-linejoin="round"/>
<path d="M150.04 99.48L153.24 98.52L150.04 99.48Z" stroke="white" stroke-width="0.64" stroke-miterlimit="10" stroke-linecap="round" stroke-linejoin="round"/>
<path d="M153.24 98.52L157.08 97.24L153.24 98.52Z" stroke="white" stroke-width="0.64" stroke-miterlimit="10" stroke-linecap="round" stroke-linejoin="round"/>
<path d="M157.08 97.2401L161.88 95.3201L157.08 97.2401Z" stroke="white" stroke-width="0.64" stroke-miterlimit="10" stroke-linecap="round" stroke-linejoin="round"/>
<path d="M161.88 95.32L165.4 93.72L161.88 95.32Z" stroke="white" stroke-width="0.64" stroke-miterlimit="10" stroke-linecap="round" stroke-linejoin="round"/>
<path d="M165.4 93.72L166.36 93.4L165.4 93.72Z" stroke="white" stroke-width="0.64" stroke-miterlimit="10" stroke-linecap="round" stroke-linejoin="round"/>
<path d="M166.36 93.4L167.64 92.76L166.36 93.4Z" stroke="white" stroke-width="0.64" stroke-miterlimit="10" stroke-linecap="round" stroke-linejoin="round"/>
<path d="M167.64 92.76L170.2 91.48L167.64 92.76Z" stroke="white" stroke-width="0.64" stroke-miterlimit="10" stroke-linecap="round" stroke-linejoin="round"/>
<path d="M170.2 91.48L174.68 88.92L170.2 91.48Z" stroke="white" stroke-width="0.64" stroke-miterlimit="10" stroke-linecap="round" stroke-linejoin="round"/>
<path d="M174.68 88.92L180.44 85.4L174.68 88.92Z" stroke="white" stroke-width="0.64" stroke-miterlimit="10" stroke-linecap="round" stroke-linejoin="round"/>
<path d="M180.44 85.4L184.28 82.52L180.44 85.4Z" stroke="white" stroke-width="0.64" stroke-miterlimit="10" stroke-linecap="round" stroke-linejoin="round"/>
<path d="M184.28 82.52L186.2 81.24L184.28 82.52Z" stroke="white" stroke-width="0.64" stroke-miterlimit="10" stroke-linecap="round" stroke-linejoin="round"/>
<path d="M186.2 81.24L187.16 80.28L186.2 81.24Z" stroke="white" stroke-width="0.64" stroke-miterlimit="10" stroke-linecap="round" stroke-linejoin="round"/>
<path d="M187.16 80.28L188.12 79.64L187.16 80.28Z" stroke="white" stroke-width="0.64" stroke-miterlimit="10" stroke-linecap="round" stroke-linejoin="round"/>
<path d="M188.12 79.64L189.08 79L188.12 79.64Z" stroke="white" stroke-width="0.64" stroke-miterlimit="10" stroke-linecap="round" stroke-linejoin="round"/>
<path d="M189.08 79L190.68 78.04L189.08 79Z" stroke="white" stroke-width="0.64" stroke-miterlimit="10" stroke-linecap="round" stroke-linejoin="round"/>
<path d="M190.68 78.04L192.28 76.76L190.68 78.04Z" stroke="white" stroke-width="0.64" stroke-miterlimit="10" stroke-linecap="round" stroke-linejoin="round"/>
<path d="M192.28 76.7601L192.6 76.4401L192.28 76.7601Z" stroke="white" stroke-width="0.64" stroke-miterlimit="10" stroke-linecap="round" stroke-linejoin="round"/>
<path d="M192.6 76.44L193.88 75.8L192.6 76.44Z" stroke="white" stroke-width="0.64" stroke-miterlimit="10" stroke-linecap="round" stroke-linejoin="round"/>
<path d="M193.88 75.8L195.48 74.52L193.88 75.8Z" stroke="white" stroke-width="0.64" stroke-miterlimit="10" stroke-linecap="round" stroke-linejoin="round"/>
<path d="M195.48 74.52L196.44 73.88L195.48 74.52Z" stroke="white" stroke-width="0.64" stroke-miterlimit="10" stroke-linecap="round" stroke-linejoin="round"/>
<path d="M196.44 73.88H197.08H196.44Z" stroke="white" stroke-width="0.64" stroke-miterlimit="10" stroke-linecap="round" stroke-linejoin="round"/>
<path d="M197.08 73.8801L197.4 73.5601L197.08 73.8801Z" stroke="white" stroke-width="0.64" stroke-miterlimit="10" stroke-linecap="round" stroke-linejoin="round"/>
<path d="M197.4 73.56L198.04 73.24L197.4 73.56Z" stroke="white" stroke-width="0.64" stroke-miterlimit="10" stroke-linecap="round" stroke-linejoin="round"/>
<path d="M198.04 73.2401L199 72.6001L198.04 73.2401Z" stroke="white" stroke-width="0.64" stroke-miterlimit="10" stroke-linecap="round" stroke-linejoin="round"/>
<path d="M199 72.6L200.28 71.64L199 72.6Z" stroke="white" stroke-width="0.64" stroke-miterlimit="10" stroke-linecap="round" stroke-linejoin="round"/>
<path d="M200.28 71.6401L201.88 70.6801L200.28 71.6401Z" stroke="white" stroke-width="0.64" stroke-miterlimit="10" stroke-linecap="round" stroke-linejoin="round"/>
<path d="M201.88 70.68L204.76 68.76L201.88 70.68Z" stroke="white" stroke-width="0.64" stroke-miterlimit="10" stroke-linecap="round" stroke-linejoin="round"/>
<path d="M204.76 68.7601L207.96 65.5601L204.76 68.7601Z" stroke="white" stroke-width="0.64" stroke-miterlimit="10" stroke-linecap="round" stroke-linejoin="round"/>
<path d="M207.96 65.56L210.52 62.04L207.96 65.56Z" stroke="white" stroke-width="0.64" stroke-miterlimit="10" stroke-linecap="round" stroke-linejoin="round"/>
<path d="M210.52 62.04L211.48 58.52L210.52 62.04Z" stroke="white" stroke-width="0.64" stroke-miterlimit="10" stroke-linecap="round" stroke-linejoin="round"/>
<path d="M211.48 58.52V56.92V58.52Z" stroke="white" stroke-width="0.64" stroke-miterlimit="10" stroke-linecap="round" stroke-linejoin="round"/>
<path d="M91.48 66.8401H207H91.48Z" stroke="white" stroke-width="2.24" stroke-miterlimit="10" stroke-linecap="round" stroke-linejoin="round"/>
<path d="M99.16 106.84V246.04V106.84Z" stroke="white" stroke-width="2.24" stroke-miterlimit="10" stroke-linecap="round" stroke-linejoin="round"/>
<path d="M99.16 246.04H386.52H99.16Z" stroke="white" stroke-width="2.24" stroke-miterlimit="10" stroke-linecap="round" stroke-linejoin="round"/>
<path d="M192.28 66.84L201.88 56.92L192.28 66.84Z" stroke="white" stroke-width="0.64" stroke-miterlimit="10" stroke-linecap="round" stroke-linejoin="round"/>
<path d="M176.28 66.84L185.88 56.92L176.28 66.84Z" stroke="white" stroke-width="0.64" stroke-miterlimit="10" stroke-linecap="round" stroke-linejoin="round"/>
<path d="M160.28 66.84L169.88 56.92L160.28 66.84Z" stroke="white" stroke-width="0.64" stroke-miterlimit="10" stroke-linecap="round" stroke-linejoin="round"/>
<path d="M144.28 66.84L153.88 56.92L144.28 66.84Z" stroke="white" stroke-width="0.64" stroke-miterlimit="10" stroke-linecap="round" stroke-linejoin="round"/>
<path d="M128.28 66.84L137.88 56.92L128.28 66.84Z" stroke="white" stroke-width="0.64" stroke-miterlimit="10" stroke-linecap="round" stroke-linejoin="round"/>
<path d="M111.96 66.84L121.88 56.92L111.96 66.84Z" stroke="white" stroke-width="0.64" stroke-miterlimit="10" stroke-linecap="round" stroke-linejoin="round"/>
<path d="M95.96 66.84L105.88 56.92L95.96 66.84Z" stroke="white" stroke-width="0.64" stroke-miterlimit="10" stroke-linecap="round" stroke-linejoin="round"/>

    <!--    1 A-->
    <g class="group">
    </g>
    <!--    2 D-->
    <g class="group">
        <path d="M32.1222 151.754V159.502L8.53104 150.915V142.824C8.53104 140.389 9.00332 138.477 9.94789 137.088C10.8848 135.696 12.2325 134.859 13.9911 134.576C15.742 134.289 17.8385 134.591 20.2806 135.48C22.738 136.374 24.8536 137.61 26.6276 139.187C28.3939 140.762 29.7531 142.613 30.7054 144.742C31.6499 146.867 32.1222 149.205 32.1222 151.754ZM29.588 155.539V151.028C29.588 148.952 29.2117 147.095 28.4591 145.456C27.7066 143.818 26.6353 142.41 25.2453 141.234C23.8553 140.058 22.2004 139.121 20.2806 138.422C18.3761 137.729 16.7365 137.463 15.3619 137.624C13.9796 137.783 12.9198 138.386 12.1826 139.434C11.4377 140.478 11.0652 141.981 11.0652 143.943V148.797L29.588 155.539Z" fill="white"/>
        <path d="M83.8 246.36C83.9767 246.36 84.12 246.217 84.12 246.04C84.12 245.863 83.9767 245.72 83.8 245.72V246.36ZM55.96 57.24C56.1367 57.24 56.28 57.0968 56.28 56.92C56.28 56.7433 56.1367 56.6 55.96 56.6V57.24ZM29.72 56.6C29.5432 56.6 29.4 56.7433 29.4 56.92C29.4 57.0968 29.5432 57.24 29.72 57.24V56.6ZM29.72 245.72C29.5432 245.72 29.4 245.863 29.4 246.04C29.4 246.217 29.5432 246.36 29.72 246.36V245.72ZM32.1222 159.502L32.0128 159.802C32.1109 159.838 32.2202 159.824 32.3058 159.764C32.3913 159.704 32.4422 159.606 32.4422 159.502H32.1222ZM8.53104 150.915H8.21104C8.21104 151.049 8.29517 151.169 8.42158 151.215L8.53104 150.915ZM9.94789 137.088L10.2125 137.268L10.2133 137.267L9.94789 137.088ZM13.9911 134.576L14.042 134.891L14.0427 134.891L13.9911 134.576ZM20.2806 135.48L20.1711 135.78L20.2806 135.48ZM26.6276 139.187L26.8405 138.949L26.8402 138.948L26.6276 139.187ZM30.7054 144.742L30.9978 144.612L30.9975 144.611L30.7054 144.742ZM29.588 155.539L29.4786 155.84C29.5767 155.876 29.686 155.861 29.7716 155.801C29.8571 155.741 29.908 155.644 29.908 155.539H29.588ZM20.2806 138.422L20.39 138.121L20.2806 138.422ZM15.3619 137.624L15.3984 137.942L15.3992 137.942L15.3619 137.624ZM12.1826 139.434L12.4431 139.619L12.4443 139.618L12.1826 139.434ZM11.0652 148.797H10.7452C10.7452 148.931 10.8294 149.052 10.9558 149.098L11.0652 148.797ZM37.4 56.92L37.7171 56.877C37.6956 56.7184 37.5601 56.6 37.4 56.6C37.2399 56.6 37.1044 56.7184 37.0829 56.877L37.4 56.92ZM39.96 75.8L39.7904 76.0714C39.8956 76.1372 40.0294 76.1362 40.1336 76.0688C40.2379 76.0015 40.2938 75.88 40.2771 75.757L39.96 75.8ZM34.84 75.8001L34.5229 75.7571C34.5062 75.88 34.5621 76.0016 34.6664 76.0689C34.7706 76.1362 34.9044 76.1372 35.0096 76.0714L34.84 75.8001ZM37.4 246.04L37.0829 246.083C37.1044 246.242 37.2399 246.36 37.4 246.36C37.5601 246.36 37.6956 246.242 37.7171 246.083L37.4 246.04ZM34.84 227.16L35.032 226.904C34.9288 226.827 34.7892 226.819 34.6779 226.884C34.5667 226.949 34.5056 227.075 34.5229 227.203L34.84 227.16ZM37.4 229.08L37.4 229.4L37.4 229.4L37.4 229.08ZM39.96 227.16L40.2771 227.203C40.2944 227.075 40.2333 226.949 40.1221 226.884C40.0108 226.819 39.8712 226.827 39.768 226.904L39.96 227.16ZM55.96 56.6H29.72V57.24H55.96V56.6ZM31.8022 151.754V159.502H32.4422V151.754H31.8022ZM32.2317 159.201L8.64049 150.614L8.42158 151.215L32.0128 159.802L32.2317 159.201ZM8.85104 150.915V142.824H8.21104V150.915H8.85104ZM8.85104 142.824C8.85104 140.425 9.31689 138.585 10.2125 137.268L9.6833 136.908C8.68975 138.369 8.21104 140.352 8.21104 142.824H8.85104ZM10.2133 137.267C11.0974 135.953 12.3648 135.162 14.042 134.891L13.9402 134.26C12.1003 134.556 10.6721 135.439 9.68245 136.909L10.2133 137.267ZM14.0427 134.891C15.7201 134.617 17.7582 134.902 20.1711 135.78L20.39 135.179C17.9188 134.279 15.7639 133.962 13.9395 134.26L14.0427 134.891ZM20.1711 135.78C22.5944 136.662 24.6741 137.879 26.415 139.427L26.8402 138.948C25.0332 137.342 22.8815 136.086 20.39 135.179L20.1711 135.78ZM26.4147 139.426C28.1477 140.971 29.4798 142.786 30.4133 144.872L30.9975 144.611C30.0265 142.441 28.64 140.553 26.8405 138.949L26.4147 139.426ZM30.4129 144.872C31.3376 146.952 31.8022 149.245 31.8022 151.754H32.4422C32.4422 149.164 31.9622 146.782 30.9978 144.612L30.4129 144.872ZM29.908 155.539V151.028H29.268V155.539H29.908ZM29.908 151.028C29.908 148.913 29.5245 147.009 28.7499 145.323L28.1683 145.59C28.899 147.181 29.268 148.991 29.268 151.028H29.908ZM28.7499 145.323C27.9776 143.641 26.8774 142.196 25.452 140.99L25.0386 141.478C26.3931 142.624 27.4355 143.994 28.1683 145.59L28.7499 145.323ZM25.452 140.99C24.0299 139.787 22.341 138.831 20.39 138.121L20.1711 138.722C22.0598 139.41 23.6808 140.329 25.0386 141.478L25.452 140.99ZM20.39 138.121C18.4587 137.418 16.7664 137.137 15.3245 137.306L15.3992 137.942C16.7066 137.788 18.2934 138.039 20.1711 138.722L20.39 138.121ZM15.3254 137.306C13.8612 137.475 12.7156 138.12 11.9209 139.249L12.4443 139.618C13.1241 138.652 14.098 138.092 15.3984 137.942L15.3254 137.306ZM11.9221 139.248C11.1229 140.368 10.7452 141.948 10.7452 143.943H11.3852C11.3852 142.015 11.7525 140.588 12.4431 139.619L11.9221 139.248ZM10.7452 143.943V148.797H11.3852V143.943H10.7452ZM10.9558 149.098L29.4786 155.84L29.6975 155.239L11.1747 148.496L10.9558 149.098ZM37.0829 56.963L39.6429 75.843L40.2771 75.757L37.7171 56.877L37.0829 56.963ZM40.1296 75.5287L37.5696 73.9287L37.2304 74.4714L39.7904 76.0714L40.1296 75.5287ZM37.2304 73.9287L34.6704 75.5287L35.0096 76.0714L37.5696 74.4714L37.2304 73.9287ZM35.1571 75.8431L37.7171 56.963L37.0829 56.877L34.5229 75.7571L35.1571 75.8431ZM37.4 57.56H37.72V56.92H37.4V57.56ZM37.4 57.88H37.72V57.24H37.4V57.88ZM37.4 58.2H37.72V57.56H37.4V58.2ZM37.4 58.52H37.72V57.88H37.4V58.52ZM37.4 58.84H37.72V58.2H37.4V58.84ZM37.4 59.16H37.72V58.52H37.4V59.16ZM37.4 59.48H37.72V58.84H37.4V59.48ZM37.4 74.5201L39.96 74.52L39.96 73.88L37.4 73.8801L37.4 74.5201ZM38.04 74.84H39.96V74.2H38.04V74.84ZM38.68 75.16H39.96V74.52H38.68V75.16ZM39 75.48H39.96V74.84H39V75.48ZM39.64 75.8H39.96V75.16H39.64V75.8ZM35.16 74.52L37.4 74.5201L37.4 73.8801L35.16 73.88L35.16 74.52ZM35.16 74.84H37.08V74.2H35.16V74.84ZM35.16 75.16H36.44V74.52H35.16V75.16ZM35.16 75.48H36.12V74.84H35.16V75.48ZM35.16 75.8H35.48V75.16H35.16V75.8ZM37.7171 245.997L35.1571 227.117L34.5229 227.203L37.0829 246.083L37.7171 245.997ZM34.648 227.416L37.208 229.336L37.592 228.824L35.032 226.904L34.648 227.416ZM37.592 229.336L40.152 227.416L39.768 226.904L37.208 228.824L37.592 229.336ZM39.6429 227.117L37.0829 245.997L37.7171 246.083L40.2771 227.203L39.6429 227.117ZM35.16 227.8H35.48V227.16H35.16V227.8ZM35.16 228.12H35.8V227.48H35.16V228.12ZM35.16 228.44H36.12V227.8H35.16V228.44ZM35.16 228.76H36.76V228.12H35.16V228.76ZM35.16 229.08H37.08V228.44H35.16V229.08ZM35.16 229.4L37.4 229.4L37.4 228.76L35.16 228.76L35.16 229.4ZM39.64 227.8H39.96V227.16H39.64V227.8ZM39.32 228.12H39.96V227.48H39.32V228.12ZM38.68 228.44H39.96V227.8H38.68V228.44ZM38.36 228.76H39.96V228.12H38.36V228.76ZM38.04 229.08H39.96V228.44H38.04V229.08ZM37.4 229.4L39.96 229.4L39.96 228.76L37.4 228.76L37.4 229.4ZM37.4 244.12H37.72V243.48H37.4V244.12ZM37.4 244.44H37.72V243.8H37.4V244.44ZM37.4 244.76H37.72V244.12H37.4V244.76ZM37.4 245.08H37.72V244.44H37.4V245.08ZM37.4 245.4H37.72V244.76H37.4V245.4ZM37.4 245.72H37.72V245.08H37.4V245.72ZM37.4 246.04H37.72V245.4H37.4V246.04ZM37.08 56.92L37.08 246.04L37.72 246.04L37.72 56.92L37.08 56.92ZM29.72 246.36H83.8V245.72H29.72V246.36ZM37.08 59.8L38.04 59.8L38.04 59.16L37.08 59.16L37.08 59.8ZM37.08 60.12L38.04 60.12L38.04 59.48L37.08 59.48L37.08 60.12ZM37.08 60.44L38.04 60.44L38.04 59.8L37.08 59.8L37.08 60.44ZM37.08 60.76L38.04 60.76L38.04 60.12L37.08 60.12L37.08 60.76ZM37.08 61.08L38.04 61.08L38.04 60.44L37.08 60.44L37.08 61.08ZM37.08 61.4L38.04 61.4L38.04 60.76L37.08 60.76L37.08 61.4ZM37.08 61.72L38.04 61.72L38.04 61.08L37.08 61.08L37.08 61.72ZM36.76 62.04L38.36 62.04L38.36 61.4L36.76 61.4L36.76 62.04ZM36.76 62.36L38.36 62.36L38.36 61.72L36.76 61.72L36.76 62.36ZM36.76 62.68L38.36 62.68L38.36 62.04L36.76 62.04L36.76 62.68ZM36.76 63L38.36 63L38.36 62.36L36.76 62.36L36.76 63ZM36.76 63.32L38.36 63.32L38.36 62.68L36.76 62.68L36.76 63.32ZM36.76 63.64L38.36 63.64L38.36 63L36.76 63L36.76 63.64ZM36.76 63.96L38.36 63.96L38.36 63.32L36.76 63.32L36.76 63.96ZM36.76 64.28L38.36 64.28L38.36 63.64L36.76 63.64L36.76 64.28ZM36.44 64.6L38.68 64.6L38.68 63.96L36.44 63.96L36.44 64.6ZM36.44 64.92L38.68 64.92L38.68 64.28L36.44 64.28L36.44 64.92ZM36.44 65.24L38.68 65.24L38.68 64.6L36.44 64.6L36.44 65.24ZM36.44 65.56L38.68 65.56L38.68 64.92L36.44 64.92L36.44 65.56ZM36.44 65.88L38.68 65.88L38.68 65.24L36.44 65.24L36.44 65.88ZM36.44 66.2L38.68 66.2L38.68 65.56L36.44 65.56L36.44 66.2ZM36.44 66.52L38.68 66.52L38.68 65.88L36.44 65.88L36.44 66.52ZM36.12 66.84L39 66.84L39 66.2L36.12 66.2L36.12 66.84ZM36.12 67.16L39 67.16L39 66.52L36.12 66.52L36.12 67.16ZM36.12 67.48L39 67.48L39 66.84L36.12 66.84L36.12 67.48ZM36.12 67.8L39 67.8L39 67.16L36.12 67.16L36.12 67.8ZM36.12 68.12L39 68.12L39 67.48L36.12 67.48L36.12 68.12ZM36.12 68.44L39 68.44L39 67.8L36.12 67.8L36.12 68.44ZM36.12 68.76L39 68.76L39 68.12L36.12 68.12L36.12 68.76ZM35.8 69.08L39.32 69.08L39.32 68.44L35.8 68.44L35.8 69.08ZM35.8 69.4L39.32 69.4L39.32 68.76L35.8 68.76L35.8 69.4ZM35.8 69.72L39.32 69.72L39.32 69.08L35.8 69.08L35.8 69.72ZM35.8 70.04L39.32 70.04L39.32 69.4L35.8 69.4L35.8 70.04ZM35.8 70.36L39.32 70.36L39.32 69.72L35.8 69.72L35.8 70.36ZM35.8 70.68L39.32 70.68L39.32 70.04L35.8 70.04L35.8 70.68ZM35.8 71L39.32 71L39.32 70.36L35.8 70.36L35.8 71ZM35.8 71.32L39.32 71.32L39.32 70.68L35.8 70.68L35.8 71.32ZM35.48 71.64L39.64 71.64L39.64 71L35.48 71L35.48 71.64ZM35.48 71.96L39.64 71.96L39.64 71.32L35.48 71.32L35.48 71.96ZM35.48 72.28L39.64 72.28L39.64 71.64L35.48 71.64L35.48 72.28ZM35.48 72.6L39.64 72.6L39.64 71.96L35.48 71.96L35.48 72.6ZM35.48 72.92L39.64 72.92L39.64 72.28L35.48 72.28L35.48 72.92ZM35.48 73.24L39.64 73.24L39.64 72.6L35.48 72.6L35.48 73.24ZM35.48 73.56L39.64 73.56L39.64 72.92L35.48 72.92L35.48 73.56ZM35.16 73.88L39.96 73.88L39.96 73.24L35.16 73.24L35.16 73.88ZM35.16 74.2L39.96 74.2L39.96 73.56L35.16 73.56L35.16 74.2ZM35.16 229.72H39.96V229.08H35.16V229.72ZM35.48 230.04H39.64V229.4H35.48V230.04ZM35.48 230.36H39.64V229.72H35.48V230.36ZM35.48 230.68H39.64V230.04H35.48V230.68ZM35.48 231H39.64V230.36H35.48V231ZM35.48 231.32H39.64V230.68H35.48V231.32ZM35.48 231.64H39.64V231H35.48V231.64ZM35.48 231.96H39.64V231.32H35.48V231.96ZM35.8 232.28H39.32V231.64H35.8V232.28ZM35.8 232.6H39.32V231.96H35.8V232.6ZM35.8 232.92H39.32V232.28H35.8V232.92ZM35.8 233.24H39.32V232.6H35.8V233.24ZM35.8 233.56H39.32V232.92H35.8V233.56ZM35.8 233.88H39.32V233.24H35.8V233.88ZM35.8 234.2H39.32V233.56H35.8V234.2ZM35.8 234.52H39.32V233.88H35.8V234.52ZM36.12 234.84H39V234.2H36.12V234.84ZM36.12 235.16H39V234.52H36.12V235.16ZM36.12 235.48H39V234.84H36.12V235.48ZM36.12 235.8H39V235.16H36.12V235.8ZM36.12 236.12H39V235.48H36.12V236.12ZM36.12 236.44H39V235.8H36.12V236.44ZM36.12 236.76H39V236.12H36.12V236.76ZM36.44 237.08H38.68V236.44H36.44V237.08ZM36.44 237.4H38.68V236.76H36.44V237.4ZM36.44 237.72H38.68V237.08H36.44V237.72ZM36.44 238.04H38.68V237.4H36.44V238.04ZM36.44 238.36H38.68V237.72H36.44V238.36ZM36.44 238.68H38.68V238.04H36.44V238.68ZM36.44 239H38.68V238.36H36.44V239ZM36.76 239.32H38.36V238.68H36.76V239.32ZM36.76 239.64H38.36V239H36.76V239.64ZM36.76 239.96H38.36V239.32H36.76V239.96ZM36.76 240.28H38.36V239.64H36.76V240.28ZM36.76 240.6H38.36V239.96H36.76V240.6ZM36.76 240.92H38.36V240.28H36.76V240.92ZM36.76 241.24H38.36V240.6H36.76V241.24ZM36.76 241.56H38.36V240.92H36.76V241.56ZM37.08 241.88H38.04V241.24H37.08V241.88ZM37.08 242.2H38.04V241.56H37.08V242.2ZM37.08 242.52H38.04V241.88H37.08V242.52ZM37.08 242.84H38.04V242.2H37.08V242.84ZM37.08 243.16H38.04V242.52H37.08V243.16ZM37.08 243.48H38.04V242.84H37.08V243.48ZM37.08 243.8H38.04V243.16H37.08V243.8Z" fill="white"/>
    </g>
    <!--    3 Dy-->
    <g class="group">
    </g>
    <!--    4 Dh-->
    <g class="group">
    </g>
    <!--    5 D1-->
    <g class="group">
    </g>
    <!--   6 D2-->
    <g class="group">
    </g>
    <!--   7 d-->
    <g class="group">
        <path d="M501.634 152.775C501.634 155.026 501.099 156.819 500.031 158.153C498.951 159.483 497.431 160.278 495.47 160.538C493.498 160.793 491.168 160.431 488.48 159.453C485.814 158.482 483.501 157.154 481.54 155.467C479.579 153.78 478.064 151.875 476.995 149.751C475.927 147.627 475.393 145.427 475.393 143.153C475.393 141.395 475.668 140.106 476.219 139.286C476.759 138.451 477.376 137.89 478.07 137.603C478.753 137.301 479.314 137.078 479.755 136.933V136.581L467.263 132.034V127.884L501.105 140.203V144.212L497.205 142.793V143.285C497.668 143.758 498.252 144.404 498.957 145.224C499.651 146.039 500.273 147.069 500.824 148.313C501.364 149.553 501.634 151.04 501.634 152.775ZM498.13 150.937C498.13 149.273 497.723 147.717 496.908 146.272C496.081 144.822 494.941 143.534 493.487 142.406C492.022 141.275 490.331 140.361 488.414 139.663C486.519 138.973 484.861 138.663 483.44 138.732C482.008 138.797 480.895 139.259 480.102 140.119C479.298 140.976 478.896 142.248 478.896 143.936C478.896 145.694 479.32 147.314 480.168 148.795C481.005 150.261 482.146 151.549 483.589 152.661C485.021 153.756 486.629 154.629 488.414 155.279C490.221 155.936 491.862 156.241 493.338 156.192C494.803 156.127 495.971 155.673 496.841 154.829C497.701 153.97 498.13 152.672 498.13 150.937Z" fill="white"/>
        <path d="M401.88 56.6C401.703 56.6 401.56 56.7433 401.56 56.92C401.56 57.0968 401.703 57.24 401.88 57.24V56.6ZM460.76 57.24C460.937 57.24 461.08 57.0968 461.08 56.92C461.08 56.7433 460.937 56.6 460.76 56.6V57.24ZM401.88 245.72C401.703 245.72 401.56 245.863 401.56 246.04C401.56 246.217 401.703 246.36 401.88 246.36V245.72ZM460.76 246.36C460.937 246.36 461.08 246.217 461.08 246.04C461.08 245.863 460.937 245.72 460.76 245.72V246.36ZM500.031 158.153L500.279 158.355L500.28 158.353L500.031 158.153ZM495.47 160.538L495.511 160.855L495.512 160.855L495.47 160.538ZM488.48 159.453L488.371 159.754L488.371 159.754L488.48 159.453ZM481.54 155.467L481.331 155.71L481.331 155.71L481.54 155.467ZM476.995 149.751L476.71 149.894L476.71 149.894L476.995 149.751ZM476.219 139.286L476.484 139.465L476.488 139.46L476.219 139.286ZM478.07 137.603L478.192 137.899L478.199 137.896L478.07 137.603ZM479.755 136.933L479.855 137.237C479.986 137.194 480.075 137.072 480.075 136.933H479.755ZM479.755 136.581H480.075C480.075 136.447 479.991 136.327 479.865 136.281L479.755 136.581ZM467.263 132.034H466.943C466.943 132.169 467.027 132.289 467.153 132.335L467.263 132.034ZM467.263 127.884L467.372 127.583C467.274 127.548 467.165 127.562 467.079 127.622C466.993 127.682 466.943 127.78 466.943 127.884H467.263ZM501.105 140.203H501.425C501.425 140.068 501.341 139.948 501.214 139.902L501.105 140.203ZM501.105 144.212L500.995 144.513C501.093 144.549 501.203 144.534 501.288 144.474C501.374 144.414 501.425 144.317 501.425 144.212H501.105ZM497.205 142.793L497.314 142.492C497.216 142.456 497.107 142.471 497.021 142.53C496.936 142.59 496.885 142.688 496.885 142.793H497.205ZM497.205 143.285H496.885C496.885 143.369 496.918 143.449 496.976 143.509L497.205 143.285ZM498.957 145.224L499.2 145.016L499.199 145.015L498.957 145.224ZM500.824 148.313L501.117 148.185L501.116 148.183L500.824 148.313ZM496.908 146.272L497.186 146.115L497.186 146.113L496.908 146.272ZM493.487 142.406L493.683 142.153L493.683 142.153L493.487 142.406ZM488.414 139.663L488.305 139.964L488.305 139.964L488.414 139.663ZM483.44 138.732L483.455 139.051L483.456 139.051L483.44 138.732ZM480.102 140.119L480.335 140.338L480.337 140.336L480.102 140.119ZM480.168 148.795L480.446 148.637L480.446 148.636L480.168 148.795ZM483.589 152.661L483.394 152.914L483.394 152.915L483.589 152.661ZM488.414 155.279L488.305 155.579L488.414 155.279ZM493.338 156.192L493.349 156.512L493.352 156.512L493.338 156.192ZM496.841 154.829L497.064 155.059L497.068 155.055L496.841 154.829ZM453.4 56.92L453.718 56.8823C453.699 56.7223 453.564 56.6014 453.403 56.6001C453.242 56.5987 453.105 56.7174 453.083 56.877L453.4 56.92ZM455.64 75.8L455.454 76.0604C455.557 76.1341 455.694 76.14 455.803 76.0754C455.912 76.0109 455.973 75.8882 455.958 75.7623L455.64 75.8ZM450.84 75.8001L450.523 75.7571C450.506 75.88 450.562 76.0016 450.666 76.0689C450.771 76.1362 450.904 76.1372 451.01 76.0714L450.84 75.8001ZM453.4 246.04L453.083 246.083C453.105 246.243 453.242 246.361 453.403 246.36C453.564 246.359 453.699 246.238 453.718 246.078L453.4 246.04ZM450.84 227.16L451.032 226.904C450.929 226.827 450.789 226.819 450.678 226.884C450.567 226.949 450.506 227.075 450.523 227.203L450.84 227.16ZM453.4 229.08L453.4 229.4L453.4 229.4L453.4 229.08ZM455.64 227.16L455.958 227.198C455.973 227.067 455.907 226.94 455.791 226.878C455.674 226.816 455.532 226.831 455.432 226.917L455.64 227.16ZM401.88 57.24H460.76V56.6H401.88V57.24ZM401.88 246.36H460.76V245.72H401.88V246.36ZM501.314 152.775C501.314 154.976 500.791 156.691 499.781 157.953L500.28 158.353C501.407 156.946 501.954 155.076 501.954 152.775H501.314ZM499.782 157.951C498.762 159.209 497.321 159.97 495.428 160.22L495.512 160.855C497.54 160.587 499.14 159.758 500.279 158.355L499.782 157.951ZM495.429 160.22C493.525 160.467 491.249 160.12 488.59 159.152L488.371 159.754C491.087 160.742 493.471 161.119 495.511 160.855L495.429 160.22ZM488.59 159.152C485.956 158.194 483.677 156.884 481.748 155.224L481.331 155.71C483.324 157.424 485.672 158.771 488.371 159.754L488.59 159.152ZM481.748 155.224C479.817 153.563 478.329 151.69 477.281 149.607L476.71 149.894C477.799 152.059 479.341 153.998 481.331 155.71L481.748 155.224ZM477.281 149.607C476.234 147.525 475.713 145.375 475.713 143.153H475.073C475.073 145.48 475.62 147.728 476.71 149.894L477.281 149.607ZM475.713 143.153C475.713 141.415 475.987 140.204 476.484 139.465L475.953 139.108C475.349 140.007 475.073 141.374 475.073 143.153H475.713ZM476.488 139.46C477.003 138.662 477.575 138.154 478.192 137.899L477.947 137.308C477.177 137.626 476.514 138.24 475.95 139.112L476.488 139.46ZM478.199 137.896C478.877 137.596 479.428 137.377 479.855 137.237L479.655 136.629C479.2 136.778 478.628 137.006 477.94 137.311L478.199 137.896ZM480.075 136.933V136.581H479.435V136.933H480.075ZM479.865 136.281L467.372 131.733L467.153 132.335L479.646 136.882L479.865 136.281ZM467.583 132.034V127.884H466.943V132.034H467.583ZM467.153 128.185L500.995 140.503L501.214 139.902L467.372 127.583L467.153 128.185ZM500.785 140.203V144.212H501.425V140.203H500.785ZM501.214 143.911L497.314 142.492L497.096 143.093L500.995 144.513L501.214 143.911ZM496.885 142.793V143.285H497.525V142.793H496.885ZM496.976 143.509C497.432 143.975 498.011 144.616 498.714 145.433L499.199 145.015C498.492 144.193 497.903 143.541 497.434 143.061L496.976 143.509ZM498.713 145.431C499.382 146.218 499.99 147.219 500.531 148.442L501.116 148.183C500.556 146.918 499.919 145.861 499.2 145.016L498.713 145.431ZM500.53 148.44C501.049 149.63 501.314 151.072 501.314 152.775H501.954C501.954 151.008 501.679 149.475 501.117 148.185L500.53 148.44ZM498.45 150.937C498.45 149.218 498.029 147.608 497.186 146.115L496.629 146.429C497.417 147.826 497.81 149.327 497.81 150.937H498.45ZM497.186 146.113C496.336 144.623 495.167 143.304 493.683 142.153L493.291 142.659C494.715 143.763 495.826 145.021 496.63 146.43L497.186 146.113ZM493.683 142.153C492.189 141 490.468 140.07 488.523 139.362L488.305 139.964C490.194 140.651 491.855 141.551 493.291 142.66L493.683 142.153ZM488.523 139.362C486.604 138.664 484.902 138.34 483.425 138.412L483.456 139.051C484.82 138.985 486.434 139.283 488.305 139.964L488.523 139.362ZM483.426 138.412C481.929 138.48 480.73 138.967 479.867 139.902L480.337 140.336C481.061 139.551 482.087 139.113 483.455 139.051L483.426 138.412ZM479.869 139.9C478.989 140.837 478.576 142.202 478.576 143.936H479.216C479.216 142.294 479.607 141.114 480.335 140.338L479.869 139.9ZM478.576 143.936C478.576 145.748 479.014 147.423 479.891 148.954L480.446 148.636C479.626 147.205 479.216 145.64 479.216 143.936H478.576ZM479.89 148.954C480.75 150.459 481.92 151.779 483.394 152.914L483.784 152.407C482.372 151.319 481.261 150.062 480.446 148.637L479.89 148.954ZM483.394 152.915C484.854 154.031 486.491 154.919 488.305 155.579L488.523 154.978C486.768 154.339 485.188 153.481 483.783 152.406L483.394 152.915ZM488.305 155.579C490.139 156.247 491.822 156.562 493.349 156.512L493.328 155.872C491.903 155.919 490.303 155.626 488.523 154.978L488.305 155.579ZM493.352 156.512C494.879 156.444 496.126 155.968 497.064 155.059L496.619 154.599C495.816 155.378 494.728 155.81 493.324 155.872L493.352 156.512ZM497.068 155.055C498.009 154.114 498.45 152.721 498.45 150.937H497.81C497.81 152.624 497.393 153.825 496.615 154.603L497.068 155.055ZM453.082 56.9577L455.322 75.8377L455.958 75.7623L453.718 56.8823L453.082 56.9577ZM455.826 75.5396L453.586 73.9397L453.214 74.4605L455.454 76.0604L455.826 75.5396ZM453.23 73.9287L450.67 75.5287L451.01 76.0714L453.57 74.4714L453.23 73.9287ZM451.157 75.8431L453.717 56.963L453.083 56.877L450.523 75.7571L451.157 75.8431ZM453.4 57.56H453.72V56.92H453.4V57.56ZM453.4 57.88H453.72V57.24H453.4V57.88ZM453.4 58.2H453.72V57.56H453.4V58.2ZM453.4 58.52H453.72V57.88H453.4V58.52ZM453.4 58.84H453.72V58.2H453.4V58.84ZM453.4 59.16H453.72V58.52H453.4V59.16ZM453.4 59.48H453.72V58.84H453.4V59.48ZM453.4 74.5201L455.64 74.52L455.64 73.88L453.4 73.8801L453.4 74.5201ZM454.04 74.84H455.64V74.2H454.04V74.84ZM454.36 75.16H455.64V74.52H454.36V75.16ZM455 75.48H455.64V74.84H455V75.48ZM455.32 75.8H455.64V75.16H455.32V75.8ZM451.16 74.52L453.4 74.5201L453.4 73.8801L451.16 73.88L451.16 74.52ZM451.16 74.84H453.08V74.2H451.16V74.84ZM451.16 75.16H452.44V74.52H451.16V75.16ZM451.16 75.48H452.12V74.84H451.16V75.48ZM451.16 75.8H451.48V75.16H451.16V75.8ZM453.717 245.997L451.157 227.117L450.523 227.203L453.083 246.083L453.717 245.997ZM450.648 227.416L453.208 229.336L453.592 228.824L451.032 226.904L450.648 227.416ZM453.608 229.323L455.848 227.403L455.432 226.917L453.192 228.837L453.608 229.323ZM455.322 227.122L453.082 246.002L453.718 246.078L455.958 227.198L455.322 227.122ZM451.16 227.8H451.48V227.16H451.16V227.8ZM451.16 228.12H451.8V227.48H451.16V228.12ZM451.16 228.44H452.12V227.8H451.16V228.44ZM451.16 228.76H452.76V228.12H451.16V228.76ZM451.16 229.08H453.08V228.44H451.16V229.08ZM451.16 229.4L453.4 229.4L453.4 228.76L451.16 228.76L451.16 229.4ZM455.32 227.8H455.64V227.16H455.32V227.8ZM455 228.12H455.64V227.48H455V228.12ZM454.68 228.44H455.64V227.8H454.68V228.44ZM454.36 228.76H455.64V228.12H454.36V228.76ZM454.04 229.08H455.64V228.44H454.04V229.08ZM453.4 229.4L455.64 229.4L455.64 228.76L453.4 228.76L453.4 229.4ZM453.4 244.12H453.72V243.48H453.4V244.12ZM453.4 244.44H453.72V243.8H453.4V244.44ZM453.4 244.76H453.72V244.12H453.4V244.76ZM453.4 245.08H453.72V244.44H453.4V245.08ZM453.4 245.4H453.72V244.76H453.4V245.4ZM453.4 245.72H453.72V245.08H453.4V245.72ZM453.4 246.04H453.72V245.4H453.4V246.04ZM453.08 56.92L453.08 246.04L453.72 246.04L453.72 56.92L453.08 56.92ZM453.08 59.8L453.72 59.8L453.72 59.16L453.08 59.16L453.08 59.8ZM453.08 60.12L454.04 60.12L454.04 59.48L453.08 59.48L453.08 60.12ZM453.08 60.44L454.04 60.44L454.04 59.8L453.08 59.8L453.08 60.44ZM453.08 60.76L454.04 60.76L454.04 60.12L453.08 60.12L453.08 60.76ZM453.08 61.08L454.04 61.08L454.04 60.44L453.08 60.44L453.08 61.08ZM453.08 61.4L454.04 61.4L454.04 60.76L453.08 60.76L453.08 61.4ZM453.08 61.72L454.04 61.72L454.04 61.08L453.08 61.08L453.08 61.72ZM452.76 62.04L454.04 62.04L454.04 61.4L452.76 61.4L452.76 62.04ZM452.76 62.36L454.04 62.36L454.04 61.72L452.76 61.72L452.76 62.36ZM452.76 62.68L454.36 62.68L454.36 62.04L452.76 62.04L452.76 62.68ZM452.76 63L454.36 63L454.36 62.36L452.76 62.36L452.76 63ZM452.76 63.32L454.36 63.32L454.36 62.68L452.76 62.68L452.76 63.32ZM452.76 63.64L454.36 63.64L454.36 63L452.76 63L452.76 63.64ZM452.76 63.96L454.36 63.96L454.36 63.32L452.76 63.32L452.76 63.96ZM452.76 64.28L454.36 64.28L454.36 63.64L452.76 63.64L452.76 64.28ZM452.44 64.6L454.36 64.6L454.36 63.96L452.44 63.96L452.44 64.6ZM452.44 64.92L454.36 64.92L454.36 64.28L452.44 64.28L452.44 64.92ZM452.44 65.24L454.36 65.24L454.36 64.6L452.44 64.6L452.44 65.24ZM452.44 65.56L454.68 65.56L454.68 64.92L452.44 64.92L452.44 65.56ZM452.44 65.88L454.68 65.88L454.68 65.24L452.44 65.24L452.44 65.88ZM452.44 66.2L454.68 66.2L454.68 65.56L452.44 65.56L452.44 66.2ZM452.44 66.52L454.68 66.52L454.68 65.88L452.44 65.88L452.44 66.52ZM452.12 66.84L454.68 66.84L454.68 66.2L452.12 66.2L452.12 66.84ZM452.12 67.16L454.68 67.16L454.68 66.52L452.12 66.52L452.12 67.16ZM452.12 67.48L454.68 67.48L454.68 66.84L452.12 66.84L452.12 67.48ZM452.12 67.8L454.68 67.8L454.68 67.16L452.12 67.16L452.12 67.8ZM452.12 68.12L455 68.12L455 67.48L452.12 67.48L452.12 68.12ZM452.12 68.44L455 68.44L455 67.8L452.12 67.8L452.12 68.44ZM452.12 68.76L455 68.76L455 68.12L452.12 68.12L452.12 68.76ZM451.8 69.08L455 69.08L455 68.44L451.8 68.44L451.8 69.08ZM451.8 69.4L455 69.4L455 68.76L451.8 68.76L451.8 69.4ZM451.8 69.72L455 69.72L455 69.08L451.8 69.08L451.8 69.72ZM451.8 70.04L455 70.04L455 69.4L451.8 69.4L451.8 70.04ZM451.8 70.36L455 70.36L455 69.72L451.8 69.72L451.8 70.36ZM451.8 70.68L455 70.68L455 70.04L451.8 70.04L451.8 70.68ZM451.8 71L455.32 71L455.32 70.36L451.8 70.36L451.8 71ZM451.8 71.32L455.32 71.32L455.32 70.68L451.8 70.68L451.8 71.32ZM451.48 71.64L455.32 71.64L455.32 71L451.48 71L451.48 71.64ZM451.48 71.96L455.32 71.96L455.32 71.32L451.48 71.32L451.48 71.96ZM451.48 72.28L455.32 72.28L455.32 71.64L451.48 71.64L451.48 72.28ZM451.48 72.6L455.32 72.6L455.32 71.96L451.48 71.96L451.48 72.6ZM451.48 72.92L455.32 72.92L455.32 72.28L451.48 72.28L451.48 72.92ZM451.48 73.24L455.32 73.24L455.32 72.6L451.48 72.6L451.48 73.24ZM451.48 73.56L455.64 73.56L455.64 72.92L451.48 72.92L451.48 73.56ZM451.16 73.88L455.64 73.88L455.64 73.24L451.16 73.24L451.16 73.88ZM451.16 74.2L455.64 74.2L455.64 73.56L451.16 73.56L451.16 74.2ZM451.16 229.72H455.64V229.08H451.16V229.72ZM451.48 230.04H455.64V229.4H451.48V230.04ZM451.48 230.36H455.32V229.72H451.48V230.36ZM451.48 230.68H455.32V230.04H451.48V230.68ZM451.48 231H455.32V230.36H451.48V231ZM451.48 231.32H455.32V230.68H451.48V231.32ZM451.48 231.64H455.32V231H451.48V231.64ZM451.48 231.96H455.32V231.32H451.48V231.96ZM451.8 232.28H455.32V231.64H451.8V232.28ZM451.8 232.6H455.32V231.96H451.8V232.6ZM451.8 232.92H455V232.28H451.8V232.92ZM451.8 233.24H455V232.6H451.8V233.24ZM451.8 233.56H455V232.92H451.8V233.56ZM451.8 233.88H455V233.24H451.8V233.88ZM451.8 234.2H455V233.56H451.8V234.2ZM451.8 234.52H455V233.88H451.8V234.52ZM452.12 234.84H455V234.2H452.12V234.84ZM452.12 235.16H455V234.52H452.12V235.16ZM452.12 235.48H455V234.84H452.12V235.48ZM452.12 235.8H454.68V235.16H452.12V235.8ZM452.12 236.12H454.68V235.48H452.12V236.12ZM452.12 236.44H454.68V235.8H452.12V236.44ZM452.12 236.76H454.68V236.12H452.12V236.76ZM452.44 237.08H454.68V236.44H452.44V237.08ZM452.44 237.4H454.68V236.76H452.44V237.4ZM452.44 237.72H454.68V237.08H452.44V237.72ZM452.44 238.04H454.68V237.4H452.44V238.04ZM452.44 238.36H454.36V237.72H452.44V238.36ZM452.44 238.68H454.36V238.04H452.44V238.68ZM452.44 239H454.36V238.36H452.44V239ZM452.76 239.32H454.36V238.68H452.76V239.32ZM452.76 239.64H454.36V239H452.76V239.64ZM452.76 239.96H454.36V239.32H452.76V239.96ZM452.76 240.28H454.36V239.64H452.76V240.28ZM452.76 240.6H454.36V239.96H452.76V240.6ZM452.76 240.92H454.36V240.28H452.76V240.92ZM452.76 241.24H454.04V240.6H452.76V241.24ZM452.76 241.56H454.04V240.92H452.76V241.56ZM453.08 241.88H454.04V241.24H453.08V241.88ZM453.08 242.2H454.04V241.56H453.08V242.2ZM453.08 242.52H454.04V241.88H453.08V242.52ZM453.08 242.84H454.04V242.2H453.08V242.84ZM453.08 243.16H454.04V242.52H453.08V243.16ZM453.08 243.48H454.04V242.84H453.08V243.48ZM453.08 243.8H453.72V243.16H453.08V243.8Z" fill="white"/>
    </g>
    <!--    8 dH-->
    <g class="group">
    </g>
    <!--    9 d1-->
    <g class="group">
    </g>
    <!--    10 d2-->
    <g class="group">
    </g>
    <!--    11 L-->
    <g class="group">
        <path d="M235.894 314.784L244.979 289.826H248.195L240.087 312.103H252.433L251.457 314.784H235.894Z" fill="white"/>
        <path d="M394.2 300.44C394.2 300.263 394.057 300.12 393.88 300.12C393.703 300.12 393.56 300.263 393.56 300.44H394.2ZM393.56 326.68C393.56 326.857 393.703 327 393.88 327C394.057 327 394.2 326.857 394.2 326.68H393.56ZM91.8 300.44C91.8 300.263 91.6567 300.12 91.48 300.12C91.3032 300.12 91.16 300.263 91.16 300.44H91.8ZM91.16 326.68C91.16 326.857 91.3032 327 91.48 327C91.6567 327 91.8 326.857 91.8 326.68H91.16ZM235.894 314.784L235.594 314.674C235.558 314.773 235.572 314.882 235.632 314.967C235.692 315.053 235.79 315.104 235.894 315.104V314.784ZM244.979 289.826V289.506C244.845 289.506 244.724 289.59 244.678 289.716L244.979 289.826ZM248.195 289.826L248.496 289.935C248.532 289.837 248.517 289.728 248.457 289.642C248.398 289.557 248.3 289.506 248.195 289.506V289.826ZM240.087 312.103L239.786 311.993C239.75 312.092 239.765 312.201 239.824 312.286C239.884 312.372 239.982 312.423 240.087 312.423V312.103ZM252.433 312.103L252.733 312.212C252.769 312.114 252.755 312.005 252.695 311.919C252.635 311.834 252.537 311.783 252.433 311.783V312.103ZM251.457 314.784V315.104C251.591 315.104 251.712 315.02 251.758 314.893L251.457 314.784ZM393.88 319L393.923 319.317C394.083 319.295 394.201 319.158 394.2 318.997C394.199 318.836 394.078 318.701 393.918 318.682L393.88 319ZM375 321.56L374.744 321.368C374.667 321.471 374.659 321.611 374.724 321.722C374.789 321.833 374.915 321.894 375.043 321.877L375 321.56ZM375 316.76L375.038 316.442C374.907 316.427 374.78 316.493 374.718 316.609C374.656 316.726 374.671 316.868 374.757 316.968L375 316.76ZM91.48 319L91.4423 318.682C91.2823 318.701 91.1613 318.836 91.16 318.997C91.1586 319.158 91.2773 319.295 91.437 319.317L91.48 319ZM110.36 316.76L110.62 316.946C110.694 316.843 110.7 316.706 110.635 316.597C110.571 316.488 110.448 316.427 110.322 316.442L110.36 316.76ZM110.36 321.56L110.317 321.877C110.44 321.894 110.561 321.838 110.629 321.734C110.696 321.629 110.697 321.496 110.631 321.39L110.36 321.56ZM393.56 300.44V326.68H394.2V300.44H393.56ZM91.16 300.44V326.68H91.8V300.44H91.16ZM236.195 314.893L245.28 289.935L244.678 289.716L235.594 314.674L236.195 314.893ZM244.979 290.146H248.195V289.506H244.979V290.146ZM247.895 289.716L239.786 311.993L240.387 312.212L248.496 289.935L247.895 289.716ZM240.087 312.423H252.433V311.783H240.087V312.423ZM252.132 311.993L251.156 314.674L251.758 314.893L252.733 312.212L252.132 311.993ZM251.457 314.464H235.894V315.104H251.457V314.464ZM393.837 318.683L374.957 321.243L375.043 321.877L393.923 319.317L393.837 318.683ZM375.256 321.752L377.176 319.192L376.664 318.808L374.744 321.368L375.256 321.752ZM377.163 318.792L375.243 316.552L374.757 316.968L376.677 319.208L377.163 318.792ZM374.962 317.078L393.842 319.318L393.918 318.682L375.038 316.442L374.962 317.078ZM376.92 319.32H393.88V318.68H376.92V319.32ZM376.92 319.64H391.64V319H376.92V319.64ZM376.6 319.96H389.4V319.32H376.6V319.96ZM376.28 320.28H386.84V319.64H376.28V320.28ZM375.96 320.6H384.6V319.96H375.96V320.6ZM375.96 320.92H382.36V320.28H375.96V320.92ZM375.64 321.24H379.8V320.6H375.64V321.24ZM375.32 321.56H377.56V320.92H375.32V321.56ZM375.32 317.4H377.88V316.76H375.32V317.4ZM375.64 317.72H380.44V317.08H375.64V317.72ZM375.96 318.04H383.32V317.4H375.96V318.04ZM376.28 318.36H385.88V317.72H376.28V318.36ZM376.6 318.68H388.76V318.04H376.6V318.68ZM376.92 319H391.32V318.36H376.92V319ZM91.5177 319.318L110.398 317.078L110.322 316.442L91.4423 318.682L91.5177 319.318ZM110.1 316.574L108.5 318.814L109.02 319.186L110.62 316.946L110.1 316.574ZM108.489 319.17L110.089 321.73L110.631 321.39L109.031 318.83L108.489 319.17ZM110.403 321.243L91.523 318.683L91.437 319.317L110.317 321.877L110.403 321.243ZM107.8 317.4H110.36V316.76H107.8V317.4ZM105.24 317.72H110.04V317.08H105.24V317.72ZM102.36 318.04H109.72V317.4H102.36V318.04ZM99.8 318.36H109.72V317.72H99.8V318.36ZM96.92 318.68H109.4V318.04H96.92V318.68ZM94.36 319H109.08V318.36H94.36V319ZM91.48 319.32H108.76V318.68H91.48V319.32ZM94.04 319.64H109.08V319H94.04V319.64ZM96.28 319.96H109.4V319.32H96.28V319.96ZM98.84 320.28H109.4V319.64H98.84V320.28ZM101.08 320.6H109.72V319.96H101.08V320.6ZM103.32 320.92H110.04V320.28H103.32V320.92ZM105.88 321.24H110.04V320.6H105.88V321.24ZM108.12 321.56H110.36V320.92H108.12V321.56ZM393.88 318.68L91.48 318.68L91.48 319.32L393.88 319.32L393.88 318.68Z" fill="white"/>
    </g>
    <!--    12 L1-->
    <g class="group">
    </g>
    <!--    13 L2-->
    <g class="group">
    </g>
    <!--    14 S-->
    <g class="group">
        <path d="M52.2109 10.3834L52.9517 13.4386C52.5154 13.455 52.0915 13.5591 51.68 13.7509C51.2602 13.931 50.9145 14.2606 50.6428 14.7399C50.3712 15.2191 50.2354 15.9099 50.2354 16.8121C50.2354 18.0472 50.5029 19.1738 51.0379 20.1919C51.5647 21.1983 52.2356 21.8498 53.0504 22.1464C53.7748 22.4101 54.3468 22.338 54.7666 21.9302C55.1864 21.5224 55.5362 20.7738 55.8161 19.6844L56.5075 16.9403C56.9191 15.2857 57.5488 14.1703 58.3966 13.5942C59.2361 13.0151 60.3185 12.9667 61.6437 13.4491C62.7303 13.8446 63.7015 14.531 64.5576 15.5083C65.4136 16.4769 66.0886 17.6423 66.5824 19.0046C67.0763 20.3669 67.3232 21.832 67.3232 23.4C67.3232 25.4584 66.9034 27.0093 66.0639 28.0527C65.2243 29.0961 63.9978 29.5037 62.3845 29.2756L61.6931 26.0807C62.7138 26.1719 63.4793 25.9206 63.9896 25.3268C64.4999 24.7242 64.7551 23.7878 64.7551 22.5177C64.7551 21.0724 64.467 19.8201 63.8908 18.7607C63.3064 17.6895 62.6068 17.0056 61.7919 16.709C61.1334 16.4693 60.5819 16.5138 60.1375 16.8426C59.6847 17.1683 59.3473 17.7988 59.125 18.734L58.3842 21.828C57.9727 23.5264 57.3348 24.6519 56.4705 25.2045C55.598 25.7454 54.5074 25.7776 53.1986 25.3012C52.1286 24.9117 51.182 24.2474 50.3589 23.3084C49.5358 22.3606 48.8896 21.245 48.4204 19.9618C47.9513 18.6698 47.7167 17.3143 47.7167 15.8953C47.7167 13.8981 48.1282 12.48 48.9513 11.6409C49.7745 10.793 50.861 10.3738 52.2109 10.3834Z" fill="white"/>
        <path d="M83.8 57.24C83.9767 57.24 84.12 57.0968 84.12 56.92C84.12 56.7433 83.9767 56.6 83.8 56.6V57.24ZM62.68 56.6C62.5033 56.6 62.36 56.7433 62.36 56.92C62.36 57.0968 62.5033 57.24 62.68 57.24V56.6ZM83.8 67.1601C83.9767 67.1601 84.12 67.0168 84.12 66.8401C84.12 66.6634 83.9767 66.5201 83.8 66.5201V67.1601ZM62.68 66.5201C62.5033 66.5201 62.36 66.6634 62.36 66.8401C62.36 67.0168 62.5033 67.1601 62.68 67.1601V66.5201ZM70.68 5.72009C70.68 5.54336 70.5367 5.40009 70.36 5.40009C70.1833 5.40009 70.04 5.54336 70.04 5.72009H70.68ZM52.2109 10.3834L52.5219 10.308C52.4873 10.1653 52.36 10.0645 52.2131 10.0634L52.2109 10.3834ZM52.9517 13.4386L52.9637 13.7584C53.0597 13.7548 53.1489 13.7082 53.2069 13.6317C53.2648 13.5551 53.2853 13.4565 53.2627 13.3632L52.9517 13.4386ZM51.68 13.7509L51.8062 14.0451L51.8151 14.041L51.68 13.7509ZM50.6428 14.7399L50.3644 14.5821L50.3644 14.5821L50.6428 14.7399ZM51.0379 20.1919L51.3214 20.0435L51.3212 20.0431L51.0379 20.1919ZM53.0504 22.1464L53.1599 21.8457L53.0504 22.1464ZM54.7666 21.9302L54.9896 22.1597L54.9896 22.1597L54.7666 21.9302ZM55.8161 19.6844L56.126 19.764L56.1264 19.7626L55.8161 19.6844ZM56.5075 16.9403L56.8178 17.0185L56.8181 17.0176L56.5075 16.9403ZM58.3966 13.5942L58.5764 13.8589L58.5783 13.8576L58.3966 13.5942ZM61.6437 13.4491L61.5343 13.7498L61.6437 13.4491ZM64.5576 15.5083L64.3168 15.7192L64.3178 15.7202L64.5576 15.5083ZM66.0639 28.0527L65.8146 27.8521L65.8146 27.8521L66.0639 28.0527ZM62.3845 29.2756L62.0718 29.3433C62.1001 29.4742 62.2071 29.5737 62.3397 29.5924L62.3845 29.2756ZM61.6931 26.0807L61.7216 25.762C61.6203 25.7529 61.5206 25.7926 61.4533 25.8689C61.3859 25.9452 61.3588 26.0489 61.3804 26.1484L61.6931 26.0807ZM63.9896 25.3268L64.2323 25.5354L64.2338 25.5336L63.9896 25.3268ZM63.8908 18.7607L64.172 18.6078L64.1718 18.6074L63.8908 18.7607ZM61.7919 16.709L61.9014 16.4083L61.7919 16.709ZM60.1375 16.8426L60.3244 17.1023L60.3277 17.0998L60.1375 16.8426ZM59.125 18.734L59.4362 18.8085L59.4364 18.808L59.125 18.734ZM58.3842 21.828L58.6952 21.9033L58.6954 21.9025L58.3842 21.828ZM56.4705 25.2045L56.6391 25.4765L56.6429 25.4741L56.4705 25.2045ZM53.1986 25.3012L53.3081 25.0005L53.3081 25.0005L53.1986 25.3012ZM50.3589 23.3084L50.1173 23.5182L50.1182 23.5193L50.3589 23.3084ZM48.4204 19.9618L48.1197 20.071L48.1199 20.0717L48.4204 19.9618ZM48.9513 11.6409L49.1798 11.8649L49.1809 11.8638L48.9513 11.6409ZM72.92 38.04L73.2371 38.083C73.2544 37.9552 73.1933 37.8294 73.082 37.7641C72.9708 37.6988 72.8312 37.7066 72.728 37.784L72.92 38.04ZM70.36 39.96L70.36 40.28L70.36 40.28L70.36 39.96ZM67.8 38.04L67.992 37.784C67.8888 37.7066 67.7492 37.6988 67.6379 37.7641C67.5267 37.8294 67.4656 37.9552 67.4829 38.083L67.8 38.04ZM70.68 30.6801C70.68 30.5033 70.5367 30.3601 70.36 30.3601C70.1833 30.3601 70.04 30.5033 70.04 30.6801H70.68ZM67.8 85.7201L67.4829 85.6771C67.4656 85.8049 67.5267 85.9307 67.6379 85.996C67.7492 86.0614 67.8888 86.0535 67.992 85.9761L67.8 85.7201ZM72.92 85.7201L72.728 85.9761C72.8312 86.0535 72.9708 86.0614 73.082 85.996C73.1933 85.9307 73.2544 85.8049 73.2371 85.6771L72.92 85.7201ZM70.04 93.0801C70.04 93.2568 70.1833 93.4001 70.36 93.4001C70.5367 93.4001 70.68 93.2568 70.68 93.0801L70.04 93.0801ZM70.36 83.8L70.36 83.48H70.36V83.8ZM83.8 56.6H62.68V57.24H83.8V56.6ZM83.8 66.5201H62.68V67.1601H83.8V66.5201ZM51.8999 10.4588L52.6407 13.514L53.2627 13.3632L52.5219 10.308L51.8999 10.4588ZM52.9397 13.1188C52.4591 13.1369 51.9934 13.2518 51.5448 13.4609L51.8151 14.041C52.1896 13.8664 52.5718 13.7731 52.9637 13.7584L52.9397 13.1188ZM51.5538 13.4568C51.0573 13.6698 50.6633 14.0549 50.3644 14.5821L50.9212 14.8977C51.1657 14.4664 51.463 14.1922 51.8061 14.045L51.5538 13.4568ZM50.3644 14.5821C50.0534 15.1309 49.9154 15.886 49.9154 16.8121H50.5554C50.5554 15.9337 50.6891 15.3073 50.9212 14.8977L50.3644 14.5821ZM49.9154 16.8121C49.9154 18.0951 50.1938 19.2734 50.7547 20.3408L51.3212 20.0431C50.8121 19.0742 50.5554 17.9992 50.5554 16.8121H49.9154ZM50.7544 20.3403C51.3065 21.3949 52.0303 22.1156 52.941 22.4471L53.1599 21.8457C52.4408 21.584 51.823 21.0017 51.3214 20.0435L50.7544 20.3403ZM52.941 22.4471C53.7374 22.737 54.4531 22.681 54.9896 22.1597L54.5437 21.7007C54.2406 21.995 53.8122 22.0832 53.1599 21.8457L52.941 22.4471ZM54.9896 22.1597C55.4753 21.6879 55.8428 20.8665 56.126 19.764L55.5062 19.6048C55.2297 20.6811 54.8975 21.3569 54.5437 21.7007L54.9896 22.1597ZM56.1264 19.7626L56.8178 17.0185L56.1972 16.8621L55.5058 19.6062L56.1264 19.7626ZM56.8181 17.0176C57.2224 15.3921 57.8251 14.3694 58.5764 13.8589L58.2167 13.3295C57.2724 13.9712 56.6158 15.1792 56.197 16.8631L56.8181 17.0176ZM58.5783 13.8576C59.3025 13.358 60.2662 13.2882 61.5343 13.7498L61.7532 13.1484C60.3709 12.6452 59.1698 12.6721 58.2149 13.3308L58.5783 13.8576ZM61.5343 13.7498C62.5642 14.1247 63.4918 14.7773 64.3169 15.7192L64.7983 15.2975C63.9112 14.2847 62.8963 13.5645 61.7532 13.1484L61.5343 13.7498ZM64.3178 15.7202C65.1442 16.6552 65.7998 17.7846 66.2816 19.1137L66.8833 18.8955C66.3773 17.5 65.6831 16.2985 64.7973 15.2964L64.3178 15.7202ZM66.2816 19.1137C66.7618 20.4382 67.0032 21.8661 67.0032 23.4H67.6432C67.6432 21.7979 67.3908 20.2956 66.8833 18.8955L66.2816 19.1137ZM67.0032 23.4C67.0032 25.4227 66.5895 26.889 65.8146 27.8521L66.3132 28.2533C67.2174 27.1297 67.6432 25.4942 67.6432 23.4H67.0032ZM65.8146 27.8521C65.0619 28.7874 63.9592 29.175 62.4293 28.9587L62.3397 29.5924C64.0365 29.8323 65.3867 29.4047 66.3132 28.2533L65.8146 27.8521ZM62.6973 29.2079L62.0059 26.013L61.3804 26.1484L62.0718 29.3433L62.6973 29.2079ZM61.6646 26.3994C62.7532 26.4967 63.6346 26.2308 64.2323 25.5354L63.7469 25.1182C63.3239 25.6104 62.6744 25.8471 61.7216 25.762L61.6646 26.3994ZM64.2338 25.5336C64.8152 24.8471 65.0751 23.8204 65.0751 22.5177H64.4351C64.4351 23.7553 64.1847 24.6013 63.7454 25.12L64.2338 25.5336ZM65.0751 22.5177C65.0751 21.0296 64.7783 19.7226 64.172 18.6078L63.6097 18.9135C64.1558 19.9175 64.4351 21.1153 64.4351 22.5177H65.0751ZM64.1718 18.6074C63.5651 17.4955 62.8144 16.7407 61.9014 16.4083L61.6825 17.0097C62.3991 17.2706 63.0477 17.8835 63.6099 18.9139L64.1718 18.6074ZM61.9014 16.4083C61.1725 16.143 60.5011 16.1756 59.9472 16.5853L60.3277 17.0998C60.6627 16.8521 61.0943 16.7956 61.6825 17.0097L61.9014 16.4083ZM59.9506 16.5828C59.4038 16.9763 59.042 17.6994 58.8137 18.66L59.4364 18.808C59.6526 17.8982 59.9657 17.3604 60.3243 17.1023L59.9506 16.5828ZM58.8138 18.6595L58.073 21.7535L58.6954 21.9025L59.4362 18.8085L58.8138 18.6595ZM58.0732 21.7526C57.6684 23.4234 57.0578 24.4492 56.2981 24.9349L56.6429 25.4741C57.6117 24.8547 58.277 23.6295 58.6952 21.9033L58.0732 21.7526ZM56.3019 24.9325C55.5401 25.4048 54.5598 25.4561 53.3081 25.0005L53.0892 25.6019C54.4549 26.0991 55.6559 26.086 56.6391 25.4765L56.3019 24.9325ZM53.3081 25.0005C52.2934 24.6312 51.3906 24 50.5995 23.0974L50.1182 23.5193C50.9733 24.4948 51.9637 25.1923 53.0892 25.6019L53.3081 25.0005ZM50.6005 23.0986C49.8051 22.1827 49.1779 21.1018 48.721 19.8519L48.1199 20.0717C48.6013 21.3883 49.2664 22.5384 50.1173 23.5182L50.6005 23.0986ZM48.7212 19.8526C48.2652 18.5967 48.0367 17.2783 48.0367 15.8953H47.3967C47.3967 17.3503 47.6374 18.7429 48.1197 20.071L48.7212 19.8526ZM48.0367 15.8953C48.0367 13.9271 48.4449 12.6141 49.1798 11.8649L48.7229 11.4168C47.8115 12.3459 47.3967 13.8691 47.3967 15.8953H48.0367ZM49.1809 11.8638C49.9344 11.0876 50.9324 10.6944 52.2086 10.7034L52.2131 10.0634C50.7895 10.0533 49.6145 10.4983 48.7217 11.418L49.1809 11.8638ZM70.6771 56.963L73.2371 38.083L72.6029 37.997L70.0429 56.877L70.6771 56.963ZM72.728 37.784L70.168 39.704L70.552 40.216L73.112 38.296L72.728 37.784ZM70.552 39.704L67.992 37.784L67.608 38.296L70.168 40.216L70.552 39.704ZM67.4829 38.083L70.0429 56.963L70.6771 56.877L68.1171 37.997L67.4829 38.083ZM70.68 56.92V30.6801H70.04V56.92H70.68ZM72.6 38.68H72.92V38.04H72.6V38.68ZM72.28 39H72.92V38.36H72.28V39ZM71.64 39.32H72.92V38.68H71.64V39.32ZM71.32 39.64H72.92V39H71.32V39.64ZM71 39.96H72.92V39.32H71V39.96ZM70.36 40.28L72.92 40.28L72.92 39.64L70.36 39.64L70.36 40.28ZM70.36 55H70.68V54.36H70.36V55ZM70.36 55.32H70.68V54.68H70.36V55.32ZM70.36 55.64H70.68V55H70.36V55.64ZM70.36 55.96H70.68V55.32H70.36V55.96ZM70.36 56.28H70.68V55.64H70.36V56.28ZM70.36 56.6H70.68V55.96H70.36V56.6ZM70.36 56.92H70.68V56.28H70.36V56.92ZM68.12 38.68H68.44V38.04H68.12V38.68ZM68.12 39H68.76V38.36H68.12V39ZM68.12 39.32H69.08V38.68H68.12V39.32ZM68.12 39.64H69.72V39H68.12V39.64ZM68.12 39.96H70.04V39.32H68.12V39.96ZM68.12 40.28L70.36 40.28L70.36 39.64L68.12 39.64L68.12 40.28ZM70.0429 66.7971L67.4829 85.6771L68.1171 85.7631L70.6771 66.8831L70.0429 66.7971ZM73.2371 85.6771L70.6771 66.7971L70.0429 66.8831L72.6029 85.7631L73.2371 85.6771ZM70.04 66.8401L70.04 93.0801L70.68 93.0801L70.68 66.8401L70.04 66.8401ZM68.12 84.12H70.36V83.48H68.12V84.12ZM68.12 84.44H70.04V83.8H68.12V84.44ZM68.12 84.76H69.72V84.12H68.12V84.76ZM68.12 85.08H69.08V84.44H68.12V85.08ZM68.12 85.4H68.76V84.76H68.12V85.4ZM68.12 85.72H68.44V85.08H68.12V85.72ZM70.36 67.48H70.68V66.84H70.36V67.48ZM70.36 67.8H70.68V67.16H70.36V67.8ZM70.36 68.12H70.68V67.48H70.36V68.12ZM70.36 68.44H70.68V67.8H70.36V68.44ZM70.36 68.76H70.68V68.12H70.36V68.76ZM70.36 69.08H70.68V68.44H70.36V69.08ZM70.36 69.4H70.68V68.76H70.36V69.4ZM70.36 84.12L72.92 84.12L72.92 83.48L70.36 83.48L70.36 84.12ZM71 84.44H72.92V83.8H71V84.44ZM71.32 84.76H72.92V84.12H71.32V84.76ZM71.64 85.08H72.92V84.44H71.64V85.08ZM72.28 85.4H72.92V84.76H72.28V85.4ZM72.6 85.72H72.92V85.08H72.6V85.72ZM70.04 56.92L70.04 66.8401L70.68 66.8401L70.68 56.92L70.04 56.92ZM67.992 85.9761L70.552 84.056L70.168 83.544L67.608 85.4641L67.992 85.9761ZM70.168 84.056L72.728 85.9761L73.112 85.4641L70.552 83.544L70.168 84.056ZM70.68 56.92V5.72009H70.04V56.92H70.68ZM68.12 40.6H72.92V39.96H68.12V40.6ZM68.44 40.92H72.6V40.28H68.44V40.92ZM68.44 41.24H72.6V40.6H68.44V41.24ZM68.44 41.56H72.6V40.92H68.44V41.56ZM68.44 41.88H72.6V41.24H68.44V41.88ZM68.44 42.2H72.6V41.56H68.44V42.2ZM68.44 42.52H72.6V41.88H68.44V42.52ZM68.44 42.84H72.6V42.2H68.44V42.84ZM68.76 43.16H72.28V42.52H68.76V43.16ZM68.76 43.48H72.28V42.84H68.76V43.48ZM68.76 43.8H72.28V43.16H68.76V43.8ZM68.76 44.12H72.28V43.48H68.76V44.12ZM68.76 44.44H72.28V43.8H68.76V44.44ZM68.76 44.76H72.28V44.12H68.76V44.76ZM68.76 45.08H72.28V44.44H68.76V45.08ZM68.76 45.4H72.28V44.76H68.76V45.4ZM69.08 45.72H71.96V45.08H69.08V45.72ZM69.08 46.04H71.96V45.4H69.08V46.04ZM69.08 46.36H71.96V45.72H69.08V46.36ZM69.08 46.68H71.96V46.04H69.08V46.68ZM69.08 47H71.96V46.36H69.08V47ZM69.08 47.32H71.96V46.68H69.08V47.32ZM69.08 47.64H71.96V47H69.08V47.64ZM69.4 47.96H71.64V47.32H69.4V47.96ZM69.4 48.28H71.64V47.64H69.4V48.28ZM69.4 48.6H71.64V47.96H69.4V48.6ZM69.4 48.92H71.64V48.28H69.4V48.92ZM69.4 49.24H71.64V48.6H69.4V49.24ZM69.4 49.56H71.64V48.92H69.4V49.56ZM69.4 49.88H71.64V49.24H69.4V49.88ZM69.72 50.2H71.32V49.56H69.72V50.2ZM69.72 50.52H71.32V49.88H69.72V50.52ZM69.72 50.84H71.32V50.2H69.72V50.84ZM69.72 51.16H71.32V50.52H69.72V51.16ZM69.72 51.48H71.32V50.84H69.72V51.48ZM69.72 51.8H71.32V51.16H69.72V51.8ZM69.72 52.12H71.32V51.48H69.72V52.12ZM69.72 52.44H71.32V51.8H69.72V52.44ZM70.04 52.76H71V52.12H70.04V52.76ZM70.04 53.08H71V52.44H70.04V53.08ZM70.04 53.4H71V52.76H70.04V53.4ZM70.04 53.72H71V53.08H70.04V53.72ZM70.04 54.04H71V53.4H70.04V54.04ZM70.04 54.36H71V53.72H70.04V54.36ZM70.04 54.68H71V54.04H70.04V54.68ZM70.04 69.72L71 69.72L71 69.08L70.04 69.08L70.04 69.72ZM70.04 70.04L71 70.04L71 69.4L70.04 69.4L70.04 70.04ZM70.04 70.36L71 70.36L71 69.72L70.04 69.72L70.04 70.36ZM70.04 70.68L71 70.68L71 70.04L70.04 70.04L70.04 70.68ZM70.04 71L71 71L71 70.36L70.04 70.36L70.04 71ZM70.04 71.32L71 71.32L71 70.68L70.04 70.68L70.04 71.32ZM70.04 71.64L71 71.64L71 71L70.04 71L70.04 71.64ZM69.72 71.96L71.32 71.96L71.32 71.32L69.72 71.32L69.72 71.96ZM69.72 72.28L71.32 72.28L71.32 71.64L69.72 71.64L69.72 72.28ZM69.72 72.6L71.32 72.6L71.32 71.96L69.72 71.96L69.72 72.6ZM69.72 72.92L71.32 72.92L71.32 72.28L69.72 72.28L69.72 72.92ZM69.72 73.24L71.32 73.24L71.32 72.6L69.72 72.6L69.72 73.24ZM69.72 73.56L71.32 73.56L71.32 72.92L69.72 72.92L69.72 73.56ZM69.72 73.88L71.32 73.88L71.32 73.24L69.72 73.24L69.72 73.88ZM69.72 74.2L71.32 74.2L71.32 73.56L69.72 73.56L69.72 74.2ZM69.4 74.52L71.64 74.52L71.64 73.88L69.4 73.88L69.4 74.52ZM69.4 74.84L71.64 74.84L71.64 74.2L69.4 74.2L69.4 74.84ZM69.4 75.16L71.64 75.16L71.64 74.52L69.4 74.52L69.4 75.16ZM69.4 75.48L71.64 75.48L71.64 74.84L69.4 74.84L69.4 75.48ZM69.4 75.8L71.64 75.8L71.64 75.16L69.4 75.16L69.4 75.8ZM69.4 76.12L71.64 76.12L71.64 75.48L69.4 75.48L69.4 76.12ZM69.4 76.44L71.64 76.44L71.64 75.8L69.4 75.8L69.4 76.44ZM69.08 76.76L71.96 76.76L71.96 76.12L69.08 76.12L69.08 76.76ZM69.08 77.08L71.96 77.08L71.96 76.44L69.08 76.44L69.08 77.08ZM69.08 77.4L71.96 77.4L71.96 76.76L69.08 76.76L69.08 77.4ZM69.08 77.72L71.96 77.72L71.96 77.08L69.08 77.08L69.08 77.72ZM69.08 78.04L71.96 78.04L71.96 77.4L69.08 77.4L69.08 78.04ZM69.08 78.36L71.96 78.36L71.96 77.72L69.08 77.72L69.08 78.36ZM69.08 78.68L71.96 78.68L71.96 78.04L69.08 78.04L69.08 78.68ZM68.76 79L72.28 79L72.28 78.36L68.76 78.36L68.76 79ZM68.76 79.32L72.28 79.32L72.28 78.68L68.76 78.68L68.76 79.32ZM68.76 79.64L72.28 79.64L72.28 79L68.76 79L68.76 79.64ZM68.76 79.96L72.28 79.96L72.28 79.32L68.76 79.32L68.76 79.96ZM68.76 80.28L72.28 80.28L72.28 79.64L68.76 79.64L68.76 80.28ZM68.76 80.6L72.28 80.6L72.28 79.96L68.76 79.96L68.76 80.6ZM68.76 80.92L72.28 80.92L72.28 80.28L68.76 80.28L68.76 80.92ZM68.76 81.24L72.28 81.24L72.28 80.6L68.76 80.6L68.76 81.24ZM68.44 81.56L72.6 81.56L72.6 80.92L68.44 80.92L68.44 81.56ZM68.44 81.88L72.6 81.88L72.6 81.24L68.44 81.24L68.44 81.88ZM68.44 82.2L72.6 82.2L72.6 81.56L68.44 81.56L68.44 82.2ZM68.44 82.52L72.6 82.52L72.6 81.88L68.44 81.88L68.44 82.52ZM68.44 82.84L72.6 82.84L72.6 82.2L68.44 82.2L68.44 82.84ZM68.44 83.16L72.6 83.16L72.6 82.52L68.44 82.52L68.44 83.16ZM68.44 83.48L72.6 83.48L72.6 82.84L68.44 82.84L68.44 83.48ZM68.12 83.8L72.92 83.8L72.92 83.16L68.12 83.16L68.12 83.8Z" fill="white"/>
    </g>
    <!--    15 S1-->
    <g class="group">
    </g>
    <!--    16 S2-->
    <g class="group">
    </g>
    <!--    17 S3-->
    <g class="group">
    </g>
    <!--    18 S4-->
    <g class="group">
    </g>
    <!--    19 I-->
    <g class="group">
        <path d="M358.731 256.295L349.646 281.253H346.586L355.67 256.295H358.731Z" fill="white"/>
        <path d="M311 253.08C311 252.903 310.857 252.76 310.68 252.76C310.503 252.76 310.36 252.903 310.36 253.08H311ZM310.36 293.08C310.36 293.257 310.503 293.4 310.68 293.4C310.857 293.4 311 293.257 311 293.08H310.36ZM394.2 253.08C394.2 252.903 394.057 252.76 393.88 252.76C393.703 252.76 393.56 252.903 393.56 253.08H394.2ZM393.56 293.08C393.56 293.257 393.703 293.4 393.88 293.4C394.057 293.4 394.2 293.257 394.2 293.08H393.56ZM358.731 256.295L359.032 256.405C359.068 256.307 359.053 256.197 358.993 256.112C358.933 256.026 358.836 255.975 358.731 255.975V256.295ZM349.646 281.253V281.573C349.781 281.573 349.901 281.489 349.947 281.363L349.646 281.253ZM346.586 281.253L346.285 281.144C346.249 281.242 346.264 281.351 346.324 281.437C346.384 281.522 346.481 281.573 346.586 281.573V281.253ZM355.67 256.295V255.975C355.536 255.975 355.416 256.06 355.37 256.186L355.67 256.295ZM310.68 285.72L310.637 285.403C310.477 285.425 310.359 285.562 310.36 285.723C310.361 285.884 310.482 286.019 310.642 286.038L310.68 285.72ZM329.56 283.16L329.831 283.33C329.897 283.224 329.896 283.091 329.829 282.986C329.761 282.882 329.64 282.826 329.517 282.843L329.56 283.16ZM329.56 287.96L329.522 288.278C329.648 288.293 329.771 288.232 329.835 288.123C329.9 288.014 329.894 287.877 329.82 287.774L329.56 287.96ZM393.88 285.72L393.918 286.038C394.078 286.019 394.199 285.884 394.2 285.723C394.201 285.562 394.083 285.425 393.923 285.403L393.88 285.72ZM375 287.96L374.757 287.752C374.671 287.852 374.656 287.994 374.718 288.111C374.78 288.227 374.907 288.293 375.038 288.278L375 287.96ZM375 283.16L375.043 282.843C374.915 282.826 374.789 282.887 374.724 282.998C374.659 283.109 374.667 283.249 374.744 283.352L375 283.16ZM310.36 253.08V293.08H311V253.08H310.36ZM393.56 253.08V293.08H394.2V253.08H393.56ZM358.43 256.186L349.346 281.144L349.947 281.363L359.032 256.405L358.43 256.186ZM349.646 280.933H346.586V281.573H349.646V280.933ZM346.886 281.363L355.971 256.405L355.37 256.186L346.285 281.144L346.886 281.363ZM355.67 256.615H358.731V255.975H355.67V256.615ZM310.723 286.037L329.603 283.477L329.517 282.843L310.637 285.403L310.723 286.037ZM329.289 282.99L327.689 285.55L328.231 285.89L329.831 283.33L329.289 282.99ZM327.7 285.906L329.3 288.146L329.82 287.774L328.22 285.534L327.7 285.906ZM329.598 287.642L310.718 285.402L310.642 286.038L329.522 288.278L329.598 287.642ZM327.32 283.8H329.56V283.16H327.32V283.8ZM325.08 284.12H329.24V283.48H325.08V284.12ZM322.52 284.44H329.24V283.8H322.52V284.44ZM320.28 284.76H328.92V284.12H320.28V284.76ZM318.04 285.08H328.6V284.44H318.04V285.08ZM315.48 285.4H328.6V284.76H315.48V285.4ZM313.24 285.72H328.28V285.08H313.24V285.72ZM310.68 286.04H327.96V285.4H310.68V286.04ZM313.56 286.36H328.28V285.72H313.56V286.36ZM316.12 286.68H328.6V286.04H316.12V286.68ZM319 287H328.92V286.36H319V287ZM321.56 287.32H328.92V286.68H321.56V287.32ZM324.44 287.64H329.24V287H324.44V287.64ZM327 287.96H329.56V287.32H327V287.96ZM393.842 285.402L374.962 287.642L375.038 288.278L393.918 286.038L393.842 285.402ZM375.243 288.168L377.163 285.928L376.677 285.512L374.757 287.752L375.243 288.168ZM377.176 285.528L375.256 282.968L374.744 283.352L376.664 285.912L377.176 285.528ZM374.957 283.477L393.837 286.037L393.923 285.403L375.043 282.843L374.957 283.477ZM376.92 286.04H393.88V285.4H376.92V286.04ZM376.92 286.36H391.32V285.72H376.92V286.36ZM376.6 286.68H388.76V286.04H376.6V286.68ZM376.28 287H385.88V286.36H376.28V287ZM375.96 287.32H383.32V286.68H375.96V287.32ZM375.64 287.64H380.44V287H375.64V287.64ZM375.32 287.96H377.88V287.32H375.32V287.96ZM375.32 283.8H377.56V283.16H375.32V283.8ZM375.64 284.12H379.8V283.48H375.64V284.12ZM375.96 284.44H382.36V283.8H375.96V284.44ZM375.96 284.76H384.6V284.12H375.96V284.76ZM376.28 285.08H386.84V284.44H376.28V285.08ZM376.6 285.4H389.4V284.76H376.6V285.4ZM376.92 285.72H391.64V285.08H376.92V285.72ZM310.68 286.04L393.88 286.04L393.88 285.4L310.68 285.4L310.68 286.04Z" fill="white"/>
    </g>
    <!--    20 I1-->
    <g class="group">
    </g>
    <!--    21 I2-->
    <g class="group">
    </g>
    <!--    22 H-->
    <g class="group">
    </g>
    <!--    23 H1-->
    <g class="group">
    </g>
    <!--    24 H2-->
    <g class="group">
    </g>
    <!--    25 h-->
    <g class="group">
    </g>
    <!--    26 h1-->
    <g class="group">
    </g>
    <!--    27 h2-->
    <g class="group">
    </g>
    <!--    28 R-->
    <g class="group">
    </g>
    <!--    29 Deg-->
    <g class="group">
    </g>
    <!--    29 DN-->
    <g class="group">
    </g>

</svg>
