<svg width="477" height="143" viewBox="0 0 477 143" fill="none" xmlns="http://www.w3.org/2000/svg">
<rect width="477" height="143" fill="none"/>
<path d="M33.5957 39.3599H86.0032H33.5957Z" stroke="white" stroke-width="0.48" stroke-linecap="round" stroke-linejoin="round"/>
<path d="M90.0898 39.3599H94.417H90.0898Z" stroke="white" stroke-width="0.48" stroke-linecap="round" stroke-linejoin="round"/>
<path d="M98.7441 39.3599H150.911H98.7441Z" stroke="white" stroke-width="0.48" stroke-linecap="round" stroke-linejoin="round"/>
<path d="M155.238 39.3599H159.565H155.238Z" stroke="white" stroke-width="0.48" stroke-linecap="round" stroke-linejoin="round"/>
<path d="M163.893 39.3599H216.06H163.893Z" stroke="white" stroke-width="0.48" stroke-linecap="round" stroke-linejoin="round"/>
<path d="M220.387 39.3599H224.714H220.387Z" stroke="white" stroke-width="0.48" stroke-linecap="round" stroke-linejoin="round"/>
<path d="M228.801 39.3599H281.208H228.801Z" stroke="white" stroke-width="0.48" stroke-linecap="round" stroke-linejoin="round"/>
<path d="M285.535 39.3599H289.622H285.535Z" stroke="white" stroke-width="0.48" stroke-linecap="round" stroke-linejoin="round"/>
<path d="M293.949 39.3599H346.357H293.949Z" stroke="white" stroke-width="0.48" stroke-linecap="round" stroke-linejoin="round"/>
<path d="M350.684 39.3599H354.77H350.684Z" stroke="white" stroke-width="0.48" stroke-linecap="round" stroke-linejoin="round"/>
<path d="M359.098 39.3599H411.505H359.098Z" stroke="white" stroke-width="0.48" stroke-linecap="round" stroke-linejoin="round"/>
<path d="M415.594 39.3599H419.921H415.594Z" stroke="white" stroke-width="0.48" stroke-linecap="round" stroke-linejoin="round"/>
<path d="M424.248 39.3599H476.415H424.248Z" stroke="white" stroke-width="0.48" stroke-linecap="round" stroke-linejoin="round"/>
<path d="M46.3359 72.48L51.6248 77.52L46.3359 72.48Z" stroke="white" stroke-width="1.44" stroke-linecap="round" stroke-linejoin="round"/>
<path d="M101.629 1.19995V77.5199V1.19995Z" stroke="white" stroke-width="1.68" stroke-linecap="round" stroke-linejoin="round"/>
<path d="M46.3359 72.48V6.23999V72.48Z" stroke="white" stroke-width="1.68" stroke-linecap="round" stroke-linejoin="round"/>
<path d="M46.3359 6.23995L51.6248 1.19995L46.3359 6.23995Z" stroke="white" stroke-width="1.44" stroke-linecap="round" stroke-linejoin="round"/>
<path d="M51.625 1.19995V77.5199V1.19995Z" stroke="white" stroke-width="1.68" stroke-linecap="round" stroke-linejoin="round"/>
<path d="M51.625 1.19995H101.628H51.625Z" stroke="white" stroke-width="1.68" stroke-linecap="round" stroke-linejoin="round"/>
<path d="M46.3359 6.23999H101.628H46.3359Z" stroke="white" stroke-width="0.72" stroke-linecap="round" stroke-linejoin="round"/>
<path d="M46.3359 72.48H101.628H46.3359Z" stroke="white" stroke-width="0.72" stroke-linecap="round" stroke-linejoin="round"/>
<path d="M51.625 77.52H101.628H51.625Z" stroke="white" stroke-width="1.68" stroke-linecap="round" stroke-linejoin="round"/>
<path d="M458.625 77.52L463.673 72.48L458.625 77.52Z" stroke="white" stroke-width="1.68" stroke-linecap="round" stroke-linejoin="round"/>
<path d="M284.814 1.19995H458.624H284.814Z" stroke="white" stroke-width="1.68" stroke-linecap="round" stroke-linejoin="round"/>
<path d="M463.674 6.23999V72.48V6.23999Z" stroke="white" stroke-width="1.68" stroke-linecap="round" stroke-linejoin="round"/>
<path d="M101.629 1.19995H284.815H101.629Z" stroke="white" stroke-width="1.68" stroke-linecap="round" stroke-linejoin="round"/>
<path d="M101.629 77.52H284.815H101.629Z" stroke="white" stroke-width="1.68" stroke-linecap="round" stroke-linejoin="round"/>
<path d="M284.814 6.23999H463.673H284.814Z" stroke="white" stroke-width="0.72" stroke-linecap="round" stroke-linejoin="round"/>
<path d="M284.814 72.48H463.673H284.814Z" stroke="white" stroke-width="0.72" stroke-linecap="round" stroke-linejoin="round"/>
<path d="M284.814 77.52H458.624H284.814Z" stroke="white" stroke-width="1.68" stroke-linecap="round" stroke-linejoin="round"/>
<path d="M458.625 1.19995L463.673 6.23995L458.625 1.19995Z" stroke="white" stroke-width="1.68" stroke-linecap="round" stroke-linejoin="round"/>
<path d="M458.625 1.19995V77.5199V1.19995Z" stroke="white" stroke-width="1.68" stroke-linecap="round" stroke-linejoin="round"/>
<path d="M284.814 1.19995V77.5199V1.19995Z" stroke="white" stroke-width="1.68" stroke-linecap="round" stroke-linejoin="round"/>
<path d="M284.814 1.19995L287.94 6.23995L284.814 1.19995Z" stroke="white" stroke-width="0.96" stroke-linecap="round" stroke-linejoin="round"/>
<path d="M287.939 6.23995L290.824 1.19995L287.939 6.23995Z" stroke="white" stroke-width="0.96" stroke-linecap="round" stroke-linejoin="round"/>
<path d="M290.824 1.19995L293.949 6.23995L290.824 1.19995Z" stroke="white" stroke-width="0.96" stroke-linecap="round" stroke-linejoin="round"/>
<path d="M293.949 6.23995L296.834 1.19995L293.949 6.23995Z" stroke="white" stroke-width="0.96" stroke-linecap="round" stroke-linejoin="round"/>
<path d="M296.834 1.19995L299.959 6.23995L296.834 1.19995Z" stroke="white" stroke-width="0.96" stroke-linecap="round" stroke-linejoin="round"/>
<path d="M299.959 6.23995L302.844 1.19995L299.959 6.23995Z" stroke="white" stroke-width="0.96" stroke-linecap="round" stroke-linejoin="round"/>
<path d="M302.846 1.19995L305.971 6.23995L302.846 1.19995Z" stroke="white" stroke-width="0.96" stroke-linecap="round" stroke-linejoin="round"/>
<path d="M305.971 6.23995L309.096 1.19995L305.971 6.23995Z" stroke="white" stroke-width="0.96" stroke-linecap="round" stroke-linejoin="round"/>
<path d="M309.096 1.19995L311.981 6.23995L309.096 1.19995Z" stroke="white" stroke-width="0.96" stroke-linecap="round" stroke-linejoin="round"/>
<path d="M311.98 6.23995L315.106 1.19995L311.98 6.23995Z" stroke="white" stroke-width="0.96" stroke-linecap="round" stroke-linejoin="round"/>
<path d="M315.105 1.19995L317.99 6.23995L315.105 1.19995Z" stroke="white" stroke-width="0.96" stroke-linecap="round" stroke-linejoin="round"/>
<path d="M317.99 6.23995L321.115 1.19995L317.99 6.23995Z" stroke="white" stroke-width="0.96" stroke-linecap="round" stroke-linejoin="round"/>
<path d="M321.115 1.19995L324 6.23995L321.115 1.19995Z" stroke="white" stroke-width="0.96" stroke-linecap="round" stroke-linejoin="round"/>
<path d="M324 6.23995L327.125 1.19995L324 6.23995Z" stroke="white" stroke-width="0.96" stroke-linecap="round" stroke-linejoin="round"/>
<path d="M327.125 1.19995L330.01 6.23995L327.125 1.19995Z" stroke="white" stroke-width="0.96" stroke-linecap="round" stroke-linejoin="round"/>
<path d="M330.01 6.23995L333.135 1.19995L330.01 6.23995Z" stroke="white" stroke-width="0.96" stroke-linecap="round" stroke-linejoin="round"/>
<path d="M333.135 1.19995L336.26 6.23995L333.135 1.19995Z" stroke="white" stroke-width="0.96" stroke-linecap="round" stroke-linejoin="round"/>
<path d="M336.26 6.23995L339.145 1.19995L336.26 6.23995Z" stroke="white" stroke-width="0.96" stroke-linecap="round" stroke-linejoin="round"/>
<path d="M339.145 1.19995L342.27 6.23995L339.145 1.19995Z" stroke="white" stroke-width="0.96" stroke-linecap="round" stroke-linejoin="round"/>
<path d="M342.271 6.23995L345.156 1.19995L342.271 6.23995Z" stroke="white" stroke-width="0.96" stroke-linecap="round" stroke-linejoin="round"/>
<path d="M345.156 1.19995L348.281 6.23995L345.156 1.19995Z" stroke="white" stroke-width="0.96" stroke-linecap="round" stroke-linejoin="round"/>
<path d="M348.281 6.23995L351.166 1.19995L348.281 6.23995Z" stroke="white" stroke-width="0.96" stroke-linecap="round" stroke-linejoin="round"/>
<path d="M351.166 1.19995L354.291 6.23995L351.166 1.19995Z" stroke="white" stroke-width="0.96" stroke-linecap="round" stroke-linejoin="round"/>
<path d="M354.291 6.23995L357.176 1.19995L354.291 6.23995Z" stroke="white" stroke-width="0.96" stroke-linecap="round" stroke-linejoin="round"/>
<path d="M357.176 1.19995L360.301 6.23995L357.176 1.19995Z" stroke="white" stroke-width="0.96" stroke-linecap="round" stroke-linejoin="round"/>
<path d="M360.301 6.23995L363.186 1.19995L360.301 6.23995Z" stroke="white" stroke-width="0.96" stroke-linecap="round" stroke-linejoin="round"/>
<path d="M363.186 1.19995L366.311 6.23995L363.186 1.19995Z" stroke="white" stroke-width="0.96" stroke-linecap="round" stroke-linejoin="round"/>
<path d="M366.311 6.23995L369.436 1.19995L366.311 6.23995Z" stroke="white" stroke-width="0.96" stroke-linecap="round" stroke-linejoin="round"/>
<path d="M369.436 1.19995L372.32 6.23995L369.436 1.19995Z" stroke="white" stroke-width="0.96" stroke-linecap="round" stroke-linejoin="round"/>
<path d="M372.32 6.23995L375.446 1.19995L372.32 6.23995Z" stroke="white" stroke-width="0.96" stroke-linecap="round" stroke-linejoin="round"/>
<path d="M375.445 1.19995L378.33 6.23995L375.445 1.19995Z" stroke="white" stroke-width="0.96" stroke-linecap="round" stroke-linejoin="round"/>
<path d="M378.33 6.23995L381.455 1.19995L378.33 6.23995Z" stroke="white" stroke-width="0.96" stroke-linecap="round" stroke-linejoin="round"/>
<path d="M381.455 1.19995L384.34 6.23995L381.455 1.19995Z" stroke="white" stroke-width="0.96" stroke-linecap="round" stroke-linejoin="round"/>
<path d="M384.34 6.23995L387.465 1.19995L384.34 6.23995Z" stroke="white" stroke-width="0.96" stroke-linecap="round" stroke-linejoin="round"/>
<path d="M387.467 1.19995L390.352 6.23995L387.467 1.19995Z" stroke="white" stroke-width="0.96" stroke-linecap="round" stroke-linejoin="round"/>
<path d="M390.352 6.23995L393.477 1.19995L390.352 6.23995Z" stroke="white" stroke-width="0.96" stroke-linecap="round" stroke-linejoin="round"/>
<path d="M393.477 1.19995L396.602 6.23995L393.477 1.19995Z" stroke="white" stroke-width="0.96" stroke-linecap="round" stroke-linejoin="round"/>
<path d="M396.602 6.23995L399.486 1.19995L396.602 6.23995Z" stroke="white" stroke-width="0.96" stroke-linecap="round" stroke-linejoin="round"/>
<path d="M399.486 1.19995L402.612 6.23995L399.486 1.19995Z" stroke="white" stroke-width="0.96" stroke-linecap="round" stroke-linejoin="round"/>
<path d="M402.611 6.23995L405.496 1.19995L402.611 6.23995Z" stroke="white" stroke-width="0.96" stroke-linecap="round" stroke-linejoin="round"/>
<path d="M405.496 1.19995L408.621 6.23995L405.496 1.19995Z" stroke="white" stroke-width="0.96" stroke-linecap="round" stroke-linejoin="round"/>
<path d="M408.621 6.23995L411.506 1.19995L408.621 6.23995Z" stroke="white" stroke-width="0.96" stroke-linecap="round" stroke-linejoin="round"/>
<path d="M411.506 1.19995L414.631 6.23995L411.506 1.19995Z" stroke="white" stroke-width="0.96" stroke-linecap="round" stroke-linejoin="round"/>
<path d="M414.631 6.23995L417.516 1.19995L414.631 6.23995Z" stroke="white" stroke-width="0.96" stroke-linecap="round" stroke-linejoin="round"/>
<path d="M417.516 1.19995L420.641 6.23995L417.516 1.19995Z" stroke="white" stroke-width="0.96" stroke-linecap="round" stroke-linejoin="round"/>
<path d="M420.641 6.23995L423.525 1.19995L420.641 6.23995Z" stroke="white" stroke-width="0.96" stroke-linecap="round" stroke-linejoin="round"/>
<path d="M423.525 1.19995L426.651 6.23995L423.525 1.19995Z" stroke="white" stroke-width="0.96" stroke-linecap="round" stroke-linejoin="round"/>
<path d="M426.65 6.23995L429.776 1.19995L426.65 6.23995Z" stroke="white" stroke-width="0.96" stroke-linecap="round" stroke-linejoin="round"/>
<path d="M429.777 1.19995L432.662 6.23995L429.777 1.19995Z" stroke="white" stroke-width="0.96" stroke-linecap="round" stroke-linejoin="round"/>
<path d="M432.662 6.23995L435.787 1.19995L432.662 6.23995Z" stroke="white" stroke-width="0.96" stroke-linecap="round" stroke-linejoin="round"/>
<path d="M435.787 1.19995L438.672 6.23995L435.787 1.19995Z" stroke="white" stroke-width="0.96" stroke-linecap="round" stroke-linejoin="round"/>
<path d="M438.672 6.23995L441.797 1.19995L438.672 6.23995Z" stroke="white" stroke-width="0.96" stroke-linecap="round" stroke-linejoin="round"/>
<path d="M441.797 1.19995L444.682 6.23995L441.797 1.19995Z" stroke="white" stroke-width="0.96" stroke-linecap="round" stroke-linejoin="round"/>
<path d="M444.682 6.23995L447.807 1.19995L444.682 6.23995Z" stroke="white" stroke-width="0.96" stroke-linecap="round" stroke-linejoin="round"/>
<path d="M447.807 1.19995L450.691 6.23995L447.807 1.19995Z" stroke="white" stroke-width="0.96" stroke-linecap="round" stroke-linejoin="round"/>
<path d="M450.691 6.23995L453.817 1.19995L450.691 6.23995Z" stroke="white" stroke-width="0.96" stroke-linecap="round" stroke-linejoin="round"/>
<path d="M453.816 1.19995L456.942 6.23995L453.816 1.19995Z" stroke="white" stroke-width="0.96" stroke-linecap="round" stroke-linejoin="round"/>
<path d="M456.941 6.23995L458.624 1.19995L456.941 6.23995Z" stroke="white" stroke-width="0.96" stroke-linecap="round" stroke-linejoin="round"/>
<path d="M284.814 77.52L287.94 72.48L284.814 77.52Z" stroke="white" stroke-width="0.96" stroke-linecap="round" stroke-linejoin="round"/>
<path d="M287.939 72.48L290.824 77.52L287.939 72.48Z" stroke="white" stroke-width="0.96" stroke-linecap="round" stroke-linejoin="round"/>
<path d="M290.824 77.52L293.949 72.48L290.824 77.52Z" stroke="white" stroke-width="0.96" stroke-linecap="round" stroke-linejoin="round"/>
<path d="M293.949 72.48L296.834 77.52L293.949 72.48Z" stroke="white" stroke-width="0.96" stroke-linecap="round" stroke-linejoin="round"/>
<path d="M296.834 77.52L299.959 72.48L296.834 77.52Z" stroke="white" stroke-width="0.96" stroke-linecap="round" stroke-linejoin="round"/>
<path d="M299.959 72.48L302.844 77.52L299.959 72.48Z" stroke="white" stroke-width="0.96" stroke-linecap="round" stroke-linejoin="round"/>
<path d="M302.846 77.52L305.971 72.48L302.846 77.52Z" stroke="white" stroke-width="0.96" stroke-linecap="round" stroke-linejoin="round"/>
<path d="M305.971 72.48L309.096 77.52L305.971 72.48Z" stroke="white" stroke-width="0.96" stroke-linecap="round" stroke-linejoin="round"/>
<path d="M309.096 77.52L311.981 72.48L309.096 77.52Z" stroke="white" stroke-width="0.96" stroke-linecap="round" stroke-linejoin="round"/>
<path d="M311.98 72.48L315.106 77.52L311.98 72.48Z" stroke="white" stroke-width="0.96" stroke-linecap="round" stroke-linejoin="round"/>
<path d="M315.105 77.52L317.99 72.48L315.105 77.52Z" stroke="white" stroke-width="0.96" stroke-linecap="round" stroke-linejoin="round"/>
<path d="M317.99 72.48L321.115 77.52L317.99 72.48Z" stroke="white" stroke-width="0.96" stroke-linecap="round" stroke-linejoin="round"/>
<path d="M321.115 77.52L324 72.48L321.115 77.52Z" stroke="white" stroke-width="0.96" stroke-linecap="round" stroke-linejoin="round"/>
<path d="M324 72.48L327.125 77.52L324 72.48Z" stroke="white" stroke-width="0.96" stroke-linecap="round" stroke-linejoin="round"/>
<path d="M327.125 77.52L330.01 72.48L327.125 77.52Z" stroke="white" stroke-width="0.96" stroke-linecap="round" stroke-linejoin="round"/>
<path d="M330.01 72.48L333.135 77.52L330.01 72.48Z" stroke="white" stroke-width="0.96" stroke-linecap="round" stroke-linejoin="round"/>
<path d="M333.135 77.52L336.26 72.48L333.135 77.52Z" stroke="white" stroke-width="0.96" stroke-linecap="round" stroke-linejoin="round"/>
<path d="M336.26 72.48L339.145 77.52L336.26 72.48Z" stroke="white" stroke-width="0.96" stroke-linecap="round" stroke-linejoin="round"/>
<path d="M339.145 77.52L342.27 72.48L339.145 77.52Z" stroke="white" stroke-width="0.96" stroke-linecap="round" stroke-linejoin="round"/>
<path d="M342.271 72.48L345.156 77.52L342.271 72.48Z" stroke="white" stroke-width="0.96" stroke-linecap="round" stroke-linejoin="round"/>
<path d="M345.156 77.52L348.281 72.48L345.156 77.52Z" stroke="white" stroke-width="0.96" stroke-linecap="round" stroke-linejoin="round"/>
<path d="M348.281 72.48L351.166 77.52L348.281 72.48Z" stroke="white" stroke-width="0.96" stroke-linecap="round" stroke-linejoin="round"/>
<path d="M351.166 77.52L354.291 72.48L351.166 77.52Z" stroke="white" stroke-width="0.96" stroke-linecap="round" stroke-linejoin="round"/>
<path d="M354.291 72.48L357.176 77.52L354.291 72.48Z" stroke="white" stroke-width="0.96" stroke-linecap="round" stroke-linejoin="round"/>
<path d="M357.176 77.52L360.301 72.48L357.176 77.52Z" stroke="white" stroke-width="0.96" stroke-linecap="round" stroke-linejoin="round"/>
<path d="M360.301 72.48L363.186 77.52L360.301 72.48Z" stroke="white" stroke-width="0.96" stroke-linecap="round" stroke-linejoin="round"/>
<path d="M363.186 77.52L366.311 72.48L363.186 77.52Z" stroke="white" stroke-width="0.96" stroke-linecap="round" stroke-linejoin="round"/>
<path d="M366.311 72.48L369.436 77.52L366.311 72.48Z" stroke="white" stroke-width="0.96" stroke-linecap="round" stroke-linejoin="round"/>
<path d="M369.436 77.52L372.32 72.48L369.436 77.52Z" stroke="white" stroke-width="0.96" stroke-linecap="round" stroke-linejoin="round"/>
<path d="M372.32 72.48L375.446 77.52L372.32 72.48Z" stroke="white" stroke-width="0.96" stroke-linecap="round" stroke-linejoin="round"/>
<path d="M375.445 77.52L378.33 72.48L375.445 77.52Z" stroke="white" stroke-width="0.96" stroke-linecap="round" stroke-linejoin="round"/>
<path d="M378.33 72.48L381.455 77.52L378.33 72.48Z" stroke="white" stroke-width="0.96" stroke-linecap="round" stroke-linejoin="round"/>
<path d="M381.455 77.52L384.34 72.48L381.455 77.52Z" stroke="white" stroke-width="0.96" stroke-linecap="round" stroke-linejoin="round"/>
<path d="M384.34 72.48L387.465 77.52L384.34 72.48Z" stroke="white" stroke-width="0.96" stroke-linecap="round" stroke-linejoin="round"/>
<path d="M387.467 77.52L390.352 72.48L387.467 77.52Z" stroke="white" stroke-width="0.96" stroke-linecap="round" stroke-linejoin="round"/>
<path d="M390.352 72.48L393.477 77.52L390.352 72.48Z" stroke="white" stroke-width="0.96" stroke-linecap="round" stroke-linejoin="round"/>
<path d="M393.477 77.52L396.602 72.48L393.477 77.52Z" stroke="white" stroke-width="0.96" stroke-linecap="round" stroke-linejoin="round"/>
<path d="M396.602 72.48L399.486 77.52L396.602 72.48Z" stroke="white" stroke-width="0.96" stroke-linecap="round" stroke-linejoin="round"/>
<path d="M399.486 77.52L402.612 72.48L399.486 77.52Z" stroke="white" stroke-width="0.96" stroke-linecap="round" stroke-linejoin="round"/>
<path d="M402.611 72.48L405.496 77.52L402.611 72.48Z" stroke="white" stroke-width="0.96" stroke-linecap="round" stroke-linejoin="round"/>
<path d="M405.496 77.52L408.621 72.48L405.496 77.52Z" stroke="white" stroke-width="0.96" stroke-linecap="round" stroke-linejoin="round"/>
<path d="M408.621 72.48L411.506 77.52L408.621 72.48Z" stroke="white" stroke-width="0.96" stroke-linecap="round" stroke-linejoin="round"/>
<path d="M411.506 77.52L414.631 72.48L411.506 77.52Z" stroke="white" stroke-width="0.96" stroke-linecap="round" stroke-linejoin="round"/>
<path d="M414.631 72.48L417.516 77.52L414.631 72.48Z" stroke="white" stroke-width="0.96" stroke-linecap="round" stroke-linejoin="round"/>
<path d="M417.516 77.52L420.641 72.48L417.516 77.52Z" stroke="white" stroke-width="0.96" stroke-linecap="round" stroke-linejoin="round"/>
<path d="M420.641 72.48L423.525 77.52L420.641 72.48Z" stroke="white" stroke-width="0.96" stroke-linecap="round" stroke-linejoin="round"/>
<path d="M423.525 77.52L426.651 72.48L423.525 77.52Z" stroke="white" stroke-width="0.96" stroke-linecap="round" stroke-linejoin="round"/>
<path d="M426.65 72.48L429.776 77.52L426.65 72.48Z" stroke="white" stroke-width="0.96" stroke-linecap="round" stroke-linejoin="round"/>
<path d="M429.777 77.52L432.662 72.48L429.777 77.52Z" stroke="white" stroke-width="0.96" stroke-linecap="round" stroke-linejoin="round"/>
<path d="M432.662 72.48L435.787 77.52L432.662 72.48Z" stroke="white" stroke-width="0.96" stroke-linecap="round" stroke-linejoin="round"/>
<path d="M435.787 77.52L438.672 72.48L435.787 77.52Z" stroke="white" stroke-width="0.96" stroke-linecap="round" stroke-linejoin="round"/>
<path d="M438.672 72.48L441.797 77.52L438.672 72.48Z" stroke="white" stroke-width="0.96" stroke-linecap="round" stroke-linejoin="round"/>
<path d="M441.797 77.52L444.682 72.48L441.797 77.52Z" stroke="white" stroke-width="0.96" stroke-linecap="round" stroke-linejoin="round"/>
<path d="M444.682 72.48L447.807 77.52L444.682 72.48Z" stroke="white" stroke-width="0.96" stroke-linecap="round" stroke-linejoin="round"/>
<path d="M447.807 77.52L450.691 72.48L447.807 77.52Z" stroke="white" stroke-width="0.96" stroke-linecap="round" stroke-linejoin="round"/>
<path d="M450.691 72.48L453.817 77.52L450.691 72.48Z" stroke="white" stroke-width="0.96" stroke-linecap="round" stroke-linejoin="round"/>
<path d="M453.816 77.52L456.942 72.48L453.816 77.52Z" stroke="white" stroke-width="0.96" stroke-linecap="round" stroke-linejoin="round"/>
<path d="M456.941 72.48L458.624 77.52L456.941 72.48Z" stroke="white" stroke-width="0.96" stroke-linecap="round" stroke-linejoin="round"/>
<path d="M62.4434 1.19995L65.5686 6.23995L62.4434 1.19995Z" stroke="white" stroke-width="0.96" stroke-linecap="round" stroke-linejoin="round"/>
<path d="M65.5684 6.23995L68.4532 1.19995L65.5684 6.23995Z" stroke="white" stroke-width="0.96" stroke-linecap="round" stroke-linejoin="round"/>
<path d="M68.4531 1.19995L71.5783 6.23995L68.4531 1.19995Z" stroke="white" stroke-width="0.96" stroke-linecap="round" stroke-linejoin="round"/>
<path d="M71.5781 6.23995L74.4629 1.19995L71.5781 6.23995Z" stroke="white" stroke-width="0.96" stroke-linecap="round" stroke-linejoin="round"/>
<path d="M74.4629 1.19995L77.5881 6.23995L74.4629 1.19995Z" stroke="white" stroke-width="0.96" stroke-linecap="round" stroke-linejoin="round"/>
<path d="M77.5898 6.23995L80.7151 1.19995L77.5898 6.23995Z" stroke="white" stroke-width="0.96" stroke-linecap="round" stroke-linejoin="round"/>
<path d="M80.7148 1.19995L83.5997 6.23995L80.7148 1.19995Z" stroke="white" stroke-width="0.96" stroke-linecap="round" stroke-linejoin="round"/>
<path d="M83.5996 6.23995L86.7248 1.19995L83.5996 6.23995Z" stroke="white" stroke-width="0.96" stroke-linecap="round" stroke-linejoin="round"/>
<path d="M86.7246 1.19995L89.6094 6.23995L86.7246 1.19995Z" stroke="white" stroke-width="0.96" stroke-linecap="round" stroke-linejoin="round"/>
<path d="M89.6094 6.23995L92.7346 1.19995L89.6094 6.23995Z" stroke="white" stroke-width="0.96" stroke-linecap="round" stroke-linejoin="round"/>
<path d="M92.7344 1.19995L95.6192 6.23995L92.7344 1.19995Z" stroke="white" stroke-width="0.96" stroke-linecap="round" stroke-linejoin="round"/>
<path d="M95.6191 6.23995L98.7443 1.19995L95.6191 6.23995Z" stroke="white" stroke-width="0.96" stroke-linecap="round" stroke-linejoin="round"/>
<path d="M98.7441 1.19995L101.629 6.23995L98.7441 1.19995Z" stroke="white" stroke-width="0.96" stroke-linecap="round" stroke-linejoin="round"/>
<path d="M51.625 1.19995L53.5482 6.23995L51.625 1.19995Z" stroke="white" stroke-width="0.96" stroke-linecap="round" stroke-linejoin="round"/>
<path d="M53.5488 6.23995L56.4337 1.19995L53.5488 6.23995Z" stroke="white" stroke-width="0.96" stroke-linecap="round" stroke-linejoin="round"/>
<path d="M56.4336 1.19995L59.5588 6.23995L56.4336 1.19995Z" stroke="white" stroke-width="0.96" stroke-linecap="round" stroke-linejoin="round"/>
<path d="M59.5586 6.23995L62.4434 1.19995L59.5586 6.23995Z" stroke="white" stroke-width="0.96" stroke-linecap="round" stroke-linejoin="round"/>
<path d="M62.4434 77.52L65.5686 72.48L62.4434 77.52Z" stroke="white" stroke-width="0.96" stroke-linecap="round" stroke-linejoin="round"/>
<path d="M65.5684 72.48L68.4532 77.52L65.5684 72.48Z" stroke="white" stroke-width="0.96" stroke-linecap="round" stroke-linejoin="round"/>
<path d="M68.4531 77.52L71.5783 72.48L68.4531 77.52Z" stroke="white" stroke-width="0.96" stroke-linecap="round" stroke-linejoin="round"/>
<path d="M71.5781 72.48L74.4629 77.52L71.5781 72.48Z" stroke="white" stroke-width="0.96" stroke-linecap="round" stroke-linejoin="round"/>
<path d="M74.4629 77.52L77.5881 72.48L74.4629 77.52Z" stroke="white" stroke-width="0.96" stroke-linecap="round" stroke-linejoin="round"/>
<path d="M77.5898 72.48L80.7151 77.52L77.5898 72.48Z" stroke="white" stroke-width="0.96" stroke-linecap="round" stroke-linejoin="round"/>
<path d="M80.7148 77.52L83.5997 72.48L80.7148 77.52Z" stroke="white" stroke-width="0.96" stroke-linecap="round" stroke-linejoin="round"/>
<path d="M83.5996 72.48L86.7248 77.52L83.5996 72.48Z" stroke="white" stroke-width="0.96" stroke-linecap="round" stroke-linejoin="round"/>
<path d="M86.7246 77.52L89.6094 72.48L86.7246 77.52Z" stroke="white" stroke-width="0.96" stroke-linecap="round" stroke-linejoin="round"/>
<path d="M89.6094 72.48L92.7346 77.52L89.6094 72.48Z" stroke="white" stroke-width="0.96" stroke-linecap="round" stroke-linejoin="round"/>
<path d="M92.7344 77.52L95.6192 72.48L92.7344 77.52Z" stroke="white" stroke-width="0.96" stroke-linecap="round" stroke-linejoin="round"/>
<path d="M95.6191 72.48L98.7443 77.52L95.6191 72.48Z" stroke="white" stroke-width="0.96" stroke-linecap="round" stroke-linejoin="round"/>
<path d="M98.7441 77.52L101.629 72.48L98.7441 77.52Z" stroke="white" stroke-width="0.96" stroke-linecap="round" stroke-linejoin="round"/>
<path d="M51.625 77.52L53.5482 72.48L51.625 77.52Z" stroke="white" stroke-width="0.96" stroke-linecap="round" stroke-linejoin="round"/>
<path d="M53.5488 72.48L56.4337 77.52L53.5488 72.48Z" stroke="white" stroke-width="0.96" stroke-linecap="round" stroke-linejoin="round"/>
<path d="M56.4336 77.52L59.5588 72.48L56.4336 77.52Z" stroke="white" stroke-width="0.96" stroke-linecap="round" stroke-linejoin="round"/>
<path d="M59.5586 72.48L62.4434 77.52L59.5586 72.48Z" stroke="white" stroke-width="0.96" stroke-linecap="round" stroke-linejoin="round"/>

    <!--    1 A-->
    <g class="group">
    </g>
    <!--    2 D-->
    <g class="group">
        <path d="M13.9307 35.8259L0.916016 31.0965V29.1541L15.9918 34.6325V36.4078L13.9307 35.8259ZM10.7997 42.2906L10.5936 42.2157C9.7822 41.9208 9.04607 41.5489 8.3852 41.0999C7.71778 40.6415 7.14524 40.1306 6.66758 39.5672C6.18992 38.9968 5.8235 38.3937 5.56831 37.7579C5.30657 37.1128 5.17571 36.4526 5.17571 35.7773C5.17571 35.0672 5.29349 34.4904 5.52905 34.0469C5.75806 33.594 6.09504 33.2639 6.53999 33.0567C6.97839 32.84 7.5084 32.7367 8.13001 32.7468C8.75162 32.7569 9.45503 32.8628 10.2402 33.0646L11.1432 33.3927C11.9219 33.7523 12.622 34.1564 13.2436 34.605C13.8652 35.0468 14.3952 35.5352 14.8336 36.0705C15.272 36.5988 15.609 37.1738 15.8446 37.7954C16.0736 38.4147 16.1881 39.0829 16.1881 39.8C16.1881 40.4614 16.054 41.0183 15.7857 41.4708C15.5174 41.9164 15.1412 42.2496 14.657 42.4705C14.1728 42.6844 13.6035 42.7804 12.9492 42.7584C12.2883 42.7271 11.5718 42.5712 10.7997 42.2906ZM10.5936 40.2733L10.7997 40.3482C11.3297 40.5408 11.827 40.6658 12.2916 40.7233C12.7561 40.7737 13.1651 40.7413 13.5184 40.6261C13.8718 40.5108 14.1499 40.302 14.3527 39.9998C14.549 39.6952 14.6471 39.2818 14.6471 38.7597C14.6471 38.1192 14.5195 37.5472 14.2644 37.0437C14.0092 36.5332 13.6722 36.0766 13.2534 35.6738C12.8346 35.271 12.3799 34.9108 11.8891 34.5932L9.52374 33.7337C9.16385 33.6864 8.81706 33.6822 8.48335 33.7211C8.1431 33.7506 7.84211 33.8431 7.58037 33.9986C7.3121 34.1448 7.09944 34.3704 6.9424 34.6753C6.78536 34.9733 6.70684 35.366 6.70684 35.8533C6.70684 36.3824 6.81153 36.8765 7.02092 37.3355C7.22376 37.7851 7.50513 38.1972 7.86501 38.5716C8.21835 38.9437 8.63057 39.2745 9.10169 39.5641C9.56627 39.8443 10.0636 40.0807 10.5936 40.2733Z" fill="white"/>
        <path d="M39.8453 1.43995C39.9779 1.43995 40.0853 1.3325 40.0853 1.19995C40.0853 1.0674 39.9779 0.959951 39.8453 0.959951V1.43995ZM19.4113 0.959951C19.2787 0.959951 19.1713 1.0674 19.1713 1.19995C19.1713 1.3325 19.2787 1.43995 19.4113 1.43995V0.959951ZM39.8453 77.76C39.9779 77.76 40.0853 77.6526 40.0853 77.52C40.0853 77.3875 39.9779 77.28 39.8453 77.28V77.76ZM19.4113 77.28C19.2787 77.28 19.1713 77.3875 19.1713 77.52C19.1713 77.6526 19.2787 77.76 19.4113 77.76V77.28ZM13.9307 35.8259L13.8487 36.0515C13.8542 36.0535 13.8598 36.0553 13.8654 36.0569L13.9307 35.8259ZM0.916016 31.0965H0.676016C0.676016 31.1974 0.739175 31.2876 0.834046 31.3221L0.916016 31.0965ZM0.916016 29.1541L0.997985 28.9285C0.924411 28.9018 0.84242 28.9126 0.778307 28.9575C0.714194 29.0025 0.676016 29.0758 0.676016 29.1541H0.916016ZM15.9918 34.6325H16.2318C16.2318 34.5316 16.1686 34.4414 16.0738 34.407L15.9918 34.6325ZM15.9918 36.4078L15.9266 36.6388C15.9989 36.6592 16.0767 36.6446 16.1366 36.5992C16.1966 36.5538 16.2318 36.483 16.2318 36.4078H15.9918ZM10.7997 42.2906L10.8816 42.065L10.8816 42.065L10.7997 42.2906ZM10.5936 42.2157L10.5116 42.4413L10.5116 42.4413L10.5936 42.2157ZM8.3852 41.0999L8.24933 41.2977L8.25032 41.2984L8.3852 41.0999ZM6.66758 39.5672L6.48357 39.7213L6.48451 39.7224L6.66758 39.5672ZM5.56831 37.7579L5.79104 37.6685L5.7907 37.6677L5.56831 37.7579ZM5.52905 34.0469L5.74105 34.1595L5.74322 34.1552L5.52905 34.0469ZM6.53999 33.0567L6.64137 33.2743L6.64631 33.2718L6.53999 33.0567ZM10.2402 33.0646L10.3222 32.839C10.3149 32.8364 10.3075 32.8341 10.3 32.8322L10.2402 33.0646ZM11.1432 33.3927L11.2438 33.1748C11.2377 33.172 11.2315 33.1695 11.2252 33.1672L11.1432 33.3927ZM13.2436 34.605L13.1031 34.7997L13.1046 34.8007L13.2436 34.605ZM14.8336 36.0705L14.648 36.2226L14.6489 36.2238L14.8336 36.0705ZM15.8446 37.7954L16.0697 37.7122L16.069 37.7104L15.8446 37.7954ZM15.7857 41.4708L15.9913 41.5946L15.9921 41.5932L15.7857 41.4708ZM14.657 42.4705L14.754 42.69L14.7566 42.6888L14.657 42.4705ZM12.9492 42.7584L12.9378 42.9982L12.9411 42.9983L12.9492 42.7584ZM10.5936 40.2733L10.6755 40.0477L10.6755 40.0477L10.5936 40.2733ZM10.7997 40.3482L10.7177 40.5738L10.7177 40.5738L10.7997 40.3482ZM12.2916 40.7233L12.2621 40.9615L12.2656 40.9618L12.2916 40.7233ZM14.3527 39.9998L14.552 40.1336L14.5544 40.1298L14.3527 39.9998ZM14.2644 37.0437L14.0497 37.151L14.0503 37.1522L14.2644 37.0437ZM11.8891 34.5932L12.0195 34.3917C12.0043 34.3819 11.9881 34.3738 11.9711 34.3677L11.8891 34.5932ZM9.52374 33.7337L9.6057 33.5081C9.58929 33.5021 9.57228 33.498 9.55497 33.4957L9.52374 33.7337ZM8.48335 33.7211L8.5041 33.9603L8.51111 33.9595L8.48335 33.7211ZM7.58037 33.9986L7.69528 34.2095L7.70297 34.205L7.58037 33.9986ZM6.9424 34.6753L7.15473 34.7872L7.15577 34.7852L6.9424 34.6753ZM7.02092 37.3355L7.23969 37.2368L7.23927 37.2359L7.02092 37.3355ZM7.86501 38.5716L8.03904 38.4064L8.03804 38.4053L7.86501 38.5716ZM9.10169 39.5641L8.97602 39.7686L8.97773 39.7696L9.10169 39.5641ZM25.1808 1.19995L25.4186 1.16765C25.4024 1.04868 25.3009 0.959954 25.1808 0.959951C25.0607 0.959949 24.9591 1.04867 24.943 1.16764L25.1808 1.19995ZM27.104 15.3599L26.9601 15.5521C27.0376 15.61 27.1422 15.6159 27.2256 15.5668C27.309 15.5178 27.3548 15.4235 27.3418 15.3276L27.104 15.3599ZM23.257 15.3599L23.0191 15.3276C23.0061 15.4235 23.0519 15.5178 23.1353 15.5668C23.2187 15.6158 23.3233 15.61 23.4008 15.5521L23.257 15.3599ZM25.1802 77.5199L24.9423 77.5522C24.9585 77.6711 25.0601 77.7599 25.1802 77.7599C25.3002 77.7599 25.4018 77.6711 25.418 77.5522L25.1802 77.5199ZM23.257 63.3599L23.4008 63.1677C23.3234 63.1098 23.2187 63.1039 23.1353 63.153C23.0519 63.202 23.0061 63.2963 23.0191 63.3922L23.257 63.3599ZM25.1802 64.7999L25.1802 65.0399L25.1802 65.0399L25.1802 64.7999ZM27.104 63.3599L27.3418 63.3922C27.3548 63.2963 27.309 63.202 27.2257 63.153C27.1423 63.104 27.0376 63.1098 26.9602 63.1677L27.104 63.3599ZM39.8453 0.959951H19.4113V1.43995H39.8453V0.959951ZM39.8453 77.28H19.4113V77.76H39.8453V77.28ZM14.0126 35.6003L0.997985 30.8709L0.834046 31.3221L13.8487 36.0515L14.0126 35.6003ZM1.15602 31.0965V29.1541H0.676016V31.0965H1.15602ZM0.834046 29.3797L15.9098 34.8581L16.0738 34.407L0.997985 28.9285L0.834046 29.3797ZM15.7518 34.6325V36.4078H16.2318V34.6325H15.7518ZM16.057 36.1769L13.9959 35.5949L13.8654 36.0569L15.9266 36.6388L16.057 36.1769ZM10.8816 42.065L10.6755 41.9901L10.5116 42.4413L10.7177 42.5162L10.8816 42.065ZM10.6755 41.9901C9.88136 41.7015 9.16324 41.3384 8.52008 40.9014L8.25032 41.2984C8.92891 41.7595 9.68303 42.1402 10.5116 42.4413L10.6755 41.9901ZM8.52107 40.9021C7.86954 40.4546 7.31329 39.9577 6.85065 39.412L6.48451 39.7224C6.9772 40.3036 7.56603 40.8285 8.24933 41.2977L8.52107 40.9021ZM6.85159 39.4131C6.38877 38.8604 6.03603 38.2789 5.79103 37.6685L5.34558 37.8473C5.61096 38.5085 5.99107 39.1331 6.48358 39.7213L6.85159 39.4131ZM5.7907 37.6677C5.54023 37.0503 5.41571 36.4207 5.41571 35.7773H4.93571C4.93571 36.4845 5.07292 37.1753 5.34591 37.8482L5.7907 37.6677ZM5.41571 35.7773C5.41571 35.0912 5.5299 34.5569 5.74101 34.1594L5.31709 33.9343C5.05708 34.4238 4.93571 35.0432 4.93571 35.7773H5.41571ZM5.74322 34.1552C5.94883 33.7486 6.24694 33.4579 6.64134 33.2742L6.43863 32.8391C5.94315 33.0699 5.5673 33.4394 5.31488 33.9386L5.74322 34.1552ZM6.64631 33.2718C7.04245 33.0761 7.53261 32.9772 8.12612 32.9868L8.1339 32.5068C7.48419 32.4963 6.91433 32.604 6.43367 32.8415L6.64631 33.2718ZM8.12612 32.9868C8.7242 32.9965 9.40836 33.0986 10.1805 33.297L10.3 32.8322C9.5017 32.627 8.77905 32.5173 8.1339 32.5068L8.12612 32.9868ZM10.1583 33.2902L11.0612 33.6183L11.2252 33.1672L10.3222 32.839L10.1583 33.2902ZM11.0426 33.6106C11.8089 33.9645 12.4954 34.361 13.1031 34.7997L13.3841 34.4104C12.7486 33.9518 12.0348 33.5401 11.2438 33.1748L11.0426 33.6106ZM13.1046 34.8007C13.7105 35.2313 14.2244 35.7054 14.648 36.2226L15.0193 35.9184C14.5661 35.365 14.0199 34.8623 13.3826 34.4094L13.1046 34.8007ZM14.6489 36.2238C15.071 36.7323 15.3943 37.2844 15.6201 37.8805L16.069 37.7104C15.8237 37.0632 15.4731 36.4652 15.0183 35.9172L14.6489 36.2238ZM15.6195 37.8787C15.8378 38.4691 15.9481 39.1089 15.9481 39.8H16.4281C16.4281 39.057 16.3094 38.3603 16.0697 37.7122L15.6195 37.8787ZM15.9481 39.8C15.9481 40.4293 15.8206 40.9414 15.5792 41.3484L15.9921 41.5932C16.2873 41.0953 16.4281 40.4935 16.4281 39.8H15.9481ZM15.5801 41.347C15.3374 41.7501 14.9986 42.0508 14.5574 42.2521L14.7566 42.6888C15.2837 42.4483 15.6974 42.0827 15.9913 41.5946L15.5801 41.347ZM14.56 42.2509C14.1157 42.4472 13.5838 42.5396 12.9572 42.5185L12.9411 42.9983C13.6232 43.0212 14.2298 42.9215 14.7539 42.69L14.56 42.2509ZM12.9605 42.5187C12.3288 42.4888 11.6363 42.3393 10.8816 42.065L10.7177 42.5162C11.5073 42.8031 12.2478 42.9655 12.9378 42.9981L12.9605 42.5187ZM10.5116 40.4989L10.7177 40.5738L10.8817 40.1226L10.6755 40.0477L10.5116 40.4989ZM10.7177 40.5738C11.2614 40.7713 11.7764 40.9014 12.2621 40.9614L12.321 40.4851C11.8776 40.4302 11.398 40.3103 10.8816 40.1226L10.7177 40.5738ZM12.2656 40.9618C12.7556 41.0151 13.2 40.9824 13.5929 40.8542L13.444 40.3979C13.1302 40.5003 12.7567 40.5324 12.3175 40.4847L12.2656 40.9618ZM13.5929 40.8542C13.996 40.7227 14.3186 40.4813 14.552 40.1335L14.1534 39.8661C13.9811 40.1227 13.7475 40.2989 13.444 40.3979L13.5929 40.8542ZM14.5544 40.1298C14.7844 39.7729 14.8871 39.3086 14.8871 38.7597H14.4071C14.4071 39.255 14.3136 39.6175 14.151 39.8698L14.5544 40.1298ZM14.8871 38.7597C14.8871 38.0866 14.7528 37.4766 14.4784 36.9352L14.0503 37.1522C14.2863 37.6178 14.4071 38.1518 14.4071 38.7597H14.8871ZM14.479 36.9364C14.2114 36.401 13.8579 35.9223 13.4198 35.5008L13.087 35.8468C13.4865 36.231 13.807 36.6655 14.0497 37.151L14.479 36.9364ZM13.4198 35.5008C12.9899 35.0873 12.5231 34.7176 12.0195 34.3917L11.7588 34.7947C12.2367 35.104 12.6794 35.4547 13.087 35.8468L13.4198 35.5008ZM11.9711 34.3677L9.6057 33.5081L9.44177 33.9592L11.8072 34.8188L11.9711 34.3677ZM9.55497 33.4957C9.17707 33.4461 8.81041 33.4414 8.45559 33.4827L8.51111 33.9595C8.82371 33.9231 9.15063 33.9267 9.4925 33.9716L9.55497 33.4957ZM8.46261 33.482C8.09079 33.5142 7.75416 33.6162 7.45778 33.7923L7.70297 34.205C7.93005 34.07 8.19541 33.987 8.50409 33.9602L8.46261 33.482ZM7.46554 33.7879C7.14999 33.9598 6.90527 34.2232 6.72903 34.5655L7.15577 34.7852C7.29361 34.5176 7.47421 34.3298 7.6952 34.2094L7.46554 33.7879ZM6.73008 34.5634C6.54856 34.9079 6.46684 35.3432 6.46684 35.8533H6.94684C6.94684 35.3888 7.02216 35.0388 7.15472 34.7872L6.73008 34.5634ZM6.46684 35.8533C6.46684 36.4151 6.57822 36.9433 6.80257 37.4351L7.23927 37.2359C7.04485 36.8097 6.94684 36.3498 6.94684 35.8533H6.46684ZM6.80215 37.4342C7.01685 37.9101 7.31411 38.3448 7.69197 38.738L8.03804 38.4053C7.69614 38.0496 7.43068 37.6602 7.23969 37.2368L6.80215 37.4342ZM7.69098 38.7369C8.05973 39.1252 8.48852 39.4689 8.97602 39.7685L9.22736 39.3596C8.77263 39.0801 8.37696 38.7622 8.03904 38.4064L7.69098 38.7369ZM8.97773 39.7696C9.45614 40.0581 9.96755 40.3012 10.5116 40.4989L10.6755 40.0477C10.1596 39.8602 9.6764 39.6304 9.22565 39.3586L8.97773 39.7696ZM24.943 1.23225L26.8662 15.3922L27.3418 15.3276L25.4186 1.16765L24.943 1.23225ZM27.2478 15.1678L25.3246 13.7278L25.0369 14.112L26.9601 15.5521L27.2478 15.1678ZM25.037 13.7278L23.1131 15.1678L23.4008 15.5521L25.3246 14.1121L25.037 13.7278ZM23.4948 15.3922L25.4186 1.23226L24.943 1.16764L23.0191 15.3276L23.4948 15.3922ZM25.1808 1.67994H25.4212V1.19994H25.1808V1.67994ZM25.1808 1.91994H25.4212V1.43994H25.1808V1.91994ZM25.1808 2.15994H25.4212V1.67994H25.1808V2.15994ZM25.1808 2.39994H25.4212V1.91994H25.1808V2.39994ZM25.1808 2.63994H25.4212V2.15994H25.1808V2.63994ZM25.1808 2.87994H25.4212V2.39994H25.1808V2.87994ZM25.1808 3.11994H25.4212V2.63994H25.1808V3.11994ZM25.1808 14.1599L27.104 14.1599L27.104 13.6799L25.1808 13.6799L25.1808 14.1599ZM25.6616 14.3999H27.104V13.9199H25.6616V14.3999ZM25.902 14.6399H27.104V14.1599H25.902V14.6399ZM26.1424 14.8799H27.104V14.3999H26.1424V14.8799ZM26.6232 15.1199H27.104V14.6399H26.6232V15.1199ZM26.8636 15.3599H27.104V14.8799H26.8636V15.3599ZM23.4972 14.1599L25.1808 14.1599L25.1808 13.6799L23.4972 13.6799L23.4972 14.1599ZM23.4972 14.3999H24.9396V13.9199H23.4972V14.3999ZM23.4972 14.6399H24.6992V14.1599H23.4972V14.6399ZM23.4972 14.8799H24.2184V14.3999H23.4972V14.8799ZM23.4972 15.1199H23.978V14.6399H23.4972V15.1199ZM23.4972 15.3599H23.7376V14.8799H23.4972V15.3599ZM25.418 77.4876L23.4948 63.3276L23.0191 63.3922L24.9423 77.5522L25.418 77.4876ZM23.1131 63.552L25.0363 64.992L25.324 64.6078L23.4008 63.1677L23.1131 63.552ZM25.324 64.992L27.2478 63.552L26.9602 63.1677L25.0363 64.6077L25.324 64.992ZM26.8662 63.3276L24.9423 77.4876L25.418 77.5522L27.3418 63.3922L26.8662 63.3276ZM23.4972 63.8399H23.7376V63.3599H23.4972V63.8399ZM23.4972 64.0799H23.978V63.5999H23.4972V64.0799ZM23.4972 64.3199H24.2184V63.8399H23.4972V64.3199ZM23.4972 64.5599H24.6992V64.0799H23.4972V64.5599ZM23.4972 64.7999H24.9396V64.3199H23.4972V64.7999ZM23.4972 65.0399L25.1802 65.0399L25.1802 64.5599L23.4972 64.5599L23.4972 65.0399ZM26.8636 63.8399H27.104V63.3599H26.8636V63.8399ZM26.6232 64.0799H27.104V63.5999H26.6232V64.0799ZM26.1424 64.3199H27.104V63.8399H26.1424V64.3199ZM25.902 64.5599H27.104V64.0799H25.902V64.5599ZM25.6616 64.7999H27.104V64.3199H25.6616V64.7999ZM25.1802 65.0399L27.104 65.0399L27.104 64.5599L25.1802 64.5599L25.1802 65.0399ZM25.1808 76.0798H25.4212V75.5998H25.1808V76.0798ZM25.1808 76.3198H25.4212V75.8398H25.1808V76.3198ZM25.1808 76.5598H25.4212V76.0798H25.1808V76.5598ZM25.1808 76.7998H25.4212V76.3198H25.1808V76.7998ZM25.1808 77.0399H25.4212V76.5599H25.1808V77.0399ZM25.1808 77.2798H25.4212V76.7998H25.1808V77.2798ZM25.1808 77.5198H25.4212V77.0398H25.1808V77.5198ZM24.9408 1.19995L24.9402 77.5199L25.4202 77.5199L25.4208 1.19995L24.9408 1.19995ZM24.9396 3.35987L25.6616 3.35994L25.6616 2.87994L24.9396 2.87987L24.9396 3.35987ZM24.9396 3.59987L25.6616 3.59994L25.6616 3.11994L24.9396 3.11987L24.9396 3.59987ZM24.9396 3.83987L25.6616 3.83994L25.6616 3.35994L24.9396 3.35987L24.9396 3.83987ZM24.9396 4.07987L25.6616 4.07994L25.6616 3.59994L24.9396 3.59987L24.9396 4.07987ZM24.9396 4.31987L25.6616 4.31994L25.6616 3.83994L24.9396 3.83987L24.9396 4.31987ZM24.9396 4.55987L25.6616 4.55994L25.6616 4.07994L24.9396 4.07987L24.9396 4.55987ZM24.9396 4.79987L25.6616 4.79994L25.6616 4.31994L24.9396 4.31987L24.9396 4.79987ZM24.6992 5.03987L25.902 5.03994L25.902 4.55994L24.6992 4.55987L24.6992 5.03987ZM24.6992 5.27987L25.902 5.27994L25.902 4.79994L24.6992 4.79987L24.6992 5.27987ZM24.6992 5.51987L25.902 5.51994L25.902 5.03994L24.6992 5.03987L24.6992 5.51987ZM24.6992 5.75987L25.902 5.75994L25.902 5.27994L24.6992 5.27987L24.6992 5.75987ZM24.6992 5.99987L25.902 5.99994L25.902 5.51994L24.6992 5.51987L24.6992 5.99987ZM24.6992 6.23987L25.902 6.23994L25.902 5.75994L24.6992 5.75987L24.6992 6.23987ZM24.6992 6.47987L25.902 6.47994L25.902 5.99994L24.6992 5.99987L24.6992 6.47987ZM24.6992 6.71987L25.902 6.71994L25.902 6.23994L24.6992 6.23987L24.6992 6.71987ZM24.4588 6.95987L26.1424 6.95994L26.1424 6.47994L24.4588 6.47987L24.4588 6.95987ZM24.4588 7.19987L26.1424 7.19994L26.1424 6.71994L24.4588 6.71987L24.4588 7.19987ZM24.4588 7.43987L26.1424 7.43994L26.1424 6.95994L24.4588 6.95987L24.4588 7.43987ZM24.4588 7.67987L26.1424 7.67994L26.1424 7.19994L24.4588 7.19987L24.4588 7.67987ZM24.4588 7.91987L26.1424 7.91994L26.1424 7.43994L24.4588 7.43987L24.4588 7.91987ZM24.4588 8.15987L26.1424 8.15994L26.1424 7.67994L24.4588 7.67987L24.4588 8.15987ZM24.4588 8.39987L26.1424 8.39994L26.1424 7.91994L24.4588 7.91987L24.4588 8.39987ZM24.2184 8.63987L26.3828 8.63994L26.3828 8.15994L24.2184 8.15987L24.2184 8.63987ZM24.2184 8.87987L26.3828 8.87994L26.3828 8.39994L24.2184 8.39987L24.2184 8.87987ZM24.2184 9.11987L26.3828 9.11994L26.3828 8.63994L24.2184 8.63987L24.2184 9.11987ZM24.2184 9.35987L26.3828 9.35994L26.3828 8.87994L24.2184 8.87987L24.2184 9.35987ZM24.2184 9.59987L26.3828 9.59994L26.3828 9.11994L24.2184 9.11987L24.2184 9.59987ZM24.2184 9.83987L26.3828 9.83994L26.3828 9.35994L24.2184 9.35987L24.2184 9.83987ZM24.2184 10.0799L26.3828 10.0799L26.3828 9.59994L24.2184 9.59987L24.2184 10.0799ZM23.978 10.3199L26.6232 10.3199L26.6232 9.83994L23.978 9.83987L23.978 10.3199ZM23.978 10.5599L26.6232 10.5599L26.6232 10.0799L23.978 10.0799L23.978 10.5599ZM23.978 10.7999L26.6232 10.7999L26.6232 10.3199L23.978 10.3199L23.978 10.7999ZM23.978 11.0399L26.6232 11.0399L26.6232 10.5599L23.978 10.5599L23.978 11.0399ZM23.978 11.2799L26.6232 11.2799L26.6232 10.7999L23.978 10.7999L23.978 11.2799ZM23.978 11.5199L26.6232 11.5199L26.6232 11.0399L23.978 11.0399L23.978 11.5199ZM23.978 11.7599L26.6232 11.7599L26.6232 11.2799L23.978 11.2799L23.978 11.7599ZM23.978 11.9999L26.6232 11.9999L26.6232 11.5199L23.978 11.5199L23.978 11.9999ZM23.7376 12.2399L26.8636 12.2399L26.8636 11.7599L23.7376 11.7599L23.7376 12.2399ZM23.7376 12.4799L26.8636 12.4799L26.8636 11.9999L23.7376 11.9999L23.7376 12.4799ZM23.7376 12.7199L26.8636 12.7199L26.8636 12.2399L23.7376 12.2399L23.7376 12.7199ZM23.7376 12.9599L26.8636 12.9599L26.8636 12.4799L23.7376 12.4799L23.7376 12.9599ZM23.7376 13.1999L26.8636 13.1999L26.8636 12.7199L23.7376 12.7199L23.7376 13.1999ZM23.7376 13.4399L26.8636 13.4399L26.8636 12.9599L23.7376 12.9599L23.7376 13.4399ZM23.7376 13.6799L26.8636 13.6799L26.8636 13.1999L23.7376 13.1999L23.7376 13.6799ZM23.4972 13.9199L27.104 13.9199L27.104 13.4399L23.4972 13.4399L23.4972 13.9199ZM23.4972 65.2799H27.104V64.7999H23.4972V65.2799ZM23.7376 65.5199H26.8636V65.0399H23.7376V65.5199ZM23.7376 65.7599H26.8636V65.2799H23.7376V65.7599ZM23.7376 65.9999L26.8636 65.9998L26.8636 65.5198L23.7376 65.5199L23.7376 65.9999ZM23.7376 66.2399H26.8636V65.7599H23.7376V66.2399ZM23.7376 66.4799H26.8636V65.9999H23.7376V66.4799ZM23.7376 66.7199H26.8636V66.2399H23.7376V66.7199ZM23.7376 66.9599L26.8636 66.9598L26.8636 66.4798L23.7376 66.4799L23.7376 66.9599ZM23.978 67.1999H26.6232V66.7199H23.978V67.1999ZM23.978 67.4399H26.6232V66.9599H23.978V67.4399ZM23.978 67.6798H26.6232V67.1998H23.978V67.6798ZM23.978 67.9199L26.6232 67.9198L26.6232 67.4398L23.978 67.4399L23.978 67.9199ZM23.978 68.1599H26.6232V67.6799H23.978V68.1599ZM23.978 68.3999H26.6232V67.9199H23.978V68.3999ZM23.978 68.6399L26.6232 68.6398L26.6232 68.1598L23.978 68.1599L23.978 68.6399ZM23.978 68.8799H26.6232V68.3999H23.978V68.8799ZM24.2184 69.1199H26.3828V68.6399H24.2184V69.1199ZM24.2184 69.3599H26.3828V68.8799H24.2184V69.3599ZM24.2184 69.5999L26.3828 69.5998L26.3828 69.1198L24.2184 69.1199L24.2184 69.5999ZM24.2184 69.8399H26.3828V69.3599H24.2184V69.8399ZM24.2184 70.0799H26.3828V69.5999H24.2184V70.0799ZM24.2184 70.3199L26.3828 70.3198L26.3828 69.8398L24.2184 69.8399L24.2184 70.3199ZM24.2184 70.5599L26.3828 70.5598L26.3828 70.0798L24.2184 70.0799L24.2184 70.5599ZM24.4588 70.7999H26.1424V70.3199H24.4588V70.7999ZM24.4588 71.0399H26.1424V70.5599H24.4588V71.0399ZM24.4588 71.2799L26.1424 71.2798L26.1424 70.7998L24.4588 70.7999L24.4588 71.2799ZM24.4588 71.5199L26.1424 71.5198L26.1424 71.0398L24.4588 71.0399L24.4588 71.5199ZM24.4588 71.7599H26.1424V71.2799H24.4588V71.7599ZM24.4588 71.9998H26.1424V71.5198H24.4588V71.9998ZM24.4588 72.2399L26.1424 72.2398L26.1424 71.7598L24.4588 71.7599L24.4588 72.2399ZM24.6992 72.4799L25.902 72.4798L25.902 71.9998L24.6992 71.9999L24.6992 72.4799ZM24.6992 72.7199H25.902V72.2399H24.6992V72.7199ZM24.6992 72.9599L25.902 72.9598L25.902 72.4798L24.6992 72.4799L24.6992 72.9599ZM24.6992 73.1999L25.902 73.1998L25.902 72.7198L24.6992 72.7199L24.6992 73.1999ZM24.6992 73.4399H25.902V72.9599H24.6992V73.4399ZM24.6992 73.6798H25.902V73.1998H24.6992V73.6798ZM24.6992 73.9199L25.902 73.9198L25.902 73.4398L24.6992 73.4399L24.6992 73.9199ZM24.6992 74.1599L25.902 74.1598L25.902 73.6798L24.6992 73.6799L24.6992 74.1599ZM24.9396 74.3999H25.6616V73.9199H24.9396V74.3999ZM24.9396 74.6399L25.6616 74.6398L25.6616 74.1598L24.9396 74.1599L24.9396 74.6399ZM24.9396 74.8799L25.6616 74.8798L25.6616 74.3998L24.9396 74.3999L24.9396 74.8799ZM24.9396 75.1199L25.6616 75.1198L25.6616 74.6398L24.9396 74.6399L24.9396 75.1199ZM24.9396 75.3599H25.6616V74.8799H24.9396V75.3599ZM24.9396 75.5999L25.6616 75.5998L25.6616 75.1198L24.9396 75.1199L24.9396 75.5999ZM24.9396 75.8399L25.6616 75.8398L25.6616 75.3598L24.9396 75.3599L24.9396 75.8399Z" fill="white"/>
    </g>
    <!--    3 Dy-->
    <g class="group">
    </g>
    <!--    4 Dh-->
    <g class="group">
    </g>
    <!--    5 D1-->
    <g class="group">
    </g>
    <!--   6 D2-->
    <g class="group">
    </g>
    <!--   7 d-->
    <g class="group">
    </g>
    <!--    8 dH-->
    <g class="group">
    </g>
    <!--    9 d1-->
    <g class="group">
    </g>
    <!--    10 d2-->
    <g class="group">
    </g>
    <!--    11 L-->
    <g class="group">
        <path d="M261.149 125.909L260.588 127.45L252.985 127.453L253.546 125.912L261.149 125.909ZM258.585 113.166L253.382 127.453L251.366 127.454L256.569 113.167L258.585 113.166Z" fill="white"/>
        <path d="M46.5759 126C46.5759 125.867 46.4685 125.76 46.3359 125.76C46.2034 125.76 46.0959 125.867 46.0959 126H46.5759ZM46.0959 142.32C46.0959 142.453 46.2034 142.56 46.3359 142.56C46.4685 142.56 46.5759 142.453 46.5759 142.32H46.0959ZM463.914 125.76C463.914 125.627 463.806 125.52 463.674 125.52C463.541 125.52 463.434 125.627 463.434 125.76H463.914ZM463.434 142.08C463.434 142.213 463.541 142.32 463.674 142.32C463.806 142.32 463.914 142.213 463.914 142.08H463.434ZM261.149 125.909L261.374 125.992C261.401 125.918 261.39 125.836 261.345 125.772C261.3 125.708 261.227 125.669 261.148 125.669L261.149 125.909ZM260.588 127.45L260.588 127.69C260.688 127.69 260.779 127.627 260.813 127.532L260.588 127.45ZM252.985 127.453L252.76 127.371C252.733 127.444 252.744 127.526 252.789 127.591C252.833 127.655 252.907 127.693 252.985 127.693L252.985 127.453ZM253.546 125.912L253.546 125.672C253.445 125.672 253.355 125.735 253.321 125.83L253.546 125.912ZM258.585 113.166L258.81 113.248C258.837 113.174 258.826 113.092 258.781 113.028C258.736 112.964 258.663 112.926 258.585 112.926L258.585 113.166ZM253.382 127.453L253.382 127.693C253.483 127.693 253.573 127.63 253.607 127.535L253.382 127.453ZM251.366 127.454L251.141 127.371C251.114 127.445 251.125 127.527 251.17 127.591C251.215 127.655 251.288 127.694 251.367 127.694L251.366 127.454ZM256.569 113.167L256.569 112.927C256.468 112.927 256.378 112.99 256.344 113.084L256.569 113.167ZM46.3359 136.56L46.3077 136.322C46.1877 136.336 46.097 136.437 46.0959 136.558C46.0949 136.679 46.184 136.781 46.3037 136.798L46.3359 136.56ZM60.5196 134.88L60.7017 135.036C60.7661 134.961 60.7779 134.854 60.7314 134.767C60.6849 134.68 60.5896 134.63 60.4914 134.642L60.5196 134.88ZM60.5205 138.48L60.4883 138.718C60.5843 138.731 60.6786 138.685 60.7275 138.601C60.7765 138.518 60.7706 138.413 60.7124 138.336L60.5205 138.48ZM463.674 136.56L463.706 136.798C463.825 136.782 463.914 136.68 463.914 136.56C463.914 136.44 463.825 136.338 463.706 136.322L463.674 136.56ZM449.49 138.48L449.298 138.336C449.24 138.413 449.234 138.518 449.283 138.601C449.332 138.685 449.427 138.731 449.522 138.718L449.49 138.48ZM449.49 134.64L449.522 134.402C449.427 134.389 449.332 134.435 449.283 134.518C449.234 134.602 449.24 134.707 449.298 134.784L449.49 134.64ZM463.672 136.8C463.805 136.8 463.912 136.693 463.912 136.56C463.912 136.427 463.805 136.32 463.672 136.32L463.672 136.8ZM46.0959 126V142.32H46.5759V126H46.0959ZM463.434 125.76V142.08H463.914V125.76H463.434ZM260.923 125.827L260.362 127.368L260.813 127.532L261.374 125.992L260.923 125.827ZM260.587 127.21L252.985 127.213L252.985 127.693L260.588 127.69L260.587 127.21ZM253.211 127.535L253.772 125.995L253.321 125.83L252.76 127.371L253.211 127.535ZM253.546 126.152L261.149 126.149L261.148 125.669L253.546 125.672L253.546 126.152ZM258.359 113.084L253.156 127.371L253.607 127.535L258.81 113.248L258.359 113.084ZM253.382 127.213L251.366 127.214L251.367 127.694L253.382 127.693L253.382 127.213ZM251.592 127.536L256.795 113.249L256.344 113.084L251.141 127.371L251.592 127.536ZM256.569 113.407L258.585 113.406L258.585 112.926L256.569 112.927L256.569 113.407ZM46.3642 136.798L60.5478 135.118L60.4914 134.642L46.3077 136.322L46.3642 136.798ZM60.3375 134.724L58.896 136.404L59.2603 136.716L60.7017 135.036L60.3375 134.724ZM58.8862 136.704L60.3286 138.624L60.7124 138.336L59.27 136.416L58.8862 136.704ZM60.5527 138.242L46.3681 136.322L46.3037 136.798L60.4883 138.718L60.5527 138.242ZM58.5969 135.36H60.5201V134.88H58.5969V135.36ZM56.6736 135.6H60.2797V135.12H56.6736V135.6ZM54.51 135.84H60.0393V135.36H54.51V135.84ZM52.5868 136.08H59.7989V135.6H52.5868V136.08ZM50.4232 136.32H59.5585V135.84H50.4232V136.32ZM48.5 136.56H59.3181V136.08H48.5V136.56ZM46.3359 136.8H59.0781V136.32H46.3359V136.8ZM48.2591 137.04H59.3176V136.56H48.2591V137.04ZM49.942 137.28H59.558V136.8H49.942V137.28ZM51.8652 137.52H59.7984V137.04H51.8652V137.52ZM53.548 137.76H59.7984V137.28H53.548V137.76ZM55.2308 138H60.0388V137.52H55.2308V138ZM57.154 138.24H60.2792V137.76H57.154V138.24ZM58.8368 138.48H60.5196V138H58.8368V138.48ZM463.642 136.322L449.458 138.242L449.522 138.718L463.706 136.798L463.642 136.322ZM449.682 138.624L451.125 136.704L450.741 136.416L449.298 138.336L449.682 138.624ZM451.125 136.416L449.682 134.496L449.298 134.784L450.741 136.704L451.125 136.416ZM449.458 134.878L463.642 136.798L463.706 136.322L449.522 134.402L449.458 134.878ZM450.933 136.8H463.674V136.32H450.933V136.8ZM450.932 137.04H461.991V136.56H450.932V137.04ZM450.692 137.28H460.308V136.8H450.692V137.28ZM450.452 137.52H458.385V137.04H450.452V137.52ZM450.211 137.76H456.702V137.28H450.211V137.76ZM450.211 138H455.019V137.52H450.211V138ZM449.971 138.24H453.096V137.76H449.971V138.24ZM449.73 138.48H451.413V138H449.73V138.48ZM449.73 135.12H451.413V134.64H449.73V135.12ZM449.971 135.36H453.096V134.88H449.971V135.36ZM450.211 135.6H455.019V135.12H450.211V135.6ZM450.211 135.84H456.702V135.36H450.211V135.84ZM450.452 136.08H458.385V135.6H450.452V136.08ZM450.692 136.32H460.308V135.84H450.692V136.32ZM450.932 136.56H461.991V136.08H450.932V136.56ZM46.3359 136.8L463.672 136.8L463.672 136.32L46.3359 136.32L46.3359 136.8Z" fill="white"/>
    </g>
    <!--    12 L1-->
    <g class="group">
    </g>
    <!--    13 L2-->
    <g class="group">
    </g>
    <!--    14 S-->
    <g class="group">
    </g>
    <!--    15 S1-->
    <g class="group">
    </g>
    <!--    16 S2-->
    <g class="group">
    </g>
    <!--    17 S3-->
    <g class="group">
    </g>
    <!--    18 S4-->
    <g class="group">
    </g>
    <!--    19 I-->
    <g class="group">
    </g>
    <!--    20 I1-->
    <g class="group">
        <path d="M76.6936 84.8137L71.199 99.8836H69.2566L74.7512 84.8137H76.6936Z" fill="white"/>
        <path d="M79.994 95.756L76.5322 105.25H75.2552L78.1707 97.2541L75.2744 98.1361L75.6692 97.053L79.7938 95.756H79.994Z" fill="white"/>
        <path d="M46.5759 84.9601C46.5759 84.8275 46.4685 84.7201 46.3359 84.7201C46.2034 84.7201 46.0959 84.8275 46.0959 84.9601H46.5759ZM46.0959 118.08C46.0959 118.213 46.2034 118.32 46.3359 118.32C46.4685 118.32 46.5759 118.213 46.5759 118.08H46.0959ZM101.869 84.9601C101.869 84.8275 101.761 84.7201 101.629 84.7201C101.496 84.7201 101.389 84.8275 101.389 84.9601H101.869ZM101.389 118.08C101.389 118.213 101.496 118.32 101.629 118.32C101.761 118.32 101.869 118.213 101.869 118.08H101.389ZM76.6936 84.8137L76.9191 84.8959C76.9459 84.8223 76.9352 84.7403 76.8902 84.6761C76.8453 84.6119 76.7719 84.5737 76.6936 84.5737V84.8137ZM71.199 99.8836V100.124C71.2998 100.124 71.3899 100.061 71.4245 99.9658L71.199 99.8836ZM69.2566 99.8836L69.0311 99.8014C69.0043 99.875 69.0151 99.957 69.06 100.021C69.1049 100.085 69.1783 100.124 69.2566 100.124V99.8836ZM74.7512 84.8137V84.5737C74.6504 84.5737 74.5603 84.6368 74.5257 84.7315L74.7512 84.8137ZM79.994 95.756L80.2195 95.8382C80.2463 95.7646 80.2356 95.6825 80.1906 95.6184C80.1457 95.5542 80.0723 95.516 79.994 95.516V95.756ZM76.5322 105.25V105.49C76.6331 105.49 76.7232 105.427 76.7577 105.333L76.5322 105.25ZM75.2552 105.25L75.0297 105.168C75.0029 105.242 75.0136 105.324 75.0586 105.388C75.1035 105.452 75.1769 105.49 75.2552 105.49V105.25ZM78.1707 97.2541L78.3962 97.3363C78.4274 97.2508 78.4075 97.1551 78.345 97.089C78.2824 97.023 78.1879 96.998 78.1008 97.0245L78.1707 97.2541ZM75.2744 98.1361L75.0489 98.0539C75.0177 98.1393 75.0376 98.2351 75.1001 98.3011C75.1627 98.3672 75.2572 98.3922 75.3443 98.3657L75.2744 98.1361ZM75.6692 97.053L75.5972 96.8241C75.5261 96.8465 75.4693 96.9007 75.4438 96.9708L75.6692 97.053ZM79.7938 95.756V95.516C79.7694 95.516 79.7451 95.5197 79.7218 95.527L79.7938 95.756ZM46.3359 112.56L46.3037 112.322C46.184 112.338 46.0949 112.441 46.0959 112.562C46.097 112.683 46.1877 112.784 46.3077 112.798L46.3359 112.56ZM60.5196 110.64L60.7115 110.784C60.7696 110.707 60.7756 110.602 60.7266 110.519C60.6776 110.435 60.5833 110.389 60.4874 110.402L60.5196 110.64ZM60.5205 114.24L60.4923 114.478C60.5905 114.49 60.6858 114.44 60.7323 114.353C60.7789 114.266 60.7671 114.159 60.7026 114.084L60.5205 114.24ZM101.629 112.56L101.657 112.799C101.777 112.784 101.868 112.683 101.869 112.562C101.87 112.441 101.781 112.339 101.661 112.322L101.629 112.56ZM87.4453 114.24L87.2632 114.084C87.1988 114.159 87.187 114.266 87.2335 114.353C87.28 114.44 87.3753 114.49 87.4735 114.478L87.4453 114.24ZM87.4453 110.64L87.4775 110.402C87.3816 110.389 87.2873 110.435 87.2383 110.519C87.1893 110.602 87.1953 110.707 87.2534 110.784L87.4453 110.64ZM46.0959 84.9601V118.08H46.5759V84.9601H46.0959ZM101.389 84.9601V118.08H101.869V84.9601H101.389ZM76.4681 84.7315L70.9735 99.8014L71.4245 99.9658L76.9191 84.8959L76.4681 84.7315ZM71.199 99.6436H69.2566V100.124H71.199V99.6436ZM69.4821 99.9658L74.9767 84.8959L74.5257 84.7315L69.0311 99.8014L69.4821 99.9658ZM74.7512 85.0537H76.6936V84.5737H74.7512V85.0537ZM79.7685 95.6738L76.3068 105.168L76.7577 105.333L80.2195 95.8382L79.7685 95.6738ZM76.5322 105.01H75.2552V105.49H76.5322V105.01ZM75.4807 105.333L78.3962 97.3363L77.9453 97.1719L75.0297 105.168L75.4807 105.333ZM78.1008 97.0245L75.2044 97.9065L75.3443 98.3657L78.2407 97.4837L78.1008 97.0245ZM75.4998 98.2183L75.8947 97.1352L75.4438 96.9708L75.0489 98.0539L75.4998 98.2183ZM75.7412 97.282L79.8658 95.9849L79.7218 95.527L75.5972 96.8241L75.7412 97.282ZM79.7938 95.996H79.994V95.516H79.7938V95.996ZM46.3681 112.798L60.5518 110.878L60.4874 110.402L46.3037 112.322L46.3681 112.798ZM60.3277 110.496L58.8862 112.416L59.2701 112.704L60.7115 110.784L60.3277 110.496ZM58.896 112.716L60.3384 114.396L60.7026 114.084L59.2602 112.404L58.896 112.716ZM60.5488 114.002L46.3642 112.322L46.3077 112.798L60.4923 114.478L60.5488 114.002ZM58.8374 111.12H60.5202V110.64H58.8374V111.12ZM57.1546 111.36H60.2798V110.88H57.1546V111.36ZM55.2314 111.6H60.0394V111.12H55.2314V111.6ZM53.5486 111.84H59.799V111.36H53.5486V111.84ZM51.8658 112.08H59.799V111.6H51.8658V112.08ZM49.9426 112.32H59.5586V111.84H49.9426V112.32ZM48.2598 112.56H59.3182V112.08H48.2598V112.56ZM46.3359 112.8H59.0781V112.32H46.3359V112.8ZM48.4995 113.04H59.3176V112.56H48.4995V113.04ZM50.4228 113.28H59.558V112.8H50.4228V113.28ZM52.5864 113.52H59.7984V113.04H52.5864V113.52ZM54.5096 113.76H60.0388V113.28H54.5096V113.76ZM56.6732 114H60.2792V113.52H56.6732V114ZM58.5964 114.24H60.5196V113.76H58.5964V114.24ZM101.601 112.322L87.4171 114.002L87.4735 114.478L101.657 112.799L101.601 112.322ZM87.6274 114.397L89.0698 112.717L88.7056 112.404L87.2632 114.084L87.6274 114.397ZM89.0796 112.416L87.6372 110.496L87.2534 110.784L88.6958 112.704L89.0796 112.416ZM87.4131 110.878L101.597 112.798L101.661 112.322L87.4775 110.402L87.4131 110.878ZM88.8877 112.8H101.629V112.32H88.8877V112.8ZM88.8876 113.04H99.7056V112.56H88.8876V113.04ZM88.6472 113.28H97.7824V112.8H88.6472V113.28ZM88.4067 113.52H95.6188V113.04H88.4067V113.52ZM88.1663 113.76H93.6956V113.28H88.1663V113.76ZM87.9259 114H91.532V113.52H87.9259V114ZM87.6855 114.24H89.6088V113.76H87.6855V114.24ZM87.6855 111.12H89.3684V110.64H87.6855V111.12ZM87.9259 111.36H91.0512V110.88H87.9259V111.36ZM88.1663 111.6H92.9744V111.12H88.1663V111.6ZM88.1663 111.84H94.6572V111.36H88.1663V111.84ZM88.4067 112.08H96.34V111.6H88.4067V112.08ZM88.6471 112.32H98.2632V111.84H88.6471V112.32ZM88.8876 112.56H99.946V112.08H88.8876V112.56ZM46.3359 112.8L101.629 112.8L101.629 112.32L46.3359 112.32L46.3359 112.8Z" fill="white"/>
    </g>
    <!--    21 I2-->
    <g class="group">
        <path d="M375.957 84.8137L370.463 99.8836H368.52L374.015 84.8137H375.957Z" fill="white"/>
        <path d="M378.544 104.265L378.184 105.25H371.606L371.92 104.388L376.469 100.944C377.028 100.521 377.472 100.162 377.8 99.8677C378.134 99.5693 378.388 99.3034 378.56 99.07C378.739 98.8322 378.873 98.59 378.963 98.3436C379.077 98.0323 379.11 97.7513 379.063 97.5005C379.023 97.2454 378.899 97.0422 378.692 96.8909C378.485 96.7396 378.195 96.6639 377.822 96.6639C377.376 96.6639 376.973 96.7461 376.614 96.9104C376.261 97.0703 375.958 97.2951 375.705 97.5848C375.453 97.8745 375.258 98.2074 375.12 98.5836H373.843C374.037 98.0518 374.339 97.5654 374.748 97.1244C375.157 96.6834 375.653 96.3332 376.236 96.0737C376.82 95.81 377.468 95.6781 378.182 95.6781C378.817 95.6781 379.321 95.7841 379.695 95.9959C380.07 96.2035 380.308 96.4975 380.409 96.8779C380.515 97.2541 380.477 97.6951 380.292 98.2009C380.191 98.4776 380.038 98.7587 379.833 99.044C379.634 99.3251 379.396 99.6061 379.118 99.8871C378.845 100.168 378.544 100.445 378.215 100.717C377.89 100.99 377.551 101.258 377.197 101.521L373.505 104.265H378.544Z" fill="white"/>
        <path d="M463.914 84.9601C463.914 84.8275 463.806 84.7201 463.674 84.7201C463.541 84.7201 463.434 84.8275 463.434 84.9601H463.914ZM463.434 118.08C463.434 118.213 463.541 118.32 463.674 118.32C463.806 118.32 463.914 118.213 463.914 118.08H463.434ZM285.054 84.9601C285.054 84.8275 284.947 84.7201 284.814 84.7201C284.682 84.7201 284.574 84.8275 284.574 84.9601H285.054ZM284.574 118.08C284.574 118.213 284.682 118.32 284.814 118.32C284.947 118.32 285.054 118.213 285.054 118.08H284.574ZM375.957 84.8137L376.183 84.8959C376.21 84.8223 376.199 84.7403 376.154 84.6761C376.109 84.6119 376.036 84.5737 375.957 84.5737V84.8137ZM370.463 99.8836V100.124C370.564 100.124 370.654 100.061 370.688 99.9658L370.463 99.8836ZM368.52 99.8836L368.295 99.8014C368.268 99.875 368.279 99.957 368.324 100.021C368.369 100.085 368.442 100.124 368.52 100.124V99.8836ZM374.015 84.8137V84.5737C373.914 84.5737 373.824 84.6368 373.789 84.7315L374.015 84.8137ZM378.544 104.265L378.769 104.347C378.796 104.273 378.785 104.191 378.74 104.127C378.695 104.063 378.622 104.025 378.544 104.025V104.265ZM378.184 105.25V105.49C378.285 105.49 378.375 105.427 378.41 105.333L378.184 105.25ZM371.606 105.25L371.38 105.168C371.354 105.242 371.364 105.324 371.409 105.388C371.454 105.452 371.527 105.49 371.606 105.49V105.25ZM371.92 104.388L371.775 104.197C371.739 104.224 371.711 104.262 371.695 104.306L371.92 104.388ZM376.469 100.944L376.613 101.136L376.614 101.136L376.469 100.944ZM377.8 99.8677L377.64 99.6886L377.64 99.6889L377.8 99.8677ZM378.56 99.07L378.368 98.9258L378.367 98.9273L378.56 99.07ZM378.963 98.3436L379.189 98.4258L379.189 98.4258L378.963 98.3436ZM379.063 97.5005L378.826 97.5381L378.827 97.5444L379.063 97.5005ZM376.614 96.9104L376.713 97.1289L376.714 97.1286L376.614 96.9104ZM375.12 98.5836V98.8236C375.221 98.8236 375.311 98.7605 375.346 98.6658L375.12 98.5836ZM373.843 98.5836L373.618 98.5014C373.591 98.5749 373.602 98.657 373.647 98.7212C373.692 98.7853 373.765 98.8236 373.843 98.8236V98.5836ZM376.236 96.0737L376.333 96.293L376.334 96.2925L376.236 96.0737ZM379.695 95.9959L379.576 96.2047L379.579 96.206L379.695 95.9959ZM380.409 96.8779L380.177 96.9393L380.178 96.9435L380.409 96.8779ZM380.292 98.2009L380.067 98.1187L380.292 98.2009ZM379.833 99.044L379.638 98.9039L379.637 98.9053L379.833 99.044ZM379.118 99.8871L378.947 99.7185L378.946 99.72L379.118 99.8871ZM378.215 100.717L378.062 100.532L378.061 100.533L378.215 100.717ZM377.197 101.521L377.34 101.714L377.34 101.714L377.197 101.521ZM373.505 104.265L373.361 104.072C373.278 104.134 373.244 104.242 373.277 104.34C373.309 104.438 373.401 104.505 373.505 104.505V104.265ZM463.674 112.56L463.702 112.799C463.822 112.784 463.913 112.683 463.914 112.562C463.915 112.441 463.826 112.339 463.706 112.322L463.674 112.56ZM449.49 114.24L449.308 114.084C449.244 114.159 449.232 114.266 449.278 114.353C449.325 114.44 449.42 114.49 449.518 114.478L449.49 114.24ZM449.49 110.64L449.522 110.402C449.427 110.389 449.332 110.435 449.283 110.519C449.234 110.602 449.24 110.707 449.298 110.784L449.49 110.64ZM284.814 112.56L284.782 112.322C284.662 112.338 284.573 112.441 284.574 112.562C284.575 112.683 284.666 112.784 284.786 112.798L284.814 112.56ZM298.998 110.64L299.19 110.784C299.248 110.707 299.254 110.602 299.205 110.519C299.156 110.435 299.062 110.389 298.966 110.402L298.998 110.64ZM298.999 114.24L298.971 114.478C299.069 114.49 299.164 114.44 299.211 114.353C299.257 114.266 299.246 114.159 299.181 114.084L298.999 114.24ZM463.434 84.9601V118.08H463.914V84.9601H463.434ZM284.574 84.9601V118.08H285.054V84.9601H284.574ZM375.732 84.7315L370.237 99.8014L370.688 99.9658L376.183 84.8959L375.732 84.7315ZM370.463 99.6436H368.52V100.124H370.463V99.6436ZM368.746 99.9658L374.24 84.8959L373.789 84.7315L368.295 99.8014L368.746 99.9658ZM374.015 85.0537H375.957V84.5737H374.015V85.0537ZM378.318 104.182L377.959 105.168L378.41 105.333L378.769 104.347L378.318 104.182ZM378.184 105.01H371.606V105.49H378.184V105.01ZM371.831 105.333L372.146 104.47L371.695 104.306L371.38 105.168L371.831 105.333ZM372.065 104.579L376.613 101.136L376.324 100.753L371.775 104.197L372.065 104.579ZM376.614 101.136C377.176 100.71 377.625 100.347 377.96 100.046L377.64 99.6889C377.319 99.9767 376.881 100.331 376.324 100.753L376.614 101.136ZM377.96 100.047C378.3 99.7427 378.567 99.4644 378.753 99.2126L378.367 98.9273C378.208 99.1424 377.968 99.396 377.64 99.6886L377.96 100.047ZM378.752 99.2142C378.943 98.96 379.09 98.6972 379.189 98.4258L378.738 98.2614C378.657 98.4829 378.535 98.7044 378.368 98.9258L378.752 99.2142ZM379.189 98.4258C379.312 98.086 379.356 97.7604 379.299 97.4566L378.827 97.5444C378.864 97.7421 378.841 97.9786 378.738 98.2614L379.189 98.4258ZM379.3 97.4629C379.25 97.1457 379.092 96.8861 378.834 96.6971L378.55 97.0847C378.706 97.1983 378.796 97.3452 378.826 97.5381L379.3 97.4629ZM378.834 96.6971C378.571 96.5049 378.224 96.4239 377.822 96.4239V96.9039C378.166 96.9039 378.399 96.9742 378.55 97.0847L378.834 96.6971ZM377.822 96.4239C377.346 96.4239 376.908 96.5117 376.514 96.6921L376.714 97.1286C377.038 96.9804 377.406 96.9039 377.822 96.9039V96.4239ZM376.515 96.6918C376.131 96.8658 375.8 97.1113 375.525 97.427L375.886 97.7427C376.116 97.479 376.391 97.2748 376.713 97.1289L376.515 96.6918ZM375.525 97.427C375.252 97.7398 375.042 98.0986 374.895 98.5014L375.346 98.6658C375.473 98.3162 375.654 98.0092 375.886 97.7427L375.525 97.427ZM375.12 98.3436H373.843V98.8236H375.12V98.3436ZM374.069 98.6658C374.251 98.1659 374.535 97.7067 374.924 97.2876L374.572 96.9611C374.143 97.4241 373.823 97.9376 373.618 98.5014L374.069 98.6658ZM374.924 97.2876C375.31 96.8718 375.779 96.54 376.333 96.293L376.138 95.8545C375.528 96.1263 375.005 96.495 374.572 96.9611L374.924 97.2876ZM376.334 96.2925C376.884 96.0443 377.498 95.9181 378.182 95.9181V95.4381C377.438 95.4381 376.755 95.5757 376.137 95.855L376.334 96.2925ZM378.182 95.9181C378.794 95.9181 379.252 96.0208 379.576 96.2047L379.813 95.7871C379.39 95.5473 378.84 95.4381 378.182 95.4381V95.9181ZM379.579 96.206C379.902 96.385 380.094 96.6281 380.177 96.9393L380.641 96.8166C380.522 96.3668 380.238 96.0219 379.811 95.7859L379.579 96.206ZM380.178 96.9435C380.266 97.2557 380.24 97.6428 380.067 98.1187L380.518 98.2831C380.713 97.7473 380.764 97.2524 380.64 96.8124L380.178 96.9435ZM380.067 98.1187C379.975 98.3713 379.833 98.633 379.638 98.9039L380.028 99.1842C380.243 98.8843 380.408 98.584 380.518 98.2831L380.067 98.1187ZM379.637 98.9053C379.446 99.1743 379.217 99.4454 378.947 99.7185L379.289 100.056C379.574 99.7667 379.821 99.4758 380.029 99.1828L379.637 98.9053ZM378.946 99.72C378.68 99.9942 378.385 100.265 378.062 100.532L378.368 100.902C378.703 100.625 379.011 100.342 379.29 100.054L378.946 99.72ZM378.061 100.533C377.74 100.803 377.404 101.068 377.054 101.329L377.34 101.714C377.698 101.447 378.041 101.177 378.369 100.901L378.061 100.533ZM377.054 101.329L373.361 104.072L373.648 104.457L377.34 101.714L377.054 101.329ZM373.505 104.505H378.544V104.025H373.505V104.505ZM463.646 112.322L449.462 114.002L449.518 114.478L463.702 112.799L463.646 112.322ZM449.672 114.397L451.115 112.717L450.751 112.404L449.308 114.084L449.672 114.397ZM451.125 112.416L449.682 110.496L449.298 110.784L450.741 112.704L451.125 112.416ZM449.458 110.878L463.642 112.798L463.706 112.322L449.522 110.402L449.458 110.878ZM450.933 112.8H463.674V112.32H450.933V112.8ZM450.932 113.04H461.751V112.56H450.932V113.04ZM450.692 113.28H459.827V112.8H450.692V113.28ZM450.452 113.52H457.664V113.04H450.452V113.52ZM450.211 113.76H455.741V113.28H450.211V113.76ZM449.971 114H453.577V113.52H449.971V114ZM449.73 114.24H451.654V113.76H449.73V114.24ZM449.73 111.12H451.413V110.64H449.73V111.12ZM449.971 111.36H453.096V110.88H449.971V111.36ZM450.211 111.6H455.019V111.12H450.211V111.6ZM450.211 111.84H456.702V111.36H450.211V111.84ZM450.452 112.08H458.385V111.6H450.452V112.08ZM450.692 112.32H460.308V111.84H450.692V112.32ZM450.932 112.56H461.991V112.08H450.932V112.56ZM284.847 112.798L299.03 110.878L298.966 110.402L284.782 112.322L284.847 112.798ZM298.806 110.496L297.365 112.416L297.749 112.704L299.19 110.784L298.806 110.496ZM297.375 112.716L298.817 114.396L299.181 114.084L297.739 112.404L297.375 112.716ZM299.027 114.002L284.843 112.322L284.786 112.798L298.971 114.478L299.027 114.002ZM297.316 111.12H298.999V110.64H297.316V111.12ZM295.633 111.36H298.758V110.88H295.633V111.36ZM293.71 111.6H298.518V111.12H293.71V111.6ZM292.027 111.84H298.278V111.36H292.027V111.84ZM290.344 112.08H298.278V111.6H290.344V112.08ZM288.421 112.32H298.037V111.84H288.421V112.32ZM286.738 112.56H297.797V112.08H286.738V112.56ZM284.814 112.8H297.557V112.32H284.814V112.8ZM286.978 113.04H297.796V112.56H286.978V113.04ZM288.901 113.28H298.037V112.8H288.901V113.28ZM291.065 113.52H298.277V113.04H291.065V113.52ZM292.988 113.76H298.517V113.28H292.988V113.76ZM295.152 114H298.758V113.52H295.152V114ZM297.075 114.24H298.998V113.76H297.075V114.24ZM463.674 112.32L284.814 112.32L284.814 112.8L463.674 112.8L463.674 112.32Z" fill="white"/>
    </g>
    <!--    22 H-->
    <g class="group">
    </g>
    <!--    23 H1-->
    <g class="group">
    </g>
    <!--    24 H2-->
    <g class="group">
    </g>
    <!--    25 h-->
    <g class="group">
    </g>
    <!--    26 h1-->
    <g class="group">
    </g>
    <!--    27 h2-->
    <g class="group">
    </g>
    <!--    28 R-->
    <g class="group">
    </g>
    <!--    29 Deg-->
    <g class="group">
    </g>
    <!--    29 DN-->
    <g class="group">
    </g>

</svg>
