<svg width="387" height="359" viewBox="0 0 387 359" fill="none" xmlns="http://www.w3.org/2000/svg">
<rect width="387" height="359" fill="none"/>
<path d="M171.809 43.8V55.56V43.8Z" stroke="white" stroke-width="1.68" stroke-linecap="round" stroke-linejoin="round"/>
<path d="M171.809 55.5601L174.693 58.4401L171.809 55.5601Z" stroke="white" stroke-width="1.68" stroke-linecap="round" stroke-linejoin="round"/>
<path d="M174.695 58.4399H339.37H174.695Z" stroke="white" stroke-width="1.68" stroke-linecap="round" stroke-linejoin="round"/>
<path d="M339.369 58.4401L342.254 55.5601L339.369 58.4401Z" stroke="white" stroke-width="1.68" stroke-linecap="round" stroke-linejoin="round"/>
<path d="M342.254 55.5599V4.67993V55.5599Z" stroke="white" stroke-width="1.68" stroke-linecap="round" stroke-linejoin="round"/>
<path d="M342.254 4.68005L339.369 1.80005L342.254 4.68005Z" stroke="white" stroke-width="1.68" stroke-linecap="round" stroke-linejoin="round"/>
<path d="M339.37 1.80005H174.695H339.37Z" stroke="white" stroke-width="1.68" stroke-linecap="round" stroke-linejoin="round"/>
<path d="M174.693 1.80005L171.809 4.68005L174.693 1.80005Z" stroke="white" stroke-width="1.68" stroke-linecap="round" stroke-linejoin="round"/>
<path d="M171.809 4.67993V13.0799V4.67993Z" stroke="white" stroke-width="1.68" stroke-linecap="round" stroke-linejoin="round"/>
<path d="M171.809 43.7999V4.67993V43.7999Z" stroke="white" stroke-width="1.68" stroke-linecap="round" stroke-linejoin="round"/>
<path d="M171.809 4.68005L168.924 1.80005L171.809 4.68005Z" stroke="white" stroke-width="1.68" stroke-linecap="round" stroke-linejoin="round"/>
<path d="M168.925 1.80005H4.25H168.925Z" stroke="white" stroke-width="1.68" stroke-linecap="round" stroke-linejoin="round"/>
<path d="M4.24989 1.80005L1.60547 4.68005L4.24989 1.80005Z" stroke="white" stroke-width="1.68" stroke-linecap="round" stroke-linejoin="round"/>
<path d="M1.60547 4.67993V55.5599V4.67993Z" stroke="white" stroke-width="1.68" stroke-linecap="round" stroke-linejoin="round"/>
<path d="M1.60547 55.5601L4.24989 58.4401L1.60547 55.5601Z" stroke="white" stroke-width="1.68" stroke-linecap="round" stroke-linejoin="round"/>
<path d="M4.25 58.4399H168.925H4.25Z" stroke="white" stroke-width="1.68" stroke-linecap="round" stroke-linejoin="round"/>
<path d="M168.924 58.4401L171.809 55.5601L168.924 58.4401Z" stroke="white" stroke-width="1.68" stroke-linecap="round" stroke-linejoin="round"/>
<path d="M171.809 55.56V43.8V55.56Z" stroke="white" stroke-width="1.68" stroke-linecap="round" stroke-linejoin="round"/>
<path d="M171.809 159V150.36V159Z" stroke="white" stroke-width="1.68" stroke-linecap="round" stroke-linejoin="round"/>
<path d="M171.809 150.36L168.924 147.48L171.809 150.36Z" stroke="white" stroke-width="1.68" stroke-linecap="round" stroke-linejoin="round"/>
<path d="M168.925 147.48H4.25H168.925Z" stroke="white" stroke-width="1.68" stroke-linecap="round" stroke-linejoin="round"/>
<path d="M4.24989 147.48L1.60547 150.36L4.24989 147.48Z" stroke="white" stroke-width="1.68" stroke-linecap="round" stroke-linejoin="round"/>
<path d="M1.60547 150.36V201.48V150.36Z" stroke="white" stroke-width="1.68" stroke-linecap="round" stroke-linejoin="round"/>
<path d="M1.60547 201.48L4.24989 204.36L1.60547 201.48Z" stroke="white" stroke-width="1.68" stroke-linecap="round" stroke-linejoin="round"/>
<path d="M4.25 204.36H168.925H4.25Z" stroke="white" stroke-width="1.68" stroke-linecap="round" stroke-linejoin="round"/>
<path d="M168.924 204.36L171.809 201.48L168.924 204.36Z" stroke="white" stroke-width="1.68" stroke-linecap="round" stroke-linejoin="round"/>
<path d="M171.809 201.48V192.84V201.48Z" stroke="white" stroke-width="1.68" stroke-linecap="round" stroke-linejoin="round"/>
<path d="M171.809 159H112.189H171.809Z" stroke="white" stroke-width="1.68" stroke-linecap="round" stroke-linejoin="round"/>
<path d="M112.189 192.84V159V192.84Z" stroke="white" stroke-width="1.68" stroke-linecap="round" stroke-linejoin="round"/>
<path d="M171.809 192.84H112.189H171.809Z" stroke="white" stroke-width="1.68" stroke-linecap="round" stroke-linejoin="round"/>
<path d="M171.809 159V192.84V159Z" stroke="white" stroke-width="1.68" stroke-linecap="round" stroke-linejoin="round"/>
<path d="M1.60547 191.64L14.1063 204.36L1.60547 191.64Z" stroke="white" stroke-width="0.48" stroke-linecap="round" stroke-linejoin="round"/>
<path d="M1.60547 179.64L26.1264 204.36L1.60547 179.64Z" stroke="white" stroke-width="0.48" stroke-linecap="round" stroke-linejoin="round"/>
<path d="M1.60547 167.64L38.1464 204.36L1.60547 167.64Z" stroke="white" stroke-width="0.48" stroke-linecap="round" stroke-linejoin="round"/>
<path d="M1.60547 155.64L50.1665 204.36L1.60547 155.64Z" stroke="white" stroke-width="0.48" stroke-linecap="round" stroke-linejoin="round"/>
<path d="M5.45117 147.48L62.4262 204.36L5.45117 147.48Z" stroke="white" stroke-width="0.48" stroke-linecap="round" stroke-linejoin="round"/>
<path d="M17.4727 147.48L74.4477 204.36L17.4727 147.48Z" stroke="white" stroke-width="0.48" stroke-linecap="round" stroke-linejoin="round"/>
<path d="M29.7324 147.48L86.4671 204.36L29.7324 147.48Z" stroke="white" stroke-width="0.48" stroke-linecap="round" stroke-linejoin="round"/>
<path d="M41.752 147.48L98.4866 204.36L41.752 147.48Z" stroke="white" stroke-width="0.48" stroke-linecap="round" stroke-linejoin="round"/>
<path d="M53.7734 147.48L110.508 204.36L53.7734 147.48Z" stroke="white" stroke-width="0.48" stroke-linecap="round" stroke-linejoin="round"/>
<path d="M65.793 147.48L122.528 204.36L65.793 147.48Z" stroke="white" stroke-width="0.48" stroke-linecap="round" stroke-linejoin="round"/>
<path d="M77.8125 147.48L112.19 182.04L77.8125 147.48Z" stroke="white" stroke-width="0.48" stroke-linecap="round" stroke-linejoin="round"/>
<path d="M123.248 192.84L134.547 204.36L123.248 192.84Z" stroke="white" stroke-width="0.48" stroke-linecap="round" stroke-linejoin="round"/>
<path d="M135.268 192.84L146.566 204.36L135.268 192.84Z" stroke="white" stroke-width="0.48" stroke-linecap="round" stroke-linejoin="round"/>
<path d="M89.832 147.48L112.189 170.04L89.832 147.48Z" stroke="white" stroke-width="0.48" stroke-linecap="round" stroke-linejoin="round"/>
<path d="M101.854 147.48L113.152 159L101.854 147.48Z" stroke="white" stroke-width="0.48" stroke-linecap="round" stroke-linejoin="round"/>
<path d="M147.289 192.84L158.588 204.36L147.289 192.84Z" stroke="white" stroke-width="0.48" stroke-linecap="round" stroke-linejoin="round"/>
<path d="M159.309 192.84L169.886 203.4L159.309 192.84Z" stroke="white" stroke-width="0.48" stroke-linecap="round" stroke-linejoin="round"/>
<path d="M113.873 147.48L125.412 159L113.873 147.48Z" stroke="white" stroke-width="0.48" stroke-linecap="round" stroke-linejoin="round"/>
<path d="M125.893 147.48L137.432 159L125.893 147.48Z" stroke="white" stroke-width="0.48" stroke-linecap="round" stroke-linejoin="round"/>
<path d="M171.328 192.84L171.808 193.32L171.328 192.84Z" stroke="white" stroke-width="0.48" stroke-linecap="round" stroke-linejoin="round"/>
<path d="M138.154 147.48L149.453 159L138.154 147.48Z" stroke="white" stroke-width="0.48" stroke-linecap="round" stroke-linejoin="round"/>
<path d="M150.174 147.48L161.473 159L150.174 147.48Z" stroke="white" stroke-width="0.48" stroke-linecap="round" stroke-linejoin="round"/>
<path d="M162.193 147.48L171.809 157.32L162.193 147.48Z" stroke="white" stroke-width="0.48" stroke-linecap="round" stroke-linejoin="round"/>
<path d="M171.809 306.6V315V306.6Z" stroke="white" stroke-width="1.68" stroke-linecap="round" stroke-linejoin="round"/>
<path d="M171.809 315L174.693 317.88L171.809 315Z" stroke="white" stroke-width="1.68" stroke-linecap="round" stroke-linejoin="round"/>
<path d="M174.695 317.88H339.37H174.695Z" stroke="white" stroke-width="1.68" stroke-linecap="round" stroke-linejoin="round"/>
<path d="M339.369 317.88L342.254 315L339.369 317.88Z" stroke="white" stroke-width="1.68" stroke-linecap="round" stroke-linejoin="round"/>
<path d="M342.254 315V264.12V315Z" stroke="white" stroke-width="1.68" stroke-linecap="round" stroke-linejoin="round"/>
<path d="M342.254 264.12L339.369 261.24L342.254 264.12Z" stroke="white" stroke-width="1.68" stroke-linecap="round" stroke-linejoin="round"/>
<path d="M339.37 261.24H174.695H339.37Z" stroke="white" stroke-width="1.68" stroke-linecap="round" stroke-linejoin="round"/>
<path d="M174.693 261.24L171.809 264.12L174.693 261.24Z" stroke="white" stroke-width="1.68" stroke-linecap="round" stroke-linejoin="round"/>
<path d="M171.809 264.12V272.52V264.12Z" stroke="white" stroke-width="1.68" stroke-linecap="round" stroke-linejoin="round"/>
<path d="M171.809 272.52H112.189H171.809Z" stroke="white" stroke-width="1.68" stroke-linecap="round" stroke-linejoin="round"/>
<path d="M171.809 306.6H112.189H171.809Z" stroke="white" stroke-width="1.68" stroke-linecap="round" stroke-linejoin="round"/>
<path d="M112.189 272.52V306.6V272.52Z" stroke="white" stroke-width="1.68" stroke-linecap="round" stroke-linejoin="round"/>
<path d="M331.676 317.88L342.253 307.32L331.676 317.88Z" stroke="white" stroke-width="0.48" stroke-linecap="round" stroke-linejoin="round"/>
<path d="M319.416 317.88L342.254 295.32L319.416 317.88Z" stroke="white" stroke-width="0.48" stroke-linecap="round" stroke-linejoin="round"/>
<path d="M307.396 317.88L342.255 283.32L307.396 317.88Z" stroke="white" stroke-width="0.48" stroke-linecap="round" stroke-linejoin="round"/>
<path d="M295.375 317.88L342.253 271.08L295.375 317.88Z" stroke="white" stroke-width="0.48" stroke-linecap="round" stroke-linejoin="round"/>
<path d="M283.355 317.88L339.85 261.72L283.355 317.88Z" stroke="white" stroke-width="0.48" stroke-linecap="round" stroke-linejoin="round"/>
<path d="M271.336 317.88L328.071 261.24L271.336 317.88Z" stroke="white" stroke-width="0.48" stroke-linecap="round" stroke-linejoin="round"/>
<path d="M259.316 317.88L316.051 261.24L259.316 317.88Z" stroke="white" stroke-width="0.48" stroke-linecap="round" stroke-linejoin="round"/>
<path d="M247.295 317.88L304.03 261.24L247.295 317.88Z" stroke="white" stroke-width="0.48" stroke-linecap="round" stroke-linejoin="round"/>
<path d="M235.275 317.88L292.01 261.24L235.275 317.88Z" stroke="white" stroke-width="0.48" stroke-linecap="round" stroke-linejoin="round"/>
<path d="M223.256 317.88L279.99 261.24L223.256 317.88Z" stroke="white" stroke-width="0.48" stroke-linecap="round" stroke-linejoin="round"/>
<path d="M210.994 317.88L267.969 261.24L210.994 317.88Z" stroke="white" stroke-width="0.48" stroke-linecap="round" stroke-linejoin="round"/>
<path d="M198.975 317.88L255.95 261.24L198.975 317.88Z" stroke="white" stroke-width="0.48" stroke-linecap="round" stroke-linejoin="round"/>
<path d="M186.955 317.88L243.69 261.24L186.955 317.88Z" stroke="white" stroke-width="0.48" stroke-linecap="round" stroke-linejoin="round"/>
<path d="M174.936 317.88L231.67 261.24L174.936 317.88Z" stroke="white" stroke-width="0.48" stroke-linecap="round" stroke-linejoin="round"/>
<path d="M171.809 309L219.648 261.24L171.809 309Z" stroke="white" stroke-width="0.48" stroke-linecap="round" stroke-linejoin="round"/>
<path d="M162.193 306.6L207.629 261.24L162.193 306.6Z" stroke="white" stroke-width="0.48" stroke-linecap="round" stroke-linejoin="round"/>
<path d="M150.174 306.6L195.61 261.24L150.174 306.6Z" stroke="white" stroke-width="0.48" stroke-linecap="round" stroke-linejoin="round"/>
<path d="M138.154 306.6L183.59 261.24L138.154 306.6Z" stroke="white" stroke-width="0.48" stroke-linecap="round" stroke-linejoin="round"/>
<path d="M126.133 306.6L160.27 272.52L126.133 306.6Z" stroke="white" stroke-width="0.48" stroke-linecap="round" stroke-linejoin="round"/>
<path d="M114.113 306.6L148.01 272.52L114.113 306.6Z" stroke="white" stroke-width="0.48" stroke-linecap="round" stroke-linejoin="round"/>
<path d="M112.189 296.28L135.989 272.52L112.189 296.28Z" stroke="white" stroke-width="0.48" stroke-linecap="round" stroke-linejoin="round"/>
<path d="M112.189 284.28L123.969 272.52L112.189 284.28Z" stroke="white" stroke-width="0.48" stroke-linecap="round" stroke-linejoin="round"/>

    <!--    1 A-->
    <g class="group">
    </g>
    <!--    2 D-->
    <g class="group">
        <path d="M222.293 178.449V181.623L220.752 181.043V177.889C220.752 176.803 220.54 175.82 220.115 174.942C219.683 174.061 219.081 173.299 218.309 172.656C217.53 172.004 216.62 171.489 215.58 171.111L214.706 170.794C213.889 170.497 213.162 170.337 212.528 170.315C211.886 170.291 211.346 170.401 210.908 170.646C210.463 170.888 210.126 171.26 209.897 171.761C209.668 172.256 209.554 172.879 209.554 173.631V177.057L208.003 176.493V173.068C208.003 172.072 208.16 171.221 208.474 170.513C208.782 169.804 209.23 169.26 209.819 168.882C210.401 168.495 211.108 168.292 211.939 168.274C212.763 168.253 213.692 168.431 214.726 168.807L215.58 169.117C216.614 169.493 217.546 169.991 218.377 170.614C219.202 171.234 219.905 171.952 220.487 172.769C221.07 173.58 221.518 174.467 221.832 175.43C222.14 176.384 222.293 177.391 222.293 178.449ZM208.003 175.355L222.293 180.548V182.563L208.003 177.37V175.355Z" fill="white"/>
        <path d="M205.707 147.24C205.574 147.24 205.467 147.347 205.467 147.48C205.467 147.613 205.574 147.72 205.707 147.72V147.24ZM237.44 147.72C237.573 147.72 237.68 147.613 237.68 147.48C237.68 147.347 237.573 147.24 237.44 147.24V147.72ZM205.707 204.12C205.574 204.12 205.467 204.227 205.467 204.36C205.467 204.492 205.574 204.6 205.707 204.6V204.12ZM237.44 204.6C237.573 204.6 237.68 204.492 237.68 204.36C237.68 204.227 237.573 204.12 237.44 204.12V204.6ZM222.293 181.623L222.209 181.848C222.283 181.876 222.365 181.866 222.43 181.821C222.495 181.776 222.533 181.702 222.533 181.623H222.293ZM220.752 181.043H220.512C220.512 181.142 220.574 181.232 220.668 181.267L220.752 181.043ZM220.115 174.942L220.331 174.837L220.33 174.836L220.115 174.942ZM218.309 172.656L218.154 172.84L218.155 172.841L218.309 172.656ZM215.58 171.111L215.662 170.886L215.662 170.886L215.58 171.111ZM214.706 170.794L214.624 171.02L214.624 171.02L214.706 170.794ZM212.528 170.315L212.519 170.555L212.519 170.555L212.528 170.315ZM210.908 170.646L211.023 170.857L211.025 170.856L210.908 170.646ZM209.897 171.761L210.115 171.862L210.115 171.861L209.897 171.761ZM209.554 177.057L209.472 177.282C209.545 177.309 209.627 177.298 209.691 177.253C209.755 177.208 209.794 177.135 209.794 177.057H209.554ZM208.003 176.493H207.763C207.763 176.594 207.826 176.684 207.921 176.719L208.003 176.493ZM208.474 170.513L208.693 170.611L208.694 170.609L208.474 170.513ZM209.819 168.882L209.948 169.084L209.951 169.082L209.819 168.882ZM211.939 168.274L211.944 168.514L211.945 168.514L211.939 168.274ZM214.726 168.807L214.644 169.032L214.644 169.032L214.726 168.807ZM215.58 169.117L215.662 168.891L215.662 168.891L215.58 169.117ZM218.377 170.614L218.521 170.422L218.521 170.422L218.377 170.614ZM220.487 172.769L220.292 172.909L220.293 172.91L220.487 172.769ZM221.832 175.43L222.061 175.357L222.06 175.356L221.832 175.43ZM208.003 175.355L208.085 175.129C208.011 175.102 207.929 175.113 207.865 175.158C207.801 175.203 207.763 175.276 207.763 175.355H208.003ZM222.293 180.548H222.533C222.533 180.447 222.47 180.357 222.375 180.322L222.293 180.548ZM222.293 182.563L222.211 182.789C222.285 182.816 222.367 182.805 222.431 182.76C222.495 182.715 222.533 182.642 222.533 182.563H222.293ZM208.003 177.37H207.763C207.763 177.471 207.826 177.561 207.921 177.596L208.003 177.37ZM231.91 147.48L232.149 147.452C232.134 147.332 232.033 147.241 231.912 147.24C231.791 147.239 231.688 147.328 231.672 147.448L231.91 147.48ZM233.593 161.88L233.437 162.062C233.512 162.127 233.619 162.138 233.706 162.092C233.793 162.045 233.843 161.95 233.831 161.852L233.593 161.88ZM229.986 161.88L229.748 161.848C229.736 161.944 229.782 162.038 229.865 162.087C229.948 162.136 230.053 162.13 230.13 162.072L229.986 161.88ZM231.91 204.36L231.672 204.392C231.688 204.512 231.791 204.601 231.912 204.6C232.032 204.599 232.134 204.508 232.148 204.388L231.91 204.36ZM229.986 190.2L230.13 190.008C230.053 189.95 229.948 189.944 229.865 189.993C229.781 190.042 229.735 190.136 229.749 190.232L229.986 190.2ZM231.91 191.64L231.91 191.88L231.91 191.88L231.91 191.64ZM233.593 190.2L233.831 190.228C233.843 190.13 233.793 190.035 233.706 189.988C233.619 189.942 233.512 189.953 233.437 190.018L233.593 190.2ZM205.707 147.72H237.44V147.24H205.707V147.72ZM205.707 204.6H237.44V204.12H205.707V204.6ZM222.053 178.449V181.623H222.533V178.449H222.053ZM222.378 181.399L220.837 180.818L220.668 181.267L222.209 181.848L222.378 181.399ZM220.992 181.043V177.889H220.512V181.043H220.992ZM220.992 177.889C220.992 176.771 220.773 175.752 220.331 174.837L219.898 175.046C220.306 175.889 220.512 176.835 220.512 177.889H220.992ZM220.33 174.836C219.883 173.924 219.26 173.136 218.462 172.472L218.155 172.841C218.902 173.462 219.482 174.198 219.899 175.047L220.33 174.836ZM218.463 172.472C217.661 171.801 216.726 171.273 215.662 170.886L215.498 171.337C216.515 171.706 217.399 172.208 218.154 172.84L218.463 172.472ZM215.662 170.886L214.788 170.568L214.624 171.02L215.498 171.337L215.662 170.886ZM214.788 170.568C213.955 170.266 213.203 170.099 212.536 170.076L212.519 170.555C213.121 170.576 213.822 170.728 214.624 171.02L214.788 170.568ZM212.537 170.076C211.863 170.05 211.277 170.165 210.791 170.436L211.025 170.856C211.416 170.638 211.909 170.532 212.519 170.555L212.537 170.076ZM210.793 170.435C210.299 170.704 209.927 171.117 209.679 171.662L210.115 171.861C210.325 171.402 210.628 171.072 211.023 170.857L210.793 170.435ZM209.679 171.661C209.431 172.196 209.314 172.857 209.314 173.631H209.794C209.794 172.902 209.905 172.316 210.115 171.862L209.679 171.661ZM209.314 173.631V177.057H209.794V173.631H209.314ZM209.636 176.831L208.085 176.267L207.921 176.719L209.472 177.282L209.636 176.831ZM208.243 176.493V173.068H207.763V176.493H208.243ZM208.243 173.068C208.243 172.096 208.396 171.28 208.693 170.611L208.255 170.416C207.924 171.161 207.763 172.048 207.763 173.068H208.243ZM208.694 170.609C208.985 169.938 209.404 169.433 209.948 169.084L209.689 168.68C209.056 169.086 208.578 169.669 208.254 170.418L208.694 170.609ZM209.951 169.082C210.489 168.724 211.15 168.531 211.944 168.514L211.933 168.034C211.066 168.053 210.313 168.265 209.686 168.682L209.951 169.082ZM211.945 168.514C212.731 168.494 213.63 168.663 214.644 169.032L214.808 168.581C213.755 168.198 212.795 168.012 211.933 168.034L211.945 168.514ZM214.644 169.032L215.498 169.342L215.662 168.891L214.808 168.581L214.644 169.032ZM215.498 169.342C216.511 169.711 217.422 170.199 218.233 170.806L218.521 170.422C217.67 169.784 216.717 169.275 215.662 168.891L215.498 169.342ZM218.233 170.806C219.038 171.411 219.724 172.112 220.292 172.909L220.683 172.63C220.086 171.792 219.365 171.056 218.521 170.422L218.233 170.806ZM220.293 172.91C220.86 173.699 221.297 174.564 221.604 175.505L222.06 175.356C221.739 174.369 221.279 173.46 220.682 172.629L220.293 172.91ZM221.604 175.504C221.903 176.433 222.053 177.414 222.053 178.449H222.533C222.533 177.367 222.376 176.336 222.061 175.357L221.604 175.504ZM207.921 175.58L222.211 180.773L222.375 180.322L208.085 175.129L207.921 175.58ZM222.053 180.548V182.563H222.533V180.548H222.053ZM222.375 182.338L208.085 177.145L207.921 177.596L222.211 182.789L222.375 182.338ZM208.243 177.37V175.355H207.763V177.37H208.243ZM231.672 147.508L233.355 161.908L233.831 161.852L232.149 147.452L231.672 147.508ZM233.749 161.698L232.066 160.258L231.754 160.622L233.437 162.062L233.749 161.698ZM231.766 160.248L229.843 161.688L230.13 162.072L232.054 160.632L231.766 160.248ZM230.224 161.912L232.148 147.512L231.672 147.448L229.748 161.848L230.224 161.912ZM231.91 147.96H232.151V147.48H231.91V147.96ZM231.91 148.2H232.151V147.72H231.91V148.2ZM231.91 148.44H232.151V147.96H231.91V148.44ZM231.91 148.68H232.151V148.2H231.91V148.68ZM231.91 148.92H232.151V148.44H231.91V148.92ZM231.91 149.16H232.151V148.68H231.91V149.16ZM231.91 149.4H232.151V148.92H231.91V149.4ZM231.91 160.68L233.593 160.68L233.593 160.2L231.91 160.2L231.91 160.68ZM232.391 160.92H233.593V160.44H232.391V160.92ZM232.631 161.16H233.593V160.68H232.631V161.16ZM232.872 161.4H233.593V160.92H232.872V161.4ZM233.112 161.64H233.593V161.16H233.112V161.64ZM233.353 161.88H233.593V161.4H233.353V161.88ZM230.227 160.68L231.91 160.68L231.91 160.2L230.227 160.2L230.227 160.68ZM230.227 160.92H231.669V160.44H230.227V160.92ZM230.227 161.16H231.429V160.68H230.227V161.16ZM230.227 161.4H230.948V160.92H230.227V161.4ZM230.227 161.64H230.707V161.16H230.227V161.64ZM230.227 161.88H230.467V161.4H230.227V161.88ZM232.147 204.328L230.224 190.168L229.749 190.232L231.672 204.392L232.147 204.328ZM229.842 190.392L231.766 191.832L232.053 191.448L230.13 190.008L229.842 190.392ZM232.066 191.822L233.749 190.382L233.437 190.018L231.754 191.458L232.066 191.822ZM233.355 190.172L231.671 204.332L232.148 204.388L233.831 190.228L233.355 190.172ZM230.227 190.68H230.467V190.2H230.227V190.68ZM230.227 190.92H230.707V190.44H230.227V190.92ZM230.227 191.16H230.948V190.68H230.227V191.16ZM230.227 191.4H231.429V190.92H230.227V191.4ZM230.227 191.64H231.669V191.16H230.227V191.64ZM230.227 191.88L231.91 191.88L231.91 191.4L230.227 191.4L230.227 191.88ZM233.353 190.68H233.593V190.2H233.353V190.68ZM233.112 190.92H233.593V190.44H233.112V190.92ZM232.872 191.16H233.593V190.68H232.872V191.16ZM232.631 191.4H233.593V190.92H232.631V191.4ZM232.391 191.64H233.593V191.16H232.391V191.64ZM231.91 191.88L233.593 191.88L233.593 191.4L231.91 191.4L231.91 191.88ZM231.91 202.92H232.151V202.44H231.91V202.92ZM231.91 203.16H232.151V202.68H231.91V203.16ZM231.91 203.4H232.151V202.92H231.91V203.4ZM231.91 203.64H232.151V203.16H231.91V203.64ZM231.91 203.88H232.151V203.4H231.91V203.88ZM231.91 204.12H232.151V203.64H231.91V204.12ZM231.91 204.36H232.151V203.88H231.91V204.36ZM231.67 147.48L231.67 204.36L232.15 204.36L232.15 147.48L231.67 147.48ZM231.669 149.64L232.151 149.64L232.151 149.16L231.669 149.16L231.669 149.64ZM231.669 149.88L232.391 149.88L232.391 149.4L231.669 149.4L231.669 149.88ZM231.669 150.12L232.391 150.12L232.391 149.64L231.669 149.64L231.669 150.12ZM231.669 150.36L232.391 150.36L232.391 149.88L231.669 149.88L231.669 150.36ZM231.669 150.6L232.391 150.6L232.391 150.12L231.669 150.12L231.669 150.6ZM231.669 150.84L232.391 150.84L232.391 150.36L231.669 150.36L231.669 150.84ZM231.669 151.08L232.391 151.08L232.391 150.6L231.669 150.6L231.669 151.08ZM231.429 151.32L232.391 151.32L232.391 150.84L231.429 150.84L231.429 151.32ZM231.429 151.56L232.391 151.56L232.391 151.08L231.429 151.08L231.429 151.56ZM231.429 151.8L232.391 151.8L232.391 151.32L231.429 151.32L231.429 151.8ZM231.429 152.04L232.631 152.04L232.631 151.56L231.429 151.56L231.429 152.04ZM231.429 152.28L232.631 152.28L232.631 151.8L231.429 151.8L231.429 152.28ZM231.429 152.52L232.631 152.52L232.631 152.04L231.429 152.04L231.429 152.52ZM231.429 152.76L232.631 152.76L232.631 152.28L231.429 152.28L231.429 152.76ZM231.429 153L232.631 153L232.631 152.52L231.429 152.52L231.429 153ZM231.188 153.24L232.631 153.24L232.631 152.76L231.188 152.76L231.188 153.24ZM231.188 153.48L232.631 153.48L232.631 153L231.188 153L231.188 153.48ZM231.188 153.72L232.631 153.72L232.631 153.24L231.188 153.24L231.188 153.72ZM231.188 153.96L232.872 153.96L232.872 153.48L231.188 153.48L231.188 153.96ZM231.188 154.2L232.872 154.2L232.872 153.72L231.188 153.72L231.188 154.2ZM231.188 154.44L232.872 154.44L232.872 153.96L231.188 153.96L231.188 154.44ZM231.188 154.68L232.872 154.68L232.872 154.2L231.188 154.2L231.188 154.68ZM230.948 154.92L232.872 154.92L232.872 154.44L230.948 154.44L230.948 154.92ZM230.948 155.16L232.872 155.16L232.872 154.68L230.948 154.68L230.948 155.16ZM230.948 155.4L232.872 155.4L232.872 154.92L230.948 154.92L230.948 155.4ZM230.948 155.64L232.872 155.64L232.872 155.16L230.948 155.16L230.948 155.64ZM230.948 155.88L232.872 155.88L232.872 155.4L230.948 155.4L230.948 155.88ZM230.948 156.12L233.112 156.12L233.112 155.64L230.948 155.64L230.948 156.12ZM230.948 156.36L233.112 156.36L233.112 155.88L230.948 155.88L230.948 156.36ZM230.948 156.6L233.112 156.6L233.112 156.12L230.948 156.12L230.948 156.6ZM230.707 156.84L233.112 156.84L233.112 156.36L230.707 156.36L230.707 156.84ZM230.707 157.08L233.112 157.08L233.112 156.6L230.707 156.6L230.707 157.08ZM230.707 157.32L233.112 157.32L233.112 156.84L230.707 156.84L230.707 157.32ZM230.707 157.56L233.112 157.56L233.112 157.08L230.707 157.08L230.707 157.56ZM230.707 157.8L233.112 157.8L233.112 157.32L230.707 157.32L230.707 157.8ZM230.707 158.04L233.353 158.04L233.353 157.56L230.707 157.56L230.707 158.04ZM230.707 158.28L233.353 158.28L233.353 157.8L230.707 157.8L230.707 158.28ZM230.467 158.52L233.353 158.52L233.353 158.04L230.467 158.04L230.467 158.52ZM230.467 158.76L233.353 158.76L233.353 158.28L230.467 158.28L230.467 158.76ZM230.467 159L233.353 159L233.353 158.52L230.467 158.52L230.467 159ZM230.467 159.24L233.353 159.24L233.353 158.76L230.467 158.76L230.467 159.24ZM230.467 159.48L233.353 159.48L233.353 159L230.467 159L230.467 159.48ZM230.467 159.72L233.353 159.72L233.353 159.24L230.467 159.24L230.467 159.72ZM230.467 159.96L233.353 159.96L233.353 159.48L230.467 159.48L230.467 159.96ZM230.467 160.2L233.593 160.2L233.593 159.72L230.467 159.72L230.467 160.2ZM230.227 160.44L233.593 160.44L233.593 159.96L230.227 159.96L230.227 160.44ZM230.227 192.12H233.593V191.64H230.227V192.12ZM230.467 192.36H233.593V191.88H230.467V192.36ZM230.467 192.6H233.353V192.12H230.467V192.6ZM230.467 192.84H233.353V192.36H230.467V192.84ZM230.467 193.08L233.353 193.08L233.353 192.6L230.467 192.6L230.467 193.08ZM230.467 193.32H233.353V192.84H230.467V193.32ZM230.467 193.56L233.353 193.56L233.353 193.08L230.467 193.08L230.467 193.56ZM230.467 193.8H233.353V193.32H230.467V193.8ZM230.707 194.04L233.353 194.04L233.353 193.56L230.707 193.56L230.707 194.04ZM230.707 194.28H233.353V193.8H230.707V194.28ZM230.707 194.52L233.112 194.52L233.112 194.04L230.707 194.04L230.707 194.52ZM230.707 194.76H233.112V194.28H230.707V194.76ZM230.707 195L233.112 195L233.112 194.52L230.707 194.52L230.707 195ZM230.707 195.24L233.112 195.24L233.112 194.76L230.707 194.76L230.707 195.24ZM230.707 195.48H233.112V195H230.707V195.48ZM230.707 195.72L233.112 195.72L233.112 195.24L230.707 195.24L230.707 195.72ZM230.948 195.96H233.112V195.48H230.948V195.96ZM230.948 196.2L233.112 196.2L233.112 195.72L230.948 195.72L230.948 196.2ZM230.948 196.44H233.112V195.96H230.948V196.44ZM230.948 196.68L232.872 196.68L232.872 196.2L230.948 196.2L230.948 196.68ZM230.948 196.92L232.872 196.92L232.872 196.44L230.948 196.44L230.948 196.92ZM230.948 197.16L232.872 197.16L232.872 196.68L230.948 196.68L230.948 197.16ZM230.948 197.4L232.872 197.4L232.872 196.92L230.948 196.92L230.948 197.4ZM231.188 197.64L232.872 197.64L232.872 197.16L231.188 197.16L231.188 197.64ZM231.188 197.88L232.872 197.88L232.872 197.4L231.188 197.4L231.188 197.88ZM231.188 198.12L232.872 198.12L232.872 197.64L231.188 197.64L231.188 198.12ZM231.188 198.36L232.872 198.36L232.872 197.88L231.188 197.88L231.188 198.36ZM231.188 198.6L232.631 198.6L232.631 198.12L231.188 198.12L231.188 198.6ZM231.188 198.84L232.631 198.84L232.631 198.36L231.188 198.36L231.188 198.84ZM231.188 199.08L232.631 199.08L232.631 198.6L231.188 198.6L231.188 199.08ZM231.429 199.32L232.631 199.32L232.631 198.84L231.429 198.84L231.429 199.32ZM231.429 199.56L232.631 199.56L232.631 199.08L231.429 199.08L231.429 199.56ZM231.429 199.8L232.631 199.8L232.631 199.32L231.429 199.32L231.429 199.8ZM231.429 200.04L232.631 200.04L232.631 199.56L231.429 199.56L231.429 200.04ZM231.429 200.28L232.631 200.28L232.631 199.8L231.429 199.8L231.429 200.28ZM231.429 200.52L232.631 200.52L232.631 200.04L231.429 200.04L231.429 200.52ZM231.429 200.76L232.391 200.76L232.391 200.28L231.429 200.28L231.429 200.76ZM231.429 201L232.391 201L232.391 200.52L231.429 200.52L231.429 201ZM231.669 201.24L232.391 201.24L232.391 200.76L231.669 200.76L231.669 201.24ZM231.669 201.48L232.391 201.48L232.391 201L231.669 201L231.669 201.48ZM231.669 201.72L232.391 201.72L232.391 201.24L231.669 201.24L231.669 201.72ZM231.669 201.96L232.391 201.96L232.391 201.48L231.669 201.48L231.669 201.96ZM231.669 202.2L232.391 202.2L232.391 201.72L231.669 201.72L231.669 202.2ZM231.669 202.44L232.391 202.44L232.391 201.96L231.669 201.96L231.669 202.44ZM231.669 202.68L232.151 202.68L232.151 202.2L231.669 202.2L231.669 202.68Z" fill="white"/>
        <path d="M370.868 292.091V295.266L369.327 294.685V291.531C369.327 290.445 369.114 289.463 368.689 288.584C368.257 287.703 367.655 286.941 366.883 286.299C366.104 285.647 365.195 285.132 364.154 284.754L363.281 284.436C362.463 284.139 361.736 283.98 361.102 283.958C360.461 283.934 359.921 284.044 359.482 284.288C359.037 284.53 358.7 284.902 358.471 285.404C358.242 285.898 358.128 286.522 358.128 287.274V290.699L356.577 290.135V286.71C356.577 285.714 356.734 284.863 357.048 284.156C357.356 283.446 357.804 282.902 358.393 282.524C358.975 282.137 359.682 281.935 360.513 281.916C361.337 281.896 362.266 282.073 363.3 282.449L364.154 282.759C365.188 283.135 366.12 283.634 366.951 284.256C367.776 284.876 368.479 285.594 369.062 286.412C369.644 287.222 370.092 288.109 370.406 289.073C370.714 290.027 370.868 291.033 370.868 292.091ZM356.577 288.997L370.868 294.19V296.206L356.577 291.013V288.997Z" fill="white"/>
        <path d="M348.744 261C348.612 261 348.504 261.107 348.504 261.24C348.504 261.373 348.612 261.48 348.744 261.48V261ZM386.006 261.48C386.139 261.48 386.246 261.373 386.246 261.24C386.246 261.107 386.139 261 386.006 261V261.48ZM348.744 317.64C348.612 317.64 348.504 317.747 348.504 317.88C348.504 318.012 348.612 318.12 348.744 318.12V317.64ZM386.006 318.12C386.139 318.12 386.246 318.012 386.246 317.88C386.246 317.747 386.139 317.64 386.006 317.64V318.12ZM370.868 295.266L370.783 295.49C370.857 295.518 370.939 295.508 371.004 295.463C371.069 295.418 371.108 295.345 371.108 295.266H370.868ZM369.327 294.685H369.087C369.087 294.785 369.149 294.874 369.242 294.909L369.327 294.685ZM368.689 288.584L368.905 288.48L368.904 288.478L368.689 288.584ZM366.883 286.299L366.729 286.483L366.729 286.483L366.883 286.299ZM364.154 284.754L364.236 284.528L364.236 284.528L364.154 284.754ZM363.281 284.436L363.199 284.662L363.199 284.662L363.281 284.436ZM361.102 283.958L361.093 284.198L361.094 284.198L361.102 283.958ZM359.482 284.288L359.597 284.499L359.599 284.498L359.482 284.288ZM358.471 285.404L358.689 285.505L358.69 285.503L358.471 285.404ZM358.128 290.699L358.046 290.924C358.119 290.951 358.201 290.94 358.266 290.895C358.33 290.85 358.368 290.777 358.368 290.699H358.128ZM356.577 290.135H356.337C356.337 290.236 356.4 290.326 356.495 290.361L356.577 290.135ZM357.048 284.156L357.268 284.253L357.268 284.251L357.048 284.156ZM358.393 282.524L358.522 282.726L358.526 282.724L358.393 282.524ZM360.513 281.916L360.518 282.156L360.519 282.156L360.513 281.916ZM363.3 282.449L363.382 282.223L363.382 282.223L363.3 282.449ZM364.154 282.759L364.072 282.985L364.072 282.985L364.154 282.759ZM366.951 284.256L367.096 284.064L367.095 284.064L366.951 284.256ZM369.062 286.412L368.866 286.551L368.867 286.552L369.062 286.412ZM370.406 289.073L370.635 288.999L370.635 288.998L370.406 289.073ZM356.577 288.997L356.659 288.771C356.585 288.745 356.503 288.756 356.439 288.8C356.375 288.845 356.337 288.919 356.337 288.997H356.577ZM370.868 294.19H371.108C371.108 294.089 371.044 293.999 370.95 293.965L370.868 294.19ZM370.868 296.206L370.786 296.431C370.859 296.458 370.941 296.447 371.005 296.402C371.069 296.357 371.108 296.284 371.108 296.206H370.868ZM356.577 291.013H356.337C356.337 291.113 356.4 291.204 356.495 291.238L356.577 291.013ZM380.479 261.24L380.717 261.212C380.703 261.092 380.601 261.001 380.481 261C380.36 260.999 380.257 261.088 380.241 261.208L380.479 261.24ZM382.161 275.4L382.005 275.582C382.08 275.647 382.187 275.658 382.274 275.612C382.362 275.565 382.411 275.47 382.4 275.372L382.161 275.4ZM378.555 275.4L378.317 275.368C378.304 275.464 378.35 275.558 378.433 275.607C378.516 275.656 378.621 275.65 378.699 275.592L378.555 275.4ZM380.478 317.88L380.24 317.912C380.256 318.032 380.359 318.121 380.48 318.12C380.601 318.119 380.702 318.028 380.716 317.908L380.478 317.88ZM378.555 303.72L378.699 303.528C378.621 303.47 378.516 303.464 378.433 303.513C378.35 303.562 378.304 303.656 378.317 303.752L378.555 303.72ZM380.478 305.16L380.478 305.4L380.478 305.4L380.478 305.16ZM382.161 303.72L382.4 303.748C382.411 303.65 382.362 303.555 382.274 303.508C382.187 303.462 382.08 303.473 382.005 303.538L382.161 303.72ZM348.744 261.48H386.006V261H348.744V261.48ZM348.744 318.12H386.006V317.64H348.744V318.12ZM370.628 292.091V295.266H371.108V292.091H370.628ZM370.952 295.041L369.411 294.46L369.242 294.909L370.783 295.49L370.952 295.041ZM369.567 294.685V291.531H369.087V294.685H369.567ZM369.567 291.531C369.567 290.413 369.348 289.394 368.905 288.48L368.473 288.689C368.881 289.531 369.087 290.477 369.087 291.531H369.567ZM368.904 288.478C368.457 287.566 367.834 286.778 367.036 286.114L366.729 286.483C367.476 287.105 368.057 287.84 368.473 288.69L368.904 288.478ZM367.037 286.115C366.235 285.443 365.3 284.915 364.236 284.528L364.072 284.979C365.089 285.349 365.973 285.85 366.729 286.483L367.037 286.115ZM364.236 284.528L363.363 284.211L363.199 284.662L364.072 284.979L364.236 284.528ZM363.363 284.211C362.529 283.908 361.777 283.741 361.11 283.718L361.094 284.198C361.696 284.218 362.396 284.37 363.199 284.662L363.363 284.211ZM361.111 283.718C360.438 283.693 359.852 283.808 359.365 284.079L359.599 284.498C359.99 284.28 360.483 284.175 361.093 284.198L361.111 283.718ZM359.368 284.077C358.873 284.347 358.502 284.76 358.253 285.304L358.69 285.503C358.899 285.045 359.202 284.714 359.597 284.499L359.368 284.077ZM358.254 285.303C358.005 285.839 357.888 286.499 357.888 287.274H358.368C358.368 286.544 358.479 285.958 358.689 285.505L358.254 285.303ZM357.888 287.274V290.699H358.368V287.274H357.888ZM358.21 290.473L356.659 289.91L356.495 290.361L358.046 290.924L358.21 290.473ZM356.817 290.135V286.71H356.337V290.135H356.817ZM356.817 286.71C356.817 285.739 356.97 284.922 357.268 284.253L356.829 284.058C356.498 284.804 356.337 285.69 356.337 286.71H356.817ZM357.268 284.251C357.559 283.58 357.978 283.076 358.522 282.726L358.263 282.322C357.63 282.729 357.152 283.312 356.828 284.06L357.268 284.251ZM358.526 282.724C359.064 282.367 359.724 282.174 360.518 282.156L360.508 281.676C359.64 281.695 358.887 281.908 358.26 282.324L358.526 282.724ZM360.519 282.156C361.305 282.137 362.204 282.306 363.218 282.674L363.382 282.223C362.329 281.841 361.369 281.655 360.507 281.676L360.519 282.156ZM363.218 282.674L364.072 282.985L364.236 282.534L363.382 282.223L363.218 282.674ZM364.072 282.985C365.085 283.353 365.997 283.841 366.808 284.448L367.095 284.064C366.244 283.427 365.291 282.917 364.236 282.534L364.072 282.985ZM366.807 284.448C367.613 285.053 368.299 285.754 368.866 286.551L369.257 286.273C368.66 285.435 367.939 284.698 367.096 284.064L366.807 284.448ZM368.867 286.552C369.435 287.342 369.872 288.207 370.178 289.147L370.635 288.998C370.313 288.012 369.854 287.102 369.257 286.272L368.867 286.552ZM370.178 289.146C370.477 290.075 370.628 291.056 370.628 292.091H371.108C371.108 291.009 370.95 289.978 370.635 288.999L370.178 289.146ZM356.495 289.223L370.786 294.416L370.95 293.965L356.659 288.771L356.495 289.223ZM370.628 294.19V296.206H371.108V294.19H370.628ZM370.95 295.98L356.659 290.787L356.495 291.238L370.786 296.431L370.95 295.98ZM356.817 291.013V288.997H356.337V291.013H356.817ZM380.24 261.268L381.923 275.428L382.4 275.372L380.717 261.212L380.24 261.268ZM382.317 275.218L380.635 273.778L380.322 274.142L382.005 275.582L382.317 275.218ZM380.335 273.768L378.411 275.208L378.699 275.592L380.622 274.152L380.335 273.768ZM378.793 275.432L380.716 261.272L380.241 261.208L378.317 275.368L378.793 275.432ZM380.479 261.72H380.719V261.24H380.479V261.72ZM380.479 261.96H380.719V261.48H380.479V261.96ZM380.479 262.2H380.719V261.72H380.479V262.2ZM380.479 262.44H380.719V261.96H380.479V262.44ZM380.479 262.68H380.719V262.2H380.479V262.68ZM380.479 262.92H380.719V262.44H380.479V262.92ZM380.479 263.16H380.719V262.68H380.479V263.16ZM380.479 274.2L382.161 274.2L382.161 273.72L380.479 273.72L380.479 274.2ZM380.959 274.44H382.161V273.96H380.959V274.44ZM381.2 274.68H382.161V274.2H381.2V274.68ZM381.44 274.92H382.161V274.44H381.44V274.92ZM381.681 275.16H382.161V274.68H381.681V275.16ZM381.921 275.4H382.161V274.92H381.921V275.4ZM378.795 274.2L380.479 274.2L380.479 273.72L378.795 273.72L378.795 274.2ZM378.795 274.44H380.237V273.96H378.795V274.44ZM378.795 274.68H379.997V274.2H378.795V274.68ZM378.795 274.92H379.516V274.44H378.795V274.92ZM378.795 275.16H379.276V274.68H378.795V275.16ZM378.795 275.4H379.035V274.92H378.795V275.4ZM380.716 317.848L378.793 303.688L378.317 303.752L380.24 317.912L380.716 317.848ZM378.411 303.912L380.334 305.352L380.622 304.968L378.699 303.528L378.411 303.912ZM380.634 305.342L382.317 303.902L382.005 303.538L380.322 304.978L380.634 305.342ZM381.923 303.692L380.24 317.852L380.716 317.908L382.4 303.748L381.923 303.692ZM378.795 304.2H379.035V303.72H378.795V304.2ZM378.795 304.44H379.276V303.96H378.795V304.44ZM378.795 304.68H379.516V304.2H378.795V304.68ZM378.795 304.92H379.997V304.44H378.795V304.92ZM378.795 305.16H380.237V304.68H378.795V305.16ZM378.795 305.4L380.478 305.4L380.478 304.92L378.795 304.92L378.795 305.4ZM381.921 304.2H382.161V303.72H381.921V304.2ZM381.681 304.44H382.161V303.96H381.681V304.44ZM381.44 304.68H382.161V304.2H381.44V304.68ZM381.2 304.92H382.161V304.44H381.2V304.92ZM380.959 305.16H382.161V304.68H380.959V305.16ZM380.478 305.4L382.161 305.4L382.161 304.92L380.478 304.92L380.478 305.4ZM380.479 316.44H380.719V315.96H380.479V316.44ZM380.479 316.68H380.719V316.2H380.479V316.68ZM380.479 316.92H380.719V316.44H380.479V316.92ZM380.479 317.16H380.719V316.68H380.479V317.16ZM380.479 317.4H380.719V316.92H380.479V317.4ZM380.479 317.64H380.719V317.16H380.479V317.64ZM380.479 317.88H380.719V317.4H380.479V317.88ZM380.239 261.24L380.238 317.88L380.718 317.88L380.719 261.24L380.239 261.24ZM380.237 263.4L380.719 263.4L380.719 262.92L380.237 262.92L380.237 263.4ZM380.237 263.64L380.959 263.64L380.959 263.16L380.237 263.16L380.237 263.64ZM380.237 263.88L380.959 263.88L380.959 263.4L380.237 263.4L380.237 263.88ZM380.237 264.12L380.959 264.12L380.959 263.64L380.237 263.64L380.237 264.12ZM380.237 264.36L380.959 264.36L380.959 263.88L380.237 263.88L380.237 264.36ZM380.237 264.6L380.959 264.6L380.959 264.12L380.237 264.12L380.237 264.6ZM380.237 264.84L380.959 264.84L380.959 264.36L380.237 264.36L380.237 264.84ZM379.997 265.08L380.959 265.08L380.959 264.6L379.997 264.6L379.997 265.08ZM379.997 265.32L380.959 265.32L380.959 264.84L379.997 264.84L379.997 265.32ZM379.997 265.56L381.2 265.56L381.2 265.08L379.997 265.08L379.997 265.56ZM379.997 265.8L381.2 265.8L381.2 265.32L379.997 265.32L379.997 265.8ZM379.997 266.04L381.2 266.04L381.2 265.56L379.997 265.56L379.997 266.04ZM379.997 266.28L381.2 266.28L381.2 265.8L379.997 265.8L379.997 266.28ZM379.997 266.52L381.2 266.52L381.2 266.04L379.997 266.04L379.997 266.52ZM379.997 266.76L381.2 266.76L381.2 266.28L379.997 266.28L379.997 266.76ZM379.756 267L381.2 267L381.2 266.52L379.757 266.52L379.756 267ZM379.756 267.24L381.2 267.24L381.2 266.76L379.757 266.76L379.756 267.24ZM379.756 267.48L381.2 267.48L381.2 267L379.757 267L379.756 267.48ZM379.756 267.72L381.44 267.72L381.44 267.24L379.757 267.24L379.756 267.72ZM379.756 267.96L381.44 267.96L381.44 267.48L379.757 267.48L379.756 267.96ZM379.756 268.2L381.44 268.2L381.44 267.72L379.757 267.72L379.756 268.2ZM379.756 268.44L381.44 268.44L381.44 267.96L379.757 267.96L379.756 268.44ZM379.516 268.68L381.44 268.68L381.44 268.2L379.516 268.2L379.516 268.68ZM379.516 268.92L381.44 268.92L381.44 268.44L379.516 268.44L379.516 268.92ZM379.516 269.16L381.44 269.16L381.44 268.68L379.516 268.68L379.516 269.16ZM379.516 269.4L381.44 269.4L381.44 268.92L379.516 268.92L379.516 269.4ZM379.516 269.64L381.681 269.64L381.681 269.16L379.516 269.16L379.516 269.64ZM379.516 269.88L381.681 269.88L381.681 269.4L379.516 269.4L379.516 269.88ZM379.516 270.12L381.681 270.12L381.681 269.64L379.516 269.64L379.516 270.12ZM379.276 270.36L381.681 270.36L381.681 269.88L379.276 269.88L379.276 270.36ZM379.276 270.6L381.681 270.6L381.681 270.12L379.276 270.12L379.276 270.6ZM379.276 270.84L381.681 270.84L381.681 270.36L379.276 270.36L379.276 270.84ZM379.276 271.08L381.681 271.08L381.681 270.6L379.276 270.6L379.276 271.08ZM379.276 271.32L381.681 271.32L381.681 270.84L379.276 270.84L379.276 271.32ZM379.276 271.56L381.681 271.56L381.681 271.08L379.276 271.08L379.276 271.56ZM379.276 271.8L381.921 271.8L381.921 271.32L379.276 271.32L379.276 271.8ZM379.276 272.04L381.921 272.04L381.921 271.56L379.276 271.56L379.276 272.04ZM379.035 272.28L381.921 272.28L381.921 271.8L379.035 271.8L379.035 272.28ZM379.035 272.52L381.921 272.52L381.921 272.04L379.035 272.04L379.035 272.52ZM379.035 272.76L381.921 272.76L381.921 272.28L379.035 272.28L379.035 272.76ZM379.035 273L381.921 273L381.921 272.52L379.035 272.52L379.035 273ZM379.035 273.24L381.921 273.24L381.921 272.76L379.035 272.76L379.035 273.24ZM379.035 273.48L381.921 273.48L381.921 273L379.035 273L379.035 273.48ZM379.035 273.72L382.161 273.72L382.161 273.24L379.035 273.24L379.035 273.72ZM378.795 273.96L382.161 273.96L382.161 273.48L378.795 273.48L378.795 273.96ZM378.795 305.64H382.161V305.16H378.795V305.64ZM379.035 305.88H382.161V305.4H379.035V305.88ZM379.035 306.12H381.921V305.64H379.035V306.12ZM379.035 306.36H381.921V305.88H379.035V306.36ZM379.035 306.6L381.921 306.6L381.921 306.12L379.035 306.12L379.035 306.6ZM379.035 306.84H381.921V306.36H379.035V306.84ZM379.035 307.08L381.921 307.08L381.921 306.6L379.035 306.6L379.035 307.08ZM379.035 307.32H381.921V306.84H379.035V307.32ZM379.276 307.56L381.921 307.56L381.921 307.08L379.276 307.08L379.276 307.56ZM379.276 307.8H381.921V307.32H379.276V307.8ZM379.276 308.04L381.681 308.04L381.681 307.56L379.276 307.56L379.276 308.04ZM379.276 308.28H381.681V307.8H379.276V308.28ZM379.276 308.52L381.681 308.52L381.681 308.04L379.276 308.04L379.276 308.52ZM379.276 308.76L381.681 308.76L381.681 308.28L379.276 308.28L379.276 308.76ZM379.276 309H381.681V308.52H379.276V309ZM379.276 309.24L381.681 309.24L381.681 308.76L379.276 308.76L379.276 309.24ZM379.516 309.48H381.681V309H379.516V309.48ZM379.516 309.72L381.681 309.72L381.681 309.24L379.516 309.24L379.516 309.72ZM379.516 309.96H381.681V309.48H379.516V309.96ZM379.516 310.2L381.44 310.2L381.44 309.72L379.516 309.72L379.516 310.2ZM379.516 310.44L381.44 310.44L381.44 309.96L379.516 309.96L379.516 310.44ZM379.516 310.68L381.44 310.68L381.44 310.2L379.516 310.2L379.516 310.68ZM379.516 310.92L381.44 310.92L381.44 310.44L379.516 310.44L379.516 310.92ZM379.757 311.16L381.44 311.16L381.44 310.68L379.757 310.68L379.757 311.16ZM379.757 311.4L381.44 311.4L381.44 310.92L379.757 310.92L379.757 311.4ZM379.757 311.64L381.44 311.64L381.44 311.16L379.757 311.16L379.757 311.64ZM379.757 311.88L381.44 311.88L381.44 311.4L379.757 311.4L379.757 311.88ZM379.757 312.12L381.2 312.12L381.2 311.64L379.757 311.64L379.757 312.12ZM379.757 312.36L381.2 312.36L381.2 311.88L379.757 311.88L379.757 312.36ZM379.757 312.6L381.2 312.6L381.2 312.12L379.757 312.12L379.757 312.6ZM379.997 312.84L381.2 312.84L381.2 312.36L379.997 312.36L379.997 312.84ZM379.997 313.08L381.2 313.08L381.2 312.6L379.997 312.6L379.997 313.08ZM379.997 313.32L381.2 313.32L381.2 312.84L379.997 312.84L379.997 313.32ZM379.997 313.56L381.2 313.56L381.2 313.08L379.997 313.08L379.997 313.56ZM379.997 313.8L381.2 313.8L381.2 313.32L379.997 313.32L379.997 313.8ZM379.997 314.04L381.2 314.04L381.2 313.56L379.997 313.56L379.997 314.04ZM379.997 314.28L380.959 314.28L380.959 313.8L379.997 313.8L379.997 314.28ZM379.997 314.52L380.959 314.52L380.959 314.04L379.997 314.04L379.997 314.52ZM380.237 314.76L380.959 314.76L380.959 314.28L380.237 314.28L380.237 314.76ZM380.237 315L380.959 315L380.959 314.52L380.237 314.52L380.237 315ZM380.237 315.24L380.959 315.24L380.959 314.76L380.237 314.76L380.237 315.24ZM380.237 315.48L380.959 315.48L380.959 315L380.237 315L380.237 315.48ZM380.237 315.72L380.959 315.72L380.959 315.24L380.237 315.24L380.237 315.72ZM380.237 315.96L380.959 315.96L380.959 315.48L380.237 315.48L380.237 315.96ZM380.237 316.2L380.719 316.2L380.719 315.72L380.237 315.72L380.237 316.2Z" fill="white"/>
    </g>
    <!--    3 Dy-->
    <g class="group">
    </g>
    <!--    4 Dh-->
    <g class="group">
    </g>
    <!--    5 D1-->
    <g class="group">
    </g>
    <!--   6 D2-->
    <g class="group">
    </g>
    <!--   7 d-->
    <g class="group">
    </g>
    <!--    8 dH-->
    <g class="group">
    </g>
    <!--    9 d1-->
    <g class="group">
    </g>
    <!--    10 d2-->
    <g class="group">
    </g>
    <!--    11 L-->
    <g class="group">
        <path d="M177.988 79.4545L177.426 80.9948H169.824L170.385 79.4545H177.988ZM175.429 66.7098L170.22 80.9948H168.205L173.413 66.7098H175.429Z" fill="white"/>
        <path d="M342.494 63.24C342.494 63.1074 342.386 63 342.254 63C342.121 63 342.014 63.1074 342.014 63.24H342.494ZM342.014 95.88C342.014 96.0125 342.121 96.12 342.254 96.12C342.386 96.12 342.494 96.0125 342.494 95.88H342.014ZM1.84547 63.24C1.84547 63.1074 1.73802 63 1.60547 63C1.47292 63 1.36547 63.1074 1.36547 63.24H1.84547ZM1.36547 95.88C1.36547 96.0125 1.47292 96.12 1.60547 96.12C1.73802 96.12 1.84547 96.0125 1.84547 95.88H1.36547ZM177.988 79.4545L178.213 79.5367C178.24 79.4631 178.229 79.3811 178.184 79.3169C178.139 79.2527 178.066 79.2145 177.988 79.2145V79.4545ZM177.426 80.9948V81.2348C177.527 81.2348 177.617 81.1718 177.651 81.077L177.426 80.9948ZM169.824 80.9948L169.598 80.9126C169.571 80.9862 169.582 81.0683 169.627 81.1324C169.672 81.1966 169.745 81.2348 169.824 81.2348V80.9948ZM170.385 79.4545V79.2145C170.284 79.2145 170.194 79.2775 170.16 79.3723L170.385 79.4545ZM175.429 66.7098L175.654 66.792C175.681 66.7185 175.67 66.6364 175.625 66.5722C175.581 66.5081 175.507 66.4698 175.429 66.4698V66.7098ZM170.22 80.9948V81.2348C170.321 81.2348 170.411 81.1718 170.446 81.077L170.22 80.9948ZM168.205 80.9948L167.979 80.9126C167.953 80.9862 167.963 81.0683 168.008 81.1324C168.053 81.1966 168.127 81.2348 168.205 81.2348V80.9948ZM173.413 66.7098V66.4698C173.312 66.4698 173.222 66.5329 173.188 66.6276L173.413 66.7098ZM342.254 90.1199L342.286 90.3577C342.405 90.3416 342.494 90.24 342.494 90.1199C342.494 89.9998 342.405 89.8982 342.286 89.882L342.254 90.1199ZM328.07 92.0399L327.878 91.8957C327.82 91.9731 327.814 92.0778 327.863 92.1613C327.912 92.2448 328.007 92.2907 328.103 92.2777L328.07 92.0399ZM328.07 88.2L328.103 87.9621C328.007 87.9491 327.912 87.995 327.863 88.0785C327.814 88.162 327.82 88.2667 327.878 88.3441L328.07 88.2ZM1.60547 90.1199L1.57327 89.8821C1.45425 89.8982 1.36547 89.9998 1.36547 90.12C1.36547 90.2401 1.45426 90.3417 1.57328 90.3578L1.60547 90.1199ZM15.7891 88.2L15.9811 88.344C16.0392 88.2667 16.0451 88.1619 15.9961 88.0785C15.9471 87.995 15.8528 87.9491 15.7569 87.9621L15.7891 88.2ZM15.7901 92.0399L15.7579 92.2777C15.8538 92.2907 15.9481 92.2448 15.9971 92.1613C16.0461 92.0778 16.0401 91.9731 15.982 91.8957L15.7901 92.0399ZM342.014 63.24V95.88H342.494V63.24H342.014ZM1.36547 63.24V95.88H1.84547V63.24H1.36547ZM177.762 79.3723L177.201 80.9126L177.651 81.077L178.213 79.5367L177.762 79.3723ZM177.426 80.7548H169.824V81.2348H177.426V80.7548ZM170.049 81.077L170.611 79.5367L170.16 79.3723L169.598 80.9126L170.049 81.077ZM170.385 79.6945H177.988V79.2145H170.385V79.6945ZM175.203 66.6276L169.995 80.9126L170.446 81.077L175.654 66.792L175.203 66.6276ZM170.22 80.7548H168.205V81.2348H170.22V80.7548ZM168.43 81.077L173.639 66.792L173.188 66.6276L167.979 80.9126L168.43 81.077ZM173.413 66.9498H175.429V66.4698H173.413V66.9498ZM342.222 89.882L328.038 91.802L328.103 92.2777L342.286 90.3577L342.222 89.882ZM328.262 92.184L329.705 90.264L329.321 89.9757L327.878 91.8957L328.262 92.184ZM329.705 89.9757L328.262 88.0558L327.878 88.3441L329.321 90.264L329.705 89.9757ZM328.038 88.4378L342.222 90.3577L342.286 89.882L328.103 87.9621L328.038 88.4378ZM329.513 90.3599H342.254V89.8799H329.513V90.3599ZM329.513 90.5999H340.571V90.1199H329.513V90.5999ZM329.272 90.8399H338.888V90.3599H329.272V90.8399ZM329.032 91.0799H336.965V90.5999H329.032V91.0799ZM328.791 91.3199H335.282V90.8399H328.791V91.3199ZM328.791 91.5599H333.599V91.0799H328.791V91.5599ZM328.551 91.7999H331.676V91.3199H328.551V91.7999ZM328.311 92.0399H329.993V91.5599H328.311V92.0399ZM328.311 88.6799H329.993V88.1999H328.311V88.6799ZM328.551 88.9199H331.676V88.4399H328.551V88.9199ZM328.791 89.1599H333.599V88.6799H328.791V89.1599ZM328.791 89.3999H335.282V88.9199H328.791V89.3999ZM329.032 89.6399H336.965V89.1599H329.032V89.6399ZM329.272 89.8799H338.888V89.3999H329.272V89.8799ZM329.513 90.1199H340.571V89.6399H329.513V90.1199ZM1.63766 90.3578L15.8213 88.4378L15.7569 87.9621L1.57327 89.8821L1.63766 90.3578ZM15.5972 88.0559L14.1557 89.9759L14.5396 90.264L15.9811 88.344L15.5972 88.0559ZM14.1558 90.2641L15.5982 92.184L15.982 91.8957L14.5395 89.9758L14.1558 90.2641ZM15.8223 91.802L1.63766 89.8821L1.57328 90.3578L15.7579 92.2777L15.8223 91.802ZM14.1069 88.6799H15.7897V88.1999H14.1069V88.6799ZM12.4241 88.9199H15.5493V88.4399H12.4241V88.9199ZM10.5009 89.1599H15.3089V88.6799H10.5009V89.1599ZM8.81812 89.3999H15.0685V88.9199H8.81812V89.3999ZM7.13531 89.6399H15.0685V89.1599H7.13531V89.6399ZM5.2121 89.8799H14.8281V89.3999H5.2121V89.8799ZM3.5293 90.1199H14.5877V89.6399H3.5293V90.1199ZM1.60547 90.3599H14.3477V89.8799H1.60547V90.3599ZM3.52868 90.5999H14.5871V90.1199H3.52868V90.5999ZM5.21148 90.8399H14.8275V90.3599H5.21148V90.8399ZM7.13469 91.0799H15.0679V90.5999H7.13469V91.0799ZM8.8175 91.3199H15.0679V90.8399H8.8175V91.3199ZM10.5003 91.5599H15.3083V91.0799H10.5003V91.5599ZM12.4235 91.7999H15.5487V91.3199H12.4235V91.7999ZM14.1063 92.0399H15.7891V91.5599H14.1063V92.0399ZM342.254 89.8799L1.60547 89.8799L1.60547 90.3599L342.254 90.3599L342.254 89.8799Z" fill="white"/>
    </g>
    <!--    12 L1-->
    <g class="group">
        <path d="M90.7161 222.99L90.1545 224.53H82.552L83.1137 222.99H90.7161ZM88.1573 210.245L82.9489 224.53H80.9334L86.1418 210.245H88.1573Z" fill="white"/>
        <path d="M97.9042 220.403L94.4424 229.898H93.1653L96.0809 221.901L93.1845 222.783L93.5794 221.7L97.704 220.403H97.9042Z" fill="white"/>
        <path d="M172.049 208.68C172.049 208.547 171.941 208.44 171.809 208.44C171.676 208.44 171.569 208.547 171.569 208.68H172.049ZM171.569 242.76C171.569 242.892 171.676 243 171.809 243C171.941 243 172.049 242.892 172.049 242.76H171.569ZM1.84547 208.68C1.84547 208.547 1.73802 208.44 1.60547 208.44C1.47292 208.44 1.36547 208.547 1.36547 208.68H1.84547ZM1.36547 242.76C1.36547 242.892 1.47292 243 1.60547 243C1.73802 243 1.84547 242.892 1.84547 242.76H1.36547ZM90.7161 222.99L90.9416 223.072C90.9684 222.999 90.9577 222.917 90.9128 222.853C90.8678 222.788 90.7944 222.75 90.7161 222.75V222.99ZM90.1545 224.53V224.77C90.2553 224.77 90.3454 224.707 90.38 224.613L90.1545 224.53ZM82.552 224.53L82.3266 224.448C82.2997 224.522 82.3105 224.604 82.3554 224.668C82.4003 224.732 82.4737 224.77 82.552 224.77V224.53ZM83.1137 222.99V222.75C83.0128 222.75 82.9227 222.813 82.8882 222.908L83.1137 222.99ZM88.1573 210.245L88.3828 210.328C88.4096 210.254 88.3989 210.172 88.3539 210.108C88.309 210.044 88.2356 210.005 88.1573 210.005V210.245ZM82.9489 224.53V224.77C83.0497 224.77 83.1398 224.707 83.1744 224.613L82.9489 224.53ZM80.9334 224.53L80.7079 224.448C80.6811 224.522 80.6919 224.604 80.7368 224.668C80.7817 224.732 80.8551 224.77 80.9334 224.77V224.53ZM86.1418 210.245V210.005C86.041 210.005 85.9509 210.069 85.9163 210.163L86.1418 210.245ZM97.9042 220.403L98.1296 220.485C98.1565 220.412 98.1457 220.33 98.1008 220.265C98.0559 220.201 97.9825 220.163 97.9042 220.163V220.403ZM94.4424 229.898V230.138C94.5432 230.138 94.6333 230.075 94.6679 229.98L94.4424 229.898ZM93.1653 229.898L92.9399 229.815C92.913 229.889 92.9238 229.971 92.9687 230.035C93.0136 230.099 93.087 230.138 93.1653 230.138V229.898ZM96.0809 221.901L96.3064 221.983C96.3375 221.898 96.3177 221.802 96.2551 221.736C96.1926 221.67 96.098 221.645 96.011 221.672L96.0809 221.901ZM93.1845 222.783L92.959 222.701C92.9279 222.786 92.9477 222.882 93.0103 222.948C93.0729 223.014 93.1674 223.039 93.2544 223.013L93.1845 222.783ZM93.5794 221.7L93.5074 221.471C93.4362 221.494 93.3795 221.548 93.3539 221.618L93.5794 221.7ZM97.704 220.403V220.163C97.6796 220.163 97.6553 220.167 97.632 220.174L97.704 220.403ZM171.809 237.24L171.837 237.478C171.957 237.464 172.048 237.363 172.049 237.242C172.05 237.121 171.961 237.018 171.841 237.002L171.809 237.24ZM157.625 238.92L157.443 238.764C157.378 238.839 157.367 238.946 157.413 239.033C157.46 239.12 157.555 239.17 157.653 239.158L157.625 238.92ZM159.067 237.24L159.25 237.396C159.323 237.311 159.327 237.186 159.259 237.096L159.067 237.24ZM157.625 235.32L157.657 235.082C157.561 235.069 157.467 235.115 157.418 235.198C157.369 235.282 157.375 235.387 157.433 235.464L157.625 235.32ZM1.60547 237.24L1.57327 237.002C1.4535 237.018 1.36447 237.121 1.36548 237.242C1.36648 237.363 1.45721 237.464 1.57724 237.478L1.60547 237.24ZM15.7891 235.32L15.9811 235.464C16.0392 235.387 16.0451 235.282 15.9961 235.198C15.9471 235.115 15.8528 235.069 15.7569 235.082L15.7891 235.32ZM15.7901 238.92L15.7618 239.158C15.8601 239.17 15.9554 239.12 16.0019 239.033C16.0484 238.946 16.0366 238.839 15.9722 238.764L15.7901 238.92ZM171.569 208.68V242.76H172.049V208.68H171.569ZM1.36547 208.68V242.76H1.84547V208.68H1.36547ZM90.4906 222.908L89.929 224.448L90.38 224.613L90.9416 223.072L90.4906 222.908ZM90.1545 224.29H82.552V224.77H90.1545V224.29ZM82.7775 224.613L83.3392 223.072L82.8882 222.908L82.3266 224.448L82.7775 224.613ZM83.1137 223.23H90.7161V222.75H83.1137V223.23ZM87.9318 210.163L82.7234 224.448L83.1744 224.613L88.3828 210.328L87.9318 210.163ZM82.9489 224.29H80.9334V224.77H82.9489V224.29ZM81.1589 224.613L86.3673 210.328L85.9163 210.163L80.7079 224.448L81.1589 224.613ZM86.1418 210.485H88.1573V210.005H86.1418V210.485ZM97.6787 220.321L94.2169 229.815L94.6679 229.98L98.1296 220.485L97.6787 220.321ZM94.4424 229.658H93.1653V230.138H94.4424V229.658ZM93.3908 229.98L96.3064 221.983L95.8554 221.819L92.9399 229.815L93.3908 229.98ZM96.011 221.672L93.1146 222.554L93.2544 223.013L96.1508 222.131L96.011 221.672ZM93.41 222.865L93.8049 221.782L93.3539 221.618L92.959 222.701L93.41 222.865ZM93.6514 221.929L97.776 220.632L97.632 220.174L93.5074 221.471L93.6514 221.929ZM97.704 220.643H97.9042V220.163H97.704V220.643ZM171.78 237.002L157.597 238.682L157.653 239.158L171.837 237.478L171.78 237.002ZM157.807 239.076L159.25 237.396L158.885 237.084L157.443 238.764L157.807 239.076ZM159.259 237.096L157.817 235.176L157.433 235.464L158.876 237.384L159.259 237.096ZM157.593 235.558L171.776 237.478L171.841 237.002L157.657 235.082L157.593 235.558ZM159.069 237.48H171.81V237H159.069V237.48ZM159.069 237.72H169.887V237.24H159.069V237.72ZM158.829 237.96H167.964V237.48H158.829V237.96ZM158.588 238.2H165.8V237.72H158.588V238.2ZM158.348 238.44H163.877V237.96H158.348V238.44ZM158.108 238.68H161.714V238.2H158.108V238.68ZM157.867 238.92H159.79V238.44H157.867V238.92ZM157.867 235.8H159.55V235.32H157.867V235.8ZM158.108 236.04H161.233V235.56H158.108V236.04ZM158.348 236.28H163.156V235.8H158.348V236.28ZM158.348 236.52H164.839V236.04H158.348V236.52ZM158.588 236.76H166.522V236.28H158.588V236.76ZM158.829 237H168.445V236.52H158.829V237ZM159.069 237.24H170.128V236.76H159.069V237.24ZM1.63766 237.478L15.8213 235.558L15.7569 235.082L1.57327 237.002L1.63766 237.478ZM15.5972 235.176L14.1557 237.096L14.5396 237.384L15.9811 235.464L15.5972 235.176ZM14.1656 237.396L15.608 239.076L15.9722 238.764L14.5298 237.083L14.1656 237.396ZM15.8183 238.682L1.6337 237.001L1.57724 237.478L15.7618 239.158L15.8183 238.682ZM14.1069 235.8H15.7897V235.32H14.1069V235.8ZM12.4241 236.04H15.5493V235.56H12.4241V236.04ZM10.5009 236.28H15.3089V235.8H10.5009V236.28ZM8.81812 236.52H15.0685V236.04H8.81812V236.52ZM7.13531 236.76H15.0685V236.28H7.13531V236.76ZM5.2121 237H14.8281V236.52H5.2121V237ZM3.5293 237.24H14.5877V236.76H3.5293V237.24ZM1.60547 237.48H14.3477V237H1.60547V237.48ZM3.76908 237.72H14.5871V237.24H3.76908V237.72ZM5.69229 237.96H14.8275V237.48H5.69229V237.96ZM7.8559 238.2H15.0679V237.72H7.8559V238.2ZM9.77911 238.44H15.3083V237.96H9.77911V238.44ZM11.9427 238.68H15.5487V238.2H11.9427V238.68ZM13.8659 238.92H15.7891V238.44H13.8659V238.92ZM171.81 237L1.60547 237L1.60547 237.48L171.81 237.48L171.81 237Z" fill="white"/>
    </g>
    <!--    13 L2-->
    <g class="group">
        <path d="M237.19 344.074L236.831 345.06H230.252L230.567 344.198L235.115 340.754C235.675 340.33 236.118 339.971 236.446 339.677C236.781 339.379 237.034 339.113 237.207 338.88C237.385 338.642 237.52 338.4 237.61 338.153C237.723 337.842 237.757 337.561 237.71 337.31C237.669 337.055 237.546 336.852 237.338 336.701C237.131 336.549 236.841 336.474 236.469 336.474C236.022 336.474 235.62 336.556 235.261 336.72C234.908 336.88 234.605 337.105 234.352 337.395C234.099 337.684 233.904 338.017 233.767 338.393H232.49C232.684 337.861 232.985 337.375 233.395 336.934C233.804 336.493 234.3 336.143 234.882 335.883C235.466 335.62 236.115 335.488 236.828 335.488C237.463 335.488 237.968 335.594 238.341 335.806C238.717 336.013 238.955 336.307 239.055 336.688C239.162 337.064 239.123 337.505 238.939 338.011C238.838 338.287 238.685 338.568 238.479 338.854C238.28 339.135 238.042 339.416 237.765 339.697C237.492 339.978 237.191 340.255 236.861 340.527C236.537 340.799 236.197 341.067 235.843 341.331L232.151 344.074H237.19Z" fill="white"/>
        <path d="M342.494 322.44C342.494 322.307 342.386 322.2 342.254 322.2C342.121 322.2 342.014 322.307 342.014 322.44H342.494ZM112.429 347.88C112.429 347.747 112.322 347.64 112.189 347.64C112.057 347.64 111.949 347.747 111.949 347.88H112.429ZM111.949 357.96C111.949 358.092 112.057 358.2 112.189 358.2C112.322 358.2 112.429 358.092 112.429 357.96H111.949ZM342.014 357.96C342.014 358.092 342.121 358.2 342.254 358.2C342.386 358.2 342.494 358.092 342.494 357.96H342.014ZM230.265 338.153L230.49 338.235C230.517 338.162 230.506 338.08 230.462 338.015C230.417 337.951 230.343 337.913 230.265 337.913V338.153ZM229.703 339.693V339.933C229.804 339.933 229.894 339.87 229.929 339.776L229.703 339.693ZM222.101 339.693L221.875 339.611C221.849 339.685 221.859 339.767 221.904 339.831C221.949 339.895 222.023 339.933 222.101 339.933V339.693ZM222.662 338.153V337.913C222.562 337.913 222.472 337.976 222.437 338.071L222.662 338.153ZM227.706 325.408L227.932 325.491C227.958 325.417 227.948 325.335 227.903 325.271C227.858 325.207 227.784 325.168 227.706 325.168V325.408ZM222.498 339.693V339.933C222.599 339.933 222.689 339.87 222.723 339.776L222.498 339.693ZM220.482 339.693L220.257 339.611C220.23 339.685 220.241 339.767 220.286 339.831C220.33 339.895 220.404 339.933 220.482 339.933V339.693ZM225.691 325.408V325.168C225.59 325.168 225.5 325.231 225.465 325.326L225.691 325.408ZM237.19 344.074L237.416 344.157C237.443 344.083 237.432 344.001 237.387 343.937C237.342 343.873 237.269 343.834 237.19 343.834V344.074ZM236.831 345.06V345.3C236.932 345.3 237.022 345.237 237.056 345.142L236.831 345.06ZM230.252 345.06L230.027 344.978C230 345.052 230.011 345.134 230.056 345.198C230.101 345.262 230.174 345.3 230.252 345.3V345.06ZM230.567 344.198L230.422 344.006C230.385 344.034 230.357 344.072 230.341 344.115L230.567 344.198ZM235.115 340.754L235.26 340.945L235.26 340.945L235.115 340.754ZM236.446 339.677L236.287 339.498L236.286 339.499L236.446 339.677ZM237.207 338.88L237.015 338.735L237.014 338.737L237.207 338.88ZM237.61 338.153L237.384 338.071L237.61 338.153ZM237.71 337.31L237.473 337.348L237.474 337.354L237.71 337.31ZM235.261 336.72L235.36 336.939L235.36 336.938L235.261 336.72ZM233.767 338.393V338.633C233.868 338.633 233.958 338.57 233.992 338.475L233.767 338.393ZM232.49 338.393L232.264 338.311C232.238 338.385 232.248 338.467 232.293 338.531C232.338 338.595 232.411 338.633 232.49 338.633V338.393ZM234.882 335.883L234.98 336.103L234.981 336.102L234.882 335.883ZM238.341 335.806L238.223 336.014L238.225 336.016L238.341 335.806ZM239.055 336.688L238.823 336.749L238.824 336.753L239.055 336.688ZM238.939 338.011L239.164 338.093L238.939 338.011ZM238.479 338.854L238.285 338.714L238.284 338.715L238.479 338.854ZM237.765 339.697L237.594 339.528L237.592 339.53L237.765 339.697ZM236.861 340.527L236.709 340.342L236.707 340.343L236.861 340.527ZM235.843 341.331L235.987 341.524L235.987 341.524L235.843 341.331ZM232.151 344.074L232.008 343.882C231.925 343.943 231.891 344.052 231.923 344.15C231.956 344.248 232.048 344.314 232.151 344.314V344.074ZM112.189 352.2L112.161 351.962C112.041 351.976 111.95 352.077 111.949 352.198C111.948 352.319 112.037 352.422 112.157 352.438L112.189 352.2ZM126.373 350.52L126.555 350.676C126.62 350.601 126.631 350.494 126.585 350.407C126.538 350.32 126.443 350.27 126.345 350.282L126.373 350.52ZM126.374 354.12L126.342 354.358C126.438 354.371 126.532 354.325 126.581 354.241C126.63 354.158 126.624 354.053 126.566 353.976L126.374 354.12ZM342.254 352.2L342.286 352.438C342.406 352.422 342.495 352.319 342.494 352.198C342.493 352.077 342.402 351.976 342.282 351.962L342.254 352.2ZM328.07 354.12L327.878 353.976C327.82 354.053 327.814 354.158 327.863 354.241C327.912 354.325 328.007 354.371 328.103 354.358L328.07 354.12ZM328.07 350.52L328.099 350.282C328 350.27 327.905 350.32 327.859 350.407C327.812 350.494 327.824 350.601 327.888 350.676L328.07 350.52ZM111.949 347.88V357.96H112.429V347.88H111.949ZM230.039 338.071L229.478 339.611L229.929 339.776L230.49 338.235L230.039 338.071ZM229.703 339.453H222.101V339.933H229.703V339.453ZM222.326 339.776L222.888 338.235L222.437 338.071L221.875 339.611L222.326 339.776ZM222.662 338.393H230.265V337.913H222.662V338.393ZM227.481 325.326L222.272 339.611L222.723 339.776L227.932 325.491L227.481 325.326ZM222.498 339.453H220.482V339.933H222.498V339.453ZM220.708 339.776L225.916 325.491L225.465 325.326L220.257 339.611L220.708 339.776ZM225.691 325.648H227.706V325.168H225.691V325.648ZM236.965 343.992L236.605 344.978L237.056 345.142L237.416 344.157L236.965 343.992ZM236.831 344.82H230.252V345.3H236.831V344.82ZM230.478 345.142L230.792 344.28L230.341 344.115L230.027 344.978L230.478 345.142ZM230.712 344.389L235.26 340.945L234.97 340.563L230.422 344.006L230.712 344.389ZM235.26 340.945C235.822 340.52 236.272 340.156 236.607 339.856L236.286 339.499C235.965 339.786 235.527 340.141 234.97 340.563L235.26 340.945ZM236.606 339.856C236.947 339.552 237.214 339.274 237.4 339.022L237.014 338.737C236.855 338.952 236.614 339.206 236.287 339.498L236.606 339.856ZM237.399 339.024C237.59 338.77 237.736 338.507 237.835 338.236L237.384 338.071C237.303 338.293 237.181 338.514 237.015 338.735L237.399 339.024ZM237.835 338.236C237.959 337.896 238.002 337.57 237.946 337.266L237.474 337.354C237.511 337.552 237.487 337.788 237.384 338.071L237.835 338.236ZM237.947 337.273C237.897 336.955 237.739 336.696 237.48 336.507L237.197 336.894C237.352 337.008 237.442 337.155 237.473 337.348L237.947 337.273ZM237.48 336.507C237.217 336.315 236.87 336.234 236.469 336.234V336.714C236.813 336.714 237.046 336.784 237.197 336.894L237.48 336.507ZM236.469 336.234C235.992 336.234 235.555 336.321 235.161 336.502L235.36 336.938C235.684 336.79 236.052 336.714 236.469 336.714V336.234ZM235.161 336.501C234.778 336.676 234.447 336.921 234.171 337.237L234.533 337.552C234.763 337.289 235.038 337.085 235.36 336.939L235.161 336.501ZM234.171 337.237C233.898 337.55 233.688 337.908 233.541 338.311L233.992 338.475C234.12 338.126 234.3 337.819 234.533 337.552L234.171 337.237ZM233.767 338.153H232.49V338.633H233.767V338.153ZM232.715 338.475C232.898 337.976 233.182 337.516 233.571 337.097L233.219 336.771C232.789 337.234 232.47 337.747 232.264 338.311L232.715 338.475ZM233.571 337.097C233.956 336.681 234.425 336.35 234.98 336.103L234.785 335.664C234.174 335.936 233.651 336.305 233.219 336.771L233.571 337.097ZM234.981 336.102C235.531 335.854 236.145 335.728 236.828 335.728V335.248C236.085 335.248 235.402 335.385 234.783 335.665L234.981 336.102ZM236.828 335.728C237.44 335.728 237.899 335.831 238.223 336.014L238.46 335.597C238.037 335.357 237.486 335.248 236.828 335.248V335.728ZM238.225 336.016C238.549 336.195 238.741 336.438 238.823 336.749L239.287 336.626C239.168 336.176 238.884 335.832 238.457 335.596L238.225 336.016ZM238.824 336.753C238.913 337.065 238.887 337.453 238.713 337.928L239.164 338.093C239.359 337.557 239.411 337.062 239.286 336.622L238.824 336.753ZM238.713 337.928C238.621 338.181 238.479 338.443 238.285 338.714L238.674 338.994C238.89 338.694 239.054 338.394 239.164 338.093L238.713 337.928ZM238.284 338.715C238.093 338.984 237.863 339.255 237.594 339.528L237.936 339.865C238.221 339.576 238.468 339.286 238.675 338.992L238.284 338.715ZM237.592 339.53C237.326 339.804 237.032 340.075 236.709 340.342L237.014 340.712C237.35 340.434 237.658 340.152 237.937 339.864L237.592 339.53ZM236.707 340.343C236.386 340.612 236.05 340.878 235.7 341.139L235.987 341.524C236.344 341.257 236.687 340.986 237.016 340.711L236.707 340.343ZM235.7 341.138L232.008 343.882L232.294 344.267L235.987 341.524L235.7 341.138ZM232.151 344.314H237.19V343.834H232.151V344.314ZM112.218 352.438L126.401 350.758L126.345 350.282L112.161 351.962L112.218 352.438ZM126.191 350.364L124.749 352.044L125.114 352.356L126.555 350.676L126.191 350.364ZM124.74 352.344L126.182 354.264L126.566 353.976L125.124 352.056L124.74 352.344ZM126.406 353.882L112.222 351.962L112.157 352.438L126.342 354.358L126.406 353.882ZM124.45 351H126.374V350.52H124.45V351ZM122.527 351.24H126.133V350.76H122.527V351.24ZM120.364 351.48H125.893V351H120.364V351.48ZM118.44 351.72H125.652V351.24H118.44V351.72ZM116.277 351.96H125.412V351.48H116.277V351.96ZM114.354 352.2H125.172V351.72H114.354V352.2ZM112.189 352.44H124.932V351.96H112.189V352.44ZM114.113 352.68H125.171V352.2H114.113V352.68ZM115.795 352.92H125.412V352.44H115.795V352.92ZM117.719 353.16H125.652V352.68H117.719V353.16ZM119.401 353.4H125.652V352.92H119.401V353.4ZM121.084 353.64H125.892V353.16H121.084V353.64ZM123.007 353.88H126.133V353.4H123.007V353.88ZM124.69 354.12H126.373V353.64H124.69V354.12ZM342.222 351.962L328.038 353.882L328.103 354.358L342.286 352.438L342.222 351.962ZM328.262 354.264L329.705 352.344L329.321 352.056L327.878 353.976L328.262 354.264ZM329.695 352.044L328.252 350.364L327.888 350.676L329.331 352.356L329.695 352.044ZM328.042 350.758L342.226 352.438L342.282 351.962L328.099 350.282L328.042 350.758ZM329.513 352.44H342.254V351.96H329.513V352.44ZM329.513 352.68H340.571V352.2H329.513V352.68ZM329.272 352.92H338.888V352.44H329.272V352.92ZM329.032 353.16H336.965V352.68H329.032V353.16ZM328.791 353.4H335.282V352.92H328.791V353.4ZM328.791 353.64H333.599V353.16H328.791V353.64ZM328.551 353.88H331.676V353.4H328.551V353.88ZM328.311 354.12H329.993V353.64H328.311V354.12ZM328.311 351H330.234V350.52H328.311V351ZM328.551 351.24H332.157V350.76H328.551V351.24ZM328.791 351.48H334.321V351H328.791V351.48ZM329.032 351.72H336.244V351.24H329.032V351.72ZM329.272 351.96H338.407V351.48H329.272V351.96ZM329.513 352.2H340.331V351.72H329.513V352.2ZM112.189 352.44L342.254 352.44L342.254 351.96L112.189 351.96L112.189 352.44ZM342.494 357.96V322.44H342.014V357.96H342.494Z" fill="white"/>
        <path d="M230.265 338.153L229.703 339.693H222.101L222.662 338.153H230.265ZM227.706 325.408L222.498 339.693H220.482L225.691 325.408H227.706Z" fill="white"/>
    </g>
    <!--    14 S-->
    <g class="group">
        <path d="M181.685 117.964C181.423 117.869 181.181 117.844 180.958 117.888C180.729 117.923 180.523 118.096 180.34 118.405C180.15 118.705 179.987 119.203 179.849 119.897C179.725 120.479 179.578 120.993 179.408 121.439C179.238 121.879 179.031 122.232 178.789 122.499C178.547 122.759 178.263 122.924 177.935 122.993C177.608 123.062 177.225 123.017 176.787 122.857C176.368 122.705 175.972 122.464 175.599 122.133C175.226 121.796 174.896 121.394 174.608 120.927C174.32 120.454 174.095 119.93 173.931 119.355C173.767 118.78 173.686 118.176 173.686 117.543C173.686 116.638 173.836 115.92 174.137 115.388C174.438 114.857 174.84 114.513 175.344 114.355C175.842 114.194 176.394 114.225 177.003 114.446V116.378C176.709 116.271 176.424 116.261 176.149 116.349C175.868 116.428 175.635 116.612 175.452 116.9C175.269 117.182 175.177 117.577 175.177 118.085C175.177 118.621 175.256 119.085 175.413 119.476C175.563 119.858 175.757 120.168 175.992 120.407C176.228 120.639 176.476 120.802 176.738 120.897C176.934 120.969 177.111 120.998 177.268 120.985C177.419 120.963 177.559 120.882 177.69 120.742C177.814 120.599 177.932 120.377 178.043 120.077C178.155 119.776 178.266 119.381 178.377 118.893C178.573 118.038 178.809 117.361 179.084 116.862C179.359 116.364 179.696 116.04 180.095 115.893C180.494 115.746 180.978 115.775 181.547 115.982C182.012 116.151 182.437 116.41 182.823 116.759C183.209 117.101 183.543 117.519 183.824 118.011C184.099 118.493 184.315 119.031 184.472 119.625C184.623 120.208 184.698 120.831 184.698 121.492C184.698 122.488 184.531 123.27 184.197 123.838C183.864 124.406 183.432 124.771 182.902 124.933C182.372 125.096 181.812 125.07 181.223 124.856V122.914C181.721 123.066 182.117 123.057 182.411 122.886C182.699 122.712 182.905 122.446 183.029 122.087C183.147 121.726 183.206 121.347 183.206 120.95C183.206 120.421 183.141 119.955 183.01 119.553C182.879 119.143 182.699 118.803 182.47 118.531C182.241 118.26 181.979 118.071 181.685 117.964Z" fill="white"/>
        <path d="M179.741 147.24C179.609 147.24 179.501 147.347 179.501 147.48C179.501 147.613 179.609 147.72 179.741 147.72V147.24ZM199.454 147.72C199.587 147.72 199.694 147.613 199.694 147.48C199.694 147.347 199.587 147.24 199.454 147.24V147.72ZM179.741 158.76C179.609 158.76 179.501 158.867 179.501 159C179.501 159.133 179.609 159.24 179.741 159.24V158.76ZM199.454 159.24C199.587 159.24 199.694 159.133 199.694 159C199.694 158.867 199.587 158.76 199.454 158.76V159.24ZM193.925 109.08C193.925 108.947 193.817 108.84 193.685 108.84C193.552 108.84 193.445 108.947 193.445 109.08H193.925ZM181.685 117.964L181.603 118.19L181.603 118.19L181.685 117.964ZM180.958 117.888L180.995 118.126L181.005 118.124L180.958 117.888ZM180.34 118.405L180.543 118.533L180.547 118.527L180.34 118.405ZM179.849 119.897L180.084 119.948L180.085 119.944L179.849 119.897ZM179.408 121.439L179.631 121.526L179.632 121.525L179.408 121.439ZM178.789 122.499L178.965 122.662L178.967 122.66L178.789 122.499ZM176.787 122.857L176.869 122.632L176.787 122.857ZM175.599 122.133L175.438 122.311L175.44 122.313L175.599 122.133ZM174.608 120.927L174.403 121.052L174.404 121.053L174.608 120.927ZM175.344 114.355L175.416 114.584L175.418 114.583L175.344 114.355ZM177.003 114.446H177.243C177.243 114.345 177.18 114.255 177.085 114.22L177.003 114.446ZM177.003 116.378L176.921 116.603C176.995 116.63 177.077 116.619 177.141 116.574C177.205 116.529 177.243 116.456 177.243 116.378H177.003ZM176.149 116.349L176.214 116.581L176.222 116.578L176.149 116.349ZM175.452 116.9L175.653 117.031L175.655 117.029L175.452 116.9ZM175.413 119.476L175.636 119.388L175.636 119.386L175.413 119.476ZM175.992 120.407L175.821 120.575L175.824 120.578L175.992 120.407ZM176.738 120.897L176.656 121.123L176.656 121.123L176.738 120.897ZM177.268 120.985L177.287 121.225C177.292 121.224 177.297 121.224 177.303 121.223L177.268 120.985ZM177.69 120.742L177.866 120.906L177.871 120.9L177.69 120.742ZM178.377 118.893L178.143 118.839L178.143 118.839L178.377 118.893ZM181.547 115.982L181.629 115.757L181.629 115.757L181.547 115.982ZM182.823 116.759L182.662 116.937L182.664 116.939L182.823 116.759ZM183.824 118.011L184.033 117.892L184.033 117.892L183.824 118.011ZM184.472 119.625L184.705 119.565L184.704 119.563L184.472 119.625ZM181.223 124.856H180.983C180.983 124.957 181.047 125.047 181.141 125.082L181.223 124.856ZM181.223 122.914L181.294 122.684C181.221 122.662 181.142 122.675 181.081 122.721C181.02 122.766 180.983 122.837 180.983 122.914H181.223ZM182.411 122.886L182.532 123.093L182.535 123.091L182.411 122.886ZM183.029 122.087L183.256 122.166L183.258 122.161L183.029 122.087ZM183.01 119.553L182.781 119.626L182.782 119.627L183.01 119.553ZM195.608 133.32L195.846 133.352C195.859 133.256 195.813 133.162 195.73 133.113C195.646 133.064 195.542 133.07 195.464 133.128L195.608 133.32ZM193.685 134.76L193.541 134.568C193.458 134.63 193.424 134.738 193.457 134.836C193.49 134.934 193.581 135 193.685 135L193.685 134.76ZM193.686 134.76L193.686 135C193.789 135 193.881 134.934 193.914 134.836C193.946 134.738 193.913 134.63 193.83 134.568L193.686 134.76ZM191.763 133.32L191.907 133.128C191.829 133.07 191.725 133.064 191.641 133.113C191.558 133.162 191.512 133.256 191.525 133.352L191.763 133.32ZM193.448 147.512C193.466 147.643 193.587 147.735 193.718 147.718C193.85 147.7 193.942 147.579 193.924 147.448L193.448 147.512ZM193.925 127.8C193.925 127.668 193.817 127.56 193.685 127.56C193.552 127.56 193.445 127.668 193.445 127.8H193.925ZM193.924 159.032C193.942 158.901 193.85 158.78 193.718 158.762C193.587 158.744 193.466 158.836 193.448 158.968L193.924 159.032ZM191.763 173.16L191.525 173.128C191.512 173.224 191.558 173.318 191.641 173.367C191.725 173.416 191.829 173.41 191.907 173.352L191.763 173.16ZM193.686 171.72L193.83 171.912C193.913 171.85 193.946 171.742 193.914 171.644C193.881 171.546 193.789 171.48 193.686 171.48L193.686 171.72ZM193.685 171.72L193.685 171.48C193.581 171.48 193.49 171.546 193.457 171.644C193.424 171.742 193.458 171.85 193.541 171.912L193.685 171.72ZM195.608 173.16L195.464 173.352C195.542 173.41 195.646 173.416 195.73 173.367C195.813 173.318 195.859 173.224 195.846 173.128L195.608 173.16ZM193.445 178.68C193.445 178.813 193.552 178.92 193.685 178.92C193.817 178.92 193.925 178.813 193.925 178.68H193.445ZM179.741 147.72H199.454V147.24H179.741V147.72ZM179.741 159.24H199.454V158.76H179.741V159.24ZM181.767 117.739C181.473 117.632 181.186 117.598 180.911 117.653L181.005 118.124C181.176 118.089 181.373 118.106 181.603 118.19L181.767 117.739ZM180.922 117.651C180.59 117.702 180.333 117.946 180.134 118.283L180.547 118.527C180.714 118.245 180.869 118.145 180.995 118.125L180.922 117.651ZM180.137 118.277C179.923 118.616 179.752 119.15 179.614 119.851L180.085 119.944C180.221 119.255 180.378 118.794 180.543 118.533L180.137 118.277ZM179.615 119.847C179.492 120.419 179.348 120.921 179.183 121.354L179.632 121.525C179.807 121.064 179.958 120.538 180.084 119.948L179.615 119.847ZM179.184 121.353C179.021 121.773 178.829 122.098 178.612 122.338L178.967 122.66C179.234 122.366 179.454 121.985 179.631 121.526L179.184 121.353ZM178.614 122.335C178.403 122.562 178.162 122.7 177.886 122.758L177.985 123.228C178.364 123.148 178.691 122.956 178.965 122.662L178.614 122.335ZM177.886 122.758C177.617 122.815 177.281 122.782 176.869 122.632L176.705 123.083C177.17 123.252 177.6 123.309 177.985 123.228L177.886 122.758ZM176.869 122.632C176.482 122.491 176.112 122.267 175.759 121.954L175.44 122.313C175.833 122.661 176.255 122.919 176.705 123.083L176.869 122.632ZM175.76 121.955C175.406 121.635 175.089 121.25 174.812 120.801L174.404 121.053C174.703 121.538 175.047 121.958 175.438 122.311L175.76 121.955ZM174.813 120.803C174.537 120.349 174.32 119.845 174.162 119.289L173.7 119.421C173.869 120.014 174.103 120.559 174.403 121.052L174.813 120.803ZM174.162 119.289C174.005 118.737 173.926 118.155 173.926 117.543H173.446C173.446 118.197 173.53 118.823 173.7 119.421L174.162 119.289ZM173.926 117.543C173.926 116.661 174.073 115.989 174.346 115.507L173.928 115.27C173.599 115.851 173.446 116.615 173.446 117.543H173.926ZM174.346 115.507C174.622 115.02 174.979 114.721 175.416 114.584L175.272 114.126C174.702 114.305 174.254 114.695 173.928 115.27L174.346 115.507ZM175.418 114.583C175.853 114.443 176.35 114.464 176.921 114.671L177.085 114.22C176.439 113.985 175.83 113.946 175.271 114.126L175.418 114.583ZM176.763 114.446V116.378H177.243V114.446H176.763ZM177.085 116.152C176.745 116.029 176.406 116.015 176.076 116.121L176.222 116.578C176.442 116.507 176.672 116.513 176.921 116.603L177.085 116.152ZM176.084 116.118C175.737 116.216 175.459 116.442 175.25 116.772L175.655 117.029C175.812 116.781 175.999 116.641 176.214 116.581L176.084 116.118ZM175.251 116.769C175.033 117.105 174.937 117.552 174.937 118.085H175.417C175.417 117.601 175.505 117.259 175.653 117.031L175.251 116.769ZM174.937 118.085C174.937 118.644 175.019 119.139 175.19 119.565L175.636 119.386C175.493 119.03 175.417 118.598 175.417 118.085H174.937ZM175.19 119.564C175.349 119.969 175.558 120.309 175.821 120.575L176.163 120.238C175.955 120.027 175.777 119.746 175.636 119.388L175.19 119.564ZM175.824 120.578C176.079 120.829 176.356 121.014 176.656 121.123L176.82 120.672C176.596 120.59 176.376 120.448 176.16 120.236L175.824 120.578ZM176.656 121.123C176.875 121.202 177.087 121.241 177.287 121.225L177.249 120.746C177.135 120.755 176.994 120.735 176.82 120.672L176.656 121.123ZM177.303 121.223C177.52 121.191 177.707 121.075 177.866 120.906L177.514 120.578C177.411 120.689 177.317 120.736 177.233 120.748L177.303 121.223ZM177.871 120.9C178.023 120.725 178.153 120.472 178.268 120.16L177.818 119.993C177.711 120.283 177.606 120.474 177.509 120.584L177.871 120.9ZM178.268 120.16C178.385 119.846 178.499 119.44 178.611 118.946L178.143 118.839C178.033 119.323 177.924 119.706 177.818 119.993L178.268 120.16ZM178.611 118.946C178.805 118.103 179.034 117.45 179.294 116.978L178.874 116.747C178.584 117.272 178.342 117.973 178.143 118.839L178.611 118.946ZM179.294 116.978C179.55 116.513 179.849 116.24 180.178 116.118L180.012 115.668C179.542 115.841 179.167 116.214 178.874 116.747L179.294 116.978ZM180.178 116.118C180.505 115.997 180.927 116.012 181.465 116.208L181.629 115.757C181.029 115.539 180.483 115.494 180.012 115.668L180.178 116.118ZM181.465 116.208C181.899 116.366 182.298 116.608 182.662 116.937L182.984 116.581C182.576 116.212 182.125 115.937 181.629 115.757L181.465 116.208ZM182.664 116.939C183.029 117.262 183.346 117.658 183.616 118.13L184.033 117.892C183.74 117.379 183.39 116.941 182.982 116.58L182.664 116.939ZM183.616 118.129C183.879 118.592 184.088 119.111 184.24 119.686L184.704 119.563C184.542 118.952 184.319 118.395 184.033 117.892L183.616 118.129ZM184.24 119.684C184.385 120.247 184.458 120.849 184.458 121.492H184.938C184.938 120.813 184.861 120.17 184.705 119.565L184.24 119.684ZM184.458 121.492C184.458 122.465 184.294 123.199 183.99 123.716L184.404 123.959C184.768 123.34 184.938 122.51 184.938 121.492H184.458ZM183.99 123.716C183.681 124.243 183.294 124.562 182.831 124.704L182.972 125.163C183.57 124.979 184.046 124.569 184.404 123.959L183.99 123.716ZM182.831 124.704C182.358 124.849 181.852 124.829 181.305 124.63L181.141 125.082C181.773 125.311 182.386 125.342 182.972 125.163L182.831 124.704ZM181.463 124.856V122.914H180.983V124.856H181.463ZM181.153 123.143C181.681 123.305 182.155 123.313 182.532 123.093L182.29 122.678C182.078 122.802 181.761 122.828 181.294 122.684L181.153 123.143ZM182.535 123.091C182.877 122.885 183.116 122.57 183.256 122.166L182.803 122.008C182.694 122.321 182.521 122.539 182.287 122.68L182.535 123.091ZM183.258 122.161C183.384 121.775 183.446 121.371 183.446 120.95H182.966C182.966 121.323 182.911 121.677 182.801 122.013L183.258 122.161ZM183.446 120.95C183.446 120.402 183.378 119.91 183.238 119.478L182.782 119.627C182.903 120 182.966 120.44 182.966 120.95H183.446ZM183.238 119.48C183.1 119.046 182.906 118.676 182.653 118.377L182.287 118.686C182.491 118.929 182.658 119.24 182.781 119.626L183.238 119.48ZM182.653 118.377C182.401 118.078 182.106 117.862 181.767 117.739L181.603 118.19C181.853 118.281 182.081 118.443 182.287 118.686L182.653 118.377ZM193.923 147.512L195.846 133.352L195.37 133.288L193.447 147.448L193.923 147.512ZM195.464 133.128L193.541 134.568L193.829 134.952L195.752 133.512L195.464 133.128ZM193.83 134.568L191.907 133.128L191.619 133.512L193.542 134.952L193.83 134.568ZM191.525 133.352L193.448 147.512L193.924 147.448L192.001 133.288L191.525 133.352ZM193.925 147.48V127.8H193.445V147.48H193.925ZM195.368 133.8H195.608V133.32H195.368V133.8ZM195.127 134.04H195.608V133.56H195.127V134.04ZM194.646 134.28H195.608V133.8H194.646V134.28ZM194.406 134.52H195.608V134.04H194.406V134.52ZM194.166 134.76H195.608V134.28H194.166V134.76ZM193.685 135L195.608 135L195.608 134.52L193.685 134.52L193.685 135ZM193.685 135.24H195.608V134.76H193.685V135.24ZM193.685 135.48H195.368V135H193.685V135.48ZM193.685 135.72H195.368V135.24H193.685V135.72ZM193.685 135.96H195.368V135.48H193.685V135.96ZM193.685 136.2H195.368V135.72H193.685V136.2ZM193.685 136.44H195.368V135.96H193.685V136.44ZM193.685 136.68H195.368V136.2H193.685V136.68ZM193.685 136.92H195.368V136.44H193.685V136.92ZM193.685 137.16H195.127V136.68H193.685V137.16ZM193.685 137.4H195.127V136.92H193.685V137.4ZM193.685 137.64H195.127V137.16H193.685V137.64ZM193.685 137.88H195.127V137.4H193.685V137.88ZM193.685 138.12H195.127V137.64H193.685V138.12ZM193.685 138.36H195.127V137.88H193.685V138.36ZM193.685 138.6H195.127V138.12H193.685V138.6ZM193.685 138.84H195.127V138.36H193.685V138.84ZM193.685 139.08H194.887V138.6H193.685V139.08ZM193.685 139.32H194.887V138.84H193.685V139.32ZM193.685 139.56H194.887V139.08H193.685V139.56ZM193.685 139.8H194.887V139.32H193.685V139.8ZM193.685 140.04H194.887V139.56H193.685V140.04ZM193.685 140.28H194.887V139.8H193.685V140.28ZM193.685 140.52H194.887V140.04H193.685V140.52ZM193.685 140.76H194.646V140.28H193.685V140.76ZM193.685 141H194.646V140.52H193.685V141ZM193.685 141.24H194.646V140.76H193.685V141.24ZM193.685 141.48H194.646V141H193.685V141.48ZM193.685 141.72H194.646V141.24H193.685V141.72ZM193.685 141.96H194.646V141.48H193.685V141.96ZM193.685 142.2H194.646V141.72H193.685V142.2ZM193.685 142.44H194.406V141.96H193.685V142.44ZM193.685 142.68H194.406V142.2H193.685V142.68ZM193.685 142.92H194.406V142.44H193.685V142.92ZM193.685 143.16H194.406V142.68H193.685V143.16ZM193.685 143.4H194.406V142.92H193.685V143.4ZM193.685 143.64H194.406V143.16H193.685V143.64ZM193.685 143.88H194.406V143.4H193.685V143.88ZM193.685 144.12H194.406V143.64H193.685V144.12ZM193.685 144.36H194.166V143.88H193.685V144.36ZM193.685 144.6H194.166V144.12H193.685V144.6ZM193.685 144.84H194.166V144.36H193.685V144.84ZM193.685 145.08H194.166V144.6H193.685V145.08ZM193.685 145.32H194.166V144.84H193.685V145.32ZM193.685 145.56H194.166V145.08H193.685V145.56ZM193.685 145.8H194.166V145.32H193.685V145.8ZM193.685 146.04H193.925V145.56H193.685V146.04ZM193.685 146.28H193.925V145.8H193.685V146.28ZM193.685 146.52H193.925V146.04H193.685V146.52ZM193.685 146.76H193.925V146.28H193.685V146.76ZM193.685 147H193.925V146.52H193.685V147ZM193.685 147.24H193.925V146.76H193.685V147.24ZM193.685 147.48H193.925V147H193.685V147.48ZM192.003 133.8H192.244V133.32H192.003V133.8ZM192.003 134.04H192.484V133.56H192.003V134.04ZM192.003 134.28H192.724V133.8H192.003V134.28ZM192.003 134.52H193.205V134.04H192.003V134.52ZM192.003 134.76H193.446V134.28H192.003V134.76ZM192.003 135L193.686 135L193.686 134.52L192.003 134.52L192.003 135ZM192.003 135.24H193.686V134.76H192.003V135.24ZM192.244 135.48H193.686V135H192.244V135.48ZM192.244 135.72H193.686V135.24H192.244V135.72ZM192.244 135.96H193.686V135.48H192.244V135.96ZM192.244 136.2H193.686V135.72H192.244V136.2ZM192.244 136.44H193.686V135.96H192.244V136.44ZM192.244 136.68H193.686V136.2H192.244V136.68ZM192.244 136.92H193.686V136.44H192.244V136.92ZM192.484 137.16H193.686V136.68H192.484V137.16ZM192.484 137.4H193.686V136.92H192.484V137.4ZM192.484 137.64H193.686V137.16H192.484V137.64ZM192.484 137.88H193.686V137.4H192.484V137.88ZM192.484 138.12H193.686V137.64H192.484V138.12ZM192.484 138.36H193.686V137.88H192.484V138.36ZM192.484 138.6H193.686V138.12H192.484V138.6ZM192.484 138.84H193.686V138.36H192.484V138.84ZM192.724 139.08H193.686V138.6H192.724V139.08ZM192.724 139.32H193.686V138.84H192.724V139.32ZM192.724 139.56H193.686V139.08H192.724V139.56ZM192.724 139.8H193.686V139.32H192.724V139.8ZM192.724 140.04H193.686V139.56H192.724V140.04ZM192.724 140.28H193.686V139.8H192.724V140.28ZM192.724 140.52H193.686V140.04H192.724V140.52ZM192.965 140.76H193.686V140.28H192.965V140.76ZM192.965 141H193.686V140.52H192.965V141ZM192.965 141.24H193.686V140.76H192.965V141.24ZM192.965 141.48H193.686V141H192.965V141.48ZM192.965 141.72H193.686V141.24H192.965V141.72ZM192.965 141.96H193.686V141.48H192.965V141.96ZM192.965 142.2H193.686V141.72H192.965V142.2ZM193.205 142.44H193.686V141.96H193.205V142.44ZM193.205 142.68H193.686V142.2H193.205V142.68ZM193.205 142.92H193.686V142.44H193.205V142.92ZM193.205 143.16H193.686V142.68H193.205V143.16ZM193.205 143.4H193.686V142.92H193.205V143.4ZM193.205 143.64H193.686V143.16H193.205V143.64ZM193.205 143.88H193.686V143.4H193.205V143.88ZM193.205 144.12H193.686V143.64H193.205V144.12ZM193.446 144.36H193.686V143.88H193.446V144.36ZM193.446 144.6H193.686V144.12H193.446V144.6ZM193.446 144.84H193.686V144.36H193.446V144.84ZM193.446 145.08H193.686V144.6H193.446V145.08ZM193.446 145.32H193.686V144.84H193.446V145.32ZM193.446 145.56H193.686V145.08H193.446V145.56ZM193.446 145.8H193.686V145.32H193.446V145.8ZM193.448 158.968L191.525 173.128L192.001 173.192L193.924 159.032L193.448 158.968ZM191.907 173.352L193.83 171.912L193.542 171.528L191.619 172.968L191.907 173.352ZM193.541 171.912L195.464 173.352L195.752 172.968L193.829 171.528L193.541 171.912ZM195.846 173.128L193.923 158.968L193.447 159.032L195.37 173.192L195.846 173.128ZM193.445 159V178.68H193.925V159H193.445ZM193.446 161.16H193.686V160.68H193.446V161.16ZM193.446 161.4H193.686V160.92H193.446V161.4ZM193.446 161.64H193.686V161.16H193.446V161.64ZM193.446 161.88H193.686V161.4H193.446V161.88ZM193.446 162.12H193.686V161.64H193.446V162.12ZM193.446 162.36H193.686V161.88H193.446V162.36ZM193.446 162.6H193.686V162.12H193.446V162.6ZM193.205 162.84H193.686V162.36H193.205V162.84ZM193.205 163.08H193.686V162.6H193.205V163.08ZM193.205 163.32H193.686V162.84H193.205V163.32ZM193.205 163.56H193.686V163.08H193.205V163.56ZM193.205 163.8H193.686V163.32H193.205V163.8ZM193.205 164.04H193.686V163.56H193.205V164.04ZM193.205 164.28H193.686V163.8H193.205V164.28ZM193.205 164.52H193.686V164.04H193.205V164.52ZM192.965 164.76H193.686V164.28H192.965V164.76ZM192.965 165H193.686V164.52H192.965V165ZM192.965 165.24H193.686V164.76H192.965V165.24ZM192.965 165.48H193.686V165H192.965V165.48ZM192.965 165.72H193.686V165.24H192.965V165.72ZM192.965 165.96H193.686V165.48H192.965V165.96ZM192.965 166.2H193.686V165.72H192.965V166.2ZM192.724 166.44H193.686V165.96H192.724V166.44ZM192.724 166.68H193.686V166.2H192.724V166.68ZM192.724 166.92H193.686V166.44H192.724V166.92ZM192.724 167.16H193.686V166.68H192.724V167.16ZM192.724 167.4H193.686V166.92H192.724V167.4ZM192.724 167.64H193.686V167.16H192.724V167.64ZM192.724 167.88H193.686V167.4H192.724V167.88ZM192.484 168.12H193.686V167.64H192.484V168.12ZM192.484 168.36H193.686V167.88H192.484V168.36ZM192.484 168.6H193.686V168.12H192.484V168.6ZM192.484 168.84H193.686V168.36H192.484V168.84ZM192.484 169.08H193.686V168.6H192.484V169.08ZM192.484 169.32H193.686V168.84H192.484V169.32ZM192.484 169.56H193.686V169.08H192.484V169.56ZM192.484 169.8H193.686V169.32H192.484V169.8ZM192.244 170.04H193.686V169.56H192.244V170.04ZM192.244 170.28H193.686V169.8H192.244V170.28ZM192.244 170.52H193.686V170.04H192.244V170.52ZM192.244 170.76H193.686V170.28H192.244V170.76ZM192.244 171H193.686V170.52H192.244V171ZM192.244 171.24H193.686V170.76H192.244V171.24ZM192.244 171.48H193.686V171H192.244V171.48ZM192.003 171.72H193.686V171.24H192.003V171.72ZM192.003 171.96L193.686 171.96L193.686 171.48L192.003 171.48L192.003 171.96ZM192.003 172.2H193.446V171.72H192.003V172.2ZM192.003 172.44H193.205V171.96H192.003V172.44ZM192.003 172.68H192.724V172.2H192.003V172.68ZM192.003 172.92H192.484V172.44H192.003V172.92ZM192.003 173.16H192.244V172.68H192.003V173.16ZM193.685 159.48H193.925V159H193.685V159.48ZM193.685 159.72H193.925V159.24H193.685V159.72ZM193.685 159.96H193.925V159.48H193.685V159.96ZM193.685 160.2H193.925V159.72H193.685V160.2ZM193.685 160.44H193.925V159.96H193.685V160.44ZM193.685 160.68H193.925V160.2H193.685V160.68ZM193.685 160.92H193.925V160.44H193.685V160.92ZM193.685 161.16H194.166V160.68H193.685V161.16ZM193.685 161.4H194.166V160.92H193.685V161.4ZM193.685 161.64H194.166V161.16H193.685V161.64ZM193.685 161.88H194.166V161.4H193.685V161.88ZM193.685 162.12H194.166V161.64H193.685V162.12ZM193.685 162.36H194.166V161.88H193.685V162.36ZM193.685 162.6H194.166V162.12H193.685V162.6ZM193.685 162.84H194.406V162.36H193.685V162.84ZM193.685 163.08H194.406V162.6H193.685V163.08ZM193.685 163.32H194.406V162.84H193.685V163.32ZM193.685 163.56H194.406V163.08H193.685V163.56ZM193.685 163.8H194.406V163.32H193.685V163.8ZM193.685 164.04H194.406V163.56H193.685V164.04ZM193.685 164.28H194.406V163.8H193.685V164.28ZM193.685 164.52H194.406V164.04H193.685V164.52ZM193.685 164.76H194.646V164.28H193.685V164.76ZM193.685 165H194.646V164.52H193.685V165ZM193.685 165.24H194.646V164.76H193.685V165.24ZM193.685 165.48H194.646V165H193.685V165.48ZM193.685 165.72H194.646V165.24H193.685V165.72ZM193.685 165.96H194.646V165.48H193.685V165.96ZM193.685 166.2H194.646V165.72H193.685V166.2ZM193.685 166.44H194.887V165.96H193.685V166.44ZM193.685 166.68H194.887V166.2H193.685V166.68ZM193.685 166.92H194.887V166.44H193.685V166.92ZM193.685 167.16H194.887V166.68H193.685V167.16ZM193.685 167.4H194.887V166.92H193.685V167.4ZM193.685 167.64H194.887V167.16H193.685V167.64ZM193.685 167.88H194.887V167.4H193.685V167.88ZM193.685 168.12H195.127V167.64H193.685V168.12ZM193.685 168.36H195.127V167.88H193.685V168.36ZM193.685 168.6H195.127V168.12H193.685V168.6ZM193.685 168.84H195.127V168.36H193.685V168.84ZM193.685 169.08H195.127V168.6H193.685V169.08ZM193.685 169.32H195.127V168.84H193.685V169.32ZM193.685 169.56H195.127V169.08H193.685V169.56ZM193.685 169.8H195.127V169.32H193.685V169.8ZM193.685 170.04H195.368V169.56H193.685V170.04ZM193.685 170.28H195.368V169.8H193.685V170.28ZM193.685 170.52H195.368V170.04H193.685V170.52ZM193.685 170.76H195.368V170.28H193.685V170.76ZM193.685 171H195.368V170.52H193.685V171ZM193.685 171.24H195.368V170.76H193.685V171.24ZM193.685 171.48H195.368V171H193.685V171.48ZM193.685 171.72H195.608V171.24H193.685V171.72ZM193.685 171.96L195.608 171.96L195.608 171.48L193.685 171.48L193.685 171.96ZM194.166 172.2H195.608V171.72H194.166V172.2ZM194.406 172.44H195.608V171.96H194.406V172.44ZM194.646 172.68H195.608V172.2H194.646V172.68ZM195.127 172.92H195.608V172.44H195.127V172.92ZM195.368 173.16H195.608V172.68H195.368V173.16ZM193.445 147.48V159H193.925V147.48H193.445ZM193.925 147.48V109.08H193.445V147.48H193.925Z" fill="white"/>
    </g>
    <!--    15 S1-->
    <g class="group">
    </g>
    <!--    16 S2-->
    <g class="group">
    </g>
    <!--    17 S3-->
    <g class="group">
    </g>
    <!--    18 S4-->
    <g class="group">
    </g>
    <!--    19 I-->
    <g class="group">
        <path d="M146.819 310.65L141.324 325.72H139.382L144.876 310.65H146.819Z" fill="white"/>
        <path d="M112.429 322.92C112.429 322.787 112.322 322.68 112.189 322.68C112.057 322.68 111.949 322.787 111.949 322.92H112.429ZM111.949 340.44C111.949 340.573 112.057 340.68 112.189 340.68C112.322 340.68 112.429 340.573 112.429 340.44H111.949ZM172.049 322.92C172.049 322.787 171.941 322.68 171.809 322.68C171.676 322.68 171.569 322.787 171.569 322.92H172.049ZM171.569 340.44C171.569 340.573 171.676 340.68 171.809 340.68C171.941 340.68 172.049 340.573 172.049 340.44H171.569ZM146.819 310.65L147.044 310.732C147.071 310.659 147.06 310.576 147.015 310.512C146.97 310.448 146.897 310.41 146.819 310.41V310.65ZM141.324 325.72V325.96C141.425 325.96 141.515 325.897 141.549 325.802L141.324 325.72ZM139.382 325.72L139.156 325.638C139.129 325.711 139.14 325.793 139.185 325.857C139.23 325.922 139.303 325.96 139.382 325.96V325.72ZM144.876 310.65V310.41C144.775 310.41 144.685 310.473 144.651 310.568L144.876 310.65ZM112.189 334.92L112.157 334.682C112.037 334.698 111.948 334.801 111.949 334.922C111.95 335.043 112.041 335.144 112.161 335.158L112.189 334.92ZM126.373 333L126.565 333.144C126.623 333.067 126.629 332.962 126.58 332.879C126.531 332.795 126.437 332.749 126.341 332.762L126.373 333ZM126.374 336.6L126.346 336.838C126.444 336.85 126.539 336.8 126.586 336.713C126.632 336.626 126.621 336.519 126.556 336.444L126.374 336.6ZM171.809 334.92L171.837 335.158C171.957 335.144 172.048 335.043 172.049 334.922C172.05 334.801 171.961 334.698 171.841 334.682L171.809 334.92ZM157.625 336.6L157.443 336.444C157.378 336.519 157.367 336.626 157.413 336.713C157.46 336.8 157.555 336.85 157.653 336.838L157.625 336.6ZM159.067 334.92L159.25 335.076C159.323 334.991 159.327 334.866 159.259 334.776L159.067 334.92ZM157.625 333L157.657 332.762C157.561 332.749 157.467 332.795 157.418 332.879C157.369 332.962 157.375 333.067 157.433 333.144L157.625 333ZM111.949 322.92V340.44H112.429V322.92H111.949ZM171.569 322.92V340.44H172.049V322.92H171.569ZM146.593 310.568L141.099 325.638L141.549 325.802L147.044 310.732L146.593 310.568ZM141.324 325.48H139.382V325.96H141.324V325.48ZM139.607 325.802L145.102 310.732L144.651 310.568L139.156 325.638L139.607 325.802ZM144.876 310.89H146.819V310.41H144.876V310.89ZM112.222 335.158L126.405 333.238L126.341 332.762L112.157 334.682L112.222 335.158ZM126.181 332.856L124.74 334.776L125.124 335.064L126.565 333.144L126.181 332.856ZM124.75 335.076L126.192 336.756L126.556 336.444L125.114 334.764L124.75 335.076ZM126.402 336.362L112.218 334.682L112.161 335.158L126.346 336.838L126.402 336.362ZM124.691 333.48H126.374V333H124.691V333.48ZM123.008 333.72H126.133V333.24H123.008V333.72ZM121.085 333.96H125.893V333.48H121.085V333.96ZM119.402 334.2H125.653V333.72H119.402V334.2ZM117.719 334.44H125.653V333.96H117.719V334.44ZM115.796 334.68H125.412V334.2H115.796V334.68ZM114.113 334.92H125.172V334.44H114.113V334.92ZM112.189 335.16H124.932V334.68H112.189V335.16ZM114.353 335.4H125.171V334.92H114.353V335.4ZM116.276 335.64H125.412V335.16H116.276V335.64ZM118.44 335.88H125.652V335.4H118.44V335.88ZM120.363 336.12H125.892V335.64H120.363V336.12ZM122.527 336.36H126.133V335.88H122.527V336.36ZM124.45 336.6H126.373V336.12H124.45V336.6ZM171.78 334.682L157.597 336.362L157.653 336.838L171.837 335.158L171.78 334.682ZM157.807 336.756L159.25 335.076L158.885 334.764L157.443 336.444L157.807 336.756ZM159.259 334.776L157.817 332.856L157.433 333.144L158.876 335.064L159.259 334.776ZM157.593 333.238L171.776 335.158L171.841 334.682L157.657 332.762L157.593 333.238ZM159.069 335.16H171.81V334.68H159.069V335.16ZM159.069 335.4H169.887V334.92H159.069V335.4ZM158.829 335.64H167.964V335.16H158.829V335.64ZM158.588 335.88H165.8V335.4H158.588V335.88ZM158.348 336.12H163.877V335.64H158.348V336.12ZM158.108 336.36H161.714V335.88H158.108V336.36ZM157.867 336.6H159.79V336.12H157.867V336.6ZM157.867 333.48H159.55V333H157.867V333.48ZM158.108 333.72H161.233V333.24H158.108V333.72ZM158.348 333.96H163.156V333.48H158.348V333.96ZM158.348 334.2H164.839V333.72H158.348V334.2ZM158.588 334.44H166.522V333.96H158.588V334.44ZM158.829 334.68H168.445V334.2H158.829V334.68ZM159.069 334.92H170.128V334.44H159.069V334.92ZM112.189 335.16L171.809 335.16L171.809 334.68L112.189 334.68L112.189 335.16Z" fill="white"/>
    </g>
    <!--    20 I1-->
    <g class="group">
    </g>
    <!--    21 I2-->
    <g class="group">
    </g>
    <!--    22 H-->
    <g class="group">
    </g>
    <!--    23 H1-->
    <g class="group">
    </g>
    <!--    24 H2-->
    <g class="group">
    </g>
    <!--    25 h-->
    <g class="group">
    </g>
    <!--    26 h1-->
    <g class="group">
    </g>
    <!--    27 h2-->
    <g class="group">
    </g>
    <!--    28 R-->
    <g class="group">
    </g>
    <!--    29 Deg-->
    <g class="group">
    </g>
    <!--    29 DN-->
    <g class="group">
    </g>

</svg>
