<svg width="617" height="220" viewBox="0 0 617 220" fill="none" xmlns="http://www.w3.org/2000/svg">
<path d="M54.8864 52.3755H235.686H54.8864Z" stroke="white" stroke-width="2.24" stroke-miterlimit="10" stroke-linecap="round" stroke-linejoin="round"/>
<path d="M54.8864 89.4955H235.686H54.8864Z" stroke="white" stroke-width="2.24" stroke-miterlimit="10" stroke-linecap="round" stroke-linejoin="round"/>
<path d="M314.086 85.0155L305.126 77.0155L314.086 85.0155Z" stroke="white" stroke-width="2.24" stroke-miterlimit="10" stroke-linecap="round" stroke-linejoin="round"/>
<path d="M305.126 77.0156L295.526 69.9756L305.126 77.0156Z" stroke="white" stroke-width="2.24" stroke-miterlimit="10" stroke-linecap="round" stroke-linejoin="round"/>
<path d="M295.526 69.9756L285.286 64.2156L295.526 69.9756Z" stroke="white" stroke-width="2.24" stroke-miterlimit="10" stroke-linecap="round" stroke-linejoin="round"/>
<path d="M285.286 64.2155L274.406 59.4155L285.286 64.2155Z" stroke="white" stroke-width="2.24" stroke-miterlimit="10" stroke-linecap="round" stroke-linejoin="round"/>
<path d="M274.406 59.4155L262.886 55.8955L274.406 59.4155Z" stroke="white" stroke-width="2.24" stroke-miterlimit="10" stroke-linecap="round" stroke-linejoin="round"/>
<path d="M262.886 55.8955L251.046 53.6555L262.886 55.8955Z" stroke="white" stroke-width="2.24" stroke-miterlimit="10" stroke-linecap="round" stroke-linejoin="round"/>
<path d="M251.046 53.6556L239.206 52.6956L251.046 53.6556Z" stroke="white" stroke-width="2.24" stroke-miterlimit="10" stroke-linecap="round" stroke-linejoin="round"/>
<path d="M239.206 52.6955L235.686 52.3755L239.206 52.6955Z" stroke="white" stroke-width="2.24" stroke-miterlimit="10" stroke-linecap="round" stroke-linejoin="round"/>
<path d="M287.846 111.256L280.486 104.856L287.846 111.256Z" stroke="white" stroke-width="2.24" stroke-miterlimit="10" stroke-linecap="round" stroke-linejoin="round"/>
<path d="M280.486 104.856L272.486 99.4155L280.486 104.856Z" stroke="white" stroke-width="2.24" stroke-miterlimit="10" stroke-linecap="round" stroke-linejoin="round"/>
<path d="M272.486 99.4155L263.846 95.2555L272.486 99.4155Z" stroke="white" stroke-width="2.24" stroke-miterlimit="10" stroke-linecap="round" stroke-linejoin="round"/>
<path d="M263.846 95.2555L254.566 92.0555L263.846 95.2555Z" stroke="white" stroke-width="2.24" stroke-miterlimit="10" stroke-linecap="round" stroke-linejoin="round"/>
<path d="M254.566 92.0556L244.966 90.1356L254.566 92.0556Z" stroke="white" stroke-width="2.24" stroke-miterlimit="10" stroke-linecap="round" stroke-linejoin="round"/>
<path d="M244.966 90.1355L235.686 89.4955L244.966 90.1355Z" stroke="white" stroke-width="2.24" stroke-miterlimit="10" stroke-linecap="round" stroke-linejoin="round"/>
<path d="M314.086 85.0155L333.926 104.856L314.086 85.0155Z" stroke="white" stroke-width="2.24" stroke-miterlimit="10" stroke-linecap="round" stroke-linejoin="round"/>
<path d="M287.846 111.255L307.686 131.095L287.846 111.255Z" stroke="white" stroke-width="2.24" stroke-miterlimit="10" stroke-linecap="round" stroke-linejoin="round"/>
<path d="M333.926 104.856L341.286 111.256L333.926 104.856Z" stroke="white" stroke-width="2.24" stroke-miterlimit="10" stroke-linecap="round" stroke-linejoin="round"/>
<path d="M341.286 111.255L349.286 116.695L341.286 111.255Z" stroke="white" stroke-width="2.24" stroke-miterlimit="10" stroke-linecap="round" stroke-linejoin="round"/>
<path d="M349.286 116.696L358.246 120.856L349.286 116.696Z" stroke="white" stroke-width="2.24" stroke-miterlimit="10" stroke-linecap="round" stroke-linejoin="round"/>
<path d="M358.246 120.856L367.206 124.056L358.246 120.856Z" stroke="white" stroke-width="2.24" stroke-miterlimit="10" stroke-linecap="round" stroke-linejoin="round"/>
<path d="M367.206 124.056L376.806 125.976L367.206 124.056Z" stroke="white" stroke-width="2.24" stroke-miterlimit="10" stroke-linecap="round" stroke-linejoin="round"/>
<path d="M376.806 125.976L386.406 126.616L376.806 125.976Z" stroke="white" stroke-width="2.24" stroke-miterlimit="10" stroke-linecap="round" stroke-linejoin="round"/>
<path d="M307.686 131.096L316.646 139.096L307.686 131.096Z" stroke="white" stroke-width="2.24" stroke-miterlimit="10" stroke-linecap="round" stroke-linejoin="round"/>
<path d="M316.646 139.096L326.246 146.136L316.646 139.096Z" stroke="white" stroke-width="2.24" stroke-miterlimit="10" stroke-linecap="round" stroke-linejoin="round"/>
<path d="M326.246 146.136L336.806 151.896L326.246 146.136Z" stroke="white" stroke-width="2.24" stroke-miterlimit="10" stroke-linecap="round" stroke-linejoin="round"/>
<path d="M336.806 151.896L347.686 156.696L336.806 151.896Z" stroke="white" stroke-width="2.24" stroke-miterlimit="10" stroke-linecap="round" stroke-linejoin="round"/>
<path d="M347.686 156.696L358.886 160.216L347.686 156.696Z" stroke="white" stroke-width="2.24" stroke-miterlimit="10" stroke-linecap="round" stroke-linejoin="round"/>
<path d="M358.886 160.216L370.726 162.456L358.886 160.216Z" stroke="white" stroke-width="2.24" stroke-miterlimit="10" stroke-linecap="round" stroke-linejoin="round"/>
<path d="M370.726 162.456L382.566 163.416L370.726 162.456Z" stroke="white" stroke-width="2.24" stroke-miterlimit="10" stroke-linecap="round" stroke-linejoin="round"/>
<path d="M382.566 163.416L386.406 163.736L382.566 163.416Z" stroke="white" stroke-width="2.24" stroke-miterlimit="10" stroke-linecap="round" stroke-linejoin="round"/>
<path d="M386.406 126.616H561.126H386.406Z" stroke="white" stroke-width="2.24" stroke-miterlimit="10" stroke-linecap="round" stroke-linejoin="round"/>
<path d="M386.406 163.735H561.126H386.406Z" stroke="white" stroke-width="2.24" stroke-miterlimit="10" stroke-linecap="round" stroke-linejoin="round"/>
<path d="M54.8864 52.3755V89.4955V52.3755Z" stroke="white" stroke-width="2.24" stroke-miterlimit="10" stroke-linecap="round" stroke-linejoin="round"/>
<path d="M54.8864 56.2156H123.686H54.8864Z" stroke="white" stroke-width="2.24" stroke-miterlimit="10" stroke-linecap="round" stroke-linejoin="round"/>
<path d="M54.8864 85.9756H118.246H54.8864Z" stroke="white" stroke-width="2.24" stroke-miterlimit="10" stroke-linecap="round" stroke-linejoin="round"/>
<path d="M561.126 126.616V163.736V126.616Z" stroke="white" stroke-width="2.24" stroke-miterlimit="10" stroke-linecap="round" stroke-linejoin="round"/>
<path d="M109.606 52.3755L116.326 53.3355L109.606 52.3755Z" stroke="white" stroke-width="0.64" stroke-miterlimit="10" stroke-linecap="round" stroke-linejoin="round"/>
<path d="M116.326 53.3356L122.086 55.5756L116.326 53.3356Z" stroke="white" stroke-width="0.64" stroke-miterlimit="10" stroke-linecap="round" stroke-linejoin="round"/>
<path d="M122.086 55.5756L127.206 58.4556L122.086 55.5756Z" stroke="white" stroke-width="0.64" stroke-miterlimit="10" stroke-linecap="round" stroke-linejoin="round"/>
<path d="M127.206 58.4556L130.406 61.9756L127.206 58.4556Z" stroke="white" stroke-width="0.64" stroke-miterlimit="10" stroke-linecap="round" stroke-linejoin="round"/>
<path d="M130.406 61.9756L132.646 65.8156L130.406 61.9756Z" stroke="white" stroke-width="0.64" stroke-miterlimit="10" stroke-linecap="round" stroke-linejoin="round"/>
<path d="M132.646 65.8156L133.286 69.3356L132.646 65.8156Z" stroke="white" stroke-width="0.64" stroke-miterlimit="10" stroke-linecap="round" stroke-linejoin="round"/>
<path d="M133.286 69.3356L132.966 72.8556L133.286 69.3356Z" stroke="white" stroke-width="0.64" stroke-miterlimit="10" stroke-linecap="round" stroke-linejoin="round"/>
<path d="M132.966 72.8556L131.046 75.7356L132.966 72.8556Z" stroke="white" stroke-width="0.64" stroke-miterlimit="10" stroke-linecap="round" stroke-linejoin="round"/>
<path d="M131.046 75.7355L128.486 78.2955L131.046 75.7355Z" stroke="white" stroke-width="0.64" stroke-miterlimit="10" stroke-linecap="round" stroke-linejoin="round"/>
<path d="M128.486 78.2955L124.966 80.2155L128.486 78.2955Z" stroke="white" stroke-width="0.64" stroke-miterlimit="10" stroke-linecap="round" stroke-linejoin="round"/>
<path d="M124.966 80.2156L119.526 83.7356L124.966 80.2156Z" stroke="white" stroke-width="0.64" stroke-miterlimit="10" stroke-linecap="round" stroke-linejoin="round"/>
<path d="M119.526 83.7355L118.886 84.0555L119.526 83.7355Z" stroke="white" stroke-width="0.64" stroke-miterlimit="10" stroke-linecap="round" stroke-linejoin="round"/>
<path d="M118.886 84.0555V84.3755V84.0555Z" stroke="white" stroke-width="0.64" stroke-miterlimit="10" stroke-linecap="round" stroke-linejoin="round"/>
<path d="M118.886 84.3756L118.566 84.6956L118.886 84.3756Z" stroke="white" stroke-width="0.64" stroke-miterlimit="10" stroke-linecap="round" stroke-linejoin="round"/>
<path d="M118.566 84.6956V85.0156V84.6956Z" stroke="white" stroke-width="0.64" stroke-miterlimit="10" stroke-linecap="round" stroke-linejoin="round"/>
<path d="M118.566 85.0155H118.246H118.566Z" stroke="white" stroke-width="0.64" stroke-miterlimit="10" stroke-linecap="round" stroke-linejoin="round"/>
<path d="M118.246 85.0155V85.3355V85.0155Z" stroke="white" stroke-width="0.64" stroke-miterlimit="10" stroke-linecap="round" stroke-linejoin="round"/>
<path d="M118.246 85.3356V85.6556V85.3356Z" stroke="white" stroke-width="0.64" stroke-miterlimit="10" stroke-linecap="round" stroke-linejoin="round"/>
<path d="M118.246 85.6555V85.9755V85.6555Z" stroke="white" stroke-width="0.64" stroke-miterlimit="10" stroke-linecap="round" stroke-linejoin="round"/>
<path d="M118.246 85.9756V86.2956V85.9756Z" stroke="white" stroke-width="0.64" stroke-miterlimit="10" stroke-linecap="round" stroke-linejoin="round"/>
<path d="M118.246 86.2955V86.6155V86.2955Z" stroke="white" stroke-width="0.64" stroke-miterlimit="10" stroke-linecap="round" stroke-linejoin="round"/>
<path d="M118.246 86.6156H118.566H118.246Z" stroke="white" stroke-width="0.64" stroke-miterlimit="10" stroke-linecap="round" stroke-linejoin="round"/>
<path d="M118.566 86.6156V86.9356V86.6156Z" stroke="white" stroke-width="0.64" stroke-miterlimit="10" stroke-linecap="round" stroke-linejoin="round"/>
<path d="M118.566 86.9355V87.2555V86.9355Z" stroke="white" stroke-width="0.64" stroke-miterlimit="10" stroke-linecap="round" stroke-linejoin="round"/>
<path d="M118.566 87.2555H118.886H118.566Z" stroke="white" stroke-width="0.64" stroke-miterlimit="10" stroke-linecap="round" stroke-linejoin="round"/>
<path d="M118.886 87.2555V87.5755V87.2555Z" stroke="white" stroke-width="0.64" stroke-miterlimit="10" stroke-linecap="round" stroke-linejoin="round"/>
<path d="M118.886 87.5756H119.206H118.886Z" stroke="white" stroke-width="0.64" stroke-miterlimit="10" stroke-linecap="round" stroke-linejoin="round"/>
<path d="M119.206 87.5756V87.8956V87.5756Z" stroke="white" stroke-width="0.64" stroke-miterlimit="10" stroke-linecap="round" stroke-linejoin="round"/>
<path d="M119.206 87.8955L119.526 88.2155L119.206 87.8955Z" stroke="white" stroke-width="0.64" stroke-miterlimit="10" stroke-linecap="round" stroke-linejoin="round"/>
<path d="M119.526 88.2156L120.166 88.5356L119.526 88.2156Z" stroke="white" stroke-width="0.64" stroke-miterlimit="10" stroke-linecap="round" stroke-linejoin="round"/>
<path d="M120.166 88.5355L121.446 89.4955L120.166 88.5355Z" stroke="white" stroke-width="0.64" stroke-miterlimit="10" stroke-linecap="round" stroke-linejoin="round"/>
<path d="M51.3665 70.9355H84.6465H51.3665Z" stroke="white" stroke-width="0.64" stroke-miterlimit="10" stroke-linecap="round" stroke-linejoin="round"/>
<path d="M90.0864 70.9355H95.8464H90.0864Z" stroke="white" stroke-width="0.64" stroke-miterlimit="10" stroke-linecap="round" stroke-linejoin="round"/>
<path d="M101.606 70.9355H134.886H101.606Z" stroke="white" stroke-width="0.64" stroke-miterlimit="10" stroke-linecap="round" stroke-linejoin="round"/>
<path d="M140.646 70.9355H146.086H140.646Z" stroke="white" stroke-width="0.64" stroke-miterlimit="10" stroke-linecap="round" stroke-linejoin="round"/>
<path d="M151.846 70.9355H185.126H151.846Z" stroke="white" stroke-width="0.64" stroke-miterlimit="10" stroke-linecap="round" stroke-linejoin="round"/>
<path d="M190.886 70.9355H196.646H190.886Z" stroke="white" stroke-width="0.64" stroke-miterlimit="10" stroke-linecap="round" stroke-linejoin="round"/>
<path d="M202.086 70.9355H235.686H202.086Z" stroke="white" stroke-width="0.64" stroke-miterlimit="10" stroke-linecap="round" stroke-linejoin="round"/>
<path d="M300.966 98.1355L292.966 90.7755L300.966 98.1355Z" stroke="white" stroke-width="0.64" stroke-miterlimit="10" stroke-linecap="round" stroke-linejoin="round"/>
<path d="M292.966 90.7756L284.006 84.6956L292.966 90.7756Z" stroke="white" stroke-width="0.64" stroke-miterlimit="10" stroke-linecap="round" stroke-linejoin="round"/>
<path d="M284.006 84.6956L278.566 81.8156L284.006 84.6956Z" stroke="white" stroke-width="0.64" stroke-miterlimit="10" stroke-linecap="round" stroke-linejoin="round"/>
<path d="M273.446 79.2555L268.326 77.0155L273.446 79.2555Z" stroke="white" stroke-width="0.64" stroke-miterlimit="10" stroke-linecap="round" stroke-linejoin="round"/>
<path d="M262.886 75.0956L253.606 72.8556L262.886 75.0956Z" stroke="white" stroke-width="0.64" stroke-miterlimit="10" stroke-linecap="round" stroke-linejoin="round"/>
<path d="M253.606 72.8555L243.046 71.2555L253.606 72.8555Z" stroke="white" stroke-width="0.64" stroke-miterlimit="10" stroke-linecap="round" stroke-linejoin="round"/>
<path d="M243.046 71.2555L235.686 70.9355L243.046 71.2555Z" stroke="white" stroke-width="0.64" stroke-miterlimit="10" stroke-linecap="round" stroke-linejoin="round"/>
<path d="M320.806 117.976L329.126 125.336L320.806 117.976Z" stroke="white" stroke-width="0.64" stroke-miterlimit="10" stroke-linecap="round" stroke-linejoin="round"/>
<path d="M329.126 125.336L337.766 131.416L329.126 125.336Z" stroke="white" stroke-width="0.64" stroke-miterlimit="10" stroke-linecap="round" stroke-linejoin="round"/>
<path d="M337.766 131.416L343.206 134.296L337.766 131.416Z" stroke="white" stroke-width="0.64" stroke-miterlimit="10" stroke-linecap="round" stroke-linejoin="round"/>
<path d="M348.326 136.856L353.766 139.096L348.326 136.856Z" stroke="white" stroke-width="0.64" stroke-miterlimit="10" stroke-linecap="round" stroke-linejoin="round"/>
<path d="M358.886 141.016L368.166 143.256L358.886 141.016Z" stroke="white" stroke-width="0.64" stroke-miterlimit="10" stroke-linecap="round" stroke-linejoin="round"/>
<path d="M368.166 143.255L379.046 144.855L368.166 143.255Z" stroke="white" stroke-width="0.64" stroke-miterlimit="10" stroke-linecap="round" stroke-linejoin="round"/>
<path d="M379.046 144.856L386.406 145.176L379.046 144.856Z" stroke="white" stroke-width="0.64" stroke-miterlimit="10" stroke-linecap="round" stroke-linejoin="round"/>
<path d="M386.406 145.176H419.686H386.406Z" stroke="white" stroke-width="0.64" stroke-miterlimit="10" stroke-linecap="round" stroke-linejoin="round"/>
<path d="M425.446 145.176H430.886H425.446Z" stroke="white" stroke-width="0.64" stroke-miterlimit="10" stroke-linecap="round" stroke-linejoin="round"/>
<path d="M436.646 145.176H469.926H436.646Z" stroke="white" stroke-width="0.64" stroke-miterlimit="10" stroke-linecap="round" stroke-linejoin="round"/>
<path d="M475.686 145.176H481.446H475.686Z" stroke="white" stroke-width="0.64" stroke-miterlimit="10" stroke-linecap="round" stroke-linejoin="round"/>
<path d="M486.886 145.176H520.166H486.886Z" stroke="white" stroke-width="0.64" stroke-miterlimit="10" stroke-linecap="round" stroke-linejoin="round"/>
<path d="M525.926 145.176H531.686H525.926Z" stroke="white" stroke-width="0.64" stroke-miterlimit="10" stroke-linecap="round" stroke-linejoin="round"/>
<path d="M537.446 145.176H570.726H537.446Z" stroke="white" stroke-width="0.64" stroke-miterlimit="10" stroke-linecap="round" stroke-linejoin="round"/>
<path d="M300.966 98.1356L320.806 117.976L300.966 98.1356Z" stroke="white" stroke-width="0.64" stroke-miterlimit="10" stroke-linecap="round" stroke-linejoin="round"/>
<path d="M115.046 89.4955L118.246 86.2955L115.046 89.4955Z" stroke="white" stroke-width="0.64" stroke-miterlimit="10" stroke-linecap="round" stroke-linejoin="round"/>
<path d="M99.0464 89.4956L102.886 85.9756L99.0464 89.4956Z" stroke="white" stroke-width="0.64" stroke-miterlimit="10" stroke-linecap="round" stroke-linejoin="round"/>
<path d="M83.0464 89.4956L86.8864 85.9756L83.0464 89.4956Z" stroke="white" stroke-width="0.64" stroke-miterlimit="10" stroke-linecap="round" stroke-linejoin="round"/>
<path d="M116.326 56.2156L117.926 54.6156L116.326 56.2156Z" stroke="white" stroke-width="0.64" stroke-miterlimit="10" stroke-linecap="round" stroke-linejoin="round"/>
<path d="M100.326 56.2155L104.166 52.3755L100.326 56.2155Z" stroke="white" stroke-width="0.64" stroke-miterlimit="10" stroke-linecap="round" stroke-linejoin="round"/>
<path d="M67.0464 89.4956L70.5664 85.9756L67.0464 89.4956Z" stroke="white" stroke-width="0.64" stroke-miterlimit="10" stroke-linecap="round" stroke-linejoin="round"/>
<path d="M84.3264 56.2155L88.1664 52.3755L84.3264 56.2155Z" stroke="white" stroke-width="0.64" stroke-miterlimit="10" stroke-linecap="round" stroke-linejoin="round"/>
<path d="M68.3264 56.2155L71.8464 52.3755L68.3264 56.2155Z" stroke="white" stroke-width="0.64" stroke-miterlimit="10" stroke-linecap="round" stroke-linejoin="round"/>
<path d="M54.8864 53.3355L55.8464 52.3755L54.8864 53.3355Z" stroke="white" stroke-width="0.64" stroke-miterlimit="10" stroke-linecap="round" stroke-linejoin="round"/>

    <!--    1 A-->
    <g class="group">
    </g>
    <!--    2 D-->
    <g class="group">
    </g>
    <!--    3 Dy-->
    <g class="group">
    </g>
    <!--    4 Dh-->
    <g class="group">
    </g>
    <!--    5 D1-->
    <g class="group">
    </g>
    <!--   6 D2-->
    <g class="group">
    </g>
    <!--   7 d-->
    <g class="group">
        <path d="M598.398 145.427C598.398 146.768 598.079 147.837 597.442 148.632C596.799 149.426 595.892 149.899 594.724 150.054C593.548 150.206 592.159 149.991 590.557 149.407C588.967 148.829 587.588 148.037 586.419 147.031C585.25 146.026 584.348 144.89 583.71 143.624C583.073 142.357 582.755 141.046 582.755 139.691C582.755 138.642 582.919 137.874 583.248 137.385C583.569 136.888 583.937 136.553 584.351 136.382C584.758 136.202 585.093 136.069 585.356 135.983V135.773L577.908 133.062V130.588L598.083 137.932V140.322L595.758 139.476V139.769C596.034 140.051 596.382 140.437 596.802 140.925C597.216 141.411 597.587 142.025 597.915 142.766C598.237 143.506 598.398 144.392 598.398 145.427ZM596.309 144.331C596.309 143.339 596.067 142.411 595.581 141.55C595.088 140.686 594.408 139.917 593.541 139.246C592.668 138.571 591.66 138.026 590.517 137.61C589.388 137.199 588.399 137.014 587.552 137.055C586.699 137.094 586.035 137.369 585.562 137.882C585.083 138.393 584.843 139.151 584.843 140.157C584.843 141.206 585.096 142.171 585.602 143.054C586.101 143.928 586.781 144.696 587.641 145.358C588.495 146.011 589.453 146.532 590.517 146.919C591.594 147.311 592.573 147.492 593.453 147.463C594.326 147.425 595.022 147.154 595.541 146.651C596.053 146.139 596.309 145.365 596.309 144.331Z" fill="white"/>
        <path d="M572.326 126.296C572.15 126.296 572.006 126.439 572.006 126.616C572.006 126.792 572.15 126.936 572.326 126.936V126.296ZM615.526 126.936C615.703 126.936 615.846 126.792 615.846 126.616C615.846 126.439 615.703 126.296 615.526 126.296V126.936ZM572.326 163.415C572.15 163.415 572.006 163.559 572.006 163.735C572.006 163.912 572.15 164.055 572.326 164.055V163.415ZM615.526 164.055C615.703 164.055 615.846 163.912 615.846 163.735C615.846 163.559 615.703 163.415 615.526 163.415V164.055ZM597.442 148.632L597.691 148.834L597.692 148.832L597.442 148.632ZM594.724 150.054L594.765 150.371L594.765 150.371L594.724 150.054ZM590.557 149.407L590.666 149.107L590.557 149.407ZM586.419 147.031L586.211 147.274L586.211 147.274L586.419 147.031ZM583.71 143.624L583.425 143.767L583.425 143.767L583.71 143.624ZM583.248 137.385L583.513 137.564L583.516 137.559L583.248 137.385ZM584.351 136.382L584.473 136.678L584.48 136.675L584.351 136.382ZM585.356 135.983L585.455 136.287C585.587 136.244 585.676 136.121 585.676 135.983H585.356ZM585.356 135.773H585.676C585.676 135.639 585.591 135.518 585.465 135.472L585.356 135.773ZM577.908 133.062H577.588C577.588 133.197 577.673 133.317 577.799 133.363L577.908 133.062ZM577.908 130.588L578.018 130.288C577.92 130.252 577.81 130.266 577.725 130.326C577.639 130.386 577.588 130.484 577.588 130.588H577.908ZM598.083 137.932H598.403C598.403 137.797 598.318 137.677 598.192 137.631L598.083 137.932ZM598.083 140.322L597.973 140.623C598.071 140.658 598.181 140.644 598.266 140.584C598.352 140.524 598.403 140.426 598.403 140.322H598.083ZM595.758 139.476L595.867 139.175C595.769 139.139 595.66 139.154 595.574 139.214C595.489 139.273 595.438 139.371 595.438 139.476H595.758ZM595.758 139.769H595.438C595.438 139.853 595.471 139.933 595.529 139.993L595.758 139.769ZM596.802 140.925L597.046 140.718L597.045 140.716L596.802 140.925ZM597.915 142.766L598.209 142.639L598.208 142.637L597.915 142.766ZM595.581 141.55L595.859 141.393L595.859 141.391L595.581 141.55ZM593.541 139.246L593.738 138.993L593.737 138.992L593.541 139.246ZM590.517 137.61L590.408 137.911L590.408 137.911L590.517 137.61ZM587.552 137.055L587.567 137.375L587.568 137.375L587.552 137.055ZM585.562 137.882L585.796 138.101L585.798 138.099L585.562 137.882ZM585.602 143.054L585.88 142.895L585.88 142.895L585.602 143.054ZM587.641 145.358L587.446 145.612L587.446 145.612L587.641 145.358ZM590.517 146.919L590.627 146.618L590.517 146.919ZM593.453 147.463L593.463 147.783L593.467 147.783L593.453 147.463ZM595.541 146.651L595.764 146.881L595.767 146.877L595.541 146.651ZM610.406 107.735L610.724 107.773C610.74 107.642 610.673 107.515 610.557 107.453C610.441 107.391 610.298 107.407 610.198 107.493L610.406 107.735ZM605.606 107.735L605.798 107.479C605.695 107.402 605.556 107.394 605.444 107.46C605.333 107.525 605.272 107.651 605.289 107.778L605.606 107.735ZM608.486 100.056C608.486 99.8788 608.343 99.7355 608.166 99.7355C607.99 99.7355 607.846 99.8788 607.846 100.056H608.486ZM605.606 182.615L605.289 182.572C605.272 182.7 605.333 182.826 605.444 182.891C605.556 182.957 605.695 182.949 605.798 182.871L605.606 182.615ZM610.406 182.616L610.198 182.859C610.298 182.944 610.441 182.96 610.557 182.898C610.673 182.836 610.74 182.709 610.724 182.578L610.406 182.616ZM607.846 189.975C607.846 190.152 607.99 190.295 608.166 190.295C608.343 190.295 608.486 190.152 608.486 189.975L607.846 189.975ZM572.326 126.936H615.526V126.296H572.326V126.936ZM572.326 164.055H615.526V163.415H572.326V164.055ZM598.078 145.427C598.078 146.719 597.771 147.71 597.193 148.432L597.692 148.832C598.387 147.965 598.718 146.818 598.718 145.427H598.078ZM597.194 148.431C596.61 149.151 595.783 149.591 594.682 149.737L594.765 150.371C596.002 150.208 596.988 149.7 597.691 148.834L597.194 148.431ZM594.682 149.737C593.575 149.88 592.24 149.679 590.666 149.107L590.447 149.708C592.078 150.302 593.521 150.532 594.765 150.371L594.682 149.737ZM590.666 149.107C589.11 148.54 587.765 147.767 586.628 146.789L586.211 147.274C587.412 148.307 588.825 149.118 590.447 149.708L590.666 149.107ZM586.628 146.789C585.488 145.808 584.613 144.705 583.996 143.48L583.425 143.767C584.082 145.074 585.013 146.243 586.211 147.274L586.628 146.789ZM583.996 143.48C583.381 142.256 583.075 140.994 583.075 139.691H582.435C582.435 141.099 582.766 142.459 583.425 143.767L583.996 143.48ZM583.075 139.691C583.075 138.663 583.238 137.973 583.513 137.564L582.982 137.207C582.6 137.775 582.435 138.622 582.435 139.691H583.075ZM583.516 137.559C583.814 137.098 584.136 136.817 584.473 136.678L584.229 136.087C583.738 136.289 583.325 136.677 582.979 137.212L583.516 137.559ZM584.48 136.675C584.883 136.497 585.207 136.368 585.455 136.287L585.256 135.679C584.979 135.769 584.633 135.907 584.221 136.09L584.48 136.675ZM585.676 135.983V135.773H585.036V135.983H585.676ZM585.465 135.472L578.018 132.762L577.799 133.363L585.246 136.074L585.465 135.472ZM578.228 133.062V130.588H577.588V133.062H578.228ZM577.799 130.889L597.973 138.233L598.192 137.631L578.018 130.288L577.799 130.889ZM597.763 137.932V140.322H598.403V137.932H597.763ZM598.192 140.021L595.867 139.175L595.648 139.776L597.973 140.623L598.192 140.021ZM595.438 139.476V139.769H596.078V139.476H595.438ZM595.529 139.993C595.798 140.268 596.141 140.648 596.559 141.134L597.045 140.716C596.622 140.226 596.269 139.835 595.987 139.546L595.529 139.993ZM596.558 141.132C596.948 141.59 597.303 142.175 597.623 142.896L598.208 142.637C597.87 141.874 597.484 141.232 597.046 140.718L596.558 141.132ZM597.622 142.894C597.922 143.583 598.078 144.424 598.078 145.427H598.718C598.718 144.36 598.552 143.428 598.209 142.639L597.622 142.894ZM596.629 144.331C596.629 143.284 596.372 142.302 595.859 141.393L595.302 141.707C595.761 142.521 595.989 143.393 595.989 144.331H596.629ZM595.859 141.391C595.343 140.487 594.634 139.688 593.738 138.993L593.345 139.498C594.182 140.147 594.833 140.884 595.303 141.708L595.859 141.391ZM593.737 138.992C592.835 138.296 591.797 137.735 590.627 137.309L590.408 137.911C591.523 138.317 592.501 138.847 593.346 139.499L593.737 138.992ZM590.627 137.309C589.473 136.889 588.44 136.692 587.537 136.735L587.568 137.375C588.359 137.336 589.303 137.509 590.408 137.911L590.627 137.309ZM587.538 136.735C586.62 136.777 585.87 137.077 585.327 137.665L585.798 138.099C586.201 137.662 586.777 137.41 587.567 137.375L587.538 136.735ZM585.329 137.663C584.774 138.254 584.523 139.105 584.523 140.157H585.163C585.163 139.197 585.392 138.531 585.796 138.101L585.329 137.663ZM584.523 140.157C584.523 141.26 584.79 142.28 585.324 143.213L585.88 142.895C585.402 142.062 585.163 141.152 585.163 140.157H584.523ZM585.324 143.213C585.846 144.126 586.555 144.925 587.446 145.612L587.836 145.105C587.007 144.466 586.356 143.729 585.88 142.895L585.324 143.213ZM587.446 145.612C588.327 146.286 589.315 146.822 590.408 147.22L590.627 146.618C589.592 146.242 588.662 145.737 587.835 145.104L587.446 145.612ZM590.408 147.22C591.512 147.622 592.532 147.814 593.463 147.783L593.442 147.143C592.613 147.171 591.676 147 590.627 146.618L590.408 147.22ZM593.467 147.783C594.401 147.742 595.178 147.449 595.764 146.881L595.318 146.421C594.867 146.859 594.251 147.108 593.439 147.144L593.467 147.783ZM595.767 146.877C596.361 146.283 596.629 145.414 596.629 144.331H595.989C595.989 145.317 595.745 145.994 595.315 146.425L595.767 146.877ZM608.484 126.653L610.724 107.773L610.089 107.698L607.849 126.578L608.484 126.653ZM610.198 107.493L607.958 109.413L608.375 109.898L610.615 107.978L610.198 107.493ZM608.358 109.399L605.798 107.479L605.414 107.991L607.974 109.911L608.358 109.399ZM605.289 107.778L607.849 126.658L608.483 126.572L605.924 107.692L605.289 107.778ZM608.486 126.615V100.056H607.846V126.615H608.486ZM610.086 108.376H610.406V107.736H610.086V108.376ZM609.766 108.696H610.406V108.056H609.766V108.696ZM609.446 109.016H610.406V108.376H609.446V109.016ZM609.126 109.336H610.406V108.696H609.126V109.336ZM608.806 109.656H610.406V109.016H608.806V109.656ZM608.166 109.975L610.406 109.976L610.406 109.336L608.166 109.335L608.166 109.975ZM608.166 124.696H608.486V124.056H608.166V124.696ZM608.166 125.016H608.486V124.376H608.166V125.016ZM608.166 125.336H608.486V124.696H608.166V125.336ZM608.166 125.656H608.486V125.016H608.166V125.656ZM608.166 125.976H608.486V125.336H608.166V125.976ZM608.166 126.296H608.486V125.656H608.166V126.296ZM608.166 126.616H608.486V125.976H608.166V126.616ZM605.926 108.376H606.246V107.736H605.926V108.376ZM605.926 108.696H606.566V108.056H605.926V108.696ZM605.926 109.016H606.886V108.376H605.926V109.016ZM605.926 109.336H607.526V108.696H605.926V109.336ZM605.926 109.656H607.846V109.016H605.926V109.656ZM605.926 109.976L608.166 109.975L608.166 109.335L605.926 109.336L605.926 109.976ZM607.849 163.692L605.289 182.572L605.924 182.658L608.484 163.778L607.849 163.692ZM605.798 182.871L608.358 180.952L607.974 180.44L605.414 182.359L605.798 182.871ZM607.958 180.939L610.198 182.859L610.615 182.373L608.375 180.453L607.958 180.939ZM610.724 182.578L608.484 163.698L607.849 163.773L610.089 182.653L610.724 182.578ZM607.846 163.735L607.846 189.975L608.486 189.975L608.486 163.735L607.846 163.735ZM605.926 181.016L608.166 181.016L608.166 180.376L605.926 180.376L605.926 181.016ZM605.926 181.336H607.846V180.696H605.926V181.336ZM605.926 181.656H607.526V181.016H605.926V181.656ZM605.926 181.976H606.886V181.336H605.926V181.976ZM605.926 182.296H606.566V181.656H605.926V182.296ZM605.926 182.616H606.246V181.976H605.926V182.616ZM608.166 164.376H608.486V163.736H608.166V164.376ZM608.166 164.696H608.486V164.056H608.166V164.696ZM608.166 165.016H608.486V164.376H608.166V165.016ZM608.166 165.336H608.486V164.696H608.166V165.336ZM608.166 165.656H608.486V165.016H608.166V165.656ZM608.166 165.976H608.486V165.336H608.166V165.976ZM608.166 166.296H608.486V165.656H608.166V166.296ZM608.166 181.016L610.406 181.016L610.406 180.376L608.166 180.376L608.166 181.016ZM608.806 181.336H610.406V180.696H608.806V181.336ZM609.126 181.656H610.406V181.016H609.126V181.656ZM609.446 181.976H610.406V181.336H609.446V181.976ZM609.766 182.296H610.406V181.656H609.766V182.296ZM610.086 182.616H610.406V181.976H610.086V182.616ZM607.846 126.615L607.846 163.735L608.486 163.735L608.486 126.615L607.846 126.615ZM605.926 110.296H610.406V109.656H605.926V110.296ZM606.246 110.616H610.406V109.976H606.246V110.616ZM606.246 110.936H610.086V110.296H606.246V110.936ZM606.246 111.256H610.086V110.616H606.246V111.256ZM606.246 111.576H610.086V110.936H606.246V111.576ZM606.246 111.896H610.086V111.256H606.246V111.896ZM606.246 112.216H610.086V111.576H606.246V112.216ZM606.246 112.536H610.086V111.896H606.246V112.536ZM606.566 112.856H610.086V112.216H606.566V112.856ZM606.566 113.176H610.086V112.536H606.566V113.176ZM606.566 113.496H609.766V112.856H606.566V113.496ZM606.566 113.816H609.766V113.176H606.566V113.816ZM606.566 114.136H609.766V113.496H606.566V114.136ZM606.566 114.456H609.766V113.816H606.566V114.456ZM606.566 114.776H609.766V114.136H606.566V114.776ZM606.566 115.096H609.766V114.456H606.566V115.096ZM606.886 115.416H609.766V114.776H606.886V115.416ZM606.886 115.736H609.766V115.096H606.886V115.736ZM606.886 116.056H609.766V115.416H606.886V116.056ZM606.886 116.376H609.446V115.736H606.886V116.376ZM606.886 116.696H609.446V116.056H606.886V116.696ZM606.886 117.016H609.446V116.376H606.886V117.016ZM606.886 117.336H609.446V116.696H606.886V117.336ZM607.206 117.656H609.446V117.016H607.206V117.656ZM607.206 117.976H609.446V117.336H607.206V117.976ZM607.206 118.296H609.446V117.656H607.206V118.296ZM607.206 118.616H609.446V117.976H607.206V118.616ZM607.206 118.936H609.126V118.296H607.206V118.936ZM607.206 119.256H609.126V118.616H607.206V119.256ZM607.206 119.576H609.126V118.936H607.206V119.576ZM607.526 119.896H609.126V119.256H607.526V119.896ZM607.526 120.216H609.126V119.576H607.526V120.216ZM607.526 120.536H609.126V119.896H607.526V120.536ZM607.526 120.856H609.126V120.216H607.526V120.856ZM607.526 121.176H609.126V120.536H607.526V121.176ZM607.526 121.496H609.126V120.856H607.526V121.496ZM607.526 121.816H608.806V121.176H607.526V121.816ZM607.526 122.136H608.806V121.496H607.526V122.136ZM607.846 122.456H608.806V121.816H607.846V122.456ZM607.846 122.776H608.806V122.136H607.846V122.776ZM607.846 123.096H608.806V122.456H607.846V123.096ZM607.846 123.416H608.806V122.776H607.846V123.416ZM607.846 123.736H608.806V123.096H607.846V123.736ZM607.846 124.056H608.806V123.416H607.846V124.056ZM607.846 124.376H608.486V123.736H607.846V124.376ZM607.846 166.616L608.486 166.616L608.486 165.976L607.846 165.976L607.846 166.616ZM607.846 166.936L608.806 166.936L608.806 166.296L607.846 166.296L607.846 166.936ZM607.846 167.256L608.806 167.256L608.806 166.616L607.846 166.616L607.846 167.256ZM607.846 167.576L608.806 167.576L608.806 166.936L607.846 166.936L607.846 167.576ZM607.846 167.896L608.806 167.896L608.806 167.256L607.846 167.256L607.846 167.896ZM607.846 168.216L608.806 168.216L608.806 167.576L607.846 167.576L607.846 168.216ZM607.846 168.536L608.806 168.536L608.806 167.896L607.846 167.896L607.846 168.536ZM607.526 168.856L608.806 168.856L608.806 168.216L607.526 168.216L607.526 168.856ZM607.526 169.176L608.806 169.176L608.806 168.536L607.526 168.536L607.526 169.176ZM607.526 169.496L609.126 169.496L609.126 168.856L607.526 168.856L607.526 169.496ZM607.526 169.816L609.126 169.816L609.126 169.176L607.526 169.176L607.526 169.816ZM607.526 170.136L609.126 170.136L609.126 169.496L607.526 169.496L607.526 170.136ZM607.526 170.456L609.126 170.456L609.126 169.816L607.526 169.816L607.526 170.456ZM607.526 170.776L609.126 170.776L609.126 170.136L607.526 170.136L607.526 170.776ZM607.526 171.096L609.126 171.096L609.126 170.456L607.526 170.456L607.526 171.096ZM607.206 171.416L609.126 171.416L609.126 170.776L607.206 170.776L607.206 171.416ZM607.206 171.736L609.126 171.736L609.126 171.096L607.206 171.096L607.206 171.736ZM607.206 172.056L609.126 172.056L609.126 171.416L607.206 171.416L607.206 172.056ZM607.206 172.376L609.446 172.376L609.446 171.736L607.206 171.736L607.206 172.376ZM607.206 172.696L609.446 172.696L609.446 172.056L607.206 172.056L607.206 172.696ZM607.206 173.016L609.446 173.016L609.446 172.376L607.206 172.376L607.206 173.016ZM607.206 173.336L609.446 173.336L609.446 172.696L607.206 172.696L607.206 173.336ZM606.886 173.656L609.446 173.656L609.446 173.016L606.886 173.016L606.886 173.656ZM606.886 173.976L609.446 173.976L609.446 173.336L606.886 173.336L606.886 173.976ZM606.886 174.296L609.446 174.296L609.446 173.656L606.886 173.656L606.886 174.296ZM606.886 174.616L609.446 174.616L609.446 173.976L606.886 173.976L606.886 174.616ZM606.886 174.936L609.766 174.936L609.766 174.296L606.886 174.296L606.886 174.936ZM606.886 175.256L609.766 175.256L609.766 174.616L606.886 174.616L606.886 175.256ZM606.886 175.576L609.766 175.576L609.766 174.936L606.886 174.936L606.886 175.576ZM606.566 175.896L609.766 175.896L609.766 175.256L606.566 175.256L606.566 175.896ZM606.566 176.216L609.766 176.216L609.766 175.576L606.566 175.576L606.566 176.216ZM606.566 176.536L609.766 176.536L609.766 175.896L606.566 175.896L606.566 176.536ZM606.566 176.856L609.766 176.856L609.766 176.216L606.566 176.216L606.566 176.856ZM606.566 177.176L609.766 177.176L609.766 176.536L606.566 176.536L606.566 177.176ZM606.566 177.496L609.766 177.496L609.766 176.856L606.566 176.856L606.566 177.496ZM606.566 177.816L610.086 177.816L610.086 177.176L606.566 177.176L606.566 177.816ZM606.566 178.136L610.086 178.136L610.086 177.496L606.566 177.496L606.566 178.136ZM606.246 178.456L610.086 178.456L610.086 177.816L606.246 177.816L606.246 178.456ZM606.246 178.776L610.086 178.776L610.086 178.136L606.246 178.136L606.246 178.776ZM606.246 179.096L610.086 179.096L610.086 178.456L606.246 178.456L606.246 179.096ZM606.246 179.416L610.086 179.416L610.086 178.776L606.246 178.776L606.246 179.416ZM606.246 179.736L610.086 179.736L610.086 179.096L606.246 179.096L606.246 179.736ZM606.246 180.056L610.086 180.056L610.086 179.416L606.246 179.416L606.246 180.056ZM606.246 180.376L610.406 180.376L610.406 179.736L606.246 179.736L606.246 180.376ZM605.926 180.696L610.406 180.696L610.406 180.056L605.926 180.056L605.926 180.696Z" fill="white"/>
    </g>
    <!--    8 dH-->
    <g class="group">
    </g>
    <!--    9 d1-->
    <g class="group">
    </g>
    <!--    10 d2-->
    <g class="group">
    </g>
    <!--    11 L-->
    <g class="group">
        <path d="M139.826 121.112L147.169 100.938H149.769L143.214 118.945H153.194L152.405 121.112H139.826Z" fill="white"/>
        <path d="M236.006 103.255C236.006 103.079 235.863 102.935 235.686 102.935C235.51 102.935 235.366 103.079 235.366 103.255H236.006ZM235.366 138.775C235.366 138.952 235.51 139.095 235.686 139.095C235.863 139.095 236.006 138.952 236.006 138.775H235.366ZM55.2064 103.255C55.2064 103.079 55.0631 102.935 54.8864 102.935C54.7096 102.935 54.5664 103.079 54.5664 103.255H55.2064ZM54.5664 138.775C54.5664 138.952 54.7096 139.095 54.8864 139.095C55.0631 139.095 55.2064 138.952 55.2064 138.775H54.5664ZM139.826 121.112L139.525 121.003C139.489 121.101 139.504 121.21 139.564 121.296C139.624 121.381 139.721 121.432 139.826 121.432V121.112ZM147.169 100.938V100.618C147.035 100.618 146.915 100.702 146.869 100.828L147.169 100.938ZM149.769 100.938L150.07 101.047C150.105 100.949 150.091 100.84 150.031 100.754C149.971 100.669 149.873 100.618 149.769 100.618V100.938ZM143.214 118.945L142.914 118.835C142.878 118.934 142.892 119.043 142.952 119.128C143.012 119.214 143.11 119.265 143.214 119.265V118.945ZM153.194 118.945L153.495 119.054C153.531 118.956 153.516 118.847 153.456 118.761C153.396 118.676 153.299 118.625 153.194 118.625V118.945ZM152.405 121.112V121.432C152.54 121.432 152.66 121.348 152.706 121.221L152.405 121.112ZM235.686 131.096L235.729 131.413C235.888 131.392 236.006 131.256 236.006 131.096C236.006 130.935 235.888 130.8 235.729 130.778L235.686 131.096ZM216.486 133.656L216.23 133.464C216.153 133.567 216.145 133.706 216.21 133.817C216.275 133.929 216.401 133.99 216.529 133.973L216.486 133.656ZM216.486 128.536L216.529 128.218C216.401 128.201 216.275 128.263 216.21 128.374C216.145 128.485 216.153 128.624 216.23 128.728L216.486 128.536ZM54.8864 131.096L54.8434 130.778C54.6847 130.8 54.5664 130.935 54.5664 131.096C54.5664 131.256 54.6847 131.391 54.8434 131.413L54.8864 131.096ZM73.7664 128.536L74.0377 128.705C74.1035 128.6 74.1025 128.466 74.0352 128.362C73.9678 128.258 73.8463 128.202 73.7234 128.218L73.7664 128.536ZM73.7664 133.656L73.7234 133.973C73.8463 133.989 73.9679 133.933 74.0352 133.829C74.1025 133.725 74.1035 133.591 74.0377 133.486L73.7664 133.656ZM235.366 103.255V138.775H236.006V103.255H235.366ZM54.5664 103.255V138.775H55.2064V103.255H54.5664ZM140.127 121.221L147.47 101.047L146.869 100.828L139.525 121.003L140.127 121.221ZM147.169 101.258H149.769V100.618H147.169V101.258ZM149.468 100.828L142.914 118.835L143.515 119.054L150.07 101.047L149.468 100.828ZM143.214 119.265H153.194V118.625H143.214V119.265ZM152.894 118.835L152.105 121.003L152.706 121.221L153.495 119.054L152.894 118.835ZM152.405 120.792H139.826V121.432H152.405V120.792ZM235.644 130.778L216.444 133.338L216.529 133.973L235.729 131.413L235.644 130.778ZM216.742 133.848L218.662 131.288L218.15 130.904L216.23 133.464L216.742 133.848ZM218.662 130.904L216.742 128.344L216.23 128.728L218.15 131.288L218.662 130.904ZM216.444 128.853L235.644 131.413L235.729 130.778L216.529 128.218L216.444 128.853ZM218.406 131.416H235.686V130.776H218.406V131.416ZM218.406 131.736H233.446V131.096H218.406V131.736ZM218.086 132.056H230.886V131.416H218.086V132.056ZM217.766 132.376H228.646V131.736H217.766V132.376ZM217.446 132.696H226.086V132.056H217.446V132.696ZM217.446 133.016H223.846V132.376H217.446V133.016ZM217.126 133.336H221.286V132.696H217.126V133.336ZM216.806 133.656H219.046V133.016H216.806V133.656ZM216.806 129.176H219.046V128.536H216.806V129.176ZM217.126 129.496H221.286V128.856H217.126V129.496ZM217.446 129.816H223.846V129.176H217.446V129.816ZM217.446 130.136H226.086V129.496H217.446V130.136ZM217.766 130.456H228.646V129.816H217.766V130.456ZM218.086 130.776H230.886V130.136H218.086V130.776ZM218.406 131.096H233.446V130.456H218.406V131.096ZM54.9293 131.413L73.8093 128.853L73.7234 128.218L54.8434 130.778L54.9293 131.413ZM73.495 128.366L71.895 130.926L72.4377 131.265L74.0377 128.705L73.495 128.366ZM71.895 131.265L73.495 133.825L74.0377 133.486L72.4377 130.926L71.895 131.265ZM73.8094 133.338L54.9293 130.778L54.8434 131.413L73.7234 133.973L73.8094 133.338ZM71.5264 129.176H73.7664V128.536H71.5264V129.176ZM69.2864 129.496H73.4464V128.856H69.2864V129.496ZM66.7264 129.816H73.4464V129.176H66.7264V129.816ZM64.4864 130.136H73.1264V129.496H64.4864V130.136ZM62.2464 130.456H72.8064V129.816H62.2464V130.456ZM59.6864 130.776H72.8064V130.136H59.6864V130.776ZM57.4464 131.096H72.4864V130.456H57.4464V131.096ZM54.8864 131.416H72.1664V130.776H54.8864V131.416ZM57.4464 131.736H72.4864V131.096H57.4464V131.736ZM59.6864 132.056H72.8064V131.416H59.6864V132.056ZM62.2464 132.376H72.8064V131.736H62.2464V132.376ZM64.4864 132.696H73.1264V132.056H64.4864V132.696ZM66.7264 133.016H73.4464V132.376H66.7264V133.016ZM69.2864 133.336H73.4464V132.696H69.2864V133.336ZM71.5264 133.656H73.7664V133.016H71.5264V133.656ZM235.686 130.776L54.8864 130.776L54.8864 131.416L235.686 131.416L235.686 130.776Z" fill="white"/>
        <path d="M468.258 200.574L475.602 180.4H478.201L471.647 198.407H481.627L480.838 200.574H468.258Z" fill="white"/>
        <path d="M386.726 170.776C386.726 170.599 386.583 170.456 386.406 170.456C386.23 170.456 386.086 170.599 386.086 170.776H386.726ZM386.086 218.136C386.086 218.312 386.23 218.456 386.406 218.456C386.583 218.456 386.726 218.312 386.726 218.136H386.086ZM561.446 170.776C561.446 170.599 561.303 170.456 561.126 170.456C560.95 170.456 560.806 170.599 560.806 170.776H561.446ZM560.806 218.136C560.806 218.312 560.95 218.456 561.126 218.456C561.303 218.456 561.446 218.312 561.446 218.136H560.806ZM468.258 200.574L467.958 200.464C467.922 200.562 467.936 200.672 467.996 200.757C468.056 200.843 468.154 200.894 468.258 200.894V200.574ZM475.602 180.4V180.08C475.467 180.08 475.347 180.164 475.301 180.29L475.602 180.4ZM478.201 180.4L478.502 180.509C478.538 180.411 478.523 180.302 478.464 180.216C478.404 180.13 478.306 180.08 478.201 180.08V180.4ZM471.647 198.407L471.346 198.297C471.31 198.395 471.325 198.505 471.385 198.59C471.445 198.676 471.542 198.727 471.647 198.727V198.407ZM481.627 198.407L481.927 198.516C481.963 198.418 481.949 198.309 481.889 198.223C481.829 198.137 481.731 198.087 481.627 198.087V198.407ZM480.838 200.574V200.894C480.972 200.894 481.092 200.81 481.138 200.683L480.838 200.574ZM386.406 210.456L386.369 210.138C386.209 210.157 386.088 210.292 386.086 210.453C386.085 210.614 386.204 210.751 386.363 210.773L386.406 210.456ZM405.286 208.216L405.529 208.424C405.615 208.324 405.631 208.181 405.569 208.065C405.507 207.949 405.38 207.882 405.249 207.898L405.286 208.216ZM405.286 213.016L405.243 213.333C405.371 213.35 405.497 213.289 405.562 213.178C405.628 213.066 405.62 212.927 405.542 212.824L405.286 213.016ZM561.126 210.456L561.169 210.773C561.329 210.751 561.448 210.614 561.446 210.453C561.445 210.292 561.324 210.157 561.164 210.138L561.126 210.456ZM542.246 213.016L541.99 212.824C541.913 212.927 541.905 213.066 541.971 213.178C542.036 213.289 542.162 213.35 542.289 213.333L542.246 213.016ZM542.246 208.216L542.284 207.898C542.153 207.882 542.026 207.949 541.964 208.065C541.902 208.181 541.918 208.324 542.003 208.424L542.246 208.216ZM386.086 170.776V218.136H386.726V170.776H386.086ZM560.806 170.776V218.136H561.446V170.776H560.806ZM468.559 200.683L475.902 180.509L475.301 180.29L467.958 200.464L468.559 200.683ZM475.602 180.72H478.201V180.08H475.602V180.72ZM477.901 180.29L471.346 198.297L471.948 198.516L478.502 180.509L477.901 180.29ZM471.647 198.727H481.627V198.087H471.647V198.727ZM481.326 198.297L480.537 200.464L481.138 200.683L481.927 198.516L481.326 198.297ZM480.838 200.254H468.258V200.894H480.838V200.254ZM386.444 210.773L405.324 208.533L405.249 207.898L386.369 210.138L386.444 210.773ZM405.043 208.007L403.123 210.247L403.609 210.664L405.529 208.424L405.043 208.007ZM403.11 210.648L405.03 213.208L405.542 212.824L403.622 210.264L403.11 210.648ZM405.329 212.698L386.449 210.138L386.363 210.773L405.243 213.333L405.329 212.698ZM402.726 208.856H405.286V208.216H402.726V208.856ZM400.166 209.176H404.966V208.536H400.166V209.176ZM397.286 209.496H404.646V208.856H397.286V209.496ZM394.726 209.816H404.326V209.176H394.726V209.816ZM391.846 210.136H404.006V209.496H391.846V210.136ZM389.286 210.456H403.686V209.816H389.286V210.456ZM386.406 210.776H403.366V210.136H386.406V210.776ZM388.966 211.096H403.686V210.456H388.966V211.096ZM391.206 211.416H404.006V210.776H391.206V211.416ZM393.766 211.736H404.326V211.096H393.766V211.736ZM396.006 212.056H404.326V211.416H396.006V212.056ZM398.246 212.376H404.646V211.736H398.246V212.376ZM400.806 212.696H404.966V212.056H400.806V212.696ZM403.046 213.016H405.286V212.376H403.046V213.016ZM561.083 210.138L542.203 212.698L542.289 213.333L561.169 210.773L561.083 210.138ZM542.502 213.208L544.422 210.648L543.91 210.264L541.99 212.824L542.502 213.208ZM544.409 210.247L542.489 208.007L542.003 208.424L543.923 210.664L544.409 210.247ZM542.209 208.533L561.089 210.773L561.164 210.138L542.284 207.898L542.209 208.533ZM544.166 210.776H561.126V210.136H544.166V210.776ZM544.166 211.096H558.886V210.456H544.166V211.096ZM543.846 211.416H556.646V210.776H543.846V211.416ZM543.526 211.736H554.086V211.096H543.526V211.736ZM543.206 212.056H551.846V211.416H543.206V212.056ZM543.206 212.376H549.606V211.736H543.206V212.376ZM542.886 212.696H547.046V212.056H542.886V212.696ZM542.566 213.016H544.806V212.376H542.566V213.016ZM542.566 208.856H545.126V208.216H542.566V208.856ZM542.886 209.176H547.686V208.536H542.886V209.176ZM543.206 209.496H550.566V208.856H543.206V209.496ZM543.526 209.816H553.126V209.176H543.526V209.816ZM543.846 210.136H556.006V209.496H543.846V210.136ZM544.166 210.456H558.566V209.816H544.166V210.456ZM386.406 210.776L561.126 210.776L561.126 210.136L386.406 210.136L386.406 210.776Z" fill="white"/>
    </g>
    <!--    12 L1-->
    <g class="group">
    </g>
    <!--    13 L2-->
    <g class="group">
    </g>
    <!--    14 S-->
    <g class="group">
        <path d="M15.5088 7.97544L16.0999 10.413C15.7518 10.426 15.4136 10.5091 15.0853 10.6621C14.7503 10.8058 14.4745 11.0688 14.2578 11.4512C14.0411 11.8335 13.9327 12.3846 13.9327 13.1045C13.9327 14.0899 14.1462 14.9887 14.573 15.801C14.9933 16.604 15.5285 17.1238 16.1787 17.3604C16.7566 17.5708 17.213 17.5133 17.5479 17.1879C17.8829 16.8625 18.162 16.2653 18.3852 15.3961L18.9369 13.2068C19.2652 11.8866 19.7676 10.9967 20.444 10.5371C21.1139 10.0751 21.9774 10.0365 23.0347 10.4213C23.9016 10.7369 24.6765 11.2845 25.3595 12.0643C26.0425 12.837 26.581 13.7668 26.975 14.8537C27.369 15.9406 27.5661 17.1096 27.5661 18.3605C27.5661 20.0028 27.2311 21.2402 26.5613 22.0727C25.8914 22.9051 24.9129 23.2303 23.6258 23.0483L23.0742 20.4993C23.8885 20.5721 24.4992 20.3716 24.9064 19.8978C25.3135 19.4171 25.5171 18.67 25.5171 17.6566C25.5171 16.5035 25.2873 15.5043 24.8276 14.6591C24.3613 13.8045 23.8031 13.2589 23.153 13.0222C22.6276 12.831 22.1876 12.8665 21.833 13.1288C21.4718 13.3887 21.2025 13.8917 21.0252 14.6378L20.4342 17.1063C20.1058 18.4614 19.5969 19.3594 18.9073 19.8003C18.2112 20.2318 17.3411 20.2575 16.2969 19.8774C15.4432 19.5667 14.688 19.0367 14.0312 18.2875C13.3745 17.5313 12.859 16.6412 12.4847 15.6174C12.1104 14.5866 11.9232 13.5052 11.9232 12.373C11.9232 10.7796 12.2516 9.64814 12.9083 8.97866C13.565 8.3022 14.4318 7.96779 15.5088 7.97544Z" fill="white"/>
        <path d="M50.0864 52.6955C50.2632 52.6955 50.4064 52.5522 50.4064 52.3755C50.4064 52.1988 50.2632 52.0555 50.0864 52.0555V52.6955ZM29.6065 52.0555C29.4297 52.0555 29.2865 52.1988 29.2865 52.3755C29.2865 52.5522 29.4297 52.6955 29.6065 52.6955V52.0555ZM50.0864 56.5356C50.2632 56.5356 50.4064 56.3923 50.4064 56.2156C50.4064 56.0388 50.2632 55.8956 50.0864 55.8956V56.5356ZM29.6065 55.8956C29.4297 55.8956 29.2865 56.0388 29.2865 56.2156C29.2865 56.3923 29.4297 56.5356 29.6065 56.5356V55.8956ZM37.6064 1.17554C37.6064 0.998806 37.4631 0.855537 37.2864 0.855537C37.1097 0.855537 36.9664 0.998806 36.9664 1.17554H37.6064ZM15.5088 7.97544L15.8198 7.90004C15.7852 7.75734 15.6579 7.6565 15.5111 7.65545L15.5088 7.97544ZM16.0999 10.413L16.1119 10.7327C16.2079 10.7291 16.2971 10.6826 16.3551 10.606C16.413 10.5294 16.4335 10.4309 16.4109 10.3376L16.0999 10.413ZM15.0853 10.6621L15.2115 10.9564L15.2204 10.9522L15.0853 10.6621ZM14.2578 11.4512L13.9794 11.2934L13.9794 11.2934L14.2578 11.4512ZM14.573 15.801L14.8565 15.6526L14.8563 15.6522L14.573 15.801ZM16.1787 17.3604L16.2881 17.0597L16.1787 17.3604ZM17.5479 17.1879L17.7709 17.4174L17.7709 17.4174L17.5479 17.1879ZM18.3852 15.3961L18.6952 15.4757L18.6955 15.4743L18.3852 15.3961ZM18.9369 13.2068L19.2472 13.285L19.2474 13.284L18.9369 13.2068ZM20.444 10.5371L20.6239 10.8018L20.6257 10.8005L20.444 10.5371ZM23.0347 10.4213L22.9253 10.722L23.0347 10.4213ZM25.3595 12.0643L25.1188 12.2751L25.1197 12.2762L25.3595 12.0643ZM26.5613 22.0727L26.312 21.872L26.312 21.872L26.5613 22.0727ZM23.6258 23.0483L23.313 23.116C23.3414 23.247 23.4483 23.3464 23.581 23.3652L23.6258 23.0483ZM23.0742 20.4993L23.1026 20.1806C23.0013 20.1715 22.9017 20.2112 22.8343 20.2875C22.7669 20.3638 22.7399 20.4676 22.7614 20.567L23.0742 20.4993ZM24.9064 19.8978L25.1491 20.1064L25.1506 20.1046L24.9064 19.8978ZM24.8276 14.6591L25.1087 14.5062L25.1085 14.5058L24.8276 14.6591ZM23.153 13.0222L23.2624 12.7215L23.2624 12.7215L23.153 13.0222ZM21.833 13.1288L22.0199 13.3886L22.0233 13.3861L21.833 13.1288ZM21.0252 14.6378L21.3364 14.7123L21.3365 14.7118L21.0252 14.6378ZM20.4342 17.1063L20.7452 17.1817L20.7454 17.1808L20.4342 17.1063ZM18.9073 19.8003L19.0759 20.0723L19.0797 20.0699L18.9073 19.8003ZM16.2969 19.8774L16.4063 19.5767L16.2969 19.8774ZM14.0312 18.2875L13.7896 18.4973L13.7906 18.4984L14.0312 18.2875ZM12.4847 15.6174L12.1839 15.7267L12.1841 15.7273L12.4847 15.6174ZM12.9083 8.97866L13.1367 9.20275L13.1379 9.20156L12.9083 8.97866ZM39.8464 33.4955L40.1635 33.5385C40.1808 33.4106 40.1197 33.2849 40.0084 33.2196C39.8972 33.1542 39.7576 33.1621 39.6544 33.2395L39.8464 33.4955ZM34.7264 33.4955L34.9184 33.2395C34.8152 33.1621 34.6756 33.1542 34.5644 33.2196C34.4531 33.2849 34.392 33.4106 34.4093 33.5385L34.7264 33.4955ZM37.6064 26.1355C37.6064 25.9588 37.4631 25.8155 37.2864 25.8155C37.1097 25.8155 36.9664 25.9588 36.9664 26.1355H37.6064ZM34.7264 75.0956L34.4093 75.0526C34.392 75.1804 34.4531 75.3062 34.5644 75.3715C34.6756 75.4368 34.8152 75.429 34.9184 75.3516L34.7264 75.0956ZM39.8464 75.0955L39.6544 75.3515C39.7576 75.4289 39.8972 75.4368 40.0084 75.3715C40.1197 75.3061 40.1808 75.1804 40.1635 75.0525L39.8464 75.0955ZM36.9664 82.7756C36.9664 82.9523 37.1097 83.0956 37.2864 83.0956C37.4631 83.0956 37.6064 82.9523 37.6064 82.7756L36.9664 82.7756ZM50.0864 52.0555H29.6065V52.6955H50.0864V52.0555ZM50.0864 55.8956H29.6065V56.5356H50.0864V55.8956ZM15.1979 8.05085L15.7889 10.4884L16.4109 10.3376L15.8198 7.90004L15.1979 8.05085ZM16.0879 10.0932C15.6955 10.1079 15.3155 10.2018 14.9501 10.3721L15.2204 10.9522C15.5117 10.8164 15.8082 10.7442 16.1119 10.7327L16.0879 10.0932ZM14.9591 10.3681C14.5475 10.5446 14.2233 10.8631 13.9794 11.2934L14.5362 11.609C14.7257 11.2746 14.9532 11.067 15.2114 10.9562L14.9591 10.3681ZM13.9794 11.2934C13.7233 11.7453 13.6127 12.3608 13.6127 13.1045H14.2527C14.2527 12.4085 14.3589 11.9217 14.5362 11.609L13.9794 11.2934ZM13.6127 13.1045C13.6127 14.1378 13.837 15.0883 14.2898 15.9499L14.8563 15.6522C14.4553 14.8891 14.2527 14.0419 14.2527 13.1045H13.6127ZM14.2895 15.9494C14.7351 16.8006 15.3233 17.3896 16.0692 17.6611L16.2881 17.0597C15.7338 16.8579 15.2516 16.4073 14.8565 15.6526L14.2895 15.9494ZM16.0692 17.6611C16.7192 17.8977 17.3192 17.8562 17.7709 17.4174L17.325 16.9584C17.1068 17.1703 16.794 17.2438 16.2881 17.0597L16.0692 17.6611ZM17.7709 17.4174C18.1717 17.028 18.4685 16.358 18.6952 15.4757L18.0753 15.3165C17.8554 16.1726 17.594 16.697 17.325 16.9584L17.7709 17.4174ZM18.6955 15.4743L19.2472 13.285L18.6266 13.1286L18.0749 15.3179L18.6955 15.4743ZM19.2474 13.284C19.5685 11.9931 20.044 11.1958 20.6239 10.8018L20.2642 10.2724C19.4913 10.7976 18.962 11.7802 18.6263 13.1295L19.2474 13.284ZM20.6257 10.8005C21.1802 10.418 21.9251 10.358 22.9253 10.722L23.1442 10.1207C22.0298 9.71501 21.0475 9.73211 20.2623 10.2737L20.6257 10.8005ZM22.9253 10.722C23.7355 11.017 24.4668 11.5308 25.1188 12.2751L25.6002 11.8534C24.8862 11.0383 24.0677 10.4568 23.1442 10.1207L22.9253 10.722ZM25.1197 12.2762C25.773 13.0154 26.2922 13.9092 26.6742 14.9628L27.2759 14.7447C26.8698 13.6245 26.3119 12.6587 25.5993 11.8523L25.1197 12.2762ZM26.6742 14.9628C27.0545 16.012 27.2461 17.1437 27.2461 18.3605H27.8861C27.8861 17.0754 27.6836 15.8693 27.2759 14.7447L26.6742 14.9628ZM27.2461 18.3605C27.2461 19.9671 26.9172 21.1199 26.312 21.872L26.8106 22.2733C27.5451 21.3605 27.8861 20.0386 27.8861 18.3605H27.2461ZM26.312 21.872C25.7291 22.5964 24.8743 22.9017 23.6706 22.7315L23.581 23.3652C24.9515 23.5589 26.0538 23.2137 26.8106 22.2733L26.312 21.872ZM23.9385 22.9806L23.3869 20.4316L22.7614 20.567L23.313 23.116L23.9385 22.9806ZM23.0457 20.8181C23.9279 20.8969 24.6546 20.6818 25.1491 20.1064L24.6637 19.6893C24.3439 20.0614 23.8491 20.2473 23.1026 20.1806L23.0457 20.8181ZM25.1506 20.1046C25.6288 19.54 25.8371 18.7025 25.8371 17.6566H25.1971C25.1971 18.6375 24.9983 19.2941 24.6622 19.691L25.1506 20.1046ZM25.8371 17.6566C25.8371 16.4607 25.5985 15.4068 25.1087 14.5062L24.5465 14.812C24.976 15.6018 25.1971 16.5464 25.1971 17.6566H25.8371ZM25.1085 14.5058C24.62 13.6105 24.0108 12.9939 23.2624 12.7215L23.0435 13.3229C23.5954 13.5238 24.1026 13.9985 24.5467 14.8124L25.1085 14.5058ZM23.2624 12.7215C22.6667 12.5047 22.1068 12.5283 21.6427 12.8715L22.0233 13.3861C22.2684 13.2048 22.5885 13.1573 23.0435 13.3229L23.2624 12.7215ZM21.6461 12.869C21.1908 13.1966 20.8972 13.7923 20.7139 14.5638L21.3365 14.7118C21.5078 13.9911 21.7527 13.5807 22.0199 13.3885L21.6461 12.869ZM20.714 14.5633L20.123 17.0318L20.7454 17.1808L21.3364 14.7123L20.714 14.5633ZM20.1232 17.031C19.8015 18.3584 19.3199 19.1567 18.7349 19.5307L19.0797 20.0699C19.8738 19.5621 20.4101 18.5645 20.7452 17.1817L20.1232 17.031ZM18.7387 19.5283C18.1533 19.8912 17.3935 19.936 16.4063 19.5767L16.1874 20.1781C17.2887 20.579 18.2691 20.5724 19.0759 20.0723L18.7387 19.5283ZM16.4063 19.5767C15.608 19.2861 14.8966 18.7893 14.2719 18.0765L13.7906 18.4984C14.4793 19.2841 15.2784 19.8472 16.1874 20.1781L16.4063 19.5767ZM14.2729 18.0776C13.6439 17.3534 13.1474 16.498 12.7852 15.5076L12.1841 15.7273C12.5707 16.7845 13.1052 17.7091 13.7896 18.4973L14.2729 18.0776ZM12.7855 15.5082C12.4243 14.5136 12.2432 13.4691 12.2432 12.373H11.6032C11.6032 13.5412 11.7965 14.6597 12.1839 15.7267L12.7855 15.5082ZM12.2432 12.373C12.2432 10.8086 12.5683 9.78225 13.1367 9.20275L12.6798 8.75458C11.9349 9.51404 11.6032 10.7506 11.6032 12.373H12.2432ZM13.1379 9.20156C13.7249 8.59686 14.5033 8.2883 15.5066 8.29544L15.5111 7.65545C14.3604 7.64727 13.4051 8.00753 12.6787 8.75577L13.1379 9.20156ZM37.6035 52.4185L40.1635 33.5385L39.5293 33.4525L36.9693 52.3325L37.6035 52.4185ZM39.6544 33.2395L37.0944 35.1595L37.4784 35.6715L40.0384 33.7515L39.6544 33.2395ZM37.4784 35.1595L34.9184 33.2395L34.5344 33.7515L37.0944 35.6715L37.4784 35.1595ZM34.4093 33.5385L36.9693 52.4185L37.6035 52.3325L35.0435 33.4525L34.4093 33.5385ZM37.6064 52.3755V26.1355H36.9664V52.3755H37.6064ZM39.5264 34.1356H39.8464V33.4956H39.5264V34.1356ZM39.2064 34.4556H39.8464V33.8156H39.2064V34.4556ZM38.5664 34.7756H39.8464V34.1356H38.5664V34.7756ZM38.2464 35.0956H39.8464V34.4556H38.2464V35.0956ZM37.9264 35.4156H39.8464V34.7756H37.9264V35.4156ZM37.2864 35.7355L39.8464 35.7356L39.8464 35.0956L37.2864 35.0955L37.2864 35.7355ZM37.2864 50.4556H37.6064V49.8156H37.2864V50.4556ZM37.2864 50.7756H37.6064V50.1356H37.2864V50.7756ZM37.2864 51.0956H37.6064V50.4556H37.2864V51.0956ZM37.2864 51.4156H37.6064V50.7756H37.2864V51.4156ZM37.2864 51.7356H37.6064V51.0956H37.2864V51.7356ZM37.2864 52.0555H37.6064V51.4155H37.2864V52.0555ZM37.2864 52.3755H37.6064V51.7355H37.2864V52.3755ZM35.0464 34.1356H35.3664V33.4956H35.0464V34.1356ZM35.0464 34.4556H35.6864V33.8156H35.0464V34.4556ZM35.0464 34.7756H36.0064V34.1356H35.0464V34.7756ZM35.0464 35.0956H36.6464V34.4556H35.0464V35.0956ZM35.0464 35.4156H36.9664V34.7756H35.0464V35.4156ZM35.0464 35.7356L37.2864 35.7355L37.2864 35.0955L35.0464 35.0956L35.0464 35.7356ZM36.9693 56.1726L34.4093 75.0526L35.0435 75.1386L37.6035 56.2586L36.9693 56.1726ZM34.9184 75.3516L37.4784 73.4315L37.0944 72.9195L34.5344 74.8396L34.9184 75.3516ZM37.0944 73.4315L39.6544 75.3515L40.0384 74.8395L37.4784 72.9195L37.0944 73.4315ZM40.1635 75.0525L37.6035 56.1726L36.9693 56.2586L39.5293 75.1385L40.1635 75.0525ZM36.9664 56.2156L36.9664 82.7756L37.6064 82.7756L37.6064 56.2156L36.9664 56.2156ZM35.0464 73.4955L37.2864 73.4955L37.2864 72.8555L35.0464 72.8555L35.0464 73.4955ZM35.0464 73.8155H36.9664V73.1755H35.0464V73.8155ZM35.0464 74.1355H36.6464V73.4955H35.0464V74.1355ZM35.0464 74.4555H36.0064V73.8155H35.0464V74.4555ZM35.0464 74.7755H35.6864V74.1355H35.0464V74.7755ZM35.0464 75.0955H35.3664V74.4555H35.0464V75.0955ZM37.2864 56.8555H37.6064V56.2155H37.2864V56.8555ZM37.2864 57.1755H37.6064V56.5355H37.2864V57.1755ZM37.2864 57.4955H37.6064V56.8555H37.2864V57.4955ZM37.2864 57.8155H37.6064V57.1755H37.2864V57.8155ZM37.2864 58.1355H37.6064V57.4955H37.2864V58.1355ZM37.2864 58.4555H37.6064V57.8155H37.2864V58.4555ZM37.2864 58.7755H37.6064V58.1355H37.2864V58.7755ZM37.2864 73.4955L39.8464 73.4955L39.8464 72.8555L37.2864 72.8555L37.2864 73.4955ZM37.9264 73.8155H39.8464V73.1755H37.9264V73.8155ZM38.2464 74.1355H39.8464V73.4955H38.2464V74.1355ZM38.5664 74.4555H39.8464V73.8155H38.5664V74.4555ZM39.2064 74.7755H39.8464V74.1355H39.2064V74.7755ZM39.5264 75.0955H39.8464V74.4555H39.5264V75.0955ZM36.9664 52.3755L36.9664 56.2156L37.6064 56.2156L37.6064 52.3755L36.9664 52.3755ZM37.6064 52.3755V1.17554H36.9664V52.3755H37.6064ZM35.0464 36.0555H39.8464V35.4155H35.0464V36.0555ZM35.3664 36.3756H39.5264V35.7356H35.3664V36.3756ZM35.3664 36.6956H39.5264V36.0556H35.3664V36.6956ZM35.3664 37.0156H39.5264V36.3756H35.3664V37.0156ZM35.3664 37.3356H39.5264V36.6956H35.3664V37.3356ZM35.3664 37.6556H39.5264V37.0156H35.3664V37.6556ZM35.3664 37.9756H39.5264V37.3356H35.3664V37.9756ZM35.3664 38.2956H39.5264V37.6556H35.3664V38.2956ZM35.6864 38.6156H39.2064V37.9756H35.6864V38.6156ZM35.6864 38.9356H39.2064V38.2956H35.6864V38.9356ZM35.6864 39.2556H39.2064V38.6156H35.6864V39.2556ZM35.6864 39.5756H39.2064V38.9356H35.6864V39.5756ZM35.6864 39.8956H39.2064V39.2556H35.6864V39.8956ZM35.6864 40.2155H39.2064V39.5755H35.6864V40.2155ZM35.6864 40.5356H39.2064V39.8956H35.6864V40.5356ZM35.6864 40.8556H39.2064V40.2156H35.6864V40.8556ZM36.0064 41.1756H38.8864V40.5356H36.0064V41.1756ZM36.0064 41.4956H38.8864V40.8556H36.0064V41.4956ZM36.0064 41.8156H38.8864V41.1756H36.0064V41.8156ZM36.0064 42.1356H38.8864V41.4956H36.0064V42.1356ZM36.0064 42.4556H38.8864V41.8156H36.0064V42.4556ZM36.0064 42.7756H38.8864V42.1356H36.0064V42.7756ZM36.0064 43.0956H38.8864V42.4556H36.0064V43.0956ZM36.3264 43.4156H38.5664V42.7756H36.3264V43.4156ZM36.3264 43.7356H38.5664V43.0956H36.3264V43.7356ZM36.3264 44.0555H38.5664V43.4155H36.3264V44.0555ZM36.3264 44.3755H38.5664V43.7355H36.3264V44.3755ZM36.3264 44.6956H38.5664V44.0556H36.3264V44.6956ZM36.3264 45.0156H38.5664V44.3756H36.3264V45.0156ZM36.3264 45.3356H38.5664V44.6956H36.3264V45.3356ZM36.6464 45.6556H38.2464V45.0156H36.6464V45.6556ZM36.6464 45.9756H38.2464V45.3356H36.6464V45.9756ZM36.6464 46.2956H38.2464V45.6556H36.6464V46.2956ZM36.6464 46.6156H38.2464V45.9756H36.6464V46.6156ZM36.6464 46.9356H38.2464V46.2956H36.6464V46.9356ZM36.6464 47.2556H38.2464V46.6156H36.6464V47.2556ZM36.6464 47.5756H38.2464V46.9356H36.6464V47.5756ZM36.6464 47.8956H38.2464V47.2556H36.6464V47.8956ZM36.9664 48.2155H37.9264V47.5755H36.9664V48.2155ZM36.9664 48.5356H37.9264V47.8956H36.9664V48.5356ZM36.9664 48.8556H37.9264V48.2156H36.9664V48.8556ZM36.9664 49.1756H37.9264V48.5356H36.9664V49.1756ZM36.9664 49.4956H37.9264V48.8556H36.9664V49.4956ZM36.9664 49.8156H37.9264V49.1756H36.9664V49.8156ZM36.9664 50.1356H37.9264V49.4956H36.9664V50.1356ZM36.9664 59.0955L37.9264 59.0955L37.9264 58.4555L36.9664 58.4555L36.9664 59.0955ZM36.9664 59.4155L37.9264 59.4155L37.9264 58.7755L36.9664 58.7755L36.9664 59.4155ZM36.9664 59.7355L37.9264 59.7355L37.9264 59.0955L36.9664 59.0955L36.9664 59.7355ZM36.9664 60.0555L37.9264 60.0555L37.9264 59.4155L36.9664 59.4155L36.9664 60.0555ZM36.9664 60.3755L37.9264 60.3755L37.9264 59.7355L36.9664 59.7355L36.9664 60.3755ZM36.9664 60.6955L37.9264 60.6955L37.9264 60.0555L36.9664 60.0555L36.9664 60.6955ZM36.9664 61.0155L37.9264 61.0155L37.9264 60.3755L36.9664 60.3755L36.9664 61.0155ZM36.6464 61.3355L38.2464 61.3355L38.2464 60.6955L36.6464 60.6955L36.6464 61.3355ZM36.6464 61.6555L38.2464 61.6555L38.2464 61.0155L36.6464 61.0155L36.6464 61.6555ZM36.6464 61.9755L38.2464 61.9755L38.2464 61.3355L36.6464 61.3355L36.6464 61.9755ZM36.6464 62.2955L38.2464 62.2955L38.2464 61.6555L36.6464 61.6555L36.6464 62.2955ZM36.6464 62.6155L38.2464 62.6155L38.2464 61.9755L36.6464 61.9755L36.6464 62.6155ZM36.6464 62.9355L38.2464 62.9355L38.2464 62.2955L36.6464 62.2955L36.6464 62.9355ZM36.6464 63.2555L38.2464 63.2555L38.2464 62.6155L36.6464 62.6155L36.6464 63.2555ZM36.6464 63.5755L38.2464 63.5755L38.2464 62.9355L36.6464 62.9355L36.6464 63.5755ZM36.3264 63.8955L38.5664 63.8955L38.5664 63.2555L36.3264 63.2555L36.3264 63.8955ZM36.3264 64.2155L38.5664 64.2155L38.5664 63.5755L36.3264 63.5755L36.3264 64.2155ZM36.3264 64.5355L38.5664 64.5355L38.5664 63.8955L36.3264 63.8955L36.3264 64.5355ZM36.3264 64.8555L38.5664 64.8555L38.5664 64.2155L36.3264 64.2155L36.3264 64.8555ZM36.3264 65.1755L38.5664 65.1755L38.5664 64.5355L36.3264 64.5355L36.3264 65.1755ZM36.3264 65.4955L38.5664 65.4955L38.5664 64.8555L36.3264 64.8555L36.3264 65.4955ZM36.3264 65.8155L38.5664 65.8155L38.5664 65.1755L36.3264 65.1755L36.3264 65.8155ZM36.0064 66.1355L38.8864 66.1355L38.8864 65.4955L36.0064 65.4955L36.0064 66.1355ZM36.0064 66.4555L38.8864 66.4555L38.8864 65.8155L36.0064 65.8155L36.0064 66.4555ZM36.0064 66.7755L38.8864 66.7755L38.8864 66.1355L36.0064 66.1355L36.0064 66.7755ZM36.0064 67.0955L38.8864 67.0955L38.8864 66.4555L36.0064 66.4555L36.0064 67.0955ZM36.0064 67.4155L38.8864 67.4155L38.8864 66.7755L36.0064 66.7755L36.0064 67.4155ZM36.0064 67.7355L38.8864 67.7355L38.8864 67.0955L36.0064 67.0955L36.0064 67.7355ZM36.0064 68.0555L38.8864 68.0555L38.8864 67.4155L36.0064 67.4155L36.0064 68.0555ZM35.6864 68.3755L39.2064 68.3755L39.2064 67.7355L35.6864 67.7355L35.6864 68.3755ZM35.6864 68.6955L39.2064 68.6955L39.2064 68.0555L35.6864 68.0555L35.6864 68.6955ZM35.6864 69.0155L39.2064 69.0155L39.2064 68.3755L35.6864 68.3755L35.6864 69.0155ZM35.6864 69.3355L39.2064 69.3355L39.2064 68.6955L35.6864 68.6955L35.6864 69.3355ZM35.6864 69.6555L39.2064 69.6555L39.2064 69.0155L35.6864 69.0155L35.6864 69.6555ZM35.6864 69.9755L39.2064 69.9755L39.2064 69.3355L35.6864 69.3355L35.6864 69.9755ZM35.6864 70.2955L39.2064 70.2955L39.2064 69.6555L35.6864 69.6555L35.6864 70.2955ZM35.6864 70.6155L39.2064 70.6155L39.2064 69.9755L35.6864 69.9755L35.6864 70.6155ZM35.3664 70.9355L39.5264 70.9355L39.5264 70.2955L35.3664 70.2955L35.3664 70.9355ZM35.3664 71.2555L39.5264 71.2555L39.5264 70.6155L35.3664 70.6155L35.3664 71.2555ZM35.3664 71.5755L39.5264 71.5755L39.5264 70.9355L35.3664 70.9355L35.3664 71.5755ZM35.3664 71.8955L39.5264 71.8955L39.5264 71.2555L35.3664 71.2555L35.3664 71.8955ZM35.3664 72.2155L39.5264 72.2155L39.5264 71.5755L35.3664 71.5755L35.3664 72.2155ZM35.3664 72.5355L39.5264 72.5355L39.5264 71.8955L35.3664 71.8955L35.3664 72.5355ZM35.3664 72.8555L39.5264 72.8555L39.5264 72.2155L35.3664 72.2155L35.3664 72.8555ZM35.0464 73.1755L39.8464 73.1755L39.8464 72.5355L35.0464 72.5355L35.0464 73.1755Z" fill="white"/>
    </g>
    <!--    15 S1-->
    <g class="group">
    </g>
    <!--    16 S2-->
    <g class="group">
    </g>
    <!--    17 S3-->
    <g class="group">
    </g>
    <!--    18 S4-->
    <g class="group">
    </g>
    <!--    19 I-->
    <g class="group">
    </g>
    <!--    20 I1-->
    <g class="group">
    </g>
    <!--    21 I2-->
    <g class="group">
    </g>
    <!--    22 H-->
    <g class="group">
    </g>
    <!--    23 H1-->
    <g class="group">
    </g>
    <!--    24 H2-->
    <g class="group">
    </g>
    <!--    25 h-->
    <g class="group">
    </g>
    <!--    26 h1-->
    <g class="group">
    </g>
    <!--    27 h2-->
    <g class="group">
    </g>
    <!--    28 R-->
    <g class="group">
    </g>
    <!--    29 Deg-->
    <g class="group">
    </g>
    <!--    29 DN-->
    <g class="group">
    </g>

</svg>
