<svg width="295" height="173" viewBox="0 0 295 173" fill="none" xmlns="http://www.w3.org/2000/svg">
<rect width="295" height="173" fill="none"/>
<path d="M267.623 96.4V77.52V96.4Z" stroke="white" stroke-width="2.24" stroke-miterlimit="10" stroke-linecap="round" stroke-linejoin="round"/>
<path d="M267.622 77.5199L266.982 67.9199L267.622 77.5199Z" stroke="white" stroke-width="2.24" stroke-miterlimit="10" stroke-linecap="round" stroke-linejoin="round"/>
<path d="M266.982 67.9198L265.06 58.3198L266.982 67.9198Z" stroke="white" stroke-width="2.24" stroke-miterlimit="10" stroke-linecap="round" stroke-linejoin="round"/>
<path d="M265.06 58.32L261.855 48.72L265.06 58.32Z" stroke="white" stroke-width="2.24" stroke-miterlimit="10" stroke-linecap="round" stroke-linejoin="round"/>
<path d="M261.855 48.7198L257.37 40.0798L261.855 48.7198Z" stroke="white" stroke-width="2.24" stroke-miterlimit="10" stroke-linecap="round" stroke-linejoin="round"/>
<path d="M257.37 40.08L251.923 31.76L257.37 40.08Z" stroke="white" stroke-width="2.24" stroke-miterlimit="10" stroke-linecap="round" stroke-linejoin="round"/>
<path d="M251.923 31.7599L245.515 24.3999L251.923 31.7599Z" stroke="white" stroke-width="2.24" stroke-miterlimit="10" stroke-linecap="round" stroke-linejoin="round"/>
<path d="M245.515 24.4L238.146 18L245.515 24.4Z" stroke="white" stroke-width="2.24" stroke-miterlimit="10" stroke-linecap="round" stroke-linejoin="round"/>
<path d="M238.146 18L230.136 12.24L238.146 18Z" stroke="white" stroke-width="2.24" stroke-miterlimit="10" stroke-linecap="round" stroke-linejoin="round"/>
<path d="M230.136 12.2398L221.165 8.07983L230.136 12.2398Z" stroke="white" stroke-width="2.24" stroke-miterlimit="10" stroke-linecap="round" stroke-linejoin="round"/>
<path d="M221.165 8.07989L211.873 4.87988L221.165 8.07989Z" stroke="white" stroke-width="2.24" stroke-miterlimit="10" stroke-linecap="round" stroke-linejoin="round"/>
<path d="M211.873 4.8799L202.261 2.63989L211.873 4.8799Z" stroke="white" stroke-width="2.24" stroke-miterlimit="10" stroke-linecap="round" stroke-linejoin="round"/>
<path d="M202.261 2.64001L192.649 2L202.261 2.64001Z" stroke="white" stroke-width="2.24" stroke-miterlimit="10" stroke-linecap="round" stroke-linejoin="round"/>
<path d="M192.649 2H191.688H192.649Z" stroke="white" stroke-width="2.24" stroke-miterlimit="10" stroke-linecap="round" stroke-linejoin="round"/>
<path d="M191.687 2H165.415H191.687Z" stroke="white" stroke-width="2.24" stroke-miterlimit="10" stroke-linecap="round" stroke-linejoin="round"/>
<path d="M165.415 2H138.821H165.415Z" stroke="white" stroke-width="2.24" stroke-miterlimit="10" stroke-linecap="round" stroke-linejoin="round"/>
<path d="M138.822 2L128.889 2.64001L138.822 2Z" stroke="white" stroke-width="2.24" stroke-miterlimit="10" stroke-linecap="round" stroke-linejoin="round"/>
<path d="M128.889 2.63989L119.277 4.5599L128.889 2.63989Z" stroke="white" stroke-width="2.24" stroke-miterlimit="10" stroke-linecap="round" stroke-linejoin="round"/>
<path d="M119.277 4.55981L109.985 7.75982L119.277 4.55981Z" stroke="white" stroke-width="2.24" stroke-miterlimit="10" stroke-linecap="round" stroke-linejoin="round"/>
<path d="M109.985 7.76001L101.334 11.92L109.985 7.76001Z" stroke="white" stroke-width="2.24" stroke-miterlimit="10" stroke-linecap="round" stroke-linejoin="round"/>
<path d="M101.334 11.9199L93.0039 17.3599L101.334 11.9199Z" stroke="white" stroke-width="2.24" stroke-miterlimit="10" stroke-linecap="round" stroke-linejoin="round"/>
<path d="M93.004 17.3599L85.6348 24.0799L93.004 17.3599Z" stroke="white" stroke-width="2.24" stroke-miterlimit="10" stroke-linecap="round" stroke-linejoin="round"/>
<path d="M85.6347 24.0798L78.9062 31.4398L85.6347 24.0798Z" stroke="white" stroke-width="2.24" stroke-miterlimit="10" stroke-linecap="round" stroke-linejoin="round"/>
<path d="M78.9062 31.4399L73.4595 39.4399L78.9062 31.4399Z" stroke="white" stroke-width="2.24" stroke-miterlimit="10" stroke-linecap="round" stroke-linejoin="round"/>
<path d="M73.4597 39.4399L68.9741 48.0799L73.4597 39.4399Z" stroke="white" stroke-width="2.24" stroke-miterlimit="10" stroke-linecap="round" stroke-linejoin="round"/>
<path d="M68.974 48.0798L65.77 57.6798L68.974 48.0798Z" stroke="white" stroke-width="2.24" stroke-miterlimit="10" stroke-linecap="round" stroke-linejoin="round"/>
<path d="M65.7701 57.6799L63.8477 67.2799L65.7701 57.6799Z" stroke="white" stroke-width="2.24" stroke-miterlimit="10" stroke-linecap="round" stroke-linejoin="round"/>
<path d="M63.8465 67.2798L63.2065 76.8798L63.8465 67.2798Z" stroke="white" stroke-width="2.24" stroke-miterlimit="10" stroke-linecap="round" stroke-linejoin="round"/>
<path d="M63.2065 76.8799V77.5199V76.8799Z" stroke="white" stroke-width="2.24" stroke-miterlimit="10" stroke-linecap="round" stroke-linejoin="round"/>
<path d="M63.2065 77.52V96.4V77.52Z" stroke="white" stroke-width="2.24" stroke-miterlimit="10" stroke-linecap="round" stroke-linejoin="round"/>
<path d="M259.933 96.4V77.52V96.4Z" stroke="white" stroke-width="2.24" stroke-miterlimit="10" stroke-linecap="round" stroke-linejoin="round"/>
<path d="M259.932 77.52L259.292 68.24L259.932 77.52Z" stroke="white" stroke-width="2.24" stroke-miterlimit="10" stroke-linecap="round" stroke-linejoin="round"/>
<path d="M259.292 68.2398L257.37 59.2798L259.292 68.2398Z" stroke="white" stroke-width="2.24" stroke-miterlimit="10" stroke-linecap="round" stroke-linejoin="round"/>
<path d="M257.37 59.2798L254.166 50.3198L257.37 59.2798Z" stroke="white" stroke-width="2.24" stroke-miterlimit="10" stroke-linecap="round" stroke-linejoin="round"/>
<path d="M254.166 50.32L250 42L254.166 50.32Z" stroke="white" stroke-width="2.24" stroke-miterlimit="10" stroke-linecap="round" stroke-linejoin="round"/>
<path d="M250 41.9999L244.554 34.6399L250 41.9999Z" stroke="white" stroke-width="2.24" stroke-miterlimit="10" stroke-linecap="round" stroke-linejoin="round"/>
<path d="M244.554 34.6398L238.146 27.5999L244.554 34.6398Z" stroke="white" stroke-width="2.24" stroke-miterlimit="10" stroke-linecap="round" stroke-linejoin="round"/>
<path d="M238.146 27.5999L230.776 21.8398L238.146 27.5999Z" stroke="white" stroke-width="2.24" stroke-miterlimit="10" stroke-linecap="round" stroke-linejoin="round"/>
<path d="M230.777 21.8398L222.767 17.0398L230.777 21.8398Z" stroke="white" stroke-width="2.24" stroke-miterlimit="10" stroke-linecap="round" stroke-linejoin="round"/>
<path d="M222.766 17.04L214.436 13.52L222.766 17.04Z" stroke="white" stroke-width="2.24" stroke-miterlimit="10" stroke-linecap="round" stroke-linejoin="round"/>
<path d="M214.436 13.52L205.145 10.96L214.436 13.52Z" stroke="white" stroke-width="2.24" stroke-miterlimit="10" stroke-linecap="round" stroke-linejoin="round"/>
<path d="M205.145 10.9599L196.173 9.67993L205.145 10.9599Z" stroke="white" stroke-width="2.24" stroke-miterlimit="10" stroke-linecap="round" stroke-linejoin="round"/>
<path d="M196.173 9.67993H191.688H196.173Z" stroke="white" stroke-width="2.24" stroke-miterlimit="10" stroke-linecap="round" stroke-linejoin="round"/>
<path d="M191.687 9.67993H165.415H191.687Z" stroke="white" stroke-width="2.24" stroke-miterlimit="10" stroke-linecap="round" stroke-linejoin="round"/>
<path d="M165.415 9.67993H138.821H165.415Z" stroke="white" stroke-width="2.24" stroke-miterlimit="10" stroke-linecap="round" stroke-linejoin="round"/>
<path d="M138.821 9.67993L129.53 10.3199L138.821 9.67993Z" stroke="white" stroke-width="2.24" stroke-miterlimit="10" stroke-linecap="round" stroke-linejoin="round"/>
<path d="M129.53 10.3198L120.559 12.2398L129.53 10.3198Z" stroke="white" stroke-width="2.24" stroke-miterlimit="10" stroke-linecap="round" stroke-linejoin="round"/>
<path d="M120.559 12.24L111.587 15.44L120.559 12.24Z" stroke="white" stroke-width="2.24" stroke-miterlimit="10" stroke-linecap="round" stroke-linejoin="round"/>
<path d="M111.587 15.4399L103.257 19.5999L111.587 15.4399Z" stroke="white" stroke-width="2.24" stroke-miterlimit="10" stroke-linecap="round" stroke-linejoin="round"/>
<path d="M103.257 19.5999L95.5674 25.0399L103.257 19.5999Z" stroke="white" stroke-width="2.24" stroke-miterlimit="10" stroke-linecap="round" stroke-linejoin="round"/>
<path d="M95.5673 25.0398L88.8389 31.4398L95.5673 25.0398Z" stroke="white" stroke-width="2.24" stroke-miterlimit="10" stroke-linecap="round" stroke-linejoin="round"/>
<path d="M88.839 31.4399L83.0718 38.4799L88.839 31.4399Z" stroke="white" stroke-width="2.24" stroke-miterlimit="10" stroke-linecap="round" stroke-linejoin="round"/>
<path d="M83.0716 38.48L78.2656 46.48L83.0716 38.48Z" stroke="white" stroke-width="2.24" stroke-miterlimit="10" stroke-linecap="round" stroke-linejoin="round"/>
<path d="M78.2657 46.48L74.4209 55.12L78.2657 46.48Z" stroke="white" stroke-width="2.24" stroke-miterlimit="10" stroke-linecap="round" stroke-linejoin="round"/>
<path d="M74.4205 55.1199L72.1777 64.0799L74.4205 55.1199Z" stroke="white" stroke-width="2.24" stroke-miterlimit="10" stroke-linecap="round" stroke-linejoin="round"/>
<path d="M72.1781 64.0798L70.8965 73.3598L72.1781 64.0798Z" stroke="white" stroke-width="2.24" stroke-miterlimit="10" stroke-linecap="round" stroke-linejoin="round"/>
<path d="M70.8965 73.3599V77.5199V73.3599Z" stroke="white" stroke-width="2.24" stroke-miterlimit="10" stroke-linecap="round" stroke-linejoin="round"/>
<path d="M70.8965 77.52V96.4V77.52Z" stroke="white" stroke-width="2.24" stroke-miterlimit="10" stroke-linecap="round" stroke-linejoin="round"/>
<path d="M63.2065 96.3999H267.622H63.2065Z" stroke="white" stroke-width="2.24" stroke-miterlimit="10" stroke-linecap="round" stroke-linejoin="round"/>
<path d="M266.662 96.3999L267.623 95.4399L266.662 96.3999Z" stroke="white" stroke-width="0.64" stroke-miterlimit="10" stroke-linecap="round" stroke-linejoin="round"/>
<path d="M259.933 87.1199L267.623 79.4399L259.933 87.1199Z" stroke="white" stroke-width="0.64" stroke-miterlimit="10" stroke-linecap="round" stroke-linejoin="round"/>
<path d="M259.613 71.44L266.341 64.72L259.613 71.44Z" stroke="white" stroke-width="0.64" stroke-miterlimit="10" stroke-linecap="round" stroke-linejoin="round"/>
<path d="M257.049 57.9999L263.137 51.9199L257.049 57.9999Z" stroke="white" stroke-width="0.64" stroke-miterlimit="10" stroke-linecap="round" stroke-linejoin="round"/>
<path d="M252.243 46.4798L258.01 41.0398L252.243 46.4798Z" stroke="white" stroke-width="0.64" stroke-miterlimit="10" stroke-linecap="round" stroke-linejoin="round"/>
<path d="M246.156 36.5599L251.603 31.1199L246.156 36.5599Z" stroke="white" stroke-width="0.64" stroke-miterlimit="10" stroke-linecap="round" stroke-linejoin="round"/>
<path d="M238.466 28.2398L243.913 22.7998L238.466 28.2398Z" stroke="white" stroke-width="0.64" stroke-miterlimit="10" stroke-linecap="round" stroke-linejoin="round"/>
<path d="M229.815 21.2L235.262 15.76L229.815 21.2Z" stroke="white" stroke-width="0.64" stroke-miterlimit="10" stroke-linecap="round" stroke-linejoin="round"/>
<path d="M219.242 15.4399L225.009 9.67993L219.242 15.4399Z" stroke="white" stroke-width="0.64" stroke-miterlimit="10" stroke-linecap="round" stroke-linejoin="round"/>
<path d="M207.387 11.28L213.475 5.19995L207.387 11.28Z" stroke="white" stroke-width="0.64" stroke-miterlimit="10" stroke-linecap="round" stroke-linejoin="round"/>
<path d="M192.969 9.67989L200.018 2.63989L192.969 9.67989Z" stroke="white" stroke-width="0.64" stroke-miterlimit="10" stroke-linecap="round" stroke-linejoin="round"/>
<path d="M176.949 9.68L184.639 2L176.949 9.68Z" stroke="white" stroke-width="0.64" stroke-miterlimit="10" stroke-linecap="round" stroke-linejoin="round"/>
<path d="M160.929 9.68L168.298 2L160.929 9.68Z" stroke="white" stroke-width="0.64" stroke-miterlimit="10" stroke-linecap="round" stroke-linejoin="round"/>
<path d="M144.909 9.68L152.278 2L144.909 9.68Z" stroke="white" stroke-width="0.64" stroke-miterlimit="10" stroke-linecap="round" stroke-linejoin="round"/>
<path d="M63.2065 91.2798L70.8961 83.5999L63.2065 91.2798Z" stroke="white" stroke-width="0.64" stroke-miterlimit="10" stroke-linecap="round" stroke-linejoin="round"/>
<path d="M63.2065 74.9599L71.5369 66.6399L63.2065 74.9599Z" stroke="white" stroke-width="0.64" stroke-miterlimit="10" stroke-linecap="round" stroke-linejoin="round"/>
<path d="M127.928 10.64L136.258 2L127.928 10.64Z" stroke="white" stroke-width="0.64" stroke-miterlimit="10" stroke-linecap="round" stroke-linejoin="round"/>
<path d="M101.655 20.56L117.034 5.19995L101.655 20.56Z" stroke="white" stroke-width="0.64" stroke-miterlimit="10" stroke-linecap="round" stroke-linejoin="round"/>
<path d="M66.4106 55.7599L81.7899 40.3999L66.4106 55.7599Z" stroke="white" stroke-width="0.64" stroke-miterlimit="10" stroke-linecap="round" stroke-linejoin="round"/>

    <!--    1 A-->
    <g class="group">
    </g>
    <!--    2 D-->
    <g class="group">
        <path d="M164.909 152.327H160.676L161.452 150.273H165.657C167.105 150.273 168.415 149.989 169.587 149.422C170.763 148.847 171.779 148.044 172.637 147.015C173.507 145.977 174.195 144.765 174.7 143.378L175.125 142.214C175.522 141.124 175.736 140.156 175.765 139.31C175.798 138.455 175.652 137.736 175.327 137.151C175.005 136.558 174.509 136.109 173.841 135.804C173.182 135.499 172.351 135.346 171.348 135.346H166.781L167.534 133.279H172.101C173.429 133.279 174.564 133.488 175.507 133.907C176.453 134.317 177.177 134.914 177.68 135.699C178.195 136.475 178.465 137.417 178.488 138.525C178.515 139.624 178.277 140.862 177.775 142.24L177.36 143.378C176.858 144.756 176.191 145.999 175.36 147.107C174.533 148.206 173.574 149.143 172.483 149.92C171.402 150.696 170.219 151.293 168.934 151.712C167.662 152.122 166.32 152.327 164.909 152.327ZM169.052 133.279L162.11 152.327H159.423L166.365 133.279H169.052Z" fill="white"/>
        <path d="M63.5265 105.04C63.5265 104.863 63.3833 104.72 63.2065 104.72C63.0298 104.72 62.8865 104.863 62.8865 105.04H63.5265ZM62.8865 172.56C62.8865 172.737 63.0298 172.88 63.2065 172.88C63.3833 172.88 63.5265 172.737 63.5265 172.56H62.8865ZM267.943 143.44C267.943 143.263 267.799 143.12 267.623 143.12C267.446 143.12 267.303 143.263 267.303 143.44H267.943ZM267.303 172.56C267.303 172.737 267.446 172.88 267.623 172.88C267.799 172.88 267.943 172.737 267.943 172.56H267.303ZM160.676 152.327L160.377 152.213C160.339 152.312 160.353 152.422 160.413 152.509C160.472 152.595 160.571 152.647 160.676 152.647V152.327ZM161.452 150.273V149.953C161.319 149.953 161.2 150.035 161.153 150.16L161.452 150.273ZM169.587 149.422L169.727 149.71L169.728 149.71L169.587 149.422ZM172.637 147.015L172.392 146.81L172.391 146.81L172.637 147.015ZM174.7 143.378L175.001 143.488L175.001 143.488L174.7 143.378ZM175.125 142.214L174.824 142.105L174.824 142.105L175.125 142.214ZM175.765 139.31L175.446 139.298L175.446 139.299L175.765 139.31ZM175.327 137.151L175.046 137.304L175.047 137.307L175.327 137.151ZM173.841 135.804L173.706 136.094L173.708 136.095L173.841 135.804ZM166.781 135.346L166.48 135.236C166.445 135.335 166.459 135.444 166.519 135.529C166.579 135.615 166.677 135.666 166.781 135.666V135.346ZM167.534 133.279V132.959C167.4 132.959 167.28 133.043 167.234 133.169L167.534 133.279ZM175.507 133.907L175.377 134.199L175.379 134.201L175.507 133.907ZM177.68 135.699L177.411 135.872L177.413 135.876L177.68 135.699ZM178.488 138.525L178.168 138.532L178.168 138.533L178.488 138.525ZM177.775 142.24L178.075 142.35L178.075 142.35L177.775 142.24ZM177.36 143.378L177.059 143.269L177.059 143.269L177.36 143.378ZM175.36 147.107L175.616 147.299L175.616 147.299L175.36 147.107ZM172.483 149.92L172.298 149.659L172.297 149.66L172.483 149.92ZM168.934 151.712L169.032 152.016L169.033 152.016L168.934 151.712ZM169.052 133.279L169.353 133.389C169.389 133.29 169.374 133.181 169.314 133.096C169.254 133.01 169.157 132.959 169.052 132.959V133.279ZM162.11 152.327V152.647C162.245 152.647 162.365 152.563 162.411 152.436L162.11 152.327ZM159.423 152.327L159.122 152.217C159.086 152.315 159.101 152.425 159.161 152.51C159.22 152.596 159.318 152.647 159.423 152.647V152.327ZM166.365 133.279V132.959C166.23 132.959 166.11 133.043 166.064 133.169L166.365 133.279ZM63.2065 165.2L63.1636 164.883C63.0049 164.905 62.8865 165.04 62.8865 165.2C62.8865 165.36 63.0049 165.496 63.1636 165.517L63.2065 165.2ZM82.1102 162.64L82.3661 162.832C82.4435 162.729 82.4515 162.589 82.3862 162.478C82.3209 162.367 82.1951 162.306 82.0672 162.323L82.1102 162.64ZM82.1104 167.76L82.0674 168.077C82.1953 168.095 82.3211 168.033 82.3864 167.922C82.4517 167.811 82.4438 167.671 82.3663 167.568L82.1104 167.76ZM267.622 165.2L267.665 165.517C267.824 165.496 267.942 165.36 267.942 165.2C267.942 165.04 267.824 164.905 267.665 164.883L267.622 165.2ZM248.719 167.76L248.463 167.568C248.385 167.671 248.377 167.811 248.443 167.922C248.508 168.033 248.634 168.095 248.762 168.077L248.719 167.76ZM248.719 162.64L248.762 162.323C248.634 162.306 248.508 162.367 248.443 162.478C248.377 162.589 248.385 162.729 248.463 162.832L248.719 162.64ZM267.303 143.44V172.56H267.943V143.44H267.303ZM164.909 152.007H160.676V152.647H164.909V152.007ZM160.975 152.44L161.752 150.386L161.153 150.16L160.377 152.213L160.975 152.44ZM161.452 150.593H165.657V149.953H161.452V150.593ZM165.657 150.593C167.148 150.593 168.507 150.301 169.727 149.71L169.448 149.134C168.324 149.678 167.063 149.953 165.657 149.953V150.593ZM169.728 149.71C170.945 149.114 171.997 148.283 172.883 147.22L172.391 146.81C171.561 147.806 170.58 148.58 169.447 149.135L169.728 149.71ZM172.882 147.221C173.778 146.152 174.484 144.907 175.001 143.488L174.4 143.269C173.906 144.624 173.236 145.803 172.392 146.81L172.882 147.221ZM175.001 143.488L175.425 142.324L174.824 142.105L174.4 143.269L175.001 143.488ZM175.425 142.324C175.83 141.213 176.054 140.211 176.085 139.321L175.446 139.299C175.417 140.101 175.214 141.035 174.824 142.105L175.425 142.324ZM176.085 139.322C176.12 138.425 175.967 137.644 175.606 136.996L175.047 137.307C175.337 137.828 175.477 138.485 175.446 139.298L176.085 139.322ZM175.608 136.999C175.25 136.339 174.699 135.844 173.974 135.513L173.708 136.095C174.319 136.374 174.759 136.778 175.046 137.304L175.608 136.999ZM173.975 135.514C173.261 135.183 172.38 135.026 171.348 135.026V135.666C172.321 135.666 173.102 135.814 173.706 136.094L173.975 135.514ZM171.348 135.026H166.781V135.666H171.348V135.026ZM167.082 135.456L167.835 133.389L167.234 133.169L166.48 135.236L167.082 135.456ZM167.534 133.599H172.101V132.959H167.534V133.599ZM172.101 133.599C173.396 133.599 174.485 133.803 175.377 134.199L175.637 133.615C174.643 133.173 173.461 132.959 172.101 132.959V133.599ZM175.379 134.201C176.274 134.588 176.946 135.146 177.411 135.872L177.95 135.527C177.409 134.682 176.632 134.046 175.634 133.613L175.379 134.201ZM177.413 135.876C177.889 136.593 178.146 137.473 178.168 138.532L178.808 138.518C178.784 137.362 178.502 136.358 177.947 135.522L177.413 135.876ZM178.168 138.533C178.194 139.581 177.967 140.778 177.474 142.131L178.075 142.35C178.587 140.946 178.836 139.667 178.808 138.517L178.168 138.533ZM177.474 142.131L177.059 143.269L177.66 143.488L178.075 142.35L177.474 142.131ZM177.059 143.269C176.567 144.619 175.915 145.834 175.104 146.915L175.616 147.299C176.467 146.165 177.148 144.894 177.66 143.488L177.059 143.269ZM175.105 146.914C174.296 147.988 173.361 148.902 172.298 149.659L172.669 150.18C173.787 149.384 174.769 148.424 175.616 147.299L175.105 146.914ZM172.297 149.66C171.243 150.416 170.089 150.999 168.835 151.407L169.033 152.016C170.349 151.587 171.562 150.975 172.67 150.179L172.297 149.66ZM168.836 151.407C167.597 151.806 166.288 152.007 164.909 152.007V152.647C166.351 152.647 167.726 152.437 169.032 152.016L168.836 151.407ZM168.751 133.169L161.809 152.217L162.411 152.436L169.353 133.389L168.751 133.169ZM162.11 152.007H159.423V152.647H162.11V152.007ZM159.723 152.436L166.665 133.389L166.064 133.169L159.122 152.217L159.723 152.436ZM166.365 133.599H169.052V132.959H166.365V133.599ZM63.2495 165.517L82.1531 162.957L82.0672 162.323L63.1636 164.883L63.2495 165.517ZM81.8543 162.448L79.9321 165.008L80.4439 165.392L82.3661 162.832L81.8543 162.448ZM79.9321 165.392L81.8545 167.952L82.3663 167.568L80.4439 165.008L79.9321 165.392ZM82.1533 167.443L63.2495 164.883L63.1636 165.517L82.0674 168.077L82.1533 167.443ZM79.8677 163.28H82.1105V162.64H79.8677V163.28ZM77.6249 163.6H81.7901V162.96H77.6249V163.6ZM75.0617 163.92H81.4697V163.28H75.0617V163.92ZM72.8188 164.24H81.1493V163.6H72.8188V164.24ZM70.576 164.56H81.1493V163.92H70.576V164.56ZM68.0128 164.88H80.8289V164.24H68.0128V164.88ZM65.77 165.2H80.5085V164.56H65.77V165.2ZM63.2065 165.52H80.188V164.88H63.2065V165.52ZM65.7697 165.84H80.5082V165.2H65.7697V165.84ZM68.0125 166.16H80.8286V165.52H68.0125V166.16ZM70.5758 166.48H81.149V165.84H70.5758V166.48ZM72.8186 166.8H81.149V166.16H72.8186V166.8ZM75.0614 167.12H81.4694V166.48H75.0614V167.12ZM77.6246 167.44H81.7898V166.8H77.6246V167.44ZM79.8674 167.76H82.1102V167.12H79.8674V167.76ZM267.579 164.883L248.676 167.443L248.762 168.077L267.665 165.517L267.579 164.883ZM248.975 167.952L250.897 165.392L250.385 165.008L248.463 167.568L248.975 167.952ZM250.897 165.008L248.975 162.448L248.463 162.832L250.385 165.392L250.897 165.008ZM248.676 162.957L267.579 165.517L267.665 164.883L248.762 162.323L248.676 162.957ZM250.641 165.52H267.622V164.88H250.641V165.52ZM250.642 165.84H265.38V165.2H250.642V165.84ZM250.321 166.16H263.137V165.52H250.321V166.16ZM250.001 166.48H260.574V165.84H250.001V166.48ZM249.68 166.8H258.331V166.16H249.68V166.8ZM249.68 167.12H256.088V166.48H249.68V167.12ZM249.36 167.44H253.525V166.8H249.36V167.44ZM249.04 167.76H251.282V167.12H249.04V167.76ZM249.04 163.28H251.282V162.64H249.04V163.28ZM249.36 163.6H253.525V162.96H249.36V163.6ZM249.68 163.92H256.088V163.28H249.68V163.92ZM249.68 164.24H258.331V163.6H249.68V164.24ZM250.001 164.56H260.574V163.92H250.001V164.56ZM250.321 164.88H263.137V164.24H250.321V164.88ZM250.642 165.2H265.38V164.56H250.642V165.2ZM63.2065 165.52L267.622 165.52L267.622 164.88L63.2065 164.88L63.2065 165.52ZM63.5265 172.56V105.04H62.8865V172.56H63.5265Z" fill="white"/>
    </g>
    <!--    3 Dy-->
    <g class="group">
    </g>
    <!--    4 Dh-->
    <g class="group">
    </g>
    <!--    5 D1-->
    <g class="group">
    </g>
    <!--   6 D2-->
    <g class="group">
    </g>
    <!--   7 d-->
    <g class="group">
    </g>
    <!--    8 dH-->
    <g class="group">
    </g>
    <!--    9 d1-->
    <g class="group">
    </g>
    <!--    10 d2-->
    <g class="group">
    </g>
    <!--    11 L-->
    <g class="group">
    </g>
    <!--    12 L1-->
    <g class="group">
    </g>
    <!--    13 L2-->
    <g class="group">
    </g>
    <!--    14 S-->
    <g class="group">
        <path d="M229.34 115.6C229.467 115.251 229.502 114.928 229.443 114.632C229.396 114.326 229.167 114.052 228.754 113.807C228.355 113.555 227.691 113.336 226.765 113.153C225.99 112.988 225.305 112.791 224.71 112.565C224.124 112.338 223.653 112.063 223.298 111.74C222.951 111.418 222.732 111.038 222.64 110.602C222.549 110.166 222.609 109.656 222.822 109.072C223.026 108.514 223.348 107.986 223.789 107.489C224.239 106.992 224.776 106.551 225.398 106.167C226.03 105.784 226.729 105.483 227.496 105.265C228.262 105.047 229.068 104.938 229.912 104.938C231.119 104.938 232.076 105.138 232.784 105.54C233.492 105.941 233.951 106.477 234.161 107.149C234.374 107.811 234.333 108.548 234.037 109.36H231.461C231.604 108.967 231.617 108.588 231.5 108.221C231.396 107.846 231.151 107.537 230.767 107.293C230.392 107.048 229.865 106.926 229.188 106.926C228.473 106.926 227.854 107.031 227.333 107.24C226.823 107.441 226.409 107.698 226.091 108.012C225.781 108.326 225.563 108.657 225.436 109.006C225.34 109.268 225.301 109.503 225.318 109.713C225.347 109.913 225.455 110.101 225.642 110.275C225.832 110.441 226.127 110.598 226.528 110.746C226.929 110.894 227.455 111.043 228.107 111.191C229.246 111.453 230.148 111.767 230.813 112.133C231.477 112.499 231.908 112.948 232.104 113.48C232.3 114.012 232.26 114.658 231.983 115.417C231.757 116.036 231.411 116.603 230.945 117.117C230.489 117.632 229.932 118.077 229.276 118.452C228.632 118.818 227.914 119.106 227.123 119.315C226.344 119.516 225.514 119.616 224.632 119.616C223.305 119.616 222.263 119.394 221.506 118.949C220.749 118.504 220.263 117.928 220.047 117.222C219.831 116.515 219.866 115.77 220.152 114.985H222.742C222.537 115.648 222.549 116.175 222.777 116.568C223.009 116.952 223.364 117.226 223.842 117.392C224.323 117.549 224.828 117.627 225.357 117.627C226.063 117.627 226.684 117.54 227.221 117.366C227.767 117.191 228.221 116.952 228.583 116.646C228.945 116.341 229.197 115.992 229.34 115.6Z" fill="white"/>
        <path d="M267.943 105.04C267.943 104.863 267.799 104.72 267.623 104.72C267.446 104.72 267.303 104.863 267.303 105.04H267.943ZM267.303 139.6C267.303 139.777 267.446 139.92 267.623 139.92C267.799 139.92 267.943 139.777 267.943 139.6H267.303ZM260.253 105.04C260.253 104.863 260.11 104.72 259.933 104.72C259.756 104.72 259.613 104.863 259.613 105.04H260.253ZM259.613 139.6C259.613 139.777 259.756 139.92 259.933 139.92C260.11 139.92 260.253 139.777 260.253 139.6H259.613ZM208.348 131.92C208.171 131.92 208.028 132.063 208.028 132.24C208.028 132.417 208.171 132.56 208.348 132.56V131.92ZM229.34 115.6L229.04 115.49L229.34 115.6ZM229.443 114.632L229.126 114.68C229.127 114.685 229.128 114.689 229.129 114.694L229.443 114.632ZM228.754 113.807L228.583 114.078L228.591 114.083L228.754 113.807ZM226.765 113.153L226.698 113.466L226.703 113.467L226.765 113.153ZM224.71 112.565L224.594 112.863L224.596 112.864L224.71 112.565ZM223.298 111.74L223.079 111.975L223.083 111.977L223.298 111.74ZM222.822 109.072L222.521 108.962L222.822 109.072ZM223.789 107.489L223.552 107.274L223.55 107.276L223.789 107.489ZM225.398 106.167L225.232 105.894L225.23 105.895L225.398 106.167ZM234.161 107.149L233.855 107.244L233.856 107.247L234.161 107.149ZM234.037 109.36V109.68C234.172 109.68 234.292 109.595 234.338 109.469L234.037 109.36ZM231.461 109.36L231.161 109.25C231.125 109.348 231.139 109.457 231.199 109.543C231.259 109.629 231.357 109.68 231.461 109.68V109.36ZM231.5 108.221L231.192 108.307L231.196 108.319L231.5 108.221ZM230.767 107.293L230.592 107.561L230.595 107.563L230.767 107.293ZM227.333 107.24L227.45 107.538L227.452 107.537L227.333 107.24ZM226.091 108.012L225.866 107.784L225.863 107.787L226.091 108.012ZM225.436 109.006L225.135 108.897L225.436 109.006ZM225.318 109.713L224.999 109.738C224.999 109.745 225 109.752 225.001 109.759L225.318 109.713ZM225.642 110.275L225.423 110.509L225.432 110.517L225.642 110.275ZM228.107 111.191L228.178 110.879L228.178 110.879L228.107 111.191ZM231.983 115.417L231.682 115.307L231.682 115.307L231.983 115.417ZM230.945 117.117L230.708 116.902L230.706 116.905L230.945 117.117ZM229.276 118.452L229.434 118.73L229.434 118.729L229.276 118.452ZM227.123 119.315L227.203 119.625L227.205 119.624L227.123 119.315ZM220.152 114.985V114.665C220.017 114.665 219.897 114.749 219.851 114.875L220.152 114.985ZM222.742 114.985L223.048 115.079C223.077 114.982 223.06 114.877 222.999 114.795C222.939 114.713 222.843 114.665 222.742 114.665V114.985ZM222.777 116.568L222.501 116.729L222.503 116.733L222.777 116.568ZM223.842 117.392L223.737 117.694L223.742 117.696L223.842 117.392ZM227.221 117.366L227.123 117.061L227.122 117.061L227.221 117.366ZM286.526 134.48L286.489 134.798C286.62 134.813 286.747 134.747 286.809 134.631C286.871 134.514 286.855 134.372 286.769 134.272L286.526 134.48ZM286.526 129.68L286.782 129.872C286.86 129.769 286.868 129.629 286.802 129.518C286.737 129.407 286.611 129.346 286.484 129.363L286.526 129.68ZM293.895 132.56C294.072 132.56 294.215 132.417 294.215 132.24C294.215 132.063 294.072 131.92 293.895 131.92V132.56ZM241.029 129.68L241.072 129.363C240.944 129.346 240.819 129.407 240.753 129.518C240.688 129.629 240.696 129.769 240.773 129.872L241.029 129.68ZM241.029 134.48L240.786 134.272C240.701 134.372 240.685 134.514 240.747 134.631C240.809 134.747 240.936 134.813 241.067 134.798L241.029 134.48ZM233.34 131.92C233.163 131.92 233.02 132.063 233.02 132.24C233.02 132.417 233.163 132.56 233.34 132.56V131.92ZM267.303 105.04V139.6H267.943V105.04H267.303ZM259.613 105.04V139.6H260.253V105.04H259.613ZM229.641 115.709C229.784 115.318 229.829 114.935 229.756 114.569L229.129 114.694C229.174 114.921 229.151 115.184 229.04 115.49L229.641 115.709ZM229.759 114.583C229.691 114.141 229.366 113.798 228.917 113.532L228.591 114.083C228.967 114.305 229.101 114.512 229.126 114.68L229.759 114.583ZM228.925 113.537C228.473 113.251 227.761 113.024 226.827 112.839L226.703 113.467C227.621 113.649 228.236 113.858 228.583 114.078L228.925 113.537ZM226.832 112.84C226.069 112.677 225.4 112.485 224.824 112.266L224.596 112.864C225.209 113.097 225.911 113.298 226.698 113.466L226.832 112.84ZM224.825 112.266C224.266 112.05 223.832 111.793 223.513 111.503L223.083 111.977C223.475 112.333 223.983 112.626 224.594 112.863L224.825 112.266ZM223.516 111.506C223.214 111.226 223.031 110.904 222.953 110.536L222.327 110.668C222.433 111.173 222.688 111.61 223.079 111.975L223.516 111.506ZM222.953 110.536C222.878 110.178 222.923 109.731 223.123 109.181L222.521 108.962C222.296 109.581 222.219 110.155 222.327 110.668L222.953 110.536ZM223.123 109.181C223.311 108.665 223.611 108.172 224.028 107.701L223.55 107.276C223.085 107.8 222.74 108.362 222.521 108.962L223.123 109.181ZM224.026 107.704C224.454 107.231 224.967 106.809 225.566 106.44L225.23 105.895C224.584 106.293 224.024 106.753 223.552 107.274L224.026 107.704ZM225.564 106.441C226.17 106.073 226.842 105.783 227.583 105.573L227.408 104.957C226.616 105.182 225.89 105.494 225.232 105.894L225.564 106.441ZM227.583 105.573C228.319 105.363 229.095 105.258 229.912 105.258V104.618C229.04 104.618 228.205 104.73 227.408 104.957L227.583 105.573ZM229.912 105.258C231.089 105.258 231.984 105.454 232.626 105.818L232.942 105.261C232.168 104.823 231.15 104.618 229.912 104.618V105.258ZM232.626 105.818C233.275 106.186 233.673 106.662 233.855 107.244L234.466 107.053C234.228 106.292 233.708 105.696 232.942 105.261L232.626 105.818ZM233.856 107.247C234.043 107.827 234.014 108.489 233.737 109.25L234.338 109.469C234.652 108.608 234.705 107.796 234.465 107.051L233.856 107.247ZM234.037 109.04H231.461V109.68H234.037V109.04ZM231.762 109.469C231.927 109.016 231.946 108.564 231.805 108.124L231.196 108.319C231.289 108.612 231.282 108.918 231.161 109.25L231.762 109.469ZM231.809 108.135C231.679 107.672 231.377 107.301 230.938 107.022L230.595 107.563C230.925 107.772 231.112 108.021 231.192 108.307L231.809 108.135ZM230.941 107.024C230.494 106.733 229.897 106.606 229.188 106.606V107.246C229.833 107.246 230.289 107.364 230.592 107.561L230.941 107.024ZM229.188 106.606C228.443 106.606 227.782 106.715 227.214 106.943L227.452 107.537C227.927 107.347 228.503 107.246 229.188 107.246V106.606ZM227.215 106.942C226.675 107.155 226.221 107.434 225.866 107.784L226.315 108.24C226.597 107.962 226.972 107.726 227.45 107.538L227.215 106.942ZM225.863 107.787C225.527 108.128 225.281 108.497 225.135 108.897L225.736 109.116C225.845 108.817 226.035 108.524 226.319 108.237L225.863 107.787ZM225.135 108.897C225.029 109.188 224.977 109.471 224.999 109.738L225.637 109.688C225.625 109.536 225.652 109.348 225.736 109.116L225.135 108.897ZM225.001 109.759C225.043 110.048 225.197 110.298 225.423 110.509L225.86 110.041C225.712 109.903 225.65 109.778 225.634 109.667L225.001 109.759ZM225.432 110.517C225.664 110.719 226.002 110.893 226.417 111.046L226.639 110.446C226.253 110.303 225.999 110.163 225.852 110.034L225.432 110.517ZM226.417 111.046C226.836 111.201 227.377 111.353 228.036 111.503L228.178 110.879C227.533 110.732 227.022 110.588 226.639 110.446L226.417 111.046ZM228.035 111.503C229.159 111.761 230.029 112.067 230.658 112.413L230.967 111.853C230.266 111.467 229.333 111.144 228.178 110.879L228.035 111.503ZM230.658 112.413C231.279 112.755 231.642 113.153 231.804 113.591L232.404 113.37C232.174 112.744 231.676 112.243 230.967 111.853L230.658 112.413ZM231.804 113.591C231.964 114.027 231.944 114.59 231.682 115.307L232.284 115.526C232.575 114.726 232.635 113.998 232.404 113.37L231.804 113.591ZM231.682 115.307C231.472 115.885 231.148 116.417 230.708 116.902L231.183 117.332C231.675 116.788 232.043 116.186 232.284 115.526L231.682 115.307ZM230.706 116.905C230.275 117.391 229.746 117.814 229.117 118.174L229.434 118.729C230.118 118.339 230.703 117.873 231.185 117.33L230.706 116.905ZM229.117 118.173C228.5 118.525 227.808 118.803 227.041 119.006L227.205 119.624C228.02 119.409 228.763 119.111 229.434 118.73L229.117 118.173ZM227.043 119.005C226.293 119.198 225.49 119.296 224.632 119.296V119.936C225.539 119.936 226.396 119.833 227.203 119.625L227.043 119.005ZM224.632 119.296C223.335 119.296 222.357 119.078 221.668 118.673L221.344 119.225C222.169 119.709 223.275 119.936 224.632 119.936V119.296ZM221.668 118.673C220.966 118.261 220.541 117.744 220.353 117.128L219.741 117.315C219.984 118.113 220.532 118.747 221.344 119.225L221.668 118.673ZM220.353 117.128C220.16 116.497 220.187 115.823 220.453 115.094L219.851 114.875C219.545 115.717 219.502 116.534 219.741 117.315L220.353 117.128ZM220.152 115.305H222.742V114.665H220.152V115.305ZM222.436 114.891C222.219 115.594 222.209 116.226 222.501 116.729L223.054 116.407C222.89 116.125 222.856 115.701 223.048 115.079L222.436 114.891ZM222.503 116.733C222.779 117.189 223.198 117.507 223.737 117.694L223.946 117.09C223.529 116.945 223.239 116.714 223.051 116.402L222.503 116.733ZM223.742 117.696C224.257 117.864 224.796 117.947 225.357 117.947V117.307C224.86 117.307 224.389 117.234 223.941 117.088L223.742 117.696ZM225.357 117.947C226.088 117.947 226.744 117.857 227.32 117.67L227.122 117.061C226.624 117.223 226.037 117.307 225.357 117.307V117.947ZM227.318 117.671C227.896 117.486 228.389 117.228 228.789 116.891L228.377 116.402C228.053 116.675 227.638 116.897 227.123 117.061L227.318 117.671ZM228.789 116.891C229.188 116.554 229.476 116.161 229.641 115.709L229.04 115.49C228.918 115.823 228.702 116.128 228.377 116.402L228.789 116.891ZM267.585 132.558L286.489 134.798L286.564 134.162L267.66 131.922L267.585 132.558ZM286.769 134.272L284.847 132.032L284.361 132.448L286.283 134.688L286.769 134.272ZM284.86 132.432L286.782 129.872L286.271 129.488L284.348 132.048L284.86 132.432ZM286.484 129.363L267.58 131.923L267.666 132.557L286.569 129.997L286.484 129.363ZM267.623 132.56H293.895V131.92H267.623V132.56ZM267.623 132.56H284.604V131.92H267.623V132.56ZM270.506 132.88H284.924V132.24H270.506V132.88ZM273.069 133.2H285.245V132.56H273.069V133.2ZM275.953 133.52H285.565V132.88H275.953V133.52ZM278.516 133.84H285.885V133.2H278.516V133.84ZM281.4 134.16H286.206V133.52H281.4V134.16ZM283.963 134.48H286.526V133.84H283.963V134.48ZM284.284 130.32H286.527V129.68H284.284V130.32ZM282.041 130.64H286.206V130H282.041V130.64ZM279.478 130.96H285.886V130.32H279.478V130.96ZM277.235 131.28H285.565V130.64H277.235V131.28ZM274.992 131.6H285.565V130.96H274.992V131.6ZM272.429 131.92H285.245V131.28H272.429V131.92ZM270.186 132.24H284.925V131.6H270.186V132.24ZM259.976 131.923L241.072 129.363L240.986 129.997L259.89 132.557L259.976 131.923ZM240.773 129.872L242.696 132.432L243.208 132.048L241.285 129.488L240.773 129.872ZM242.709 132.032L240.786 134.272L241.272 134.688L243.195 132.448L242.709 132.032ZM241.067 134.798L259.971 132.558L259.895 131.922L240.992 134.162L241.067 134.798ZM259.933 131.92H233.34V132.56H259.933V131.92ZM241.35 130.32H243.592V129.68H241.35V130.32ZM241.67 130.64H245.835V130H241.67V130.64ZM241.99 130.96H248.398V130.32H241.99V130.96ZM241.99 131.28H250.641V130.64H241.99V131.28ZM242.311 131.6H252.884V130.96H242.311V131.6ZM242.631 131.92H255.447V131.28H242.631V131.92ZM242.952 132.24H257.69V131.6H242.952V132.24ZM242.952 132.56L259.933 132.56L259.933 131.92L242.952 131.92L242.952 132.56ZM242.952 132.88H257.37V132.24H242.952V132.88ZM242.631 133.2H254.806V132.56H242.631V133.2ZM242.311 133.52H251.923V132.88H242.311V133.52ZM241.99 133.84H249.36V133.2H241.99V133.84ZM241.67 134.16H246.476V133.52H241.67V134.16ZM241.35 134.48H243.913V133.84H241.35V134.48ZM267.623 131.92H259.933V132.56H267.623V131.92ZM259.933 131.92H208.348V132.56H259.933V131.92Z" fill="white"/>
    </g>
    <!--    15 S1-->
    <g class="group">
    </g>
    <!--    16 S2-->
    <g class="group">
    </g>
    <!--    17 S3-->
    <g class="group">
    </g>
    <!--    18 S4-->
    <g class="group">
    </g>
    <!--    19 I-->
    <g class="group">
    </g>
    <!--    20 I1-->
    <g class="group">
    </g>
    <!--    21 I2-->
    <g class="group">
    </g>
    <!--    22 H-->
    <g class="group">
    </g>
    <!--    23 H1-->
    <g class="group">
    </g>
    <!--    24 H2-->
    <g class="group">
    </g>
    <!--    25 h-->
    <g class="group">
        <path d="M0.335449 44.9512L20.4355 52.2584V54.8344L0.335449 47.5271V44.9512ZM12.8195 50.1023L12.7802 51.1602C11.8118 50.7989 10.9176 50.3206 10.0976 49.7255C9.26881 49.1271 8.54908 48.4477 7.9384 47.6873C7.32772 46.9269 6.85663 46.1152 6.52512 45.2521C6.18488 44.3765 6.01476 43.4838 6.01476 42.5741C6.01476 41.8315 6.11073 41.1981 6.30265 40.6738C6.48586 40.1463 6.78247 39.7482 7.1925 39.4796C7.60253 39.2016 8.13469 39.0702 8.78899 39.0853C9.43456 39.0972 10.2241 39.2728 11.1575 39.6122L20.4355 42.9851V45.575L11.1314 42.1925C10.3898 41.9229 9.79661 41.8233 9.35169 41.8936C8.89804 41.9608 8.57089 42.1806 8.37024 42.5533C8.16086 42.9227 8.05617 43.4323 8.05617 44.0821C8.05617 44.7226 8.18267 45.3534 8.43567 45.9745C8.68866 46.5863 9.03762 47.1633 9.48255 47.7057C9.92747 48.2387 10.4378 48.7167 11.0136 49.1395C11.5807 49.5499 12.1826 49.8708 12.8195 50.1023Z" fill="white"/>
        <path d="M106.461 2.32C106.638 2.32 106.781 2.17673 106.781 2C106.781 1.82327 106.638 1.68 106.461 1.68V2.32ZM25.7199 1.68C25.5431 1.68 25.3999 1.82327 25.3999 2C25.3999 2.17673 25.5431 2.32 25.7199 2.32V1.68ZM53.5948 96.7199C53.7715 96.7199 53.9148 96.5766 53.9148 96.3999C53.9148 96.2232 53.7715 96.0799 53.5948 96.0799V96.7199ZM25.7199 96.0799C25.5431 96.0799 25.3999 96.2232 25.3999 96.3999C25.3999 96.5766 25.5431 96.7199 25.7199 96.7199V96.0799ZM0.335449 44.9512L0.444783 44.6504C0.346681 44.6148 0.23735 44.6292 0.151855 44.6891C0.0663608 44.749 0.0154492 44.8468 0.0154492 44.9512H0.335449ZM20.4355 52.2584H20.7555C20.7555 52.1239 20.6713 52.0037 20.5448 51.9577L20.4355 52.2584ZM20.4355 54.8344L20.3262 55.1351C20.4243 55.1708 20.5336 55.1563 20.6191 55.0965C20.7046 55.0366 20.7555 54.9387 20.7555 54.8344H20.4355ZM0.335449 47.5271H0.0154492C0.0154492 47.6617 0.0996427 47.7819 0.226116 47.8279L0.335449 47.5271ZM12.8195 50.1023L13.1392 50.1142C13.1444 49.9754 13.0594 49.8491 12.9288 49.8016L12.8195 50.1023ZM12.7802 51.1602L12.6683 51.46C12.7646 51.4959 12.8723 51.4834 12.9578 51.4264C13.0433 51.3694 13.0962 51.2748 13.1 51.1721L12.7802 51.1602ZM10.0976 49.7255L10.2855 49.4665L10.2849 49.466L10.0976 49.7255ZM6.52512 45.2521L6.82384 45.1373L6.82339 45.1362L6.52512 45.2521ZM6.30265 40.6738L6.60319 40.7838L6.60494 40.7788L6.30265 40.6738ZM7.1925 39.4796L7.3679 39.7473L7.37205 39.7444L7.1925 39.4796ZM8.78899 39.0853L8.78161 39.4052L8.78309 39.4052L8.78899 39.0853ZM11.1575 39.6122L11.2669 39.3114L11.2669 39.3114L11.1575 39.6122ZM20.4355 42.9851H20.7555C20.7555 42.8506 20.6713 42.7304 20.5448 42.6844L20.4355 42.9851ZM20.4355 45.575L20.3262 45.8757C20.4243 45.9114 20.5336 45.897 20.6191 45.8371C20.7046 45.7772 20.7555 45.6794 20.7555 45.575H20.4355ZM11.1314 42.1925L11.2407 41.8918L11.2407 41.8918L11.1314 42.1925ZM9.35169 41.8936L9.39854 42.2102L9.40164 42.2097L9.35169 41.8936ZM8.37024 42.5533L8.6487 42.7111L8.65198 42.705L8.37024 42.5533ZM8.43567 45.9745L8.13931 46.0952L8.13995 46.0968L8.43567 45.9745ZM9.48255 47.7057L9.23514 47.9087L9.23688 47.9107L9.48255 47.7057ZM11.0136 49.1395L10.8242 49.3974L10.826 49.3987L11.0136 49.1395ZM33.4093 2L33.7271 1.96225C33.7081 1.80227 33.5731 1.68136 33.412 1.68001C33.2509 1.67867 33.1139 1.79731 33.0922 1.95695L33.4093 2ZM35.6521 20.88L35.444 21.1231C35.5441 21.2088 35.6866 21.2244 35.8028 21.1623C35.9191 21.1002 35.9854 20.9731 35.9699 20.8422L35.6521 20.88ZM30.8463 20.88L30.5293 20.8369C30.5119 20.9647 30.573 21.0905 30.6842 21.1558C30.7954 21.2212 30.935 21.2134 31.0382 21.1361L30.8463 20.88ZM33.4096 96.4L33.0925 96.4431C33.1142 96.6027 33.2511 96.7213 33.4123 96.72C33.5734 96.7187 33.7083 96.5977 33.7273 96.4378L33.4096 96.4ZM30.8463 77.52L31.0382 77.2639C30.935 77.1866 30.7954 77.1788 30.6842 77.2442C30.573 77.3095 30.5119 77.4353 30.5293 77.5631L30.8463 77.52ZM33.4096 79.44L33.4096 79.76L33.4096 79.76L33.4096 79.44ZM35.6521 77.52L35.9699 77.5578C35.9854 77.4269 35.9191 77.2998 35.8028 77.2377C35.6866 77.1757 35.5441 77.1912 35.444 77.2769L35.6521 77.52ZM53.5948 96.0799H25.7199V96.7199H53.5948V96.0799ZM0.226116 45.2519L20.3262 52.5592L20.5448 51.9577L0.444783 44.6504L0.226116 45.2519ZM20.1155 52.2584V54.8344H20.7555V52.2584H20.1155ZM20.5448 54.5336L0.444783 47.2264L0.226116 47.8279L20.3262 55.1351L20.5448 54.5336ZM0.655449 47.5271V44.9512H0.0154492V47.5271H0.655449ZM12.4997 50.0905L12.4604 51.1483L13.1 51.1721L13.1392 50.1142L12.4997 50.0905ZM12.8921 50.8604C11.9503 50.509 11.0817 50.0443 10.2855 49.4665L9.90963 49.9844C10.7536 50.5969 11.6734 51.0888 12.6683 51.46L12.8921 50.8604ZM10.2849 49.466C9.47828 48.8837 8.77975 48.2239 8.1879 47.487L7.6889 47.8877C8.31841 48.6716 9.05933 49.3706 9.91028 49.9849L10.2849 49.466ZM8.1879 47.487C7.59682 46.751 7.14284 45.9679 6.82384 45.1373L6.22639 45.3668C6.57042 46.2625 7.05862 47.1029 7.6889 47.8877L8.1879 47.487ZM6.82339 45.1362C6.49704 44.2963 6.33476 43.4429 6.33476 42.5741H5.69476C5.69476 43.5248 5.87272 44.4567 6.22684 45.368L6.82339 45.1362ZM6.33476 42.5741C6.33476 41.8574 6.4276 41.2633 6.60315 40.7838L6.00215 40.5638C5.79385 41.1328 5.69476 41.8057 5.69476 42.5741H6.33476ZM6.60494 40.7788C6.76834 40.3083 7.02503 39.9719 7.36788 39.7472L7.01712 39.2119C6.53992 39.5246 6.20337 39.9843 6.00037 40.5688L6.60494 40.7788ZM7.37205 39.7444C7.71175 39.5142 8.17267 39.3912 8.78161 39.4052L8.79636 38.7654C8.09671 38.7492 7.4933 38.8891 7.01295 39.2147L7.37205 39.7444ZM8.78309 39.4052C9.37971 39.4162 10.1321 39.5799 11.0482 39.9129L11.2669 39.3114C10.3161 38.9658 9.48942 38.7782 8.79489 38.7653L8.78309 39.4052ZM11.0482 39.9129L20.3262 43.2859L20.5448 42.6844L11.2669 39.3114L11.0482 39.9129ZM20.1155 42.9851V45.575H20.7555V42.9851H20.1155ZM20.5448 45.2742L11.2407 41.8918L11.022 42.4933L20.3262 45.8757L20.5448 45.2742ZM11.2407 41.8918C10.4814 41.6157 9.82664 41.4946 9.30173 41.5775L9.40164 42.2097C9.76657 42.152 10.2983 42.2302 11.022 42.4933L11.2407 41.8918ZM9.30483 41.5771C8.76095 41.6576 8.3415 41.9317 8.08849 42.4015L8.65198 42.705C8.80028 42.4296 9.03512 42.264 9.39854 42.2102L9.30483 41.5771ZM8.09184 42.3955C7.84445 42.832 7.73617 43.4039 7.73617 44.0821H8.37617C8.37617 43.4607 8.47727 43.0134 8.64864 42.711L8.09184 42.3955ZM7.73617 44.0821C7.73617 44.7659 7.87145 45.4376 8.13931 46.0952L8.73202 45.8538C8.4939 45.2692 8.37617 44.6793 8.37617 44.0821H7.73617ZM8.13995 46.0968C8.40569 46.7394 8.77143 47.3434 9.23515 47.9086L9.72995 47.5027C9.30382 46.9833 8.97163 46.4332 8.73138 45.8522L8.13995 46.0968ZM9.23688 47.9107C9.69882 48.4642 10.2282 48.9597 10.8242 49.3974L11.203 48.8816C10.6474 48.4736 10.1561 48.0133 9.72822 47.5006L9.23688 47.9107ZM10.826 49.3987C11.4163 49.8259 12.0445 50.1611 12.7101 50.4031L12.9288 49.8016C12.3208 49.5805 11.745 49.2738 11.2012 48.8803L10.826 49.3987ZM33.0916 2.03775L35.3343 20.9177L35.9699 20.8422L33.7271 1.96225L33.0916 2.03775ZM35.8602 20.6369L33.6174 18.7169L33.2012 19.203L35.444 21.1231L35.8602 20.6369ZM33.2175 18.7039L30.6545 20.6239L31.0382 21.1361L33.6012 19.2161L33.2175 18.7039ZM31.1634 20.923L33.7264 2.04305L33.0922 1.95695L30.5293 20.8369L31.1634 20.923ZM33.4093 2.63982H33.7297V1.99982H33.4093V2.63982ZM33.4093 2.95982H33.7297V2.31982H33.4093V2.95982ZM33.4093 3.27982H33.7297V2.63982H33.4093V3.27982ZM33.4093 3.59982H33.7297V2.95982H33.4093V3.59982ZM33.4093 3.91982H33.7297V3.27982H33.4093V3.91982ZM33.4093 4.23982H33.7297V3.59982H33.4093V4.23982ZM33.4093 4.55982H33.7297V3.91982H33.4093V4.55982ZM33.4094 19.28L35.6521 19.2798L35.6521 18.6398L33.4093 18.64L33.4094 19.28ZM34.0501 19.5998H35.6521V18.9598H34.0501V19.5998ZM34.3705 19.9198H35.6521V19.2798H34.3705V19.9198ZM34.6909 20.2398H35.6521V19.5998H34.6909V20.2398ZM35.0113 20.5598H35.6521V19.9198H35.0113V20.5598ZM35.3317 20.8798H35.6521V20.2398H35.3317V20.8798ZM31.1666 19.2798L33.4093 19.28L33.4094 18.64L31.1667 18.6398L31.1666 19.2798ZM31.1667 19.5998H33.0891V18.9598H31.1667V19.5998ZM31.1667 19.9198H32.7687V19.2798H31.1667V19.9198ZM31.1667 20.2398H32.1279V19.5998H31.1667V20.2398ZM31.1667 20.5598H31.8075V19.9198H31.1667V20.5598ZM31.1667 20.8798H31.4871V20.2398H31.1667V20.8798ZM33.7267 96.357L31.1634 77.477L30.5293 77.5631L33.0925 96.4431L33.7267 96.357ZM30.6545 77.7761L33.2177 79.6961L33.6014 79.1839L31.0382 77.2639L30.6545 77.7761ZM33.6177 79.6831L35.8602 77.7631L35.444 77.2769L33.2015 79.1969L33.6177 79.6831ZM35.3343 77.4823L33.0918 96.3623L33.7273 96.4378L35.9699 77.5578L35.3343 77.4823ZM31.1667 78.1598H31.4871V77.5198H31.1667V78.1598ZM31.1667 78.4798H31.8075V77.8398H31.1667V78.4798ZM31.1667 78.7998H32.1279V78.1598H31.1667V78.7998ZM31.1667 79.1198H32.7687V78.4798H31.1667V79.1198ZM31.1667 79.4398H33.0891V78.7998H31.1667V79.4398ZM31.1666 79.7598L33.4096 79.76L33.4096 79.12L31.1667 79.1198L31.1666 79.7598ZM35.3317 78.1598H35.6521V77.5198H35.3317V78.1598ZM35.0113 78.4798H35.6521V77.8398H35.0113V78.4798ZM34.6909 78.7998H35.6521V78.1598H34.6909V78.7998ZM34.3705 79.1198H35.6521V78.4798H34.3705V79.1198ZM34.0501 79.4398H35.6521V78.7998H34.0501V79.4398ZM33.4096 79.76L35.6521 79.7598L35.6521 79.1198L33.4096 79.12L33.4096 79.76ZM33.4093 94.4798H33.7297V93.8398H33.4093V94.4798ZM33.4093 94.7998H33.7297V94.1598H33.4093V94.7998ZM33.4093 95.1198H33.7297V94.4798H33.4093V95.1198ZM33.4093 95.4398H33.7297V94.7998H33.4093V95.4398ZM33.4093 95.7598H33.7297V95.1198H33.4093V95.7598ZM33.4093 96.0798H33.7297V95.4398H33.4093V96.0798ZM33.4093 96.3998H33.7297V95.7598H33.4093V96.3998ZM33.0893 2L33.0896 96.4L33.7296 96.4L33.7293 2L33.0893 2ZM25.7199 2.32H106.461V1.68H25.7199V2.32ZM33.089 4.87981L33.7297 4.87982L33.7297 4.23982L33.0891 4.23981L33.089 4.87981ZM33.0891 5.19981L34.0501 5.19982L34.0501 4.55982L33.0891 4.55981L33.0891 5.19981ZM33.0891 5.51981L34.0501 5.51983L34.0501 4.87983L33.0891 4.87981L33.0891 5.51981ZM33.0891 5.83981L34.0501 5.83982L34.0501 5.19982L33.0891 5.19981L33.0891 5.83981ZM33.0891 6.15981L34.0501 6.15983L34.0501 5.51983L33.0891 5.51981L33.0891 6.15981ZM33.0891 6.47981L34.0501 6.47983L34.0501 5.83983L33.0891 5.83981L33.0891 6.47981ZM33.0891 6.79981L34.0501 6.79983L34.0501 6.15983L33.0891 6.15981L33.0891 6.79981ZM32.7687 7.11981L34.0501 7.11983L34.0501 6.47983L32.7687 6.47981L32.7687 7.11981ZM32.7687 7.43981L34.0501 7.43983L34.0501 6.79983L32.7687 6.79981L32.7687 7.43981ZM32.7687 7.75981L34.3705 7.75983L34.3705 7.11983L32.7687 7.11981L32.7687 7.75981ZM32.7687 8.07981L34.3705 8.07983L34.3705 7.43983L32.7687 7.43981L32.7687 8.07981ZM32.7687 8.39981L34.3705 8.39983L34.3705 7.75983L32.7687 7.75981L32.7687 8.39981ZM32.7687 8.71981L34.3705 8.71983L34.3705 8.07983L32.7687 8.07981L32.7687 8.71981ZM32.7687 9.03981L34.3705 9.03983L34.3705 8.39983L32.7687 8.39981L32.7687 9.03981ZM32.7687 9.35981L34.3705 9.35983L34.3705 8.71983L32.7687 8.71981L32.7687 9.35981ZM32.4483 9.67981L34.3705 9.67983L34.3705 9.03983L32.4483 9.03981L32.4483 9.67981ZM32.4483 9.99981L34.3705 9.99983L34.3705 9.35983L32.4483 9.35981L32.4483 9.99981ZM32.4483 10.3198L34.3705 10.3198L34.3705 9.67983L32.4483 9.67981L32.4483 10.3198ZM32.4483 10.6398L34.6909 10.6398L34.6909 9.99983L32.4483 9.99981L32.4483 10.6398ZM32.4483 10.9598L34.6909 10.9598L34.6909 10.3198L32.4483 10.3198L32.4483 10.9598ZM32.4483 11.2798L34.6909 11.2798L34.6909 10.6398L32.4483 10.6398L32.4483 11.2798ZM32.4483 11.5998L34.6909 11.5998L34.6909 10.9598L32.4483 10.9598L32.4483 11.5998ZM32.1279 11.9198L34.6909 11.9198L34.6909 11.2798L32.1279 11.2798L32.1279 11.9198ZM32.1279 12.2398L34.6909 12.2398L34.6909 11.5998L32.1279 11.5998L32.1279 12.2398ZM32.1279 12.5598L34.6909 12.5598L34.6909 11.9198L32.1279 11.9198L32.1279 12.5598ZM32.1279 12.8798L34.6909 12.8798L34.6909 12.2398L32.1279 12.2398L32.1279 12.8798ZM32.1279 13.1998L35.0113 13.1998L35.0113 12.5598L32.1279 12.5598L32.1279 13.1998ZM32.1279 13.5198L35.0113 13.5198L35.0113 12.8798L32.1279 12.8798L32.1279 13.5198ZM32.1279 13.8398L35.0113 13.8398L35.0113 13.1998L32.1279 13.1998L32.1279 13.8398ZM31.8075 14.1598L35.0113 14.1598L35.0113 13.5198L31.8075 13.5198L31.8075 14.1598ZM31.8075 14.4798L35.0113 14.4798L35.0113 13.8398L31.8075 13.8398L31.8075 14.4798ZM31.8075 14.7998L35.0113 14.7998L35.0113 14.1598L31.8075 14.1598L31.8075 14.7998ZM31.8075 15.1198L35.0113 15.1198L35.0113 14.4798L31.8075 14.4798L31.8075 15.1198ZM31.8075 15.4398L35.0113 15.4398L35.0113 14.7998L31.8075 14.7998L31.8075 15.4398ZM31.8075 15.7598L35.0113 15.7598L35.0113 15.1198L31.8075 15.1198L31.8075 15.7598ZM31.8075 16.0798L35.3317 16.0798L35.3317 15.4398L31.8075 15.4398L31.8075 16.0798ZM31.8075 16.3998L35.3317 16.3998L35.3317 15.7598L31.8075 15.7598L31.8075 16.3998ZM31.4871 16.7198L35.3317 16.7198L35.3317 16.0798L31.4871 16.0798L31.4871 16.7198ZM31.4871 17.0398L35.3317 17.0398L35.3317 16.3998L31.4871 16.3998L31.4871 17.0398ZM31.4871 17.3598L35.3317 17.3598L35.3317 16.7198L31.4871 16.7198L31.4871 17.3598ZM31.4871 17.6798L35.3317 17.6798L35.3317 17.0398L31.4871 17.0398L31.4871 17.6798ZM31.4871 17.9998L35.3317 17.9998L35.3317 17.3598L31.4871 17.3598L31.4871 17.9998ZM31.4871 18.3198L35.3317 18.3198L35.3317 17.6798L31.4871 17.6798L31.4871 18.3198ZM31.4871 18.6398L35.6521 18.6398L35.6521 17.9998L31.4871 17.9998L31.4871 18.6398ZM31.1667 18.9598L35.6521 18.9598L35.6521 18.3198L31.1667 18.3198L31.1667 18.9598ZM31.1667 80.0798H35.6521V79.4398H31.1667V80.0798ZM31.4871 80.3998H35.6521V79.7598H31.4871V80.3998ZM31.4871 80.7198H35.3317V80.0798H31.4871V80.7198ZM31.4871 81.0398H35.3317V80.3998H31.4871V81.0398ZM31.4871 81.3598H35.3317V80.7198H31.4871V81.3598ZM31.4871 81.6798H35.3317V81.0398H31.4871V81.6798ZM31.4871 81.9998H35.3317V81.3598H31.4871V81.9998ZM31.4871 82.3198L35.3317 82.3198L35.3317 81.6798L31.4871 81.6798L31.4871 82.3198ZM31.8075 82.6398L35.3317 82.6398L35.3317 81.9998L31.8075 81.9998L31.8075 82.6398ZM31.8075 82.9598L35.3317 82.9598L35.3317 82.3198L31.8075 82.3198L31.8075 82.9598ZM31.8075 83.2798L35.0113 83.2798L35.0113 82.6398L31.8075 82.6398L31.8075 83.2798ZM31.8075 83.5998L35.0113 83.5998L35.0113 82.9598L31.8075 82.9598L31.8075 83.5998ZM31.8075 83.9198L35.0113 83.9198L35.0113 83.2798L31.8075 83.2798L31.8075 83.9198ZM31.8075 84.2398L35.0113 84.2398L35.0113 83.5998L31.8075 83.5998L31.8075 84.2398ZM31.8075 84.5598L35.0113 84.5598L35.0113 83.9198L31.8075 83.9198L31.8075 84.5598ZM31.8075 84.8798L35.0113 84.8798L35.0113 84.2398L31.8075 84.2398L31.8075 84.8798ZM32.1279 85.1998L35.0113 85.1998L35.0113 84.5598L32.1279 84.5598L32.1279 85.1998ZM32.1279 85.5198L35.0113 85.5198L35.0113 84.8798L32.1279 84.8798L32.1279 85.5198ZM32.1279 85.8398L35.0113 85.8398L35.0113 85.1998L32.1279 85.1998L32.1279 85.8398ZM32.1279 86.1598L34.6909 86.1598L34.6909 85.5198L32.1279 85.5198L32.1279 86.1598ZM32.1279 86.4798L34.6909 86.4798L34.6909 85.8398L32.1279 85.8398L32.1279 86.4798ZM32.1279 86.7998L34.6909 86.7998L34.6909 86.1598L32.1279 86.1598L32.1279 86.7998ZM32.1279 87.1198L34.6909 87.1198L34.6909 86.4798L32.1279 86.4798L32.1279 87.1198ZM32.4483 87.4398L34.6909 87.4398L34.6909 86.7998L32.4483 86.7998L32.4483 87.4398ZM32.4483 87.7598L34.6909 87.7598L34.6909 87.1198L32.4483 87.1198L32.4483 87.7598ZM32.4483 88.0798L34.6909 88.0798L34.6909 87.4398L32.4483 87.4398L32.4483 88.0798ZM32.4483 88.3998L34.6909 88.3998L34.6909 87.7598L32.4483 87.7598L32.4483 88.3998ZM32.4483 88.7198H34.3705V88.0798H32.4483V88.7198ZM32.4483 89.0398H34.3705V88.3998H32.4483V89.0398ZM32.4483 89.3598H34.3705V88.7198H32.4483V89.3598ZM32.7687 89.6798H34.3705V89.0398H32.7687V89.6798ZM32.7687 89.9998H34.3705V89.3598H32.7687V89.9998ZM32.7687 90.3198H34.3705V89.6798H32.7687V90.3198ZM32.7687 90.6398L34.3705 90.6398L34.3705 89.9998L32.7687 89.9998L32.7687 90.6398ZM32.7687 90.9598L34.3705 90.9598L34.3705 90.3198L32.7687 90.3198L32.7687 90.9598ZM32.7687 91.2798L34.3705 91.2798L34.3705 90.6398L32.7687 90.6398L32.7687 91.2798ZM32.7687 91.5998L34.0501 91.5998L34.0501 90.9598L32.7687 90.9598L32.7687 91.5998ZM32.7687 91.9198L34.0501 91.9198L34.0501 91.2798L32.7687 91.2798L32.7687 91.9198ZM33.0891 92.2398L34.0501 92.2398L34.0501 91.5998L33.0891 91.5998L33.0891 92.2398ZM33.0891 92.5598L34.0501 92.5598L34.0501 91.9198L33.0891 91.9198L33.0891 92.5598ZM33.0891 92.8798L34.0501 92.8798L34.0501 92.2398L33.0891 92.2398L33.0891 92.8798ZM33.0891 93.1998L34.0501 93.1998L34.0501 92.5598L33.0891 92.5598L33.0891 93.1998ZM33.0891 93.5198L34.0501 93.5198L34.0501 92.8798L33.0891 92.8798L33.0891 93.5198ZM33.0891 93.8398L34.0501 93.8398L34.0501 93.1998L33.0891 93.1998L33.0891 93.8398ZM33.0891 94.1598L33.7297 94.1598L33.7297 93.5198L33.0891 93.5198L33.0891 94.1598Z" fill="white"/>
    </g>
    <!--    26 h1-->
    <g class="group">
    </g>
    <!--    27 h2-->
    <g class="group">
    </g>
    <!--    28 R-->
    <g class="group">
    </g>
    <!--    29 Deg-->
    <g class="group">
    </g>
    <!--    29 DN-->
    <g class="group">
    </g>

</svg>
