<svg width="550" height="217" viewBox="0 0 550 217" fill="none" xmlns="http://www.w3.org/2000/svg">
<rect width="550" height="217" fill="none"/>
<path d="M9.3623 147.985L14.4838 158.435L9.3623 147.985Z" stroke="white" stroke-width="2.24" stroke-miterlimit="10" stroke-linecap="round" stroke-linejoin="round"/>
<path d="M14.4839 158.436L20.2456 168.569L14.4839 158.436Z" stroke="white" stroke-width="2.24" stroke-miterlimit="10" stroke-linecap="round" stroke-linejoin="round"/>
<path d="M20.2456 168.569L27.6078 177.753L20.2456 168.569Z" stroke="white" stroke-width="2.24" stroke-miterlimit="10" stroke-linecap="round" stroke-linejoin="round"/>
<path d="M27.6079 177.752L35.6103 185.986L27.6079 177.752Z" stroke="white" stroke-width="2.24" stroke-miterlimit="10" stroke-linecap="round" stroke-linejoin="round"/>
<path d="M35.6101 185.986L44.5728 193.586L35.6101 185.986Z" stroke="white" stroke-width="2.24" stroke-miterlimit="10" stroke-linecap="round" stroke-linejoin="round"/>
<path d="M44.573 193.586L54.1759 200.236L44.573 193.586Z" stroke="white" stroke-width="2.24" stroke-miterlimit="10" stroke-linecap="round" stroke-linejoin="round"/>
<path d="M54.1758 200.236L64.739 205.62L54.1758 200.236Z" stroke="white" stroke-width="2.24" stroke-miterlimit="10" stroke-linecap="round" stroke-linejoin="round"/>
<path d="M64.739 205.62L75.6223 209.736L64.739 205.62Z" stroke="white" stroke-width="2.24" stroke-miterlimit="10" stroke-linecap="round" stroke-linejoin="round"/>
<path d="M75.6223 209.736L86.8257 212.903L75.6223 209.736Z" stroke="white" stroke-width="2.24" stroke-miterlimit="10" stroke-linecap="round" stroke-linejoin="round"/>
<path d="M86.8257 212.903L98.3492 214.486L86.8257 212.903Z" stroke="white" stroke-width="2.24" stroke-miterlimit="10" stroke-linecap="round" stroke-linejoin="round"/>
<path d="M98.3491 214.486L110.193 215.12L98.3491 214.486Z" stroke="white" stroke-width="2.24" stroke-miterlimit="10" stroke-linecap="round" stroke-linejoin="round"/>
<path d="M110.193 215.12L122.036 214.486L110.193 215.12Z" stroke="white" stroke-width="2.24" stroke-miterlimit="10" stroke-linecap="round" stroke-linejoin="round"/>
<path d="M122.036 214.486L133.56 212.586L122.036 214.486Z" stroke="white" stroke-width="2.24" stroke-miterlimit="10" stroke-linecap="round" stroke-linejoin="round"/>
<path d="M133.56 212.586L144.763 209.42L133.56 212.586Z" stroke="white" stroke-width="2.24" stroke-miterlimit="10" stroke-linecap="round" stroke-linejoin="round"/>
<path d="M144.763 209.42L155.646 204.986L144.763 209.42Z" stroke="white" stroke-width="2.24" stroke-miterlimit="10" stroke-linecap="round" stroke-linejoin="round"/>
<path d="M155.646 204.986L165.889 199.286L155.646 204.986Z" stroke="white" stroke-width="2.24" stroke-miterlimit="10" stroke-linecap="round" stroke-linejoin="round"/>
<path d="M165.889 199.286L175.492 192.636L165.889 199.286Z" stroke="white" stroke-width="2.24" stroke-miterlimit="10" stroke-linecap="round" stroke-linejoin="round"/>
<path d="M175.492 192.636L184.455 185.036L175.492 192.636Z" stroke="white" stroke-width="2.24" stroke-miterlimit="10" stroke-linecap="round" stroke-linejoin="round"/>
<path d="M184.455 185.036L192.457 176.802L184.455 185.036Z" stroke="white" stroke-width="2.24" stroke-miterlimit="10" stroke-linecap="round" stroke-linejoin="round"/>
<path d="M192.458 176.802L199.5 167.302L192.458 176.802Z" stroke="white" stroke-width="2.24" stroke-miterlimit="10" stroke-linecap="round" stroke-linejoin="round"/>
<path d="M199.5 167.302L205.261 157.169L199.5 167.302Z" stroke="white" stroke-width="2.24" stroke-miterlimit="10" stroke-linecap="round" stroke-linejoin="round"/>
<path d="M205.261 157.169L210.063 146.719L205.261 157.169Z" stroke="white" stroke-width="2.24" stroke-miterlimit="10" stroke-linecap="round" stroke-linejoin="round"/>
<path d="M210.063 146.719L213.904 135.635L210.063 146.719Z" stroke="white" stroke-width="2.24" stroke-miterlimit="10" stroke-linecap="round" stroke-linejoin="round"/>
<path d="M213.904 135.635L216.144 124.235L213.904 135.635Z" stroke="white" stroke-width="2.24" stroke-miterlimit="10" stroke-linecap="round" stroke-linejoin="round"/>
<path d="M216.145 124.235L217.105 112.518L216.145 124.235Z" stroke="white" stroke-width="2.24" stroke-miterlimit="10" stroke-linecap="round" stroke-linejoin="round"/>
<path d="M217.105 112.518V101.118V112.518Z" stroke="white" stroke-width="2.24" stroke-miterlimit="10" stroke-linecap="round" stroke-linejoin="round"/>
<path d="M217.105 101.118L215.504 89.4011L217.105 101.118Z" stroke="white" stroke-width="2.24" stroke-miterlimit="10" stroke-linecap="round" stroke-linejoin="round"/>
<path d="M215.504 89.4012L213.584 80.5344L215.504 89.4012Z" stroke="white" stroke-width="2.24" stroke-miterlimit="10" stroke-linecap="round" stroke-linejoin="round"/>
<path d="M209.743 69.1342L204.941 58.6841L209.743 69.1342Z" stroke="white" stroke-width="2.24" stroke-miterlimit="10" stroke-linecap="round" stroke-linejoin="round"/>
<path d="M204.941 58.684L198.859 48.8672L204.941 58.684Z" stroke="white" stroke-width="2.24" stroke-miterlimit="10" stroke-linecap="round" stroke-linejoin="round"/>
<path d="M198.859 48.8673L191.497 39.6838L198.859 48.8673Z" stroke="white" stroke-width="2.24" stroke-miterlimit="10" stroke-linecap="round" stroke-linejoin="round"/>
<path d="M191.497 39.6837L183.495 31.1335L191.497 39.6837Z" stroke="white" stroke-width="2.24" stroke-miterlimit="10" stroke-linecap="round" stroke-linejoin="round"/>
<path d="M183.495 31.1336L174.532 23.5334L183.495 31.1336Z" stroke="white" stroke-width="2.24" stroke-miterlimit="10" stroke-linecap="round" stroke-linejoin="round"/>
<path d="M174.532 23.5336L164.929 17.2002L174.532 23.5336Z" stroke="white" stroke-width="2.24" stroke-miterlimit="10" stroke-linecap="round" stroke-linejoin="round"/>
<path d="M164.929 17.2001L154.366 11.8167L164.929 17.2001Z" stroke="white" stroke-width="2.24" stroke-miterlimit="10" stroke-linecap="round" stroke-linejoin="round"/>
<path d="M154.366 11.8167L143.483 7.3833L154.366 11.8167Z" stroke="white" stroke-width="2.24" stroke-miterlimit="10" stroke-linecap="round" stroke-linejoin="round"/>
<path d="M143.483 7.38326L132.279 4.5332L143.483 7.38326Z" stroke="white" stroke-width="2.24" stroke-miterlimit="10" stroke-linecap="round" stroke-linejoin="round"/>
<path d="M132.279 4.53333L120.756 2.6333L132.279 4.53333Z" stroke="white" stroke-width="2.24" stroke-miterlimit="10" stroke-linecap="round" stroke-linejoin="round"/>
<path d="M120.756 2.63334L108.912 2L120.756 2.63334Z" stroke="white" stroke-width="2.24" stroke-miterlimit="10" stroke-linecap="round" stroke-linejoin="round"/>
<path d="M108.912 2L97.0686 2.63334L108.912 2Z" stroke="white" stroke-width="2.24" stroke-miterlimit="10" stroke-linecap="round" stroke-linejoin="round"/>
<path d="M97.0686 2.6333L85.5452 4.53333L97.0686 2.6333Z" stroke="white" stroke-width="2.24" stroke-miterlimit="10" stroke-linecap="round" stroke-linejoin="round"/>
<path d="M85.5452 4.5332L74.3418 8.01659L85.5452 4.5332Z" stroke="white" stroke-width="2.24" stroke-miterlimit="10" stroke-linecap="round" stroke-linejoin="round"/>
<path d="M74.3418 8.0166L63.4585 12.1333L74.3418 8.0166Z" stroke="white" stroke-width="2.24" stroke-miterlimit="10" stroke-linecap="round" stroke-linejoin="round"/>
<path d="M63.4587 12.1333L53.2156 17.8334L63.4587 12.1333Z" stroke="white" stroke-width="2.24" stroke-miterlimit="10" stroke-linecap="round" stroke-linejoin="round"/>
<path d="M53.2154 17.8335L43.6125 24.4836L53.2154 17.8335Z" stroke="white" stroke-width="2.24" stroke-miterlimit="10" stroke-linecap="round" stroke-linejoin="round"/>
<path d="M43.6126 24.4836L34.6499 32.0838L43.6126 24.4836Z" stroke="white" stroke-width="2.24" stroke-miterlimit="10" stroke-linecap="round" stroke-linejoin="round"/>
<path d="M34.6499 32.0837L26.6475 40.6339L34.6499 32.0837Z" stroke="white" stroke-width="2.24" stroke-miterlimit="10" stroke-linecap="round" stroke-linejoin="round"/>
<path d="M26.6476 40.6338L19.6055 49.8173L26.6476 40.6338Z" stroke="white" stroke-width="2.24" stroke-miterlimit="10" stroke-linecap="round" stroke-linejoin="round"/>
<path d="M19.6055 49.8171L13.8438 59.9506L19.6055 49.8171Z" stroke="white" stroke-width="2.24" stroke-miterlimit="10" stroke-linecap="round" stroke-linejoin="round"/>
<path d="M13.8437 59.9507L9.04224 70.4008L13.8437 59.9507Z" stroke="white" stroke-width="2.24" stroke-miterlimit="10" stroke-linecap="round" stroke-linejoin="round"/>
<path d="M9.04233 70.4009L5.20117 81.4844L9.04233 70.4009Z" stroke="white" stroke-width="2.24" stroke-miterlimit="10" stroke-linecap="round" stroke-linejoin="round"/>
<path d="M5.20114 81.4844L2.96045 92.8845L5.20114 81.4844Z" stroke="white" stroke-width="2.24" stroke-miterlimit="10" stroke-linecap="round" stroke-linejoin="round"/>
<path d="M2.96028 92.8845L2 104.601L2.96028 92.8845Z" stroke="white" stroke-width="2.24" stroke-miterlimit="10" stroke-linecap="round" stroke-linejoin="round"/>
<path d="M2 104.601V116.001V104.601Z" stroke="white" stroke-width="2.24" stroke-miterlimit="10" stroke-linecap="round" stroke-linejoin="round"/>
<path d="M2 116.002L3.60048 127.719L2 116.002Z" stroke="white" stroke-width="2.24" stroke-miterlimit="10" stroke-linecap="round" stroke-linejoin="round"/>
<path d="M3.60059 127.719L5.52116 136.585L3.60059 127.719Z" stroke="white" stroke-width="2.24" stroke-miterlimit="10" stroke-linecap="round" stroke-linejoin="round"/>
<path d="M279.203 108.718H494.628H279.203Z" stroke="white" stroke-width="2.24" stroke-miterlimit="10" stroke-linecap="round" stroke-linejoin="round"/>
<path d="M494.628 108.718V97.3179V108.718Z" stroke="white" stroke-width="2.24" stroke-miterlimit="10" stroke-linecap="round" stroke-linejoin="round"/>
<path d="M494.628 97.3179H279.203H494.628Z" stroke="white" stroke-width="2.24" stroke-miterlimit="10" stroke-linecap="round" stroke-linejoin="round"/>
<path d="M279.203 97.3179V108.718V97.3179Z" stroke="white" stroke-width="2.24" stroke-miterlimit="10" stroke-linecap="round" stroke-linejoin="round"/>
<path d="M478.944 108.718L490.467 97.3179L478.944 108.718Z" stroke="white" stroke-width="0.64" stroke-miterlimit="10" stroke-linecap="round" stroke-linejoin="round"/>
<path d="M462.939 108.718L474.142 97.3179L462.939 108.718Z" stroke="white" stroke-width="0.64" stroke-miterlimit="10" stroke-linecap="round" stroke-linejoin="round"/>
<path d="M446.934 108.718L458.137 97.3179L446.934 108.718Z" stroke="white" stroke-width="0.64" stroke-miterlimit="10" stroke-linecap="round" stroke-linejoin="round"/>
<path d="M430.929 108.718L442.132 97.3179L430.929 108.718Z" stroke="white" stroke-width="0.64" stroke-miterlimit="10" stroke-linecap="round" stroke-linejoin="round"/>
<path d="M414.924 108.718L426.128 97.3179L414.924 108.718Z" stroke="white" stroke-width="0.64" stroke-miterlimit="10" stroke-linecap="round" stroke-linejoin="round"/>
<path d="M398.919 108.718L410.123 97.3179L398.919 108.718Z" stroke="white" stroke-width="0.64" stroke-miterlimit="10" stroke-linecap="round" stroke-linejoin="round"/>
<path d="M382.594 108.718L394.118 97.3179L382.594 108.718Z" stroke="white" stroke-width="0.64" stroke-miterlimit="10" stroke-linecap="round" stroke-linejoin="round"/>
<path d="M366.59 108.718L378.113 97.3179L366.59 108.718Z" stroke="white" stroke-width="0.64" stroke-miterlimit="10" stroke-linecap="round" stroke-linejoin="round"/>
<path d="M350.585 108.718L362.108 97.3179L350.585 108.718Z" stroke="white" stroke-width="0.64" stroke-miterlimit="10" stroke-linecap="round" stroke-linejoin="round"/>
<path d="M334.58 108.718L346.104 97.3179L334.58 108.718Z" stroke="white" stroke-width="0.64" stroke-miterlimit="10" stroke-linecap="round" stroke-linejoin="round"/>
<path d="M318.575 108.718L329.779 97.3179L318.575 108.718Z" stroke="white" stroke-width="0.64" stroke-miterlimit="10" stroke-linecap="round" stroke-linejoin="round"/>
<path d="M302.571 108.718L313.774 97.3179L302.571 108.718Z" stroke="white" stroke-width="0.64" stroke-miterlimit="10" stroke-linecap="round" stroke-linejoin="round"/>
<path d="M286.566 108.718L297.769 97.3179L286.566 108.718Z" stroke="white" stroke-width="0.64" stroke-miterlimit="10" stroke-linecap="round" stroke-linejoin="round"/>
<path d="M279.203 99.8512L281.764 97.3179L279.203 99.8512Z" stroke="white" stroke-width="0.64" stroke-miterlimit="10" stroke-linecap="round" stroke-linejoin="round"/>

    <!--    1 A-->
    <g class="group">
    </g>
    <!--    2 D-->
    <g class="group">
        <path d="M105.094 96.9946L101.074 98.3221L101.16 96.1281L105.153 94.8093C106.528 94.3552 107.682 93.6752 108.615 92.7693C109.548 91.8541 110.259 90.7733 110.747 89.527C111.244 88.2685 111.513 86.9015 111.553 85.4261L111.587 84.1874C111.618 83.0275 111.514 82.0412 111.274 81.2284C111.034 80.4064 110.667 79.7689 110.173 79.3161C109.679 78.854 109.066 78.5828 108.335 78.5025C107.612 78.4194 106.774 78.535 105.823 78.8494L101.486 80.2817L101.546 78.0826L105.882 76.6503C107.143 76.234 108.287 76.0768 109.315 76.1786C110.343 76.2712 111.221 76.6114 111.947 77.1991C112.683 77.7746 113.237 78.5846 113.611 79.6291C113.984 80.6644 114.151 81.9151 114.111 83.3812L114.078 84.5921C114.039 86.0582 113.8 87.4474 113.362 88.7598C112.925 90.0629 112.312 91.254 111.523 92.3331C110.742 93.4093 109.808 94.3477 108.721 95.1483C107.642 95.9366 106.433 96.5521 105.094 96.9946ZM102.987 77.6066L102.436 97.8723L99.8843 98.7151L100.435 78.4494L102.987 77.6066Z" fill="white"/>
        <path d="M7.43994 142.285L7.22163 141.835C6.99629 141.945 6.88664 142.204 6.96511 142.442C7.04358 142.68 7.28596 142.823 7.53214 142.777L7.43994 142.285ZM24.405 134.052L24.8789 134.211C24.9432 134.02 24.8867 133.81 24.7355 133.677C24.5843 133.543 24.368 133.514 24.1867 133.602L24.405 134.052ZM26.0056 138.802L26.0978 139.293C26.2931 139.257 26.4482 139.108 26.4928 138.914C26.5374 138.72 26.4631 138.519 26.3035 138.4L26.0056 138.802ZM211.661 74.8342L211.88 75.2841C212.105 75.1747 212.215 74.9155 212.136 74.6776C212.058 74.4397 211.815 74.2966 211.569 74.3428L211.661 74.8342ZM194.696 83.0677L194.222 82.908C194.158 83.0989 194.215 83.3098 194.366 83.4429C194.517 83.5761 194.733 83.6055 194.915 83.5175L194.696 83.0677ZM193.096 78.3176L193.004 77.8262C192.808 77.8629 192.653 78.0117 192.609 78.2054C192.564 78.399 192.638 78.6007 192.798 78.7192L193.096 78.3176ZM105.094 96.9946L104.937 96.5198L104.937 96.5198L105.094 96.9946ZM101.074 98.3221L100.575 98.3025L100.546 99.023L101.231 98.7968L101.074 98.3221ZM101.16 96.1281L101.003 95.6533L100.674 95.7621L100.66 96.1085L101.16 96.1281ZM105.153 94.8093L105.31 95.2841L105.31 95.2841L105.153 94.8093ZM108.615 92.7693L108.963 93.128L108.965 93.1263L108.615 92.7693ZM110.747 89.527L110.282 89.3433L110.282 89.3447L110.747 89.527ZM111.553 85.4261L112.053 85.4397L112.053 85.4397L111.553 85.4261ZM111.587 84.1874L111.087 84.1738L111.087 84.1738L111.587 84.1874ZM111.274 81.2284L110.794 81.3684L110.795 81.37L111.274 81.2284ZM110.173 79.3161L109.831 79.6813L109.835 79.6848L110.173 79.3161ZM108.335 78.5025L108.277 78.9993L108.28 78.9996L108.335 78.5025ZM105.823 78.8494L105.666 78.3747L105.666 78.3747L105.823 78.8494ZM101.486 80.2817L100.986 80.2681L100.967 80.9797L101.643 80.7565L101.486 80.2817ZM101.546 78.0826L101.389 77.6078L101.055 77.7179L101.046 78.069L101.546 78.0826ZM105.882 76.6503L105.725 76.1755L105.725 76.1755L105.882 76.6503ZM109.315 76.1786L109.266 76.6762L109.27 76.6766L109.315 76.1786ZM111.947 77.1991L111.633 77.5879L111.639 77.5929L111.947 77.1991ZM113.611 79.6291L113.14 79.7974L113.14 79.7989L113.611 79.6291ZM114.111 83.3812L114.611 83.3948L114.611 83.3948L114.111 83.3812ZM114.078 84.5921L113.579 84.5785L113.579 84.5785L114.078 84.5921ZM113.362 88.7598L113.836 88.9189L113.837 88.9179L113.362 88.7598ZM111.523 92.3331L111.119 92.0379L111.118 92.0396L111.523 92.3331ZM108.721 95.1483L109.016 95.5519L109.017 95.5509L108.721 95.1483ZM102.987 77.6066L103.487 77.6202L103.506 76.9085L102.83 77.1318L102.987 77.6066ZM102.436 97.8723L102.593 98.3471L102.926 98.2369L102.936 97.8859L102.436 97.8723ZM99.8843 98.7151L99.3845 98.7015L99.3652 99.4131L100.041 99.1898L99.8843 98.7151ZM100.435 78.4494L100.278 77.9746L99.9448 78.0847L99.9352 78.4358L100.435 78.4494ZM7.65825 142.735L24.6234 134.502L24.1867 133.602L7.22163 141.835L7.65825 142.735ZM23.9312 133.892L22.971 136.742L23.9187 137.061L24.8789 134.211L23.9312 133.892ZM23.1469 137.303L25.7076 139.203L26.3035 138.4L23.7428 136.5L23.1469 137.303ZM25.9134 138.31L7.34774 141.794L7.53214 142.777L26.0978 139.293L25.9134 138.31ZM23.7649 134.868H24.4051V133.868H23.7649V134.868ZM23.1248 135.185H24.4051V134.185H23.1248V135.185ZM22.4846 135.502H24.085V134.502H22.4846V135.502ZM21.8444 135.818H24.085V134.818H21.8444V135.818ZM21.2042 136.135H24.085V135.135H21.2042V136.135ZM20.564 136.452H23.7649V135.452H20.564V136.452ZM19.9238 136.768H23.7649V135.768H19.9238V136.768ZM19.2836 137.085H23.7649V136.085H19.2836V137.085ZM18.6434 137.402L23.4448 137.402L23.4448 136.402L18.6434 136.402L18.6434 137.402ZM8.40039 142.469H9.36068V141.469H8.40039V142.469ZM211.443 74.3844L194.478 82.6179L194.915 83.5175L211.88 75.2841L211.443 74.3844ZM195.17 83.2273L196.13 80.3774L195.183 80.0581L194.222 82.908L195.17 83.2273ZM195.955 79.8162L193.394 77.9161L192.798 78.7192L195.359 80.6193L195.955 79.8162ZM193.188 78.8091L211.754 75.3257L211.569 74.3428L193.004 77.8262L193.188 78.8091ZM195.657 80.7178L200.778 80.7176L200.778 79.7176L195.657 79.7178L195.657 80.7178ZM195.657 81.0343H200.138V80.0343H195.657V81.0343ZM195.657 81.3509H199.498V80.3509H195.657V81.3509ZM195.336 81.6676H198.857V80.6676H195.336V81.6676ZM195.336 81.9843H198.217V80.9843H195.336V81.9843ZM195.336 82.301H197.577V81.301H195.336V82.301ZM195.016 82.6176H196.937V81.6176H195.016V82.6176ZM195.016 82.9343H196.297V81.9343H195.016V82.9343ZM195.016 83.251H195.657V82.251H195.016V83.251ZM210.061 75.6509H211.021V74.6509H210.061V75.6509ZM7.59675 142.76L211.818 75.309L211.505 74.3595L7.28313 141.81L7.59675 142.76ZM104.937 96.5198L100.917 97.8473L101.231 98.7968L105.25 97.4694L104.937 96.5198ZM101.574 98.3416L101.66 96.1476L100.66 96.1085L100.575 98.3025L101.574 98.3416ZM101.317 96.6029L105.31 95.2841L104.996 94.3346L101.003 95.6533L101.317 96.6029ZM105.31 95.2841C106.748 94.809 107.97 94.0923 108.963 93.128L108.267 92.4105C107.394 93.2581 106.308 93.9014 104.996 94.3346L105.31 95.2841ZM108.965 93.1263C109.95 92.1605 110.7 91.0198 111.213 89.7093L110.282 89.3447C109.819 90.5269 109.147 91.5477 108.265 92.4123L108.965 93.1263ZM111.212 89.7107C111.733 88.3932 112.011 86.9681 112.053 85.4397L111.053 85.4126C111.015 86.8349 110.756 88.1437 110.282 89.3433L111.212 89.7107ZM112.053 85.4397L112.087 84.201L111.087 84.1738L111.053 85.4126L112.053 85.4397ZM112.087 84.201C112.119 83.0066 112.013 81.9646 111.754 81.0868L110.795 81.37C111.015 82.1177 111.118 83.0484 111.087 84.1738L112.087 84.201ZM111.754 81.0884C111.496 80.2026 111.089 79.477 110.511 78.9474L109.835 79.6848C110.246 80.0609 110.573 80.6102 110.794 81.3684L111.754 81.0884ZM110.515 78.9509C109.935 78.4084 109.218 78.0964 108.389 78.0055L108.28 78.9996C108.914 79.0691 109.423 79.2995 109.832 79.6813L110.515 78.9509ZM108.392 78.0058C107.575 77.9119 106.662 78.0456 105.666 78.3747L105.979 79.3242C106.887 79.0245 107.649 78.9269 108.277 78.9993L108.392 78.0058ZM105.666 78.3747L101.329 79.8069L101.643 80.7565L105.979 79.3242L105.666 78.3747ZM101.986 80.2953L102.045 78.0961L101.046 78.069L100.986 80.2681L101.986 80.2953ZM101.702 78.5573L106.039 77.125L105.725 76.1755L101.389 77.6078L101.702 78.5573ZM106.039 77.125C107.251 76.7247 108.324 76.5829 109.266 76.6762L109.364 75.6811C108.25 75.5706 107.034 75.7433 105.725 76.1755L106.039 77.125ZM109.27 76.6766C110.21 76.7613 110.991 77.0689 111.633 77.5878L112.262 76.8103C111.45 76.1538 110.476 75.7812 109.36 75.6807L109.27 76.6766ZM111.639 77.5929C112.287 78.0999 112.792 78.825 113.14 79.7974L114.081 79.4608C113.682 78.3441 113.078 77.4492 112.255 76.8053L111.639 77.5929ZM113.14 79.7989C113.487 80.7594 113.65 81.9443 113.612 83.3676L114.611 83.3948C114.652 81.8858 114.482 80.5693 114.081 79.4594L113.14 79.7989ZM113.612 83.3676L113.579 84.5785L114.578 84.6057L114.611 83.3948L113.612 83.3676ZM113.579 84.5785C113.54 85.9984 113.309 87.3387 112.888 88.6017L113.837 88.9179C114.291 87.5562 114.537 86.118 114.578 84.6057L113.579 84.5785ZM112.888 88.6008C112.467 89.8565 111.877 91.0015 111.119 92.0379L111.926 92.6283C112.747 91.5065 113.383 90.2693 113.836 88.9189L112.888 88.6008ZM111.118 92.0396C110.368 93.0734 109.471 93.9751 108.424 94.7456L109.017 95.5509C110.146 94.7203 111.116 93.7453 111.927 92.6267L111.118 92.0396ZM108.426 94.7446C107.392 95.5005 106.23 96.0927 104.937 96.5198L105.25 97.4694C106.637 97.0114 107.893 96.3728 109.016 95.5519L108.426 94.7446ZM102.487 77.593L101.936 97.8587L102.936 97.8859L103.487 77.6202L102.487 77.593ZM102.279 97.3975L99.7275 98.2403L100.041 99.1898L102.593 98.3471L102.279 97.3975ZM100.384 98.7287L100.935 78.4629L99.9352 78.4358L99.3845 98.7015L100.384 98.7287ZM100.592 78.9241L103.144 78.0814L102.83 77.1318L100.278 77.9746L100.592 78.9241ZM18.0032 137.718L24.0851 137.719L24.0851 136.719L18.0032 136.718L18.0032 137.718ZM17.363 138.035L24.4052 138.035L24.4052 137.035L17.363 137.035L17.363 138.035ZM16.7228 138.352L24.7253 138.352L24.7253 137.352L16.7228 137.352L16.7228 138.352ZM16.0826 138.668L25.3655 138.669L25.3655 137.669L16.0826 137.668L16.0826 138.668ZM15.4424 138.985L25.6856 138.985L25.6856 137.985L15.4425 137.985L15.4424 138.985ZM14.8023 139.302L26.0056 139.302L26.0056 138.302L14.8023 138.302L14.8023 139.302ZM14.1621 139.618L24.4052 139.619L24.4052 138.619L14.1621 138.618L14.1621 139.618ZM13.5219 139.935L22.8047 139.935L22.8047 138.935L13.5219 138.935L13.5219 139.935ZM12.8817 140.252L21.2042 140.252L21.2042 139.252L12.8817 139.252L12.8817 140.252ZM12.2415 140.568L19.2837 140.569L19.2837 139.569L12.2415 139.568L12.2415 140.568ZM11.6013 140.885L17.6832 140.885L17.6832 139.885L11.6013 139.885L11.6013 140.885ZM10.9611 141.202L16.0827 141.202L16.0827 140.202L10.9611 140.202L10.9611 141.202ZM10.3209 141.519L14.4822 141.519L14.4822 140.519L10.3209 140.519L10.3209 141.519ZM9.68071 141.835L12.5616 141.835L12.5617 140.835L9.68073 140.835L9.68071 141.835ZM9.04052 142.152L10.9612 142.152L10.9612 141.152L9.04054 141.152L9.04052 142.152ZM208.461 75.9675L210.381 75.9675L210.381 74.9675L208.461 74.9675L208.461 75.9675ZM206.86 76.2842L209.741 76.2842L209.741 75.2842L206.86 75.2842L206.86 76.2842ZM204.94 76.6009L209.101 76.6009L209.101 75.6009L204.939 75.6009L204.94 76.6009ZM203.339 76.9176L208.46 76.9175L208.46 75.9175L203.339 75.9176L203.339 76.9176ZM201.739 77.2342L207.82 77.2342L207.82 76.2342L201.739 76.2342L201.739 77.2342ZM200.138 77.5509L207.18 77.5509L207.18 76.5509L200.138 76.5509L200.138 77.5509ZM198.217 77.8676L206.54 77.8676L206.54 76.8676L198.217 76.8676L198.217 77.8676ZM196.617 78.1842L205.9 78.1842L205.9 77.1842L196.617 77.1842L196.617 78.1842ZM195.017 78.5009L205.259 78.5009L205.259 77.5009L195.017 77.5009L195.017 78.5009ZM193.096 78.8176L204.619 78.8176L204.619 77.8176L193.096 77.8176L193.096 78.8176ZM193.736 79.1343L203.979 79.1342L203.979 78.1342L193.736 78.1343L193.736 79.1343ZM194.056 79.4509L203.339 79.4509L203.339 78.4509L194.056 78.4509L194.056 79.4509ZM194.376 79.7676L202.699 79.7676L202.699 78.7676L194.376 78.7676L194.376 79.7676ZM195.017 80.0843L202.058 80.0843L202.058 79.0843L195.017 79.0843L195.017 80.0843ZM195.337 80.4009L201.418 80.4009L201.418 79.4009L195.337 79.4009L195.337 80.4009Z" fill="white"/>
        <path d="M386.395 145.06H382.163L382.945 143.008H387.15C388.598 143.008 389.909 142.725 391.083 142.159C392.26 141.584 393.279 140.782 394.14 139.754C395.013 138.718 395.705 137.507 396.214 136.122L396.642 134.959C397.043 133.87 397.26 132.903 397.292 132.058C397.328 131.204 397.184 130.485 396.86 129.901C396.54 129.309 396.046 128.86 395.378 128.556C394.72 128.251 393.889 128.098 392.887 128.098H388.32L389.079 126.033H393.646C394.974 126.033 396.108 126.243 397.05 126.661C397.995 127.07 398.717 127.667 399.218 128.451C399.731 129.226 399.997 130.167 400.017 131.274C400.04 132.371 399.799 133.608 399.292 134.985L398.874 136.122C398.367 137.498 397.697 138.739 396.863 139.846C396.032 140.943 395.07 141.88 393.977 142.655C392.894 143.431 391.709 144.027 390.423 144.446C389.149 144.855 387.806 145.06 386.395 145.06ZM390.597 126.033L383.597 145.06H380.909L387.91 126.033H390.597Z" fill="white"/>
        <path d="M279.523 121.068C279.523 120.892 279.38 120.748 279.203 120.748C279.027 120.748 278.883 120.892 278.883 121.068H279.523ZM278.883 165.086C278.883 165.262 279.027 165.406 279.203 165.406C279.38 165.406 279.523 165.262 279.523 165.086H278.883ZM494.948 121.068C494.948 120.892 494.805 120.748 494.628 120.748C494.451 120.748 494.308 120.892 494.308 121.068H494.948ZM494.308 165.086C494.308 165.262 494.451 165.406 494.628 165.406C494.805 165.406 494.948 165.262 494.948 165.086H494.308ZM382.163 145.06L381.864 144.946C381.826 145.044 381.839 145.155 381.899 145.241C381.959 145.328 382.057 145.38 382.163 145.38V145.06ZM382.945 143.008V142.688C382.813 142.688 382.694 142.77 382.646 142.894L382.945 143.008ZM391.083 142.159L391.222 142.447L391.223 142.446L391.083 142.159ZM394.14 139.754L393.895 139.548L393.894 139.549L394.14 139.754ZM396.214 136.122L396.515 136.232L396.515 136.232L396.214 136.122ZM396.642 134.959L396.342 134.848L396.342 134.848L396.642 134.959ZM397.292 132.058L396.972 132.044L396.972 132.045L397.292 132.058ZM396.86 129.901L396.578 130.054L396.58 130.057L396.86 129.901ZM395.378 128.556L395.243 128.846L395.245 128.847L395.378 128.556ZM388.32 128.098L388.019 127.988C387.983 128.086 387.997 128.195 388.057 128.281C388.117 128.367 388.215 128.418 388.32 128.418V128.098ZM389.079 126.033V125.713C388.945 125.713 388.825 125.797 388.779 125.923L389.079 126.033ZM397.05 126.661L396.92 126.953L396.923 126.954L397.05 126.661ZM399.218 128.451L398.948 128.623L398.951 128.628L399.218 128.451ZM400.017 131.274L399.697 131.279L399.697 131.28L400.017 131.274ZM399.292 134.985L398.992 134.874L398.992 134.874L399.292 134.985ZM398.874 136.122L399.174 136.232L399.174 136.232L398.874 136.122ZM396.863 139.846L397.118 140.039L397.119 140.038L396.863 139.846ZM393.977 142.655L393.792 142.394L393.791 142.395L393.977 142.655ZM390.423 144.446L390.521 144.75L390.522 144.75L390.423 144.446ZM390.597 126.033L390.897 126.144C390.934 126.046 390.919 125.936 390.86 125.85C390.8 125.765 390.702 125.713 390.597 125.713V126.033ZM383.597 145.06V145.38C383.731 145.38 383.851 145.296 383.897 145.17L383.597 145.06ZM380.909 145.06L380.609 144.949C380.573 145.047 380.587 145.157 380.647 145.243C380.707 145.329 380.805 145.38 380.909 145.38V145.06ZM387.91 126.033V125.713C387.776 125.713 387.656 125.797 387.61 125.923L387.91 126.033ZM279.203 157.486L279.161 157.168C279.002 157.19 278.883 157.325 278.883 157.486C278.883 157.646 279.002 157.781 279.161 157.803L279.203 157.486ZM298.089 154.952L298.344 155.145C298.422 155.042 298.431 154.903 298.365 154.791C298.3 154.679 298.175 154.618 298.046 154.635L298.089 154.952ZM298.089 160.019L298.046 160.336C298.175 160.353 298.3 160.292 298.365 160.18C298.431 160.068 298.422 159.929 298.344 159.826L298.089 160.019ZM494.628 157.486L494.671 157.803C494.83 157.781 494.948 157.646 494.948 157.486C494.948 157.325 494.83 157.19 494.671 157.168L494.628 157.486ZM475.742 160.019L475.487 159.826C475.409 159.929 475.401 160.068 475.466 160.18C475.531 160.292 475.657 160.353 475.785 160.336L475.742 160.019ZM475.742 154.952L475.785 154.635C475.657 154.618 475.531 154.679 475.466 154.791C475.401 154.903 475.409 155.042 475.487 155.145L475.742 154.952ZM278.883 121.068V165.086H279.523V121.068H278.883ZM494.308 121.068V165.086H494.948V121.068H494.308ZM386.395 144.74H382.163V145.38H386.395V144.74ZM382.462 145.174L383.244 143.122L382.646 142.894L381.864 144.946L382.462 145.174ZM382.945 143.328H387.15V142.688H382.945V143.328ZM387.15 143.328C388.641 143.328 390 143.036 391.222 142.447L390.944 141.871C389.818 142.414 388.556 142.688 387.15 142.688V143.328ZM391.223 142.446C392.442 141.851 393.496 141.021 394.385 139.96L393.894 139.549C393.062 140.543 392.078 141.316 390.943 141.871L391.223 142.446ZM394.385 139.96C395.284 138.893 395.993 137.649 396.515 136.232L395.914 136.011C395.416 137.364 394.742 138.542 393.895 139.548L394.385 139.96ZM396.515 136.232L396.943 135.069L396.342 134.848L395.914 136.011L396.515 136.232ZM396.943 135.069C397.351 133.959 397.578 132.958 397.612 132.07L396.972 132.045C396.941 132.847 396.735 133.78 396.342 134.848L396.943 135.069ZM397.612 132.071C397.649 131.175 397.499 130.394 397.14 129.746L396.58 130.057C396.868 130.576 397.006 131.233 396.972 132.044L397.612 132.071ZM397.141 129.749C396.785 129.09 396.236 128.595 395.511 128.264L395.245 128.847C395.855 129.125 396.294 129.528 396.578 130.054L397.141 129.749ZM395.512 128.265C394.799 127.935 393.919 127.778 392.887 127.778V128.418C393.86 128.418 394.64 128.566 395.243 128.846L395.512 128.265ZM392.887 127.778H388.32V128.418H392.887V127.778ZM388.62 128.209L389.38 126.144L388.779 125.923L388.019 127.988L388.62 128.209ZM389.079 126.353H393.646V125.713H389.079V126.353ZM393.646 126.353C394.942 126.353 396.029 126.558 396.92 126.953L397.18 126.368C396.187 125.928 395.006 125.713 393.646 125.713V126.353ZM396.923 126.954C397.815 127.341 398.485 127.899 398.948 128.623L399.487 128.279C398.949 127.435 398.174 126.799 397.177 126.367L396.923 126.954ZM398.951 128.628C399.424 129.343 399.678 130.222 399.697 131.279L400.337 131.268C400.316 130.112 400.037 129.109 399.485 128.274L398.951 128.628ZM399.697 131.28C399.719 132.327 399.489 133.523 398.992 134.874L399.592 135.095C400.108 133.693 400.361 132.415 400.337 131.267L399.697 131.28ZM398.992 134.874L398.574 136.011L399.174 136.232L399.592 135.095L398.992 134.874ZM398.574 136.011C398.077 137.36 397.422 138.573 396.608 139.653L397.119 140.038C397.973 138.906 398.658 137.636 399.174 136.232L398.574 136.011ZM396.608 139.653C395.796 140.725 394.858 141.638 393.792 142.394L394.163 142.916C395.283 142.122 396.268 141.162 397.118 140.039L396.608 139.653ZM393.791 142.395C392.735 143.151 391.579 143.733 390.324 144.141L390.522 144.75C391.839 144.322 393.053 143.71 394.164 142.916L393.791 142.395ZM390.325 144.141C389.084 144.54 387.775 144.74 386.395 144.74V145.38C387.838 145.38 389.213 145.17 390.521 144.75L390.325 144.141ZM390.297 125.923L383.296 144.949L383.897 145.17L390.897 126.144L390.297 125.923ZM383.597 144.74H380.909V145.38H383.597V144.74ZM381.21 145.17L388.21 126.144L387.61 125.923L380.609 144.949L381.21 145.17ZM387.91 126.353H390.597V125.713H387.91V126.353ZM279.246 157.803L298.132 155.269L298.046 154.635L279.161 157.168L279.246 157.803ZM297.834 154.759L295.913 157.292L296.423 157.679L298.344 155.145L297.834 154.759ZM295.913 157.679L297.834 160.212L298.344 159.826L296.423 157.292L295.913 157.679ZM298.132 159.702L279.246 157.168L279.161 157.803L298.046 160.336L298.132 159.702ZM295.848 155.589H298.089V154.949H295.848V155.589ZM293.608 155.905H297.769V155.265H293.608V155.905ZM291.047 156.222H297.449V155.582H291.047V156.222ZM288.806 156.539H297.129V155.899H288.806V156.539ZM286.566 156.856H297.129V156.216H286.566V156.856ZM284.005 157.172H296.809V156.532H284.005V157.172ZM281.764 157.489H296.489V156.849H281.764V157.489ZM279.203 157.806H296.168V157.166H279.203V157.806ZM281.764 158.122H296.489V157.482H281.764V158.122ZM284.005 158.439H296.809V157.799H284.005V158.439ZM286.566 158.756H297.129V158.116H286.566V158.756ZM288.806 159.072H297.129V158.432H288.806V159.072ZM291.047 159.389H297.449V158.749H291.047V159.389ZM293.608 159.706H297.769V159.066H293.608V159.706ZM295.848 160.022H298.089V159.382H295.848V160.022ZM494.586 157.168L475.7 159.702L475.785 160.336L494.671 157.803L494.586 157.168ZM475.997 160.212L477.918 157.679L477.408 157.292L475.487 159.826L475.997 160.212ZM477.918 157.292L475.997 154.759L475.487 155.145L477.408 157.679L477.918 157.292ZM475.7 155.269L494.586 157.803L494.671 157.168L475.785 154.635L475.7 155.269ZM477.663 157.806H494.628V157.166H477.663V157.806ZM477.663 158.122H492.387V157.482H477.663V158.122ZM477.343 158.439H490.147V157.799H477.343V158.439ZM477.023 158.756H487.586V158.116H477.023V158.756ZM476.703 159.072H485.345V158.432H476.703V159.072ZM476.703 159.389H483.105V158.749H476.703V159.389ZM476.383 159.706H480.544V159.066H476.383V159.706ZM476.062 160.022H478.303V159.382H476.062V160.022ZM476.062 155.589H478.303V154.949H476.062V155.589ZM476.383 155.905H480.544V155.265H476.383V155.905ZM476.703 156.222H483.105V155.582H476.703V156.222ZM476.703 156.539H485.345V155.899H476.703V156.539ZM477.023 156.856H487.586V156.216H477.023V156.856ZM477.343 157.172H490.147V156.532H477.343V157.172ZM477.663 157.489H492.387V156.849H477.663V157.489ZM279.203 157.806L494.628 157.806L494.628 157.166L279.203 157.166L279.203 157.806Z" fill="white"/>
    </g>
    <!--    3 Dy-->
    <g class="group">
    </g>
    <!--    4 Dh-->
    <g class="group">
    </g>
    <!--    5 D1-->
    <g class="group">
    </g>
    <!--   6 D2-->
    <g class="group">
    </g>
    <!--   7 d-->
    <g class="group">
    </g>
    <!--    8 dH-->
    <g class="group">
    </g>
    <!--    9 d1-->
    <g class="group">
    </g>
    <!--    10 d2-->
    <g class="group">
    </g>
    <!--    11 L-->
    <g class="group">
    </g>
    <!--    12 L1-->
    <g class="group">
    </g>
    <!--    13 L2-->
    <g class="group">
    </g>
    <!--    14 S-->
    <g class="group">
        <path d="M524.88 57.9199C524.53 57.7941 524.207 57.7613 523.91 57.8215C523.605 57.8692 523.329 58.0997 523.085 58.5129C522.832 58.9136 522.613 59.5776 522.43 60.5048C522.264 61.2805 522.067 61.9663 521.84 62.5621C521.613 63.1487 521.338 63.6205 521.015 63.9775C520.692 64.3253 520.312 64.5459 519.875 64.6393C519.439 64.7326 518.928 64.674 518.343 64.4633C517.784 64.262 517.255 63.9417 516.757 63.5026C516.26 63.0541 515.819 62.5193 515.434 61.8983C515.05 61.2679 514.749 60.57 514.53 59.8044C514.312 59.0389 514.203 58.2338 514.203 57.389C514.203 56.1823 514.404 55.2243 514.805 54.5149C515.207 53.8056 515.744 53.3446 516.417 53.1319C517.081 52.9161 517.819 52.9544 518.631 53.2469V55.8228C518.238 55.6813 517.858 55.6698 517.491 55.7884C517.116 55.8945 516.805 56.1402 516.561 56.5256C516.316 56.9016 516.194 57.4285 516.194 58.1061C516.194 58.8209 516.299 59.4388 516.509 59.9598C516.709 60.4684 516.967 60.8815 517.281 61.1989C517.596 61.507 517.928 61.724 518.277 61.8498C518.539 61.9442 518.775 61.9827 518.985 61.9653C519.185 61.9356 519.373 61.8268 519.548 61.6391C519.714 61.4482 519.871 61.1521 520.019 60.7507C520.168 60.3493 520.316 59.8226 520.465 59.1706C520.727 58.0304 521.041 57.1271 521.408 56.4609C521.775 55.7947 522.225 55.3626 522.757 55.1646C523.29 54.9666 523.936 55.0043 524.696 55.278C525.316 55.5013 525.884 55.8449 526.399 56.309C526.915 56.7637 527.36 57.3186 527.736 57.9737C528.102 58.6163 528.391 59.3327 528.6 60.123C528.801 60.9008 528.902 61.7306 528.902 62.6125C528.902 63.9399 528.679 64.9829 528.233 65.7415C527.788 66.5 527.212 66.9887 526.504 67.2073C525.797 67.426 525.05 67.3938 524.264 67.1108V64.5209C524.928 64.7228 525.456 64.7089 525.849 64.4791C526.233 64.2462 526.509 63.8904 526.674 63.4117C526.832 62.93 526.91 62.4245 526.91 61.8954C526.91 61.1899 526.823 60.569 526.648 60.0327C526.474 59.4871 526.233 59.034 525.928 58.6733C525.622 58.3126 525.273 58.0615 524.88 57.9199Z" fill="white"/>
        <path d="M507.432 96.9979C507.255 96.9979 507.112 97.1411 507.112 97.3179C507.112 97.4946 507.255 97.6379 507.432 97.6379V96.9979ZM549.045 97.6379C549.221 97.6379 549.365 97.4946 549.365 97.3179C549.365 97.1411 549.221 96.9979 549.045 96.9979V97.6379ZM507.432 108.398C507.255 108.398 507.112 108.541 507.112 108.718C507.112 108.895 507.255 109.038 507.432 109.038V108.398ZM549.045 109.038C549.221 109.038 549.365 108.895 549.365 108.718C549.365 108.541 549.221 108.398 549.045 108.398V109.038ZM541.682 46.334C541.682 46.1573 541.539 46.014 541.362 46.014C541.186 46.014 541.042 46.1573 541.042 46.334H541.682ZM524.88 57.9199L524.771 58.221L524.771 58.221L524.88 57.9199ZM523.91 57.8215L523.96 58.1376C523.964 58.1369 523.969 58.136 523.974 58.1351L523.91 57.8215ZM523.085 58.5129L523.356 58.6839L523.36 58.6758L523.085 58.5129ZM522.43 60.5048L522.743 60.5718L522.744 60.5669L522.43 60.5048ZM521.84 62.5621L522.139 62.6776L522.139 62.6761L521.84 62.5621ZM521.015 63.9775L521.25 64.1954L521.252 64.1923L521.015 63.9775ZM518.343 64.4633L518.234 64.7643L518.234 64.7643L518.343 64.4633ZM516.757 63.5026L516.543 63.7403L516.546 63.7425L516.757 63.5026ZM515.434 61.8983L515.161 62.0648L515.162 62.0666L515.434 61.8983ZM516.417 53.1319L516.513 53.437L516.516 53.4362L516.417 53.1319ZM518.631 53.2469H518.951C518.951 53.112 518.866 52.9916 518.739 52.9458L518.631 53.2469ZM518.631 55.8228L518.522 56.1239C518.62 56.1592 518.73 56.1446 518.815 56.0847C518.9 56.0247 518.951 55.927 518.951 55.8228H518.631ZM517.491 55.7884L517.578 56.0965L517.589 56.0929L517.491 55.7884ZM516.561 56.5256L516.829 56.7L516.831 56.697L516.561 56.5256ZM516.509 59.9598L516.806 59.8423L516.805 59.8404L516.509 59.9598ZM517.281 61.1989L517.054 61.4241L517.057 61.4274L517.281 61.1989ZM518.277 61.8498L518.169 62.1509L518.169 62.1509L518.277 61.8498ZM518.985 61.9653L519.011 62.2842C519.018 62.2837 519.025 62.2829 519.031 62.2819L518.985 61.9653ZM519.548 61.6391L519.782 61.8572L519.789 61.849L519.548 61.6391ZM520.465 59.1706L520.153 59.0989L520.153 59.0996L520.465 59.1706ZM524.696 55.278L524.588 55.579L524.696 55.278ZM526.399 56.309L526.185 56.5468L526.188 56.5489L526.399 56.309ZM527.736 57.9737L528.013 57.815L528.013 57.8145L527.736 57.9737ZM528.6 60.123L528.91 60.043L528.909 60.0409L528.6 60.123ZM524.264 67.1108H523.944C523.944 67.2457 524.029 67.3661 524.156 67.4118L524.264 67.1108ZM524.264 64.5209L524.357 64.2148C524.26 64.1853 524.155 64.2035 524.073 64.2638C523.992 64.3242 523.944 64.4195 523.944 64.5209H524.264ZM525.849 64.4791L526.011 64.7554L526.015 64.7527L525.849 64.4791ZM526.674 63.4117L526.977 63.5166L526.979 63.511L526.674 63.4117ZM526.648 60.0327L526.343 60.1303L526.344 60.1318L526.648 60.0327ZM543.923 78.6343L544.24 78.6777C544.258 78.5501 544.197 78.4245 544.086 78.3589C543.975 78.2933 543.836 78.3005 543.732 78.3773L543.923 78.6343ZM541.362 80.5343L541.362 80.8543L541.362 80.8543L541.362 80.5343ZM538.802 78.6343L538.992 78.3773C538.889 78.3005 538.749 78.2933 538.639 78.3589C538.528 78.4245 538.467 78.5501 538.484 78.6777L538.802 78.6343ZM541.682 71.3508C541.682 71.1741 541.539 71.0308 541.362 71.0308C541.186 71.0308 541.042 71.1741 541.042 71.3508H541.682ZM538.802 127.402L538.484 127.358C538.467 127.486 538.528 127.611 538.639 127.677C538.749 127.743 538.889 127.735 538.992 127.659L538.802 127.402ZM541.362 125.502L541.362 125.182L541.362 125.182L541.362 125.502ZM543.923 127.402L543.732 127.659C543.836 127.735 543.975 127.743 544.086 127.677C544.197 127.612 544.258 127.486 544.24 127.358L543.923 127.402ZM541.042 134.685C541.042 134.862 541.186 135.005 541.362 135.005C541.539 135.005 541.682 134.862 541.682 134.685L541.042 134.685ZM507.432 97.6379H549.045V96.9979H507.432V97.6379ZM507.432 109.038H549.045V108.398H507.432V109.038ZM524.988 57.6189C524.596 57.4777 524.213 57.4337 523.847 57.5078L523.974 58.1351C524.202 58.0889 524.465 58.1106 524.771 58.221L524.988 57.6189ZM523.861 57.5053C523.419 57.5744 523.076 57.9001 522.81 58.3499L523.36 58.6758C523.583 58.2992 523.791 58.164 523.96 58.1376L523.861 57.5053ZM522.814 58.3419C522.528 58.7949 522.301 59.5075 522.116 60.4427L522.744 60.5669C522.926 59.6477 523.135 59.0324 523.355 58.6838L522.814 58.3419ZM522.117 60.4379C521.954 61.2012 521.761 61.8708 521.541 62.4482L522.139 62.6761C522.374 62.0618 522.574 61.3597 522.743 60.5717L522.117 60.4379ZM521.542 62.4466C521.325 63.0072 521.068 63.4422 520.778 63.7628L521.252 64.1923C521.608 63.7988 521.902 63.2901 522.139 62.6776L521.542 62.4466ZM520.781 63.7597C520.499 64.0625 520.177 64.2476 519.808 64.3263L519.942 64.9522C520.447 64.8442 520.885 64.5881 521.249 64.1954L520.781 63.7597ZM519.808 64.3263C519.449 64.4032 519.001 64.3603 518.451 64.1622L518.234 64.7643C518.854 64.9877 519.429 65.062 519.942 64.9522L519.808 64.3263ZM518.451 64.1622C517.934 63.9761 517.44 63.6782 516.969 63.2626L516.546 63.7425C517.07 64.2053 517.633 64.5479 518.234 64.7643L518.451 64.1622ZM516.972 63.2648C516.498 62.8384 516.076 62.3275 515.706 61.7299L515.162 62.0666C515.561 62.7112 516.021 63.2699 516.543 63.7403L516.972 63.2648ZM515.708 61.7317C515.339 61.1278 515.049 60.4566 514.838 59.7167L514.223 59.8922C514.448 60.6833 514.761 61.408 515.161 62.0648L515.708 61.7317ZM514.838 59.7167C514.628 58.9814 514.523 58.2059 514.523 57.389H513.883C513.883 58.2616 513.996 59.0964 514.223 59.8922L514.838 59.7167ZM514.523 57.389C514.523 56.2129 514.719 55.3162 515.084 54.6726L514.527 54.3572C514.088 55.1323 513.883 56.1517 513.883 57.389H514.523ZM515.084 54.6726C515.452 54.0219 515.93 53.6215 516.513 53.437L516.32 52.8268C515.559 53.0677 514.962 53.5893 514.527 54.3572L515.084 54.6726ZM516.516 53.4362C517.097 53.2472 517.761 53.2737 518.522 53.548L518.739 52.9458C517.876 52.6351 517.064 52.585 516.318 52.8276L516.516 53.4362ZM518.311 53.2469V55.8228H518.951V53.2469H518.311ZM518.739 55.5218C518.285 55.3584 517.833 55.3417 517.393 55.4839L517.589 56.0929C517.883 55.998 518.19 56.0043 518.522 56.1239L518.739 55.5218ZM517.404 55.4804C516.94 55.6115 516.57 55.9142 516.291 56.3541L516.831 56.697C517.041 56.3662 517.291 56.1774 517.578 56.0963L517.404 55.4804ZM516.293 56.3511C516.001 56.7993 515.874 57.3961 515.874 58.1061H516.514C516.514 57.4609 516.632 57.004 516.829 56.7L516.293 56.3511ZM515.874 58.1061C515.874 58.8511 515.983 59.5114 516.212 60.0792L516.805 59.8404C516.615 59.3661 516.514 58.7906 516.514 58.1061H515.874ZM516.211 60.0774C516.424 60.6175 516.703 61.0698 517.054 61.4241L517.509 60.9737C517.231 60.6931 516.995 60.3194 516.806 59.8423L516.211 60.0774ZM517.057 61.4274C517.399 61.7619 517.769 62.0069 518.169 62.1509L518.386 61.5488C518.087 61.4412 517.793 61.2522 517.505 60.9704L517.057 61.4274ZM518.169 62.1509C518.461 62.256 518.743 62.3064 519.011 62.2842L518.958 61.6464C518.806 61.659 518.618 61.6324 518.386 61.5488L518.169 62.1509ZM519.031 62.2819C519.321 62.2389 519.571 62.0837 519.782 61.8571L519.314 61.4211C519.175 61.5699 519.05 61.6322 518.938 61.6488L519.031 62.2819ZM519.789 61.849C519.992 61.6156 520.166 61.2778 520.32 60.8617L519.719 60.6397C519.576 61.0263 519.435 61.2808 519.306 61.4291L519.789 61.849ZM520.32 60.8617C520.475 60.4422 520.627 59.9006 520.777 59.2417L520.153 59.0996C520.006 59.7446 519.861 60.2565 519.719 60.6397L520.32 60.8617ZM520.777 59.2423C521.035 58.1172 521.341 57.2455 521.688 56.6153L521.128 56.3066C520.741 57.0088 520.418 57.9436 520.153 59.0989L520.777 59.2423ZM521.688 56.6153C522.031 55.9933 522.429 55.6279 522.869 55.4645L522.646 54.8646C522.02 55.0973 521.519 55.5961 521.128 56.3066L521.688 56.6153ZM522.869 55.4645C523.306 55.302 523.87 55.3204 524.588 55.579L524.805 54.9769C524.003 54.6883 523.274 54.6311 522.646 54.8646L522.869 55.4645ZM524.588 55.579C525.167 55.7876 525.699 56.109 526.185 56.5467L526.613 56.0712C526.069 55.5809 525.466 55.215 524.805 54.9769L524.588 55.579ZM526.188 56.5489C526.674 56.9783 527.098 57.5051 527.458 58.1328L528.013 57.8145C527.622 57.1321 527.155 56.5491 526.611 56.069L526.188 56.5489ZM527.458 58.1323C527.809 58.7485 528.088 59.4388 528.291 60.205L528.909 60.0409C528.694 59.2267 528.395 58.4841 528.013 57.815L527.458 58.1323ZM528.29 60.203C528.484 60.9523 528.582 61.755 528.582 62.6125H529.222C529.222 61.7062 529.118 60.8493 528.91 60.043L528.29 60.203ZM528.582 62.6125C528.582 63.9097 528.363 64.8889 527.957 65.5794L528.509 65.9035C528.995 65.0769 529.222 63.97 529.222 62.6125H528.582ZM527.957 65.5794C527.544 66.2829 527.027 66.7108 526.41 66.9016L526.599 67.5131C527.396 67.2665 528.032 66.7172 528.509 65.9035L527.957 65.5794ZM526.41 66.9016C525.777 67.0972 525.102 67.0724 524.372 66.8097L524.156 67.4118C524.998 67.7153 525.816 67.7548 526.599 67.5131L526.41 66.9016ZM524.584 67.1108V64.5209H523.944V67.1108H524.584ZM524.171 64.8271C524.875 65.0414 525.508 65.0492 526.011 64.7553L525.688 64.2028C525.404 64.3686 524.98 64.4042 524.357 64.2148L524.171 64.8271ZM526.015 64.7527C526.471 64.4762 526.79 64.0561 526.977 63.5166L526.372 63.3069C526.227 63.7246 525.996 64.0161 525.683 64.2054L526.015 64.7527ZM526.979 63.511C527.147 62.9958 527.23 62.4567 527.23 61.8954H526.59C526.59 62.3923 526.517 62.8641 526.37 63.3125L526.979 63.511ZM527.23 61.8954C527.23 61.1643 527.14 60.5088 526.953 59.9336L526.344 60.1318C526.506 60.6293 526.59 61.2155 526.59 61.8954H527.23ZM526.953 59.9352C526.768 59.3578 526.51 58.8652 526.172 58.4664L525.684 58.8802C525.957 59.2027 526.179 59.6165 526.343 60.1303L526.953 59.9352ZM526.172 58.4664C525.835 58.0687 525.44 57.7818 524.988 57.6189L524.771 58.221C525.105 58.3412 525.409 58.5564 525.684 58.8802L526.172 58.4664ZM541.679 97.3613L544.24 78.6777L543.606 78.5908L541.045 97.2744L541.679 97.3613ZM543.732 78.3773L541.172 80.2773L541.553 80.7913L544.114 78.8913L543.732 78.3773ZM541.553 80.2773L538.992 78.3773L538.611 78.8913L541.172 80.7913L541.553 80.2773ZM538.484 78.6777L541.045 97.3613L541.679 97.2744L539.119 78.5908L538.484 78.6777ZM541.682 97.3179V71.3508H541.042V97.3179H541.682ZM543.603 79.2709H543.923V78.6309H543.603V79.2709ZM543.283 79.5876H543.923V78.9476H543.283V79.5876ZM542.643 79.9043H543.923V79.2643H542.643V79.9043ZM542.323 80.2209H543.923V79.5809H542.323V80.2209ZM542.002 80.5376H543.923V79.8976H542.002V80.5376ZM541.362 80.8543L543.923 80.8543L543.923 80.2143L541.362 80.2143L541.362 80.8543ZM541.362 95.4212H541.682V94.7812H541.362V95.4212ZM541.362 95.7378H541.682V95.0978H541.362V95.7378ZM541.362 96.0545H541.682V95.4145H541.362V96.0545ZM541.362 96.3712H541.682V95.7312H541.362V96.3712ZM541.362 96.6878H541.682V96.0478H541.362V96.6878ZM541.362 97.0045H541.682V96.3645H541.362V97.0045ZM541.362 97.3212H541.682V96.6812H541.362V97.3212ZM539.122 79.2709H539.442V78.6309H539.122V79.2709ZM539.122 79.5876H539.762V78.9476H539.122V79.5876ZM539.122 79.9043H540.082V79.2643H539.122V79.9043ZM539.122 80.2209H540.722V79.5809H539.122V80.2209ZM539.122 80.5376H541.042V79.8976H539.122V80.5376ZM539.122 80.8543L541.362 80.8543L541.362 80.2143L539.122 80.2143L539.122 80.8543ZM541.045 108.675L538.484 127.358L539.119 127.445L541.679 108.761L541.045 108.675ZM538.992 127.659L541.553 125.759L541.172 125.245L538.611 127.145L538.992 127.659ZM541.172 125.759L543.732 127.659L544.114 127.145L541.553 125.245L541.172 125.759ZM544.24 127.358L541.679 108.675L541.045 108.761L543.606 127.445L544.24 127.358ZM541.042 108.718L541.042 134.685L541.682 134.685L541.682 108.718L541.042 108.718ZM539.122 125.822L541.362 125.822L541.362 125.182L539.122 125.182L539.122 125.822ZM539.122 126.138H541.042V125.498H539.122V126.138ZM539.122 126.455H540.722V125.815H539.122V126.455ZM539.122 126.772H540.082V126.132H539.122V126.772ZM539.122 127.088H539.762V126.448H539.122V127.088ZM539.122 127.405H539.442V126.765H539.122V127.405ZM541.362 109.355H541.682V108.715H541.362V109.355ZM541.362 109.672H541.682V109.032H541.362V109.672ZM541.362 109.988H541.682V109.348H541.362V109.988ZM541.362 110.305H541.682V109.665H541.362V110.305ZM541.362 110.622H541.682V109.982H541.362V110.622ZM541.362 110.938H541.682V110.298H541.362V110.938ZM541.362 111.255H541.682V110.615H541.362V111.255ZM541.362 125.822L543.923 125.822L543.923 125.182L541.362 125.182L541.362 125.822ZM542.002 126.138H543.923V125.498H542.002V126.138ZM542.323 126.455H543.923V125.815H542.323V126.455ZM542.643 126.772H543.923V126.132H542.643V126.772ZM543.283 127.088H543.923V126.448H543.283V127.088ZM543.603 127.405H543.923V126.765H543.603V127.405ZM541.042 97.3179L541.042 108.718L541.682 108.718L541.682 97.3179L541.042 97.3179ZM541.682 97.3179V46.334H541.042V97.3179H541.682ZM539.122 81.171L543.923 81.171L543.923 80.531L539.122 80.531L539.122 81.171ZM539.442 81.4876L543.603 81.4876L543.603 80.8476L539.442 80.8476L539.442 81.4876ZM539.442 81.8043L543.603 81.8043L543.603 81.1643L539.442 81.1643L539.442 81.8043ZM539.442 82.121L543.603 82.121L543.603 81.481L539.442 81.481L539.442 82.121ZM539.442 82.4376L543.603 82.4376L543.603 81.7976L539.442 81.7976L539.442 82.4376ZM539.442 82.7543L543.603 82.7543L543.603 82.1143L539.442 82.1143L539.442 82.7543ZM539.442 83.071L543.603 83.071L543.603 82.431L539.442 82.431L539.442 83.071ZM539.442 83.3877L543.603 83.3876L543.603 82.7476L539.442 82.7477L539.442 83.3877ZM539.762 83.7043L543.283 83.7043L543.283 83.0643L539.762 83.0643L539.762 83.7043ZM539.762 84.021L543.283 84.021L543.283 83.381L539.762 83.381L539.762 84.021ZM539.762 84.3377L543.283 84.3377L543.283 83.6977L539.762 83.6977L539.762 84.3377ZM539.762 84.6543L543.283 84.6543L543.283 84.0143L539.762 84.0143L539.762 84.6543ZM539.762 84.971L543.283 84.971L543.283 84.331L539.762 84.331L539.762 84.971ZM539.762 85.2877L543.283 85.2877L543.283 84.6477L539.762 84.6477L539.762 85.2877ZM539.762 85.6044L543.283 85.6043L543.283 84.9643L539.762 84.9644L539.762 85.6044ZM539.762 85.921L543.283 85.921L543.283 85.281L539.762 85.281L539.762 85.921ZM540.082 86.2377L542.963 86.2377L542.963 85.5977L540.082 85.5977L540.082 86.2377ZM540.082 86.5544L542.963 86.5544L542.963 85.9144L540.082 85.9144L540.082 86.5544ZM540.082 86.871L542.963 86.871L542.963 86.231L540.082 86.231L540.082 86.871ZM540.082 87.1877L542.963 87.1877L542.963 86.5477L540.082 86.5477L540.082 87.1877ZM540.082 87.5044L542.963 87.5044L542.963 86.8644L540.082 86.8644L540.082 87.5044ZM540.082 87.8211L542.963 87.821L542.963 87.181L540.082 87.1811L540.082 87.8211ZM540.082 88.1377L542.963 88.1377L542.963 87.4977L540.082 87.4977L540.082 88.1377ZM540.402 88.4544L542.643 88.4544L542.643 87.8144L540.402 87.8144L540.402 88.4544ZM540.402 88.7711L542.643 88.7711L542.643 88.1311L540.402 88.1311L540.402 88.7711ZM540.402 89.0877L542.643 89.0877L542.643 88.4477L540.402 88.4477L540.402 89.0877ZM540.402 89.4044L542.643 89.4044L542.643 88.7644L540.402 88.7644L540.402 89.4044ZM540.402 89.7211L542.643 89.7211L542.643 89.0811L540.402 89.0811L540.402 89.7211ZM540.402 90.0378L542.643 90.0377L542.643 89.3977L540.402 89.3978L540.402 90.0378ZM540.402 90.3544L542.643 90.3544L542.643 89.7144L540.402 89.7144L540.402 90.3544ZM540.722 90.6711L542.323 90.6711L542.323 90.0311L540.722 90.0311L540.722 90.6711ZM540.722 90.9878L542.323 90.9878L542.323 90.3478L540.722 90.3478L540.722 90.9878ZM540.722 91.3044L542.323 91.3044L542.323 90.6644L540.722 90.6644L540.722 91.3044ZM540.722 91.6211L542.323 91.6211L542.323 90.9811L540.722 90.9811L540.722 91.6211ZM540.722 91.9378L542.323 91.9378L542.323 91.2978L540.722 91.2978L540.722 91.9378ZM540.722 92.2545L542.323 92.2544L542.323 91.6144L540.722 91.6145L540.722 92.2545ZM540.722 92.5711L542.323 92.5711L542.323 91.9311L540.722 91.9311L540.722 92.5711ZM540.722 92.8878L542.323 92.8878L542.323 92.2478L540.722 92.2478L540.722 92.8878ZM541.042 93.2045L542.002 93.2045L542.002 92.5645L541.042 92.5645L541.042 93.2045ZM541.042 93.5211L542.002 93.5211L542.002 92.8811L541.042 92.8811L541.042 93.5211ZM541.042 93.8378L542.002 93.8378L542.002 93.1978L541.042 93.1978L541.042 93.8378ZM541.042 94.1545L542.002 94.1545L542.002 93.5145L541.042 93.5145L541.042 94.1545ZM541.042 94.4712L542.002 94.4711L542.002 93.8311L541.042 93.8312L541.042 94.4712ZM541.042 94.7878L542.002 94.7878L542.002 94.1478L541.042 94.1478L541.042 94.7878ZM541.042 95.1045L542.002 95.1045L542.002 94.4645L541.042 94.4645L541.042 95.1045ZM541.042 111.571L542.002 111.572L542.003 110.932L541.042 110.931L541.042 111.571ZM541.042 111.888L542.002 111.888L542.003 111.248L541.042 111.248L541.042 111.888ZM541.042 112.205L542.002 112.205L542.003 111.565L541.042 111.565L541.042 112.205ZM541.042 112.521L542.002 112.522L542.003 111.882L541.042 111.881L541.042 112.521ZM541.042 112.838L542.002 112.838L542.003 112.198L541.042 112.198L541.042 112.838ZM541.042 113.155L542.002 113.155L542.003 112.515L541.042 112.515L541.042 113.155ZM541.042 113.471L542.002 113.472L542.003 112.832L541.042 112.831L541.042 113.471ZM540.722 113.788L542.323 113.788L542.323 113.148L540.722 113.148L540.722 113.788ZM540.722 114.105L542.323 114.105L542.323 113.465L540.722 113.465L540.722 114.105ZM540.722 114.422L542.323 114.422L542.323 113.782L540.722 113.782L540.722 114.422ZM540.722 114.738L542.323 114.738L542.323 114.098L540.722 114.098L540.722 114.738ZM540.722 115.055L542.323 115.055L542.323 114.415L540.722 114.415L540.722 115.055ZM540.722 115.372L542.323 115.372L542.323 114.732L540.722 114.732L540.722 115.372ZM540.722 115.688L542.323 115.688L542.323 115.048L540.722 115.048L540.722 115.688ZM540.722 116.005L542.323 116.005L542.323 115.365L540.722 115.365L540.722 116.005ZM540.402 116.322L542.643 116.322L542.643 115.682L540.402 115.682L540.402 116.322ZM540.402 116.638L542.643 116.638L542.643 115.998L540.402 115.998L540.402 116.638ZM540.402 116.955L542.643 116.955L542.643 116.315L540.402 116.315L540.402 116.955ZM540.402 117.272L542.643 117.272L542.643 116.632L540.402 116.632L540.402 117.272ZM540.402 117.588L542.643 117.588L542.643 116.948L540.402 116.948L540.402 117.588ZM540.402 117.905L542.643 117.905L542.643 117.265L540.402 117.265L540.402 117.905ZM540.402 118.222L542.643 118.222L542.643 117.582L540.402 117.582L540.402 118.222ZM540.082 118.538L542.963 118.538L542.963 117.898L540.082 117.898L540.082 118.538ZM540.082 118.855L542.963 118.855L542.963 118.215L540.082 118.215L540.082 118.855ZM540.082 119.172L542.963 119.172L542.963 118.532L540.082 118.532L540.082 119.172ZM540.082 119.488L542.963 119.488L542.963 118.848L540.082 118.848L540.082 119.488ZM540.082 119.805L542.963 119.805L542.963 119.165L540.082 119.165L540.082 119.805ZM540.082 120.122L542.963 120.122L542.963 119.482L540.082 119.482L540.082 120.122ZM540.082 120.438L542.963 120.438L542.963 119.798L540.082 119.798L540.082 120.438ZM539.762 120.755L543.283 120.755L543.283 120.115L539.762 120.115L539.762 120.755ZM539.762 121.072L543.283 121.072L543.283 120.432L539.762 120.432L539.762 121.072ZM539.762 121.388L543.283 121.388L543.283 120.748L539.762 120.748L539.762 121.388ZM539.762 121.705L543.283 121.705L543.283 121.065L539.762 121.065L539.762 121.705ZM539.762 122.022L543.283 122.022L543.283 121.382L539.762 121.382L539.762 122.022ZM539.762 122.338L543.283 122.338L543.283 121.698L539.762 121.698L539.762 122.338ZM539.762 122.655L543.283 122.655L543.283 122.015L539.762 122.015L539.762 122.655ZM539.762 122.972L543.283 122.972L543.283 122.332L539.762 122.332L539.762 122.972ZM539.442 123.288L543.603 123.288L543.603 122.648L539.442 122.648L539.442 123.288ZM539.442 123.605L543.603 123.605L543.603 122.965L539.442 122.965L539.442 123.605ZM539.442 123.922L543.603 123.922L543.603 123.282L539.442 123.282L539.442 123.922ZM539.442 124.238L543.603 124.238L543.603 123.598L539.442 123.598L539.442 124.238ZM539.442 124.555L543.603 124.555L543.603 123.915L539.442 123.915L539.442 124.555ZM539.442 124.872L543.603 124.872L543.603 124.232L539.442 124.232L539.442 124.872ZM539.442 125.188L543.603 125.188L543.603 124.548L539.442 124.548L539.442 125.188ZM539.122 125.505L543.923 125.505L543.923 124.865L539.122 124.865L539.122 125.505Z" fill="white"/>
    </g>
    <!--    15 S1-->
    <g class="group">
    </g>
    <!--    16 S2-->
    <g class="group">
    </g>
    <!--    17 S3-->
    <g class="group">
    </g>
    <!--    18 S4-->
    <g class="group">
    </g>
    <!--    19 I-->
    <g class="group">
    </g>
    <!--    20 I1-->
    <g class="group">
    </g>
    <!--    21 I2-->
    <g class="group">
    </g>
    <!--    22 H-->
    <g class="group">
    </g>
    <!--    23 H1-->
    <g class="group">
    </g>
    <!--    24 H2-->
    <g class="group">
    </g>
    <!--    25 h-->
    <g class="group">
    </g>
    <!--    26 h1-->
    <g class="group">
    </g>
    <!--    27 h2-->
    <g class="group">
    </g>
    <!--    28 R-->
    <g class="group">
    </g>
    <!--    29 Deg-->
    <g class="group">
    </g>
    <!--    29 DN-->
    <g class="group">
    </g>

</svg>
