<svg width="294" height="172" viewBox="0 0 294 172" fill="none" xmlns="http://www.w3.org/2000/svg">
<rect width="294" height="172" fill="none"/>
<path d="M267.364 95.837V77.0696V95.837Z" stroke="white" stroke-width="2.24" stroke-miterlimit="10" stroke-linecap="round" stroke-linejoin="round"/>
<path d="M267.364 77.0696L266.724 67.5269L267.364 77.0696Z" stroke="white" stroke-width="2.24" stroke-miterlimit="10" stroke-linecap="round" stroke-linejoin="round"/>
<path d="M266.724 67.5269L264.803 57.9841L266.724 67.5269Z" stroke="white" stroke-width="2.24" stroke-miterlimit="10" stroke-linecap="round" stroke-linejoin="round"/>
<path d="M264.803 57.9841L261.602 48.4414L264.803 57.9841Z" stroke="white" stroke-width="2.24" stroke-miterlimit="10" stroke-linecap="round" stroke-linejoin="round"/>
<path d="M261.602 48.4415L257.121 39.853L261.602 48.4415Z" stroke="white" stroke-width="2.24" stroke-miterlimit="10" stroke-linecap="round" stroke-linejoin="round"/>
<path d="M257.121 39.8529L251.679 31.5825L257.121 39.8529Z" stroke="white" stroke-width="2.24" stroke-miterlimit="10" stroke-linecap="round" stroke-linejoin="round"/>
<path d="M251.679 31.5825L245.277 24.2664L251.679 31.5825Z" stroke="white" stroke-width="2.24" stroke-miterlimit="10" stroke-linecap="round" stroke-linejoin="round"/>
<path d="M245.278 24.2664L237.915 17.9045L245.278 24.2664Z" stroke="white" stroke-width="2.24" stroke-miterlimit="10" stroke-linecap="round" stroke-linejoin="round"/>
<path d="M237.915 17.9046L229.913 12.179L237.915 17.9046Z" stroke="white" stroke-width="2.24" stroke-miterlimit="10" stroke-linecap="round" stroke-linejoin="round"/>
<path d="M229.913 12.1789L220.95 8.0437L229.913 12.1789Z" stroke="white" stroke-width="2.24" stroke-miterlimit="10" stroke-linecap="round" stroke-linejoin="round"/>
<path d="M220.95 8.04372L211.667 4.86279L220.95 8.04372Z" stroke="white" stroke-width="2.24" stroke-miterlimit="10" stroke-linecap="round" stroke-linejoin="round"/>
<path d="M211.667 4.86287L202.064 2.63623L211.667 4.86287Z" stroke="white" stroke-width="2.24" stroke-miterlimit="10" stroke-linecap="round" stroke-linejoin="round"/>
<path d="M202.064 2.63619L192.461 2L202.064 2.63619Z" stroke="white" stroke-width="2.24" stroke-miterlimit="10" stroke-linecap="round" stroke-linejoin="round"/>
<path d="M192.461 2H191.501H192.461Z" stroke="white" stroke-width="2.24" stroke-miterlimit="10" stroke-linecap="round" stroke-linejoin="round"/>
<path d="M191.501 2H165.253H191.501Z" stroke="white" stroke-width="2.24" stroke-miterlimit="10" stroke-linecap="round" stroke-linejoin="round"/>
<path d="M165.254 2H138.686H165.254Z" stroke="white" stroke-width="2.24" stroke-miterlimit="10" stroke-linecap="round" stroke-linejoin="round"/>
<path d="M138.685 2L128.762 2.63619L138.685 2Z" stroke="white" stroke-width="2.24" stroke-miterlimit="10" stroke-linecap="round" stroke-linejoin="round"/>
<path d="M128.763 2.63623L119.16 4.54478L128.763 2.63623Z" stroke="white" stroke-width="2.24" stroke-miterlimit="10" stroke-linecap="round" stroke-linejoin="round"/>
<path d="M119.159 4.54468L109.877 7.7256L119.159 4.54468Z" stroke="white" stroke-width="2.24" stroke-miterlimit="10" stroke-linecap="round" stroke-linejoin="round"/>
<path d="M109.877 7.72559L101.234 11.8608L109.877 7.72559Z" stroke="white" stroke-width="2.24" stroke-miterlimit="10" stroke-linecap="round" stroke-linejoin="round"/>
<path d="M101.234 11.8608L92.9116 17.2684L101.234 11.8608Z" stroke="white" stroke-width="2.24" stroke-miterlimit="10" stroke-linecap="round" stroke-linejoin="round"/>
<path d="M92.9115 17.2686L85.5493 23.9485L92.9115 17.2686Z" stroke="white" stroke-width="2.24" stroke-miterlimit="10" stroke-linecap="round" stroke-linejoin="round"/>
<path d="M85.5494 23.9482L78.8274 31.2643L85.5494 23.9482Z" stroke="white" stroke-width="2.24" stroke-miterlimit="10" stroke-linecap="round" stroke-linejoin="round"/>
<path d="M78.8274 31.2644L73.3857 39.2167L78.8274 31.2644Z" stroke="white" stroke-width="2.24" stroke-miterlimit="10" stroke-linecap="round" stroke-linejoin="round"/>
<path d="M73.3856 39.2168L68.9043 47.8053L73.3856 39.2168Z" stroke="white" stroke-width="2.24" stroke-miterlimit="10" stroke-linecap="round" stroke-linejoin="round"/>
<path d="M68.9043 47.8052L65.7034 57.3479L68.9043 47.8052Z" stroke="white" stroke-width="2.24" stroke-miterlimit="10" stroke-linecap="round" stroke-linejoin="round"/>
<path d="M65.7035 57.3479L63.783 66.8907L65.7035 57.3479Z" stroke="white" stroke-width="2.24" stroke-miterlimit="10" stroke-linecap="round" stroke-linejoin="round"/>
<path d="M63.7827 66.8906L63.1426 76.4333L63.7827 66.8906Z" stroke="white" stroke-width="2.24" stroke-miterlimit="10" stroke-linecap="round" stroke-linejoin="round"/>
<path d="M63.1426 76.4333V77.0695V76.4333Z" stroke="white" stroke-width="2.24" stroke-miterlimit="10" stroke-linecap="round" stroke-linejoin="round"/>
<path d="M63.1426 77.0696V95.837V77.0696Z" stroke="white" stroke-width="2.24" stroke-miterlimit="10" stroke-linecap="round" stroke-linejoin="round"/>
<path d="M259.682 95.837V77.0696V95.837Z" stroke="white" stroke-width="2.24" stroke-miterlimit="10" stroke-linecap="round" stroke-linejoin="round"/>
<path d="M259.682 77.0696L259.042 67.845L259.682 77.0696Z" stroke="white" stroke-width="2.24" stroke-miterlimit="10" stroke-linecap="round" stroke-linejoin="round"/>
<path d="M259.042 67.845L257.121 58.9385L259.042 67.845Z" stroke="white" stroke-width="2.24" stroke-miterlimit="10" stroke-linecap="round" stroke-linejoin="round"/>
<path d="M257.121 58.9383L253.92 50.0317L257.121 58.9383Z" stroke="white" stroke-width="2.24" stroke-miterlimit="10" stroke-linecap="round" stroke-linejoin="round"/>
<path d="M253.92 50.0318L249.759 41.7615L253.92 50.0318Z" stroke="white" stroke-width="2.24" stroke-miterlimit="10" stroke-linecap="round" stroke-linejoin="round"/>
<path d="M249.759 41.7614L244.317 34.4453L249.759 41.7614Z" stroke="white" stroke-width="2.24" stroke-miterlimit="10" stroke-linecap="round" stroke-linejoin="round"/>
<path d="M244.317 34.4453L237.915 27.4473L244.317 34.4453Z" stroke="white" stroke-width="2.24" stroke-miterlimit="10" stroke-linecap="round" stroke-linejoin="round"/>
<path d="M237.915 27.4473L230.553 21.7217L237.915 27.4473Z" stroke="white" stroke-width="2.24" stroke-miterlimit="10" stroke-linecap="round" stroke-linejoin="round"/>
<path d="M230.553 21.7218L222.551 16.9504L230.553 21.7218Z" stroke="white" stroke-width="2.24" stroke-miterlimit="10" stroke-linecap="round" stroke-linejoin="round"/>
<path d="M222.551 16.9504L214.228 13.4514L222.551 16.9504Z" stroke="white" stroke-width="2.24" stroke-miterlimit="10" stroke-linecap="round" stroke-linejoin="round"/>
<path d="M214.228 13.4512L204.945 10.9065L214.228 13.4512Z" stroke="white" stroke-width="2.24" stroke-miterlimit="10" stroke-linecap="round" stroke-linejoin="round"/>
<path d="M204.945 10.9066L195.983 9.63428L204.945 10.9066Z" stroke="white" stroke-width="2.24" stroke-miterlimit="10" stroke-linecap="round" stroke-linejoin="round"/>
<path d="M195.983 9.63428H191.501H195.983Z" stroke="white" stroke-width="2.24" stroke-miterlimit="10" stroke-linecap="round" stroke-linejoin="round"/>
<path d="M191.501 9.63428H165.253H191.501Z" stroke="white" stroke-width="2.24" stroke-miterlimit="10" stroke-linecap="round" stroke-linejoin="round"/>
<path d="M165.254 9.63428H138.686H165.254Z" stroke="white" stroke-width="2.24" stroke-miterlimit="10" stroke-linecap="round" stroke-linejoin="round"/>
<path d="M138.685 9.63428L129.403 10.2705L138.685 9.63428Z" stroke="white" stroke-width="2.24" stroke-miterlimit="10" stroke-linecap="round" stroke-linejoin="round"/>
<path d="M129.403 10.2705L120.44 12.1791L129.403 10.2705Z" stroke="white" stroke-width="2.24" stroke-miterlimit="10" stroke-linecap="round" stroke-linejoin="round"/>
<path d="M120.44 12.179L111.477 15.3599L120.44 12.179Z" stroke="white" stroke-width="2.24" stroke-miterlimit="10" stroke-linecap="round" stroke-linejoin="round"/>
<path d="M111.477 15.3599L103.155 19.4951L111.477 15.3599Z" stroke="white" stroke-width="2.24" stroke-miterlimit="10" stroke-linecap="round" stroke-linejoin="round"/>
<path d="M103.155 19.4951L95.4724 24.9027L103.155 19.4951Z" stroke="white" stroke-width="2.24" stroke-miterlimit="10" stroke-linecap="round" stroke-linejoin="round"/>
<path d="M95.4725 24.9026L88.7505 31.2644L95.4725 24.9026Z" stroke="white" stroke-width="2.24" stroke-miterlimit="10" stroke-linecap="round" stroke-linejoin="round"/>
<path d="M88.7505 31.2644L82.9888 38.2624L88.7505 31.2644Z" stroke="white" stroke-width="2.24" stroke-miterlimit="10" stroke-linecap="round" stroke-linejoin="round"/>
<path d="M82.9887 38.2625L78.1873 46.2147L82.9887 38.2625Z" stroke="white" stroke-width="2.24" stroke-miterlimit="10" stroke-linecap="round" stroke-linejoin="round"/>
<path d="M78.1873 46.2148L74.3462 54.8033L78.1873 46.2148Z" stroke="white" stroke-width="2.24" stroke-miterlimit="10" stroke-linecap="round" stroke-linejoin="round"/>
<path d="M74.3461 54.8032L72.1055 63.7098L74.3461 54.8032Z" stroke="white" stroke-width="2.24" stroke-miterlimit="10" stroke-linecap="round" stroke-linejoin="round"/>
<path d="M72.1053 63.7097L70.825 72.9344L72.1053 63.7097Z" stroke="white" stroke-width="2.24" stroke-miterlimit="10" stroke-linecap="round" stroke-linejoin="round"/>
<path d="M70.825 72.9346V77.0697V72.9346Z" stroke="white" stroke-width="2.24" stroke-miterlimit="10" stroke-linecap="round" stroke-linejoin="round"/>
<path d="M70.825 77.0696V95.837V77.0696Z" stroke="white" stroke-width="2.24" stroke-miterlimit="10" stroke-linecap="round" stroke-linejoin="round"/>
<path d="M63.1426 95.8369H267.364H63.1426Z" stroke="white" stroke-width="2.24" stroke-miterlimit="10" stroke-linecap="round" stroke-linejoin="round"/>
<path d="M266.404 95.8371L267.364 94.8828L266.404 95.8371Z" stroke="white" stroke-width="0.64" stroke-miterlimit="10" stroke-linecap="round" stroke-linejoin="round"/>
<path d="M259.682 86.6125L267.364 78.9783L259.682 86.6125Z" stroke="white" stroke-width="0.64" stroke-miterlimit="10" stroke-linecap="round" stroke-linejoin="round"/>
<path d="M259.362 71.0259L266.084 64.3459L259.362 71.0259Z" stroke="white" stroke-width="0.64" stroke-miterlimit="10" stroke-linecap="round" stroke-linejoin="round"/>
<path d="M256.801 57.666L262.883 51.6223L256.801 57.666Z" stroke="white" stroke-width="0.64" stroke-miterlimit="10" stroke-linecap="round" stroke-linejoin="round"/>
<path d="M252 46.2147L257.761 40.8071L252 46.2147Z" stroke="white" stroke-width="0.64" stroke-miterlimit="10" stroke-linecap="round" stroke-linejoin="round"/>
<path d="M245.918 36.3539L251.359 30.9463L245.918 36.3539Z" stroke="white" stroke-width="0.64" stroke-miterlimit="10" stroke-linecap="round" stroke-linejoin="round"/>
<path d="M238.235 28.0836L243.677 22.676L238.235 28.0836Z" stroke="white" stroke-width="0.64" stroke-miterlimit="10" stroke-linecap="round" stroke-linejoin="round"/>
<path d="M229.593 21.0855L235.034 15.678L229.593 21.0855Z" stroke="white" stroke-width="0.64" stroke-miterlimit="10" stroke-linecap="round" stroke-linejoin="round"/>
<path d="M219.03 15.3599L224.791 9.63428L219.03 15.3599Z" stroke="white" stroke-width="0.64" stroke-miterlimit="10" stroke-linecap="round" stroke-linejoin="round"/>
<path d="M207.186 11.2246L213.268 5.18091L207.186 11.2246Z" stroke="white" stroke-width="0.64" stroke-miterlimit="10" stroke-linecap="round" stroke-linejoin="round"/>
<path d="M192.782 9.63425L199.824 2.63623L192.782 9.63425Z" stroke="white" stroke-width="0.64" stroke-miterlimit="10" stroke-linecap="round" stroke-linejoin="round"/>
<path d="M176.777 9.6342L184.459 2L176.777 9.6342Z" stroke="white" stroke-width="0.64" stroke-miterlimit="10" stroke-linecap="round" stroke-linejoin="round"/>
<path d="M160.772 9.6342L168.134 2L160.772 9.6342Z" stroke="white" stroke-width="0.64" stroke-miterlimit="10" stroke-linecap="round" stroke-linejoin="round"/>
<path d="M144.767 9.6342L152.129 2L144.767 9.6342Z" stroke="white" stroke-width="0.64" stroke-miterlimit="10" stroke-linecap="round" stroke-linejoin="round"/>
<path d="M63.1426 90.7475L70.8249 83.1133L63.1426 90.7475Z" stroke="white" stroke-width="0.64" stroke-miterlimit="10" stroke-linecap="round" stroke-linejoin="round"/>
<path d="M63.1426 74.525L71.4651 66.2546L63.1426 74.525Z" stroke="white" stroke-width="0.64" stroke-miterlimit="10" stroke-linecap="round" stroke-linejoin="round"/>
<path d="M127.802 10.5885L136.125 2L127.802 10.5885Z" stroke="white" stroke-width="0.64" stroke-miterlimit="10" stroke-linecap="round" stroke-linejoin="round"/>
<path d="M101.554 20.4493L116.919 5.18091L101.554 20.4493Z" stroke="white" stroke-width="0.64" stroke-miterlimit="10" stroke-linecap="round" stroke-linejoin="round"/>
<path d="M66.3438 55.4393L81.7083 40.1709L66.3438 55.4393Z" stroke="white" stroke-width="0.64" stroke-miterlimit="10" stroke-linecap="round" stroke-linejoin="round"/>

    <!--    1 A-->
    <g class="group">
    </g>
    <!--    2 D-->
    <g class="group">
        <path d="M164.707 151.561H160.474L161.254 149.509H165.459C166.907 149.509 168.218 149.225 169.39 148.659C170.567 148.083 171.584 147.281 172.444 146.253C173.316 145.216 174.005 144.004 174.513 142.618L174.939 141.455C175.338 140.365 175.554 139.398 175.585 138.552C175.619 137.698 175.474 136.979 175.15 136.395C174.828 135.802 174.334 135.353 173.666 135.048C173.007 134.743 172.176 134.591 171.174 134.591H166.607L167.364 132.525H171.931C173.258 132.525 174.393 132.734 175.335 133.152C176.28 133.562 177.004 134.159 177.505 134.944C178.019 135.719 178.287 136.661 178.309 137.768C178.334 138.866 178.094 140.104 177.589 141.481L177.173 142.618C176.668 143.995 176 145.238 175.167 146.345C174.338 147.443 173.377 148.38 172.286 149.155C171.203 149.931 170.019 150.528 168.733 150.947C167.46 151.356 166.118 151.561 164.707 151.561ZM168.881 132.525L161.908 151.561H159.221L166.194 132.525H168.881Z" fill="white"/>
        <path d="M63.4626 104.426C63.4626 104.249 63.3193 104.106 63.1426 104.106C62.9658 104.106 62.8226 104.249 62.8226 104.426H63.4626ZM62.8226 171.543C62.8226 171.719 62.9658 171.863 63.1426 171.863C63.3193 171.863 63.4626 171.719 63.4626 171.543H62.8226ZM267.684 142.596C267.684 142.42 267.541 142.276 267.364 142.276C267.187 142.276 267.044 142.42 267.044 142.596H267.684ZM267.044 171.543C267.044 171.719 267.187 171.863 267.364 171.863C267.541 171.863 267.684 171.719 267.684 171.543H267.044ZM160.474 151.561L160.175 151.448C160.138 151.546 160.151 151.656 160.211 151.743C160.271 151.829 160.369 151.881 160.474 151.881V151.561ZM161.254 149.509V149.189C161.121 149.189 161.002 149.271 160.955 149.395L161.254 149.509ZM169.39 148.659L169.53 148.947L169.531 148.946L169.39 148.659ZM172.444 146.253L172.199 146.047L172.198 146.048L172.444 146.253ZM174.513 142.618L174.213 142.508L174.213 142.508L174.513 142.618ZM174.939 141.455L175.24 141.565L175.24 141.565L174.939 141.455ZM175.585 138.552L175.265 138.539L175.265 138.54L175.585 138.552ZM175.15 136.395L174.868 136.547L174.87 136.55L175.15 136.395ZM173.666 135.048L173.531 135.339L173.533 135.339L173.666 135.048ZM166.607 134.591L166.306 134.481C166.27 134.579 166.285 134.688 166.345 134.774C166.404 134.86 166.502 134.911 166.607 134.911V134.591ZM167.364 132.525V132.205C167.229 132.205 167.109 132.289 167.063 132.415L167.364 132.525ZM175.335 133.152L175.205 133.445L175.208 133.446L175.335 133.152ZM177.505 134.944L177.236 135.116L177.239 135.12L177.505 134.944ZM178.309 137.768L177.989 137.774L177.989 137.775L178.309 137.768ZM177.589 141.481L177.289 141.371L177.289 141.371L177.589 141.481ZM177.173 142.618L177.473 142.728L177.473 142.728L177.173 142.618ZM175.167 146.345L175.423 146.537L175.423 146.537L175.167 146.345ZM172.286 149.155L172.1 148.895L172.099 148.895L172.286 149.155ZM168.733 150.947L168.831 151.251L168.832 151.251L168.733 150.947ZM168.881 132.525L169.182 132.635C169.218 132.537 169.203 132.427 169.144 132.342C169.084 132.256 168.986 132.205 168.881 132.205V132.525ZM161.908 151.561V151.881C162.043 151.881 162.163 151.797 162.209 151.671L161.908 151.561ZM159.221 151.561L158.921 151.451C158.885 151.549 158.899 151.659 158.959 151.744C159.019 151.83 159.117 151.881 159.221 151.881V151.561ZM166.194 132.525V132.205C166.06 132.205 165.94 132.289 165.893 132.415L166.194 132.525ZM63.1426 164.227L63.0998 163.909C62.9411 163.931 62.8226 164.066 62.8226 164.227C62.8226 164.387 62.9411 164.522 63.0998 164.544L63.1426 164.227ZM82.0282 161.682L82.2837 161.875C82.3614 161.772 82.3697 161.632 82.3045 161.52C82.2393 161.409 82.1135 161.348 81.9855 161.365L82.0282 161.682ZM82.0285 166.771L81.9857 167.089C82.1137 167.106 82.2395 167.044 82.3047 166.933C82.3699 166.822 82.3617 166.682 82.2839 166.579L82.0285 166.771ZM267.364 164.227L267.407 164.544C267.566 164.523 267.684 164.387 267.684 164.227C267.684 164.067 267.566 163.931 267.407 163.91L267.364 164.227ZM248.479 166.771L248.223 166.579C248.145 166.682 248.137 166.822 248.202 166.933C248.267 167.044 248.393 167.106 248.521 167.089L248.479 166.771ZM248.479 161.682L248.521 161.365C248.393 161.348 248.267 161.409 248.202 161.52C248.137 161.632 248.145 161.772 248.223 161.875L248.479 161.682ZM267.044 142.596V171.543H267.684V142.596H267.044ZM164.707 151.241H160.474V151.881H164.707V151.241ZM160.773 151.675L161.553 149.622L160.955 149.395L160.175 151.448L160.773 151.675ZM161.254 149.829H165.459V149.189H161.254V149.829ZM165.459 149.829C166.95 149.829 168.309 149.537 169.53 148.947L169.251 148.371C168.126 148.914 166.864 149.189 165.459 149.189V149.829ZM169.531 148.946C170.749 148.351 171.802 147.52 172.689 146.458L172.198 146.048C171.367 147.043 170.385 147.816 169.25 148.371L169.531 148.946ZM172.689 146.459C173.587 145.391 174.294 144.146 174.814 142.728L174.213 142.508C173.717 143.862 173.045 145.041 172.199 146.047L172.689 146.459ZM174.814 142.728L175.24 141.565L174.639 141.345L174.213 142.508L174.814 142.728ZM175.24 141.565C175.647 140.455 175.872 139.453 175.905 138.564L175.265 138.54C175.235 139.342 175.03 140.276 174.639 141.345L175.24 141.565ZM175.905 138.565C175.941 137.668 175.789 136.887 175.429 136.239L174.87 136.55C175.159 137.07 175.298 137.728 175.265 138.539L175.905 138.565ZM175.431 136.242C175.074 135.583 174.524 135.088 173.799 134.757L173.533 135.339C174.144 135.618 174.583 136.021 174.868 136.547L175.431 136.242ZM173.8 134.758C173.087 134.427 172.206 134.271 171.174 134.271V134.911C172.147 134.911 172.928 135.059 173.531 135.339L173.8 134.758ZM171.174 134.271H166.607V134.911H171.174V134.271ZM166.907 134.701L167.664 132.635L167.063 132.415L166.306 134.481L166.907 134.701ZM167.364 132.845H171.931V132.205H167.364V132.845ZM171.931 132.845C173.226 132.845 174.314 133.049 175.205 133.445L175.465 132.86C174.472 132.419 173.29 132.205 171.931 132.205V132.845ZM175.208 133.446C176.101 133.833 176.772 134.391 177.236 135.116L177.775 134.771C177.235 133.927 176.459 133.291 175.462 132.859L175.208 133.446ZM177.239 135.12C177.713 135.837 177.968 136.716 177.989 137.774L178.629 137.761C178.606 136.605 178.326 135.602 177.772 134.767L177.239 135.12ZM177.989 137.775C178.012 138.822 177.784 140.019 177.289 141.371L177.89 141.591C178.404 140.188 178.655 138.91 178.629 137.761L177.989 137.775ZM177.289 141.371L176.872 142.508L177.473 142.728L177.89 141.591L177.289 141.371ZM176.872 142.508C176.378 143.858 175.724 145.072 174.911 146.152L175.423 146.537C176.275 145.403 176.958 144.133 177.473 142.728L176.872 142.508ZM174.912 146.152C174.102 147.225 173.165 148.138 172.1 148.895L172.471 149.416C173.59 148.621 174.574 147.661 175.423 146.537L174.912 146.152ZM172.099 148.895C171.044 149.652 169.889 150.234 168.634 150.642L168.832 151.251C170.149 150.823 171.363 150.211 172.472 149.416L172.099 148.895ZM168.635 150.642C167.396 151.041 166.087 151.241 164.707 151.241V151.881C166.149 151.881 167.525 151.672 168.831 151.251L168.635 150.642ZM168.581 132.415L161.608 151.451L162.209 151.671L169.182 132.635L168.581 132.415ZM161.908 151.241H159.221V151.881H161.908V151.241ZM159.522 151.671L166.494 132.635L165.893 132.415L158.921 151.451L159.522 151.671ZM166.194 132.845H168.881V132.205H166.194V132.845ZM63.1853 164.544L82.071 161.999L81.9855 161.365L63.0998 163.909L63.1853 164.544ZM81.7728 161.489L79.8525 164.034L80.3633 164.419L82.2837 161.875L81.7728 161.489ZM79.8525 164.419L81.773 166.964L82.2839 166.579L80.3633 164.034L79.8525 164.419ZM82.0712 166.454L63.1853 163.909L63.0998 164.544L81.9857 167.089L82.0712 166.454ZM79.7876 162.32H82.0283V161.68H79.7876V162.32ZM77.5469 162.638H81.7082V161.998H77.5469V162.638ZM74.9862 162.956H81.3881V162.316H74.9862V162.956ZM72.7455 163.274H81.068V162.634H72.7455V163.274ZM70.5048 163.592H81.068V162.952H70.5048V163.592ZM67.944 163.91H80.7479V163.27H67.944V163.91ZM65.7034 164.229H80.4278V163.589H65.7034V164.229ZM63.1426 164.547H80.1079V163.907H63.1426V164.547ZM65.7033 164.865H80.4277V164.225H65.7033V164.865ZM67.944 165.183H80.7478V164.543H67.944V165.183ZM70.5048 165.501H81.0679V164.861H70.5048V165.501ZM72.7455 165.819H81.0679V165.179H72.7455V165.819ZM74.9861 166.137H81.388V165.497H74.9861V166.137ZM77.5469 166.455H81.7081V165.815H77.5469V166.455ZM79.7876 166.773H82.0282V166.133H79.7876V166.773ZM267.321 163.91L248.436 166.454L248.521 167.089L267.407 164.544L267.321 163.91ZM248.734 166.964L250.654 164.42L250.144 164.034L248.223 166.579L248.734 166.964ZM250.655 164.034L248.734 161.489L248.223 161.875L250.144 164.42L250.655 164.034ZM248.436 161.999L267.321 164.544L267.407 163.91L248.521 161.365L248.436 161.999ZM250.399 164.547H267.364V163.907H250.399V164.547ZM250.399 164.865H265.123V164.225H250.399V164.865ZM250.079 165.183H262.883V164.543H250.079V165.183ZM249.759 165.501H260.322V164.861H249.759V165.501ZM249.439 165.819H258.081V165.179H249.439V165.819ZM249.439 166.137H255.841V165.497H249.439V166.137ZM249.119 166.455H253.28V165.815H249.119V166.455ZM248.799 166.773H251.039V166.133H248.799V166.773ZM248.799 162.32H251.039V161.68H248.799V162.32ZM249.119 162.638H253.28V161.998H249.119V162.638ZM249.439 162.956H255.841V162.316H249.439V162.956ZM249.439 163.274H258.081V162.634H249.439V163.274ZM249.759 163.592H260.322V162.952H249.759V163.592ZM250.079 163.91H262.883V163.27H250.079V163.91ZM250.399 164.229H265.124V163.589H250.399V164.229ZM63.1426 164.547L267.364 164.547L267.364 163.907L63.1426 163.907L63.1426 164.547ZM63.4626 171.543V104.426H62.8226V171.543H63.4626Z" fill="white"/>
    </g>
    <!--    3 Dy-->
    <g class="group">
    </g>
    <!--    4 Dh-->
    <g class="group">
    </g>
    <!--    5 D1-->
    <g class="group">
    </g>
    <!--   6 D2-->
    <g class="group">
    </g>
    <!--   7 d-->
    <g class="group">
    </g>
    <!--    8 dH-->
    <g class="group">
    </g>
    <!--    9 d1-->
    <g class="group">
    </g>
    <!--    10 d2-->
    <g class="group">
    </g>
    <!--    11 L-->
    <g class="group">
    </g>
    <!--    12 L1-->
    <g class="group">
    </g>
    <!--    13 L2-->
    <g class="group">
    </g>
    <!--    14 S-->
    <g class="group">
        <path d="M229.088 115.034C229.216 114.685 229.25 114.362 229.192 114.066C229.146 113.761 228.917 113.486 228.505 113.242C228.106 112.99 227.443 112.772 226.517 112.589C225.742 112.423 225.057 112.227 224.463 112C223.877 111.774 223.407 111.499 223.052 111.177C222.706 110.854 222.487 110.475 222.396 110.039C222.305 109.603 222.367 109.093 222.58 108.509C222.785 107.952 223.108 107.424 223.55 106.927C224.001 106.431 224.538 105.99 225.161 105.607C225.794 105.223 226.493 104.923 227.26 104.705C228.027 104.487 228.833 104.378 229.677 104.378C230.884 104.378 231.841 104.578 232.548 104.979C233.255 105.38 233.713 105.916 233.922 106.588C234.135 107.25 234.092 107.986 233.795 108.797H231.219C231.363 108.405 231.377 108.026 231.26 107.66C231.156 107.285 230.912 106.975 230.528 106.731C230.153 106.487 229.627 106.365 228.949 106.365C228.235 106.365 227.616 106.47 227.094 106.679C226.584 106.879 226.17 107.137 225.851 107.45C225.541 107.764 225.322 108.095 225.194 108.444C225.098 108.706 225.059 108.941 225.075 109.15C225.104 109.351 225.211 109.538 225.398 109.712C225.588 109.878 225.883 110.035 226.284 110.183C226.684 110.331 227.21 110.479 227.862 110.627C229 110.889 229.902 111.203 230.566 111.569C231.23 111.935 231.66 112.384 231.855 112.916C232.05 113.447 232.009 114.092 231.731 114.851C231.504 115.469 231.158 116.036 230.691 116.55C230.233 117.064 229.676 117.509 229.019 117.884C228.374 118.25 227.656 118.537 226.865 118.747C226.086 118.947 225.255 119.047 224.374 119.047C223.046 119.047 222.004 118.825 221.248 118.381C220.492 117.936 220.007 117.361 219.792 116.655C219.577 115.949 219.613 115.204 219.901 114.419H222.49C222.285 115.081 222.296 115.609 222.524 116.001C222.754 116.385 223.109 116.659 223.586 116.825C224.067 116.982 224.572 117.06 225.102 117.06C225.807 117.06 226.428 116.973 226.966 116.799C227.512 116.624 227.967 116.385 228.329 116.08C228.691 115.774 228.944 115.426 229.088 115.034Z" fill="white"/>
        <path d="M267.684 104.426C267.684 104.249 267.541 104.106 267.364 104.106C267.187 104.106 267.044 104.249 267.044 104.426H267.684ZM267.044 138.78C267.044 138.956 267.187 139.1 267.364 139.1C267.541 139.1 267.684 138.956 267.684 138.78H267.044ZM260.002 104.426C260.002 104.249 259.858 104.106 259.682 104.106C259.505 104.106 259.362 104.249 259.362 104.426H260.002ZM259.362 138.78C259.362 138.956 259.505 139.1 259.682 139.1C259.858 139.1 260.002 138.956 260.002 138.78H259.362ZM208.146 131.143C207.97 131.143 207.826 131.287 207.826 131.463C207.826 131.64 207.97 131.783 208.146 131.783V131.143ZM229.088 115.034L228.788 114.923L229.088 115.034ZM229.192 114.066L228.875 114.114C228.876 114.119 228.877 114.123 228.878 114.128L229.192 114.066ZM228.505 113.242L228.334 113.513L228.342 113.518L228.505 113.242ZM226.517 112.589L226.45 112.902L226.455 112.903L226.517 112.589ZM224.463 112L224.347 112.299L224.349 112.299L224.463 112ZM223.052 111.177L222.833 111.411L222.837 111.414L223.052 111.177ZM222.58 108.509L222.28 108.399L222.28 108.399L222.58 108.509ZM223.55 106.927L223.313 106.712L223.311 106.715L223.55 106.927ZM225.161 105.607L224.995 105.333L224.994 105.334L225.161 105.607ZM233.922 106.588L233.617 106.683L233.618 106.685L233.922 106.588ZM233.795 108.797V109.117C233.93 109.117 234.05 109.033 234.096 108.907L233.795 108.797ZM231.219 108.797L230.919 108.687C230.883 108.785 230.897 108.895 230.957 108.98C231.017 109.066 231.115 109.117 231.219 109.117V108.797ZM231.26 107.66L230.951 107.745L230.955 107.757L231.26 107.66ZM230.528 106.731L230.353 106.999L230.356 107.001L230.528 106.731ZM227.094 106.679L227.211 106.977L227.213 106.976L227.094 106.679ZM225.851 107.45L225.626 107.222L225.623 107.226L225.851 107.45ZM225.194 108.444L224.894 108.334L225.194 108.444ZM225.075 109.15L224.756 109.175C224.756 109.182 224.757 109.189 224.758 109.195L225.075 109.15ZM225.398 109.712L225.18 109.946L225.188 109.953L225.398 109.712ZM227.862 110.627L227.933 110.316L227.933 110.315L227.862 110.627ZM231.731 114.851L232.032 114.961L231.731 114.851ZM230.691 116.55L230.454 116.335L230.452 116.337L230.691 116.55ZM229.019 117.884L229.177 118.162L229.177 118.162L229.019 117.884ZM226.865 118.747L226.944 119.057L226.946 119.056L226.865 118.747ZM219.901 114.419V114.099C219.766 114.099 219.646 114.183 219.6 114.309L219.901 114.419ZM222.49 114.419L222.796 114.514C222.826 114.417 222.808 114.311 222.748 114.229C222.688 114.147 222.592 114.099 222.49 114.099V114.419ZM222.524 116.001L222.247 116.162L222.249 116.166L222.524 116.001ZM223.586 116.825L223.482 117.127L223.487 117.129L223.586 116.825ZM226.966 116.799L226.868 116.494L226.867 116.494L226.966 116.799ZM286.25 133.69L286.212 134.008C286.343 134.023 286.47 133.957 286.532 133.84C286.594 133.724 286.578 133.581 286.492 133.481L286.25 133.69ZM286.25 128.919L286.505 129.111C286.583 129.008 286.591 128.869 286.526 128.757C286.461 128.646 286.335 128.584 286.207 128.601L286.25 128.919ZM293.612 131.783C293.789 131.783 293.932 131.64 293.932 131.463C293.932 131.287 293.789 131.143 293.612 131.143V131.783ZM240.796 128.919L240.839 128.601C240.711 128.584 240.585 128.646 240.52 128.757C240.455 128.869 240.463 129.008 240.541 129.111L240.796 128.919ZM240.796 133.69L240.554 133.481C240.468 133.581 240.452 133.724 240.514 133.84C240.575 133.957 240.703 134.023 240.834 134.008L240.796 133.69ZM233.114 131.143C232.937 131.143 232.794 131.287 232.794 131.463C232.794 131.64 232.937 131.783 233.114 131.783V131.143ZM267.044 104.426V138.78H267.684V104.426H267.044ZM259.362 104.426V138.78H260.002V104.426H259.362ZM229.389 115.144C229.532 114.753 229.578 114.37 229.506 114.004L228.878 114.128C228.923 114.355 228.9 114.617 228.788 114.923L229.389 115.144ZM229.508 114.018C229.441 113.576 229.117 113.233 228.668 112.967L228.342 113.518C228.717 113.74 228.85 113.946 228.875 114.114L229.508 114.018ZM228.676 112.972C228.224 112.686 227.513 112.459 226.579 112.275L226.455 112.903C227.373 113.084 227.987 113.293 228.334 113.513L228.676 112.972ZM226.583 112.276C225.821 112.113 225.153 111.921 224.576 111.701L224.349 112.299C224.962 112.533 225.663 112.733 226.45 112.902L226.583 112.276ZM224.578 111.702C224.019 111.485 223.585 111.229 223.267 110.94L222.837 111.414C223.228 111.769 223.736 112.062 224.347 112.299L224.578 111.702ZM223.27 110.943C222.969 110.662 222.786 110.341 222.709 109.974L222.083 110.105C222.188 110.609 222.442 111.046 222.833 111.411L223.27 110.943ZM222.709 109.974C222.634 109.615 222.68 109.169 222.881 108.62L222.28 108.399C222.053 109.018 221.976 109.591 222.083 110.105L222.709 109.974ZM222.881 108.62C223.07 108.104 223.371 107.61 223.789 107.14L223.311 106.715C222.845 107.238 222.5 107.8 222.28 108.399L222.881 108.62ZM223.787 107.143C224.216 106.67 224.729 106.249 225.329 105.879L224.994 105.334C224.347 105.732 223.786 106.191 223.313 106.712L223.787 107.143ZM225.327 105.881C225.933 105.513 226.606 105.223 227.348 105.013L227.173 104.397C226.38 104.622 225.654 104.934 224.995 105.333L225.327 105.881ZM227.348 105.013C228.084 104.803 228.86 104.698 229.677 104.698V104.058C228.805 104.058 227.969 104.171 227.173 104.397L227.348 105.013ZM229.677 104.698C230.854 104.698 231.749 104.894 232.39 105.258L232.706 104.701C231.933 104.263 230.914 104.058 229.677 104.058V104.698ZM232.39 105.258C233.039 105.625 233.436 106.101 233.617 106.683L234.228 106.492C233.991 105.731 233.472 105.135 232.706 104.701L232.39 105.258ZM233.618 106.685C233.803 107.265 233.773 107.927 233.495 108.687L234.096 108.907C234.411 108.046 234.466 107.235 234.227 106.49L233.618 106.685ZM233.795 108.477H231.219V109.117H233.795V108.477ZM231.52 108.907C231.686 108.454 231.705 108.002 231.565 107.563L230.955 107.757C231.048 108.049 231.04 108.355 230.919 108.687L231.52 108.907ZM231.568 107.574C231.44 107.11 231.138 106.74 230.7 106.461L230.356 107.001C230.686 107.211 230.872 107.459 230.952 107.745L231.568 107.574ZM230.703 106.463C230.256 106.172 229.659 106.045 228.949 106.045V106.685C229.595 106.685 230.051 106.802 230.353 106.999L230.703 106.463ZM228.949 106.045C228.204 106.045 227.544 106.154 226.975 106.382L227.213 106.976C227.689 106.786 228.265 106.685 228.949 106.685V106.045ZM226.977 106.381C226.436 106.594 225.982 106.872 225.626 107.222L226.075 107.679C226.357 107.401 226.733 107.165 227.211 106.977L226.977 106.381ZM225.623 107.226C225.287 107.566 225.04 107.935 224.894 108.334L225.495 108.554C225.604 108.256 225.795 107.962 226.078 107.675L225.623 107.226ZM224.894 108.334C224.787 108.625 224.735 108.907 224.756 109.175L225.394 109.125C225.382 108.974 225.41 108.786 225.495 108.554L224.894 108.334ZM224.758 109.195C224.8 109.485 224.954 109.735 225.18 109.946L225.616 109.478C225.469 109.341 225.408 109.216 225.392 109.105L224.758 109.195ZM225.188 109.953C225.42 110.156 225.758 110.329 226.173 110.483L226.395 109.883C226.009 109.74 225.756 109.599 225.608 109.471L225.188 109.953ZM226.173 110.483C226.592 110.638 227.132 110.79 227.791 110.94L227.933 110.315C227.288 110.169 226.777 110.024 226.395 109.883L226.173 110.483ZM227.79 110.939C228.914 111.197 229.783 111.503 230.412 111.849L230.721 111.289C230.02 110.903 229.087 110.581 227.933 110.316L227.79 110.939ZM230.412 111.849C231.031 112.191 231.394 112.588 231.555 113.026L232.155 112.805C231.926 112.18 231.429 111.679 230.721 111.289L230.412 111.849ZM231.555 113.026C231.714 113.461 231.693 114.023 231.431 114.74L232.032 114.961C232.324 114.161 232.386 113.433 232.155 112.805L231.555 113.026ZM231.431 114.74C231.219 115.318 230.894 115.85 230.454 116.335L230.928 116.765C231.421 116.222 231.79 115.62 232.032 114.961L231.431 114.74ZM230.452 116.337C230.019 116.823 229.49 117.247 228.86 117.606L229.177 118.162C229.862 117.771 230.447 117.306 230.93 116.763L230.452 116.337ZM228.861 117.606C228.242 117.957 227.55 118.234 226.783 118.437L226.946 119.056C227.762 118.841 228.506 118.543 229.177 118.162L228.861 117.606ZM226.785 118.437C226.034 118.63 225.231 118.727 224.374 118.727V119.367C225.28 119.367 226.137 119.264 226.944 119.057L226.785 118.437ZM224.374 118.727C223.076 118.727 222.098 118.509 221.41 118.105L221.086 118.656C221.91 119.141 223.016 119.367 224.374 119.367V118.727ZM221.41 118.105C220.71 117.693 220.285 117.177 220.098 116.562L219.486 116.748C219.728 117.545 220.275 118.179 221.086 118.656L221.41 118.105ZM220.098 116.562C219.906 115.931 219.934 115.257 220.201 114.529L219.6 114.309C219.292 115.15 219.248 115.967 219.486 116.748L220.098 116.562ZM219.901 114.739H222.49V114.099H219.901V114.739ZM222.185 114.324C221.967 115.027 221.955 115.659 222.247 116.162L222.8 115.84C222.637 115.559 222.603 115.136 222.796 114.514L222.185 114.324ZM222.249 116.166C222.524 116.622 222.943 116.94 223.482 117.127L223.691 116.522C223.275 116.378 222.985 116.147 222.798 115.836L222.249 116.166ZM223.487 117.129C224.002 117.297 224.54 117.38 225.102 117.38V116.74C224.605 116.74 224.133 116.666 223.686 116.521L223.487 117.129ZM225.102 117.38C225.833 117.38 226.488 117.29 227.064 117.103L226.867 116.494C226.368 116.656 225.781 116.74 225.102 116.74V117.38ZM227.063 117.103C227.641 116.919 228.135 116.661 228.535 116.324L228.123 115.835C227.799 116.108 227.383 116.33 226.868 116.494L227.063 117.103ZM228.535 116.324C228.934 115.988 229.223 115.595 229.389 115.144L228.788 114.923C228.666 115.257 228.448 115.561 228.123 115.835L228.535 116.324ZM267.327 131.781L286.212 134.008L286.287 133.372L267.401 131.146L267.327 131.781ZM286.492 133.481L284.571 131.254L284.087 131.673L286.007 133.899L286.492 133.481ZM284.585 131.656L286.505 129.111L285.994 128.726L284.074 131.271L284.585 131.656ZM286.207 128.601L267.321 131.146L267.407 131.781L286.292 129.236L286.207 128.601ZM267.364 131.783H293.612V131.143H267.364V131.783ZM267.364 131.783H284.329V131.143H267.364V131.783ZM270.245 132.102H284.649V131.462H270.245V132.102ZM272.806 132.42H284.969V131.78H272.806V132.42ZM275.687 132.738H285.289V132.098H275.687V132.738ZM278.247 133.056H285.61V132.416H278.247V133.056ZM281.128 133.374H285.93V132.734H281.128V133.374ZM283.689 133.692H286.25V133.052H283.689V133.692ZM284.009 129.557H286.25V128.917H284.009V129.557ZM281.768 129.875H285.93V129.235H281.768V129.875ZM279.208 130.193H285.61V129.553H279.208V130.193ZM276.967 130.511H285.289V129.871H276.967V130.511ZM274.726 130.829H285.289V130.189H274.726V130.829ZM272.165 131.147H284.969V130.507H272.165V131.147ZM269.925 131.465H284.649V130.825H269.925V131.465ZM259.725 131.146L240.839 128.601L240.753 129.236L259.639 131.781L259.725 131.146ZM240.541 129.111L242.461 131.656L242.972 131.271L241.052 128.726L240.541 129.111ZM242.474 131.254L240.554 133.481L241.038 133.899L242.959 131.672L242.474 131.254ZM240.834 134.008L259.719 131.781L259.644 131.146L240.759 133.372L240.834 134.008ZM259.682 131.143H233.114V131.783H259.682V131.143ZM241.116 129.557H243.357V128.917H241.116V129.557ZM241.436 129.875H245.598V129.235H241.436V129.875ZM241.756 130.193H248.158V129.553H241.756V130.193ZM241.756 130.511H250.399V129.871H241.756V130.511ZM242.076 130.829H252.64V130.189H242.076V130.829ZM242.397 131.147H255.2V130.507H242.397V131.147ZM242.717 131.465H257.441V130.825H242.717V131.465ZM242.717 131.783L259.682 131.783L259.682 131.143L242.717 131.143L242.717 131.783ZM242.717 132.102H257.121V131.462H242.717V132.102ZM242.397 132.42H254.56V131.78H242.397V132.42ZM242.076 132.738H251.679V132.098H242.076V132.738ZM241.756 133.056H249.119V132.416H241.756V133.056ZM241.436 133.374H246.238V132.734H241.436V133.374ZM241.116 133.692H243.677V133.052H241.116V133.692ZM267.364 131.143H259.682V131.783H267.364V131.143ZM259.682 131.143H208.146V131.783H259.682V131.143Z" fill="white"/>
    </g>
    <!--    15 S1-->
    <g class="group">
    </g>
    <!--    16 S2-->
    <g class="group">
    </g>
    <!--    17 S3-->
    <g class="group">
    </g>
    <!--    18 S4-->
    <g class="group">
    </g>
    <!--    19 I-->
    <g class="group">
    </g>
    <!--    20 I1-->
    <g class="group">
    </g>
    <!--    21 I2-->
    <g class="group">
    </g>
    <!--    22 H-->
    <g class="group">
    </g>
    <!--    23 H1-->
    <g class="group">
    </g>
    <!--    24 H2-->
    <g class="group">
    </g>
    <!--    25 h-->
    <g class="group">
        <path d="M0.337891 44.6705L20.4497 51.9454V54.5213L0.337891 47.2464V44.6705ZM12.8292 49.8015L12.7899 50.8595C11.821 50.4997 10.9263 50.0229 10.1057 49.429C9.27647 48.832 8.55632 48.1538 7.94529 47.3944C7.33425 46.635 6.86288 45.824 6.53118 44.9614C6.19074 44.0864 6.02052 43.194 6.02052 42.2843C6.02052 41.5417 6.11654 40.9081 6.30858 40.3835C6.4919 39.8557 6.78868 39.4571 7.19895 39.1878C7.60922 38.9092 8.14169 38.7769 8.79637 38.791C9.44233 38.8018 10.2323 38.9762 11.1663 39.3141L20.4497 42.672V45.2619L11.1401 41.8944C10.3982 41.626 9.80458 41.5274 9.3594 41.5984C8.90549 41.6663 8.57815 41.8867 8.37738 42.2596C8.16788 42.6294 8.06313 43.1392 8.06313 43.789C8.06313 44.4295 8.1897 45.0601 8.44285 45.6807C8.69599 46.2921 9.04515 46.8686 9.49034 47.4103C9.93552 47.9426 10.4462 48.4197 11.0223 48.8416C11.5897 49.2511 12.192 49.571 12.8292 49.8015Z" fill="white"/>
        <path d="M106.356 2.32C106.532 2.32 106.676 2.17673 106.676 2C106.676 1.82327 106.532 1.68 106.356 1.68V2.32ZM25.6915 1.68C25.5147 1.68 25.3715 1.82327 25.3715 2C25.3715 2.17673 25.5147 2.32 25.6915 2.32V1.68ZM53.5398 96.1569C53.7166 96.1569 53.8598 96.0136 53.8598 95.8369C53.8598 95.6602 53.7166 95.5169 53.5398 95.5169V96.1569ZM25.6915 95.5169C25.5147 95.5169 25.3715 95.6602 25.3715 95.8369C25.3715 96.0136 25.5147 96.1569 25.6915 96.1569V95.5169ZM0.337891 44.6705L0.446739 44.3696C0.348665 44.3341 0.239457 44.3487 0.154086 44.4086C0.0687139 44.4685 0.0178906 44.5662 0.0178906 44.6705H0.337891ZM20.4497 51.9454H20.7697C20.7697 51.8106 20.6853 51.6903 20.5585 51.6444L20.4497 51.9454ZM20.4497 54.5213L20.3409 54.8222C20.4389 54.8577 20.5481 54.8431 20.6335 54.7832C20.7189 54.7233 20.7697 54.6256 20.7697 54.5213H20.4497ZM0.337891 47.2464H0.0178906C0.0178906 47.3812 0.102317 47.5015 0.229042 47.5474L0.337891 47.2464ZM12.8292 49.8015L13.149 49.8134C13.1542 49.6744 13.0689 49.5479 12.9381 49.5006L12.8292 49.8015ZM12.7899 50.8595L12.6785 51.1594C12.7748 51.1952 12.8824 51.1826 12.9677 51.1255C13.0531 51.0685 13.1059 50.9739 13.1097 50.8713L12.7899 50.8595ZM10.1057 49.429L10.2934 49.1698L10.2927 49.1693L10.1057 49.429ZM6.53118 44.9614L6.82986 44.8465L6.8294 44.8454L6.53118 44.9614ZM6.30858 40.3835L6.60913 40.4935L6.61087 40.4885L6.30858 40.3835ZM7.19895 39.1878L7.37458 39.4554L7.37872 39.4526L7.19895 39.1878ZM8.79637 38.791L8.78952 39.1109L8.79099 39.1109L8.79637 38.791ZM11.1663 39.3141L11.0575 39.615L11.0575 39.615L11.1663 39.3141ZM20.4497 42.672H20.7697C20.7697 42.5373 20.6853 42.417 20.5585 42.3711L20.4497 42.672ZM20.4497 45.2619L20.3409 45.5628C20.4389 45.5983 20.5481 45.5837 20.6335 45.5238C20.7189 45.4639 20.7697 45.3662 20.7697 45.2619H20.4497ZM11.1401 41.8944L11.249 41.5935L11.249 41.5935L11.1401 41.8944ZM9.3594 41.5984L9.40673 41.9149L9.40982 41.9144L9.3594 41.5984ZM8.37738 42.2596L8.65586 42.4174L8.65914 42.4113L8.37738 42.2596ZM8.44285 45.6807L8.14654 45.8016L8.14719 45.8032L8.44285 45.6807ZM9.49034 47.4103L9.24312 47.6135L9.24486 47.6155L9.49034 47.4103ZM11.0223 48.8416L10.8332 49.0998L10.835 49.1011L11.0223 48.8416ZM33.3738 2L33.6916 1.96206C33.6725 1.80217 33.5376 1.68136 33.3765 1.68001C33.2155 1.67866 33.0785 1.79718 33.0568 1.95674L33.3738 2ZM35.6145 20.7674L35.407 21.011C35.5072 21.0964 35.6496 21.1117 35.7657 21.0494C35.8817 20.9872 35.9478 20.8602 35.9322 20.7295L35.6145 20.7674ZM30.813 20.7674L30.496 20.7242C30.4786 20.8519 30.5394 20.9776 30.6505 21.0431C30.7615 21.1085 30.9009 21.101 31.0043 21.024L30.813 20.7674ZM33.3738 95.837L33.0568 95.8802C33.0785 96.0398 33.2155 96.1583 33.3765 96.157C33.5376 96.1556 33.6725 96.0348 33.6916 95.8749L33.3738 95.837ZM30.813 77.0696L31.0043 76.813C30.9009 76.736 30.7615 76.7285 30.6505 76.794C30.5394 76.8594 30.4786 76.9851 30.496 77.1128L30.813 77.0696ZM35.6145 77.0696L35.9322 77.1075C35.9478 76.9767 35.8817 76.8498 35.7656 76.7875C35.6496 76.7253 35.5072 76.7406 35.407 76.826L35.6145 77.0696ZM53.5398 95.5169H25.6915V96.1569H53.5398V95.5169ZM0.229042 44.9714L20.3409 52.2463L20.5585 51.6444L0.446739 44.3696L0.229042 44.9714ZM20.1297 51.9454V54.5213H20.7697V51.9454H20.1297ZM20.5585 54.2204L0.446739 46.9455L0.229042 47.5474L20.3409 54.8222L20.5585 54.2204ZM0.657891 47.2464V44.6705H0.0178906V47.2464H0.657891ZM12.5094 49.7897L12.4702 50.8476L13.1097 50.8713L13.149 49.8134L12.5094 49.7897ZM12.9013 50.5595C11.959 50.2096 11.09 49.7463 10.2934 49.1698L9.91812 49.6883C10.7626 50.2994 11.683 50.7898 12.6785 51.1594L12.9013 50.5595ZM10.2927 49.1693C9.48565 48.5883 8.78675 47.9298 8.1946 47.1938L7.69597 47.595C8.32589 48.3779 9.06729 49.0757 9.91877 49.6887L10.2927 49.1693ZM8.1946 47.1938C7.60323 46.4588 7.14901 45.6765 6.82985 44.8465L6.2325 45.0763C6.57675 45.9715 7.06528 46.8112 7.69597 47.595L8.1946 47.1938ZM6.8294 44.8454C6.50289 44.0061 6.34052 43.153 6.34052 42.2843H5.70052C5.70052 43.235 5.8786 44.1666 6.23295 45.0774L6.8294 44.8454ZM6.34052 42.2843C6.34052 41.5676 6.43341 40.9734 6.60908 40.4935L6.00808 40.2735C5.79968 40.8428 5.70052 41.5158 5.70052 42.2843H6.34052ZM6.61087 40.4885C6.77439 40.0177 7.0313 39.6807 7.37456 39.4553L7.02335 38.9203C6.54606 39.2336 6.2094 39.6937 6.0063 40.2785L6.61087 40.4885ZM7.37872 39.4526C7.71883 39.2216 8.18019 39.0978 8.78952 39.1109L8.80323 38.471C8.1032 38.456 7.49961 38.5969 7.01918 38.9231L7.37872 39.4526ZM8.79099 39.1109C9.388 39.121 10.1408 39.2834 11.0575 39.615L11.2752 39.0131C10.3238 38.669 9.49665 38.4827 8.80176 38.471L8.79099 39.1109ZM11.0575 39.615L20.3409 42.973L20.5585 42.3711L11.2752 39.0131L11.0575 39.615ZM20.1297 42.672V45.2619H20.7697V42.672H20.1297ZM20.5585 44.961L11.249 41.5935L11.0313 42.1953L20.3409 45.5628L20.5585 44.961ZM11.249 41.5935C10.4891 41.3187 9.83408 41.1986 9.30898 41.2824L9.40982 41.9144C9.77509 41.8561 10.3072 41.9334 11.0313 42.1953L11.249 41.5935ZM9.31207 41.2819C8.76808 41.3633 8.34864 41.6379 8.09561 42.1079L8.65914 42.4113C8.80765 42.1355 9.04289 41.9693 9.40672 41.9149L9.31207 41.2819ZM8.09896 42.1019C7.85148 42.5387 7.74313 43.1107 7.74313 43.789H8.38313C8.38313 43.1677 8.48428 42.7201 8.6558 42.4174L8.09896 42.1019ZM7.74313 43.789C7.74313 44.4728 7.87849 45.1444 8.14654 45.8016L8.73915 45.5599C8.50091 44.9758 8.38313 44.3861 8.38313 43.789H7.74313ZM8.14719 45.8032C8.41311 46.4454 8.77909 47.0489 9.24313 47.6134L9.73755 47.2071C9.31121 46.6884 8.97887 46.1389 8.73851 45.5583L8.14719 45.8032ZM9.24486 47.6155C9.70712 48.1683 10.2368 48.663 10.8332 49.0998L11.2114 48.5834C10.6555 48.1764 10.1639 47.7169 9.73581 47.205L9.24486 47.6155ZM10.835 49.1011C11.4257 49.5274 12.0543 49.8615 12.7204 50.1024L12.9381 49.5006C12.3297 49.2805 11.7536 48.9748 11.2095 48.5821L10.835 49.1011ZM33.0561 2.03794L35.2967 20.8053L35.9322 20.7295L33.6916 1.96206L33.0561 2.03794ZM35.822 20.5238L33.5813 18.6153L33.1663 19.1025L35.407 21.011L35.822 20.5238ZM33.1826 18.6023L30.6218 20.5109L31.0043 21.024L33.5651 19.1155L33.1826 18.6023ZM31.1301 20.8107L33.6909 2.04326L33.0568 1.95674L30.496 20.7242L31.1301 20.8107ZM33.3738 2.63812H33.6939V1.99812H33.3738V2.63812ZM33.3738 2.95621H33.6939V2.31621H33.3738V2.95621ZM33.3738 3.2743H33.6939V2.6343H33.3738V3.2743ZM33.3738 3.59239H33.6939V2.95239H33.3738V3.59239ZM33.3738 3.91048H33.6939V3.27048H33.3738V3.91048ZM33.3738 4.22857H33.6939V3.58857H33.3738V4.22857ZM33.3738 4.54666H33.6939V3.90666H33.3738V4.54666ZM33.3738 19.1789L35.6145 19.1789L35.6145 18.5389L33.3738 18.5389L33.3738 19.1789ZM34.014 19.497H35.6145V18.857H34.014V19.497ZM34.3341 19.8151H35.6145V19.1751H34.3341V19.8151ZM34.6542 20.1331H35.6145V19.4931H34.6542V20.1331ZM34.9743 20.4512H35.6145V19.8112H34.9743V20.4512ZM35.2944 20.7693H35.6145V20.1293H35.2944V20.7693ZM31.1331 19.1788L33.3738 19.1789L33.3739 18.5389L31.1331 18.5388L31.1331 19.1788ZM31.1331 19.4969H33.0537V18.8569H31.1331V19.4969ZM31.1331 19.815H32.7336V19.175H31.1331V19.815ZM31.1331 20.1331H32.0934V19.4931H31.1331V20.1331ZM31.1331 20.4512H31.7733V19.8112H31.1331V20.4512ZM31.1331 20.7693H31.4532V20.1293H31.1331V20.7693ZM33.6909 95.7937L31.1301 77.0263L30.496 77.1128L33.0568 95.8802L33.6909 95.7937ZM30.6218 77.3262L33.1826 79.2347L33.5651 78.7216L31.0043 76.813L30.6218 77.3262ZM33.5813 79.2217L35.822 77.3132L35.407 76.826L33.1663 78.7345L33.5813 79.2217ZM35.2967 77.0316L33.0561 95.799L33.6916 95.8749L35.9322 77.1075L35.2967 77.0316ZM31.1331 77.7077H31.4532V77.0677H31.1331V77.7077ZM31.1331 78.0258H31.7733V77.3858H31.1331V78.0258ZM31.1331 78.3439H32.0934V77.7039H31.1331V78.3439ZM31.1331 78.662H32.7336V78.022H31.1331V78.662ZM31.1331 78.9801H33.0537V78.3401H31.1331V78.9801ZM31.1331 79.2982L33.3738 79.2981L33.3738 78.6581L31.1331 78.6582L31.1331 79.2982ZM35.2944 77.7077H35.6145V77.0677H35.2944V77.7077ZM34.9743 78.0258H35.6145V77.3858H34.9743V78.0258ZM34.6542 78.3439H35.6145V77.7039H34.6542V78.3439ZM34.3341 78.662H35.6145V78.022H34.3341V78.662ZM34.014 78.9801H35.6145V78.3401H34.014V78.9801ZM33.3738 79.2981L35.6145 79.2981L35.6145 78.6581L33.3738 78.6581L33.3738 79.2981ZM33.3738 93.9304H33.6939V93.2904H33.3738V93.9304ZM33.3738 94.2485H33.6939V93.6085H33.3738V94.2485ZM33.3738 94.5665H33.6939V93.9265H33.3738V94.5665ZM33.3738 94.8846H33.6939V94.2446H33.3738V94.8846ZM33.3738 95.2027H33.6939V94.5627H33.3738V95.2027ZM33.3738 95.5208H33.6939V94.8808H33.3738V95.5208ZM33.3738 95.8389H33.6939V95.1989H33.3738V95.8389ZM33.0538 2V95.837H33.6938V2H33.0538ZM25.6915 2.32H106.356V1.68H25.6915V2.32ZM33.0536 4.86468L33.6939 4.86476L33.694 4.22476L33.0537 4.22468L33.0536 4.86468ZM33.0537 5.18277L34.014 5.18285L34.014 4.54285L33.0537 4.54277L33.0537 5.18277ZM33.0537 5.50086L34.014 5.50094L34.014 4.86094L33.0537 4.86086L33.0537 5.50086ZM33.0537 5.81895L34.014 5.81903L34.014 5.17903L33.0537 5.17895L33.0537 5.81895ZM33.0537 6.13704L34.014 6.13712L34.014 5.49712L33.0537 5.49704L33.0537 6.13704ZM33.0537 6.45514L34.014 6.45521L34.014 5.81521L33.0537 5.81514L33.0537 6.45514ZM33.0537 6.77323L34.014 6.7733L34.014 6.1333L33.0537 6.13323L33.0537 6.77323ZM32.7336 7.09132L34.014 7.0914L34.014 6.4514L32.7336 6.45132L32.7336 7.09132ZM32.7336 7.40941L34.014 7.40949L34.014 6.76949L32.7336 6.76941L32.7336 7.40941ZM32.7336 7.7275L34.3341 7.72758L34.3341 7.08758L32.7336 7.0875L32.7336 7.7275ZM32.7336 8.04559L34.3341 8.04567L34.3341 7.40567L32.7336 7.40559L32.7336 8.04559ZM32.7336 8.36368L34.3341 8.36376L34.3341 7.72376L32.7336 7.72368L32.7336 8.36368ZM32.7336 8.68178L34.3341 8.68185L34.3341 8.04185L32.7336 8.04178L32.7336 8.68178ZM32.7336 8.99987L34.3341 8.99994L34.3341 8.35994L32.7336 8.35987L32.7336 8.99987ZM32.7336 9.31796L34.3341 9.31803L34.3341 8.67803L32.7336 8.67796L32.7336 9.31796ZM32.4135 9.63605L34.3341 9.63613L34.3341 8.99613L32.4135 8.99605L32.4135 9.63605ZM32.4135 9.95414L34.3341 9.95422L34.3341 9.31422L32.4135 9.31414L32.4135 9.95414ZM32.4135 10.2722L34.3341 10.2723L34.3341 9.63231L32.4135 9.63223L32.4135 10.2722ZM32.4135 10.5903L34.6542 10.5904L34.6542 9.9504L32.4135 9.95033L32.4135 10.5903ZM32.4135 10.9084L34.6542 10.9085L34.6542 10.2685L32.4135 10.2684L32.4135 10.9084ZM32.4135 11.2265L34.6542 11.2266L34.6542 10.5866L32.4135 10.5865L32.4135 11.2265ZM32.4135 11.5446L34.6542 11.5447L34.6542 10.9047L32.4135 10.9046L32.4135 11.5446ZM32.0934 11.8627L34.6542 11.8628L34.6542 11.2228L32.0934 11.2227L32.0934 11.8627ZM32.0934 12.1808L34.6542 12.1809L34.6542 11.5409L32.0934 11.5408L32.0934 12.1808ZM32.0934 12.4989L34.6542 12.4989L34.6542 11.8589L32.0934 11.8589L32.0934 12.4989ZM32.0934 12.817L34.6542 12.817L34.6542 12.177L32.0934 12.177L32.0934 12.817ZM32.0934 13.1351L34.9743 13.1351L34.9743 12.4951L32.0934 12.4951L32.0934 13.1351ZM32.0934 13.4532L34.9743 13.4532L34.9743 12.8132L32.0934 12.8132L32.0934 13.4532ZM32.0934 13.7712L34.9743 13.7713L34.9743 13.1313L32.0934 13.1312L32.0934 13.7712ZM31.7733 14.0893L34.9743 14.0894L34.9743 13.4494L31.7733 13.4493L31.7733 14.0893ZM31.7733 14.4074L34.9743 14.4075L34.9743 13.7675L31.7733 13.7674L31.7733 14.4074ZM31.7733 14.7255L34.9743 14.7256L34.9743 14.0856L31.7733 14.0855L31.7733 14.7255ZM31.7733 15.0436L34.9743 15.0437L34.9743 14.4037L31.7733 14.4036L31.7733 15.0436ZM31.7733 15.3617L34.9743 15.3618L34.9743 14.7218L31.7733 14.7217L31.7733 15.3617ZM31.7733 15.6798L34.9743 15.6799L34.9743 15.0399L31.7733 15.0398L31.7733 15.6798ZM31.7733 15.9979L35.2944 15.998L35.2944 15.358L31.7733 15.3579L31.7733 15.9979ZM31.7733 16.316L35.2944 16.316L35.2944 15.676L31.7733 15.676L31.7733 16.316ZM31.4532 16.6341L35.2944 16.6341L35.2944 15.9941L31.4532 15.9941L31.4532 16.6341ZM31.4532 16.9522L35.2944 16.9522L35.2944 16.3122L31.4532 16.3122L31.4532 16.9522ZM31.4532 17.2702L35.2944 17.2703L35.2944 16.6303L31.4532 16.6302L31.4532 17.2702ZM31.4532 17.5883L35.2944 17.5884L35.2944 16.9484L31.4532 16.9483L31.4532 17.5883ZM31.4532 17.9064L35.2944 17.9065L35.2944 17.2665L31.4532 17.2664L31.4532 17.9064ZM31.4532 18.2245L35.2944 18.2246L35.2944 17.5846L31.4532 17.5845L31.4532 18.2245ZM31.4532 18.5426L35.6145 18.5427L35.6145 17.9027L31.4532 17.9026L31.4532 18.5426ZM31.1331 18.8607L35.6145 18.8608L35.6145 18.2208L31.1331 18.2207L31.1331 18.8607ZM31.1331 79.6162L35.6145 79.6162L35.6145 78.9762L31.1331 78.9762L31.1331 79.6162ZM31.4532 79.9343H35.6145V79.2943H31.4532V79.9343ZM31.4532 80.2524H35.2944V79.6124H31.4532V80.2524ZM31.4532 80.5705H35.2944V79.9305H31.4532V80.5705ZM31.4532 80.8886H35.2944V80.2486H31.4532V80.8886ZM31.4532 81.2067H35.2944V80.5667H31.4532V81.2067ZM31.4532 81.5248H35.2944V80.8848H31.4532V81.5248ZM31.4532 81.8429L35.2944 81.8429L35.2944 81.2029L31.4532 81.2029L31.4532 81.8429ZM31.7733 82.161L35.2944 82.161L35.2944 81.521L31.7733 81.521L31.7733 82.161ZM31.7733 82.4791L35.2944 82.4791L35.2944 81.8391L31.7733 81.8391L31.7733 82.4791ZM31.7733 82.7972L34.9743 82.7972L34.9743 82.1572L31.7733 82.1572L31.7733 82.7972ZM31.7733 83.1153L34.9743 83.1152L34.9743 82.4752L31.7733 82.4753L31.7733 83.1153ZM31.7733 83.4333L34.9743 83.4333L34.9743 82.7933L31.7733 82.7933L31.7733 83.4333ZM31.7733 83.7514L34.9743 83.7514L34.9743 83.1114L31.7733 83.1114L31.7733 83.7514ZM31.7733 84.0695H34.9743V83.4295H31.7733V84.0695ZM31.7733 84.3876L34.9743 84.3876L34.9743 83.7476L31.7733 83.7476L31.7733 84.3876ZM32.0934 84.7057L34.9743 84.7057L34.9743 84.0657L32.0934 84.0657L32.0934 84.7057ZM32.0934 85.0238L34.9743 85.0238L34.9743 84.3838L32.0934 84.3838L32.0934 85.0238ZM32.0934 85.3419L34.9743 85.3419L34.9743 84.7019L32.0934 84.7019L32.0934 85.3419ZM32.0934 85.66L34.6542 85.66L34.6542 85.02L32.0934 85.02L32.0934 85.66ZM32.0934 85.9781L34.6542 85.9781L34.6542 85.3381L32.0934 85.3381L32.0934 85.9781ZM32.0934 86.2962L34.6542 86.2962L34.6542 85.6562L32.0934 85.6562L32.0934 86.2962ZM32.0934 86.6143L34.6542 86.6143L34.6542 85.9743L32.0934 85.9743L32.0934 86.6143ZM32.4135 86.9324L34.6542 86.9323L34.6542 86.2923L32.4135 86.2924L32.4135 86.9324ZM32.4135 87.2505L34.6542 87.2504L34.6542 86.6104L32.4135 86.6105L32.4135 87.2505ZM32.4135 87.5685L34.6542 87.5685L34.6542 86.9285L32.4135 86.9285L32.4135 87.5685ZM32.4135 87.8866L34.6542 87.8866L34.6542 87.2466L32.4135 87.2466L32.4135 87.8866ZM32.4135 88.2047L34.3341 88.2047L34.3341 87.5647L32.4135 87.5647L32.4135 88.2047ZM32.4135 88.5228L34.3341 88.5228L34.3341 87.8828L32.4135 87.8828L32.4135 88.5228ZM32.4135 88.8409L34.3341 88.8409L34.3341 88.2009L32.4135 88.2009L32.4135 88.8409ZM32.7336 89.159L34.3341 89.159L34.3341 88.519L32.7336 88.519L32.7336 89.159ZM32.7336 89.4771L34.3341 89.4771L34.3341 88.8371L32.7336 88.8371L32.7336 89.4771ZM32.7336 89.7952L34.3341 89.7952L34.3341 89.1552L32.7336 89.1552L32.7336 89.7952ZM32.7336 90.1133L34.3341 90.1133L34.3341 89.4733L32.7336 89.4733L32.7336 90.1133ZM32.7336 90.4314L34.3341 90.4314L34.3341 89.7914L32.7336 89.7914L32.7336 90.4314ZM32.7336 90.7495L34.3341 90.7494L34.3341 90.1094L32.7336 90.1095L32.7336 90.7495ZM32.7336 91.0676L34.014 91.0675L34.014 90.4275L32.7336 90.4276L32.7336 91.0676ZM32.7336 91.3856L34.014 91.3856L34.014 90.7456L32.7336 90.7456L32.7336 91.3856ZM33.0537 91.7037L34.014 91.7037L34.014 91.0637L33.0537 91.0637L33.0537 91.7037ZM33.0537 92.0218L34.014 92.0218L34.014 91.3818L33.0537 91.3818L33.0537 92.0218ZM33.0537 92.3399L34.014 92.3399L34.014 91.6999L33.0537 91.6999L33.0537 92.3399ZM33.0537 92.658L34.014 92.658L34.014 92.018L33.0537 92.018L33.0537 92.658ZM33.0537 92.9761L34.014 92.9761L34.014 92.3361L33.0537 92.3361L33.0537 92.9761ZM33.0537 93.2942L34.014 93.2942L34.014 92.6542L33.0537 92.6542L33.0537 93.2942ZM33.0537 93.6123L33.6939 93.6123L33.6939 92.9723L33.0537 92.9723L33.0537 93.6123Z" fill="white"/>
    </g>
    <!--    26 h1-->
    <g class="group">
    </g>
    <!--    27 h2-->
    <g class="group">
    </g>
    <!--    28 R-->
    <g class="group">
    </g>
    <!--    29 Deg-->
    <g class="group">
    </g>
    <!--    29 DN-->
    <g class="group">
    </g>

</svg>
